<?xml version="1.0"?>
<!--Icons from directory ""-->
<svg xmlns="http://www.w3.org/2000/svg" width="84" height="168" viewBox="0 0 84 168"><svg xmlns:xlink="http://www.w3.org/1999/xlink" width="84" height="84" id="diagnosis-btn-img-body-03-disable" y="0"><defs><path id="diagnosis-btn-img-body-03-disable-a" d="M0 0h84v84H0z"/></defs><g fill="none" fill-rule="evenodd"><mask id="diagnosis-btn-img-body-03-disable-b" fill="#fff"><use xlink:href="#diagnosis-btn-img-body-03-disable-a"/></mask><path fill="#EFE5DC" d="M84 42c0 23.196-18.805 42-42 42C18.804 84 0 65.196 0 42S18.804 0 42 0c23.195 0 42 18.804 42 42" mask="url(#diagnosis-btn-img-body-03-disable-b)"/><path fill="#937C77" d="M40.649 9.26s-.308.51-.821.972c0 0-1.997 1.643-1.564 6.777 0 0-.44.206-.593.822 0 0-1.9 1.489-.718 1.643 0 0 1.385.41 1.847 0 0 0 .566.77.873 1.232 0 0 .514.872.052 2.823 0 0-.457.515-1.461 1.027 0 0-2.441 1.078-2.544 3.183 0 0-.616.616-.616 2.26 0 0 0 1.335.667 2.106 0 0 .566 2.823.104 5.492 0 0-.771 1.541-.771 2.465 0 0-.257 1.49 1.13 3.595 0 0 1.516 3.58 1.516 6.11 0 2.527-1.516 7.238-1.568 10.063 0 0-.052 4.877 4.467 6.983 0 0 .976 2.31.359 5.698 0 0-.36 2.722-1.335 3.389 0 0-.821 1.54.668.975 0 0 2.464-1.284 3.03-9.806l-.006-.264c4.504-2.109 4.453-6.976 4.453-6.976-.051-2.824-1.567-7.96-1.567-10.063 0-2.103 1.516-6.11 1.516-6.11 1.386-2.105 1.13-3.593 1.13-3.593 0-.925-.77-2.466-.77-2.466-.462-2.67.102-5.492.102-5.492.668-.771.668-2.105.668-2.105 0-1.645-.616-2.26-.616-2.26-.104-2.105-2.545-3.183-2.545-3.183-1.004-.513-1.46-1.027-1.46-1.027-.462-1.952.05-2.825.05-2.825.309-.461.874-1.231.874-1.231.462.41 1.848 0 1.848 0 1.18-.154-.718-1.643-.718-1.643-.155-.616-.594-.822-.594-.822.434-5.135-1.563-6.777-1.563-6.777-.513-.462-.822-.971-.822-.971-.277-2.417-1.352-2.258-1.352-2.258s-1.162-.02-1.35 2.258"/></g></svg><svg xmlns:xlink="http://www.w3.org/1999/xlink" width="84" height="84" id="diagnosis-btn-img-body-03" y="84"><defs><path id="diagnosis-btn-img-body-03-a" d="M0 0h84v84H0z"/></defs><g fill="none" fill-rule="evenodd"><mask id="diagnosis-btn-img-body-03-b" fill="#fff"><use xlink:href="#diagnosis-btn-img-body-03-a"/></mask><path fill="#DFBDD2" d="M84 42c0 23.196-18.805 42-42 42C18.804 84 0 65.196 0 42S18.804 0 42 0c23.195 0 42 18.804 42 42" mask="url(#diagnosis-btn-img-body-03-b)"/><path fill="#FDFAF6" d="M40.649 9.26s-.308.51-.821.972c0 0-1.997 1.643-1.564 6.777 0 0-.44.206-.593.822 0 0-1.9 1.489-.718 1.643 0 0 1.385.41 1.847 0 0 0 .566.77.873 1.232 0 0 .514.872.052 2.823 0 0-.457.515-1.461 1.027 0 0-2.441 1.078-2.544 3.183 0 0-.616.616-.616 2.26 0 0 0 1.335.667 2.106 0 0 .566 2.823.104 5.492 0 0-.771 1.541-.771 2.465 0 0-.257 1.49 1.13 3.595 0 0 1.516 3.58 1.516 6.11 0 2.527-1.516 7.238-1.568 10.063 0 0-.052 4.877 4.467 6.983 0 0 .976 2.31.359 5.698 0 0-.36 2.722-1.335 3.389 0 0-.821 1.54.668.975 0 0 2.464-1.284 3.03-9.806l-.006-.264c4.504-2.109 4.453-6.976 4.453-6.976-.051-2.824-1.567-7.96-1.567-10.063 0-2.103 1.516-6.11 1.516-6.11 1.386-2.105 1.13-3.593 1.13-3.593 0-.925-.77-2.466-.77-2.466-.462-2.67.102-5.492.102-5.492.668-.771.668-2.105.668-2.105 0-1.645-.616-2.26-.616-2.26-.104-2.105-2.545-3.183-2.545-3.183-1.004-.513-1.46-1.027-1.46-1.027-.462-1.952.05-2.825.05-2.825.309-.461.874-1.231.874-1.231.462.41 1.848 0 1.848 0 1.18-.154-.718-1.643-.718-1.643-.155-.616-.594-.822-.594-.822.434-5.135-1.563-6.777-1.563-6.777-.513-.462-.822-.971-.822-.971-.277-2.417-1.352-2.258-1.352-2.258s-1.162-.02-1.35 2.258"/></g></svg></svg>
