<?xml version="1.0"?>
<!--Icons from directory ""-->
<svg xmlns="http://www.w3.org/2000/svg" width="84" height="168" viewBox="0 0 84 168"><svg xmlns:xlink="http://www.w3.org/1999/xlink" width="84" height="84" id="diagnosis-btn-img-body-05-disable" y="0"><defs><path id="diagnosis-btn-img-body-05-disable-a" d="M0 0h84v84H0z"/></defs><g fill="none" fill-rule="evenodd"><mask id="diagnosis-btn-img-body-05-disable-b" fill="#fff"><use xlink:href="#diagnosis-btn-img-body-05-disable-a"/></mask><path fill="#EFE5DC" d="M84 42c0 23.196-18.804 42-42 42S0 65.196 0 42 18.804 0 42 0s42 18.804 42 42" mask="url(#diagnosis-btn-img-body-05-disable-b)"/><path fill="#937C77" d="M45.527 23.873c-.68-1.827-.529-3.167-.529-3.167.308-.462.201-1.232.201-1.232.463.41 1.85 0 1.85 0 1.18-.154-.72-1.643-.72-1.643-.155-.616-.593-.822-.593-.822.434-5.134-1.563-6.777-1.563-6.777-.514-.462-.822-.971-.822-.971C43.073 6.843 41.998 7 41.998 7s-1.16-.02-1.35 2.26c0 0-.308.509-.82.97 0 0-1.998 1.644-1.565 6.778 0 0-.438.206-.592.822 0 0-1.9 1.489-.719 1.643 0 0 1.387.41 1.848 0 0 0-.143.77.165 1.232 0 0 .012 1.324-.68 3.28a7.096 7.096 0 00-3.388 6.047v29.736a7.1 7.1 0 005.135 6.82c.551 1.193 1.408 3.543.975 5.922 0 0-.359 2.722-1.334 3.389 0 0-.822 1.54.667.976 0 0 3.375-2.241 4.026-10.416 2.758-.976 4.737-3.6 4.737-6.691V30.033a7.092 7.092 0 00-3.576-6.16"/></g></svg><svg xmlns:xlink="http://www.w3.org/1999/xlink" width="84" height="84" id="diagnosis-btn-img-body-05" y="84"><defs><path id="diagnosis-btn-img-body-05-a" d="M0 0h84v84H0z"/></defs><g fill="none" fill-rule="evenodd"><mask id="diagnosis-btn-img-body-05-b" fill="#fff"><use xlink:href="#diagnosis-btn-img-body-05-a"/></mask><path fill="#DFBDD2" d="M84 42c0 23.196-18.804 42-42 42S0 65.196 0 42 18.804 0 42 0s42 18.804 42 42" mask="url(#diagnosis-btn-img-body-05-b)"/><path fill="#FDFAF6" d="M45.527 23.873c-.68-1.827-.529-3.167-.529-3.167.308-.462.201-1.232.201-1.232.463.41 1.85 0 1.85 0 1.18-.154-.72-1.643-.72-1.643-.155-.616-.593-.822-.593-.822.434-5.134-1.563-6.777-1.563-6.777-.514-.462-.822-.971-.822-.971C43.073 6.843 41.998 7 41.998 7s-1.16-.02-1.35 2.26c0 0-.308.509-.82.97 0 0-1.998 1.644-1.565 6.778 0 0-.438.206-.592.822 0 0-1.9 1.489-.719 1.643 0 0 1.387.41 1.848 0 0 0-.143.77.165 1.232 0 0 .012 1.324-.68 3.28a7.096 7.096 0 00-3.388 6.047v29.736a7.1 7.1 0 005.135 6.82c.551 1.193 1.408 3.543.975 5.922 0 0-.359 2.722-1.334 3.389 0 0-.822 1.54.667.976 0 0 3.375-2.241 4.026-10.416 2.758-.976 4.737-3.6 4.737-6.691V30.033a7.092 7.092 0 00-3.576-6.16"/></g></svg></svg>
