<?xml version="1.0"?>
<!--Icons from directory ""-->
<svg xmlns="http://www.w3.org/2000/svg" width="84" height="168" viewBox="0 0 84 168"><svg xmlns:xlink="http://www.w3.org/1999/xlink" width="84" height="84" id="diagnosis-btn-img-body-01-disable" y="0"><defs><path id="diagnosis-btn-img-body-01-disable-a" d="M0 0h84v84H0z"/></defs><g fill="none" fill-rule="evenodd"><mask id="diagnosis-btn-img-body-01-disable-b" fill="#fff"><use xlink:href="#diagnosis-btn-img-body-01-disable-a"/></mask><path fill="#EFE5DC" d="M84 42c0 23.196-18.804 42-42 42C18.805 84 0 65.196 0 42S18.805 0 42 0c23.196 0 42 18.804 42 42" mask="url(#diagnosis-btn-img-body-01-disable-b)"/><path fill="#937C77" d="M40.65 9.26s-.31.51-.823.972c0 0-1.997 1.643-1.563 6.777 0 0-.439.206-.594.822 0 0-1.899 1.489-.718 1.643 0 0 1.386.41 1.848 0 0 0 1.08.77 1.388 1.232 0 0 .703.953.051 2.823 0 0-.97.515-1.975 1.027 0 0-2.44 1.078-2.545 3.183 0 0-.616.616-.616 2.26 0 0 0 1.335.668 2.106 0 0 .565 2.823.103 5.492 0 0-.77 1.541-.77 2.465 0 0-.257 1.49 1.13 3.595 0 0 4.09 3.58 4.09 6.11 0 2.527-4.09 7.238-4.142 10.063 0 0-.052 4.877 4.467 6.983 0 0 .976 2.31.36 5.698 0 0-.36 2.722-1.336 3.389 0 0-.822 1.54.667.975 0 0 2.465-1.284 3.03-9.806l-.005-.264c4.504-2.109 4.453-6.976 4.453-6.976-.052-2.824-4.14-7.96-4.14-10.063 0-2.103 4.088-6.11 4.088-6.11 1.387-2.105 1.13-3.593 1.13-3.593 0-.925-.77-2.466-.77-2.466-.462-2.67.103-5.492.103-5.492.667-.771.667-2.105.667-2.105 0-1.645-.616-2.26-.616-2.26-.103-2.105-2.544-3.183-2.544-3.183-1.004-.513-1.976-1.027-1.976-1.027-.73-1.957.052-2.825.052-2.825.308-.461 1.388-1.231 1.388-1.231.462.41 1.847 0 1.847 0 1.182-.154-.718-1.643-.718-1.643-.154-.616-.593-.822-.593-.822.434-5.135-1.564-6.777-1.564-6.777-.513-.462-.82-.971-.82-.971-.279-2.417-1.354-2.258-1.354-2.258s-1.16-.02-1.349 2.258"/></g></svg><svg xmlns:xlink="http://www.w3.org/1999/xlink" width="84" height="84" id="diagnosis-btn-img-body-01" y="84"><defs><path id="diagnosis-btn-img-body-01-a" d="M0 0h84v84H0z"/></defs><g fill="none" fill-rule="evenodd"><mask id="diagnosis-btn-img-body-01-b" fill="#fff"><use xlink:href="#diagnosis-btn-img-body-01-a"/></mask><path fill="#DFBDD2" d="M84 42c0 23.196-18.804 42-42 42C18.805 84 0 65.196 0 42S18.805 0 42 0c23.196 0 42 18.804 42 42" mask="url(#diagnosis-btn-img-body-01-b)"/><path fill="#FDFAF6" d="M40.65 9.26s-.31.51-.823.972c0 0-1.997 1.643-1.563 6.777 0 0-.439.206-.594.822 0 0-1.899 1.489-.718 1.643 0 0 1.386.41 1.848 0 0 0 1.08.77 1.388 1.232 0 0 .703.953.051 2.823 0 0-.97.515-1.975 1.027 0 0-2.44 1.078-2.545 3.183 0 0-.616.616-.616 2.26 0 0 0 1.335.668 2.106 0 0 .565 2.823.103 5.492 0 0-.77 1.541-.77 2.465 0 0-.257 1.49 1.13 3.595 0 0 4.09 3.58 4.09 6.11 0 2.527-4.09 7.238-4.142 10.063 0 0-.052 4.877 4.467 6.983 0 0 .976 2.31.36 5.698 0 0-.36 2.722-1.336 3.389 0 0-.822 1.54.667.975 0 0 2.465-1.284 3.03-9.806l-.005-.264c4.504-2.109 4.453-6.976 4.453-6.976-.052-2.824-4.14-7.96-4.14-10.063 0-2.103 4.088-6.11 4.088-6.11 1.387-2.105 1.13-3.593 1.13-3.593 0-.925-.77-2.466-.77-2.466-.462-2.67.103-5.492.103-5.492.667-.771.667-2.105.667-2.105 0-1.645-.616-2.26-.616-2.26-.103-2.105-2.544-3.183-2.544-3.183-1.004-.513-1.976-1.027-1.976-1.027-.73-1.957.052-2.825.052-2.825.308-.461 1.388-1.231 1.388-1.231.462.41 1.847 0 1.847 0 1.182-.154-.718-1.643-.718-1.643-.154-.616-.593-.822-.593-.822.434-5.135-1.564-6.777-1.564-6.777-.513-.462-.82-.971-.82-.971-.279-2.417-1.354-2.258-1.354-2.258s-1.16-.02-1.349 2.258"/></g></svg></svg>
