<?xml version="1.0"?>
<!--Icons from directory ""-->
<svg xmlns="http://www.w3.org/2000/svg" width="84" height="168" viewBox="0 0 84 168"><svg xmlns:xlink="http://www.w3.org/1999/xlink" width="84" height="84" id="diagnosis-btn-img-body-04-disable" y="0"><defs><path id="diagnosis-btn-img-body-04-disable-a" d="M0 0h83.999v84H0z"/></defs><g fill="none" fill-rule="evenodd"><mask id="diagnosis-btn-img-body-04-disable-b" fill="#fff"><use xlink:href="#diagnosis-btn-img-body-04-disable-a"/></mask><path fill="#EFE5DC" d="M84 42c0 23.196-18.805 42-42 42S0 65.196 0 42 18.804 0 42 0s42 18.804 42 42" mask="url(#diagnosis-btn-img-body-04-disable-b)"/><path fill="#937C77" d="M40.649 9.26s-.31.51-.821.972c0 0-1.997 1.643-1.564 6.777 0 0-.44.206-.594.822 0 0-1.9 1.489-.718 1.643 0 0 1.386.41 1.848 0 0 0 .187.802.359 1.232 0 0 .513.872.05 2.823 0 0 .059.515-.945 1.027 0 0-2.441 1.078-2.544 3.183 0 0-.838 3.172-.464 4.366 0 0 .565 2.823.103 5.492 0 0-.255 1.541-.255 2.465 0 0-.257 1.49 1.129 3.595 0 0 .487 3.58.487 6.11 0 2.527-.487 7.238-.538 10.063 0 0-.566 4.877 3.952 6.983 0 0 1.49 2.31.874 5.698 0 0-.36 2.722-1.335 3.389 0 0-.821 1.54.667.975 0 0 2.98-1.284 3.544-9.806l-.005-.264c4.504-2.109 3.939-6.976 3.939-6.976-.051-2.824-.538-7.96-.538-10.063 0-2.103.487-6.11.487-6.11 1.386-2.105 1.129-3.593 1.129-3.593 0-.925-.255-2.466-.255-2.466-.462-2.67.103-5.492.103-5.492.312-1.096-.464-4.365-.464-4.365-.103-2.105-2.544-3.183-2.544-3.183-1.004-.513-.945-1.027-.945-1.027-.463-1.952.05-2.825.05-2.825.194-.43.359-1.231.359-1.231.462.41 1.848 0 1.848 0 1.18-.154-.718-1.643-.718-1.643-.155-.616-.594-.822-.594-.822.434-5.135-1.564-6.777-1.564-6.777-.512-.462-.821-.971-.821-.971-.278-2.417-1.352-2.258-1.352-2.258s-1.162-.02-1.35 2.258"/></g></svg><svg xmlns:xlink="http://www.w3.org/1999/xlink" width="84" height="84" id="diagnosis-btn-img-body-04" y="84"><defs><path id="diagnosis-btn-img-body-04-a" d="M0 0h83.999v84H0z"/></defs><g fill="none" fill-rule="evenodd"><mask id="diagnosis-btn-img-body-04-b" fill="#fff"><use xlink:href="#diagnosis-btn-img-body-04-a"/></mask><path fill="#DFBDD2" d="M84 42c0 23.196-18.805 42-42 42S0 65.196 0 42 18.804 0 42 0s42 18.804 42 42" mask="url(#diagnosis-btn-img-body-04-b)"/><path fill="#FDFAF6" d="M40.649 9.26s-.31.51-.821.972c0 0-1.997 1.643-1.564 6.777 0 0-.44.206-.594.822 0 0-1.9 1.489-.718 1.643 0 0 1.386.41 1.848 0 0 0 .187.802.359 1.232 0 0 .513.872.05 2.823 0 0 .059.515-.945 1.027 0 0-2.441 1.078-2.544 3.183 0 0-.838 3.172-.464 4.366 0 0 .565 2.823.103 5.492 0 0-.255 1.541-.255 2.465 0 0-.257 1.49 1.129 3.595 0 0 .487 3.58.487 6.11 0 2.527-.487 7.238-.538 10.063 0 0-.566 4.877 3.952 6.983 0 0 1.49 2.31.874 5.698 0 0-.36 2.722-1.335 3.389 0 0-.821 1.54.667.975 0 0 2.98-1.284 3.544-9.806l-.005-.264c4.504-2.109 3.939-6.976 3.939-6.976-.051-2.824-.538-7.96-.538-10.063 0-2.103.487-6.11.487-6.11 1.386-2.105 1.129-3.593 1.129-3.593 0-.925-.255-2.466-.255-2.466-.462-2.67.103-5.492.103-5.492.312-1.096-.464-4.365-.464-4.365-.103-2.105-2.544-3.183-2.544-3.183-1.004-.513-.945-1.027-.945-1.027-.463-1.952.05-2.825.05-2.825.194-.43.359-1.231.359-1.231.462.41 1.848 0 1.848 0 1.18-.154-.718-1.643-.718-1.643-.155-.616-.594-.822-.594-.822.434-5.135-1.564-6.777-1.564-6.777-.512-.462-.821-.971-.821-.971-.278-2.417-1.352-2.258-1.352-2.258s-1.162-.02-1.35 2.258"/></g></svg></svg>
