<svg xmlns="http://www.w3.org/2000/svg" width="30" height="30" viewBox="0 0 30 30">
    <g fill="#4E5263" fill-rule="evenodd">
        <path d="M21.274 22.059c-.2 0-.401-.077-.554-.23L8.17 9.28c-.306-.306-.306-.802 0-1.109.307-.306.803-.306 1.11 0L21.828 20.72c.306.306.306.802 0 1.109-.153.153-.354.23-.555.23"/>
        <path d="M8.726 22.059c-.201 0-.402-.077-.555-.23-.306-.307-.306-.803 0-1.11L20.72 8.172c.306-.306.802-.306 1.109 0 .306.307.306.803 0 1.11L9.28 21.828c-.153.153-.354.23-.554.23"/>
    </g>
</svg>
