<svg xmlns="http://www.w3.org/2000/svg" width="16" height="16" viewBox="0 0 16 16">
    <g fill="none" fill-rule="evenodd">
        <circle cx="8" cy="8" r="7.5" fill="#FFF" stroke="#C9CDD3"/>
        <path fill="#8D95A0" d="M7.219 4.196c0-.333.101-.616.303-.848.202-.232.448-.348.739-.348.289 0 .535.116.737.348.202.232.304.515.304.848 0 .333-.102.616-.304.848-.202.233-.448.348-.737.348-.291 0-.537-.115-.739-.348-.202-.232-.303-.515-.303-.848zM6.1 6.563h.824c.35 0 .697-.022 1.043-.065.345-.043.684-.098 1.017-.165l-1.128 4.224c-.016.057-.037.143-.062.258-.025.115-.05.237-.075.366l-.069.366c-.02.114-.031.206-.031.272 0 .106.029.194.087.266.058.071.134.107.225.107.125 0 .24-.058.344-.172.104-.115.197-.251.28-.409.083-.158.154-.32.213-.487.058-.168.104-.309.137-.424h.424c-.091.307-.195.596-.312.868-.116.273-.257.517-.424.732-.167.215-.362.385-.587.509-.225.124-.487.186-.787.186-.407 0-.701-.148-.88-.445-.179-.296-.268-.673-.268-1.132 0-.153.035-.426.106-.818.07-.392.173-.846.306-1.362l.304-.969c.058-.229.098-.413.119-.552.021-.138.031-.251.031-.337 0-.134-.03-.234-.088-.301-.058-.067-.183-.101-.374-.101H6l.1-.415z"/>
    </g>
</svg>
