<svg xmlns="http://www.w3.org/2000/svg" width="100" height="71" viewBox="0 0 100 71">
    <g fill="none" fill-rule="evenodd">
        <path fill="#FFF7EF" d="M0 0H360V666H0z" transform="translate(-130 -110)"/>
        <g fill="#FF7866">
            <path d="M53.682 11.126c-.9-2.284.205-6.012 2.74-3.059 2.934 3.419 7.821-1.6 4.896-5.006C56.51-2.543 47.388-.06 46.2 7.32c-.544 3.37.89 6.776 2.756 9.504 2.61 3.819 7.76 9.102 1.653 12.577-3.909 2.224-.363 8.273 3.555 6.043 4.545-2.587 7.367-7.792 6.15-13.076-.715-3.11-2.67-5.49-4.51-7.996-.75-1.022-1.653-2.055-2.122-3.246M26.074 27.197c-1.267-1.815-4.265-2.598-6.082-1.07-3.106 2.607-9.185 3.43-10.383-1.72-.538-2.308 2.116-10.642 5.587-7.74 4.327 3.617 9.967-3.086 5.642-6.7-4.287-3.583-10.526-3.115-14.611.551C2.382 13.966.257 19.988.899 25.13c.597 4.81 4.106 9.208 8.6 10.941 5.233 2.02 11.238.825 15.51-2.762 1.808-1.518 2.5-4.056 1.065-6.112" transform="translate(-130 -110) translate(130 110)"/>
            <path d="M44.83 11.26c-1.143-4.647-8.364-2.942-7.215 1.728.702 2.855 2.645 9.383-1.065 11.188-3.507 1.707-4.141-6.401-4.22-8.434-.077-2.011-1.469-3.779-3.575-3.853-1.892-.066-3.914 1.572-3.836 3.593.278 7.258 3.437 18.725 13.06 16.046 3.702-1.03 6.384-4.078 7.469-7.726 1.238-4.154.39-8.44-.618-12.542M78.33 10.765c-4.69-.136-9.386-.54-14.01-1.34-1.973-.342-3.996.34-4.65 2.44-.536 1.72.443 4.326 2.43 4.67 1.687.293 3.378.55 5.07.774.236 6.39.485 10.01 1.051 16.38.179 2.002 1.398 3.775 3.577 3.852 1.81.063 4.015-1.576 3.834-3.593-.552-6.211-.795-9.672-1.032-15.902 1.154.074 2.311.131 3.472.166 4.767.137 5.038-7.31.259-7.447" transform="translate(-130 -110) translate(130 110)"/>
            <path d="M89.498 17.27c-.743-.544-1.725-.79-2.893-.506-5.133 1.247-8.907 6.17-8.395 11.523.506 5.31 5.137 9.729 10.511 9.68 5.607-.05 10.318-4.363 10.702-10.024.396-5.894-4.161-10.71-9.925-10.673m2.513 10.412c-.23 1.801-1.82 2.987-3.605 2.826-3.349-.302-3.492-4.356-1.256-5.957.389.16.807.24 1.245.201 2.095-.183 3.928.493 3.616 2.93M34.015 40.022c-.521-3.172-4.669-3.952-6.25-.594-1.958 4.164-4 8.29-6.119 12.382-.425-3.424-.847-6.85-1.272-10.277-.323-2.608-4.031-4.16-5.784-1.372C9.42 48.387 4.67 56.856.408 65.56c-2.005 4.098 3.928 6.46 5.922 2.384 2.677-5.469 5.542-10.845 8.595-16.118.459 3.71.92 7.42 1.378 11.13.428 3.456 4.558 3.643 6.248.597 2.138-3.85 4.2-7.736 6.195-11.653.26 3.224.412 6.47.441 9.737.04 4.39 6.615 3.183 6.576-1.191-.063-6.904-.646-13.724-1.748-20.425M53.94 58.622c-3.217.443-6.388.509-9.484.132.016-1.139.018-2.275.008-3.41 2.44-.127 4.88-.326 7.328-.602 1.755-.199 3.377-1.406 3.575-3.233.172-1.585-1.123-3.295-2.888-3.097-2.738.31-5.468.52-8.194.642-.072-1.487-.16-2.975-.275-4.456 2.547-.278 5.095-.584 7.642-.922 1.754-.232 3.374-1.38 3.574-3.232.169-1.557-1.121-3.33-2.888-3.097-3.763.5-7.525.934-11.287 1.303-1.015.1-1.986.563-2.661 1.285-.743.703-1.225 1.687-1.107 2.86.622 6.197.843 12.452.655 18.775-.041 1.328.624 2.73 2.04 3.002 4.304.825 8.745 1.003 13.276.379 1.754-.242 3.372-1.376 3.574-3.232.167-1.55-1.122-3.34-2.889-3.097M94.498 57.518l-4.579.984c-.616.132-1.4.37-2.16.543-.15-.318-.3-.634-.448-.953-.305-.658-.605-1.318-.899-1.98-.608-1.366-1.198-2.742-1.754-4.13-1.213-3.028-2.306-6.1-3.31-9.202-1.437-4.44-8.467-2.614-7.016 1.866 1.882 5.812 4.107 11.518 6.676 17.06 1.311 2.83 2.801 5.312 6.373 4.762 3.009-.465 5.997-1.26 8.974-1.9 4.564-.98 2.708-8.03-1.857-7.05M78.001 63.55c-2.098-4.269-3.987-8.652-5.546-13.15-1.423-4.108-2.279-8.916-5.58-12.003-1.604-1.497-4.033-1.114-4.856 1.02-2.928 7.584-3.91 15.669-3.152 23.749.145 1.551 2.039 2.5 3.42 2.197 1.666-.369 2.332-1.881 2.186-3.438-.082-.866-.134-1.733-.162-2.598 1.882.065 3.759.193 5.633.386.923 2.19 1.908 4.35 2.957 6.482 1.636 3.327 6.74.688 5.1-2.646m-13.493-9.985c.201-2.025.537-4.035 1.003-6.015.62 1.885 1.218 3.776 1.888 5.644.064.178.13.354.195.53-1.027-.072-2.057-.125-3.086-.16" transform="translate(-130 -110) translate(130 110)"/>
        </g>
    </g>
</svg>
