<svg xmlns="http://www.w3.org/2000/svg" xmlns:xlink="http://www.w3.org/1999/xlink" width="84" height="84" viewBox="0 0 84 84">
    <defs>
        <path id="prefix__a" d="M0 0L68.528 0 68.528 65.349 0 65.349z"/>
        <path id="prefix__c" d="M0.656 0.975L73 0.975 73 70 0.656 70z"/>
    </defs>
    <g fill="none" fill-rule="evenodd">
        <path fill="#EEDC7E" d="M27.788 62.213c-.13-.017-.262-.032-.392-.05.02.008.04.017.08.028l.312.022M52.981 58.136c-.016.005-.017.002-.04.012-.022.015-.04.03-.058.044l.098-.056z"/>
        <mask id="prefix__b" fill="#fff">
            <use xlink:href="#prefix__a"/>
        </mask>
        <path fill="#EEDC7E" d="M21.027 33.673l-.23.277c-.079.073-.152.149-.227.223.147-.171.302-.335.457-.5m44.504-15.861c.076-.17.154-.323.215-.402-.03.096-.086.234-.158.39-.073.159-.158.337-.234.519.03-.151.1-.338.177-.507m-58 46.235c-.025.05-.049.098-.076.148.016-.05.02-.071.031-.11-.09.264-.134.4-.105.342-.249.455-.05-.056-.155-.057.144-.391.401-1.216.504-1.282.084-.235.152-.387.25-.628.037-.155.084-.318.153-.493l-.017.083c.022-.023.044-.058.064-.092.304-.76.537-1.893.675-2.555-.088.672.187-.12.274-.09.007-.038-.054.14-.159.452-.05.156-.114.345-.183.556l-.239.689c.034-.066.07-.117.105-.124.095-.205.17-.4.233-.596.061-.197.114-.395.17-.606.111-.42.234-.891.467-1.501-.016.083-.049.249.003.2.17-.43.226-.86.205-.978.118-.083.474-1.01.581-1.491.056-.432.012-.381.238-1.13l-.037.349c.311-.868.125-.75.39-1.462-.11.282-.056.329.02.113.237-.932.217-.961.28-1.658l.06.149c.162-.802.458-2.317.592-2.298-.066.049-.077-.036-.052-.201s.087-.411.166-.688c.15-.555.39-1.211.5-1.554-.07.239-.043.294-.029.325.332-1.483 1.017-2.89 1.663-4.271l.24-.154c.343-.727.19-1.066.612-1.84-.032.104-.063.208-.09.313.18-.345.342-.633.484-.895.147-.26.285-.485.416-.703.131-.22.268-.424.411-.641.144-.217.295-.448.48-.703l.07.076c.108-.198.24-.415.374-.63.14-.212.28-.425.394-.622.197-.174.453-.46.734-.822.293-.355.613-.783.975-1.215.713-.87 1.556-1.776 2.33-2.326l-.042-.215c.526-.492 1.197-1.131 1.547-1.24l-.124.1c.018.078.157-.037.337-.203.18-.164.398-.386.586-.51.256-.22.467-.503.22-.345.783-.552 1.745-1.245 2.672-1.833.927-.585 1.812-1.07 2.37-1.28.824-.481 1.547-.91 2.311-1.304.38-.204.771-.39 1.184-.583.208-.095.423-.186.646-.28.222-.094.454-.184.697-.272l-.014.028c.656-.238 1.997-.63 2.042-.477.347-.127.664-.241.968-.36.303-.118.597-.226.901-.336.302-.113.62-.212.966-.312.346-.103.73-.185 1.165-.27l-.36.145c.442-.077 1.133-.29 1.305-.344.154-.03.048.025.031.05.426-.028.657-.152.988-.23l-.127.077c.352-.04.751-.09 1.18-.164.215-.033.438-.07.665-.107.114-.02.23-.04.346-.058l.353-.054c.948-.153 1.952-.28 2.861-.317-.334.032-.153.082-.018.099.184-.052.45-.096.756-.132.308-.03.656-.053 1.006-.07.35-.011.7-.02 1.01-.023.31-.001.582-.002.771-.01l-.469.06c.742-.05 1.062.015 1.378.07.158.027.316.055.527.078.21.022.471.03.84.027-.279-.053-.558-.098-.837-.148.298.03.575.045.76.042.184 0 .278-.021.21-.065.345.055.364.09.427.122.063.037.172.059.693.12.02.027-.169.017-.32.012-.152-.003-.268 0-.098.045l.715.134.358.068.353.074c-.985-.217.758-.034.106-.202.821.157-.195.153-.106.202l.102.022-.094-.02c.045.02.226.042.691.087-.096-.23 1.192.157.5-.153.51.064.997.156 1.47.242.47.099.927.189 1.37.296.892.199 1.74.419 2.607.59.081.05.193.1.33.154l.104.039.03.01.013.007.026.012.12.047c.02.006.042.016.064.02l.032-.057.068-.128.247-.497c.168-.337.324-.65.45-.861.123-.212.213-.324.257-.256.407-.901.691-1.652.82-2.26-.096.175-.163.42-.228.61.037-.266.49-1.363.68-1.821-.094.312-.236.712-.362 1.1-.129.389-.238.766-.298 1.018.171-.415.345-.927.505-1.388.08-.231.156-.45.22-.643.06-.193.111-.357.15-.476l.212-.162c.092-.37.177-.507.257-.647.081-.14.16-.28.226-.66l-.088.119c.246-.648.338-.99.423-1.32.083-.33.151-.651.356-1.263l.033.072c.172-.411.251-1.078.506-1.448l-.258.8c.087-.035 1.1-3.11 1.718-4.976C61.296 3.543 52.062 0 42 0 18.803 0 0 18.804 0 42c0 8.642 2.613 16.672 7.087 23.349.135-.256.276-.513.4-.697.015-.137.032-.381.044-.605" mask="url(#prefix__b)"/>
        <g transform="translate(11 14)">
            <mask id="prefix__d" fill="#fff">
                <use xlink:href="#prefix__c"/>
            </mask>
            <path fill="#EEDC7E" d="M52.258 33.525l.09-.176.269-.489-.36.665zm-4.418 5.823l-.025-.103c.004.078.318-.242.025.103zm-5.641 4.662c.229-.14.489-.326.477-.275-.156.096-.318.183-.477.275zm-16.127 5.007c.03-.022-.563-.039.022-.078.438.018.35.03-.022.078zm-3.947-.077c.063.036.132.062-.551-.029.495.014.247-.049.06-.097.36.028.723.056 1.085.076-.712-.03-.656.01-.594.05zM63.143.975c-.233.871-.434 1.624-.541 2.005l-.257.644c.1.17-.235 1.27-.18 1.258.029-.056.056-.11.079-.134-.047.102-.066.131-.078.134-.094.196-.197.491-.252.428-.092.49-.346 1.192-.317 1.412l.158-.469c-.431 1.475-.478 2.413-.87 3.535l-.194-.077c-.285.738-.27 1.434-.57 2.06.13-.213.123-.268.058.236.092-.284.184-.83.316-1.31l-.16 1.053.376-1.607c-.106.702-.113.65.044.392-.198.986-.38 1.018-.552 1.961-.12.327-.097-.037-.243.332-.16.84-.583 1.52-.642 2.137-.075.183.088-.338.029-.306l-.17.678c-.044.182-.07.32-.062.404l.154-.446c-.12.395-.06.484-.327 1.228-.082.45-.056.73.085.252-.044.197-.222.605-.238.438-.35 1.18.049.63-.394 1.738-.023.1-.05.19-.01.027l.01-.027c.017-.079.033-.165.008-.126-.102.28-.174.516-.222.714.292-1.01-.256.264.145-.912-.146.098-.3.896-.456 1.26-.106.602.132.112.095.42-.031-.015-.103.225-.212.502l.17-.249c-.08.24-.156.475-.231.77l.125-.493c-.186.517-.567 1.268-.795 2.204.027-.126.062-.316.06-.399-.001-.083-.035-.058-.158.24-.3 1.01-.115.22-.373.758-.165.496-.145.552-.154.663-.004.056-.016.125-.062.271-.047.145-.121.37-.277.722-.062.157.04.03.124-.119-.211.486-.356.867-.501 1.244-.074.188-.141.38-.232.574-.087.195-.185.402-.3.632.197-.403.36-.709.158-.138.037-.266-.386.75-.6 1.09l-.004.11c-.174.27-.05-.047.045-.287-.006-.012.01-.076.073-.219.025-.027-.018.084-.073.22.01.012.06-.066.138-.242.087-.238.072-.33-.003-.274-.037.03-.09.095-.154.2-.068.101-.147.242-.233.42-.32.791-.162.714-.062.6-.128.256-.218.444-.28.605-.062.16-.1.29-.136.417-.037.127-.074.253-.137.407-.062.154-.156.332-.297.567-.058.11-.221.332-.418.611-.205.275-.444.608-.646.952-.117.406.547-.83.394-.389-.214.26-.392.543-.572.837-.088.147-.173.3-.256.456-.084.156-.166.316-.256.476-.177.322-.352.66-.563.997-.107.168-.218.336-.338.506-.12.17-.245.342-.39.506l.032-.244c-.244.321-.478.641-.74 1.011.14-.143.269-.294.404-.442-.207.35-.817 1.083-.696.784-.12.194-.22.35-.312.48-.096.127-.182.233-.27.334-.177.202-.35.397-.645.703.3-.334.3-.34.282-.32-.02.017-.066.051.119-.222l-.214.233c-.063.068-.12.13-.172.183-.101.11-.178.2-.25.282-.14.167-.241.318-.457.563.043-.106-.238.101-.41.284-.177.252-.465.55-.77.872-.152.163-.322.318-.483.48-.164.157-.32.32-.476.466l-.022-.028c-.131.122-.264.243-.402.364-.07.06-.138.12-.207.178l-.217.171-.44.342c-.146.115-.301.22-.452.33-.151.107-.303.217-.454.326-.154.105-.306.211-.457.32-.3.217-.603.42-.888.642.018-.005.045-.018.072-.03l-.032.018c.118-.046.122-.025.055.035-.066.06-.203.162-.371.268l-.531.345c-.174.111-.332.205-.422.27-.098.024-.162.004-.38.127.042.104-.466.31-.625.45-.458.2.002-.134-.76.246-.292.152-.303.217-.252.237-.092.014-.268.065-.471.137-.203.071-.435.161-.647.238.066-.04.159-.078.246-.109.088-.033.17-.063.215-.086.03-.075-.238.07-.26 0-.37.144-.11.15-.583.306l.395-.25c-.192.056-.413.184-.503.227.149-.072.19-.122.193-.158-.176.072-.353.144-.53.212-.02.03-.014.05.022.06.096.027.323.01.31.061-1.042.34-1.83.705-2.647.951l.128-.136c-.396.125-.581.2-.716.28l.16-.045c-.094.042-.187.088-.283.127.038-.028.079-.055.123-.082-.206.056-.414.106-.621.158.349-.124.46-.182.467-.264-.65.198-1.565.375-1.711.532l.02-.025-.807.122c-.302.04-.618.09-.905.12-.287.031-.545.061-.726.075-.183.013-.29.016-.276.003-.478.083-1.027.127-1.457.166-.43.035-.743.073-.753.136.137-.014.25-.045.337-.092-.056.048-.104.151-.262.158-.054-.025-.076-.047-.075-.066-.578.066-1.504-.09-1.914.072-.687-.073-.036-.034.17-.133-.341-.036-.685.003-.973.022-.29.02-.52.028-.633-.068-.8.042.185.041-.084.118-.084-.088-.454-.096-.898-.112-.443-.01-.96-.026-1.33-.095-.34.048.339.065-.244.102.06-.04-.247-.067-.401-.08l-.157.096-.514-.227c-.23-.018-.46-.036-.688-.058-.06.02-.046.042-.042.061.007.036-.032.064-.785.012h.092c-.396-.152-1.08-.03-2.15-.256.368.07.16-.03.28-.046l-.605-.036c.055.001.082-.002.026-.023-.516-.153-.463-.019-1.065-.18.172.016.24.007.266-.012-.28-.04-.561-.08-.836-.123L14.4 47.9l.07-.017c-2.345-.365-4.536-.784-6.493-1.129-.03-.004-.061.002-.09 0-.006.007-.018.015-.023.022l.108.004c-.047.016-.091.033-.132.05 0-.019.012-.036.024-.054-.18.003-.353.061-.514.138.009.01.038.012.08.01.019-.003.043-.005.069-.01l.04-.008.043-.003.09-.01c.03-.006.06 0 .092-.003.06-.006.118.008.169.012.049.014.016.025-.048.04l-.056.01-.07.02c-.05.01-.106.04-.168.063-.247.114-.552.367-.761.56-.293.245-.45.401-.55.473-.096.075-.131.08-.157.068-.026-.009-.042-.032-.1-.003-.058.03-.158.112-.345.318-.283.387-.547.79-.8 1.198l-.054-.018c-.164.166-.188.31-.211.368-.005-.064-.18.172-.386.492-.207.318-.448.716-.608.964l.172-.142c-.36.738-.722 1.271-1.071 1.767-.348.496-.678.955-.947 1.547l-.324.863-.182.118c-.193.503-.163.624-.595 1.386l-.016.027c7.647 7.992 18.41 12.98 30.344 12.98 23.196 0 42-18.805 42-42C73 17.704 69.29 8.28 63.143.974z" mask="url(#prefix__d)"/>
        </g>
        <path fill="#EA6852" d="M65.748 42.402c.055-.135.098-.246.073-.219-.062.143-.079.207-.073.22M53.676 57.735c.012-.05-.248.135-.477.275.159-.092.32-.179.477-.275M45.009 61.802l-.161.045c-.044.026-.085.054-.123.082.096-.04.189-.085.284-.127M38.416 62.777c-.086.047-.2.078-.337.092-.001.02.021.041.075.066.158-.007.205-.11.262-.158M18.972 60.78l-.107-.004c-.013.018-.025.035-.025.054.04-.017.085-.033.132-.05M69.394 32.951l-.01.027c-.038.163-.011.073.01-.027M55.375 23.033c.652.168-1.091-.016-.105.201-.089-.049.926-.045.105-.2M73.166 18.883c.012-.003.031-.032.078-.135-.023.025-.051.078-.078.135"/>
        <path fill="#EA6852" d="M7.541 63.691c-.009-.03-.016-.066-.01-.12.08-.267.13-.348.162-.376-.043.123-.09.27-.152.461v.035m20.247-1.479c-.099-.005-.198-.012-.312-.022-.039-.01-.06-.02-.08-.027l.392.05m-15.521 7.395l.182-.118.323-.863c.27-.592.6-1.05.948-1.547.348-.496.712-1.029 1.071-1.767l-.172.142c.159-.248.401-.646.608-.964.207-.32.38-.556.386-.492.023-.058.047-.202.211-.368l.055.018c.252-.408.516-.81.799-1.198.187-.206.287-.288.345-.318.058-.029.074-.006.1.003.025.011.061.007.158-.068.1-.072.256-.228.549-.474.209-.192.514-.445.761-.559.061-.024.119-.053.168-.063l.07-.02.056-.01c.064-.015.096-.026.048-.04-.051-.004-.108-.018-.169-.012-.032.002-.062-.003-.092.002l-.09.011-.043.003-.04.008c-.026.005-.05.007-.069.01-.042.002-.072 0-.08-.01.161-.077.334-.135.514-.138.005-.007.017-.015.023-.022.029.002.06-.004.09 0 1.957.345 4.148.764 6.494 1.13l-.072.016.195.003c.275.043.556.083.836.123-.026.02-.094.028-.266.012.602.161.549.027 1.064.18.057.021.03.024-.025.023l.606.036c-.122.016.086.116-.28.046 1.069.225 1.753.104 2.149.256h-.092c.753.052.792.024.785-.012-.004-.019-.018-.04.042-.06.228.021.458.038.688.057l.514.227.156-.097c.155.014.461.041.402.081.583-.037-.095-.054.244-.102.37.07.887.085 1.33.095.443.016.814.024.898.112.269-.077-.715-.076.083-.118.114.096.345.087.633.068.288-.019.633-.058.975-.022-.207.1-.858.06-.171.133.41-.162 1.336-.006 1.914-.072.01-.063.322-.1.753-.136.43-.039.979-.083 1.457-.166-.014.013.093.01.275-.003.182-.014.44-.044.727-.075.287-.03.603-.08.904-.12l.809-.122-.022.025c.147-.157 1.062-.334 1.711-.532-.006.082-.117.14-.466.264.207-.052.415-.102.621-.158.134-.08.32-.155.715-.28l-.127.136c.818-.246 1.605-.612 2.647-.95.013-.053-.214-.035-.311-.062-.036-.01-.042-.03-.021-.06.177-.068.353-.14.53-.212-.002.036-.045.085-.193.158.09-.043.31-.17.503-.228l-.395.251c.474-.156.214-.162.584-.306.021.07.288-.075.259 0-.045.023-.127.053-.215.086-.088.031-.18.068-.246.11.212-.078.443-.168.647-.239.203-.072.379-.123.471-.137-.051-.02-.04-.085.252-.237.762-.38.302-.047.76-.246.159-.14.667-.346.626-.45.217-.123.281-.103.379-.127.09-.065.248-.159.422-.27l.531-.345c.168-.106.305-.208.371-.268.067-.06.063-.08-.056-.035l-.097.056.057-.044c.286-.222.59-.425.889-.643.15-.108.303-.214.457-.319l.454-.327c.151-.11.306-.214.452-.329l.44-.342.217-.17.207-.18c.137-.12.271-.24.402-.363l.021.028c.157-.146.313-.309.477-.467.161-.16.331-.316.482-.479.306-.323.594-.62.771-.872.172-.183.453-.39.41-.284.216-.245.317-.397.458-.563.07-.084.148-.172.249-.282l.172-.183.214-.233c-.186.273-.139.24-.119.221.019-.019.019-.013-.282.321.294-.306.468-.5.646-.703.087-.1.173-.207.269-.335.093-.13.192-.285.312-.479-.121.298.488-.434.695-.784-.134.148-.263.3-.403.442.262-.37.496-.69.739-1.01l-.031.243c.145-.164.27-.336.39-.506.12-.17.231-.338.338-.506.211-.337.385-.675.563-.997.09-.16.172-.32.256-.476.083-.156.168-.309.256-.456.179-.294.358-.577.572-.837.152-.44-.512.795-.394.39.202-.345.441-.678.646-.953.197-.279.359-.5.418-.61.141-.236.234-.414.297-.568.062-.154.099-.28.137-.407.037-.127.074-.257.136-.417.062-.16.152-.349.28-.606-.1.115-.258.192.062-.599.086-.178.165-.319.233-.42.065-.105.117-.17.154-.2.075-.057.09.036.003.274-.077.176-.128.254-.138.241-.094.24-.219.556-.045.287l.005-.11c.213-.34.636-1.356.599-1.09.202-.57.039-.265-.159.138.116-.23.213-.437.301-.632.091-.195.157-.386.232-.574.145-.377.29-.758.501-1.244-.083.15-.186.276-.124.12.156-.354.23-.578.277-.723.046-.146.058-.215.061-.27.01-.112-.01-.168.155-.664.258-.539.073.251.373-.759.123-.297.157-.322.159-.239.001.083-.034.273-.062.4.229-.937.61-1.688.795-2.205l-.125.492c.076-.294.153-.53.232-.769l-.17.25c.108-.278.181-.518.212-.503.037-.308-.201.182-.095-.42.156-.364.31-1.162.456-1.26-.401 1.176.147-.099-.145.912.048-.198.12-.434.221-.714.026-.039.01.047-.007.126.443-1.109.044-.558.394-1.739.016.168.193-.24.237-.437-.14.477-.167.198-.085-.252.269-.744.207-.833.328-1.228l-.154.446c-.008-.085.018-.222.063-.404l.169-.678c.059-.032-.104.49-.03.306.06-.618.484-1.297.643-2.137.145-.369.124-.005.243-.332.172-.943.354-.975.552-1.96-.157.256-.151.31-.044-.393l-.375 1.607.159-1.054c-.132.48-.225 1.027-.316 1.311.065-.504.072-.449-.058-.237.3-.625.285-1.32.569-2.059l.196.077c.39-1.122.438-2.06.869-3.535l-.158.47c-.03-.22.225-.923.317-1.413.055.063.158-.232.252-.428-.057.012.279-1.089.179-1.258l.257-.644c.107-.38.308-1.134.541-2.005-1.696-2.013-3.575-3.867-5.615-5.532-.619 1.866-1.631 4.941-1.717 4.977l.257-.8c-.255.37-.334 1.037-.506 1.447l-.033-.07c-.205.61-.273.932-.355 1.262-.086.33-.178.671-.424 1.32l.088-.119c-.067.38-.145.52-.226.66-.08.14-.165.276-.257.646l-.212.162-.151.477c-.062.192-.138.411-.219.642-.16.461-.334.973-.504 1.388.059-.252.168-.629.297-1.016.126-.389.268-.79.362-1.102-.19.458-.643 1.556-.68 1.821.065-.189.132-.434.229-.608-.129.606-.414 1.357-.821 2.26-.044-.07-.134.043-.257.255-.126.21-.282.523-.45.861l-.247.497-.067.128-.032.057c-.023-.004-.045-.014-.066-.02-.043-.017-.083-.032-.119-.048l-.025-.012-.015-.005-.028-.01c-.037-.015-.072-.029-.106-.04-.136-.054-.248-.105-.329-.155-.868-.17-1.715-.39-2.606-.589-.444-.108-.901-.198-1.371-.296-.472-.086-.959-.179-1.47-.243.692.31-.596-.077-.499.154-.466-.045-.647-.068-.692-.087l.094.02-.101-.023v.001l-.354-.074-.357-.069-.715-.133c-.17-.044-.055-.048.097-.045.152.005.34.014.321-.012-.522-.062-.631-.084-.694-.12-.063-.032-.082-.068-.427-.122.068.044-.026.064-.21.064-.185.003-.461-.01-.76-.042.279.05.558.096.837.15-.368.003-.631-.006-.84-.029-.211-.022-.368-.05-.526-.078-.317-.055-.637-.119-1.378-.068l.468-.062c-.189.008-.461.01-.771.01-.311.004-.66.013-1.01.023-.349.017-.698.042-1.006.071-.306.035-.572.08-.756.132-.134-.018-.316-.068.018-.1-.908.038-1.913.164-2.86.317-.119.02-.238.037-.354.054l-.346.06c-.227.037-.45.072-.665.105-.428.075-.828.125-1.179.164l.127-.076c-.331.077-.563.201-.989.231.017-.027.123-.08-.031-.05-.172.053-.863.265-1.306.342l.362-.144c-.436.084-.82.166-1.165.27-.348.1-.664.2-.967.311-.304.11-.598.22-.9.338-.305.117-.622.231-.969.358-.045-.152-1.386.24-2.042.478l.014-.028c-.243.087-.475.177-.697.272-.222.094-.437.185-.645.28-.413.194-.806.378-1.185.582-.764.395-1.486.824-2.31 1.304-.559.212-1.444.695-2.371 1.28-.926.588-1.889 1.282-2.671 1.833.247-.158.036.125-.221.346-.188.123-.405.346-.586.51-.18.166-.318.28-.337.203l.124-.1c-.35.11-1.02.747-1.547 1.24l.042.214c-.773.55-1.617 1.457-2.33 2.327-.361.431-.682.86-.974 1.214-.282.364-.538.65-.735.823-.114.197-.254.41-.393.622-.136.215-.267.431-.374.63l-.071-.077c-.184.255-.336.487-.479.704-.144.216-.281.42-.411.64-.131.22-.27.444-.416.703-.143.262-.306.55-.485.896.028-.106.059-.209.09-.313-.423.774-.268 1.113-.611 1.84l-.241.153c-.646 1.382-1.331 2.79-1.663 4.271-.013-.03-.041-.086.029-.324-.111.343-.35 1-.499 1.553-.079.278-.142.524-.166.688-.026.165-.015.25.051.201-.133-.018-.429 1.496-.591 2.298l-.061-.148c-.062.697-.043.725-.279 1.658-.076.216-.132.17-.022-.114-.263.713-.078.594-.388 1.462l.037-.347c-.227.748-.183.696-.239 1.13-.107.48-.462 1.407-.581 1.49.021.117-.035.548-.205.977-.051.05-.018-.117-.003-.2-.233.611-.356 1.081-.467 1.501-.056.211-.109.41-.169.607-.064.196-.139.39-.234.595-.036.007-.071.058-.104.124l.238-.688.184-.557c.104-.31.166-.49.158-.452-.087-.028-.361.763-.274.091-.137.661-.371 1.796-.674 2.555-.021.034-.042.068-.065.091l.018-.083c-.07.175-.116.338-.154.494-.097.241-.166.392-.25.627-.103.067-.36.891-.503 1.283.104.001-.094.511.155.056-.029.06.014-.078.104-.34.019-.06.042-.13.05-.172l-.001.03.342-.98c-.063.327-.139.665-.346 1.082-.011.224-.029.468-.045.605-.123.185-.263.441-.399.697 1.356 2.025 2.891 3.918 4.569 5.673l.016-.027c.431-.762.402-.883.595-1.386"/>
        <path fill="#EA6852" d="M53.014 58.116c-.027.014-.054.026-.072.031.023-.01.024-.007.04-.01l.032-.02zM32.574 62.911c.683.091.613.065.551.03-.063-.04-.118-.082.594-.05-.363-.02-.724-.048-1.085-.077.187.048.434.112-.06.097M37.072 63.018c.371-.05.46-.061.021-.078-.584.039.01.056-.02.078M58.815 53.245l.025.104c.292-.346-.022-.026-.026-.104M63.258 47.525L63.617 46.86 63.349 47.349zM65.746 17.41c-.06.08-.139.232-.215.401-.077.17-.146.357-.177.508.077-.182.162-.36.234-.518.072-.158.13-.295.158-.39M21.027 33.673c-.155.165-.31.329-.457.5.075-.074.148-.15.227-.223l.23-.277z"/>
        <path fill="#221E1F" d="M36.946 37.836L36.902 37.806 36.93 37.834zM36.943 37.748c-.02-.048-.07-.103-.06-.142-.06.039.03.079.017.125l-.014.01.057.007zM36.98 37.47l.005-.007-.008-.024c-.02.016-.03-.02.004.032M36.978 37.34c-.026-.027-.038-.014-.052.015l.035.023c.013-.013.002-.043.017-.037M36.898 37.37c-.02.005.001.004.021.013l-.035-.027c-.007.01-.027.02.014.013M36.879 37.433c.029.057.07.032.039-.026-.006.023-.007.049-.04.026M36.827 37.656c-.014-.007.007-.049-.014-.042l-.012.028.026.014zM36.844 37.198c.002-.016-.003-.042.014-.055-.013.006-.027.031-.041.041l.027.014zM36.793 37.36L36.798 37.37 36.87 37.404zM36.778 37.017L36.818 37.017 36.755 37.013zM36.763 36.897c-.022-.02-.056-.021-.086-.023.024.008.038.029.039.066.032-.005.023-.047.047-.043M36.741 37.094l.01.012c.004-.007.02-.024.015-.047l-.025.035zM36.741 37.095v-.001l-.017-.028.017.029M36.708 37.287c.031 0 .036-.03.082-.019-.03-.008-.073-.034-.082.02M36.731 37.19c.008-.006.018-.021.032-.017l-.045-.022.013.038z"/>
        <path fill="#221E1F" d="M36.698 37.142c.008.003.015.006.021.01l-.004-.015-.017.005zM36.648 36.943c-.024-.002-.038-.016-.054-.029.01.022.021.043.035.06.012-.007.037-.012.02-.03M36.447 36.764l-.002.008.005-.005-.003-.003zM36.661 37.001l-.03-.027c-.006.003-.009.005-.004.007.005.017.018.02.034.02M36.693 37.005c-.01-.004-.02-.003-.032-.004.01.007.017.012.027.016l.005-.012M36.497 36.826l.015.008c-.009-.018-.008-.037-.006-.076-.033-.005-.046.001-.056.008l.055.06h-.008z"/>
        <path fill="#221E1F" d="M36.47 36.935c.032.032.046 0 .077.01-.055-.05.03.002.013-.055.015.007.025.016.035.024-.006-.013-.01-.028-.013-.042l-.001.002c-.002.007-.003.01-.003.005l-.002-.001.005-.003v-.001c-.021-.014-.045-.028-.07-.04.009.016.025.028.052.053-.038.017-.075 0-.092.048M36.621 37.26c.007.002.022-.002.027.014-.003.018-.016.009-.027.017.014.003.042.016.044-.021l-.008-.002c-.002-.03.023-.09.03-.088-.027.026-.045.047-.066.08M36.534 37.089l.016-.014c.012.033.03.01.045.005-.018-.012-.034-.025-.053-.036-.002.016-.004.03-.008.045M36.49 36.718c-.023.007-.045.012-.067.02.01 0 .021.003.032.006l.035-.026zM36.413 36.667L36.381 36.67 36.387 36.693zM34.37 36.6l.03.028c.012-.016.027-.021.042-.02-.042-.014-.1-.04-.073-.007M33.942 37.796l-.035-.022c.007.007.014.017.021.027l.014-.005M35.473 36.321l.012.011c.018-.005.037-.012.058-.005-.02-.022-.045-.03-.07-.006M36.11 36.492c-.006 0-.013-.004-.024-.009.01.004.017.01.024.017-.002-.004-.002-.007 0-.008"/>
        <path fill="#221E1F" d="M34.675 36.589l.026.022c.01-.018.021-.038.033-.056v.163c-.026.014-.047.036-.07.05-.002-.003-.003-.005-.003-.008-.01-.067-.008-.136.014-.171m.41-.023c.01.015.007.034.008.05-.035.008-.069.013-.102.023-.019-.062-.032-.123-.032-.15.008.003.103.043.127.077m.572-.09c.063-.005.014.056.026.048.102.042.135-.112.208-.022.017.06-.035.094-.04.13-.048.002-.055-.055-.087-.061l.03.034c-.02.01-.053.016-.065-.002.009.024.053.04.103.06-.09-.033-.188-.046-.286-.06.026-.052.05-.11.11-.126m1.255 1.863c.023-.027.05-.057.072-.086-.06-.023.002-.104-.058-.115l.01.029c-.04-.023-.089-.007-.14.012.002-.031.017-.056.017-.086 0-.474-.218-.88-.538-1.161.017.004.038-.014.038.012.042.003.11-.1.133-.173-.012.01-.023.02-.066.012-.002.024.03.093-.015.096-.047-.02-.02-.038-.026-.067-.014.046-.09.013-.124.074l.045.006c-.003.006-.01.01-.015.017-.085-.07-.17-.138-.268-.188.01-.005.025-.006.025-.018l-.028-.006c-.003-.048.07-.027.049-.06.045-.008.106-.03.14.02l-.023.055c.008-.015-.011-.048-.032-.04.033-.01.025.107.086.057l-.01-.053c.047-.005.125-.028.15.018.017-.058-.01-.001 0-.076-.022.082-.105-.074-.112.026.011-.084-.034-.062-.043-.143-.008.017-.003.039-.035.012l-.017.01v-.002.002c-.003.002-.004.002 0 0 .005.013.008.026.005.037-.04.028-.094-.002-.124.008-.018-.018.018-.014.015-.04l-.043.018c.016-.04-.032-.088.032-.09l-.05-.02c-.02-.034-.059-.058-.09-.051-.022-.017-.075.027-.044.002l-.087.003.002-.01c-.038-.015-.085-.005-.129-.003-.011 0-.023-.011-.034-.013.007.006.014.01.019-.004-.021-.02-.04-.03-.056-.034.011.013.022.028.03.036-.03-.005-.059-.005-.089-.031-.028.009-.056.02-.102.006l-.008-.036c-.037.01-.11-.032-.123.006-.047-.1-.18-.002-.245-.008l.007.047c-.044.007-.08.03-.125.063l.015.039c-.033.042-.117.01-.184.039-.002-.016.017-.02.032-.014-.058-.031-.093.007-.124.045-.03.039-.056.077-.105.069-.01.023-.023.025-.04.024.002-.001.002-.003.002-.005l-.007.004c-.01-.001-.022-.004-.034-.004.013.004.023.007.03.007-.011.009-.027.025-.04.046l-.033-.032c-.002 0-.002.002-.003.004-.027 0-.002.028.026.049-.005.012-.006.025-.006.039-.058-.047-.029.054-.096.008.012.037-.064.093-.017.159-.008-.007-.015-.006-.008-.015-.023.01-.045.02-.044.05l-.05-.032.023.09c-.046 0-.07-.003-.083-.056.002.1-.023.062-.009.154l-.027-.025c-.012.019.008.077-.025.07-.094 0-.14.205-.248.3.108.017-.069.042.01.077-.028-.002-.048.012-.06-.018 0 .074-.075.088-.017.154-.026 0-.032-.025-.05-.022.005.007.017.028 0 .032-.017.003-.017-.016-.026-.03-.014.073.062.096.135.116-.044.026-.04.044.003.077-.026.007-.053.023-.056-.02-.006.022-.057.14.005.149-.017.005-.008.032 0 .039-.007.05-.013.056-.01.108l.011-.015c.07.02.017.042.026.083l-.007-.001c-.045.098.026.038-.024.137l.043-.01c.097-.004-.044.088 0 .138l.021-.024c.036.02-.109.107-.114.143-.006.008-.014-.008-.023-.015-.036.095.058-.004.087.05-.029.02-.081.008-.078.05-.016.03.137.083.1.156.019-.02.037-.04.065-.022.023.034-.037.145.05.146-.005.008-.008.013-.014.016.035.02.084.076.129.07-.062.055-.014.087.03.113.042.026.084.046.028.09l.072.072-.011.008c.035.055.08.045.118.037.005.016-.014.018-.02.023.047.086.063.09.167.08l-.022.042c.017-.005.031.033.06.069.029.034.068.074.122.074-.003.004-.01.01-.02.012.06 0 .1.058.145.098.044.037.09.058.136-.015.026-.003.05-.011.076-.02-.078-.033.035-.065.008-.102.033-.001.066.069.028.069-.018.062.087.053.073.105.17.032.341.084.511.07l-.026-.064.056-.005c.017.014.027.05-.014.054.029.034.065-.044.063-.06.084.016-.019.085.007.083l.032-.01-.008-.007c.022-.032.017-.06.066-.07.033.005.026.037.038.037 0 .004.006.005.02-.003l.072-.015-.044-.044c.023-.032.065-.018.016-.064.035.037.102.02.162-.002.059-.03.109-.064.13-.058.019-.055.054-.08.102-.103-.018-.002-.058-.05-.017-.067.06.114.099-.006.184.04-.032-.012-.008-.035.012-.06.019-.027.03-.053-.015-.067.034-.018.032.033.074.035.017-.05.06-.08.102-.114.045-.032.096-.066.123-.121-.012-.011-.044-.01-.05-.044.035 0 .069-.001.103-.003.008-.024-.068-.07.002-.074-.015-.002-.036-.006-.033-.022.091-.074.13-.188.16-.297.016-.056.032-.11.053-.163.023-.054.054-.106.098-.16-.037.028-.037.006-.035-.017-.01.013-.04-.007-.062-.007"/>
        <path fill="#221E1F" d="M34.954 39.637h.001c.001-.005-.007-.004-.005-.01l.004.01zM36.283 36.57l-.04-.01c.018.007.02.02.022.031.005-.01.007-.027.018-.02M36.383 36.977c-.017-.014-.04-.012-.03.009.008 0 .009.007.015.007l.015-.016zM36.228 36.714c-.017.029.008.032.029.04.034-.035.004-.04-.029-.04M36.26 36.758c-.003 0-.001-.003-.003-.004l-.001.002.004.002M36.071 36.472c.033-.038-.103.014-.028.022.007.015.028-.04.028-.022M36.173 36.826l.02-.043-.032.024c.004.006.009.012.012.02M36.076 36.72c-.019-.014-.038-.032-.044-.02l.027.029c.004-.007.01-.01.017-.01M36.119 36.796L36.098 36.779 36.123 36.811zM35.623 36.578c.012-.009.028-.013.025-.028l-.044.006c-.007.015.002.026.019.022M35.038 36.624L35.048 36.621 35.025 36.528zM37.037 38.191L37.058 38.156 37.025 38.178zM36.97 38.122l.06-.007-.053-.02c.002.006.007.021-.007.027M49.02 37.836L48.975 37.806 49.002 37.834zM49.017 37.748c-.021-.048-.07-.103-.062-.142-.058.039.032.079.018.125l-.013.01.057.007zM49.053 37.47l.005-.007c-.002-.005-.005-.012-.007-.024-.021.016-.031-.02.002.032M49.05 37.34c-.025-.027-.036-.014-.051.015l.036.023c.01-.013 0-.043.016-.037M48.972 37.37c-.02.005 0 .004.02.013l-.035-.027c-.007.01-.027.02.015.013M48.951 37.433c.03.057.071.032.04-.026-.007.023-.007.049-.04.026M48.9 37.656c-.014-.007.006-.049-.015-.042l-.012.028.026.014zM48.917 37.198c.001-.016-.004-.042.014-.055-.013.006-.027.031-.041.041l.027.014zM48.866 37.36L48.871 37.37 48.943 37.404zM48.852 37.017L48.892 37.017 48.829 37.013zM48.835 36.897c-.021-.02-.056-.021-.085-.023.023.008.037.029.039.066.031-.005.022-.047.046-.043M48.815 37.094l.008.012c.005-.007.02-.024.016-.047l-.024.035z"/>
        <path fill="#221E1F" d="M48.813 37.095l.002-.001-.017-.028.015.029M48.781 37.287c.031 0 .036-.03.082-.019-.03-.008-.073-.034-.082.02M48.804 37.19c.009-.006.019-.021.033-.017l-.045-.022.012.038zM48.772 37.142l.02.01-.004-.015-.016.005zM48.722 36.943c-.024-.002-.038-.016-.055-.029.01.022.022.043.036.06.012-.007.037-.012.019-.03M48.52 36.764c0 .003-.002.005-.003.008l.006-.005-.003-.003zM48.733 37.001l-.03-.027c-.006.003-.009.005-.004.007.006.017.02.02.034.02M48.767 37.005c-.01-.004-.021-.003-.033-.004.009.007.017.012.027.016 0-.004.003-.008.006-.012M48.57 36.826l.015.008c-.009-.018-.009-.037-.007-.076-.032-.005-.046.001-.055.008l.054.06h-.008zM48.544 36.935c.03.032.045 0 .076.01-.056-.05.03.002.012-.055.016.007.025.016.035.024-.005-.013-.01-.028-.013-.042v.002h-.001c-.001.007-.003.01-.003.005l-.002-.001.005-.003v-.001c-.021-.014-.045-.028-.068-.04.007.016.023.028.05.053-.037.017-.075 0-.091.048M48.693 37.26c.008.002.023-.002.028.014-.003.018-.016.009-.028.017.015.003.043.016.044-.021l-.007-.002c-.002-.03.022-.09.028-.088-.026.026-.044.047-.065.08M48.606 37.089l.016-.014c.013.033.03.01.045.005-.017-.012-.034-.025-.052-.036l-.009.045M48.563 36.718l-.068.02c.012 0 .023.003.034.006l.033-.026zM48.485 36.667L48.454 36.67 48.46 36.693zM46.442 36.6l.03.028c.012-.016.028-.021.043-.02-.043-.014-.1-.04-.073-.007M46.015 37.796l-.034-.022.02.027.014-.005M47.546 36.321l.012.011c.017-.005.037-.012.057-.005-.02-.022-.044-.03-.07-.006M48.183 36.492c-.005 0-.012-.004-.023-.009.009.004.017.01.024.017-.002-.004-.002-.007-.001-.008M47.027 39.637c.001-.005-.007-.004-.004-.01l.004.01z"/>
        <path fill="#221E1F" d="M46.747 36.589l.026.022.034-.056v.163c-.026.014-.046.036-.071.05l-.002-.008c-.01-.067-.01-.136.013-.171m.412-.023c.01.015.006.034.006.05-.034.008-.068.014-.101.023-.018-.062-.033-.123-.032-.15.009.003.104.043.127.077m.572-.09c.063-.005.014.056.027.048.1.042.133-.112.206-.022.019.06-.033.094-.038.13-.05.002-.056-.055-.09-.061l.032.034c-.02.01-.052.016-.064-.002.008.024.053.04.102.06-.091-.033-.19-.046-.286-.06.026-.052.05-.11.11-.126m1.255 1.863c.024-.027.05-.057.073-.086-.061-.023 0-.104-.058-.115l.009.029c-.04-.023-.09-.007-.14.012.002-.031.017-.056.017-.086 0-.474-.217-.88-.538-1.161.016.004.039-.014.038.012.042.003.11-.1.132-.173-.012.01-.022.02-.065.012-.002.024.03.093-.015.096-.048-.02-.02-.038-.026-.067-.014.046-.09.013-.124.074l.046.006c-.004.006-.011.01-.017.017-.084-.07-.17-.138-.267-.188.01-.005.025-.006.024-.018l-.026-.006c-.004-.048.069-.027.048-.06.045-.008.106-.03.139.02l-.022.055c.008-.015-.011-.048-.032-.04.032-.01.025.107.086.057l-.01-.053c.048-.005.124-.028.15.018.018-.058-.011-.001 0-.076-.021.082-.105-.074-.112.026.012-.084-.034-.062-.043-.143-.008.017-.002.039-.035.012l-.017.01-.001-.002v.002c-.002.002-.002.002 0 0 .006.013.008.026.006.037-.04.028-.095-.002-.124.008-.017-.018.018-.014.015-.04l-.043.018c.015-.04-.033-.088.03-.09l-.048-.02c-.02-.034-.058-.058-.09-.051-.021-.017-.075.027-.043.002l-.088.003.002-.01c-.04-.015-.084-.005-.128-.003-.012 0-.024-.011-.035-.013.006.006.013.01.019-.004-.021-.02-.04-.03-.057-.034.013.013.023.028.032.036-.03-.005-.06-.005-.09-.031-.027.009-.057.02-.102.006l-.008-.036c-.036.01-.11-.032-.123.006-.047-.1-.18-.002-.245-.008l.007.047c-.043.007-.08.03-.126.063l.016.039c-.033.042-.117.01-.184.039-.002-.016.017-.02.032-.014-.058-.031-.094.007-.124.045-.03.039-.056.077-.106.069-.008.023-.022.025-.04.024l.004-.005-.007.004c-.012-.001-.023-.004-.035-.004.013.004.023.007.03.007-.011.009-.027.025-.04.046l-.033-.032-.004.004c-.027 0-.001.028.027.049-.004.012-.006.025-.006.039-.057-.047-.03.054-.095.008.01.037-.065.093-.018.159-.008-.007-.015-.006-.008-.015-.022.01-.045.02-.045.05l-.048-.032c.006.029.014.06.022.09-.046 0-.07-.003-.082-.056.002.1-.023.062-.01.154l-.026-.025c-.013.019.007.077-.025.07-.094 0-.14.205-.25.3.11.017-.067.042.01.077-.026-.002-.047.012-.06-.018.002.074-.074.088-.016.154-.027 0-.033-.025-.05-.022.005.007.017.028 0 .032-.016.003-.018-.016-.026-.03-.014.073.062.096.134.116-.043.026-.04.044.005.077-.026.007-.054.023-.057-.02-.006.022-.058.14.004.149-.016.005-.006.032 0 .039-.005.05-.011.056-.008.108l.01-.015c.07.02.016.042.027.083l-.008-.001c-.046.098.025.038-.025.137l.044-.01c.098-.004-.044.088 0 .138l.022-.024c.035.02-.11.107-.114.143-.007.008-.016-.008-.024-.015-.035.095.059-.004.087.05-.028.02-.081.008-.077.05-.016.03.136.083.1.156.018-.02.035-.04.064-.022.024.034-.036.145.049.146-.003.008-.007.013-.012.016.034.02.082.076.127.07-.06.055-.013.087.03.113.044.026.085.046.03.09l.072.072-.012.008c.035.055.079.045.118.037.004.016-.013.018-.02.023.048.086.063.09.167.08l-.021.042c.017-.005.03.033.059.069.028.034.067.074.122.074-.004.004-.01.01-.02.012.06 0 .1.058.145.098.044.037.09.058.135-.015.026-.003.052-.011.077-.02-.078-.033.035-.065.009-.102.032-.001.065.07.026.069-.016.062.088.053.075.105.17.032.34.084.51.07l-.026-.064.056-.005c.016.014.028.05-.014.054.028.034.065-.044.062-.06.085.016-.017.085.008.083l.033-.01-.01-.007c.022-.032.019-.06.066-.07.034.005.027.037.039.037 0 .004.006.005.019-.003l.073-.015-.044-.044c.024-.032.065-.018.015-.064.036.037.102.02.163-.002.058-.03.109-.064.13-.058.019-.055.054-.08.102-.103-.017-.002-.057-.05-.016-.067.059.114.097-.006.183.04-.032-.012-.007-.035.012-.06.018-.027.03-.053-.015-.067.034-.018.032.033.074.035.017-.05.059-.08.103-.114.045-.032.096-.066.122-.121-.012-.011-.044-.01-.05-.044.035 0 .069-.001.103-.003.008-.024-.067-.07.002-.074-.015-.002-.037-.006-.034-.022.092-.074.13-.188.16-.297.017-.056.033-.11.054-.163.023-.054.054-.106.097-.16-.035.028-.035.006-.033-.017-.01.013-.04-.007-.062-.007"/>
        <path fill="#221E1F" d="M48.356 36.57l-.04-.01c.018.007.018.02.021.031.006-.01.008-.027.02-.02M48.455 36.977c-.016-.014-.038-.012-.029.009.008 0 .008.007.015.007l.014-.016zM48.332 36.758c-.002 0-.001-.003-.003-.004l-.001.002.004.002M48.302 36.714c-.017.028.006.032.027.04.034-.035.005-.04-.027-.04M48.145 36.472c.032-.038-.104.014-.029.022.008.015.029-.04.029-.022M48.246 36.826l.021-.043-.034.024c.004.006.01.012.013.02M48.15 36.72c-.02-.014-.04-.032-.046-.02l.028.029c.003-.007.01-.01.017-.01M48.191 36.796L48.17 36.779 48.195 36.811zM47.695 36.578c.012-.009.028-.013.025-.028l-.044.006c-.006.015.002.026.02.022M47.111 36.624L47.121 36.621 47.097 36.528zM49.11 38.191L49.131 38.156 49.098 38.178zM49.043 38.122l.061-.007-.054-.02c.002.006.007.021-.007.027"/>
        <path fill="#E3C951" d="M48.496 51.293L48.712 51.147 48.435 51.25zM51.062 49.48c-.023.069-.053.133-.085.197-.032.063-.061.132-.1.194-.055-.013-.129.029-.21.096-.081.066-.175.151-.26.24l.209-.176c-.047.053.026.07-.022.126-.09.058-.157.11-.218.156-.06.045-.108.09-.158.133-.053.038-.104.076-.167.11-.032.017-.066.034-.104.049-.039.014-.083.026-.132.037l.016-.019c-.082.065-.162.133-.247.192-.093.027-.077-.029-.056-.057-.056.04-.11.076-.161.114-.054.035-.108.069-.165.102-.115.069-.247.125-.422.184.161.033.344-.066.52-.175.089-.051.174-.11.259-.15.085-.04.168-.067.25-.064l-.014.02c.148-.11.322-.2.496-.294.086-.052.174-.102.255-.16.078-.06.154-.123.22-.191.14-.209.404-.578.296-.663M50.925 50c.03-.024.057-.049.078-.075.02-.028.038-.056.054-.083-.02.022-.038.047-.06.074-.021.025-.047.052-.072.084M48.367 44.316c.015-.03.057-.043.087-.062-.003 0 0-.002-.003-.003l-.084.065z"/>
        <path fill="#E3C951" d="M51.063 46.065c.033.011.04-.132.136.036.006.028-.008.042 0 .07l.073.06c.003.081-.085-.01-.139-.03-.022-.045-.046-.09-.07-.136zm-.925-1.1c.093.017.221.091.35.186.15.111.29.228.377.202-.019.031.19.242-.07.067.145.132.184.263.203.37.013.093.018.165.044.232-.24-.42-.547-.788-.904-1.058zm-1.76-.379s-.202.06-.563.143c.085-.023.169-.048.247-.075.105-.037.21-.076.328-.11.12-.04.261-.06.423-.042.158-.044.351-.048.527-.025.178.024.341.067.46.092-.037.05-.08.088-.142.116-.407-.182-.843-.244-1.28-.099zm-10.224.557c.043.022.035.04.01.057l-.126-.013c.04-.014.085-.022.116-.044zm2.344.142c-.058.013-.069.025-.08.038-.094-.003-.197-.003-.288-.006.014-.015.03-.027.052-.033.097-.003.215-.015.316.001zm6.087-.326c.007.001.005.004.01.005-.169.028-.373.054-.564.08.156-.048.322-.088.553-.085zm.448-.073l-.205.037c.036-.027.09-.05.206-.058v.021zm-.041-.146c.258.034.196-.119.509-.085-.067.023-.142.11-.183.153.128-.004.229-.022.33-.042-.145.031-.305.063-.49.098l.044-.03c-.11-.055-.41.024-.21-.094zm3.007.096c.014.01.023.034.036.05-.057-.04-.12-.062-.178-.096l.014.003c.047.007.09.02.127.043zm1.834 3.012l-.01-.164c-.013-.232-.047-.462-.098-.686-.102-.45-.272-.885-.508-1.288l.081.056c-.08-.058-.174-.14-.236-.179-.015-.084-.095-.265-.22-.426-.123-.162-.29-.302-.417-.318-.018-.025.03-.01.055-.004-.125-.097-.292-.248-.5-.384-.207-.138-.464-.252-.711-.288-.114.05-.29.01-.475.002-.134-.003-.255.027-.34.084.077.012.029.05-.04.105-.077.056-.15.11-.172.142-.142-.092-.033-.09-.192-.169l.162.002-.06-.09c-.206.192-.45.218-.666.221-.218.007-.413-.008-.553.118.017-.014.01-.03.028-.043-.218-.023-.343.134-.494.192-.026-.049.08-.097.154-.15-.373.02-.98.25-1.403.207-.137.086.066.087-.08.157-.13-.006-.225-.053-.072-.105-.186-.046-.477.003-.794.05-.316.046-.658.094-.936.046-.285.091-.102.121-.544.188.1-.054-.113-.167.151-.182l.03-.056c-.22.002-.477.002-.709.023-.23.017-.437.051-.556.131-.015-.115-.082-.022-.248-.08-.068.012.005.015.033.023-.162.1-.244-.006-.36.01l.04-.02-.317.068c-.053-.016-.13-.038-.142-.074v.08c-.17-.002-.08-.1-.292-.086l.044.06c-.133-.04-.352.035-.377-.052-.005-.017.022-.009.07-.01-.105-.064-.24-.058-.383-.045-.143.01-.293.028-.42-.006l.06.132c-.256.027-.154-.035-.142-.079-.17-.007-.205-.05-.427-.083-.11.025-.06.043-.098.08l-.226-.049.152-.06c-.181.083-.4.058-.603.03-.205-.024-.393-.055-.519.017-.127-.052.128-.063.052-.094-.401-.124-.936.003-1.263-.146-.268-.093-.563-.146-.864-.21-.15-.03-.3-.065-.449-.105-.074-.02-.147-.042-.218-.066l-.118-.045-.145-.039.008.036c-.084-.024-.171-.035-.258-.052-.087-.007-.175-.02-.264-.02-.072.04-.194.057-.323.091-.064.017-.13.035-.19.063-.062.026-.117.057-.16.096.009-.03-.048-.057-.008-.09-.209.077-.398.216-.53.243l.047-.06c-.217.107-.453.277-.633.46-.181.181-.308.37-.353.487-.085.133-.133.095-.192.108-.15.228-.203.406-.242.628-.035.047-.073.096-.127.146l.044.125c-.049.1-.075.001-.123.08-.02.214-.07.432-.11.64-.043.208-.076.406-.073.556l.043-.043c.015.066.01.142-.008.194-.014.054-.038.08-.061.006-.006.146-.003.278.018.4.014.061.03.121.046.18.017.058.032.117.06.175.049.117.094.24.166.374.033.07.063.142.108.217l.064.118.032.064.04.062c-.034.087.076.241.207.372.06.07.13.13.178.188.047.057.078.116.072.167.146.092.248.186.352.254.053.034.102.066.154.092.053.023.109.04.17.047-.002.02.017.04-.029.015.078.13.48.285.785.373l-.003.055c.075-.03.233.017.39.06.16.038.316.08.39.044.025.034-.072.026-.12.027.057.08.133.091.212.095.041.003.084.003.129.008.02.003.043.008.066.014l.046.01.035.012c-.022.023.03.07-.017.077.65.29 1.665.276 2.535.483.244.038-.074-.129.246-.076.086.068-.172.091.028.143.156-.049.21-.028.406.002-.04.033-.01.062-.153.07.11.06.496-.027.715.085-.008-.035.037-.05.081-.066.345-.06.764.164.8.114 0 0 .12-.006.017-.025.124.013.302.038.267.092.068-.027.128-.07.224-.07l-.056.062c.058-.01.126-.048.18-.053l-.084-.044c.069.03.175.018.261.013.088-.007.156-.006.149.055l-.05.001.264.066c.109-.046.218-.09.396-.069.065.128.455.033.681.05l-.01.044c.178-.064.635-.043.552-.063.173 0 .407.02.322.062.14-.03.438-.04.508-.117.096.032.191.062.288.092.16-.168.57.023.575-.149.157.014.124.054.236.075.212-.099.439-.107.666-.118l.008.018c.23-.008.486-.127.8-.174l.082.118c.164-.04.191-.144.352-.139.04.014.005.025-.035.04.151-.047.363-.05.485-.035.223-.129.411-.128.602-.263.206.078-.264.1-.088.175.349-.002.683-.129 1.04-.266.038.017 0 .046-.01.075 0 0 .172-.116.32-.247.133-.116.224-.235.184-.29l.008-.002c1.694-.496 3.158-1.42 3.158-3.157v-.153c0-.416-.096-.844-.258-1.247.013.017.02.04.032.057.075.114.157.24.206.417l-.044-.053c.029.121.053.243.07.367l-.013-.02.05.145.044.15-.045-.007c.015.07.042.084.05.184l-.054-.03c.022.022.04.063.056.111.017.05.03.107.037.172.015.127.023.267.002.356l-.03.032c.005.072.018.147.014.221l-.008.227c-.062.103-.07.02-.077-.03-.002-.024-.005-.04-.011-.024-.008.018-.016.07-.053.178l-.06-.145c-.04.151-.076.235-.114.301-.041.065-.078.12-.113.222.095-.055.163-.194.151-.07-.06.04-.096.082-.127.125-.032.042-.053.088-.069.138-.016.05-.025.105-.044.156-.019.053-.04.11-.072.164.082-.097.142-.16.136-.27.077-.108.075-.005.127-.07.02-.063.033-.129.045-.195l.094-.01c.016-.052.037-.104.049-.158l.035-.163c.038.027.07-.042.096-.098.02-.059.038-.105.066-.028.013-.118.047-.204.066-.29.015-.088.022-.175-.005-.283.078-.148.026.253.062.09.015-.116.008-.234.008-.349 0-.057 0-.119-.002-.169z"/>
        <path fill="#221E1F" d="M38.326 47.847c-.006-.004-.01.002 0 0M43.161 47.815h.005c.002-.02.004-.036.007-.049l-.012.05zM43.947 47.874l.006.005c-.002-.012-.002-.023-.006-.005M41.375 48.049c-.007-.001-.011.003-.014.009.004-.004.008-.008.014-.01M36.887 47.773h.004l-.007-.014.003.014z"/>
        <path fill="#221E1F" d="M36.907 47.744c.016.016-.009.025-.017.028.016.028.035.033.056.024.003-.03-.033-.03-.039-.052M34.303 47.395l.01-.01-.01.01M41.455 49.464l-.013.007c.006 0 .01-.003.013-.007M34.698 47.509l.014-.044c-.008.018-.012.03-.014.044M43.173 47.767l.004-.018-.004.018M44.67 47.834c.002.014.005.025.008.034h.002l-.01-.034zM48.423 47.977l-.005-.017-.008.035c.007-.005.01-.01.013-.017M45.683 47.911c0-.006.002-.01 0-.017-.018-.012-.062-.009-.12 0l.004.056.116-.039z"/>
        <path fill="#221E1F" d="M46.976 49.041l-.127-.094c.34-.107.52-.024.802-.168l-.012.028c.049.017.024-.235.562-.024l.002.011c.016-.005.01-.027.05-.005l-.095-.051c.044-.038.076-.099.14-.12.017.01.026.031.03.049l.159-.053.064.062c.042-.05-.013-.196.138-.14-.073-.094.052-.077.023-.127.01.012.029.028.045.043.076-.029.217-.093.245-.156l-.06-.024-.135-.061c-.102-.05-.217-.11-.27-.158.116.005.027-.019-.002-.049l-.002.027c-.071-.011-.084-.077-.12-.089 0 .005.002.012.005.018l.002-.01c.006.011.005.02.003.028.004.013.004.025-.014.025l.002-.008c-.026.016-.075.015-.096.015l-.012-.056c-.027.116-.355-.095-.42-.086-.078-.056-.141.045-.23.026-.131.006-.078-.069-.152-.104-.087-.02.029.062-.003.071l-.111-.06c.055-.017.019-.044.004-.065-.085.006-.233-.072-.24.043-.121-.033-.13-.078-.178-.075.02.018.055.03.059.053-.054-.041-.02.015 0 .023-.061.06-.39-.143-.384-.018l-.004-.023c-.001.093.039.177-.001.236l-.04-.036-.041.047c-.037-.024-.024-.051-.026-.062-.073.054-.191.02-.29.022l.14.233c-.09-.045-.253-.139-.257-.057l-.06-.076c-.185-.136-.104.085-.175.046l-.095-.08.08-.009c-.086-.035-.123-.061-.194-.111l-.001.003c.005.002.009.006.01.012l-.011.004c-.004.046-.042.083-.1.088-.082-.002-.136.074-.278-.007l-.02.097-.105-.044-.01-.074c.097-.007.272-.056.393-.077l-.002-.035c-.072.01-.15.055-.2.053-.024-.013-.093-.082-.056-.138l-.036.079c-.24.037-.241.041-.502-.014l.026.035c-.047.026-.094.054-.115-.006-.152.003-.313-.027-.42-.112l-.013.09c-.033-.001-.092-.129-.096-.005l-.065.045c-.045-.003-.066.049-.121.003l-.01-.01c0 .002 0 .005.002.007-.103-.031.007.079-.11.037-.042-.059-.031.115-.088.099l-.065-.121c-.106-.064-.112.065-.257.076-.073-.041-.113-.147-.074-.246-.055.121-.024.078-.104.138-.015-.046-.008-.057.008-.1-.077-.052-.043.045-.1.045-.01.091-.02.235-.038.242l.024.026c-.057.052-.12.078-.193.037v-.045l-.072.028-.008-.058-.104.023.015.016c-.024.009-.105.031-.152.003v-.032c-.135-.095-.237.041-.39.056l.017-.065c-.054-.064-.011.1-.074.071l-.005-.081c-.052.108-.071-.018-.11-.058l.02.105-.071-.021c-.08-.035-.051-.132-.041-.188l-.051.084-.013-.093c-.036.109-.04-.017-.105.042-.006-.035.01-.055-.013-.07l-.11.132.067-.059-.006.136c-.07.104-.096-.014-.146.025l.035-.041c-.082.034-.087-.023-.134-.052.015.024.037.061.004.08-.024.007-.014-.047-.037-.063-.005.091-.063.141-.117.097 0-.013.002-.026.005-.033-.014.014-.021.037-.044.015l.013-.1-.045.094c-.031-.027-.076.045-.071-.023l.018-.02-.231-.027-.002-.08c-.024.11-.125-.044-.12.094-.041-.075-.172.051-.142-.104-.151-.015-.238.129-.42.047-.06-.135-.24-.099-.357-.118-.233.041-.385.082-.625.109-.128-.193-.36.035-.505-.081l-.047.07c-.091-.124-.26.003-.392-.125-.038.028-.057.036-.065.038.005.005.014.019.012.065-.037-.036-.124-.004-.108-.096l.012-.008c.015-.092-.128.031-.165-.054l.014.101-.076-.024.023-.018c-.36.181-.474-.149-.813.01.056-.102-.07.048-.06-.07-.057-.159-.15.012-.22.043 0 .005-.002.012-.007.02l-.112-.029c.089-.14-.1.112-.02-.006-.278-.154-.682-.1-1.015-.21l.009.04c-.085-.021-.201.005-.256-.067-.054-.072-.161.071-.187.072-.084.053-.125-.09-.096-.077-.08.003-.178.124-.273.046-.012-.131-.315.064-.29-.076l-.003.011c-.116-.125-.28.015-.406-.106 0 0 .005-.01.013-.019-.13.121-.261.24-.393.358-.01.161-.017.324-.025.486l.185.44c.25.025.498.048.746.066.183.087.368.173.554.257.476.066.953.124 1.43.172l.117-.093c.255.228.643.053.929.222l.017-.092c.086.004.074.06.093.078.798.067 1.625.002 2.34.145.068.064.28.036.334.103.239-.11.486-.106.72-.092l-.008.011c.037-.005.074-.012.112-.019.003.008.004.019 0 .027.126-.084.323-.006.477.025l-.01.011c.898-.001 1.708-.227 2.595-.183.425.111.874-.151 1.355-.089.098.083 1.03-.125 1.105-.187"/>
        <path fill="#221E1F" d="M48.328 48.667l-.003.001c.008.038.01.022.003-.001M46.241 47.946L46.247 47.946 46.217 47.895zM47.438 47.716c-.056-.003-.058.007-.047.02.02 0 .037-.006.047-.02M48.766 48.497c.03-.003.014-.023-.01-.045l-.048.018c.019.006.039.022.058.027M48.534 48.004l.002-.033c-.015.012-.012.022-.002.033"/>
    </g>
</svg>
