<svg xmlns="http://www.w3.org/2000/svg" width="84" height="84" viewBox="0 0 84 84">
    <g fill="none" fill-rule="evenodd">
        <path fill="#BDD4E7" d="M84 42c0 23.196-18.804 42-42 42S0 65.196 0 42 18.804 0 42 0s42 18.804 42 42"/>
        <path fill="#DFC6AC" d="M61.077 52.57c.02-.085.013-.135-.002-.237l-.008.027c.001.07.003.14.01.21M60.432 55.85c.003-.01.006-.02.007-.03l-.007.03"/>
        <path fill="#FFF" d="M22.567 63.843l-.032-.023c.097 0 .193.002.29.004l-.258.019zm1.303-32.57c-.002.004-.005.008-.008.01l-.24.023c.057-.02.122-.03.248-.032zm1.767-.14l-.443.037c.148-.034.297-.055.443-.036zm-6.588.993c.1 3.55-.235 6.688-.637 10.168.01 1.179.048 2.724-.078 3.804-.01.57-.029 1.14-.053 1.712-.023.573-.056 1.134-.084 1.724-.055 1.156-.116 2.3-.158 3.47-.01.296-.02.582-.02.909l.007.86c0 .553-.01 1.109-.019 1.684-.01.573-.01 1.179.005 1.768.017.59.047 1.178.088 1.762.065-.25.182.009.222.246l-.06.062.154.36c.025.348-.16.206-.195-.086l.06 1.636.006.227c.005.128.007.255.01.383l.011.76.014 1.518 1.92.024c.298.005.597.01.897.017l.522.016c.121-.212.931 0 .997-.222.082.043.004.052-.047.096 1.244-.095 1.33-.101 2.458.188 4.828.245 9.487.155 14.243.284 4.814.027 9.547-.098 14.484-.094.76-.33 1.794-.157 2.693-.44l-.06.104c.383-.07.622-.06.887-.014.033.006.066.013.101.018l.026.005.038.006.082.01.365.052c.267.037.587.076 1.002.114-.053-.121.572-.025.206-.23.1-.043.22-.042.366-.018.073.012.152.029.238.049.043.01.087.02.132.032l.07.017c.011.002.024.007.033.007h.027c.053-.165.097-.405.006-.8.07.015-.126-.057-.079-.18-.03-.132-.059-.246-.079-.338-.017-.091-.034-.167-.047-.231-.025-.126-.037-.202-.04-.247-.006-.088.024-.055.068-.032.043.022.098.036.14-.12.02-.077.037-.198.046-.386l.006-.153.001-.043v-.02l.003-.013.008-.053c.011-.074.02-.157.03-.252-.155-2.083-.077-4.326.366-6.395-.032.105-.167.119-.139-.076.347-.153.026-.725.212-1.078.061.04.052.22.065.324.282-.931.225-1.767.498-2.661 0-.172.013-.347.037-.523.034-.247.083-.497.134-.736.1-.481.195-.93.14-1.26.11.156.136-.388.215-.572-.08-.172-.1-.365-.09-.571.005-.206.044-.425.086-.651.083-.45.18-.921.076-1.332l.064.03c.111-2.415.224-5.027.068-7.513-.035-1.4.32-2.971.163-4.51-.025-.14-.058-.156-.09-.163-.016-.004-.03-.007-.044-.023-.007-.008-.013-.018-.019-.035l-.008-.028-.002-.018-.004-.027c.007-.322.037-.326.07-.277.034.048.071.154.095.017-.018-.167-.03-.338-.039-.514-.006-.175-.02-.354-.054-.521-.033-.17-.077-.321-.14-.468-.063-.144-.156-.3-.288-.43-.13-.128-.276-.221-.43-.295-.158-.072-.328-.125-.522-.16-.193-.033-.406-.037-.619-.038l-.318-.001c-.098 0-.195.002-.29.003-.112.063-.375.084-.285.174-1.045-.246-2.467.122-3.54-.057.376.329-.629.19-1.002.272-.21-.012-.237-.1-.174-.163-.799.052-1.216.066-2.172-.016-.22.022-.36.078-.51.123-.076.024-.154.043-.247.055-.046.005-.097.009-.152.01l-.088-.001-.154-.005c-.276-.112-.762-.107-1.258-.084-.248.01-.5.026-.748.035-.123.004-.246.007-.368.006-.06-.001-.12-.002-.182-.005l-.09-.004-.046-.002-.033.004c.11.043.134.102.123.179.107.196.223.476.32.766.044.15.084.303.117.454.031.15.065.303.063.44-.056-.054-.112-.111-.168-.17l-.183-.191c.013.047.03.096.04.142l.03.14.055.279.055.283.013.073.006.035c.002.014.004.018.006.048l.006.068.002.036.015.3c.004.102-.008.207-.012.312-.028.42-.106.867-.246 1.3-.136.434-.309.862-.51 1.27-.204.405-.426.79-.643 1.17-.069-.006-.138-.014-.206-.022-.066.083-.132.169-.202.25l-.225.227c-.156.148-.324.284-.502.406-.355.246-.742.445-1.145.605-.808.322-1.662.497-2.544.644-.119-.025-.255-.05-.397-.075-.144-.033-.295-.053-.444-.091l-.22-.048c-.074-.017-.147-.035-.216-.053-.14-.03-.269-.068-.382-.093-.163-.001-.298-.021-.419-.03l-.322-.042c-.1-.008-.192-.023-.292-.026-.1-.003-.208 0-.333.005-.238-.082-.318-.272-.379-.363-.36-.203-.676-.464-.978-.698-.3-.237-.588-.446-.929-.556l.068-.124c-.294-.155-.645-.37-.965-.643-.317-.272-.6-.602-.758-.946-.11-.046-.282-.216-.414-.333-.13-.118-.229-.182-.207.009-.184-.244.1-.285-.178-.474.104.05.21.099.312.144-.394-.724-.676-1.427-.815-2.145-.069-.36-.104-.727-.098-1.1.002-.186.02-.375.042-.563.003-.025.005-.048.01-.071l.014-.077c.011-.063.027-.131.042-.2l.066-.198.033-.1.016-.05.025-.05c.08-.083.162-.183.246-.294.09-.115.195-.25.293-.39.105-.142.22-.298.328-.456l.173-.24c.058-.081.115-.163.172-.237-.026-.03-.053-.058-.08-.086l-.01-.011c0-.004-.002-.008-.003-.011l-.005-.021-.009-.043-.008-.043v-.012h-.033l-.064.002-.253.005c-.335.004-.654-.004-.95-.036-.44.069-.93.058-1.422.07-.122.004-.243.009-.358.017l-.086.006-.069.007-.124.019c-.16.029-.3.075-.405.153l-.032-.138c-.763-.001-1.79.034-2.793.015-.586-.01-.575.197-1.028.295l-.036-.138c-.463.107-.599.31-.758.459l-.199.014c-.252-.02-.33.046-.66-.011.367-.104.675-.277.913-.481-.622-.02-1.213.38-1.608.197-.5-.01-.889.07-.95.236-.049-.042-.302-.065-.073-.152-.38.037-.627.074-.852.17.073-.005.18.009.262-.004-.157.14-.473.176-.47.325l-.487.045c-.037-.12.425-.246.148-.301l-.809.364c-.576.054-1.17.113-1.795.174l-.452.549-.96-.03z"/>
        <path fill="#DFC6AC" d="M54.3 31.936c-.018.01-.032.021-.043.034l.29-.018-.247-.016zM23.531 31.042c.027-.014.055-.026.082-.038-.042.003-.074.013-.082.038"/>
        <path fill="#B18978" d="M43.151 38.405l-.11.026c.04-.016.08-.028.11-.026m16.551-27.128v.001c-.24.038-.482.082-.722.127.05-.037.097-.077.143-.119.158-.088.286-.172.385-.26.1-.088.173-.175.227-.253.107-.156.134-.273.134-.273-.83.331-1.605.628-2.382.93-.16.061-.319.124-.48.188l.026-.114c-.006.056-.033.1-.073.132l-.267.11c-.119.024-.232.035-.267.063l.02-.04c-.25.005-.064.053-.062.102l-.102.043c-.127-.012-.094-.178-.259-.2-.15.05-.347.15-.55.234-.205.086-.417.162-.608.151-.259.121-.527.3-.735.47-.234.091-.056-.186-.264-.015.003-.07-.055-.12-.1-.17-.013.08-.443.171-.195.247-.177.054-.363.118-.548.191-.184.075-.364.167-.534.263.112-.064.096-.188-.028-.196-.059.091-.153.184-.27.268-.118.086-.258.167-.412.225.06.107.153.058.175.181-.034.04-.08.122-.157.151-.098-.094-.17-.274-.436-.147-.02-.213.46-.2.252-.317.047-.2.524-.449.677-.406.17-.263-.197.07-.222-.102-.212.112-.272.244-.593.431.034.078.151.033.03.17-.213.3-.418.078-.497.108.034-.04.09-.076.122-.117-.218.05-.233.19-.44.29-.162-.17.314-.198.323-.36l-.22-.066c-.328.15 0 .211-.353.333v-.093c-.06.051-.119.103-.177.156.04.078.141.161.306.054-.01.252-.144.113-.392.307-.024.158.11-.076.174.028.081.083-.1.193-.223.287-.219.127-.18-.05-.31-.07.031-.042.193-.155.21-.083.21-.269-.247-.155-.102-.342-.244.06-.167.178-.25.278.066-.016.03.13.097.14-.185.507-.353-.07-.667.191.093.07.02.205-.032.328-.05.123-.073.237.111.257-.06.084-.132.194-.226.228.007-.182-.21.003-.129-.22l-.122.08.088-.268c-.19.005-.469.072-.582.062-.14.172.134.08-.05.247.028-.112-.132-.077-.22-.012.211-.08.12.17.028.28-.174.126-.393.113-.387.067l.081-.186c-.056.112-.082-.032-.18.09.01.091 0 .251.02.368-.089.111-.23.084-.256.128l.121-.203c-.21.201-.182-.144-.385.082l.008.137c-.046.017-.089.005-.095-.036-.02.08-.134.155-.169.214l-.06-.047c-.069.115-.084.346-.293.323.205.07.117-.092.332-.162.183.025-.084.231-.109.277-.11-.16-.257.185-.373.277-.11 0-.189.024-.256.027l.04.137c-.203-.154-.187.238-.364.29.015-.115-.059-.182-.173-.132.242.036-.045.346.074.41-.264.153-.104-.227-.255-.264-.016.21-.31.16-.26.365.198-.106.054.111.076.202-.21.175-.02-.092-.209-.009-.067.097-.079.303.087.223-.146.076-.148.334-.355.376-.132-.033.202-.273.071-.26-.28.257.062.34-.158.614.15-.06.191.187.122.352-.302.238.067-.168-.139-.169-.03.04-.062.083-.092.126-.145.005-.127-.136-.1-.275.025-.137.057-.273-.075-.259l-.07.168c-.016-.067-.05-.179-.14-.169.071.131-.249.311-.246.357.061.11.071-.124.118-.038-.1.154-.013.35-.257.496.044-.167-.159-.07-.165-.162-.128.066.075.128-.104.227l-.038-.065c-.249.263-.524.563-.747.892-.229.322-.403.672-.48 1.005-.082.008-.162.055-.255.13-.09.077-.199.181-.339.302.127-.104.102.068.061.15l-.214.056c-.193.121-.238.428-.286.63-.042.013-.078 0-.114-.012-.182.101-.047.203-.063.28l-.148.046.064.076c-.056.188-.21.382-.328.276-.015.08-.029.156.06.102-.183.104-.449.544-.577.86.116-.115.15-.079.24-.04.117.128-.065.05-.053.213-.054-.028-.186.07-.14-.094-.41.281-.573.915-.865 1.397-.03.113.01.095.024.164-.159.118-.238.301-.316.488-.073.19-.143.382-.252.544.098-.05.225.144.142.338.03.267-.21.006-.37.166.014.12-.047.31-.087.384l-.019-.016c.017.147-.019.351-.133.471v-.026c-.059.111-.189.218-.225.346.098.1-.082.378.001.49-.019.01-.02-.016-.058.008l.1.045c-.049.075-.093.153-.14.23-.023-.068-.064-.095-.069-.175-.156.246.066.122.078.28.015.21-.08.168-.152.246-.028-.092.064-.13.06-.183-.049-.133-.068.103-.127.09-.015.04.106.094.041.225-.048.116-.084.411-.19.348.032.12-.007.24.027.331.042-.096.116-.27.195-.272-.01.092-.018.276-.074.293l-.013-.079c.013.08-.08.333.057.221-.063.051-.127.103-.187.156.077.09.032.276.031.436-.12-.01-.234-.162-.305.135.028.09.057.181.09.272-.003.136-.033.17-.102.141-.03.115-.024.206 0 .28.022.075.06.134.095.188.07.111.145.204.09.385-.14-.155-.156-.027-.196.141.024.007.072.02.08.09.064-.049-.104-.097-.006-.225.09-.039.056.15.091.225-.074.083-.112.195-.13.323-.012.13-.003.274.013.425.024.15.051.306.075.46.031.152.048.305.05.45.155-.08.116.221.21.31-.187.028.134.278.083.455l.136-.142c.008.173.132.265.225.348.094.085.18.15.131.29.04.187-.142.007-.205-.048-.013.078.011.152.051.221.04.071.096.136.157.196.121.12.228.235.205.38.071-.026.122-.153.303-.015.011.047.026.103.045.162l.064.167c.04.106.07.19.047.187.061.045.11.064.152.091.042.028.076.064.111.145-.043.022-.098-.024-.149-.047.076.108.162.191.263.251s.207.104.313.151c.011.1.126.2.26.31.065.056.145.101.217.154.073.052.143.105.2.16.117-.036.22.033.312.088.09.058.171.091.221-.007-.015.02.01.06.023.08.132-.023.257-.117.392-.09l-.084.125c-.079.151.324.142.4.213-.065-.105.178.04.204-.062l.173-.02c.135-.002.148-.025.163-.038.016-.015.042-.025.197-.03.175-.006.058.165-.005.146.15.077.3.036.45 0-.055.002-.074-.009-.02-.04.003.018.016.03.034.037.058-.014.116-.026.175-.03 0 .004-.002.005-.003.008-.063.012-.122.021-.165.024.04.012.101.01.163.008.006.012.026.01.053 0 .05 0 .097.004.13.022l-.038.115c.056 0 .16-.038.25-.084.09-.046.166-.1.156-.124.033.003.072.001.11 0 .038-.002.092-.008.13-.015.075-.016.154-.037.235-.06.083-.02.16-.062.237-.098l.115-.055c.037-.02.071-.045.106-.068.07-.046.135-.089.194-.136.056-.049.108-.097.154-.14l.064-.064c.018-.02.034-.042.05-.06l.012-.017c-.028.06-.012.09.011.021.054-.062.1-.139.136-.196.033-.06.062-.099.093-.08.073-.142.16-.047.317-.228.015.008-.03-.05-.066-.055.037-.022.073-.047.104-.077.037-.039.072-.082.103-.129.068-.093.113-.203.158-.315.048-.11.08-.229.128-.339.042-.104.085-.205.152-.298-.007.037.03.111.05.16.09-.355.144-.696.076-1.029.042.043.09.043.1.131.012-.06.024-.122.034-.185.006-.062.01-.125.008-.183.001-.118-.02-.22-.066-.28-.068.155.06.017.041.127-.062.078-.103.036-.129-.04-.026-.08-.033-.193-.012-.269l.024-.003c.006-.238-.048-.249-.059-.48.06-.143.034.12.102.063.182-.062.08-.556.085-.602-.046-.052-.086-.127-.132-.109-.073-.174.09-.1.06-.225-.127-.138-.26-.268-.393-.395l-.006-.029c.047-.028.103-.169.185-.05-.068-.229-.194-.372-.318-.496-.067-.263-.138-.527-.205-.79.064.063.132-.129.213-.038-.109-.174-.152-.642-.17-.928-.083.116-.124.026-.167-.09-.035-.105-.069-.228-.14-.24-.008-.07-.016-.138-.022-.207.04-.064.134-.024.152-.11-.09-.35-.05-.694-.064-1.017 0 0 .025-.004.037.013-.056-.294.028-.755-.094-1.07l.002-.017c.032.011.066-.002.085.072.054-.169-.016-.18-.067-.212.008-.066.014-.132.023-.198l.051.064c-.03-.12.01-.23.04-.342.03-.113.058-.229.016-.372.05.001.053.061.072.103.003-.203.056-.414.034-.61l.03-.122c.034.014.056.056.071.126.091-.158-.003-.24-.013-.353l.037-.145c.032-.059.126-.137.117-.1-.022-.063-.01-.174.01-.285l.025-.117.056-.174c.052-.024.098-.093.188-.183.383-1.086.936-2.12 1.42-3.174.023-.04.046-.08.072-.12.218-.044-.065.3.102.26-.136-.076.066-.195.217-.525h.028c.057-.146.187-.16.24-.326l-.038-.019c.018-.203.385-.203.278-.395l.17-.043c-.043-.245.204-.189.214-.446l.011.038c.232-.182.212-.593.392-.59.105-.167.221-.352.228-.484l.054-.066c.031.027.05.071.056.106.385-.543.865-1.076 1.271-1.599 1.151-1.217 2.403-2.35 3.752-3.334.14-.083.28-.167.414-.252.376-.229.728-.468 1.024-.713.19-.116.38-.229.572-.339.021.027.04.046.073.02.076-.07.157-.134.241-.196.771-.42 1.57-.79 2.393-1.094-.013.071.124.088.182.142.006-.058-.066-.113-.11-.168.19-.069.38-.136.572-.199"/>
        <path fill="#B18978" d="M59.702 11.277l.362-.112c-.12.036-.242.073-.362.112M59.565 11.571c.096.03.141-.023.17-.087-.337-.01.097.006-.17.087M49.677 14.054c-.02.006-.047.024-.09.066.043-.02.07-.043.09-.066M47.666 15.247c.006-.01.011-.022.017-.038l-.017.038zM41.447 38.506l.012.018c-.002-.006-.006-.012-.012-.018M46.9 15.813c.002-.01.003-.022.001-.034-.004.014-.004.024-.002.034M45.956 36.188l-.01.042c.027.015.023-.008.01-.041M53.735 12.238c-.087.006-.189-.055-.26.052-.064-.019.028-.136-.093-.099-.069.124.142.185.342.15l.014.006c-.023-.033-.03-.068-.003-.109M42.629 38.502l.02-.001-.005-.002-.015.003zM53.85 12.143c-.06.036-.095.067-.114.096.046-.003.087-.024.115-.096M53.738 12.348c.008.012.018.024.028.036.002-.013-.006-.024-.028-.036M53.985 12.282c.016-.042-.007-.074.053-.104-.064-.02-.097.065-.157.094.021.007.106.034.104.01M52.843 12.602c-.08.063-.138.125-.133.162.128-.111.26-.215.392-.32-.078.038-.18.097-.26.158M51.433 13.046c.013-.044.049-.084.022-.112-.135.064-.148.108-.022.112M51.424 13.231c-.018-.098-.132.01-.192.028.054.01.113.013.192-.028M51.231 13.26l-.033-.006c.007.01.018.01.033.006M48.905 14.43c-.006-.058-.044-.022-.092.027-.046.05-.1.116-.146.112.094.032.183-.1.238-.14M47.803 15.309c.028-.045.05-.044.087-.064l-.083-.051c-.05.044-.085.133-.004.115M37.711 35.219L37.804 35.341 37.784 35.211zM46.236 35.463c.032-.18.08.027.104-.108-.015.02-.11-.05-.104.108M45.116 30.01l.146-.003-.007-.04-.139.043z"/>
        <path fill="#1F1C1C" d="M44.84 49.223c0 .002.002.004.003.005-.006.007-.005.002-.002-.005M45.253 49.523c-.001 0-.002 0-.002-.002l.002.002M45.957 49.837L45.941 49.822 45.96 49.816zM44.765 49.163c-.014-.019-.017.018-.027.004.004 0 .023-.026.027-.004M34.2 48.972c-.002 0-.002-.001-.003-.002h.001l.001.002M33.94 48.506v.005c-.008.003-.005 0 0-.005M34.831 49.467L34.817 49.45 34.836 49.447zM33.901 48.414c-.003-.022-.023.008-.026-.01.004.002.034-.01.026.01"/>
        <path fill="#221E1F" d="M35.4 45.887c0 .88-.675 1.594-1.506 1.594-.83 0-1.505-.714-1.505-1.594 0-.88.674-1.594 1.505-1.594.831 0 1.505.714 1.505 1.594M35.634 45.874c-.003.016.037.011.044.013-.01-.029-.055-.012-.044-.013M35.52 45.617L35.538 45.619 35.492 45.588zM35.472 45.38c-.061.04.03.082.018.13l-.014.01.058.007c-.02-.05-.072-.106-.062-.147M35.57 45.205c-.023.018-.032-.02.002.033l.005-.008c-.003-.004-.005-.012-.008-.025M35.577 45.23c.011.027.015-.023 0 0M35.517 45.118l.037.023c.012-.012 0-.044.017-.038-.028-.029-.04-.015-.054.015M35.457 45.107l.017.013c.004-.006.004-.01-.017-.013M35.509 45.148l-.035-.028c-.008.01-.028.019.014.014-.02.005 0 .004.02.014M35.509 45.172c-.007.024-.008.052-.041.027.03.059.073.034.04-.027"/>
        <path fill="#221E1F" d="M35.4 45.389l-.014.028.028.015c-.014-.007.007-.051-.014-.043M35.446 44.898c-.014.006-.027.031-.043.043l.028.015c.002-.018-.003-.045.015-.058M35.403 44.941l-.04-.02c.014.03.027.03.04.02M35.385 45.134L35.459 45.169 35.379 45.124zM35.364 44.767L35.406 44.767 35.34 44.762zM35.3 44.685c.033-.003.023-.047.048-.044-.023-.018-.058-.021-.088-.024.024.009.039.03.04.069M35.213 44.61c.012.004.029.005.047.006-.013-.005-.027-.008-.047-.006M35.335 44.858c.005-.007.021-.024.017-.049l-.026.036.009.013M35.325 44.847l.001-.001-.018-.028.017.029M35.337 44.862l-.002-.004c-.003.004-.004.005.002.004M35.376 45.028c-.031-.009-.075-.035-.084.02.032 0 .037-.033.084-.02M35.304 44.906l.012.04c.009-.007.018-.02.034-.018l-.046-.022zM35.282 44.897l.021.01-.004-.015-.017.005zM35.23 44.69c-.024-.003-.038-.017-.055-.03.009.022.022.044.036.061.013-.006.038-.012.02-.03M35.275 44.768l-.004-.002c-.002.005 0 .007.004.002M35.023 44.503c0 .003-.002.006-.003.008l.006-.005-.003-.003zM35.208 44.73c.005.018.02.02.035.02-.011-.008-.021-.017-.032-.029-.005.003-.008.006-.003.009M35.157 44.575c0 .014.002.027.004.04.004-.016.007-.044-.004-.04M35.276 44.754h.004c.003-.01 0-.006-.004 0M35.276 44.754c-.01-.004-.02-.004-.033-.004.01.007.017.013.028.016l.005-.012M34.805 44.665c.026-.029.082-.029.079.027.044.002.115-.104.137-.181-.012.011-.023.022-.067.013-.002.025.03.096-.016.099-.05-.02-.02-.038-.027-.069-.014.049-.093.014-.127.077l.047.006c-.006.008-.03.013-.026.028M35.074 44.567l.015.01c-.009-.02-.008-.04-.006-.08-.034-.006-.047.001-.057.008l.056.062h-.008z"/>
        <path fill="#221E1F" d="M35.142 44.63c-.04.019-.078.002-.095.05.033.034.047.002.079.012-.058-.052.033 0 .013-.058.015.007.025.017.036.025-.006-.014-.011-.03-.013-.044v.003c-.002.007-.004.01-.004.005l-.002-.001-.014.008c-.01-.023.006-.01.014-.008l.006-.003v-.001c-.023-.015-.047-.03-.073-.042.008.016.026.029.053.054M35.194 45.058l.008-.007c-.007-.001-.01-.001-.008.007"/>
        <path fill="#221E1F" d="M35.201 45.02c.008.002.024-.004.03.014-.004.019-.018.01-.029.017.014.003.044.017.045-.022l-.008-.002c-.002-.032.023-.093.03-.092-.027.027-.046.05-.068.084M35.175 44.832c-.018-.013-.034-.026-.054-.037l-.008.047.015-.015c.014.033.03.012.047.005M35.031 44.482l.036-.027c-.024.006-.047.012-.07.02l.034.007M34.961 44.43L34.987 44.403 34.954 44.406zM32.793 46.572l.017.008c-.007-.005-.012-.007-.017-.008M32.748 46.477l-.019.005c.012 0 .02-.001.019-.005M32.957 44.34c-.044-.014-.104-.041-.076-.007l.031.029c.013-.017.028-.022.045-.021M32.428 45.582l.013-.005-.035-.024.022.029M32.595 45.63l-.03.024c.01-.004.02-.012.03-.024M33.192 46.969l.037-.025c-.019-.015-.023.009-.037.025M34.148 44.084c-.022-.021-.04-.03-.058-.035.027.028.045.068.058.035M32.378 46.74c.012.008.022.008.03.003-.012-.007-.022-.01-.03-.003"/>
        <path fill="#221E1F" d="M34.019 44.043l.012.011c.018-.005.038-.012.06-.005-.02-.023-.046-.032-.072-.006M34.95 46.635l.006-.001c-.005-.004-.006-.002-.007 0M35.567 46.117c.001.008 0 .021-.002.032.004-.005.005-.014.002-.032M34.675 44.22c.019.008.005-.001 0 0M34.673 44.408c-.006.002-.011.006-.017.015.007-.009.012-.013.017-.015M33.842 44.303l-.001-.001c.005.009.004.007 0 0M34.691 44.251c-.004-.008-.009-.016-.016-.021l.016.021M34.697 44.231l.013.011c.006-.005.006-.01-.013-.01M34.65 44.212c.011.004.02.01.025.018-.002-.005-.002-.008 0-.01l-.025-.008M34.08 47.338l.003.004c.012-.021.006-.017-.004-.004M32.927 44.946v-.003l-.002.001.002.002zM32.919 45.004c-.027-.05-.014-.055.006-.06l-.104-.066.098.126"/>
        <path fill="#221E1F" d="M32.944 46.774l.006-.05c.075-.008.075.026.096-.03-.106.082-.082-.09-.193-.019l.01-.034c.002.006.01.002.011.008.03-.069-.095.025-.11-.037-.002-.023.008-.044.028-.04l-.05-.023c-.002-.014.019-.02.022-.008l-.038-.059h.004c-.023 0-.061-.009-.078-.014.01-.024.015.003.03-.007-.017-.008-.032-.016-.046-.025.028-.028.067-.009.075.016.105-.08-.044-.017.003-.115l.028.027c.062-.047.028-.062.06-.11-.021.013-.085.107-.13.08.006-.014.004-.029-.026-.044.044-.013.029-.03.018-.056l.061-.014c-.023-.022-.053-.013-.084-.024-.003-.033.044-.049.081-.063.003-.05-.069.05-.09-.009.02-.047-.014-.073-.052-.123.02-.033.038.003.055-.01l-.051-.024c0-.006.016-.005.023-.004-.02-.023-.062.001-.08-.037-.032-.003-.01-.024.014-.048.025-.024.048-.05.01-.076.018-.009.038.008.063.006-.047-.065-.036-.055-.096-.115l.047-.039c-.051.025-.1-.023-.137-.072-.024.01-.045.016-.055.022-.008-.023-.017-.048-.021-.072.012-.006.03.006.054.02l-.012-.014c.026-.018.06.002.089.024l-.042.015c.034.022.073.044.108.047-.005-.005-.01-.014-.011-.023.008.006.017.01.023.01.007 0-.007-.01-.02-.022l.07.001-.025-.009.06-.063c-.059-.069-.135-.147-.13-.249.038.041.074.035.13.06-.068 0 .002.073-.023.11.013-.02.038-.007.046.002l-.028-.094c.044.02.038-.003.066-.013-.096-.023-.035-.079-.047-.122.029.012.055.034.033.066.083-.007-.081-.103-.005-.113-.004.01-.01.01.002.022-.014-.034.035-.072.053-.046l-.005.01c.038-.054.105-.162.047-.223.009.006.074.07.086.081-.053-.086-.096-.174-.136-.27.047.054.196.138.191.204.018-.005.038-.01.04-.05-.013 0-.092-.052-.087-.067.085.024.052.01.133.023-.023 0-.087-.09-.065-.108.008.016.075.08.076.095-.01-.04-.02-.083-.026-.124 0 .024.057.071.087.087-.018-.013.041-.03.047-.048l-.035-.005c.063-.029-.036-.167.03-.203.006.024.059.128.095.121-.01-.028-.028-.095-.04-.166-.01-.069-.008-.14.016-.177l.025.022.035-.057-.002.371c.034.01.026.028.056.01.026.02.005.048-.004.054l.081-.019c-.032-.058.03-.089.007-.136-.022.031-.039.07-.056.103-.017-.029-.026-.076-.02-.12.003-.043.023-.083.056-.089.026.018.032.112.042.131-.002-.023.04-.06.05-.047l-.011.042c.038.011.023-.105.083-.055.015.001.061.07.054.032-.04-.066-.108-.286-.104-.346.01.003.107.044.132.081.035.053-.013.142.02.188-.003-.018.006-.04.01-.049.017.013.003.056.034.042-.005-.066.069-.005.008-.057.03-.024.037.005.076 0-.018-.042.023-.147.062-.168-.003.017.006.04.01.048.075 0 .114.04.18.04.005.016.035.04.018.066.01-.01.023-.03.042-.029.031.062-.045.002-.025.074.008-.038.059-.044.092-.064.002-.059-.067-.022-.098-.003.01-.08.073-.158.159-.182.066-.006.014.058.028.05.103.045.136-.118.213-.024.017.064-.036.098-.04.137-.05.001-.057-.059-.09-.065l.03.035c-.02.012-.053.017-.066-.002.017.05.174.064.229.143.02-.009.052-.013.05-.038l-.027-.006c-.005-.049.072-.028.05-.06.046-.01.11-.033.142.02l-.022.056c.008-.016-.01-.05-.034-.042.035-.01.027.112.089.06l-.01-.055c.05-.005.129-.03.157.018.017-.06-.014 0-.002-.079-.023.086-.108-.077-.115.027.012-.087-.035-.064-.043-.149-.008.018-.003.041-.038.012-.005.005-.011.01-.017.012 0-.002 0-.002-.002-.003l.002.003c-.003.002-.003.002 0 .001.006.012.008.025.006.037-.04.03-.1-.002-.128.008-.018-.018.018-.015.015-.04l-.044.017c.014-.04-.035-.092.032-.093l-.05-.022c-.023-.034-.063-.06-.093-.052-.023-.018-.078.028-.046.001l-.09.004.002-.01c-.04-.016-.087-.006-.133-.004-.044.003-.087-.008-.133-.048-.03.01-.06.022-.106.007l-.01-.038c-.035.011-.112-.034-.126.006-.049-.104-.186-.002-.252-.008l.008.048c-.044.008-.084.033-.13.066l.016.041c-.034.044-.12.01-.19.041-.002-.017.017-.02.034-.016-.06-.03-.097.008-.128.048-.032.041-.058.08-.108.071-.01.024-.025.027-.041.026 0 0 0-.003.002-.004-.002 0-.005.001-.007.003-.012-.002-.025-.003-.037-.003.013.003.024.006.033.006-.012.01-.03.026-.041.047l-.035-.033-.003.005c-.03 0-.002.03.028.05-.006.013-.009.027-.008.041-.059-.049-.03.056-.099.01.011.037-.066.096-.017.165-.008-.008-.017-.007-.008-.016-.023.01-.048.02-.047.052l-.05-.035c.006.032.015.064.023.094-.047 0-.072-.003-.084-.058.002.106-.025.065-.01.161l-.027-.027c-.014.021.008.081-.027.074-.096 0-.144.214-.257.313.114.017-.07.042.01.078-.027-.002-.048.012-.062-.017.003.076-.075.09-.015.16-.029 0-.035-.026-.052-.023.005.007.017.028 0 .032s-.018-.016-.027-.03c-.014.075.065.1.139.12-.045.027-.042.046.005.081-.029.006-.056.023-.06-.022-.007.023-.059.147.005.154-.017.007-.007.035 0 .041-.007.054-.013.06-.009.113l.011-.015c.072.022.017.044.028.087h-.008c-.047.101.026.04-.026.142l.044-.01c.101-.005-.046.091 0 .141l.023-.024c.037.022-.112.111-.117.148-.008.01-.017-.007-.026-.016-.035.1.062-.003.09.054-.029.021-.083.008-.078.052-.017.031.14.086.102.162.018-.022.038-.043.066-.023.026.035-.037.15.052.151-.005.01-.008.014-.014.017.035.02.085.08.131.073-.062.057-.013.091.032.117.044.028.087.048.03.094l.075.074-.013.008c.037.06.083.048.123.04.003.017-.014.02-.02.025.047.088.064.092.172.083l-.024.043c.018-.005.032.035.061.071.03.036.07.078.125.077-.004.005-.01.012-.02.014.063 0 .104.06.15.101.047.038.094.061.14-.015.027-.004.053-.012.08-.02-.082-.036.033-.069.008-.106.034-.002.069.073.026.071l-.004-.01c-.04.083.098.06.082.12.175.03.35.086.526.072l-.028-.068.058-.005c.017.015.03.052-.014.056.029.037.066-.044.063-.06.087.015-.017.087.008.084l.035-.01-.01-.007c.023-.033.02-.062.069-.073.034.006.026.04.04.038 0 .004.006.006.02-.003l.075-.015-.047-.045c.025-.034.066-.019.016-.067.038.038.105.021.168-.003.06-.03.113-.066.134-.06.02-.057.056-.082.106-.107-.02-.002-.06-.05-.017-.069.061.118.1-.006.19.042-.035-.013-.01-.038.01-.063.02-.028.034-.056-.015-.069.035-.02.034.034.077.035.017-.052.06-.082.105-.118.047-.034.1-.07.126-.126-.012-.01-.045-.01-.05-.046.035 0 .07 0 .105-.003.009-.025-.07-.072.003-.077-.017-.002-.038-.006-.035-.023.093-.077.133-.195.164-.31.017-.057.034-.114.054-.17.026-.055.058-.109.102-.164-.037.027-.037.005-.035-.02-.01.016-.04-.006-.064-.006.026-.029.053-.059.077-.09-.064-.023 0-.108-.06-.12l.01.032c-.072-.042-.163.046-.255.033.04.022.01.047-.023.072-.029.026-.053.052-.002.094-.02.011-.026-.017-.048-.014.037.024.04.045.014.076l-.008-.007c-.013.102-.066.132-.128.224l.045.01c-.014.02-.03.018-.044.023.05.054.03-.058.09-.007-.048-.003-.067.036-.086.073-.017.037-.044.068-.093.05-.019.032.05.018.032.05l-.029-.007.026.028c-.017.017-.053.01-.073-.005.006-.002.003-.017.004-.024-.044.008-.039.076-.053.08l.032-.019c-.008.023-.02.047-.035.068-.014.022-.032.042-.05.063-.032.043-.068.081-.084.137l.022.01c-.028.083-.063.021-.112.087l-.002-.007c0 .03-.01.051-.032.061.003-.032-.059-.02-.053-.059-.041.08-.012.05-.017.15l-.029-.027c0 .037.005.053-.029.08.017-.042-.047-.037-.032-.09-.103-.032-.084.125-.161.032-.003.108.088.025.075.054.03.022-.005.081-.035.082-.027.01-.085-.105-.148-.086.007-.002.005-.009.011-.01-.029-.02-.039.048-.077.012-.005.062-.04.003-.032.08l.06-.029c-.03.026-.05.121-.12.087.005-.016.02-.039.03-.052-.02-.02-.032.021-.051 0-.003-.077.072-.03.099-.093-.023-.029-.059.066-.053-.019-.005.054-.023.054-.041.05-.02-.004-.04-.014-.06.028v-.046c-.008.007-.02.03-.033.03l.02-.062c-.035.053-.068-.039-.1-.014.069.002.014.057.046.09-.093.06-.05-.122-.143-.105.013-.005.046.03.023.051-.019-.01-.04-.032-.047-.058-.063 0 .003.05-.028.072-.014-.059-.035.018-.069.031l.01-.046c-.068-.046-.041.091-.102.038l.044-.056-.038.007.022-.05c-.047.03-.058.018-.086-.01-.002.034-.033.078-.066.066-.012-.034.029-.036-.019-.048.022-.022.046-.053.049-.005.006-.014.02-.024.026-.038-.01-.038-.051-.027-.068-.033.005.004.011.01.012.016-.029.013-.056.021-.087.031-.002-.022.011-.03.026-.039-.016 0-.034.013-.053.007.022-.03.04-.066.07-.07l-.073.01c.003-.016-.005-.057.009-.065-.015-.037-.111.02-.131-.034-.008.004-.015.007-.026.005-.03-.035-.03-.092-.102-.09l.027-.069c-.04-.018-.03.09-.099.06-.05-.022.03-.055.032-.08-.038.006-.122.018-.108-.052.018.005.02.018.032.026"/>
        <path fill="#221E1F" d="M32.576 45.624c-.009.002-.018.001-.026 0 .007.006.016.007.026 0M33.185 46.973l.002.002.006-.006-.008.004zM33.663 44.508c-.01-.006-.018-.013-.022-.021.001.01.007.02.022.02M34.853 44.302l-.04-.012c.018.009.018.022.023.033.005-.01.007-.027.017-.021M34.926 44.734c.008 0 .008.007.016.006l.014-.017c-.016-.013-.04-.01-.03.011M34.798 44.451c-.02.033.007.035.03.046 0 0-.002 0-.003-.003.039-.038.007-.043-.027-.043M34.835 44.5c.007.004.015.008.02.015.015-.016-.005-.01-.02-.015M34.606 44.223c.008.015.03-.042.03-.024.033-.038-.106.015-.03.024M34.74 44.568l.021-.045-.034.025c.004.007.01.013.013.02M34.595 44.437l.028.029c.004-.008.01-.008.018-.008-.02-.014-.04-.035-.046-.021"/>
        <path fill="#221E1F" d="M34.64 44.458c.01.007.022.013.032.01-.006-.003-.02-.01-.031-.01M34.688 44.552L34.684 44.537 34.663 44.52zM34.2 44.28l-.046.007c-.008.015.002.027.02.023.011-.01.028-.013.025-.03M34.288 44.441c-.008-.013-.006-.023-.007-.04l-.017.058.024-.018zM34.174 44.425c-.008.016-.064.038-.017.042.007-.017.048-.02.017-.042M33.57 44.357L33.58 44.354 33.557 44.257zM33.207 44.777c.048-.003-.026-.056.022-.052-.003-.025-.039-.003-.042-.025-.008.034-.027.03.02.077M33.188 44.7l.002-.02-.002.02M35.631 45.988L35.653 45.952 35.619 45.974zM35.562 45.917l.062-.008-.056-.022c.004.008.008.024-.006.03M32.772 46.227l-.017.003c-.014.008-.013.015-.013.027l.03-.03zM32.863 46.571L32.861 46.565 32.818 46.604zM33.093 46.762c-.006-.01-.023-.012-.03-.022.024.01-.02.074.03.022M47.843 45.887c0 .88-.674 1.594-1.505 1.594-.831 0-1.505-.714-1.505-1.594 0-.88.674-1.594 1.505-1.594.83 0 1.505.714 1.505 1.594M48.077 45.874c-.003.016.037.011.044.013-.01-.029-.055-.012-.044-.013M47.964 45.617L47.981 45.619 47.936 45.588zM47.915 45.38c-.061.04.031.082.018.13l-.014.01.058.007c-.02-.05-.072-.106-.062-.147M48.013 45.205c-.022.018-.031-.02.003.033l.005-.008c-.003-.004-.005-.012-.008-.025M48.02 45.23c.011.027.015-.023 0 0M47.96 45.118l.037.023c.012-.012.001-.044.017-.038-.028-.029-.039-.015-.054.015M47.9 45.107l.017.013c.004-.006.004-.01-.017-.013M47.952 45.148l-.035-.028c-.008.01-.028.019.014.014-.02.005.001.004.021.014M47.952 45.172c-.007.024-.008.052-.042.027.031.059.074.034.042-.027"/>
        <path fill="#221E1F" d="M47.844 45.389l-.014.028.028.015c-.014-.007.007-.051-.014-.043M47.89 44.898c-.014.006-.027.031-.043.043l.028.015c.002-.018-.003-.045.015-.058M47.847 44.941l-.041-.02c.015.03.028.03.04.02M47.828 45.134L47.902 45.169 47.822 45.124zM47.808 44.767L47.849 44.767 47.784 44.762zM47.743 44.685c.033-.003.022-.047.048-.044-.023-.018-.058-.021-.088-.024.024.009.04.03.04.069M47.656 44.61c.012.004.028.005.047.006-.013-.005-.027-.008-.047-.006M47.778 44.858c.005-.007.021-.024.017-.049l-.026.036c.003.004.005.01.01.013M47.769 44.847v-.001l-.017-.028.017.029M47.78 44.862l-.002-.004c-.003.004-.004.005.002.004M47.82 45.028c-.032-.009-.076-.035-.086.02.033 0 .038-.033.085-.02M47.746 44.906l.013.04c.008-.007.018-.02.034-.018l-.047-.022zM47.726 44.897l.02.01-.003-.015-.017.005zM47.674 44.69c-.025-.003-.04-.017-.056-.03.009.022.022.044.036.061.013-.006.038-.012.02-.03M47.719 44.768l-.004-.002c-.002.005-.002.007.004.002M47.466 44.503l-.002.008.005-.005-.003-.003zM47.651 44.73c.006.018.02.02.035.02l-.032-.029c-.005.003-.008.006-.003.009M47.6 44.575c0 .014.003.027.005.04.004-.016.006-.044-.004-.04M47.72 44.754h.003c.004-.01 0-.006-.003 0M47.72 44.754c-.01-.004-.022-.004-.033-.004.009.007.017.013.028.016 0-.003.003-.008.005-.012M47.248 44.665c.026-.029.082-.029.079.027.044.002.115-.104.137-.181-.012.011-.023.022-.067.013-.002.025.031.096-.016.099-.049-.02-.02-.038-.027-.069-.014.049-.093.014-.127.077l.047.006c-.006.008-.029.013-.026.028M47.517 44.567l.016.01c-.01-.02-.008-.04-.006-.08-.034-.006-.047.001-.058.008l.057.062h-.01z"/>
        <path fill="#221E1F" d="M47.585 44.63c-.039.019-.078.002-.095.05.033.034.047.002.079.012-.058-.052.033 0 .013-.058.015.007.025.017.036.025-.006-.014-.011-.03-.013-.044v.003h-.001c-.001.007-.003.01-.003.005l-.002-.001-.014.008c-.009-.023.006-.01.014-.008l.005-.003.001-.001c-.023-.015-.047-.03-.073-.042.008.016.026.029.053.054M47.638 45.058l.007-.007c-.006-.001-.01-.001-.007.007"/>
        <path fill="#221E1F" d="M47.645 45.02c.008.002.023-.004.028.014-.004.019-.017.01-.029.017.016.003.044.017.047-.022l-.009-.002c-.002-.032.023-.093.03-.092-.027.027-.046.05-.068.084M47.618 44.832c-.019-.013-.035-.026-.054-.037l-.008.047.015-.015c.014.033.03.012.047.005M47.475 44.482l.035-.027c-.023.006-.046.012-.07.02l.035.007M47.404 44.43L47.43 44.403 47.397 44.406zM45.236 46.572l.017.008c-.007-.005-.012-.007-.017-.008M45.191 46.477l-.019.005c.012 0 .02-.001.02-.005M45.4 44.34c-.044-.014-.104-.041-.076-.007l.031.029c.013-.017.028-.022.045-.021M44.871 45.582l.013-.005-.035-.024.022.029M45.038 45.63l-.03.024c.01-.004.02-.012.03-.024M45.636 46.969l.037-.025c-.018-.015-.023.009-.037.025M46.592 44.084c-.022-.021-.041-.03-.06-.035.029.028.047.068.06.035M44.821 46.74c.012.008.022.008.03.003-.012-.007-.022-.01-.03-.003"/>
        <path fill="#221E1F" d="M46.462 44.043c.004.005.008.007.013.011.017-.005.037-.012.058-.005-.02-.023-.045-.032-.071-.006M47.393 46.635l.007-.001c-.005-.004-.006-.002-.007 0M48.01 46.117c.002.008 0 .021-.001.032.004-.005.005-.014.002-.032M47.118 44.22c.02.008.005-.001 0 0M47.116 44.408c-.006.002-.01.006-.016.015.006-.009.011-.013.016-.015M46.285 44.303l-.002-.001c.006.009.005.007.002 0M47.135 44.251c-.004-.008-.01-.016-.016-.021l.016.021M47.14 44.231l.014.011c.005-.005.006-.01-.013-.01M47.094 44.212c.01.004.019.01.025.018-.002-.005-.002-.008-.001-.01l-.024-.008M46.523 47.338l.003.004c.012-.021.006-.017-.004-.004M45.37 44.946v-.003l-.003.001.003.002z"/>
        <path fill="#221E1F" d="M45.362 45.004c-.027-.05-.014-.055.005-.06l-.103-.066c.032.043.065.085.098.126"/>
        <path fill="#221E1F" d="M45.387 46.774l.007-.05c.074-.008.075.026.096-.03-.107.082-.083-.09-.193-.019l.01-.034c.002.006.01.002.01.008.03-.069-.095.025-.11-.037-.001-.023.009-.044.029-.04l-.05-.023c-.003-.014.018-.02.02-.008l-.036-.059h.003c-.023 0-.061-.009-.078-.014.01-.024.016.003.03-.007-.016-.008-.031-.016-.045-.025.028-.028.067-.009.074.016.106-.08-.043-.017.003-.115l.028.027c.062-.047.028-.062.06-.11-.021.013-.085.107-.13.08.006-.014.004-.029-.026-.044.045-.013.029-.03.019-.056l.06-.014c-.022-.022-.053-.013-.084-.024-.003-.033.044-.049.083-.063.002-.05-.071.05-.091-.009.019-.047-.015-.073-.053-.123.02-.033.038.003.055-.01l-.051-.024c0-.006.016-.005.024-.004-.02-.023-.062.001-.08-.037-.033-.003-.011-.024.012-.048.026-.024.049-.05.012-.076.019-.009.037.008.062.006-.047-.065-.036-.055-.096-.115l.047-.039c-.051.025-.1-.023-.137-.072-.024.01-.045.016-.055.022-.007-.023-.017-.048-.021-.072.012-.006.03.006.054.02-.005-.004-.008-.009-.012-.014.027-.018.06.002.089.024l-.042.015c.035.022.074.044.109.047-.006-.005-.01-.014-.013-.023.009.006.018.01.024.01.007 0-.006-.01-.02-.022l.07.001-.026-.009.06-.063c-.057-.069-.134-.147-.13-.249.04.041.075.035.13.06-.066 0 .004.073-.022.11.013-.02.039-.007.046.002l-.028-.094c.045.02.038-.003.066-.013-.096-.023-.035-.079-.048-.122.03.012.056.034.033.066.084-.007-.08-.103-.003-.113-.004.01-.011.01.002.022-.015-.034.034-.072.052-.046l-.004.01c.037-.054.106-.162.047-.223.008.006.073.07.085.081-.053-.086-.095-.174-.135-.27.046.054.195.138.19.204.019-.005.038-.01.04-.05-.012 0-.091-.052-.086-.067.084.024.05.01.13.023-.02 0-.085-.09-.062-.108.008.016.075.08.076.095-.01-.04-.02-.083-.026-.124 0 .024.057.071.087.087-.018-.013.04-.03.047-.048l-.035-.005c.062-.029-.037-.167.03-.203.004.024.058.128.094.121-.008-.028-.028-.095-.04-.166-.01-.069-.01-.14.016-.177l.025.022.035-.057-.001.371c.034.01.025.028.056.01.025.02.004.048-.004.054l.08-.019c-.031-.058.03-.089.007-.136-.021.031-.038.07-.056.103-.016-.029-.025-.076-.02-.12.004-.043.022-.083.057-.089.025.018.032.112.04.131 0-.023.04-.06.052-.047l-.012.042c.039.011.024-.105.084-.055.015.001.06.07.053.032-.04-.066-.107-.286-.102-.346.008.003.105.044.13.081.036.053-.012.142.019.188-.002-.018.007-.04.01-.049.019.013.005.056.036.042-.005-.066.068-.005.007-.057.03-.024.037.005.076 0-.018-.042.022-.147.062-.168-.002.017.007.04.01.048.075 0 .115.04.18.04.007.016.036.04.019.066.01-.01.022-.03.042-.029.03.062-.045.002-.025.074.007-.038.058-.044.09-.064.003-.059-.065-.022-.096-.003.008-.08.072-.158.158-.182.066-.006.015.058.028.05.104.045.137-.118.214-.024.018.064-.036.098-.04.137-.051.001-.058-.059-.091-.065l.03.035c-.018.012-.053.017-.065-.002.015.05.173.064.228.143.02-.009.052-.013.05-.038l-.026-.006c-.004-.049.07-.028.049-.06.046-.01.11-.033.143.02l-.022.056c.008-.016-.011-.05-.034-.042.034-.01.026.112.089.06l-.01-.055c.049-.005.127-.03.156.018.016-.06-.013 0-.001-.079-.023.086-.11-.077-.116.027.012-.087-.035-.064-.043-.149-.01.018-.003.041-.038.012-.004.005-.011.01-.016.012l-.002-.003v.003c-.002.002-.003.002 0 .001.007.012.009.025.007.037-.041.03-.1-.002-.128.008-.02-.018.018-.015.015-.04l-.045.017c.016-.04-.034-.092.033-.093l-.05-.022c-.022-.034-.062-.06-.093-.052-.022-.018-.078.028-.046.001l-.09.004.002-.01c-.04-.016-.087-.006-.132-.004-.045.003-.088-.008-.133-.048-.031.01-.06.022-.107.007l-.01-.038c-.035.011-.112-.034-.125.006-.05-.104-.186-.002-.252-.008l.007.048c-.044.008-.083.033-.13.066l.016.041c-.034.044-.121.01-.19.041-.001-.017.018-.02.034-.016-.06-.03-.097.008-.128.048-.031.041-.058.08-.108.071-.01.024-.024.027-.041.026 0 0 0-.003.002-.004l-.007.003c-.011-.002-.024-.003-.036-.003.013.003.025.006.033.006-.013.01-.03.026-.042.047l-.035-.033-.003.005c-.03 0-.002.03.028.05-.005.013-.008.027-.007.041-.06-.049-.03.056-.1.01.012.037-.066.096-.016.165-.008-.008-.017-.007-.01-.016-.022.01-.047.02-.046.052l-.05-.035c.007.032.015.064.024.094-.047 0-.072-.003-.085-.058.002.106-.024.065-.01.161l-.027-.027c-.013.021.008.081-.027.074-.095 0-.143.214-.256.313.113.017-.07.042.01.078-.027-.002-.048.012-.062-.017.002.076-.076.09-.017.16-.027 0-.033-.026-.051-.023.005.007.018.028 0 .032-.016.004-.02-.016-.027-.03-.014.075.065.1.139.12-.045.027-.042.046.004.081-.027.006-.055.023-.058-.022-.007.023-.06.147.004.154-.016.007-.006.035 0 .041-.006.054-.012.06-.008.113l.01-.015c.073.022.018.044.028.087h-.008c-.047.101.025.04-.026.142l.046-.01c.1-.005-.047.091-.001.141l.023-.024c.036.022-.114.111-.118.148-.007.01-.016-.007-.025-.016-.036.1.06-.003.09.054-.03.021-.083.008-.078.052-.018.031.139.086.1.162.02-.022.038-.043.068-.023.025.035-.038.15.05.151-.003.01-.006.014-.012.017.035.02.085.08.13.073-.061.057-.013.091.032.117.045.028.088.048.03.094l.075.074-.012.008c.036.06.082.048.122.04.004.017-.014.02-.021.025.049.088.065.092.173.083l-.023.043c.018-.005.032.035.06.071.03.036.07.078.126.077-.004.005-.01.012-.02.014.062 0 .103.06.149.101.047.038.094.061.14-.015.027-.004.053-.012.08-.02-.081-.036.034-.069.008-.106.034-.002.069.073.027.071l-.004-.01c-.04.083.097.06.08.12.176.03.352.086.527.072l-.027-.068.058-.005c.017.015.029.052-.014.056.028.037.065-.044.063-.06.087.015-.017.087.008.084l.034-.01-.01-.007c.024-.033.02-.062.069-.073.034.006.026.04.04.038 0 .004.006.006.02-.003l.075-.015-.046-.045c.024-.034.066-.019.015-.067.038.038.106.021.168-.003.06-.03.113-.066.134-.06.02-.057.056-.082.106-.107-.02-.002-.06-.05-.017-.069.062.118.1-.006.19.042-.035-.013-.01-.038.01-.063.02-.028.034-.056-.015-.069.035-.02.034.034.077.035.017-.052.06-.082.106-.118.047-.034.099-.07.125-.126-.012-.01-.045-.01-.05-.046.035 0 .07 0 .106-.003.008-.025-.07-.072 0-.077-.014-.002-.036-.006-.033-.023.094-.077.134-.195.165-.31.016-.057.034-.114.054-.17.025-.055.056-.109.102-.164-.037.027-.037.005-.035-.02-.01.016-.041-.006-.065-.006.026-.029.053-.059.077-.09-.063-.023 0-.108-.06-.12l.01.032c-.071-.042-.162.046-.254.033.04.022.009.047-.023.072-.03.026-.054.052-.002.094-.02.011-.027-.017-.05-.014.039.024.042.045.015.076l-.007-.007c-.013.102-.066.132-.128.224l.045.01c-.015.02-.031.018-.045.023.05.054.03-.058.09-.007-.048-.003-.067.036-.086.073-.016.037-.043.068-.093.05-.018.032.05.018.032.05l-.03-.007.028.028c-.017.017-.054.01-.074-.005.006-.002.003-.017.004-.024-.043.008-.038.076-.053.08l.033-.019c-.008.023-.02.047-.035.068-.015.022-.034.042-.051.063-.032.043-.068.081-.083.137l.02.01c-.028.083-.061.021-.112.087v-.007c0 .03-.01.051-.032.061.003-.032-.06-.02-.053-.059-.043.08-.013.05-.018.15l-.028-.027c-.001.037.005.053-.03.08.018-.042-.047-.037-.031-.09-.104-.032-.085.125-.162.032-.003.108.088.025.075.054.03.022-.004.081-.034.082-.028.01-.086-.105-.15-.086.008-.002.006-.009.013-.01-.03-.02-.04.048-.078.012-.005.062-.04.003-.031.08l.059-.029c-.03.026-.05.121-.12.087.004-.016.02-.039.03-.052-.02-.02-.031.021-.051 0-.004-.077.073-.03.099-.093-.022-.029-.06.066-.053-.019-.005.054-.023.054-.041.05-.02-.004-.04-.014-.06.028v-.046c-.007.007-.02.03-.033.03l.02-.062c-.034.053-.067-.039-.1-.014.069.002.015.057.046.09-.093.06-.05-.122-.143-.105.013-.005.045.03.024.051-.02-.01-.04-.032-.048-.058-.064 0 .003.05-.028.072-.013-.059-.035.018-.07.031l.01-.046c-.066-.046-.04.091-.101.038l.045-.056-.038.007.02-.05c-.045.03-.056.018-.084-.01-.003.034-.034.078-.067.066-.011-.034.029-.036-.02-.048.023-.022.047-.053.05-.005.007-.014.02-.024.027-.038-.011-.038-.052-.027-.068-.033.005.004.01.01.012.016-.03.013-.057.021-.088.031-.002-.022.012-.03.026-.039-.015 0-.033.013-.053.007.022-.03.039-.066.07-.07l-.074.01c.004-.016-.004-.057.01-.065-.015-.037-.111.02-.132-.034-.006.004-.014.007-.025.005-.03-.035-.03-.092-.101-.09l.026-.069c-.04-.018-.03.09-.098.06-.05-.022.029-.055.032-.08-.04.006-.123.018-.108-.052.018.005.019.018.032.026"/>
        <path fill="#221E1F" d="M45.02 45.624c-.01.002-.019.001-.027 0 .008.006.017.007.026 0M45.629 46.973v.002l.007-.006-.007.004zM46.106 44.508c-.01-.006-.018-.013-.023-.021.002.01.008.02.023.02M47.297 44.302l-.041-.012c.019.009.019.022.022.033.006-.01.008-.027.019-.021M47.37 44.734c.007 0 .008.007.015.006l.014-.017c-.016-.013-.04-.01-.03.011M47.241 44.451c-.02.033.007.035.031.046 0 0-.003 0-.004-.003.04-.038.007-.043-.027-.043M47.278 44.5c.007.004.014.008.02.015.015-.016-.006-.01-.02-.015M47.05 44.223c.008.015.029-.042.029-.024.034-.038-.105.015-.03.024M47.184 44.568l.02-.045-.033.025.013.02M47.038 44.437l.028.029c.004-.008.011-.008.018-.008-.02-.014-.04-.035-.046-.021M47.084 44.458c.01.007.021.013.031.01-.007-.003-.019-.01-.031-.01M47.132 44.552L47.128 44.537 47.107 44.52zM46.643 44.28l-.046.007c-.007.015.003.027.02.023.012-.01.029-.013.026-.03M46.731 44.441c-.008-.013-.006-.023-.007-.04l-.017.058.024-.018zM46.617 44.425c-.008.016-.064.038-.017.042.007-.017.048-.02.017-.042M46.014 44.357L46.024 44.354 46.001 44.257zM45.65 44.777c.048-.003-.025-.056.022-.052-.003-.025-.04-.003-.042-.025-.008.034-.027.03.02.077M45.63 44.7c.002-.006.004-.012.004-.02-.003.01-.003.015-.003.02M48.074 45.988L48.096 45.952 48.062 45.974zM48.005 45.917l.062-.008-.055-.022c.003.008.007.024-.007.03M45.215 46.227l-.016.003c-.014.008-.014.015-.013.027l.029-.03zM45.307 46.571L45.305 46.565 45.262 46.604zM45.536 46.762c-.006-.01-.023-.012-.029-.022.023.01-.02.074.03.022"/>
        <path fill="#EAF1F7" d="M47.389 59.193L47.588 59.023 47.322 59.155zM50.054 57.507c.018-.05.014-.093-.01-.114-.026.069-.068.127-.103.193l-.058.097c-.02.03-.043.06-.064.092-.055-.02-.133.019-.223.078-.093.053-.19.143-.288.216.079-.046.152-.104.227-.16-.051.053.022.077-.031.13-.095.055-.172.094-.235.139-.064.042-.115.086-.17.122-.107.072-.215.144-.414.18l.015-.02c-.083.065-.166.132-.25.193-.094.027-.078-.031-.057-.06-.227.162-.395.296-.735.436.165.027.338-.088.51-.201.17-.117.34-.23.509-.217l-.016.019c.075-.056.157-.101.243-.144.086-.046.176-.087.267-.128.09-.043.18-.091.268-.14.087-.048.167-.112.239-.176.04-.046.09-.106.142-.17.049-.062.105-.122.144-.19.04-.065.073-.125.09-.175M41.708 52.567l-.012.03c.021-.012.04-.024.012-.03M46.191 52.36h-.022c-.023.043-.009.031.022 0M38.558 60.13l.086.047c-.02-.04-.051-.05-.086-.047"/>
        <path fill="#EAF1F7" d="M50.099 53.895c.03-.007.036-.133.137.028.009.03-.005.044 0 .073l.076.06c.003.087-.087-.008-.141-.027-.023-.046-.046-.09-.072-.135zM49.094 52.8c.037.008.079.02.126.043.037.018.077.04.118.063.04.022.083.048.12.076.08.053.159.106.23.14.065.04.125.06.17.043-.018.035.21.238-.07.075.162.124.204.261.228.368.02.076.025.143.04.206-.25-.4-.574-.748-.962-1.014zm-12.236-.038l-.134-.017c.044-.014.092-.022.127-.044.047.025.036.044.007.06zm2.379.2c-.07.014-.096.027-.105.04-.091-.005-.183-.014-.278-.022.016-.017.035-.029.062-.035.098.003.219-.003.32.017zm6.202-.473c.008.002.005.005.01.008-.191.026-.391.053-.598.083.165-.055.34-.099.588-.09zm.422-.217c.263.05.207-.117.527-.062-.07.022-.151.105-.196.15.137.003.25-.01.358-.025l-.528.078.05-.035c-.11-.06-.418.012-.211-.105zm.037.158c-.07.012-.142.022-.215.032.037-.029.093-.052.217-.056l-.002.025zm1.232-.217c.03-.006.06-.012.09-.02.032-.008.066 0 .097 0 .128.006.269.015.428.076.167-.019.356.014.534.042l.458.105c-.036.048-.067.093-.122.122-.42-.195-.883-.31-1.373-.31 0 0-.208.034-.547.084.09-.018.18-.037.267-.059.056-.012.112-.026.168-.04zm1.862.532c-.061-.038-.124-.07-.188-.102h.009c.072.013.132.044.179.102zm1.878 2.814c-.01-.119-.017-.236-.03-.355-.018-.118-.038-.236-.057-.353-.1-.47-.28-.925-.542-1.336.03.017.057.037.086.056-.082-.06-.19-.137-.254-.174-.014-.09-.117-.268-.248-.433-.072-.076-.15-.15-.226-.206-.077-.053-.158-.084-.222-.09-.02-.025.03-.012.055-.006-.131-.095-.31-.236-.517-.37-.208-.13-.45-.25-.677-.304-.116.046-.274-.025-.444-.061-.166-.05-.34-.061-.428.034l.096-.038c.076.034.018.066-.064.096l-.133.042-.035.01c-.012.006-.022.01-.031.017-.021.01-.03.019-.037.026-.135-.113-.022-.099-.18-.197l.172.02-.053-.102c-.483.358-.996.025-1.295.272.019-.014.01-.03.03-.044-.225-.03-.36.13-.514.188-.026-.05.084-.1.162-.155-.39.014-1.014.248-1.447.218-.141.092.068.089-.081.163-.132-.003-.233-.049-.077-.105-.381-.087-1.197.238-1.77.17-.286.11-.1.126-.546.223.1-.061-.122-.166.145-.198l.028-.06c-.226.017-.486.03-.72.061-.232.028-.438.075-.556.16-.018-.117-.081-.021-.247-.081-.067.015.006.017.033.024-.16.109-.243-.005-.357.01l.04-.02c-.103.023-.21.046-.317.063-.053-.019-.132-.046-.141-.083l-.003.082c-.172-.01-.076-.105-.292-.101l.04.065c-.133-.05-.357.02-.38-.073-.003-.019.024-.009.072-.008-.202-.142-.556-.01-.816-.096l.054.14c-.263.014-.155-.044-.141-.09-.173-.019-.206-.063-.431-.105-.117.02-.064.042-.105.075l-.228-.06.157-.054c-.38.152-.893-.134-1.153.01-.131-.054.13-.062.053-.096-.412-.14-.964-.005-1.303-.154-.28-.09-.587-.136-.905-.181-.158-.024-.318-.046-.478-.074-.08-.012-.16-.027-.24-.044l-.153-.032-.092-.002-.068-.002.014.035h-.255l-.255.023c-.03.026-.075.044-.127.065-.052.023-.11.043-.172.066-.061.025-.124.044-.181.077-.056.032-.108.067-.15.107.007-.033-.05-.058-.012-.094-.05.021-.1.044-.148.069-.048.026-.094.053-.138.079-.088.05-.172.081-.236.098.015-.023.03-.045.048-.064-.108.055-.222.122-.337.193-.108.08-.222.157-.318.245-.092.092-.183.175-.248.258-.065.084-.115.16-.143.216-.098.131-.141.092-.203.1-.043.058-.08.11-.114.162-.03.054-.053.106-.075.157-.022.051-.041.102-.058.154-.02.052-.028.109-.041.167-.04.046-.08.096-.14.145.01.044.026.088.04.133-.05.104-.074-.002-.128.078-.007.056-.016.111-.028.167-.008.057-.017.114-.03.17-.01.055-.023.11-.037.165-.015.055-.021.11-.033.164l-.033.16-.017.075-.01.075c-.01.098-.02.188-.021.264l.046-.044c.01.065.009.157-.004.217-.014.06-.038.086-.064.01-.002.078 0 .15.003.22.006.07.024.135.039.199.015.063.033.125.052.184.025.06.05.118.078.176.029.06.052.122.086.183.035.06.07.123.107.19.033.07.077.139.123.212.046.075.088.16.147.242-.032.09.08.243.214.372.03.035.064.069.094.1.03.032.06.062.085.092.049.057.079.115.07.17.07.053.137.093.193.14.057.044.107.092.159.128.104.07.2.133.327.151-.004.018.017.04-.03.014.039.062.159.146.31.217.077.035.16.069.244.103.084.03.17.055.249.08l-.005.056c.077-.026.243.017.407.062.165.04.33.074.402.038.025.035-.072.026-.122.03.062.081.138.091.22.091.086 0 .172-.005.278.035-.022.023.03.072-.018.08.66.297 1.695.288 2.58.514.25.041-.072-.136.253-.078.086.072-.177.095.027.15.162-.05.215-.026.416.008-.042.032-.013.063-.158.07.11.063.507-.023.73.097-.008-.037.037-.053.083-.069.353-.059.779.18.817.127 0 0 .122-.005.018-.026.126.016.308.041.272.098.069-.026.13-.072.23-.07l-.058.063c.059-.011.128-.05.185-.053l-.087-.047c.142.068.433-.054.418.073h-.05l.27.07c.112-.047.223-.093.405-.073.068.132.468.04.7.047l-.011.046c.183-.067.65-.047.565-.07.177-.009.417.014.33.06.144-.03.448-.048.519-.131l.295.093c.16-.178.582.008.583-.166.163.013.129.056.244.075.214-.11.445-.117.677-.133l.008.019c.234-.016.493-.136.813-.192l.087.123c.166-.04.192-.15.356-.146.04.014.006.026-.035.04.152-.05.37-.048.494-.036.227-.135.418-.131.612-.272.209.082-.27.102-.09.18.354.004.694-.128 1.059-.261.037.017 0 .046-.011.078 0 0 .176-.117.329-.25.137-.116.246-.24.209-.3 2.362-1 3.328-1.513 3.328-3.363 0-.437-.09-.852-.243-1.238l.023.035c.038.06.079.12.118.19.033.07.065.15.092.241l-.046-.056c.034.125.049.253.065.38l-.012-.022c.016.05.039.1.05.151l.039.156-.045-.008c.015.072.046.087.054.19l-.056-.032c.045.047.072.166.09.295.019.13.007.274-.001.366l-.03.03c.006.15.019.306 0 .465-.067.105-.074.018-.08-.032-.006-.051-.001-.07-.064.16-.017-.052-.042-.105-.066-.154-.01.08-.04.14-.06.189-.021.049-.04.087-.06.123-.045.066-.086.117-.128.223.1-.05.18-.193.16-.066-.063.04-.103.083-.138.124-.036.042-.061.088-.081.14-.037.103-.076.209-.15.322.047-.047.086-.087.115-.127.03-.04.048-.086.05-.143.088-.105.078.002.137-.064.026-.063.045-.132.06-.2l.097-.005c.049-.107.072-.225.102-.334.086.059.115-.293.165-.133.01-.06.023-.113.038-.161.01-.05.02-.094.032-.14.018-.089.034-.178-.004-.29.037-.073.047-.01.05.053.006.063-.002.124.017.04.004-.117.013-.236.013-.352-.004-.117-.001-.232-.008-.35z"/>
        <path fill="#B18978" d="M19.532 31.629c-.205.069.133.159-.129.093.02-.083.053-.15.13-.093M60.293 32.102c-.678.522-1.573-.003-2.318.326-.087.023.023-.283-.174-.216-.723.401-1.859.156-2.736-.16l.053-.08c-.167-.058-.372.206-.55.169-.001-.053.058-.075.017-.148-.046.16-.321.073-.396.192-.071-.064-.063-.19-.154-.262l-.102.183c-.284.433-.686-.034-1.072.19.019-.044.057-.077.027-.117-.619.261-1.393.21-2.083.306.026-.065.052-.182.011-.255-.04.193-.23.242-.38.28-.066-.1-.131-.054-.191.002-.061.056-.11.123-.233.07l-.013-.044c-.002.07-.029.079-.07.069-.04-.01-.092-.038-.125-.038-.031-.003-.045.017-.008.096-.072-.05-.148-.102-.228-.154.104.14.028.103-.086.05-.111-.053-.263-.123-.238-.053l.073.058c-.011.034-.071.017-.137-.004-.067-.02-.139-.043-.156-.02l-.055-.032c-.034.019-.079.023-.127.023-.024 0-.047-.002-.07-.005-.01 0-.021 0-.031-.002h-.008l.005.002.01.005c.055.023.104.06.269.163-.052-.03-.095-.057-.138-.084-.017-.013-.038-.028-.063-.044-.021-.011-.045-.026-.068-.037l-.073-.042c-.007-.005-.014-.008-.02-.011-.007-.005-.006-.007-.009-.01l-.022-.02c-.019-.014-.046-.032-.086-.054l-.069-.036c-.012-.006-.032-.014-.04-.02-.004-.004.003 0 .005 0l.05.027c.008.005.017.008.026.012l.03.023c.041.03.084.056.118.092.075.062.139.129.199.193.219.25.362.492.471.73.055.121.101.24.138.361.037.127.067.224.082.396.006.21.016.417.016.623-.092.105-.123.167-.205.186.036.093.027.344.114.44.001-.03-.118.044-.136.09-.107.148.209.221.078.386-.038-.084-.107-.12-.188-.112.133.183.049.382.057.579-.027-.04-.037-.088-.103-.101.07.126.02.209-.025.287-.049.078-.103.148-.078.254l-.093-.11c-.116.103-.067.145-.007.19.06.042.128.087.034.181-.01-.07-.064-.072-.105-.103.053.15.028.31-.031.452-.061.14-.138.273-.166.395-.007-.021-.037-.036-.037-.036-.055.115-.145.211-.222.32-.039.052-.076.11-.111.168-.038.057-.071.118-.098.188-.107.041-.212-.222-.345.007.201.167-.236.392.079.48-.099.066-.223.156-.34.233-.117.08-.215.163-.245.245.014-.14-.28-.163-.154-.303l-.201-.025c-.05-.093.128-.066.013-.136-.057.07-.205.307-.295.325-.02.113-.019.253-.041.388-.024.13-.072.26-.182.354.056-.157-.215-.19-.164-.277-.009.103-.019.207-.031.313-.013.104-.028.205-.044.309-.077.058-.12-.16-.204-.032.039.053.008.12-.001.188-.043-.002-.321.25-.473.05-.081-.069.112-.118-.021-.148-.152.082-.119.163-.273.245l-.017-.027c-.118.016-.26.24-.089.312.077-.029-.091-.123.048-.11-.012.165-.182.291-.343.368.04-.06.006-.12 0-.194-.066.14-.164.242-.268.338-.051.049-.106.093-.163.137-.056.044-.115.088-.176.125.034.113.033-.232.088-.19-.192-.018-.347.083-.503.181-.039.025-.078.049-.117.069-.039.02-.079.032-.119.041-.081.02-.163.017-.247-.027.043-.03.061.158.05.127-.172.022-.195-.148-.292-.063-.026-.094-.131.051-.241.098-.048.08-.035-.044.06-.069-.071.052-.26.14-.485.197-.224.042-.481.063-.665-.009.01.069-.23.24-.318.231l.038-.155c-.076-.093-.288.008-.294-.127-.048.044-.029.06.025.059.054-.002.14-.021.224-.043.167-.042.322-.09.201-.02-.059-.13-.347.242-.288.03-.168.008-.348.158-.498 0 .046.03.154-.202.019-.204-.238.005-.074.067-.273.1-.043.018-.086.03-.13.045-.029.15-.211-.055-.148.127-.008-.129-.366.016-.293-.227l.069-.19c-.103 0-.205.174-.305.239-.01-.022-.027-.067-.015-.097-.084.291-.237-.084-.417.112-.187-.157-.541-.181-.579-.39-.188.03-.374.067-.531-.067.047-.01.1.002.135-.056-.079-.127-.136-.064-.259-.063.039-.029-.145-.269-.214-.423-.187.008-.213.176-.273.258-.001-.083-.033-.127-.081-.152-.048-.03-.113-.04-.179-.049-.132-.02-.275-.04-.287-.205.073-.005.286 0 .206-.136.014-.166-.081-.153-.193-.142-.112.013-.247.03-.307-.1l-.093.238c-.002-.19-.389-.102-.217-.29-.12.017-.176-.253-.306-.05-.049-.107-.126-.194-.214-.275-.084-.084-.175-.166-.26-.248-.084-.081-.16-.166-.205-.258-.04-.1-.051-.205-.01-.323-.068-.019-.132-.157-.207-.055-.038.163.162.043.117.131-.041-.036-.098-.002-.126.015-.043-.135-.094-.222.137-.258-.033-.154-.159-.142-.293-.145-.134 0-.283-.01-.352-.188.091-.044.105-.087.03-.166-.088-.023-.168-.05-.252-.078-.091-.227.122-.236.262-.33-.088-.09-.157-.222-.296-.21.035-.077.077-.157.116-.234-.086.17-.134-.041-.197-.075l.062.034c.053-.054-.049-.16-.099-.215-.086.06-.059.212-.049.297-.095-.023-.124-.12-.24-.158.161-.048.011-.234-.006-.336-.011-.12-.185-.061-.193-.096.079-.035-.057-.18.087-.14.04.024-.043.114.051.143.029-.095.171-.142.012-.245-.119-.078-.292.148-.278-.1.059.041.126.028.198.048l.001-.11.008-.112-.144.042c.027-.04.046-.026.061-.045-.169-.007-.145-.287-.33-.281-.05-.098.037-.246.03-.348l.017.014c.056-.142-.039-.285-.163-.364l.033-.002c-.007-.069-.054-.22-.156-.29.082-.19.548-.154.331-.305-.035-.163-.309-.227-.397-.145.034-.163-.018-.325-.053-.489-.009-.04-.016-.082-.021-.122-.002-.04-.002-.082.002-.122.009-.08.037-.16.092-.233-.061-.044-.098-.014-.136-.108.006-.059.007-.117.006-.177 0-.06.001-.119-.001-.18-.004-.12-.012-.24-.014-.358-.005-.118.01-.233.044-.34.033-.105.086-.202.171-.282.045.14.146.03.231.04-.118-.127.152-.106-.067-.181-.136-.01-.201-.035-.271.088-.005-.035-.008-.074-.01-.114.001-.038.003-.078.008-.12l.007-.062.006-.044c.001-.014.005-.03.01-.044.017-.052.055-.093.131-.13-.073.035-.11.016-.148.006.113-.011.183-.035.218-.067s.034-.067 0-.083l-.145.038c.053-.026.107-.055.161-.085-.02-.003-.097.021-.149.035-.052.014-.08.02.002-.035.061-.03.122-.06.171-.093-.053.002-.13.02-.177.027-.047.006-.063.003.021-.067.088-.069.18-.142.275-.22-.015-.01-.159.077-.251.167.028-.029.057-.056.079-.08.175-.174.117-.172.276-.338-.378.25-.559.378-.673.445-.112.064-.164.067-.227.06l.024-.104c-.032-.09-.046.181-.061.113.009-.049.007-.1.004-.154-.003-.055-.008-.11.021-.174-.044-.047-.079 0-.096.066-.005.015-.009.033-.013.05l-.005.026-.017.026c-.024.032-.049.063-.081.076-.004.134.096-.095.09.073-.017.05-.291-.069-.299.133-.06-.072-.038-.22-.02-.303l-.112.11c-.177-.213.297-.452.105-.716l-.11.044c-.133-.193.273-.268-.02-.305-.113.112-.185.41-.065.484-.251.085-.065.483-.344.5-.089-.107.219-.055.147-.21-.15-.143-.252.12-.374.078.137.058.051.27-.028.316-.152-.076.07-.198-.133-.194-.019.117-.193.224-.025.284-.042.267-.216-.047-.302.165-.086-.172.157-.442-.073-.506.056.17-.242.27-.097.514-.091-.04-.116-.176-.066-.29-.136-.093-.261.354-.342.012l-.021.183c-.045-.052-.106-.09-.179-.178-.109.009-.321.282-.343.01-.031.034-.279.05-.163.226.167.095.161-.157.276.084-.132-.192-.218.053-.299.133l-.027-.104c-.048.047-.173.04-.192.155.033-.063.004-.131-.041-.152l-.037.164c-.205.105-.083-.271-.286-.2l.143-.143c-.031.031-.12-.108-.214-.047-.022.15-.075.332-.095.448-.111.077-.072-.156-.17.005l.132-.193c.016-.05-.131-.226-.288-.204-.094.063-.226.29-.058.35-.079.011-.2-.064-.15-.177-.172.072.041.152-.102.261-.074-.088-.287-.201-.422-.327l.133-.262-.108.01c.117-.21-.087-.14-.033-.353-.076-.023-.157.058-.222.119.252.302-.187.476-.09.766-.284.116-.268-.704-.519-.2.059.072-.058.316.116.209-.186-.013-.09.313-.319.215.145-.142-.206-.282.004-.487-.004.1.137.06.169.027-.089-.105-.02-.302-.206-.28-.111.043-.266.067-.226.22.026.17.172-.04.119.143-.219.085-.288-.17-.346.143.14-.04.197.133.208.25l-.159.09.019-.117c-.276-.05-.055.215-.317.216l-.148-.21c.039-.2.387.041.305-.269-.17.009-.207.175-.376.111.032-.03.08-.044.111-.075-.061-.005-.17-.413-.381-.14-.113.108-.02.116-.009.233-.266.067-.333.197-.505.235.009-.233-.31.015-.145-.242.104.123.493.065.564-.166-.13-.262.215.013.242-.27-.218.02-.238-.25-.294-.422-.062-.005-.111.076-.144.108-.006.168.073.156.097.326-.247-.016-.47.104-.584.281-.09-.072-.084-.24.01-.267-.281.082-.592.096-.871.08.208.248-.297.1-.151.309.154.044.302.22.236.35-.094-.006-.011-.118-.056-.171-.1.162-.209-.215-.296.032.252-.12.013-.336.036-.553-.176.141-.01-.15-.197-.129-.175.14-.396.26-.601.33-.287-.168-.668.077-.902.113-.136-.093-.08-.341-.219-.367-.156.023.147.243-.098.161l.016-.05c-.063.064-.444-.11-.473.24l.042-.267c-.046-.018-.08.046-.113.077-.011-.084-.071-.155-.007-.218-.164-.161-.297.065-.452.09l.118.142c-.253.15-.449.02-.701.105l-.009-.151-.144.108c.02-.15-.131-.227-.198-.096l.356-.413c.121.075-.099.195-.013.334.074.122.308.052.331-.097-.094-.006-.095.029-.16.091-.054-.205.086-.213.138-.362-.047.015-.122-.04-.125.027.082-.113.176-.14.332-.163-.097.093.072.122.039.186-.009-.184.135-.259.334-.23.163.195.348-.18.579-.148-.069.197-.169.36-.296.45.152.078.157-.023.308.053.053-.146.076-.364.25-.47l.026.136c.159-.09.135-.294.351-.28.372.024.745-.02 1.024-.035l.027.136c.12-.313.502-.17.693-.325.369.09.752-.221.961-.008.611-.178 1.144-.346 1.796-.372l-.086.21c.099-.16.089.107.199.064-.149-.145.133-.226.199-.357.305.122.656-.091.894-.261l.025.136c.228-.29.562-.1.888-.095.043.053.116.175.21.146.148-.241.241-.236.48-.405.187-.021.497-.003.696.06.333-.198.683-.268 1.04-.323.179-.027.358-.05.537-.085.09-.017.18-.037.269-.06l.133-.039.14-.047c.035.05.067.1.099.15.266-.119.581-.202.901-.26.319-.061.644-.099.955-.128.312-.032.608-.055.9-.09.293-.035.582-.084.898-.166-.162.113-.32.224-.477.337.023.006.05.01.083.01.015.002.04-.005.049 0 .009.003.018.008.029.01.043.01.106.003.185-.022.04.038.149.006.325-.15-.145.214-.18.366-.245.542-.065.183-.156.378-.367.57-.111.186-.111.264-.099.338.008.037.017.072.021.115.007.043.006.093-.013.162-.209.372-.323.603-.417.833-.033.11-.055.216-.08.336-.015.063-.017.12-.025.184-.007.062-.018.15-.017.176l.017-.038.022-.072c-.046-.075-.162-.092-.206.04.042.131-.14.436.198.361-.114.157-.106.361-.079.563.011.099.019.197.008.292-.004.094-.028.185-.09.271.089-.03.109.054.169.086-.001.148-.02.302-.035.451-.006.075-.009.148.004.214.015.067.044.128.092.181-.036.055-.163-.051-.153.072.046.066.117-.017.181.061.031.056.051.114.07.17.022.057.037.115.048.174.024.118.02.243.029.366.009.122.014.245.029.364l.011.09.024.083c.017.053.038.106.063.157.06.082.108.169.164.25.057.083.112.166.163.25l.074.127.081.123c.055.08.106.163.156.247l.038.062.042.057.084.117c.056.078.109.158.165.235.062.072.122.142.182.215.062.068.117.143.188.2l-.053.04c.177-.002.23.142.295.276.072.127.158.238.35.153.002.044.039.084.063.124.024.04.036.076-.021.115.135-.015.221.096.323.215.049.061.111.111.178.15.067.038.145.06.233.047-.019-.02-.039-.014-.079-.005.044.067.097.12.158.156.06.035.127.06.192.084.133.049.263.1.384.216-.04.014-.103.012-.138.069.032.08.128.044.204.026.078-.018.138-.017.113.147.067.023.102-.133.059-.14.072.05.153.082.234.116.081.032.164.061.248.088.084.03.173.04.261.055.088.014.177.027.267.037.179.015.36.011.539.017.18-.008.357-.02.531-.02.243.1.252.234.244.316-.008.08-.025.107.18-.008.034.063.023-.122.029-.056.078-.04.141.04.199.119.06.076.116.142.166.055-.057-.194.067-.114.061-.233.161.06.264.115.355.147.092.03.174.026.287-.064l-.002.104c.123-.168.266-.24.406-.307.034-.019.068-.035.1-.056.032-.023.062-.047.09-.075.057-.056.104-.127.135-.224.184-.053.352-.142.522-.218.083-.035.173-.087.262-.136l.267-.148c.172-.104.343-.209.507-.318l.24-.168.119-.085.112-.09.225-.18c.075-.058.141-.125.212-.186.068-.064.142-.122.206-.188l.192-.194c.068-.063.125-.131.183-.198l.178-.2c.051-.07.104-.139.158-.206l.081-.102c.025-.035.047-.072.07-.107.33-.404.55-.86.676-1.339.065-.239.102-.488.127-.739.004-.128.021-.255.021-.384l-.002-.198c0-.066 0-.14.002-.192-.001-.003.003-.002.002-.01.004.014-.008-.038-.017-.07l-.026-.103-.049-.142c-.028-.096-.077-.192-.119-.288l-.034-.072-.002-.004.005-.003.011-.008.021-.014.041-.027.164-.112.081-.056.009-.055.021-.108.038-.199c.021-.11.041-.221.063-.331.031-.053.052-.084.07-.12.017-.035.029-.058.038-.082.017-.05.02-.085.017-.129-.003-.026-.009-.063-.022-.09-.006-.013-.011-.035-.02-.044l-.014-.015c-.004-.007-.011-.005-.016-.005.011.005.021.006.021.01l-.017-.008-.007-.002c-.002-.002-.006.002-.003-.007.008-.024.019-.054.032-.085.023-.06.049-.12.017-.168.038-.114.074-.226.112-.337l.002-.012.005-.02.01-.038.019-.076.037-.154.071-.31c.644-.014 1.299-.032 2.003-.034-.205.024-.265.206-.042.191l.233-.142.041.063c.048-.009.058-.021.08-.038.02-.014.038-.035.049-.055.024-.04.025-.085-.02-.122 1.701-.19 3.368.267 5.027.22.394.095.955.012 1.383-.034 1.267.302 2.41.544 3.695.329 0 0-.165.576-.697.712M19.781 31.576c.058.106.212.15.112.311-.027-.102-.116-.209-.112-.31"/>
        <path fill="#B18978" d="M23.83 32.251c.001-.033.061.039.075.056-.047.013-.08.113-.127.059.048-.014.035-.065.052-.115M24.839 32.2c-.004.1-.21.202-.334.23l.334-.23zM25.82 32.494c.09.074.072.122-.037.133-.014-.052.018-.082.036-.133M25.86 32.262c.076-.011.121.043.166.095-.014-.085-.174.074-.167-.095M27.918 32.309c.048-.014.144-.108.201-.004-.059-.07-.222.153-.201.004M28.842 32.048c.03.003.046.02.078-.013.06.039.01.118-.036.133l-.042-.12zM36.976 40.611L36.856 40.586 36.924 40.514zM44.898 41.429c.08-.1.11.056.133.062-.093.048-.014-.125-.133-.062M48.135 38.61L48.116 38.636 47.974 38.492zM36.948 55.457c-.006-.004-.01.002 0 0M41.95 55.492h.005l.006-.05-.01.05zM42.766 55.516l.006.005c-.002-.012-.003-.024-.006-.005M40.102 55.768c-.007-.002-.011.003-.014.009.004-.004.008-.008.014-.01M35.472 55.249l.004-.001c-.002-.005-.004-.008-.005-.014v.015zM35.496 55.22c.014.02-.012.026-.02.028.012.03.032.037.054.03.007-.03-.03-.033-.034-.057M32.898 54.455l.012-.008-.012.008M40.187 57.24c-.005.002-.01.003-.014.006.006.001.01-.002.014-.007M33.274 54.65l.021-.043c-.01.017-.017.03-.02.042M41.96 55.441l.005-.02-.004.02M43.509 55.427c.003.014.007.025.01.034h.003l-.013-.034zM47.4 55.059c-.002-.005-.005-.011-.009-.016v.037c.006-.005.01-.012.01-.021M44.56 55.416c0-.006.002-.012 0-.018-.02-.011-.066-.002-.125.013l.01.058c.04-.017.078-.035.115-.053"/>
        <path fill="#B18978" d="M46.05 56.417l-.146-.076c.345-.166.55-.108.828-.308l-.01.03c.057.009-.012-.241.595-.13l.004.01c.016-.008.007-.03.053-.015l-.111-.032c.04-.049.063-.12.128-.154.018.006.033.027.04.043l.159-.087.08.048c.035-.06-.052-.197.119-.175-.095-.078.04-.091 0-.134l.057.032c.076-.049.209-.149.23-.225-.013.011-.415-.056-.542-.132.12-.02.024-.025-.013-.05l.004.029c-.076.003-.103-.062-.143-.066l.01.018v-.011c.009.01.01.019.009.027.006.013.008.026-.01.03v-.009c-.024.022-.073.032-.096.035l-.023-.053c-.006.123-.384-.025-.45-.007-.088-.044-.136.072-.23.068-.135.029-.093-.058-.174-.082-.093-.006.039.06.008.074l-.123-.043c.053-.026.01-.049-.007-.067-.086.02-.25-.036-.24.084-.13-.018-.144-.062-.193-.052.022.015.06.024.068.046-.062-.035-.02.019.004.023-.055.071-.42-.087-.398.038l-.006-.023c.01.097.064.178.03.242l-.045-.031-.038.054c-.041-.021-.032-.05-.035-.061-.07.066-.195.047-.294.063l.172.221c-.1-.033-.28-.11-.275-.026l-.072-.072c-.206-.12-.098.099-.176.067l-.106-.071.083-.02c-.094-.025-.134-.048-.214-.091v.002c.005.003.01.007.01.012l-.01.006c0 .048-.034.092-.093.102-.086.004-.137.087-.29.018l-.013.103-.112-.035-.016-.077c.099-.016.275-.086.399-.116l-.006-.035c-.073.016-.151.067-.2.071-.028-.009-.106-.076-.073-.136l-.03.084c-.242.061-.244.069-.517.029l.029.034c-.047.031-.094.063-.12.003-.157.015-.324-.001-.44-.084l-.008.094c-.034-.001-.103-.131-.1-.002l-.064.051c-.045-.001-.066.054-.125.01v-.001l-.01-.008v.007c-.106-.025.013.081-.111.045-.045-.058-.025.122-.085.11l-.073-.122c-.112-.061-.114.069-.264.086-.077-.039-.123-.147-.086-.251-.052.127-.021.082-.101.148-.02-.048-.011-.059.004-.106-.082-.049-.042.05-.101.053-.007.095-.012.244-.031.253l.025.027c-.056.055-.123.085-.2.046v-.046c-.024.011-.05.02-.074.03l-.01-.06-.108.026.016.014c-.025.01-.108.036-.158.008l-.001-.033c-.141-.095-.245.048-.404.069l.018-.069c-.058-.065-.01.105-.077.076l-.006-.083c-.053.111-.076-.021-.116-.062l.023.109-.075-.022c-.082-.035-.054-.137-.044-.195l-.053.088-.014-.097c-.036.114-.04-.017-.108.045-.007-.037.01-.057-.014-.073l-.113.139.068-.062-.006.142c-.071.108-.1-.014-.151.027l.036-.043c-.085.036-.091-.023-.14-.054.016.026.04.065.005.083-.025.009-.014-.048-.038-.064-.006.094-.067.147-.123.102 0-.014.002-.027.006-.036-.015.015-.021.039-.047.016l.016-.104-.048.098c-.032-.029-.08.046-.074-.024l.018-.021-.24-.03-.001-.084c-.026.114-.13-.047-.125.097-.043-.079-.18.051-.147-.11-.157-.013-.248.133-.435.042-.06-.141-.248-.109-.37-.131-.241.041-.4.07-.648.09-.064-.104-.157-.094-.252-.081-.096.013-.195.036-.266-.028l-.054.069c-.087-.137-.27-.01-.396-.152-.042.026-.062.033-.071.034.006.005.013.022.009.069-.036-.041-.128-.014-.105-.108l.01-.008c.025-.095-.132.022-.164-.069l.007.106-.076-.032.025-.016c-.096.041-.174.05-.244.042-.068-.008-.127-.036-.185-.062-.115-.053-.227-.108-.41-.04.067-.101-.078.044-.053-.078-.044-.172-.155-.005-.232.017-.001.006-.004.013-.01.022l-.112-.044c.108-.134-.115.104-.02-.008-.135-.093-.305-.143-.484-.185-.18-.041-.366-.084-.528-.165l.003.043c-.084-.034-.207-.023-.251-.108-.044-.083-.175.047-.202.044-.095.04-.114-.112-.086-.095-.082-.009-.201.097-.285-.001.01-.135-.333.009-.28-.132l-.006.012c-.093-.15-.285-.041-.387-.19 0 0 .007-.009.016-.016-.155.095-.314.188-.474.274-.051.161-.094.325-.137.488.034.167.068.33.106.496.262.084.522.161.782.227.18.128.365.245.55.367.25.07.5.146.752.207l.377.093.379.082.133-.082c.124.135.297.161.472.186.087.012.176.021.26.042.086.019.168.045.242.095l.024-.094c.09.011.075.068.094.089.85.133 1.735.113 2.494.27.07.068.298.048.355.114.256-.113.518-.106.769-.088l-.01.01c.04-.004.079-.011.119-.019.005.008.005.019.002.027.132-.089.342-.009.507.023l-.01.01c.119-.001.237-.001.354-.01.117-.011.233-.024.348-.037.23-.029.459-.055.685-.096.225-.038.452-.066.68-.096.228-.031.459-.049.697-.053.23.039.463-.018.7-.082.238-.072.482-.143.743-.139.055.034.329-.026.597-.111.266-.088.527-.192.562-.231"/>
        <path fill="#B18978" d="M47.432 55.785l-.003.002c.016.038.015.021.003-.002M45.142 55.388L45.149 55.388 45.111 55.339zM46.34 54.976c-.057.007-.057.017-.044.029.02-.004.036-.012.045-.03M47.864 55.513c.031-.011.01-.027-.019-.044l-.048.03c.02 0 .046.013.067.014M47.52 55.062l-.004-.033c-.014.013-.008.024.005.032"/>
    </g>
</svg>
