<svg xmlns="http://www.w3.org/2000/svg" xmlns:xlink="http://www.w3.org/1999/xlink" width="84" height="84" viewBox="0 0 84 84">
    <defs>
        <path id="prefix__a" d="M0.498 0L83.562 0 83.562 84 0.498 84z"/>
        <path id="prefix__c" d="M0.97 0.803L31 0.803 31 30.104 0.97 30.104z"/>
        <path id="prefix__e" d="M0 0.857L29.055 0.857 29.055 30.152 0 30.152z"/>
    </defs>
    <g fill="none" fill-rule="evenodd">
        <mask id="prefix__b" fill="#fff">
            <use xlink:href="#prefix__a"/>
        </mask>
        <path fill="#B6B8DD" d="M54.401 51.948h.063c.004.075-.003.087.022.217l-.085-.217zm-.274-1.257c-.05-.619.027.038.056.083.065.445-.038-.035-.056-.083zm.03-11.724l.048.174-.049-.174c-.047-.135.058.426.01.295-.065-.527-.082-.069-.147-.655.052-.172.044.018.137.36zm-25.205 8.571c-.01-.053-.024-.11-.038-.18l.038.18c.04.14-.034-.437.008-.302.035.54.073.076.112.675-.06.171-.044-.02-.12-.373zm-15.884 5.097l-.109-.283c.083.161.124.242.136.302l-.027-.019zm-3.3-2.889l-.065-.069.15.083-.086-.014zm-4.214-.213c-.047-.074.174.004.551-.002l-.55.002zm23.314-14.077c-.022-.458.031.037.053.087.053.631-.033-.04-.053-.087zm-.239-1.207c-.003-.076.004-.088-.02-.22l.082.222-.062-.002zM26.061 29.8c.03.032.066.06.093.095l.222.23c-.106-.108-.199-.229-.315-.325zm43.34 2.64l.13.271c-.094-.152-.14-.227-.158-.286l.028.015zm2.804 3.558l.054.073-.134-.095.08.022zm4.078.415c.045.07-.17.006-.537-.008.17.014.368.006.537.008zm6.643 14.105c-.134-.02-.857-.045-1.252-.1l.291.01c-.009-.026-.16-.073-.467-.099l-.12.03-.123-.038c-.466-.03.135.062-.333.034-.266-.129-2.012-.099-2.415-.19-.319.071.887.026.536.093-.142-.015-.205-.036-.51-.043l.103.047c-1.414-.04-1.957-.072-3.215-.008l.05-.013c-.449.003-.689.036-.885.09-.096-.017.226-.05.05-.058-.775.172-1.578.076-2.038.25.021-.058-.176-.053-.362-.046-.39.095-.728.202-.955.333-.897 4.071-5.06 7.413-8.525 7.291-.817-.028-1.63-.145-2.414-.354l-.112-.029c-.03-.01-.039-.015-.057-.022-.195-.056-.39-.114-.58-.182h-.012l-.05-.024c-.214-.077-.425-.16-.632-.253-.083-.026-.149-.045-.163-.04-.106-.064.021-.02.038-.023-.014-.006-.027-.014-.042-.02l-.387-.17c-.007-.013-.002-.017.011-.019-.474-.256-.923-.556-1.337-.906.015.013.028.03.044.04l.097.088c-.05-.04-.096-.088-.145-.13-.056-.048-.11-.1-.167-.15-.005-.007-.012-.01-.017-.017l.016.016c-.35-.316-.68-.664-.976-1.055-.038-.03-.147-.17-.225-.262-.129-.206-.287-.45-.416-.729-.054-.099-.09-.206-.14-.308-.043-.09-.085-.185-.126-.279-.036-.088-.086-.172-.117-.26-.174-.393-.26-.768-.314-1.014-.185-.714-.307-1.488-.336-2.345-.002-.07.006-.139.006-.209-.034-.15-.066-.238-.094-.239.008.358.125 1.055.07 1.17-.058-.35-.109-.96-.136-.993.066-.369.03.67.081.186 0-.248-.029-.354-.036-.472.02.166.061-.22.082-.294.066-.799.18-1.254.441-2.07-.016.026-.02.034.005-.014l-.005.014.02-.028c.048-.146.106-.286.162-.429.08-.31.14-.589.064-.499.205-.453.254-.458.44-.838-.385.56.07-.11.052-.206.22-.375.108-.112.226-.272.031-.066.105-.223.098-.242-.035.035-.082.09-.156.196.107-.166.151-.207.156-.196.168-.172-.097.368.007.313.116-.182.237-.356.361-.53l-.03-.014.072-.1.006.045c.125-.172.252-.34.384-.505-.069-.056-.202-.057-.358.064-.02-.036.32-.34.35-.36l.085-.08c.023-.026-.035-.04-.05-.058-.053-.03-.108-.066-.168-.103-.172-.108-.33-.22-.492-.393l.287.216-.63-.608c.006-.024.314.196.198.017-.535-.62-.955-1.295-.999-1.22.202.381.451.736.727 1.064-.035.085-.56-.725-.58-.657-.158-.306-.293-.623-.404-.947-.017-.052-.04-.103-.057-.154.017.051.04.102.057.154.07.168.17.36.14.23-.194-.47-.083-.25-.17-.578.131.33.416.765.688 1.108-.147-.267-.279-.563-.396-.886-.19-.306-.345-.554-.402-.662-.097-.442.065-.313.107-.216-.157-.853-.336-.823-.384-1.714l-.003.336c-.036-.21-.036-.973-.05-.89.03-.178.101-.338.124-.144-.046-.26-.062-.52-.095-.785.007.116.106.044.122.094.005-.312-.068-.543-.11-.344.15-.61.056-.47.245-.945.033-.18-.104-.005-.144.126.072-.413.117-.657.202-.838l.005-.02.006-.006c.085-.202.13-.357.191-.643-.017.154 0 .318-.002.472l-.189.171-.01.026c-.1.467.013.4.104.363.041-.159.09-.314.141-.467.042-.327.098-.654.19-.979-.007.053.026.198.04.195-.024-.079.158-.494.44-.96.267-.413.623-.84.913-1.13.002-.004 0-.003.003-.008.027-.03.06-.057.09-.086-.029.027-.063.063-.093.094-.04.066.242-.18.466-.39l-.005.004.026-.022c.056-.054.11-.105.148-.145-.039.04-.092.091-.148.145l-.02.018c.455-.295.466-.564.986-.802-.439.264-.486.37-.448.378.307-.29 1.17-.732.95-.714.246-.11.457-.23.46-.17.306-.154.614-.312.94-.428-.07.034-.124.083.164-.005-.56.156-1.032.466-1.328.546.015.062.217-.008.001.166.963-.514 1.528-.755 2.207-.967.328-.037.655-.067.985-.057l.04-.03.172.063c.122-.016.2-.024.225-.018.022.007-.009.016-.057.025.101 0 .195-.003.243-.009-.009-.009-.019-.019-.057-.028.112.013.111.022.057.028.037.04-.136.076-.316.108l.083.016c.46-.029.994-.065.582-.13.188.017.375.047.56.087.67.007.554-.003 1.364.117.04.033-.179.01-.04.057.301.017.64.17.922.276.276.135.49.257.564.25.446.177.207.03.49.15-.017 0-.05.001.028.044l.348.13c.12.088-.312-.134.035.09.606.354.96.592 1.361 1.026.606.585-.185-.327.315.183.042.105.062.21.345.55.171.161.17.121.423.431l-.067.016c.221.291.371.542.336.567.19.234.273.423.343.561.297.468-.078-.42-.134-.544.24.496.44.817.504 1.13l-.23-.42c.392.946.502.835.577 1.32-.138-.322-.34-.688-.288-.486l.236.447c.01.06-.129-.259-.052-.04l.281.496.032.025c.021.054.004.032-.032-.025l-.006-.004.064.146.14.083.352.217c-.132-.085-.176-.087-.043.002.174.07.36.12.536.181-.165-.05-.01.04.228.134.723.192.6.034 1.16.186l-.183-.024.29.076c.077-.098 1.748.214 1.827.058.423.071.026.05-.524.056.15.027.3.06.45.076-.185 0-.338-.033-.536-.038.59.126 1.162.056 1.485.046.228.024-.184.1.47.086.923-.016-.174-.1.38-.11l.402.074c.707-.07 1.236-.029 1.834-.057.134-.013.2-.023.232-.033l-.02.001.041-.01c.027-.023-.129-.038.223-.057l-.223.056s-.009.007-.02.01c.637-.008 1.323-.16 1.801-.19-.11.026.276.014.336.025.286-.043.57-.092.852-.149-.376.071-.354.11-.419.157.268-.04.391-.08.573-.11-.11.03-.22.06-.077.057.298-.063.595-.124.887-.2-.054.002-.156.016-.242.03.13-.025.35-.068.573-.107C80.634 15.63 63.145 0 42 0 21.007 0 3.614 15.402.498 35.521c.224.01.46.023.632.05-.08-.004-.22-.008-.297-.01.01.026.166.073.478.097l.122-.033.125.035c.48.021-.136-.06.34-.039.274.128 2.057.084 2.467.173.326-.077-.904-.018-.547-.087.145.012.211.027.521.036l-.106-.048c1.444.04 1.998.06 3.283 0l-.052.014c.458-.01.705-.037.905-.09.097.015-.23.048-.052.056.792-.175 1.611-.075 2.081-.246-.02.061.206.051.406.044.397-.092.72-.2.941-.329.897-4.069 3.751-7.252 9.242-7.287.62-.004 1.265.08 1.905.25l.1.02.053.021c.197.058.395.12.591.194.006.002.01.002.016.002.017.01.035.018.052.027.214.082.425.175.634.278.084.03.15.05.165.048.104.068-.023.017-.04.021l.041.022.39.187c.006.013 0 .018-.014.02.913.546 1.746 1.31 2.413 2.291.038.034.146.177.223.274.247.426.548 1.056.752 1.64.138.418.243.8.294 1.051.148.647.241 1.345.267 2.098.006.165-.009.322-.013.483.028.17.055.271.088.273.014-.365-.08-1.08-.035-1.194.066.356.078.983.111 1.018-.078.373-.012-.686-.076-.195.002.254.01.364.018.483-.02-.17-.06.224-.092.297-.1.813-.237 1.271-.533 2.092.017-.025.021-.034-.004.016l.004-.016c-.008.016-.024.036-.038.054-.06.156-.116.314-.183.465-.085.288-.145.528-.07.446-.23.452-.276.457-.48.836.41-.557-.075.112-.062.208-.236.374-.114.11-.24.27-.035.065-.115.223-.109.242.037-.033.086-.089.166-.194-.116.166-.16.207-.166.194-.178.172.116-.372.006-.316-.124.18-.247.36-.379.531l.023.011-.076.1-.005-.04c-.132.17-.268.337-.406.5.115 0 .302-.06.38-.08.061.015-.24.126-.077.19l.075.076.141.116c.08.062.164.13.255.202.162.13.32.254.461.448-.084-.089-.177-.169-.27-.247.108.124.432.5.585.675-.01.025-.302-.228-.199-.036.49.677.853 1.4.905 1.326-.18-.4-.392-.785-.646-1.142.04-.079.506.784.53.717.132.326.247.658.336.995.013.053.032.105.044.158-.012-.053-.03-.105-.044-.158-.059-.176-.147-.382-.125-.246.16.492.065.261.131.598-.105-.328-.343-.767-.58-1.13.123.282.232.592.325.93l.337.654c.071.455-.078.313-.12.213.115.88.291.856.3 1.764l.021-.34c.021.213-.004.992.011.91-.038.177-.118.338-.132.138.038.267.048.536.052.81.001-.12-.103-.053-.114-.104-.039.317.05.563.087.361-.189.611-.12.468-.326.941-.057.177.11.016.152-.117-.1.415-.203.648-.28.834l-.008.022-.006.003c-.105.198-.182.343-.26.634l.05-.479.21-.155.013-.025c.138-.47.018-.41-.076-.38-.057.16-.118.317-.186.471-.073.325-.163.65-.289.965.012-.054-.005-.202-.019-.2.005.075-.202.491-.543.928-.332.446-.802.89-1.13 1.155l.094-.085c.118-.123-.459.311-.689.5.031-.044.09-.08.19-.156-.482.281-.54.515-1.083.727.47-.23.528-.334.492-.343-.335.274-1.26.628-1.032.64-.266.075-.494.173-.489.116-.318.147-.66.235-.996.344.076-.025.136-.064-.168-.02.585-.094 1.098-.36 1.404-.414-.008-.063-.223-.018.018-.163-1.029.42-1.63.614-2.342.74-.336.02-.67-.01-1.004-.038l-.044.027c-.056-.027-.113-.047-.168-.08-.124.001-.204.007-.229-.003-.022-.009.01-.015.06-.019-.103-.009-.199-.014-.248-.012.008.01.018.021.055.033-.112-.022-.109-.03-.055-.033-.035-.042.144-.064.331-.082l-.083-.022c-.47-.005-1.016-.019-.603.083-.19-.033-.375-.095-.562-.14-.68-.058-.56-.058-1.376-.243-.034-.039.181.017.046-.052-.61-.112-1.324-.66-1.458-.68-.428-.24-.213-.045-.483-.206.016.003.05.007-.025-.047l-.332-.18c-.11-.104.3.175-.027-.09-.574-.432-.902-.719-1.254-1.207-.538-.668.143.356-.29-.228-.026-.114-.046-.215-.286-.594-.146-.188-.16-.142-.38-.483l.067-.008c-.175-.327-.328-.582-.282-.608-.153-.26-.24-.45-.297-.598-.258-.498.05.43.093.56-.2-.52-.37-.86-.424-1.18l.208.44c-.175-.49-.278-.71-.362-.867-.015-.057-.092-.048-.25-.239l.208.124c.063.025.078.046.092.076.053.097.093.15.07.044-.052-.088-.035-.11-.105-.137l-.204-.106c-.039-.043.24.134.064.003-.128-.058-.367-.19-.506-.197l-.039.006c-.053-.02-.025-.019.04-.006h.007c-.28-.093-.543-.223-.843-.273.165.043.213.03.046-.013l-.58-.107c.177.033.008-.047-.256-.096-.758-.129-.622.03-1.207-.089l.19.012-.303-.057c-.074.107-1.803-.118-1.876.025-.435-.067-.03-.038.534-.07l-.464-.062c.19.003.347.022.55.018-.608-.095-1.189-.025-1.52.008-.234-.022.185-.1-.483-.084-.942.046.18.096-.386.123l-.412-.063c-.72.064-1.262.057-1.873.077-.137.016-.204.028-.237.04l.021-.002-.042.01c-.027.024.133.035-.226.062l.226-.062s.01-.006.021-.009c-.622.01-1.284.16-1.769.198C4.36 69.238 21.451 84 42 84c20.277 0 37.197-14.37 41.134-33.483-.22-.02-.445-.043-.653-.056l.445.057z" mask="url(#prefix__b)"/>
        <path fill="#C5D9E7" d="M19.835 56.376c.049.449.221.194.18.208.005-.263-.15-.168-.18-.208M21.491 60.429c.15.157.297.312.455.46-.126-.137-.243-.278-.36-.422l-.095-.038zM23.454 62.8l-.233-.206c-.078-.071-.152-.146-.225-.218-.148-.145-.27-.301-.363-.448-.007-.04-.016-.08-.022-.12l-.37-.15c.265.34.623.697.963 1.02l.253.236.24.218c.15.143.288.267.391.38-.024-.106-.11-.213-.222-.332-.109-.121-.263-.242-.412-.38M25.196 64.02c.085.047.193.118.39.233-.038-.075.088-.03.101-.025.013.004-.092-.023-.56-.278.038.035.048.048.07.07M25.196 64.02c-.407-.235.213.22 0 0M27.214 64.91c-.216-.039-.425-.096-.636-.15.048.048.204.13.323.193.12.06.202.1.09.083.328.088.463.107.477.078.013-.026-.096-.102-.254-.204M27.856 64.927c-.109-.02-.22-.036-.329-.057.046.038.13.07.33.057M27.216 64.792c.04-.023.022-.03-.044-.038l-.135-.014c-.054-.008-.12-.019-.194-.035l.169.047.173.041.343.077c-.073-.065-.048-.139-.312-.078M26.43 64.305c-.271-.112-.46-.197-.585-.24-.125-.044-.185-.05-.18-.022.007.028.079.087.217.173.134.09.344.192.618.309-.291-.193-.67-.407-.07-.22M23.856 62.966c.154.1.54.577.582.506-.089-.105-.17-.214-.256-.32-.112-.057-.218-.123-.326-.186M31.233 65.5c.034-.053-.234-.116-.287-.177-.156.033-.313.054-.47.077.242.037.715.028.757.1"/>
        <path fill="#C5D9E7" d="M31.042 65.248c-.101.023-.118.049-.096.075l.349-.07.346-.086c-.158.017-.282.034-.38.048-.098.011-.169.021-.219.033M26.92 64.528c.218.06.446.095.666.14.11.02.226.032.337.048.112.014.223.033.336.04-.07-.014-.14-.03-.208-.05-.377-.037-.757-.094-1.131-.178M33.613 65.102c.205-.14.404-.281.587-.43-.085.058-.167.12-.257.176-.108.084-.216.172-.33.254M35.685 64.206c.376-.237.628-.492.85-.714-.261.205-.58.388-1.063.571-.173.216.422-.049.213.143M33 64.97c.092.006.223-.007.419-.057l-.321-.043-.269.076c.032.007.08.022.171.025M33.498 64.738l.163-.06c-.033.012-.096.037-.163.06"/>
        <path fill="#C5D9E7" d="M33.498 64.738c-.01.003-.015.005-.024.01-.095.028-.221.068-.387.121l.011.001.359-.117.041-.015M30.243 64.834c-.142.045-.1.087-.096.131.003.044-.03.091-.34.14.102-.017.233-.033.357-.05.124-.016.238-.046.316-.069.156-.049.156-.1-.237-.152M32.01 64.936c-.122.014-.243.035-.365.044.02.035.164.072-.031.136.129-.03.257-.073.384-.112l.19-.059.186-.069-.181.035-.183.025zM32.643 64.825l.065-.078c-.108.05-.221.088-.334.13.09-.017.18-.032.269-.052M35.895 63.584c.202-.195.46-.357.742-.534-.328.158-.662.343-.98.532-.017.064-.106.212.239.002M34.61 64.259l.055-.038c-.043.009-.075.02-.055.038M39.553 62.704c-.021-.003-.038-.008-.06-.01 0 .01 0 .017-.002.027l.062-.017zM35.585 63.593c-.264.12-.391.236-.511.354.185-.12.375-.242.582-.365.008-.028.003-.042-.071.01M37.215 62.799c.146-.027.425-.094.446-.145-.137.034-.288.087-.446.145M34.778 64.207c-.012.009-.022.018-.036.026.105-.02.086-.027.036-.026M34.778 64.207c.127-.089.211-.177.296-.261-.149.097-.29.188-.409.275.04-.009.081-.014.113-.014"/>
        <path fill="#C5D9E7" d="M38.41 63.059l-.218.11c.27-.09.481-.12.866-.144.09-.047.16-.088.215-.122.057-.032.1-.06.131-.082.063-.045.081-.075.087-.1-.393.105-.773.239-1.148.389l.067-.051zM37.367 63.157c-.66.357-.394-.607-.745-.336 1.028-.623-.25.232.555-.122-.19.133-.37.243-.539.351.2-.097.391-.18.577-.25l-.029.003-.005.003v-.002c-.055.01-.077.01-.02-.01.002-.003.015-.01.02-.014-.005-.02.003-.046.014-.07.32-.139.07.005-.015.07.001.007-.002.018.001.024h.005c.33-.213.663.547 1.006.366-.237.083-.517-.742-.997-.462.082-.217.594.414.172.45M30.938 64.501c.04.01.04.02.045.03.082-.023.113-.038-.046-.03M30.66 64.672c.036.017.12.029.27.034l.092-.025.426.012c.071.003.143.008.21.012l.193.008c.121.005.224.014.29.02.01 0 .012.003.021.004-.078-.035-.153-.07-.245-.098-.112-.038-.244-.064-.432-.107-.046.016-.086.04-.155.064-.034.012-.075.023-.128.034-.053.007-.116.013-.195.015-.276-.023-.005-.068-.025-.114-.09.025-.253.066-.318.094-.033.016-.042.03-.005.047M32.162 64.737l.052.021c.02-.009-.006-.016-.052-.02M34.528 63.718c-.03.048.003.072-.014.115.308-.186.6-.384.885-.58-.178.057-.36.11-.54.166l.07.049c-.273.135-.369.204-.4.25M39.614 62.918c.15-.121.31-.228.471-.345l-.402.167c-.024.059-.047.119-.069.178M40.904 62.593l.157-.066.16-.061c-.099-.006-.2-.01-.298-.01l-.019.137zM63.697 53.12c.14-.404.356-.855.188-.807l-.164.124c.03.283.012.498-.024.682M54.126 65.198c-.094-.02-.175-.03-.243-.033-.069-.005-.123.004-.163.03.434.104.785.14 1.089.15-.132-.022-.255-.048-.37-.072-.115-.028-.22-.055-.313-.075M54.506 18.996c-.215.032-.304.064-.296.096.218-.032.343-.062.296-.096M55.342 65.34c-.165.01-.337.018-.533.006.195.038.397.057.607.057.209.005.426-.027.63-.085-.075-.011-.15-.015-.227-.023l-.236.028c-.078.007-.16.013-.241.018M20.209 53.012c-.01-.113-.011-.3-.013-.475-.01.085-.009.229.013.475M46.105 62.59c-.258-.043-.043.006 0 0M45.016 61.78c-.028.031-.071.05-.124.058.063-.01.112-.027.124-.059M45.732 62.452c.094.036.203.07.321.104-.049-.022-.147-.053-.32-.104M45.77 62.528c-.089-.02-.156-.04-.225-.053-.04.021-.009.033.224.053"/>
        <path fill="#C5D9E7" d="M46.456 62.668c-.143-.034-.275-.07-.402-.112.048.021.065.034.05.035.075.016.18.036.352.077"/>
        <path fill="#C5D9E7" d="M62.757 56.252v-1.388c.236.404.458.886.536 1.396l-.124.21.142.84c-.14-.222-.344-.619-.554-1.058zm-.187 5.494c-.06.087-.117.175-.178.257-.064.082-.126.16-.185.231-.126.139-.23.251-.307.303-.058.038-.102.051-.136.048.17-.269.315-.55.438-.845l.283.07c-.078-.067-.156-.13-.235-.194.11-.281.205-.571.278-.873.218.037.399.124.455.263-.02.047-.187.393-.413.74zm-3.475 2.211c.009-.058-.122-.075-.212-.083.289-.107.558-.229.81-.363-.168.171-.385.335-.598.446zm-4.931.61c-.432.091-1.07.13-1.794-.025-.568-.146-.653-.258-.634-.3.02-.045.148-.048.048-.069-.472-.224-.792-.403-1.058-.529-.26-.13-.464-.211-.654-.291-.188-.08-.362-.158-.554-.286-.193-.127-.4.652-.663.389-.175-.243-.123-.314-.021-.35.102-.035.25-.025.239-.116.364.215.588-.515.78-.31.194.205.355.398.588.57-.168-.164-.326-.331-.483-.498.25.126.715.44.935.651-.04-.052-.11-.121-.198-.201.879.653 1.913 1.187 3.807 1.268-.017.007-.03.014-.048.02-.084.028-.18.054-.29.077zm-5.498-1.927c.009.003.015.005.023.006.292.302.19.191-.023-.006zm-9.28-.662c-.13.034-.268.053-.406.07.324-.103.673-.192 1.04-.273-.06.027-.123.052-.197.077-.128.047-.277.091-.436.126zM21.944 22.865l.14-.139c-.176.38-.155.261-.14.139zm40.977 9.149l.13 1.044c-.04.126-.123.021-.224-.15.02.072.04.139.058.192-.035.148-.08.204-.127.204v-.517l.069.121-.07-.254v-.226c.07-.166.134-.314.164-.414zm.173 14.815c-.084-.055-.206-.027-.336.009v-.648l.336.639zm.502 7.416c-.062-.283-.041-.488.002-.686 0 .026.004.049.009.07.002-.029.002-.072.002-.117.029-.125.063-.253.089-.393-.041.118-.074.232-.09.33-.003-.218-.025-.549-.067-.873l.182-.138c-.002-.027-.002-.048-.005-.076.067-.318-.086-.256-.224-.086-.03-.163-.065-.313-.11-.429.295-.259-.098-.852.216-1.204-.154-.219-.115-1.632-.437-1.805.042-.012.062-.107.065.068.036-.362.073-.723-.018-1.048l.232-.153-.312-.79c.142-.48.224-.68.4-.203-.272-1.15-.102-.934-.373-1.912l.15.048c-.006-.351-.206-.909-.083-1.12.284-.783.039-3.872.304-5.881-.441.389.197-.934-.145-1.014.104-.117.163-.396.254-.071-.103-1.026.165-1.541-.123-2.248.105-.118.153.218.215.114-.023-.082-.091-.325-.03-.433.064-.103.089.151.134.313-.017-1.047-.338-1.152-.64-1.229.143-.531.123-.796-.075-1.179.099-.185.202-.493.238.158.014-.366.144-2.236-.098-2.274.062-.114.019-.511-.01-.608.015-.821.036-.894.014-1.7l-.04.223c-.291-.318-.065-.669-.1-1.32l.03.019c.027-.187.044-.336.056-.459.01-.127.015-.226.015-.305 0-.159-.02-.242-.033-.323-.015-.082-.034-.162-.04-.32l-.018-.778-.164.109c-.204-.045-.205-.376-.24-.812-.032-.432-.125-.979-.415-1.361.022.11.036.222.053.332-.167-.202-.208-.552-.275-.926-.07-.37-.261-.476-.437-.697-.058-.11-.242-.347-.287-.344-.606.03-.753-.212-.912-.325-.123-.153-.672-.399-1.301-.599-.157-.054-.323-.094-.484-.145-.164-.046-.327-.088-.484-.137-.16-.04-.313-.086-.456-.135-.145-.043-.28-.092-.401-.148.204.138.39.269-.132.215-.391-.065-.903-.224-1.427-.318-.261-.041-.523-.078-.762-.073-.121.001-.233.005-.344.023-.11.019-.212.046-.302.083-.104-.02-.145-.042-.151-.063l-.584.101c-.224.053-.468.101-.697.181-.115.036-.228.072-.33.12-.105.044-.202.085-.288.13-.17.097-.302.177-.365.251-.098-.031-.227-.022-.377.015-.072.021-.148.051-.228.088-.08.035-.164.078-.243.13-.333.2-.357-.149-.622.148-.267.298-.493.587-.685.775-.191.188-.35.281-.456.195-.366.378-.733.728-1.135 1.03l-.006-.063c-.2.133-.365.245-.508.335-.14.098-.262.171-.36.247-.048.039-.095.074-.14.105l-.12.097c-.038.032-.073.063-.107.095l-.106.087c-.236.048-.094-.053-.09-.084-.088.025-.17.05-.25.071l-.228.051c-.073.016-.138.034-.205.047l-.188.034c-.235.052-.433.08-.618.126-.092.025-.185.043-.281.066-.095.023-.194.05-.3.08-.106.032-.224.056-.354.091-.13.031-.272.075-.437.106l-.144-.16c-.044.013-.112.019-.201.021-.09.002-.198 0-.324-.013-.126-.012-.268-.027-.423-.041-.155-.017-.318-.047-.491-.071-.694-.106-1.48-.273-2.176-.429.02-.014.06-.031.176-.017-.393-.081-.791-.256-1.147-.489-.358-.233-.676-.521-.97-.804-.292-.283-.57-.564-.842-.77-.136-.104-.271-.188-.404-.246-.13-.059-.26-.091-.38-.089-.166-.109-.341-.212-.514-.316-.181-.099-.356-.2-.543-.289.16.111.266.201.339.268.073.067.112.11.125.139.024.059-.043.048-.138.027-.19-.046-.464-.145-.255.072-.242-.16-.531-.393-.69-.547-.076-.079-.123-.131-.104-.15.019-.018.104 0 .268.09l.08.084c.22-.054-.17-.341-.65-.572-.12-.055-.24-.118-.358-.164-.118-.048-.23-.093-.322-.136-.19-.08-.312-.14-.283-.188-.782-.226-1.58-.348-2.364-.407-.197-.021-.391-.027-.587-.035l-.292-.013c-.097-.004-.197 0-.296-.001-.197.003-.393-.005-.59.008l-.592.035c-.787.073-1.571.227-2.313.478-.742.25-1.44.598-2.053 1.023.153-.002.299-.005.449.001-.144.089-.281.186-.42.28-.14.095-.267.201-.4.302-.127.061-.227.088-.233.037-.01-.052.092-.173.38-.396-.2.068-.428.278-.568.492-.152.206-.227.406-.21.429-.264.227-.376.316-.417.312-.041-.003-.01-.097.049-.21.127-.221.356-.527.202-.374l-.2.217c-.065.071-.13.144-.188.22l.11-.082c-.215.417-.164.496-.645 1.158-.173.199-.24.24-.287.247-.047.008-.068-.017-.126.068-.016-.009-.065.046-.17.266-.201.344-.393.694-.555 1.052l.196-.179.204-.174c-.13.501-.448.991-.012.578-.086.073-.174.192-.263.343-.094.149-.181.334-.27.54-.17.413-.322.915-.43 1.413-.107.499-.174.994-.22 1.392-.044.398-.068.701-.103.817.059.354.1.704.116 1.054.017.355.01.729.002 1.142.046-.205.29-.329.26.385-.505-.261-.22 1.307-.584 1.884.243-.516.06 2.028.404 1.22-.041.595-.191.036-.31.488.197 1.417-.127 3.123-.06 4.875.066.027.168-.267.266.109l-.332.925c.032.346.384.318.154.951.055-.09.139-.222.16.01-.324 3.432.265 7.012-.343 10.497.129-.472.142-.157.146.203.032-.234.165.005.255-.041l-.25 1.459c.249.266.017 1.565.255 1.717l-.043-.462c.156.338.329.044.515-.273v1.439c0 3.723 3.999 8.105 9.308 8.105 3.455 0 4.825-.736 7.416-1.917-.01.004-.02.008-.028.014l.063.055c.299-.137.504-.272.316-.228.27-.113.555-.219.857-.318-.237.14-.23.269-.088.373.149.109.433.189.722.234-.002-.057-.03-.117.547-.339-.058-.005-.173.004-.307.017l-.21.021-.205.024c-.26.025-.437.028-.206-.108.389-.156.566-.181.689-.184.123-.003.2.027.409.02-.191-.041.05-.162.325-.279.137-.058.28-.12.376-.179.05-.031.085-.06.1-.089.414-.059.86-.098 1.334-.124l.166.153c.08-.048.162-.1.244-.145-.115-.005-.231-.007-.348-.01.317-.016.63-.033.977-.033 1.192 0 2.148.102 2.939.273-.036.012-.041.031.018.067.159.032.323.053.48.094.188.133-.046.108-.257.1-.211-.009-.395-.021-.115.08-.65-.05-1.36.007-2.251-.116l-.16-.211c.009.029.156.068.333.092.089.012.185.021.275.024.089.007.173.007.238-.003-.191.022-.532-.063-.886-.125-.178-.026-.357-.048-.52-.046-.16.001-.304.035-.407.102l.32.065.318.075c-.324.041-.683.129-1.056.198-.184.04-.374.072-.565.097-.19.031-.384.047-.58.052.19.08.233.073.303.064.068-.005.163-.017.447.083-.125-.066-.065-.105.086-.13.15-.024.39-.041.625-.04.465-.012.895.004.507-.158.287.143.533.169.797.211.263.034.548.079.885.232-.01-.07-.23-.162.387-.043.032-.017.103-.031.147-.037l.04.013c-.012-.005-.02-.009-.033-.013.03-.005.033-.007-.011-.005-.14-.056-.257-.103-.3-.148.173-.056.513-.04.847.006.167.025.335.051.479.083.073.014.14.027.202.036.062.011.113.022.157.027.336.151-.177.019-.018.152.174.015.343.043.515.071-.012.074.168.233.248.333.038.053.052.09.01.095-.021.003-.055-.003-.11-.019-.055-.012-.128-.035-.225-.069.108.055.218.104.322.165l.157.087.153.096c.155.144.343-.643.538-.482.196.161.403.321.585.427.268.269.936.521.556.382.387.263.819.528 1.294.742l-.01.038c.336.187.717.326 1.106.431l.295.072.298.056.15.027.15.02c.1.012.2.026.3.04.806.085 1.6.096 2.43.193.123-.017.245-.03.373-.049.129-.02.262-.04.407-.058.288-.041.619-.084 1.034-.137.063.033.128.061.192.092.314-.084.8-.171 1.237-.296.436-.126.817-.285.909-.407.103-.002.229-.026.37-.068.14-.048.296-.113.458-.199.323-.172.672-.427.988-.726.317-.298.59.312.813-.013.225-.326.389-.636.53-.87l-.157-.105c.33-.648.49-1.315.552-2.149l-.176.029c-.008-.359.073-.803.135-1.302l.04-.382.035-.378c.019-.255.032-.516.027-.779.066.071.048.337.009.525.383-1.252-.278-2.642 0-3.778z"/>
        <path fill="#C5D9E7" d="M43.308 62.411c.2-.016.4-.022.604-.034-.292.003-.396-.034-.544-.06.013.036.128.09-.06.094M42.11 61.985c.157-.008.385-.05.615-.094-.027-.065-.139-.082-.299-.075-.16.005-.367.032-.582.067.026-.002.05-.006.077-.006-.054.098.033.122.19.108M41.344 61.942c-.04.082.162-.009.4-.046-.133.018-.27.034-.4.046M46.955 62.713c-.158-.093-.176.122-.253.042-.064.026-.019.048.068.063.086.02.214.035.325.04.107.006.192.008.193-.015 0-.022-.085-.07-.333-.13M45.584 61.732c.17.023.283.043.28.017-.113-.032-.23-.05-.345-.076-.118-.022-.233-.05-.35-.067.006.028-.086.035-.198.038.108.013.22.023.325.04l.288.048M44.397 61.629c.062.002.159.006.264.007.105.006.216.01.31.009-.113-.013-.224-.024-.323-.028-.1-.001-.188 0-.252.012M52.765 64.263c-.193-.012-.485-.08-.391.007.132.03.26.067.394.09.133.02.264.049.396.064.047-.02.019-.048-.056-.075-.075-.031-.197-.064-.343-.086M20.002 54.932L19.922 55.456 20.052 55.119zM20.043 56.062l.222.314c-.011-.118-.033-.347.023-.438l-.245.123z"/>
        <path fill="#221E1F" d="M36.544 37.16c0 .868-.66 1.572-1.475 1.572-.814 0-1.474-.704-1.474-1.573s.66-1.574 1.474-1.574c.815 0 1.475.705 1.475 1.574M36.773 37.147c-.003.016.036.01.044.013-.01-.03-.054-.013-.044-.013M36.663 36.893L36.68 36.895 36.635 36.864zM36.615 36.658c-.06.04.03.081.018.13l-.014.01.058.006c-.02-.049-.072-.106-.062-.146M36.71 36.485c-.021.018-.03-.02.004.034 0-.004.003-.006.004-.008-.002-.005-.005-.012-.007-.026M36.718 36.512c.01.024.015-.024 0 0M36.66 36.4l.035.022c.011-.012.001-.043.017-.037-.028-.029-.038-.015-.053.015M36.6 36.39l.017.013c.005-.006.005-.011-.016-.013M36.651 36.429l-.035-.026c-.007.008-.027.018.014.012-.019.005.001.004.021.014M36.651 36.453c-.007.023-.008.051-.04.026.03.06.071.034.04-.026M36.545 36.667l-.013.028.027.014c-.014-.007.007-.05-.014-.042M36.59 36.184c-.014.005-.027.03-.042.04l.027.016c.002-.017-.003-.043.015-.056M36.548 36.225l-.04-.021c.015.032.027.032.04.02M36.53 36.416L36.602 36.45 36.524 36.405zM36.51 36.053L36.551 36.053 36.487 36.048zM36.446 35.973c.032-.003.022-.048.047-.044-.022-.018-.056-.021-.086-.024.023.009.038.03.04.068M36.361 35.898c.012.004.028.005.046.006-.013-.005-.027-.008-.046-.006M36.48 36.144c.007-.007.022-.024.018-.048l-.026.035.008.013"/>
        <path fill="#221E1F" d="M36.472 36.132v-.001l-.017-.028.017.029M36.482 36.148l-.002-.005c-.002.005-.003.005.002.005M36.522 36.312c-.032-.01-.075-.035-.084.019.031 0 .036-.033.084-.02M36.45 36.19l.012.04c.01-.007.018-.02.033-.018l-.045-.022zM36.429 36.182c.008.002.015.006.02.009l-.003-.015-.017.006zM36.379 35.977c-.025-.002-.04-.015-.055-.03.009.022.02.044.035.061.013-.006.038-.012.02-.03M36.423 36.054l-.004-.001c-.002.004-.002.006.004 0M36.175 35.792l-.002.009.005-.005-.003-.004zM36.356 36.016c.006.019.02.02.034.02-.01-.007-.02-.016-.03-.027-.006.002-.009.004-.004.007M36.308 35.864c0 .013 0 .026.004.04.003-.017.006-.045-.004-.04M36.424 36.041l.003.001c.004-.011 0-.007-.003-.001M36.424 36.041c-.01-.004-.021-.004-.033-.004.009.007.017.012.028.016 0-.004.003-.009.005-.012M35.96 35.952c.027-.028.082-.028.079.027.043.002.113-.102.134-.178-.012.011-.022.022-.066.012-.001.025.03.095-.015.098-.048-.02-.02-.038-.027-.068-.013.048-.091.014-.125.076l.047.006c-.006.008-.028.012-.026.027M36.226 35.856l.015.008c-.01-.018-.008-.037-.007-.077-.032-.006-.046.001-.056.008l.056.061h-.008z"/>
        <path fill="#221E1F" d="M36.291 35.918c-.038.019-.076.002-.092.051.031.032.046 0 .077.01-.057-.051.032.001.012-.057.016.007.026.016.036.025-.006-.014-.01-.029-.012-.044l-.001.003v.001c-.002.006-.003.009-.004.004l-.002-.001c-.004.004-.009.006-.014.008-.008-.022.006-.01.014-.008l.006-.003v-.001c-.023-.015-.046-.029-.071-.042.008.017.025.029.051.054M36.344 36.34l.007-.006c-.007-.002-.011-.001-.007.007M36.35 36.303c.008.002.024-.003.029.014-.004.019-.017.009-.028.017.014.003.043.017.044-.021l-.007-.002c-.002-.031.022-.092.029-.091-.026.027-.045.048-.066.083M36.323 36.117c-.017-.013-.033-.025-.052-.036l-.009.046.016-.015c.014.033.03.012.045.005M36.184 35.773l.035-.027c-.023.005-.046.011-.068.02.012 0 .02.004.033.007M36.114 35.721L36.139 35.694 36.108 35.697zM33.99 37.836l.016.007c-.006-.004-.01-.006-.016-.007M33.946 37.741l-.018.005c.011.001.02 0 .018-.005M34.15 35.632c-.043-.015-.102-.04-.074-.007l.031.028c.012-.016.027-.021.043-.021M33.632 36.858l.014-.005-.035-.024.02.03M33.796 36.905l-.03.024c.01-.004.02-.013.03-.024M34.38 38.227l.038-.023c-.018-.016-.023.008-.037.023M35.318 35.379c-.02-.021-.04-.03-.057-.034.027.027.044.067.057.034M33.584 38.002c.011.007.021.007.029.003-.012-.007-.021-.01-.029-.003M35.19 35.339l.013.01c.017-.005.037-.011.058-.004-.019-.023-.045-.033-.07-.006M36.102 37.898l.008-.002c-.005-.004-.007-.002-.008.002M36.709 37.386c.001.009-.001.02-.002.033.004-.006.005-.015.002-.033M35.835 35.515c.018.006.004-.003 0 0M35.832 35.7c-.006.001-.011.005-.016.013.006-.008.011-.012.016-.014M35.018 35.595h-.001c.005.008.004.006 0 0M35.85 35.544c-.003-.008-.008-.016-.015-.022l.016.022M35.856 35.524l.012.011c.006-.005.006-.01-.012-.01M35.81 35.505c.01.004.018.01.024.017-.002-.004-.002-.007 0-.007l-.024-.01M35.25 38.592l.004.003c.012-.02.006-.016-.004-.003M34.122 36.23v-.002h-.003l.003.002zM34.113 36.287c-.026-.049-.013-.054.006-.059l-.102-.065.096.124"/>
        <path fill="#221E1F" d="M34.138 38.035l.007-.049c.072-.008.072.024.094-.03-.105.081-.081-.089-.19-.019l.01-.033c.003.006.01.002.012.008.028-.069-.094.023-.11-.037-.002-.023.008-.044.03-.039-.017-.008-.035-.015-.05-.024-.004-.013.017-.02.02-.008l-.036-.057h.004c-.023 0-.06-.009-.078-.014.01-.023.017.003.03-.008-.016-.008-.03-.015-.044-.024.026-.027.066-.008.072.016.104-.08-.041-.017.005-.114l.026.027c.06-.045.027-.06.059-.109-.022.014-.084.107-.127.08.005-.014.002-.029-.026-.044.044-.012.028-.03.02-.055l.059-.013c-.024-.023-.053-.014-.084-.024-.004-.033.042-.048.08-.063.004-.05-.069.048-.088-.01.019-.046-.014-.07-.051-.12.018-.033.037.002.053-.01l-.05-.024c.002-.007.016-.005.024-.004-.02-.022-.06.001-.078-.036-.034-.004-.013-.024.012-.048.024-.023.047-.05.01-.074.019-.01.038.008.062.005-.047-.064-.036-.054-.094-.114l.046-.038c-.05.026-.098-.023-.136-.07-.023.007-.044.015-.053.021-.007-.024-.017-.048-.02-.072.011-.006.03.006.053.021l-.012-.014c.027-.018.059.001.088.024l-.041.014c.032.023.07.043.105.046-.005-.005-.01-.014-.011-.022.008.006.017.01.023.01.007-.002-.006-.01-.02-.022h.07l-.026-.009.059-.06c-.056-.07-.132-.146-.128-.247.038.041.072.035.126.058-.063 0 .005.073-.022.11.014-.02.04-.006.046.001l-.028-.09c.044.018.037-.004.066-.015-.094-.022-.035-.078-.047-.12.029.012.055.033.032.065.083-.007-.078-.1-.003-.112-.005.01-.011.012.002.022-.014-.033.032-.07.05-.045l-.003.008c.037-.05.104-.159.046-.218.009.005.072.067.083.08-.052-.086-.093-.173-.132-.269.046.055.19.138.188.203.017-.005.036-.01.038-.05-.013 0-.09-.05-.084-.066.081.025.048.01.129.023-.023 0-.084-.09-.063-.106.008.015.072.078.075.093-.01-.04-.02-.082-.026-.122 0 .024.056.07.085.086-.019-.013.04-.03.046-.048l-.034-.004c.06-.029-.036-.165.03-.2.005.023.056.126.092.12-.008-.029-.028-.095-.038-.165-.01-.069-.01-.139.013-.175l.026.022c.01-.018.021-.039.035-.057-.002.09-.002.284-.002.367.032.008.023.027.054.01.025.02.004.047-.003.053l.08-.019c-.034-.057.027-.087.005-.134-.021.031-.038.07-.054.101-.018-.028-.027-.074-.022-.117.005-.044.024-.083.058-.089.024.018.03.111.04.131-.002-.024.039-.06.05-.048l-.013.041c.037.011.024-.103.081-.054.017.001.062.07.055.032-.04-.065-.108-.283-.102-.342.008.003.103.044.127.08.036.052-.01.141.02.186-.002-.018.007-.04.011-.049.017.013.002.055.034.042-.005-.065.066-.005.008-.056.03-.024.035.005.073 0-.017-.04.023-.146.06-.166-.002.016.008.038.011.047.073 0 .111.04.177.04.005.016.034.04.017.065.01-.01.023-.03.041-.029.031.062-.044.002-.024.073.008-.037.057-.044.09-.063.002-.058-.066-.02-.096-.003.008-.08.07-.156.155-.179.064-.007.014.056.029.048.1.045.133-.115.209-.023.017.063-.035.097-.04.135-.05.001-.056-.058-.09-.064l.032.035c-.02.012-.053.016-.066-.002.016.048.172.063.224.141.02-.009.052-.013.05-.037l-.026-.006c-.005-.049.07-.028.049-.06.044-.01.107-.032.139.02l-.022.055c.008-.016-.012-.049-.032-.04.032-.01.025.11.086.058l-.01-.054c.047-.005.126-.03.154.018.015-.06-.014 0-.003-.079-.02.085-.105-.076-.111.027.01-.086-.035-.063-.044-.147-.008.018-.002.04-.037.012-.004.005-.012.01-.016.011l-.002-.002.002.003c-.003.002-.005.002 0 .001.005.012.008.024.006.036-.04.03-.097-.002-.127.01-.017-.02.018-.016.017-.042l-.044.017c.014-.04-.035-.09.032-.09l-.05-.022c-.022-.034-.06-.06-.092-.053-.022-.017-.075.028-.044.002l-.088.003.002-.01c-.04-.016-.085-.005-.13-.003-.044.003-.087-.008-.13-.047-.03.01-.059.021-.105.006l-.008-.038c-.037.012-.111-.032-.126.007-.047-.103-.18-.003-.246-.009l.008.05c-.043.006-.081.031-.127.064l.015.04c-.034.043-.117.01-.186.04-.002-.016.017-.02.032-.015-.057-.03-.093.008-.124.047-.03.04-.058.078-.107.07-.008.024-.023.027-.04.025.002 0 .003-.003.003-.003l-.008.003-.035-.004c.014.004.025.006.032.006-.013.01-.029.027-.04.047l-.035-.032c0 .002-.002.002-.004.004-.026 0 0 .03.029.05-.005.012-.008.027-.008.041-.058-.049-.029.054-.096.008.011.037-.066.096-.017.163-.009-.007-.016-.006-.009-.015-.023.01-.046.02-.046.051l-.048-.033c.008.03.014.062.023.092-.046 0-.072-.004-.084-.057.002.104-.023.064-.008.158l-.027-.025c-.014.02.007.08-.026.072-.095 0-.142.211-.253.308.111.017-.068.042.011.08-.026-.003-.046.01-.06-.019 0 .075-.076.09-.017.157-.026.001-.033-.024-.05-.02.005.006.017.026 0 .03-.017.003-.019-.016-.028-.03-.013.074.064.098.136.12-.042.025-.04.045.006.078-.027.008-.056.024-.057-.02-.007.022-.06.144.004.152-.017.006-.007.033 0 .04-.007.053-.013.058-.009.111l.01-.015c.072.022.017.043.028.086h-.008c-.047.1.024.038-.026.14l.044-.01c.098-.005-.045.09 0 .141l.023-.025c.035.022-.111.11-.115.147-.008.01-.017-.008-.024-.017-.037.1.058-.003.087.054-.029.021-.081.008-.077.052-.017.03.137.084.1.16.018-.022.036-.043.064-.023.025.034-.035.148.05.15-.002.008-.007.013-.011.016.034.02.083.078.128.072-.06.056-.014.09.03.116.044.026.087.047.03.092l.072.073-.012.008c.036.06.081.048.12.04.005.017-.014.02-.02.023.048.088.063.092.168.082l-.02.043c.017-.004.03.035.059.07.03.036.069.077.122.077-.002.004-.008.011-.02.014.062 0 .102.058.146.1.047.037.093.06.139-.016.026-.004.052-.01.077-.02-.08-.035.033-.068.008-.104.034-.002.068.072.026.07l-.004-.01c-.04.082.096.06.08.117.172.031.343.087.515.072l-.026-.066.057-.005c.017.014.029.051-.014.055.028.036.065-.044.063-.06.084.016-.017.086.006.084l.035-.01-.01-.007c.023-.033.019-.062.068-.072.032.005.025.038.038.038.002.004.006.005.02-.004l.074-.014-.046-.045c.023-.034.064-.019.015-.066.038.037.105.02.166-.003.057-.03.11-.066.13-.059.02-.057.054-.08.103-.106-.017-.002-.057-.05-.017-.068.061.117.099-.006.186.041-.032-.012-.008-.037.012-.062.018-.028.032-.055-.016-.069.035-.019.034.035.076.036.018-.052.06-.08.105-.117.044-.034.096-.069.123-.125-.014-.01-.045-.009-.05-.045.033 0 .067 0 .102-.003.008-.025-.067-.07.003-.077-.015-.002-.038-.005-.035-.02.093-.078.131-.194.161-.308.017-.056.034-.112.054-.168.023-.054.056-.107.1-.162-.035.028-.035.006-.035-.018-.009.014-.04-.007-.063-.007.024-.029.053-.058.075-.089-.06-.023 0-.107-.058-.118l.009.03c-.069-.04-.158.047-.248.033.038.023.008.047-.023.072-.028.026-.054.051-.002.092-.02.011-.026-.016-.047-.012.036.022.04.043.015.074l-.01-.006c-.012.1-.065.13-.124.22l.045.01c-.017.02-.03.018-.045.023.05.053.03-.059.09-.007-.05-.002-.068.035-.086.071-.017.037-.043.068-.092.051-.018.03.05.018.031.048l-.028-.006.026.027c-.015.018-.05.008-.072-.004.007-.003.003-.017.004-.024-.041.008-.038.074-.052.077l.032-.016c-.006.022-.02.045-.033.067-.014.022-.033.04-.05.061-.032.043-.066.081-.081.135l.02.011c-.028.082-.06.02-.11.085v-.006c0 .028-.011.05-.032.06.003-.032-.058-.02-.051-.058-.043.077-.014.048-.019.147l-.027-.026c-.002.036.005.052-.03.08.017-.044-.047-.037-.03-.09-.102-.032-.084.123-.159.032-.003.106.087.024.073.052.03.023-.004.081-.034.082-.027.01-.084-.104-.145-.085.008-.002.005-.009.011-.01-.028-.02-.037.047-.075.012-.005.061-.038.002-.03.08l.056-.029c-.028.025-.049.118-.116.085.005-.015.02-.039.029-.052-.02-.019-.03.021-.05 0-.004-.075.072-.029.097-.09-.021-.03-.057.064-.051-.02-.006.054-.024.053-.041.05-.02-.004-.04-.014-.06.027v-.045c-.006.007-.02.03-.032.03l.02-.06c-.033.051-.066-.04-.097-.016.067.002.014.057.044.09-.09.058-.047-.12-.14-.105.014-.004.044.03.023.051-.017-.009-.04-.032-.047-.057-.061 0 .004.048-.026.071-.014-.058-.035.017-.068.031l.01-.046c-.066-.045-.041.09-.1.037l.044-.054-.038.007.02-.05c-.044.028-.055.018-.084-.01-.002.034-.03.076-.063.066-.012-.034.027-.037-.02-.048.021-.023.044-.053.048-.006.008-.013.02-.023.026-.036-.01-.038-.05-.027-.066-.033.006.004.012.008.013.016-.03.013-.058.02-.087.03-.002-.02.013-.03.025-.038-.014 0-.032.013-.051.007.021-.03.038-.066.07-.069l-.074.01c.004-.017-.005-.057.009-.064-.014-.038-.11.02-.13-.035-.005.005-.013.008-.024.006-.029-.035-.029-.09-.099-.09l.027-.068c-.04-.017-.03.088-.097.058-.05-.02.028-.052.03-.078-.038.007-.12.02-.105-.05.017.003.018.017.032.025"/>
        <path fill="#221E1F" d="M33.777 36.9h-.025c.007.005.015.006.025 0M34.374 38.231l.001.001c.003 0 .005-.003.006-.006l-.007.005zM34.843 35.797c-.011-.005-.018-.013-.022-.021 0 .012.007.02.022.02M36.01 35.595l-.04-.012c.018.008.018.02.02.033.007-.01.009-.028.02-.021M36.08 36.02c.008 0 .008.008.016.008l.013-.017c-.016-.014-.039-.012-.029.01M35.955 35.741c-.02.033.006.035.03.046l-.004-.003c.038-.038.007-.043-.026-.043M35.99 35.79c.008.003.015.007.02.014.015-.016-.005-.01-.02-.014M35.768 35.516c.007.015.028-.041.028-.023.034-.04-.103.014-.028.023M35.898 35.857l.021-.044-.034.023c.004.008.01.013.013.021M35.756 35.727l.028.03c.003-.008.01-.01.017-.01-.02-.013-.04-.032-.045-.02M35.8 35.748c.01.008.022.013.03.01-.005-.003-.018-.01-.03-.01M35.848 35.841L35.844 35.826 35.824 35.809zM35.368 35.572l-.045.007c-.007.015.003.027.02.023.011-.009.028-.013.025-.03M35.455 35.731c-.008-.013-.005-.022-.007-.04l-.017.058.024-.018zM35.343 35.716c-.008.015-.062.038-.016.04.007-.016.047-.02.016-.04M34.752 35.649L34.762 35.645 34.739 35.55zM34.395 36.063c.048-.003-.025-.055.022-.05-.003-.026-.038-.005-.04-.026-.009.035-.028.03.018.076M34.377 35.987c.001-.006.003-.012.003-.02-.003.01-.004.015-.003.02M36.77 37.26L36.792 37.224 36.758 37.246zM36.703 37.188l.062-.008-.055-.02c.002.008.007.023-.007.029M33.969 37.496l-.015.001c-.014.01-.014.015-.013.027l.028-.028zM34.059 37.835L34.057 37.829 34.015 37.867zM34.284 38.023c-.006-.01-.023-.012-.029-.022.023.011-.02.073.03.022M48.737 37.16c0 .868-.66 1.572-1.475 1.572-.814 0-1.474-.704-1.474-1.573s.66-1.574 1.474-1.574c.815 0 1.475.705 1.475 1.574M48.966 37.147c-.003.016.037.01.044.013-.01-.03-.054-.013-.044-.013M48.855 36.893L48.873 36.895 48.828 36.864zM48.808 36.658c-.06.04.03.081.018.13l-.014.01.058.006c-.021-.049-.072-.106-.062-.146M48.903 36.485c-.02.018-.03-.02.003.034l.005-.008c-.003-.005-.005-.012-.008-.026M48.911 36.512c.01.024.015-.024 0 0M48.852 36.4l.036.022c.012-.012.002-.043.017-.037-.028-.029-.038-.015-.053.015M48.793 36.39l.017.013c.004-.006.004-.011-.017-.013M48.845 36.429l-.035-.026c-.008.008-.027.018.014.012-.02.005 0 .004.02.014M48.844 36.453c-.006.023-.007.051-.04.026.03.06.07.034.04-.026"/>
        <path fill="#221E1F" d="M48.737 36.667l-.013.028.027.014c-.013-.007.007-.05-.014-.042M48.783 36.184c-.014.005-.027.03-.042.04l.027.016c.002-.017-.003-.043.015-.056M48.741 36.225l-.04-.021c.014.032.027.032.04.02M48.723 36.416L48.795 36.45 48.717 36.405zM48.703 36.053L48.743 36.053 48.679 36.048zM48.64 35.973c.03-.003.022-.047.047-.044-.023-.018-.057-.021-.086-.024.023.009.037.03.039.068M48.554 35.898c.013.004.028.005.047.006-.013-.005-.027-.008-.047-.006M48.674 36.144c.005-.007.02-.024.016-.048l-.025.035.009.013M48.664 36.132l.001-.001-.017-.028.016.029"/>
        <path fill="#221E1F" d="M48.676 36.148l-.002-.005c-.003.005-.004.005.002.005M48.714 36.312c-.03-.01-.073-.035-.082.019.03 0 .036-.033.082-.02M48.643 36.19l.012.04c.009-.007.018-.02.034-.018l-.046-.022zM48.622 36.182l.021.009-.005-.015-.016.006zM48.571 35.977c-.024-.002-.038-.015-.055-.03.01.022.022.044.036.061.012-.006.037-.012.02-.03M48.615 36.054l-.004-.001c0 .004 0 .006.004 0M48.368 35.792L48.365 35.801 48.371 35.796zM48.549 36.016c.006.019.02.02.035.02-.011-.007-.021-.016-.031-.027-.005.002-.01.004-.004.007M48.5 35.864c0 .013.002.026.004.04.004-.017.006-.045-.004-.04M48.617 36.041l.003.001c.003-.011 0-.007-.003-.001M48.617 36.041c-.01-.004-.022-.004-.033-.004.01.007.017.012.027.016.001-.004.003-.009.006-.012M48.154 35.952c.025-.028.08-.028.077.027.044.002.113-.102.134-.178-.012.011-.022.022-.065.012 0 .025.03.095-.015.098-.048-.02-.02-.038-.027-.068-.014.048-.09.014-.125.076l.046.006c-.005.008-.028.012-.025.027M48.418 35.856l.015.008c-.009-.018-.008-.037-.006-.077-.033-.006-.046.001-.056.008l.055.061h-.008z"/>
        <path fill="#221E1F" d="M48.484 35.918c-.038.019-.076.002-.093.051.032.032.046 0 .077.01-.056-.051.032.001.013-.057.015.007.025.016.035.025-.006-.014-.01-.029-.012-.044v.004c-.002.006-.004.009-.004.004l-.002-.001-.014.008c-.009-.022.005-.01.014-.008l.005-.003v-.001c-.023-.015-.046-.029-.07-.042.007.017.024.029.051.054M48.536 36.34l.007-.006c-.006-.002-.01-.001-.007.007M48.543 36.303c.008.002.023-.003.028.014-.003.019-.016.009-.028.017.015.003.043.017.045-.021l-.008-.002c-.002-.031.023-.092.029-.091-.026.027-.045.048-.066.083M48.517 36.117c-.018-.013-.034-.025-.053-.036l-.008.046.016-.015c.013.033.029.012.045.005M48.376 35.773l.035-.027c-.023.005-.045.011-.068.02.012 0 .022.004.033.007M48.308 35.721L48.333 35.694 48.301 35.697zM46.183 37.836l.017.007c-.006-.004-.012-.006-.017-.007M46.14 37.741l-.02.005c.013.001.02 0 .02-.005M46.344 35.632c-.043-.015-.103-.04-.074-.007l.03.028c.013-.016.028-.021.044-.021M45.824 36.858l.014-.005-.035-.024c.006.008.014.018.021.03M45.99 36.905l-.03.024c.008-.004.018-.013.03-.024M46.574 38.227l.037-.023c-.019-.016-.023.008-.037.023M47.51 35.379c-.02-.021-.04-.03-.056-.034.028.027.044.067.057.034M45.776 38.002c.012.007.022.007.03.003-.012-.007-.022-.01-.03-.003M47.384 35.339l.012.01c.018-.005.037-.011.058-.004-.02-.023-.044-.033-.07-.006M48.296 37.898l.006-.002c-.004-.004-.005-.002-.006.002M48.901 37.386v.033c.002-.006.003-.015 0-.033M48.027 35.515c.018.006.005-.003 0 0M48.024 35.7c-.005.001-.01.005-.016.013.007-.008.012-.012.016-.014M47.21 35.595h-.001c.005.008.005.006.002 0M48.043 35.544c-.004-.008-.009-.016-.015-.022l.015.022M48.049 35.524l.013.011c.005-.005.006-.01-.013-.01M48.004 35.505c.009.004.018.01.024.017-.002-.004-.003-.007-.001-.007l-.023-.01M47.443 38.592l.003.003c.012-.02.006-.016-.003-.003M46.315 36.23L46.315 36.227 46.312 36.228z"/>
        <path fill="#221E1F" d="M46.307 36.287c-.026-.049-.014-.054.005-.059l-.101-.065c.03.042.063.084.096.124"/>
        <path fill="#221E1F" d="M46.33 38.035l.007-.049c.073-.008.074.024.095-.03-.105.081-.082-.089-.19-.019l.01-.033c.002.006.009.002.012.008.027-.069-.095.023-.11-.037-.001-.023.009-.044.029-.039-.016-.008-.034-.015-.05-.024-.003-.013.018-.02.02-.008l-.036-.057h.004c-.022 0-.06-.009-.077-.014.01-.023.017.003.029-.008-.014-.008-.03-.015-.043-.024.027-.027.065-.008.073.016.103-.08-.042-.017.003-.114l.026.027c.06-.045.028-.06.06-.109-.021.014-.084.107-.127.08.005-.014.003-.029-.026-.044.043-.012.027-.03.02-.055l.058-.013c-.023-.023-.052-.014-.084-.024-.002-.033.044-.048.08-.063.004-.05-.067.048-.087-.01.018-.046-.014-.07-.052-.12.019-.033.037.002.053-.01l-.048-.024c0-.007.015-.005.023-.004-.02-.022-.061.001-.08-.036-.032-.004-.01-.024.014-.048.024-.023.047-.05.01-.074.018-.01.037.008.06.005-.045-.064-.034-.054-.093-.114l.046-.038c-.05.026-.097-.023-.135-.07-.022.007-.043.015-.052.021-.008-.024-.017-.048-.022-.072.012-.006.03.006.053.021l-.012-.014c.027-.018.059.001.088.024l-.041.014c.034.023.072.043.107.046-.006-.005-.011-.014-.013-.022.009.006.017.01.023.01.007-.002-.006-.01-.018-.022h.068l-.025-.009.058-.06c-.055-.07-.131-.146-.127-.247.038.041.073.035.127.058-.065 0 .003.073-.022.11.013-.02.038-.006.046.001l-.03-.09c.046.018.039-.004.066-.015-.094-.022-.033-.078-.046-.12.029.012.055.033.032.065.082-.007-.08-.1-.003-.112-.004.01-.012.012 0 .022-.013-.033.035-.07.053-.045l-.005.008c.037-.05.104-.159.047-.218.009.005.07.067.082.08-.051-.086-.092-.173-.131-.269.045.055.19.138.188.203.016-.005.036-.01.038-.05-.013 0-.09-.05-.084-.066.082.025.049.01.129.023-.022 0-.085-.09-.064-.106.009.015.074.078.075.093-.01-.04-.02-.082-.026-.122 0 .024.057.07.086.086-.018-.013.04-.03.046-.048l-.034-.004c.06-.029-.037-.165.03-.2.004.023.055.126.09.12-.007-.029-.027-.095-.037-.165-.01-.069-.01-.139.014-.175l.026.022c.01-.018.022-.039.034-.057l-.001.367c.033.008.023.027.054.01.025.02.003.047-.003.053l.079-.019c-.032-.057.028-.087.006-.134-.022.031-.04.07-.055.101-.016-.028-.026-.074-.021-.117.004-.044.023-.083.057-.089.024.018.03.111.04.131-.001-.024.04-.06.05-.048l-.012.041c.038.011.024-.103.082-.054.015.001.06.07.053.032-.038-.065-.106-.283-.101-.342.008.003.104.044.128.08.035.052-.011.141.019.186-.002-.018.007-.04.01-.049.018.013.004.055.035.042-.005-.065.067-.005.007-.056.03-.024.036.005.074 0-.018-.04.022-.146.06-.166-.002.016.007.038.012.047.073 0 .11.04.176.04.005.016.034.04.017.065.01-.01.022-.03.042-.029.03.062-.045.002-.024.073.007-.037.056-.044.088-.063.002-.058-.065-.02-.094-.003.008-.08.069-.156.154-.179.065-.007.015.056.028.048.102.045.134-.115.209-.023.017.063-.034.097-.04.135-.05.001-.056-.058-.088-.064l.03.035c-.02.012-.053.016-.064-.002.015.048.17.063.223.141.02-.009.05-.013.05-.037l-.027-.006c-.004-.049.07-.028.049-.06.044-.01.107-.032.14.02l-.022.055c.008-.016-.011-.049-.033-.04.034-.01.026.11.086.058l-.008-.054c.047-.005.125-.03.152.018.017-.06-.013 0-.001-.079-.022.085-.106-.076-.113.027.01-.086-.034-.063-.043-.147-.008.018-.003.04-.036.012-.005.005-.012.01-.017.011l-.002-.002v.003c-.002.002-.002.002.002.001.005.012.007.024.005.036-.04.03-.097-.002-.125.01-.018-.02.017-.016.015-.042l-.043.017c.014-.04-.035-.09.03-.09l-.05-.022c-.02-.034-.06-.06-.09-.053-.021-.017-.075.028-.044.002l-.09.003.003-.01c-.04-.016-.085-.005-.13-.003-.043.003-.085-.008-.13-.047-.03.01-.058.021-.104.006l-.008-.038c-.036.012-.111-.032-.125.007-.048-.103-.181-.003-.247-.009l.008.05c-.044.006-.081.031-.128.064l.016.04c-.034.043-.118.01-.186.04-.002-.016.018-.02.033-.015-.06-.03-.095.008-.125.047-.031.04-.057.078-.107.07-.01.024-.023.027-.04.025.002 0 .002-.002.003-.003-.002 0-.005.001-.007.003l-.035-.004c.013.004.023.006.03.006-.011.01-.027.027-.04.047l-.034-.032-.003.004c-.028 0-.002.03.027.05-.005.012-.007.027-.007.041-.057-.049-.028.054-.096.008.01.037-.065.096-.017.163-.008-.007-.015-.006-.008-.015-.023.01-.047.02-.046.051l-.048-.033c.006.03.013.062.022.092-.047 0-.071-.004-.084-.057.003.104-.023.064-.008.158l-.028-.025c-.013.02.008.08-.025.072-.095 0-.141.211-.252.308.11.017-.068.042.01.08-.027-.003-.046.01-.061-.019.002.075-.074.09-.016.157-.027.001-.033-.024-.05-.02.004.006.017.026-.001.03-.016.003-.018-.016-.026-.03-.014.074.064.098.136.12-.044.025-.041.045.004.078-.026.008-.054.024-.057-.02-.007.022-.058.144.004.152-.016.006-.006.033 0 .04-.006.053-.011.058-.008.111l.01-.015c.07.022.017.043.027.086h-.007c-.046.1.025.038-.026.14l.045-.01c.098-.005-.045.09 0 .141l.022-.025c.035.022-.111.11-.116.147-.007.01-.015-.008-.024-.017-.035.1.06-.003.088.054-.028.021-.082.008-.077.052-.017.03.137.084.1.16.018-.022.036-.043.065-.023.025.034-.036.148.05.15-.003.008-.007.013-.013.016.034.02.083.078.129.072-.061.056-.014.09.03.116.044.026.086.047.03.092l.073.073-.012.008c.035.06.08.048.119.04.004.017-.013.02-.02.023.048.088.064.092.169.082l-.022.043c.017-.004.03.035.06.07.029.036.068.077.122.077-.003.004-.01.011-.02.014.06 0 .102.058.147.1.045.037.09.06.137-.016.026-.004.052-.01.078-.02-.08-.035.034-.068.009-.104.032-.002.066.072.025.07l-.003-.01c-.04.082.094.06.08.117.17.031.343.087.515.072l-.027-.066.057-.005c.017.014.028.051-.014.055.027.036.065-.044.062-.06.085.016-.017.086.008.084l.033-.01-.01-.007c.023-.033.02-.062.068-.072.034.005.026.038.039.038 0 .004.006.005.02-.004l.073-.014-.045-.045c.024-.034.065-.019.016-.066.037.037.103.02.164-.003.058-.03.11-.066.13-.059.02-.057.056-.08.104-.106-.018-.002-.058-.05-.016-.068.06.117.098-.006.185.041-.032-.012-.008-.037.012-.062.018-.028.032-.055-.016-.069.035-.019.033.035.075.036.018-.052.06-.08.105-.117.046-.034.096-.069.123-.125-.013-.01-.044-.009-.05-.045.034 0 .068 0 .104-.003.007-.025-.07-.07 0-.077-.013-.002-.036-.005-.033-.02.093-.078.132-.194.162-.308.016-.056.034-.112.054-.168.023-.054.055-.107.099-.162-.036.028-.036.006-.034-.018-.01.014-.041-.007-.063-.007.024-.029.052-.058.074-.089-.061-.023 0-.107-.058-.118l.009.03c-.068-.04-.16.047-.25.033.04.023.01.047-.02.072-.03.026-.054.051-.002.092-.021.011-.027-.016-.05-.012.037.022.04.043.016.074l-.01-.006c-.011.1-.063.13-.123.22l.044.01c-.016.02-.03.018-.045.023.05.053.03-.059.09-.007-.05-.002-.067.035-.085.071-.016.037-.043.068-.091.051-.02.03.05.018.03.048l-.027-.006.026.027c-.016.018-.052.008-.073-.004.006-.003.003-.017.004-.024-.042.008-.038.074-.052.077l.033-.016c-.008.022-.02.045-.035.067-.014.022-.033.04-.05.061-.031.043-.066.081-.081.135l.02.011c-.027.082-.06.02-.11.085v-.006c0 .028-.01.05-.032.06.003-.032-.057-.02-.05-.058-.042.077-.014.048-.02.147l-.027-.026c-.001.036.006.052-.028.08.017-.044-.047-.037-.032-.09-.102-.032-.083.123-.158.032-.003.106.086.024.074.052.029.023-.005.081-.034.082-.027.01-.084-.104-.145-.085.006-.002.004-.009.01-.01-.028-.02-.037.047-.075.012-.005.061-.038.002-.03.08l.057-.029c-.03.025-.05.118-.116.085.003-.015.018-.039.028-.052-.02-.019-.031.021-.05 0-.003-.075.072-.029.097-.09-.021-.03-.057.064-.052-.02-.005.054-.022.053-.04.05-.02-.004-.04-.014-.06.027v-.045c-.006.007-.02.03-.031.03l.019-.06c-.033.051-.066-.04-.097-.016.067.002.014.057.045.09-.092.058-.05-.12-.141-.105.013-.004.045.03.023.051-.017-.009-.04-.032-.047-.057-.061 0 .003.048-.027.071-.013-.058-.034.017-.067.031l.009-.046c-.065-.045-.041.09-.1.037l.045-.054-.038.007.02-.05c-.045.028-.055.018-.083-.01-.003.034-.032.076-.065.066-.011-.034.028-.037-.02-.048.023-.023.046-.053.049-.006.008-.013.02-.023.026-.036-.01-.038-.05-.027-.066-.033.005.004.01.008.013.016-.03.013-.057.02-.087.03-.002-.02.012-.03.025-.038-.014 0-.032.013-.052.007.022-.03.039-.066.07-.069l-.073.01c.003-.017-.005-.057.008-.064-.013-.038-.108.02-.128-.035-.006.005-.013.008-.025.006-.03-.035-.028-.09-.1-.09l.028-.068c-.04-.017-.03.088-.098.058-.05-.02.029-.052.032-.078-.04.007-.12.02-.106-.05.018.003.018.017.03.025"/>
        <path fill="#221E1F" d="M45.97 36.9h-.024c.006.005.015.006.024 0M46.567 38.231l.001.001c.002 0 .004-.003.006-.006l-.007.005zM47.036 35.797c-.01-.005-.018-.013-.023-.021.002.012.008.02.023.02M48.202 35.595l-.04-.012c.018.008.02.02.022.033.005-.01.007-.028.018-.021M48.273 36.02c.007 0 .008.008.015.008l.014-.017c-.016-.014-.039-.012-.029.01M48.148 35.741c-.02.033.006.035.03.046l-.003-.003c.037-.038.006-.043-.027-.043M48.184 35.79c.007.003.014.007.019.014.015-.016-.005-.01-.02-.014M47.96 35.516c.008.015.028-.041.028-.023.034-.04-.103.014-.028.023M48.092 35.857l.02-.044-.034.023c.005.008.01.013.014.021M47.948 35.727l.028.03c.004-.008.01-.01.017-.01-.02-.013-.039-.032-.045-.02M47.993 35.748c.011.008.021.013.03.01-.006-.003-.018-.01-.03-.01M48.04 35.841L48.036 35.826 48.016 35.809zM47.56 35.572l-.044.007c-.006.015.003.027.02.023.01-.009.027-.013.024-.03M47.648 35.731c-.008-.013-.006-.022-.007-.04l-.017.058.023-.018zM47.536 35.716c-.008.015-.063.038-.017.04.008-.016.047-.02.017-.04M46.945 35.649L46.955 35.645 46.931 35.55zM46.589 36.063c.047-.003-.025-.055.022-.05-.003-.026-.04-.005-.042-.026-.007.035-.027.03.02.076M46.57 35.987l.002-.02c-.003.01-.003.015-.003.02M48.964 37.26L48.985 37.224 48.952 37.246zM48.895 37.188l.063-.008-.055-.02c.003.008.007.023-.008.029M46.162 37.496l-.015.001c-.014.01-.014.015-.013.027l.028-.028zM46.252 37.835L46.25 37.829 46.208 37.867zM46.477 38.023c-.006-.01-.023-.012-.03-.022.024.011-.018.073.03.022"/>
        <path fill="#C4C5E3" d="M48.148 50.067s-2.525.686-6.498.686c-3.974 0-7.27-.686-7.27-.686-1.697-.486-3.266-1.495-3.266-3.323 0-1.827 1.335-3.647 3.266-3.323 0 0 2.611.397 6.822.44 4.212.042 6.946-.44 6.946-.44 1.698-.324 3.266 1.496 3.266 3.324 0 1.827-1.389 2.713-3.267 3.322M48.21 50.266L48.272 50.309 48.483 50.156z"/>
        <path fill="#C4C5E3" d="M50.55 49.162c.075-.099.18-.245.259-.37.07-.135.109-.25.063-.292l-.092.198c-.032.067-.072.126-.108.191-.056-.015-.127.031-.214.091-.043.032-.088.07-.132.111-.045.042-.093.08-.137.123l.109-.082c.036-.029.07-.06.106-.09-.047.056.025.074-.023.131-.187.106-.283.202-.388.28-.051.038-.104.076-.167.111-.065.032-.141.06-.24.081l.017-.019c-.08.068-.165.13-.248.191-.094.03-.077-.029-.057-.058-.225.16-.4.287-.746.408.16.031.344-.067.518-.18.176-.106.342-.227.51-.21l-.014.02c.073-.059.154-.108.239-.153l.262-.139c.089-.043.174-.099.257-.154.085-.052.16-.118.226-.189"/>
        <path fill="#C4C5E3" d="M49.298 49.759l.02-.014c-.003-.004-.011.003-.02.014M42.768 43.473l-.014.028c.022-.01.04-.021.014-.028M47.168 43.53h-.021c-.025.041-.011.03.021 0M39.607 51.031l.084.045c-.02-.038-.05-.048-.084-.045M45.573 50.892l.01-.003c-.004 0-.008.002-.01.003M42.84 50.558l-.014-.035c-.01.02-.004.03.014.035M44.728 50.366c.054.004.106.006.16.002-.038-.017-.105-.015-.16-.002M45.517 50.914c.017-.009.037-.016.057-.022-.022.006-.043.013-.057.022M39.982 50.474l-.069-.096c0 .03.035.064.07.096M45.187 50.245c.028.015.064.021.102.021-.02-.015-.055-.026-.102-.02M50.855 48.87c-.04.043-.087.091-.138.155.06-.049.104-.1.139-.155M31.434 46.6c.01.015.02.026.034.034-.007-.04-.02-.043-.034-.033M35.58 49.965h.02l-.024-.02.003.02zM33.843 49.582c.01-.003.02-.006.028-.011-.018.003-.025.006-.028.011M36.96 50.057c.022-.005.046-.012.066-.023l-.066.023z"/>
        <path fill="#C4C5E3" d="M38.265 50.29c-.057-.038.01-.063.074-.09-.324-.073-.443.03-.776-.084l.155.062c-.226.044-.637.014-.823-.099l.065-.022c-.218.047-.53-.129-.627-.08.08.05-.012.061.117.117-.181.001-.362.003-.542.001l-.023-.129H35.6c.06.06-.366-.098-.393.015-.151-.07.08-.082.145-.12-.162.01-.17-.047-.326 0l-.136-.134-.416.001c.02-.005-.001-.017.02-.024-.036.005-.017.018-.05.013-.026-.002-.052-.008-.08-.016-.053-.015-.11-.037-.166-.057-.115-.044-.236-.084-.372-.05.012 0 .01-.007.017-.012-.074.016-.181-.02-.28-.068-.097-.052-.186-.117-.235-.149-.193-.072-.122.056-.15.094-.265-.152-.346-.217-.432-.25-.086-.035-.167-.052-.416-.155-.08-.153.029-.136.118-.126.044.006.089.006.105-.01.017-.02.002-.052-.054-.13-.038.01-.115-.016-.214-.065-.048-.028-.1-.064-.154-.103l-.083-.062c-.027-.024-.053-.049-.08-.076-.073-.114-.163-.27-.232-.432-.03-.084-.063-.164-.081-.242-.015-.082-.025-.156-.027-.219l-.071.055c-.035-.05-.054-.11-.08-.166-.024-.056-.054-.112-.071-.17.053.06.12.112.176.164-.021-.023-.058-.073-.1-.132-.037-.06-.071-.133-.104-.19-.038-.092-.036-.158-.026-.202.01-.045.03-.07.05-.094.04-.045.064-.073.004-.226.009-.012.019-.022.028-.027-.063-.1-.023-.358.019-.654.029.042.059.084.089.124-.021.06-.037.121-.055.182.12-.082.033-.31.092-.488.018-.198-.094-.134-.093-.247.027-.067.039-.18.09-.22.103-.148.127.038.152.103-.025-.089-.027-.146-.011-.219.018-.074.052-.164.12-.32.055.015.063.048.049.091.025-.066.035-.13.015-.188l.117-.056c.147-.12.164-.22.192-.338.013-.058.029-.12.066-.186.035-.065.093-.132.19-.198-.03.064.045-.004.153-.079.107-.079.255-.154.333-.152-.066.044-.031.073.013.104.043.033.093.07.07.118.155-.048.172-.088.183-.136.01-.046.009-.108.142-.157-.025.058-.047.111-.067.168.114-.066.126-.087.138-.109.013-.018.025-.039.156-.085-.066.051.124.021-.026.09.172-.022.235-.02.295-.024l.097.002c.04 0 .09.004.166.015l.038-.136c.11-.004.144.065.17.093-.044-.004-.113-.017-.108.001.056.068.1.057.17.05.063-.01.127-.022.199.043-.034-.049-.07-.114.076-.104-.056.078.213.106.22.142-.086-.068.315.01.344-.08.16.081-.06.06-.074.104.149-.09.588.047.72-.003.002.01.009.016.008.021.183-.048.479-.037.837-.104l-.127.07c.354.061.229-.15.523-.126-.07.108.487.023.348.14.18-.053.368-.07.489-.16.165.072-.327.135-.097.18l.254-.045.04.063c.013-.045.233-.037.223-.073.036.075.134.13.12.185.16-.015.38.065.515.008l.01.036c.159-.13.485-.01.566-.148l.096.08c.242-.007.2-.15.313-.182.096-.002.214-.015.315 0-.315.082.156.114.222.164.123.004.488-.002.589-.069-.15.07-.058.128-.327.13.143.14.409-.024.71-.005l-.004.063c.43-.042.443-.149.627-.263.05.078.009.1-.112.18.286.044.737-.013 1.06-.015.102.054.037.088-.07.116.33-.068.746-.01.95-.16-.08.06.135.033.259.052-.001-.029.02-.067.035-.064.1-.033.262-.07.429-.092.166-.024.338-.037.458-.02l-.083.047c.55-.015.77-.273 1.375-.229.11.02-.1.126.119.1.102-.062.056-.164.336-.166l-.01.094.18-.113c-.105-.065-.41-.004-.204-.112.257.057.206-.109.518-.045-.07.017-.151.098-.196.14.322.017.54-.037.758-.09.11-.028.216-.057.342-.077.062-.01.129-.01.2-.01.07.007.147.012.226.036.162-.027.353-.016.528.02.174.032.335.08.454.106-.058.075-.093.141-.254.15.119.058.227.062.322.08.046.007.089.02.126.044.037.023.068.06.086.114.089-.012.254.091.408.203.15.112.293.23.38.202-.017.032.194.246-.07.07.148.133.189.266.207.374.016.111.01.2.052.274.05.084.04-.154.152.044.006.03-.007.042-.001.072l.075.06c.002.098-.121-.052-.165-.037.054.145.125.252.202.368.075.116.156.244.204.427l-.044-.056c.028.124.052.25.066.375l-.012-.019.049.148.043.152-.046-.006c.017.07.044.087.052.187l-.055-.032c.044.05.069.166.085.297.004.032.009.065.009.098l-.004.097c-.004.064-.01.122-.016.168l-.03.03c.004.075 0 .15 0 .226l-.002.115c-.001.04-.008.076-.012.115-.142.2-.015-.325-.145.122-.02-.052-.04-.103-.061-.152-.033.157-.084.235-.124.303-.021.033-.04.063-.058.1-.02.034-.042.071-.064.121.05-.025.098-.069.125-.095.027-.028.04-.03.035.033-.125.073-.172.16-.207.261-.04.095-.061.212-.128.322.085-.095.139-.166.144-.272.084-.103.078 0 .129-.066l.055-.195c.032-.002.065-.003.095-.006.034-.11.072-.216.096-.325.076.056.122-.28.164-.124.03-.117.052-.206.078-.294.01-.043.02-.087.025-.134 0-.047-.005-.098-.02-.153.08-.149.028.26.063.094.102-.94-.104-1.902-.582-2.727l.082.06c-.081-.06-.176-.144-.24-.182-.015-.086-.098-.272-.225-.435-.126-.164-.293-.304-.422-.319-.018-.025.03-.01.055-.004-.125-.099-.293-.249-.497-.389-.204-.139-.45-.262-.684-.314-.115.048-.28-.013-.457-.038-.087-.017-.176-.02-.253-.012-.076.012-.14.041-.18.094l.094-.049c.08.022.025.061-.053.1-.08.041-.18.092-.204.12-.13-.11-.022-.096-.172-.193l.16.02c-.02-.032-.033-.067-.05-.1-.226.176-.475.178-.692.165-.221-.012-.416-.04-.567.076.019-.012.012-.029.032-.04-.22-.037-.356.112-.51.165-.023-.052.086-.096.164-.146-.378 0-1 .196-1.422.14-.143.08.06.091-.088.156-.13-.012-.225-.064-.068-.11-.367-.108-1.186.152-1.744.044-.288.086-.105.12-.551.18.104-.053-.11-.173.157-.184l.03-.057c-.442-.002-1.032-.019-1.274.138-.014-.118-.081-.023-.247-.086-.07.012.006.017.033.025-.164.1-.246-.008-.362.007l.04-.02-.32.068c-.052-.016-.132-.039-.142-.075v.081c-.171-.002-.08-.106-.295-.089l.044.061c-.134-.04-.354.038-.38-.05-.004-.019.022-.01.07-.012-.208-.128-.55.022-.81-.044l.062.135c-.257.032-.154-.034-.143-.079-.171-.006-.206-.052-.431-.077-.112.03-.06.046-.098.083l-.227-.044.15-.064c-.362.175-.883-.07-1.13.09-.13-.048.126-.072.048-.1-.411-.112-.942.057-1.282-.073-.278-.073-.582-.104-.893-.135-.154-.015-.311-.032-.467-.054-.08-.01-.157-.023-.233-.037l-.246-.05.009.036c-.166-.028-.338-.045-.511-.042-.067.042-.186.065-.313.098-.126.036-.26.085-.345.161.008-.032-.048-.058-.008-.093-.208.075-.4.215-.533.236.016-.02.032-.043.05-.062-.221.103-.463.27-.65.453-.186.18-.32.37-.367.49-.09.134-.135.096-.195.107-.158.231-.211.413-.252.64-.038.048-.075.098-.13.148.015.044.027.086.043.128-.048.103-.074 0-.125.08-.02.22-.071.441-.116.652-.046.21-.081.41-.083.56l.043-.042c.015.063.004.152-.01.211-.012.058-.036.083-.062.007-.003.077-.001.15.003.22.004.067.009.133.028.196.014.063.032.123.049.183l.029.09c.01.03.025.058.039.088.053.118.102.242.178.375.038.065.066.141.113.214.044.075.089.157.137.244-.017.045.003.104.042.17.04.066.095.14.16.205.064.065.125.134.172.194.047.058.077.115.068.168.274.203.412.383.658.43-.004.02.016.042-.03.014.036.067.157.141.303.22.15.07.326.141.482.185l-.005.057c.15-.045.65.183.794.107.024.036-.071.026-.12.031.12.16.289.042.482.128-.03.02.043.076-.02.08.075.027.107.036.152.052l.136.038c.093.024.19.043.29.06.202.034.419.058.642.08.445.04.916.075 1.354.17.246.034-.075-.13.245-.084.087.07-.171.1.03.147.159-.055.21-.035.409-.006-.04.034-.011.063-.153.074.11.062.496-.04.717.076-.01-.037.035-.053.079-.069.345-.072.766.164.802.108 0 0 .119-.009.018-.027.123.01.3.04.266.093.067-.027.126-.072.225-.07l-.057.062c.057-.01.125-.049.18-.055l-.085-.044c.139.062.424-.057.41.07h-.05l.265.07c.108-.047.218-.096.395-.073.065.134.454.044.682.057l-.011.046c.179-.06.635-.03.552-.056.174 0 .408.028.322.07.14-.027.439-.03.51-.11l.288.1c.164-.165.569.033.578-.14.158.02.124.06.236.084.214-.098.44-.1.67-.103l.007.017c.23-.008.49-.113.806-.159l.08.124c.166-.037.195-.14.357-.134.039.015.005.026-.037.04.153-.047.367-.039.489-.024.226-.128.415-.12.61-.256.204.085-.27.095-.094.177.35.01.69-.118 1.05-.25.038.018 0 .046-.01.077 0 0 .175-.117.326-.249.15-.13.274-.28.188-.322.034-.054.074-.1.064-.132-.01-.03-.071-.045-.227-.043-.088.074-.365.2-.44.115v.094c-.408.124-.071-.175-.57-.08l.11.012c-.092.021-.16.093-.27.082-.036-.02.03-.044.067-.072-.131.066-.263.127-.396.191-.026-.05-.014-.08.062-.134-.381.065.104.156-.372.19-.091-.028.023-.06.08-.099-.227-.047-.363.046-.582.122-.013-.08.136-.09-.055-.118.042.038.074.105-.068.132.059-.09-.113-.029-.255-.036.032.025.025.065-.028.084-.067.021-.13-.005-.225.01l.18.063c-.233.103-.382 0-.567-.02.013-.017.044-.03.08-.038-.195-.016-.4-.062-.637.025l.02-.012c-.454.113.152.126-.38.24-.178-.008.069-.27-.332-.154.196.058-.255.185-.49.222.08-.055.159-.11.237-.168-.094.005-.255.052-.307.04l.013.034c.02.133-.302-.01-.47.077.207-.19.219-.155.252-.339-.08.052-.167.104-.27.14-.105.034-.227.053-.376.046l.244-.144c-.2-.015-.415.033-.623.097-.208.06-.408.14-.574.197.09-.104-.044-.142.1-.23-.128.006-.256.011-.384.014l.11-.11c-.158.112-.327.026-.307.178.043-.018.038-.037.112-.03-.01.046-.08.14-.278.126-.133-.042.08-.056.045-.1-.13.056-.134-.04-.268-.003l.116.07c-.097.085-.22-.007-.353.031.159-.03.11-.083.054-.139l.008.012c-.096.001-.225.056-.29.002l.088-.118-.145.083c-.053-.018-.088-.063.003-.082-.433-.099-.002.264-.57.115.013-.045.078-.072.232-.034.029-.072-.007-.118-.16-.155-.002-.006 0-.009 0-.014-.296-.018-.682-.06-.884.006"/>
        <path fill="#C4C5E3" d="M39.15 50.283c.157.012.292.02.354.008-.029-.026-.359-.084-.355-.008M43.002 44.098l-.06.014.06-.014M44.28 44.014c-.015-.013-.04-.02-.069-.023.001.023.018.04.07.023M31.884 44.958c0-.002 0-.004.002-.005l-.002.005M38.327 44.099c.114-.033.157-.064.165-.096-.07.007-.13.033-.165.096M35.882 43.873c-.017.005-.034.009-.048.015.036-.004.047-.008.048-.015M31.774 45.299c.005-.107.072-.23.11-.341-.03.094-.154.244-.11.34M45.825 43.776L45.703 43.848 45.833 43.794zM44.638 43.901c-.054-.012-.261.038-.2.067.063-.034.133-.05.2-.067M40.071 43.903L40.018 43.968 40.125 43.92z"/>
        <path fill="#7473C0" d="M38.068 46.429c-.006-.004-.01.003 0 0M42.956 46.389l.005-.001c.002-.02.005-.036.008-.05l-.013.05zM43.753 46.462l.005.005c-.001-.012-.001-.024-.005-.005M41.157 46.613c-.007-.002-.01.003-.014.01.004-.005.01-.009.014-.01M36.605 46.419l.003-.001-.008-.013.005.014z"/>
        <path fill="#7473C0" d="M36.623 46.388c.017.016-.007.026-.016.03.018.028.037.032.058.02.002-.03-.035-.028-.042-.05M33.954 46.259l.01-.011c-.005.003-.008.007-.01.01M41.227 48.068l-.012.007c.006.001.01-.003.012-.007M34.368 46.33l.01-.047c-.007.02-.01.034-.01.046M42.969 46.339l.004-.02-.004.02M44.487 46.441c.001.015.003.025.006.035l.002.001-.008-.036zM48.259 46.85l-.004-.018-.012.036c.008-.004.013-.01.016-.018M45.509 46.565c0-.006.003-.01.002-.017-.02-.014-.064-.013-.122-.006v.057l.12-.034z"/>
        <path fill="#7473C0" d="M46.731 47.808l-.118-.105c.343-.086.515.014.805-.11l-.014.028c.046.022.045-.24.554.029l.002.012c.016-.003.013-.027.05 0l-.09-.062c.046-.034.084-.094.15-.108.015.01.022.034.025.052l.16-.036.057.07c.046-.046.007-.201.148-.127-.06-.105.06-.073.038-.127.007.013.025.03.04.048.077-.02.221-.067.254-.127 0 0-.085-.05-.18-.112-.095-.062-.2-.138-.248-.192.113.017.027-.017.002-.051l-.005.027c-.068-.02-.075-.088-.11-.103l.003.018.003-.01c.005.012.004.02.001.028.002.015 0 .027-.018.024l.003-.006c-.027.012-.075.006-.097.003l-.006-.057c-.038.115-.347-.133-.412-.13-.073-.066-.146.033-.232.005-.133-.006-.074-.078-.144-.121-.086-.03.023.065-.01.072l-.106-.07c.057-.013.022-.044.01-.066-.086-.001-.23-.093-.246.024-.12-.044-.124-.09-.174-.091.018.019.052.035.054.059-.05-.047-.02.014 0 .024-.066.056-.383-.176-.387-.048l-.002-.023c-.008.095.026.184-.018.24l-.036-.038-.046.045c-.036-.028-.02-.055-.023-.066-.076.05-.193.009-.29.005l.124.247c-.087-.052-.246-.158-.255-.074l-.057-.082c-.179-.151-.109.08-.179.037l-.09-.087.083-.006c-.087-.04-.122-.068-.193-.124v.003c.004.004.008.008.01.014l-.013.003c-.006.048-.047.084-.104.085-.083-.006-.143.068-.28-.021l-.027.099-.102-.05-.006-.076c.096-.003.276-.047.4-.061v-.035c-.075.006-.156.047-.205.043-.025-.013-.092-.088-.052-.143l-.04.078c-.244.028-.246.033-.507-.035l.025.037c-.05.026-.099.05-.117-.01-.155-.001-.317-.037-.423-.128l-.016.092c-.032-.003-.09-.136-.097-.01l-.067.045c-.045-.004-.068.05-.122 0-.004-.002-.008-.005-.01-.01v.009c-.102-.034.006.08-.11.036-.042-.061-.035.117-.093.1l-.063-.126c-.106-.07-.115.062-.262.07-.073-.041-.112-.15-.07-.251-.059.123-.026.079-.108.142-.015-.05-.007-.06.01-.105-.079-.053-.045.047-.102.047-.01.093-.023.24-.042.247l.024.027c-.058.052-.123.079-.195.036l.001-.047-.074.027-.007-.06-.106.024.016.016c-.026.008-.107.033-.155.004v-.034c-.134-.097-.238.04-.393.056l.018-.068c-.053-.065-.01.104-.075.072l-.005-.082c-.052.11-.07-.021-.11-.061l.02.108-.072-.022c-.079-.035-.05-.135-.04-.193l-.05.086-.012-.095c-.037.11-.039-.017-.106.043-.007-.036.011-.058-.012-.072l-.11.136.066-.061-.007.14c-.07.106-.096-.014-.146.025l.034-.042c-.082.035-.087-.024-.132-.056.014.027.036.065.003.082-.025.008-.013-.048-.037-.064-.005.093-.065.142-.118.097.001-.013.002-.026.005-.035-.014.015-.02.04-.044.017l.015-.103-.047.097c-.03-.028-.075.046-.07-.023l.017-.021c-.077-.01-.153-.017-.23-.03l-.002-.081c-.026.112-.125-.047-.12.095-.043-.078-.175.049-.145-.11-.152-.016-.24.135-.424.048-.06-.138-.244-.101-.363-.122-.237.045-.392.087-.634.118-.134-.198-.365.042-.513-.074l-.048.072c-.096-.126-.264.009-.402-.117-.037.03-.056.039-.065.04.006.005.016.02.016.068-.04-.037-.126 0-.115-.095l.012-.01c.013-.094-.129.036-.17-.05l.02.105-.079-.024.023-.017c-.358.2-.489-.134-.825.047.051-.11-.069.052-.063-.07-.069-.16-.153.022-.222.057 0 .006-.002.013-.006.022l-.116-.024c.083-.15-.093.12-.019-.005-.294-.141-.698-.058-1.044-.142l.012.04c-.088-.014-.203.023-.265-.046-.06-.07-.156.087-.184.09-.08.062-.134-.08-.103-.07-.08.012-.168.145-.272.074-.025-.133-.31.099-.3-.05l-.003.014c-.13-.117-.28.046-.422-.062 0 0 .004-.011.011-.021l-.353.414.04.498.23.426.737-.016.567.21 1.422.07.111-.102c.263.217.638.02.928.182l.013-.095c.086 0 .076.059.096.077.791.037 1.611-.041 2.323.109.065.066.278.037.331.104.238-.108.485-.1.724-.088l-.01.01.112-.016c.004.008.005.019.001.027.126-.081.324-.003.48.03l-.009.01c.901.004 1.707-.222 2.588-.15.416.128.871-.123 1.343-.032.094.088 1.025-.066 1.103-.12"/>
        <path fill="#7473C0" d="M48.096 47.544h-.004c.004.04.008.025.004 0M46.071 46.635L46.077 46.635 46.05 46.58zM47.295 46.486c-.057-.008-.06.003-.05.018.02.001.038-.004.05-.018M48.541 47.42c.03 0 .017-.022-.004-.048l-.049.013c.017.008.035.027.053.035M48.366 46.89l.006-.034c-.017.01-.015.02-.006.034"/>
        <path fill="#B6B8DD" d="M20.198 56.9l.065.017h.086c-.052-.005-.1-.013-.15-.018M21.3 57.056c-.163-.007-.31-.021-.44-.02.178.023.338.042.44.02M20.817 56.943c-.11-.005-.22-.002-.33-.01l-.04-.006c-.034.003-.065.008-.1.012.086.025.175.047.267.06.118-.018.203-.037.203-.056M61.981 29.002l-.065-.013c-.026.001-.046.006-.07.008.046 0 .09.004.135.005M12.5 51.16c.015.103.152.342.217.464-.079-.222-.103-.343-.217-.465M61.373 29.013c.123-.007.246-.018.367-.018.031-.007.059-.017.093-.021-.087-.021-.176-.023-.267-.033-.114.027-.195.053-.193.072M60.892 28.955c.159-.016.303-.026.43-.032-.177-.016-.332 0-.43.032M70.078 33.847c-.016-.103-.169-.328-.247-.44.101.209.13.327.247.44"/>
        <path fill="#FFF" d="M70.751 35.322l-.031-.025c.035.057.052.08.031.025M79.299 36.442l.223-.056c-.353.02-.197.034-.223.056M54.611 46.733l.005-.015c-.026.05-.02.04-.005.015M54.318 34.234L54.313 34.255 54.324 34.229zM54.516 33.586c-.062.286-.106.44-.191.644l.189-.171c0-.155-.016-.32.002-.473M56.603 30.892l.005-.004.02-.018-.025.022M56.145 31.27c-.004.005 0 .003-.003.008.03-.031.064-.069.092-.095-.029.029-.063.055-.089.087M62.093 28.837c.038.01.048.02.057.028.053-.006.054-.014-.057-.028M79.257 36.453h.02c.012-.004.022-.01.022-.01l-.042.01zM55.518 44.415c.074-.105.12-.161.156-.195-.006-.012-.05.029-.156.195M54.401 51.948l.085.217c-.025-.13-.018-.142-.022-.217h-.063zM54.127 50.691c.019.048.121.527.057.083-.03-.045-.107-.702-.057-.083M54.156 38.967c-.093-.342-.085-.531-.137-.36.065.587.082.129.147.656.05.13-.057-.431-.01-.296M54.156 38.967l.05.175-.05-.175M69.401 32.44l-.028-.016c.017.06.064.135.157.287l-.129-.27zM72.205 35.998L72.125 35.977 72.26 36.071zM76.283 36.413c-.169-.002-.368.006-.537-.008.367.014.582.078.537.008M11.566 50.163l.04-.006c-.065-.013-.093-.015-.04.006M28.298 39.559l-.005.016c.026-.05.022-.041.005-.016M28.485 52.343L28.492 52.322 28.479 52.347zM28.22 52.98c.078-.29.154-.436.26-.633l-.211.154-.05.48zM20.07 57.055c-.037-.013-.047-.023-.055-.033-.054.002-.057.01.055.033M27.281 41.885c-.08.105-.129.16-.166.194.006.013.05-.028.166-.194M26.061 29.8c.116.097.21.218.314.325l-.22-.23c-.029-.035-.064-.063-.094-.095M28.629 34.249l.062.002-.083-.222c.026.132.018.144.02.22M28.868 35.456c.021.047.106.718.053.087-.022-.05-.074-.545-.053-.087M28.952 47.538c.076.353.061.544.12.373-.039-.599-.077-.135-.112-.675-.042-.135.031.442-.008.302M28.952 47.538l-.038-.18.038.18M13.068 52.636l.027.019c-.012-.061-.053-.141-.136-.302l.11.283zM9.768 49.746L9.854 49.761 9.704 49.678zM5.555 49.533l.55-.002c-.376.006-.597-.072-.55.002"/>
        <g transform="translate(53 28)">
            <mask id="prefix__d" fill="#fff">
                <use xlink:href="#prefix__c"/>
            </mask>
            <path fill="#FFF" d="M16.831 5.406c.078.112.231.338.247.44-.117-.113-.145-.23-.247-.44M7.892.956c.097-.033.252-.049.43-.033-.128.005-.27.016-.43.032m22.68 7.093c-.05.007-.13.021-.27.047.075-.03.162-.06.266-.084-.003-.015-.004-.03-.006-.046-.224.04-.443.082-.573.106.086-.013.19-.027.242-.03-.292.077-.588.138-.886.201-.144.002-.034-.028.076-.058-.182.031-.305.071-.572.111.064-.048.043-.086.42-.157-.285.057-.568.106-.854.15-.06-.012-.446 0-.336-.027-.477.031-1.164.183-1.802.191-.032.01-.097.02-.232.033-.598.028-1.127-.013-1.834.057l-.4-.074c-.555.01.541.094-.38.11-.656.014-.244-.062-.472-.086-.322.01-.896.08-1.484-.046.198.005.35.038.536.038-.152-.016-.3-.049-.45-.076.55-.007.947.015.523-.056-.078.156-1.75-.156-1.827-.058l-.289-.076.182.024c-.559-.152-.437.006-1.16-.186-.239-.095-.392-.184-.227-.134-.177-.06-.363-.112-.536-.18-.133-.09-.089-.088.042-.003l-.353-.217-.139-.083-.063-.146.006.004-.282-.496c-.077-.219.061.1.052.04l-.236-.447c-.052-.202.15.164.288.486-.074-.485-.185-.374-.577-1.32l.23.42c-.064-.313-.263-.634-.504-1.13.056.123.431 1.012.134.544-.069-.138-.154-.327-.343-.56.036-.026-.115-.277-.336-.568l.067-.016c-.253-.31-.252-.27-.423-.432-.282-.339-.303-.444-.345-.549-.5-.51.291.402-.315-.183-.402-.434-.755-.672-1.36-1.027-.347-.223.083 0-.036-.089l-.347-.13c-.078-.043-.045-.044-.029-.044-.283-.12-.044.027-.49-.15-.075.007-.288-.115-.563-.25-.284-.106-.62-.259-.922-.276-.14-.047.078-.024.04-.057-.81-.12-.695-.11-1.364-.117-.186-.04-.373-.07-.56-.087.411.065-.124.101-.583.13.023.005.043.01.065.013-.046 0-.088-.005-.135-.005.024-.002.045-.007.07-.008L8.833.973C8.8.977 8.771.987 8.74.995c-.12 0-.244.011-.367.017-.002-.018.08-.044.193-.072.091.011.18.013.267.033.181-.032.353-.069.316-.108-.047.006-.14.01-.243.01.048-.01.08-.019.057-.026-.026-.006-.103.002-.225.018L8.566.803l-.04.031c-.33-.01-.657.02-.985.057-.679.212-1.244.453-2.207.967.217-.174.015-.104 0-.166.295-.08.768-.39 1.327-.546-.288.088-.234.04-.164.005-.326.116-.634.274-.939.428-.003-.06-.214.06-.46.17.22-.018-.644.424-.95.714-.039-.008.008-.114.448-.378-.52.238-.532.507-.988.802-.223.21-.506.456-.465.39-.29.29-.647.717-.914 1.13-.282.466-.463.881-.44.96-.014.003-.047-.142-.04-.195-.092.325-.147.652-.189.98-.052.152-.1.307-.142.466-.09.037-.205.104-.105-.363-.085.181-.129.425-.202.838.04-.13.177-.306.144-.126-.189.475-.096.334-.244.945.042-.199.114.032.11.344-.017-.05-.115.022-.123-.094.033.264.05.525.096.785-.024-.194-.096-.034-.124.143.013-.082.013.681.05.891l.002-.336c.048.891.227.861.384 1.714-.042-.097-.204-.226-.106.216.056.108.212.356.401.662.117.323.25.62.397.886-.273-.343-.558-.779-.69-1.108.088.327-.022.107.17.577.031.131-.068-.06-.139-.229.112.324.246.641.405.947.018-.068.545.742.58.657-.277-.328-.526-.683-.728-1.064.044-.075.464.6 1 1.22.115.18-.193-.04-.199-.017l.63.608-.286-.216c.161.172.32.285.491.393.061.037.115.072.168.103.016.018.073.032.051.058l-.087.08c-.029.02-.369.324-.349.36.156-.12.29-.12.36-.064-.133.165-.26.333-.385.505l-.007-.045-.072.1.03.014c-.124.174-.245.348-.36.53-.105.055.161-.485-.007-.313.007.02-.068.176-.099.242-.118.16-.007-.103-.225.272.017.095-.438.765-.053.206-.186.38-.235.385-.44.838.076-.09.015.188-.064.5-.056.142-.113.282-.162.428l-.02.028c-.26.816-.375 1.271-.44 2.07-.022.073-.063.46-.083.294.008.118.035.224.036.472-.05.483-.015-.555-.08-.186.026.033.077.643.136.992.054-.115-.063-.81-.07-1.169.028.001.06.088.093.24 0 .07-.008.137-.006.208.03.856.152 1.631.336 2.345.053.246.141.621.315 1.014.03.088.081.172.117.26.041.094.082.188.126.28.05.101.086.208.14.307.128.28.287.523.415.73.08.091.187.23.225.261.295.391.625.74.977 1.055l-.017-.016c.005.006.013.01.018.016.055.051.11.103.167.15.048.043.093.09.144.131l-.097-.088c-.016-.01-.029-.027-.044-.04.415.35.864.65 1.337.906-.012.002-.018.006-.01.02l.386.168.042.021c-.016.003-.143-.04-.038.022.014-.004.08.015.163.041.207.093.418.176.632.253l.05.023.012.001c.19.068.385.126.581.182.017.007.025.011.056.022.047.012.08.02.113.03.783.208 1.596.325 2.414.353 3.465.122 7.628-3.22 8.524-7.29.228-.132.565-.239.955-.334.187-.007.383-.012.363.045.46-.173 1.262-.077 2.038-.249.175.007-.147.041-.05.057.195-.053.435-.086.884-.089l-.05.013c1.26-.064 1.802-.032 3.216.008l-.104-.047c.305.007.368.028.51.043.351-.067-.855-.022-.535-.094.402.092 2.148.062 2.415.191.468.028-.134-.064.333-.034l.122.038.12-.03c.307.026.458.073.468.1l-.29-.01c.393.054 1.116.078 1.251.1l-.446-.058c.208.013.433.036.654.056.566-2.75.865-5.599.865-8.517 0-2.022-.15-4.007-.428-5.952" mask="url(#prefix__d)"/>
        </g>
        <g transform="translate(0 27)">
            <mask id="prefix__f" fill="#fff">
                <use xlink:href="#prefix__e"/>
            </mask>
            <path fill="#FFF" d="M12.717 24.624c-.064-.122-.202-.361-.217-.465.114.122.138.243.217.465m8.583 5.432c-.102.022-.262.003-.44-.019.13-.002.277.012.44.019m-18.57-7.55c.612-.02 1.153-.013 1.874-.076l.412.062c.565-.027-.557-.077.386-.123.668-.016.249.063.483.084.33-.033.91-.102 1.52-.008-.204.004-.362-.014-.55-.018l.464.061c-.565.033-.97.004-.535.072.074-.144 1.802.082 1.876-.026l.302.057-.188-.012c.585.119.449-.04 1.207.089.263.049.432.129.256.097l.58.106c.167.043.119.056-.046.013.3.051.56.18.842.272l-.007.001c.138.007.378.139.506.197.175.131-.103-.045-.064-.002l.203.105c.07.027.054.049.105.137.023.106-.016.053-.07-.044-.013-.03-.028-.051-.091-.075l-.208-.124c.158.19.235.181.25.238.084.157.187.377.362.867l-.208-.439c.053.318.222.658.424 1.178-.043-.13-.352-1.056-.093-.558.056.147.143.337.297.597-.046.026.106.282.282.608l-.067.009c.219.34.234.294.379.482.24.379.26.48.286.595.433.583-.247-.441.29.227.352.489.68.776 1.255 1.206.326.266-.084-.012.027.091l.332.18c.073.054.04.051.024.048.27.16.056-.035.484.205.134.02.846.568 1.458.68.135.069-.08.013-.046.052.814.185.695.186 1.376.242.186.046.372.108.56.141-.412-.102.134-.088.605-.083l-.066-.018c.05.005.099.013.152.018h-.086l.083.022.099-.011.04.005c.11.008.22.005.332.01 0 .019-.085.038-.204.056-.091-.013-.18-.034-.267-.06-.188.018-.366.04-.331.082.049-.001.144.003.248.012-.05.004-.082.01-.061.02.026.009.106.004.23.002.055.033.11.053.168.08l.044-.027c.333.028.668.058 1.004.037.712-.125 1.312-.319 2.34-.739-.24.145-.024.1-.016.163-.307.054-.82.321-1.404.414.303-.044.244-.005.168.02.335-.108.677-.196.996-.344-.005.057.222-.041.489-.117-.23-.011.696-.365 1.03-.639.037.009-.021.113-.49.343.543-.212.6-.446 1.083-.726-.102.075-.16.111-.19.154.23-.188.806-.621.689-.499l-.095.085c.328-.266.799-.709 1.13-1.155.342-.437.549-.853.544-.928.014-.002.03.146.019.2.126-.316.215-.64.289-.965.068-.154.129-.311.185-.471.095-.03.214-.089.076.38.079-.185.18-.419.282-.834-.042.133-.21.294-.153.117.205-.473.138-.33.326-.941-.038.202-.126-.044-.086-.361.01.051.115-.016.114.104-.004-.274-.015-.543-.052-.809.014.199.094.039.132-.14-.016.083.01-.695-.012-.909l-.02.341c-.01-.909-.186-.886-.3-1.765.042.101.19.242.12-.213l-.337-.655c-.094-.337-.202-.647-.325-.929.236.363.474.802.58 1.13-.066-.337.028-.105-.132-.598-.021-.135.067.071.125.246-.09-.336-.203-.668-.336-.995-.023.068-.49-.796-.53-.716.255.356.467.741.646 1.141-.051.073-.416-.648-.905-1.326-.102-.191.19.061.199.036-.152-.176-.476-.551-.585-.675.093.078.187.158.27.247-.142-.194-.298-.319-.46-.448l-.256-.202-.141-.116-.075-.075c-.163-.065.139-.176.076-.192-.077.021-.263.081-.378.08.137-.162.274-.329.406-.5l.005.041.076-.099-.024-.012c.132-.171.255-.351.379-.53.11-.057-.183.487-.006.315-.005-.018.075-.177.11-.242.126-.159.004.104.239-.27-.013-.095.472-.764.063-.208.204-.379.25-.383.48-.836-.075.082-.016-.158.069-.446.068-.151.123-.308.184-.465.014-.018.029-.038.038-.053.296-.822.433-1.28.532-2.093.032-.072.073-.468.092-.297-.01-.119-.016-.229-.018-.483.065-.491-.001.568.077.195-.034-.034-.045-.662-.112-1.018-.045.114.049.829.035 1.195-.033-.002-.06-.104-.087-.274.004-.161.018-.318.012-.483-.025-.753-.12-1.45-.266-2.098-.051-.252-.157-.633-.294-1.052-.204-.583-.505-1.213-.752-1.638-.077-.098-.186-.241-.224-.275-.667-.982-1.5-1.745-2.412-2.292.014-.001.02-.006.013-.019l-.39-.187-.041-.022c.018-.004.145.048.04-.021-.015.002-.081-.018-.165-.048-.21-.103-.42-.196-.634-.278l-.051-.026-.016-.003c-.196-.073-.395-.136-.592-.194-.018-.006-.023-.009-.053-.021l-.1-.02c-.64-.17-1.284-.254-1.904-.25-5.492.036-8.345 3.218-9.243 7.288-.221.127-.544.236-.94.329-.2.006-.428.016-.406-.044-.47.171-1.29.07-2.081.245-.18-.008.149-.041.05-.057-.2.054-.445.08-.903.091l.052-.014c-1.285.06-1.84.039-3.283 0l.106.048c-.311-.009-.376-.023-.521-.036-.358.069.873.01.546.087-.41-.089-2.192-.045-2.466-.173-.477-.021.138.061-.34.039l-.125-.035-.122.033c-.313-.024-.468-.071-.48-.096.078.001.219.005.299.008-.174-.026-.408-.039-.633-.049C.172 10.634 0 12.797 0 15c0 2.646.256 5.232.725 7.743.484-.039 1.146-.187 1.768-.198.034-.011.1-.023.238-.039" mask="url(#prefix__f)"/>
        </g>
    </g>
</svg>
