<svg xmlns="http://www.w3.org/2000/svg" xmlns:xlink="http://www.w3.org/1999/xlink" width="84" height="84" viewBox="0 0 84 84">
    <defs>
        <path id="prefix__a" d="M0 0L84 0 84 84 0 84z"/>
    </defs>
    <g fill="none" fill-rule="evenodd">
        <mask id="prefix__b" fill="#fff">
            <use xlink:href="#prefix__a"/>
        </mask>
        <path fill="#DFBDD2" d="M84 42c0 23.195-18.804 42-42 42C18.805 84 0 65.195 0 42 0 18.804 18.805 0 42 0c23.196 0 42 18.804 42 42" mask="url(#prefix__b)"/>
        <path fill="#040201" d="M65.714 34.291c.303.004.66.031.523-.163-.319.018-.377-.036-.723.024-.244-.053-.408-.165-.356-.203-.092.007-.378-.107-.527-.05.303.156.69.268 1.13.308.078.055-.019.064-.047.084M68.9 35.476c-.074-.045-.138-.08-.203-.101.063.034.119.073.18.11l.023-.01M61.916 28.387c-.01.001-.011.009-.018.012.028.017.04.021.018-.012M51.762 19.752c.074.071.113.13.14.183-.026-.106.58.14-.14-.183M69 35.57l-.123-.084c-.021.007-.032.02-.014.047.039-.01.078 0 .137.037M35.192 65.958l-.688-.158c.191.051.441.107.688.158M32.474 65.272c-.108-.078-.229-.142-.354-.197-.032 0-.066-.003-.088.004l.442.193zM52.194 64.573c-.031.013-.057.027-.09.04.046-.017.073-.03.09-.04"/>
        <path fill="#FDFAF6" d="M71.98 50.903c-.032.002-.072-.002-.098-.03.062-.126.12-.255.176-.384.025.046.014.156-.078.414zM40.516 17.708c.047.039 0 .083-.132.087.071-.031-.238-.042-.435-.07l.567-.017zm.74-.04c.134-.006.248-.016.321-.011-.067-.004-.159.003-.32.015v-.003zm27.861 18.275c.051.073.068.144.018.155-.159-.124-.32-.245-.487-.36l.47.205zm2.353 2.476l.013.2c-.096-.141-.188-.284-.289-.421.046.017.126.075.276.22zm2.132 5.523l-.026.214c-.16-.3-.183-.604-.242-.936-.042-.331-.08-.694-.279-1.065.36.73.134.105.273.136-.014-.213-.049-.538.006-.457-.178-.358-.117-.658-.425-1.138.035-.04-.162-.388-.03-.347-.234-.46-.017.14-.083.119-.408-.664-.645-1.763-1.49-2.562-.335-.357-.553-.546-.789-.703-.188-.14-.374-.277-.627-.462-.064-.061-.133-.117-.199-.177-.065-.14.313.102.313.102-.322-.366-.599-.613-1.004-.835.095.026.038-.055-.049-.176-.306-.212-.279-.03-.659-.333.094.004.226-.002.405.054-.402-.191-.793-.378-1.22-.53-.076-.115.296.02.458.06-.467-.217-1.217-.53-1.41-.462l.285.155c-.172-.061-.05-.125.086-.093.433.099.547.31.55.355l-.297-.118c.19.347 1.152.542 1.671.944l-.254-.01c-1.315-.89-2.837-1.501-4.479-1.741-.006-.02-.016-.04-.023-.058.128.013.273.07.312-.107l.146-.075-.138-.014c.003-.12-.02-.295-.09-.574l-.377-.618.003-.251.23.557c-.044-.352-.198-.524-.338-.725.024-.074.011-.178-.034-.314l-.48-.548c.033-.111.277.215.107-.227-.223-.256-.016.359-.306-.1-.074-.344.046-.298-.216-.611.015-.072.091-.017.185.113-.229-.283-.502-.803-.684-.91-.043-.18-.202-.436-.328-.654-.137-.212-.247-.383-.158-.421-.102-.068-.48-.433-.674-.697.262.18.09-.072-.114-.373-.208-.297-.479-.616-.33-.632-.22-.11-.49-.407-.78-.743-.29-.336-.643-.674-.948-.925.042.02.125.06.165.118-.292-.332-.338-.468-.508-.701-.15.069-.692-.357-1.03-.531-.295-.482.372.075.351-.152-.07.118-.789-.534-.726-.324-.24-.355-.244-.263-.32-.506-.189.116-.328-.211-.678-.321-.412-.447-.004-.253-.566-.602-.193-.201.18-.017.276.039-.509-.374-.328-.042-.49-.054-.692-.405-.244-.3-.429-.518-.447-.236-.828-.351-1.156-.527-.01-.035-.069-.08.021-.066-.529-.14-1.362-.79-2.003-.878-.036-.032-.05-.053-.056-.07.056.113.036.192-.007.234-.27-.122-.54-.141-.6-.282.163.079.194.048.286.055l-.302-.09c-.196-.252.407.132.453.033-.287-.097-.604-.206-.9-.308-.302-.086-.587-.165-.797-.267-.042-.17 1.043.336.504-.001.223.096.437.21.648.332-.415-.441.396.2.027-.236-.869-.422-1.03-.321-1.912-.704-.227 0 .03.137-.197.138-1.338-.235-.926-.652-1.944-.723-.277.04-.412.2-1.086-.034l.268-.112c-.912-.183-.553.089-1.499-.131.18-.045.731.037.594 0-.605-.208-.455.037-.933-.022l-.082-.155c-.984-.125-2.08-.04-3.167-.031.06-.045.247-.098-.008-.132-1.378.099-2.943.14-4.275.318l-.475.223c-.117.022-.228-.011-.107-.06-.52.058-.01.082-.244.18-.286.067-.398.008-.223-.066-.876.305-2.445.909-3.38 1.157l.162-.101c-.728.21-.693.538-1.365.728l.112-.077c-1.529.584-2.978 1.66-4.107 2.206-.104.255-1.325.927-1.256 1.178-.804.483-.607.305-1.64 1.123-.274.225-.266.477-.542.809l-.102-.083-.3.522-.33.125c-.082.108-.173.209-.248.323.11-.121.277-.215.286-.173-.378.506-1.043 1.138-1.113 1.106-.297.405-.54.849-.792 1.28-.024-.055.103-.274.188-.458-.344.74-.196.043-.51.72.08-.064.034.088.047.116-.292.246-.694.983-.976 1.533l-.019-.148c-.306.472-.54 1.015-.789 1.568-.266.547-.477 1.134-.697 1.72.201-.403.31-.248.192.097l-.182.088c-.004.25.186-.338.11.15-.045.104-.087.18-.114.207-.02.013-.042.008-.06-.004-.017-.015-.04-.017-.048-.052-.002-.05.003-.111.016-.177-.07.224-.043.193-.054.263l-.01.008c-.022-.016-.025-.033-.03-.051-.01-.02-.023-.038-.04-.055.004.008.007.015.007.023-.003.009-.025.01-.037.004.014-.01-.055.007-.114.02l-.177.039c-.24.048-.47.137-.59.262l-.047-.026c-1.188.517-1.672.87-2.509 1.502.053.105-.29.327-.453.612-.607.456-1.254 1.026-1.8 1.775-.326.564-.028.213-.136.489-.135-.035-.58.773-.408.318-.54.966-.685 1.257-1.045 2.603.086-.131.153-.286.163-.191-.055.244-.207.533-.247.485l.008-.068c-.323 1.507-.785 3.576-.415 4.796l-.019-.067c.07.423.183.84.298 1.252.082.585-.142-.334-.132.11.465 1.316.545 2.147 1.147 3.144.06.465.453 1.172.962 1.834.252.332.545.642.793.953.272.287.516.56.691.814l.004-.104c.267.17.247.284.404.452.015-.064-.207-.271-.035-.175.987.86 2.081 1.635 3.223 2.343.566.365 1.16.68 1.751 1 .295.164.601.294.901.44l.452.213.101.048c-.019-.007-.005 0-.01 0l-.006-.003.044.038.093.08c.731.623.657.054 1.49.94l-.357-.101c1.608 1.075 3.165 2.394 4.892 3.223-.114-.03-.14.01-.3-.088.297.29 1.3.734 1.343.66.262.14.027.098.172.217.34.23.963.344 1.121.513.027.029-.118-.016-.19-.038.263.06 1.126.503.94.294.64.328 1.292.455 1.813.697.393-.013 1.153.43 1.321.268-.102.172 1.18.47 1.643.45-.16.027.375.137.185.18.508.112.985.126.91.02.91.388 1.91.054 2.414.397 1.535.01 2.943-.055 4.305-.13-.045.192-1.509.043-1.45.24 1.301-.09 2.04-.268 3.327-.315.334-.003-.183.099-.294.14 1.29-.181 2.515-.218 3.637-.552 0 .019-.119.06-.234.095.225-.047.531-.068.488-.148l-.215.063c-.378-.045.834-.437.852-.524-.318.333 1.122-.203.604.246.143-.05.312-.148.264-.193.22-.045.297-.033.096.095.775-.281.474-.27 1.177-.5.011.04-.125.105-.183.178.33-.204.66-.398 1.258-.58-.019.027.018.038-.03.068.942-.397 1.554-.86 2.6-1.29-.226.32.382-.127.51-.014l.542-.33-.262.048c.496-.247.858-.598 1.3-.777l-.327.255c.296-.177.596-.348.884-.537-.177.084-.355.165-.536.24.445-.342-.148-.138.504-.471-.119.09.471-.278.766-.346l-.002.002c.21-.18.418-.374.782-.556.116-.014.02.193.096.184.157-.254 1.073-.714 1.276-1.023-.077.09-.036.163.005.156l.128-.213c.232-.111.272-.117.274-.04.65-.403-.314-.034.493-.46-.055.047-.018.04-.133.137.396-.23.747-.495 1.096-.75l.52-.373.245-.166c.027-.026.078-.026.101-.033l.153-.032c.162.039-.085.115-.164.143-.057.03-.247.176-.079.139.122-.091.085-.067.286-.131l.453-.146c.302-.093.601-.2.888-.34.59-.235 1.14-.53 1.68-.778l-.208.08c.052-.251.828-.32 1.29-.728-.117.089-.099.204-.078.162.707-.413 1.35-1.002 2.166-1.92l-.064.152c.183-.155.407-.381.63-.611.22-.235.412-.5.588-.691.051-.156.241-.382.063-.291 1.23-1.113 1.431-2.666 2.13-3.885-.057.159-.09.396-.044.269.132-.381.223-.774.311-1.168-.12.067-.1.138-.24.358-.016-.163.031-.498.11-.78-.087.53.167.038.256-.183-.036.032-.053-.054-.087-.041.291-.58-.17-.142.106-.953l.044.052c.014-.32-.02-.62.034-.956.13-.131.013.34.103.373.066-.484-.132-.964-.004-1.393.024.205.013.5.037.707.151-.47.12-.53.155-.885l-.005.035c.032-.274.022-.553.035-.832z"/>
        <path fill="#040201" d="M56.016 22.05c.01.005.014.008.022.015.001 0-.007-.007-.022-.016M23.785 25.015L23.807 25.035 23.867 24.932zM73.184 47.834c.014-.01.03-.035.05-.087-.01.003-.029.041-.05.087M73.572 44.739c.016-.11.015-.251.03-.444-.01.148-.005.298-.03.444M73.388 42.327c-.027-.026-.045-.032-.06-.036v.005l.06.03zM47.884 65.868l-.09.022c-.21.061-.066.025.09-.022M58.174 61.353c-.09.079-.18.157-.28.232.176-.094.31-.171.28-.232M35.268 65.975L35.269 65.974 35.192 65.958zM57.894 61.585c-.146.077-.317.165-.45.265.183-.08.325-.17.45-.265M66.905 34.348c-.001.008-.01.011-.021.012l.129.035-.108-.047zM66.49 34.254l.268.071c-.088-.035-.197-.08-.267-.07M70.43 36.81c-.146-.183-.36-.471-.624-.67l-.046.007c.157.058.48.545.67.664M62.623 58.677L62.694 58.509 62.319 58.802z"/>
        <path fill="#221E1F" d="M37.323 36.482c-.004.017.04.01.048.013-.011-.03-.06-.012-.048-.013M37.219 36.22L37.169 36.189 37.2 36.218zM37.216 36.127c-.022-.052-.078-.109-.066-.15-.068.042.033.083.017.132l-.014.01.063.008zM37.262 35.828c.001-.004.003-.005.005-.008-.003-.005-.005-.013-.008-.026-.024.018-.034-.02.003.034M37.262 35.689c-.029-.03-.042-.015-.059.016l.04.024c.012-.014.002-.046.02-.04M37.172 35.721c-.021.007.002.005.023.015l-.038-.028c-.008.01-.031.02.016.013M37.149 35.79c.031.06.078.033.045-.029-.008.025-.01.052-.045.028M37.087 36.03c-.016-.007.007-.052-.016-.044l-.014.03.03.014zM37.115 35.538c.003-.018-.002-.046.018-.06-.016.006-.032.033-.047.045l.029.015zM37.055 35.714L37.06 35.724 37.139 35.759zM37.047 35.342L37.092 35.341 37.022 35.338zM37.033 35.211c-.024-.02-.061-.02-.094-.023.026.01.04.031.04.072.036-.005.027-.052.054-.049M37.005 35.426l.008.014c.007-.008.023-.027.02-.052l-.029.038zM37.004 35.427l-.017-.03c.002.004.006.013.017.03M36.962 35.637c.034-.001.041-.034.091-.022-.032-.008-.08-.035-.09.022M37.028 35.512l-.05-.022.012.041c.01-.007.02-.023.038-.019M36.973 35.475l-.018.006.023.009-.005-.015zM36.906 35.266c-.027-.002-.042-.016-.06-.031.01.024.023.047.039.064.012-.006.04-.013.02-.033M36.69 35.075L36.687 35.084 36.693 35.078zM36.918 35.328c-.012-.009-.022-.018-.033-.029-.006.003-.01.006-.004.008.005.02.019.021.037.021M36.954 35.332c-.011-.004-.023-.004-.036-.004.009.007.019.013.029.016l.007-.012M36.742 35.142l.017.008c-.01-.02-.008-.04-.005-.082-.035-.006-.05 0-.061.01l.058.063h-.01z"/>
        <path fill="#221E1F" d="M36.71 35.261c.033.034.05 0 .084.009-.061-.053.034.001.016-.061.014.008.026.017.036.026-.004-.015-.01-.031-.011-.046l-.002.004c-.002.006-.003.009-.005.005v-.001l-.016.008c-.008-.024.007-.01.016-.008l.005-.004c-.023-.017-.05-.031-.075-.043.008.016.025.029.054.055-.041.021-.082.005-.101.056M36.866 35.61c.008.002.025-.003.03.015-.004.019-.018.01-.031.018.016.003.047.016.05-.023l-.01-.002c0-.033.028-.098.036-.096-.03.029-.051.052-.075.089M36.775 35.428l.018-.016c.013.035.032.011.048.004-.018-.012-.036-.026-.055-.037l-.011.049M36.738 35.023c-.025.008-.05.015-.074.024.012 0 .023.003.035.005l.039-.03zM36.655 34.969L36.62 34.973 36.626 34.999zM34.467 34.897l.033.032c.014-.018.03-.022.047-.021-.047-.017-.11-.047-.08-.011M35.648 34.6c.004.006.009.009.013.013.019-.006.04-.013.062-.006-.02-.024-.047-.035-.075-.006M36.33 34.783l-.024-.01c.009.005.017.011.025.02-.002-.005-.002-.008 0-.01"/>
        <path fill="#221E1F" d="M34.797 34.893l.028.024.036-.06.003.173c-.027.013-.052.03-.078.043-.01-.07-.01-.143.011-.18zm.441-.018c.004.008.001.018.002.027-.016.002-.033.004-.049.008l-.019-.079.011.082c-.019.004-.035.012-.054.017-.016-.06-.029-.117-.028-.143.01.003.11.05.137.088zm.606-.1c.068-.009.015.061.028.051.108.047.145-.127.222-.028.018.068-.038.106-.044.148-.053.002-.059-.062-.094-.068l.033.037c-.02.014-.056.02-.069-.002.005.02.04.031.07.043-.09-.03-.18-.05-.277-.063.03-.054.07-.1.131-.119zm1.405 1.99c-.01.014-.045-.008-.07-.008.027-.029.057-.06.082-.092-.068-.024.001-.11-.065-.123l.01.032c-.043-.024-.094-.008-.148.01.002-.03.01-.058.01-.09 0-.46-.187-.875-.482-1.17.003.001.005.003.01.003l.016-.017c-.016-.014-.034-.008-.03.011-.029-.03-.062-.055-.093-.083.025-.005.05 0 .047.04.047.001.126-.113.151-.195-.014.013-.025.025-.07.016-.004.026.028.1-.02.105-.053-.019-.022-.04-.027-.072-.016.046-.079.033-.12.073-.04-.032-.082-.062-.125-.09l-.015-.013.006.008c-.042-.027-.085-.05-.129-.074.007-.005.02-.006.02-.015l-.028-.005c-.003-.053.076-.032.054-.068.048-.01.115-.036.15.02l-.026.06c.01-.017-.01-.053-.033-.044.035-.012.023.118.09.06l-.008-.057c.05-.007.134-.035.163.015.02-.065-.013 0 .001-.084-.026.092-.113-.079-.122.03.013-.092-.036-.066-.043-.156-.009.02-.004.043-.039.014-.005.005-.013.01-.018.012 0 0 0-.002-.002-.003l.001.004c-.003.002-.004.002.001.001.005.012.007.027.004.04-.043.031-.103 0-.134.011-.019-.02.02-.016.017-.044l-.046.02c.016-.044-.034-.098.035-.1l-.053-.023c-.02-.036-.062-.064-.096-.055-.022-.018-.08.031-.047.002l-.093.005.002-.012c-.042-.015-.09-.003-.138 0-.013 0-.024-.012-.037-.014.008.005.015.01.02-.006-.022-.022-.042-.032-.059-.037.013.014.023.03.032.041-.03-.006-.062-.006-.095-.036-.03.011-.06.024-.109.008l-.009-.042c-.038.012-.118-.036-.133.007-.05-.112-.19-.004-.26-.01l.008.052c-.046.007-.086.034-.135.07l.017.044c-.034.046-.126.008-.197.04-.002-.018.02-.02.035-.016-.063-.034-.1.006-.133.05-.032.041-.059.082-.112.072-.009.025-.024.028-.043.026.002 0 .003-.003.003-.005l-.007.004c-.012-.002-.025-.005-.038-.005.014.005.026.008.034.008-.012.01-.03.028-.043.05l-.038-.036-.003.004c-.03 0 0 .031.032.054-.005.014-.007.03-.006.043-.065-.053-.03.06-.105.007.013.04-.067.102-.014.175-.008-.009-.017-.008-.009-.016-.025.008-.05.02-.048.052l-.054-.038c.008.033.018.068.028.101-.05-.003-.079-.006-.093-.065.006.112-.024.07-.004.168l-.03-.028c-.015.021.008.085-.028.076-.103-.003-.149.218-.269.318.123.02-.074.042.012.082-.029-.002-.05.011-.067-.019.002.078-.082.093-.016.163-.03.001-.037-.026-.055-.023.005.007.018.03 0 .033-.019.003-.02-.017-.03-.032-.014.078.071.103.152.127-.048.026-.045.046.006.081-.029.007-.06.024-.064-.022-.007.024-.063.15.006.158-.017.006-.007.034 0 .041-.006.056-.013.061-.009.116l.012-.015c.08.022.018.045.03.09l-.008-.002c-.053.103.027.04-.03.145l.05-.01c.108-.005-.052.093-.002.146l.025-.026c.04.022-.125.115-.13.154-.007.01-.017-.008-.027-.017-.04.103.067-.004.097.055-.03.022-.09.01-.086.055-.02.032.151.086.108.165.02-.024.041-.045.072-.026.027.036-.042.158.052.157-.003.007-.008.013-.014.016.037.021.09.081.14.073-.068.061-.018.095.03.122.047.027.091.046.03.096l.077.076-.014.01c.038.06.086.047.13.036.002.02-.016.022-.023.028.05.092.066.095.18.083l-.025.047c.02-.006.032.035.063.073.03.038.07.081.13.08-.005.004-.012.012-.023.015.065-.002.107.061.154.104.048.041.097.064.147-.019.027-.005.055-.013.083-.023-.084-.038.037-.075.011-.115.035-.002.07.078.025.077l-.004-.01c-.043.09.1.063.083.126.181.032.362.093.545.078l-.028-.073.06-.005c.017.016.03.056-.015.06.03.04.068-.047.065-.065.091.018-.017.095.01.092l.034-.012-.01-.006c.024-.037.02-.068.071-.079.036.007.028.042.042.042 0 .005.005.006.02-.004l.078-.014-.049-.05c.025-.036.07-.019.015-.072.04.042.11.025.175.001.062-.03.116-.069.138-.06.021-.062.057-.088.11-.113-.02-.002-.065-.056-.02-.073.067.127.104-.004.2.05-.036-.015-.01-.04.01-.067.02-.029.033-.058-.018-.074.037-.02.037.038.082.04.018-.054.063-.084.11-.12.05-.035.104-.072.131-.129-.014-.013-.049-.013-.056-.05h.114c.007-.026-.078-.077 0-.08-.017-.004-.04-.008-.039-.024.1-.08.14-.2.172-.318.017-.058.035-.117.057-.174.025-.056.06-.112.108-.168-.04.03-.04.005-.038-.02z"/>
        <path fill="#221E1F" d="M36.516 34.867l-.043-.012c.02.008.02.022.022.034.006-.01.01-.03.021-.023M36.453 35.026c-.021.036.006.038.032.049l-.004-.003c.042-.043.008-.047-.028-.046M36.49 35.078c.009.002.016.006.02.014.018-.017-.004-.01-.02-.014M36.289 34.76c.037-.042-.11.02-.031.026.008.017.03-.045.03-.026M36.39 35.153l.022-.05-.036.029c.004.007.01.013.013.02M36.288 35.037c-.021-.015-.041-.035-.047-.02l.029.03c.004-.008.01-.01.018-.01M35.834 34.856l-.047.008c-.008.016.002.029.02.025.012-.011.03-.015.027-.033M37.32 36.599L37.344 36.562 37.307 36.585zM37.244 36.526l.068-.008-.06-.023c.003.009.008.024-.008.03M50.115 36.482c-.003.017.04.01.049.013-.012-.03-.061-.012-.05-.013M50.011 36.22L49.962 36.189 49.992 36.218zM50.008 36.127c-.02-.052-.077-.109-.066-.15-.067.042.033.083.017.132l-.014.01.063.008zM50.054 35.828l.005-.008c-.003-.005-.005-.013-.008-.026-.024.018-.033-.02.003.034M50.054 35.689c-.029-.03-.042-.015-.059.016l.04.024c.013-.014.002-.046.02-.04M49.964 35.721c-.02.007.001.005.022.015l-.038-.028c-.008.01-.03.02.016.013M49.941 35.79c.032.06.079.033.045-.029-.008.025-.009.052-.045.028M49.879 36.03c-.015-.007.009-.052-.015-.044l-.014.03.029.014zM49.907 35.538c.003-.018-.002-.046.018-.06-.015.006-.031.033-.047.045l.029.015zM49.847 35.714L49.853 35.724 49.932 35.759zM49.839 35.342L49.884 35.341 49.814 35.338zM49.825 35.211c-.023-.02-.061-.02-.094-.023.026.01.04.031.04.072.036-.005.028-.052.054-.049M49.797 35.426l.009.014c.006-.008.023-.027.019-.052l-.029.038z"/>
        <path fill="#221E1F" d="M49.795 35.427h.002l-.018-.03.016.03M49.755 35.637c.034-.001.04-.034.09-.022-.032-.008-.08-.035-.09.022M49.82 35.512l-.05-.022.012.041c.01-.007.02-.023.038-.019M49.765 35.475l-.018.006.023.009-.005-.015zM49.698 35.266c-.027-.002-.042-.016-.06-.031.01.024.023.047.039.064.013-.006.04-.013.02-.033M49.482 35.075L49.479 35.084 49.485 35.078zM49.71 35.328c-.011-.009-.022-.018-.033-.029-.006.003-.01.006-.004.008.006.02.02.021.037.021M49.746 35.332c-.011-.004-.024-.004-.036-.004.01.007.019.013.03.016 0-.004.003-.008.006-.012"/>
        <path fill="#221E1F" d="M49.535 35.142l.016.008c-.01-.02-.008-.04-.005-.082-.035-.006-.05 0-.061.01l.058.063h-.008zM49.502 35.261c.034.034.05 0 .084.009-.06-.053.035.001.016-.061.015.008.027.017.037.026-.006-.015-.01-.031-.013-.046v.004c-.002.006-.005.009-.005.005l-.002-.001-.014.008c-.01-.024.006-.01.015-.008l.006-.004c-.024-.017-.05-.031-.075-.043.008.016.024.029.053.055-.041.021-.081.005-.102.056M49.658 35.61c.008.002.026-.003.03.015-.004.019-.018.01-.03.018.015.003.046.016.049-.023l-.008-.002c-.002-.033.026-.098.034-.096-.03.029-.051.052-.075.089M49.567 35.428l.018-.016c.013.035.032.011.049.004-.018-.012-.036-.026-.056-.037-.003.017-.006.032-.011.049M49.53 35.023c-.025.008-.05.015-.074.024.012 0 .023.003.036.005l.038-.03zM49.447 34.969L49.412 34.973 49.419 34.999zM47.26 34.897l.033.032c.013-.018.03-.022.046-.021-.047-.017-.11-.047-.08-.011M48.44 34.6l.014.013c.018-.006.039-.013.061-.006-.02-.024-.047-.035-.075-.006M49.123 34.783l-.025-.01c.009.005.018.011.025.02-.002-.005-.002-.008 0-.01"/>
        <path fill="#221E1F" d="M47.59 34.893l.027.024.036-.06.003.173c-.027.013-.05.03-.078.044-.01-.072-.01-.144.012-.18zm.44-.018c.004.008.001.018.002.027-.016.002-.033.004-.049.008l-.019-.079.011.082c-.018.004-.035.012-.053.017-.017-.06-.03-.117-.028-.143.008.003.11.05.136.088zm.607-.1c.067-.009.014.061.027.051.108.047.145-.127.222-.028.02.068-.037.106-.043.148-.053.002-.06-.062-.094-.068l.033.037c-.022.014-.057.02-.07-.002.005.02.04.031.07.043-.09-.03-.18-.05-.276-.063.028-.054.07-.1.131-.119zm1.404 1.99c-.01.014-.045-.008-.07-.008.027-.029.057-.06.082-.092-.068-.024.001-.11-.065-.123l.01.032c-.043-.024-.093-.008-.147.01.001-.03.008-.058.008-.09 0-.46-.186-.875-.48-1.17.002.001.004.003.01.003l.016-.017c-.017-.014-.035-.008-.03.011-.03-.03-.063-.055-.094-.083.026-.005.051 0 .047.04.047.001.126-.113.151-.195-.013.013-.025.025-.07.016-.003.026.03.1-.02.105-.053-.019-.022-.04-.027-.072-.015.046-.079.033-.12.073-.04-.03-.08-.062-.125-.09l-.015-.013.006.008c-.042-.027-.084-.05-.128-.074.007-.005.02-.006.02-.015l-.029-.005c-.003-.053.076-.032.054-.068.05-.01.115-.036.15.02l-.026.06c.01-.017-.01-.053-.033-.044.035-.012.023.118.09.06l-.008-.057c.051-.007.134-.035.164.015.02-.065-.014 0 0-.084-.026.092-.113-.079-.122.03.014-.092-.036-.066-.042-.156-.01.02-.004.043-.04.014-.004.005-.013.01-.018.012 0 0 0-.002-.002-.003l.002.004c-.004.002-.004.002 0 .001.005.012.007.027.005.04-.044.031-.104 0-.135.011-.019-.02.02-.016.018-.044l-.047.02c.016-.044-.034-.098.035-.1l-.052-.023c-.02-.036-.062-.064-.096-.055-.023-.018-.08.031-.047.002l-.094.005.002-.012c-.04-.015-.09-.003-.137 0-.013 0-.025-.012-.038-.014.008.005.015.01.021-.006-.023-.022-.043-.032-.06-.037.013.014.023.03.033.041-.032-.006-.063-.006-.095-.036-.03.011-.06.024-.11.008l-.009-.042c-.038.012-.117-.036-.133.007-.049-.112-.19-.004-.26-.01l.008.052c-.046.007-.085.034-.134.07l.016.044c-.034.046-.125.008-.196.04-.003-.018.018-.02.034-.016-.063-.034-.1.006-.133.05-.032.041-.058.082-.112.072-.009.025-.024.028-.043.026.002 0 .003-.003.003-.005l-.007.004c-.012-.002-.025-.005-.038-.005.014.005.026.008.034.008-.012.01-.03.028-.043.05l-.037-.036-.004.004c-.029 0 0 .031.032.054-.005.014-.007.03-.006.043-.065-.053-.03.06-.105.007.013.04-.067.102-.013.175-.009-.009-.018-.008-.009-.016-.026.008-.05.02-.048.052l-.055-.038c.008.033.018.068.028.101-.05-.003-.078-.006-.092-.065.005.112-.025.07-.005.168l-.03-.028c-.015.021.008.085-.028.076-.102-.003-.148.218-.269.318.123.02-.074.042.013.082-.03-.002-.052.011-.068-.019.003.078-.082.093-.016.163-.03.001-.037-.026-.055-.023.005.007.018.03 0 .033-.019.003-.02-.017-.03-.032-.014.078.072.103.152.127-.048.026-.044.046.006.081-.029.007-.06.024-.064-.022-.007.024-.063.15.006.158-.017.006-.007.034.001.041-.007.056-.014.061-.01.116l.012-.015c.08.022.02.045.03.09l-.008-.002c-.053.103.027.04-.03.145l.05-.01c.11-.005-.05.093 0 .146l.024-.026c.04.022-.126.115-.13.154-.008.01-.018-.008-.028-.017-.04.103.068-.004.098.055-.03.022-.09.01-.087.055-.019.032.151.086.108.165.021-.024.041-.045.072-.026.027.036-.042.158.053.157-.004.007-.009.013-.015.016.038.021.09.081.14.073-.068.061-.017.095.03.122.047.027.092.046.03.096l.078.076-.015.01c.038.06.086.047.13.036.002.02-.015.022-.022.028.05.092.065.095.18.083l-.026.047c.02-.006.032.035.063.073.03.038.071.081.13.08-.005.004-.012.012-.023.015.065-.002.107.061.154.104.048.041.097.064.147-.019.027-.005.055-.013.083-.023-.084-.038.037-.075.011-.115.034-.002.07.078.026.077l-.004-.01c-.043.09.1.063.082.126.182.032.363.093.545.078l-.028-.073.06-.005c.018.016.03.056-.014.06.03.04.067-.047.065-.065.09.018-.018.095.008.092l.036-.012-.01-.006c.023-.037.02-.068.07-.079.036.007.028.042.042.042 0 .005.005.006.02-.004l.078-.014-.049-.05c.026-.036.07-.019.016-.072.04.042.11.025.174.001.062-.03.116-.069.138-.06.021-.062.057-.088.11-.113-.02-.002-.065-.056-.02-.073.067.127.104-.004.2.05-.036-.015-.009-.04.011-.067.02-.029.032-.058-.019-.074.037-.02.037.038.083.04.017-.054.062-.084.11-.12.048-.035.103-.072.13-.129-.014-.013-.049-.013-.056-.05h.115c.006-.026-.078-.077 0-.08-.017-.004-.042-.008-.04-.024.101-.08.141-.2.172-.318.017-.058.035-.117.057-.174.025-.056.06-.112.11-.168-.042.03-.042.005-.04-.02z"/>
        <path fill="#221E1F" d="M49.308 34.867l-.043-.012c.02.008.02.022.023.034.006-.01.008-.03.02-.023M49.246 35.026c-.021.036.006.038.03.049l-.003-.003c.042-.043.008-.047-.027-.046M49.283 35.078c.008.002.015.006.02.014.017-.017-.004-.01-.02-.014M49.08 34.76c.038-.042-.11.02-.03.026.009.017.032-.045.03-.026M49.182 35.153l.022-.05-.036.029.014.02M49.08 35.037c-.02-.015-.041-.035-.047-.02l.029.03c.004-.008.01-.01.018-.01M48.626 34.856l-.047.008c-.008.016.003.029.02.025.012-.011.03-.015.027-.033M50.112 36.599L50.136 36.562 50.099 36.585zM50.036 36.526l.069-.008-.061-.023c.003.009.008.024-.008.03"/>
        <path fill="#F2DAB2" d="M49.377 50.494L49.599 50.33 49.311 50.446zM52.11 48.602l-.094.207c-.03.072-.073.133-.111.202-.116-.03-.32.165-.512.336l.116-.085.111-.095c-.049.059.029.08-.021.14-.197.11-.298.212-.408.292-.055.042-.109.08-.176.117-.068.033-.149.06-.253.083l.016-.02c-.084.072-.172.135-.261.202-.098.028-.082-.034-.06-.065-.237.168-.419.303-.786.429.172.037.364-.067.546-.185.187-.114.361-.241.54-.22l-.015.02c.077-.06.163-.11.253-.157.091-.047.182-.098.277-.144.095-.045.185-.104.273-.161.089-.054.169-.124.238-.197.078-.104.187-.261.268-.391.072-.142.112-.262.059-.308M43.657 43.648l-.015.03c.023-.01.043-.022.015-.03M48.282 43.577h-.022c-.022.047-.008.034.022 0M49.417 43.032c.02-.03.062-.04.096-.058l-.001-.002-.095.06z"/>
        <path fill="#F2DAB2" d="M52.225 44.998c.027-.025.051-.119.132.035.004.03-.01.044-.006.074l.078.065c-.002.08-.077.005-.134-.028-.022-.049-.046-.098-.07-.146zm-.949-1.187c.098.022.227.096.356.194.16.12.304.247.403.22-.02.033.194.262-.08.072.15.143.186.284.2.398.006.078.008.143.016.202-.23-.428-.535-.804-.895-1.086zm-2.035-.437s-.15.051-.457.125c.098-.028.193-.059.283-.093.21-.093.46-.182.802-.117.168-.038.372-.04.558-.012.187.028.36.073.486.098-.039.053-.082.095-.14.127-.459-.213-.978-.28-1.532-.128zm-10.643.595l-.139-.012c.045-.017.095-.027.13-.054.05.024.04.045.01.066zm2.471.06c-.07.02-.098.034-.106.05l-.289-.008c.017-.018.034-.034.063-.042.1-.003.225-.017.332 0zm6.438-.298c.008.001.005.006.01.008-.188.03-.396.057-.617.084.063-.019.124-.043.195-.056.12-.026.252-.04.412-.036zm.475-.068c-.069.013-.148.024-.222.037.037-.03.094-.057.222-.065v.028zm-.046-.17c.273.043.207-.129.537-.087-.069.025-.147.121-.19.17.145-.003.263-.024.377-.049-.152.034-.335.073-.55.113l.05-.038c-.117-.06-.432.021-.224-.109zm3.18.174c.015.01.021.033.034.048-.042-.029-.086-.054-.128-.079.033.008.067.013.094.031zm1.78 2.327c-.097-.476-.258-.943-.493-1.383l.087.063c-.086-.065-.185-.154-.252-.195-.01-.09-.088-.289-.217-.465-.127-.178-.303-.33-.442-.346-.019-.027.034-.012.06-.004-.133-.106-.309-.27-.529-.419-.22-.148-.489-.274-.746-.317-.062.03-.138.03-.222.02-.084-.005-.177-.027-.27-.034-.14-.017-.266.006-.36.06.083.017.03.063-.05.112-.08.047-.185.112-.209.145-.084-.053-.095-.076-.108-.099-.014-.023-.029-.044-.109-.087h.083c.032-.002.07 0 .105-.002-.024-.034-.05-.067-.077-.102-.019.015-.037.028-.052.042l-.038.035c-.023.021-.052.041-.079.057-.055.033-.114.057-.173.074-.118.034-.237.042-.35.043-.23.004-.435-.015-.582.122.02-.014.01-.032.03-.046-.232-.03-.362.145-.52.207-.028-.056.083-.108.161-.166-.393.015-1.034.255-1.48.204-.147.093.067.098-.087.174-.137-.01-.238-.066-.075-.119-.388-.113-1.24.195-1.83.078-.302.1-.11.134-.577.205.108-.06-.118-.189.162-.204l.031-.062c-.234.001-.505 0-.749.02-.246.017-.464.057-.59.145-.017-.128-.086-.024-.263-.092-.07.015.007.02.035.028-.17.112-.258-.006-.38.011l.044-.022-.337.077c-.055-.018-.139-.043-.15-.082v.09c-.18-.002-.086-.114-.31-.096l.046.068c-.14-.045-.372.042-.399-.056-.005-.02.023-.01.073-.012-.218-.14-.577.03-.849-.049l.063.15c-.27.032-.162-.039-.15-.089-.179-.008-.217-.053-.45-.084-.119.03-.065.05-.105.088l-.238-.05.16-.069c-.385.19-.924-.09-1.186.078-.137-.056.132-.075.051-.107-.425-.135-.989.033-1.336-.129-.286-.093-.596-.147-.915-.207-.158-.03-.317-.062-.473-.102-.077-.02-.156-.042-.229-.069-.039-.012-.069-.024-.107-.039-.083-.03-.118-.034-.167-.05l.006.041c-.175-.048-.36-.074-.545-.088-.075.045-.205.058-.343.09-.069.014-.14.036-.205.06-.066.025-.125.06-.172.096.01-.034-.05-.068-.006-.103-.225.073-.433.217-.578.236.017-.024.036-.043.055-.066-.239.106-.5.276-.699.467-.2.187-.34.386-.388.511-.097.138-.147.097-.213.107-.168.24-.225.43-.269.665-.039.05-.082.1-.14.15l.048.136c-.056.106-.083-.002-.139.078-.022.23-.082.458-.133.676-.052.218-.098.423-.102.58l.05-.042c.027.13-.04.381-.086.226-.013.158.002.302.02.432.031.132.072.255.117.38.114.246.231.513.442.878-.049.1.08.25.201.4.132.138.264.275.246.382.074.054.135.11.192.16.06.046.112.09.164.131.102.086.207.143.337.166-.005.02.016.044-.032.016.07.146.5.335.826.434l-.007.06c.162-.054.688.196.844.108.025.038-.077.03-.129.035.063.085.141.097.227.098.085 0 .18-.01.28.033-.025.025.026.078-.024.086.343.177.795.253 1.267.31.474.057.972.1 1.437.2.26.036-.08-.143.26-.094.091.073-.182.11.033.16.165-.062.22-.039.43-.01-.043.037-.01.068-.16.082.115.067.524-.053.758.073-.01-.04.036-.058.083-.077.364-.086.81.166.85.103 0 0 .124-.01.016-.03.131.01.318.037.283.096.071-.03.132-.08.236-.082l-.059.07c.061-.013.131-.054.19-.062l-.09-.048c.147.066.445-.072.432.066l-.05.002.278.072c.113-.054.227-.106.415-.086.07.144.48.036.72.052l-.012.05c.187-.07.668-.045.58-.068.183-.002.43.028.34.075.147-.033.462-.04.537-.126.1.037.201.076.302.111.172-.187.6.038.608-.153.167.022.131.065.248.091.226-.109.465-.105.707-.11l.008.02c.241-.007.515-.123.85-.169l.085.137c.173-.038.205-.153.375-.144.041.017.004.03-.039.042.161-.048.386-.037.515-.019.24-.139.44-.127.644-.275.216.095-.285.103-.097.194.37.012.727-.123 1.11-.267.04.02 0 .051-.01.085 0 0 .183-.127.34-.27.14-.129.245-.268.204-.33 1.963-.625 3.421-1.54 3.421-3.424 0-.44-.085-.89-.234-1.315l.02.032c.077.122.161.255.21.445l-.048-.058c.026.13.048.26.064.39l-.014-.022c.037.103.071.206.1.313l-.05-.007c.02.072.047.09.057.193l-.063-.033c.1.098.132.493.091.685l-.033.031c.01.078.004.155.006.235 0 .08.002.162-.01.243-.153.205-.023-.34-.158.126-.024-.056-.047-.11-.072-.16-.019.08-.037.143-.059.193-.024.05-.048.087-.069.121-.043.07-.077.128-.126.231.115-.046.18-.198.173-.063-.132.078-.186.164-.218.272-.04.101-.06.223-.13.34.09-.1.147-.173.15-.286.086-.109.083 0 .138-.067l.055-.206c.036 0 .07-.002.102-.005.034-.116.076-.225.098-.34.084.06.13-.293.18-.128.005-.03.012-.06.021-.087.005-.027.011-.054.018-.079.013-.05.026-.096.04-.142.01-.045.023-.09.024-.139 0-.05-.007-.103-.023-.16.086-.155.032.27.07.098.047-.495.016-.98-.08-1.459z"/>
        <path fill="#C2AA9E" d="M38.662 46.715c-.007-.004-.011.003 0 0M43.77 46.567l.005-.001.006-.054-.01.055zM44.609 46.632l.005.006c-.001-.013-.001-.026-.005-.006M41.876 46.859c-.007-.001-.012.004-.014.01.004-.004.008-.008.014-.01M37.142 46.667l.004-.002c-.003-.004-.006-.008-.008-.014l.004.016z"/>
        <path fill="#C2AA9E" d="M37.163 46.633c.017.02-.01.03-.017.032.016.031.037.036.058.026.004-.033-.035-.033-.041-.058M34.406 46.312l.01-.011-.01.01M42 48.45l-.012.008c.007 0 .01-.003.013-.008M34.827 46.427l.014-.05c-.008.021-.012.036-.014.05M43.78 46.512l.006-.021-.005.021M45.38 46.596c0 .016.003.028.008.038l.002.001-.01-.039zM49.36 46.936c0-.007-.002-.014-.004-.02l-.011.039c.008-.004.013-.011.016-.02M46.457 46.707l.002-.019c-.021-.014-.068-.013-.13-.004l.004.063.124-.04z"/>
        <path fill="#ACA199" d="M47.794 48.033l-.13-.11c.358-.105.545 0 .846-.145l-.014.03c.05.023.036-.261.587.014l.003.012c.017-.005.014-.03.053 0l-.099-.067c.049-.039.086-.105.154-.123.017.012.025.037.03.056l.168-.044.063.072c.047-.05-.003-.218.15-.144-.07-.112.06-.082.034-.14.008.014.027.033.043.052.081-.026.232-.083.264-.15 0 0-.093-.05-.197-.114-.102-.065-.22-.145-.272-.203.12.016.029-.018 0-.056l-.003.032c-.074-.019-.085-.094-.122-.11 0 .006.003.013.004.021l.002-.01c.006.013.006.022.003.03.003.016.002.029-.017.028l.002-.01c-.028.015-.08.011-.102.008l-.01-.063c-.035.129-.37-.133-.44-.127-.08-.07-.151.04-.243.014-.14-.003-.082-.084-.157-.129-.091-.027.026.072-.008.08l-.114-.074c.059-.015.022-.048.007-.07-.09 0-.247-.097-.257.032-.127-.044-.134-.096-.188-.094.021.02.058.037.061.063-.055-.05-.02.015 0 .026-.067.063-.41-.181-.409-.041l-.002-.026c-.004.105.035.202-.009.265l-.04-.042-.046.05c-.039-.029-.026-.059-.028-.07-.078.056-.201.014-.304.013l.14.267c-.093-.055-.264-.168-.27-.075l-.063-.087c-.194-.16-.111.091-.186.044l-.1-.093.086-.008c-.092-.042-.13-.072-.206-.132v.003c.006.005.009.01.01.015l-.012.005c-.005.052-.046.093-.106.096-.087-.006-.148.078-.297-.017l-.023.108-.11-.05-.009-.084c.102-.006.288-.058.419-.078l-.002-.038c-.078.01-.162.056-.214.053-.025-.014-.097-.095-.057-.156l-.04.087c-.256.037-.258.04-.536-.027l.029.04c-.051.03-.102.058-.122-.008-.163.002-.334-.037-.448-.132l-.014.1c-.035-.002-.1-.145-.104-.005l-.069.048c-.047-.003-.07.056-.127.003l-.012-.01c0 .003 0 .005.002.008-.11-.035.008.088-.117.041-.044-.066-.032.129-.093.111l-.07-.137c-.112-.072-.12.072-.273.084-.08-.043-.123-.162-.083-.273-.056.133-.023.087-.107.155-.017-.053-.01-.065.007-.114-.084-.056-.046.052-.105.053-.01.101-.02.264-.038.271l.026.03c-.06.059-.127.088-.204.043l-.002-.051-.076.03-.01-.065-.11.029.017.017c-.026.01-.11.038-.163.007v-.037c-.146-.105-.252.047-.414.068l.017-.074c-.057-.07-.008.114-.076.081l-.008-.09c-.053.121-.077-.02-.119-.064l.026.117-.078-.02c-.084-.036-.056-.147-.047-.21l-.052.094-.017-.103c-.036.123-.041-.019-.11.05-.008-.04.01-.063-.016-.08l-.112.152.069-.068-.003.154c-.07.118-.102-.014-.154.032l.035-.047c-.085.04-.091-.026-.142-.059.015.03.04.07.006.091-.027.01-.016-.052-.04-.069-.003.102-.066.158-.123.112 0-.014 0-.027.005-.037-.015.017-.022.044-.047.019l.012-.114-.045.11c-.033-.032-.078.05-.076-.026l.018-.023-.243-.023-.005-.092c-.023.126-.133-.044-.123.11-.047-.084-.18.063-.154-.113-.158-.013-.246.152-.438.065-.068-.15-.256-.1-.38-.123-.243.053-.403.105-.654.14-.138-.216-.378.049-.533-.078l-.05.08c-.097-.14-.273.008-.413-.132-.04.033-.06.044-.07.045.006.005.017.02.014.073-.038-.04-.13 0-.114-.104l.01-.01c.017-.103-.133.037-.173-.059l.015.114-.08-.026.025-.02c-.378.215-.502-.155-.858.032.057-.118-.074.055-.062-.078-.065-.175-.16.019-.235.053 0 .008-.002.016-.008.026l-.117-.032c.093-.16-.105.128-.02-.006-.297-.165-.721-.095-1.075-.21l.01.044c-.09-.022-.214.013-.27-.068-.06-.08-.17.084-.2.085-.088.063-.132-.097-.1-.084-.086.008-.189.145-.29.06-.013-.148-.333.082-.306-.078l-.005.014c-.123-.139-.296.024-.428-.108 0 0 .005-.011.012-.021-.136.139-.276.277-.416.412l-.025.547.196.489c.265.02.529.04.791.053.196.093.392.182.59.274.505.061 1.011.114 1.517.158l.123-.107c.273.245.68.046.987.226l.018-.103c.09.002.079.066.099.085.847.056 1.724-.038 2.486.104.075.07.3.031.358.105.25-.13.512-.132.761-.123l-.008.012.115-.024c.006.01.007.02.003.03.129-.099.339-.014.502.02l-.01.01c.942-.02 1.788-.28 2.72-.217.444.13.916-.155 1.42-.069.1.095 1.08-.099 1.16-.16"/>
        <path fill="#C2AA9E" d="M49.224 47.7l-.004.002c.007.044.01.026.004-.002M47.049 46.769L47.056 46.769 47.025 46.709zM48.33 46.57c-.06-.005-.062.006-.051.022.022 0 .039-.005.05-.021M49.69 47.548c.03 0 .015-.025-.008-.052l-.052.016c.02.008.04.028.06.036M49.476 46.974l.005-.036c-.017.01-.015.023-.005.036"/>
        <path fill="#ACA199" d="M25.107 56.114c-.012-.006-.027-.01-.041-.014.034-.011.05-.015.041.014M24.667 55.984c.036.019.112.04.183.057.072.016.148.033.216.059-.05.024-.156.07-.26.062-.1-.005-.191-.075-.14-.178M25.215 56.466c-.076-.005-.152-.016-.228-.034.063-.034.086-.028.114-.01.026.017.056.048.114.044M25.1 56.273l-.007-.083c.036.022.072.038.111.057-.035.009-.069.02-.105.026M27.502 48.853c-.037.013-.077.019-.127.007l.127-.007zM27.896 48.525c.016-.031.022-.054.027-.073.005.022-.005.04-.027.073M27.503 49.166l-.005-.062c.01.021.014.042.005.062M26.866 53.1c-.076.036-.146.07-.196.098-.022-.131.109-.094.196-.098M29 46.7l-.068-.008c.027-.023.054-.038.068.008M29.017 48.47c-.039 0-.067-.005-.088-.014l.018-.019.07.032zM27.61 49.426l.007.005-.047.044c-.01-.029.005-.044.04-.049M28.981 46.115c.032-.032.071-.068.128-.104-.018.063-.076.102-.128.104M27.923 48.443h.003l-.003.009v-.01M28.914 49.042c.015-.029.023-.057.04-.089.014.04-.007.071-.04.09M26.866 53.1c.02-.011.043-.021.064-.031-.008.022-.033.029-.064.03M25.42 55.817c.037-.027.073.005.108.039-.034-.003-.07-.013-.108-.04M22.804 40.27l-.016-.01c.01 0 .014.005.016.01M24.224 41.508c-.003.017-.007.035-.016.056-.023.004-.01-.026.016-.056"/>
        <path fill="#ACA199" d="M27.297 42.46l.024-.007-.017-.14-.025.005.018.141zm-1.785-1.625c-.19-.01 0-.178-.053-.254.162-.003-.005.155.053.254zm2.003 2.622c-.13-.095-.125.156-.23.106l.052.058c-.18-.038.076-.148-.003-.204l.053.037c.127-.02.021-.119.096-.179.08.035.084.22.032.182zm-1.956-2.468c-.13.01-.114-.022-.133-.088.047-.022.114.022.134.088zm1.47 1.91c-.073.064-.154-.056-.136-.106-.095.08-.027.15.005.221-.003.013 0 .031.015.05-.002-.017-.008-.033-.015-.05.008-.04.072-.06.108-.085l.052.011-.032-.109.003.068zm.44 1.312l.11-.146-.073-.104c-.012.084-.023.167-.037.25zm.758 2.202c.008.06.034.071-.079.087-.04.037.029.072-.011.108-.122-.092.056-.12.09-.195-.003-.016-.005-.033-.003-.057.011.022.01.04.003.057zm-.172-.348c-.207.084-.032.26-.08.32-.036-.049-.08-.13-.082-.2-.006-.068.03-.123.162-.12zm-1.773-3.492c-.052-.006-.108.15-.027.191l-.17.075c.093-.074-.023-.194-.024-.216.11-.128.095-.033.22-.05zM23.8 40.296l.026.061c-.005.055-.047.083-.06.12-.045-.048-.07-.164.035-.18zm.488.707c.027.001.055-.002.075-.015l-.014.034c-.056.034-.064.01-.061-.019-.03-.002-.064-.006-.096-.012-.09.082-.052.217-.073.288-.018-.06.018-.18-.084-.169-.014.035-.037.048 0 .075l-.093-.04c.015-.203.13-.177.25-.154.02-.018.043-.035.078-.047.024-.003.018.031.018.06zm-.572-.25c-.066.118-.18.262.005.286.091-.11.053-.137.204-.233-.024-.06-.096-.039-.125-.046.017.041.088.02.04.101-.082.006-.122-.046-.123-.109.024-.043.042-.083.036-.113-.024.035-.038.076-.037.113zm-.223.112l.067.031.058-.19-.124.16zm.907.471c-.088.05-.031.162-.002.171l.002-.17zm.125-.266l-.022-.062-.093.201.114-.139zm.84.784c.023.06.042.122.064.182-.18.123-.1-.12-.188-.152.056-.095.053 0 .123-.03zm1.048 1.29c-.072.062-.326.004-.212-.139.08.065.139.16.212.14zm1.633 3.493l-.024-.157-.002.153.026.004zm.198 1.285c-.402-.079-.282.228-.474.275.134.01.343.106.335-.139.139.212-.258.13.08.258-.027-.1.077-.225.088-.244l.015.121c.247-.07-.125-.186-.044-.27zm-.5 2.523l.12-.005-.126.02.006-.015-.026.001.12-.23-.094.23zm.08.072l-.122.125.12-.05-.242.175c-.067-.148.113-.259.245-.25zm-.034.288c.023-.042.04-.059.059-.064.043-.03.102-.048.166-.02-.079.08-.12.008-.166.02-.027.02-.049.04-.058.064zm-.316 1.605c.029.015.067.024.1.023.018-.014.04-.025.071-.024-.003.017-.035.025-.07.024-.044.038-.049.112-.017.157.073.002.084-.074.136-.089.13.158-.432.246.053.325-.07.03-.24.144-.303.064.065-.114.09-.36.03-.48-.023-.013-.04-.028-.037-.05.014.01.026.03.037.05zm-.38 1.155l.056.052-.032.058-.024-.11zm-.453 1.256c.022-.032.045-.063.065-.095l.1.117-.165-.022zm1.585-3.669c.005-.077.024-.275.03-.246.102.042.038.213-.03.246zm.328-.89l.054-.183c-.096-.007-.069.117-.055.182zm-.163.972l.083-.045c-.023.06-.053.06-.084.045l-.07.037c-.038-.15.014-.065.07-.037zm.285-1.274l-.017-.069c-.069-.09-.293-.14-.047-.21l.047.21c.017.02.024.044.017.07zm-.59.057c.119-.133.215-.126.422-.213.056.168-.207.164-.31.127-.111.086.021.09.035.15l-.146-.064zm.373.077c-.11.09-.258.254-.36.213.197.05.317-.083.323-.132-.006-.03.008-.048.037-.08zm-.42-5.259l-.088.067-.021-.02-.02.132c-.194-.087.017-.289.029-.383.017.07-.152.341.1.204zm.65 4.191c-.16.048-.151.204-.198.306.128.044.291-.049.293-.18.133-.139-.197-.074-.095-.126zm.148-.509l-.011-.032-.098.11.11-.078zm-.274-2.872c-.012.046-.017.07.003.094.062-.039.14-.149.181-.096-.067.064-.05.207-.165.238.091-.152-.254-.146-.02-.236zm-.834-1.994c-.002.011-.005.02-.01.033 0-.009.003-.02.01-.033.029-.125-.174-.052-.034-.22.204-.009.072.14.034.22zm-.32 1.582l-.026.128h-.025c.01-.043.017-.085.026-.126l.024-.002zm.335 1.055l-.125-.015.078-.075c.018.03.033.06.047.09zm-.133 7.384c-.09.01-.003-.063-.003-.093l-.07.12c.038.034.055-.012.073-.027zm1.255-7.654l.006.09c.012.015.02.033.005.056l-.005-.057c-.032-.04-.113-.054-.006-.089zm-2.192-4.357c-.166-.04-.108-.285-.189-.38l-.032.086-.034-.137-.085.082c-.098-.19-.363-.28-.284-.466l-.116.152c-.015-.086-.03-.174-.049-.259v.18c-.198-.14-.369-.495-.41-.527l-.032.067c-.053.002-.045-.054-.06-.099l-.046.101c-.256-.259-.482-.134-.727-.467-.102-.045.027.064-.008.112-.098.031-.16-.115-.157-.17-.073.151.09.21-.09.24-.023-.118-.044.16-.15.04l.078-.208c-.093-.022-.113.124-.212.027-.075-.167.3-.083.108-.258-.114-.064-.498.252-.637.027-.237-.019-.087.336-.299.14l.079.213c-.072.026-.104.131-.18.03.01-.09.003-.219-.05-.262.072.137-.01.158-.093.185-.085.028-.171.062-.125.21l-.07-.049c.006.012-.002.031-.015.042l-.1-.04c.03.07.165.172.017.267-.05-.014-.105-.03-.143-.037-.02.057-.04.093-.063.125-.021.033-.044.061-.063.105-.003.01.01.028.02.043.008.016.02.035.03.051l.066.105.13.215c.023-.07-.009-.143.052-.192.137.014.014.163.165.144l.008-.107c-.012.035-.006.053-.033.05-.067.028-.044-.04-.012-.09.1-.079.157.054.14.143.134.073.148-.159.195-.17-.047.208.216.144.24.278l.027-.142c.189-.055.2.114.227.193l.043-.102c.119.12.413-.108.273.268l.03-.066c.075.018.207.025.186.154.03-.033.075-.069.104-.06-.066.136.06.1.155.15-.026-.075.116-.202.09-.285.25-.038-.026.255.073.343.125-.015.02-.128.05-.192.044.107.196.101.321.115.125.013.216.051.131.232l-.148.022c.002.116.034.147.052.115-.027-.01-.01-.042.009-.073.32.04.075.474.297.602.041-.062.034-.104.078-.145.131.037-.2.328.03.37l.038-.082c.078.015.02.126-.006.135.125-.103.188-.025.264.06.078.083.177.17.381.096-.085.184-.04.47.084.481.221-.014.116-.207.285-.275.055.076-.066.217.064.296-.15.098-.448-.016-.393.247l.099-.024c-.026-.015-.076-.024-.076-.067.047-.119.122-.03.172-.044.035.085.073.168.104.256-.151.116-.197-.04-.248-.027.076.074.2.133.31.2.056.034.107.07.143.113.035.044.053.095.05.154l.054-.052c-.023.3.38-.03.203.29.09.075.163-.127.247.016.023.042-.055.048-.08.051.025.21.201.005.123.246l.167-.12c-.012.131-.088.288-.133.423-.047.138-.066.254.002.328.145-.064.09-.17.18-.256-.076.17-.044.32.015.46.06.14.119.28.078.414-.145-.032-.267.184-.41.074.181-.09.037-.12.038-.2-.194.123-.108.23-.018.328.094.098.18.192-.002.253l.159-.003c-.015.04-.113.15-.171.101l.148.22c.099-.104.323-.346.146-.368.146-.109.128.08.3-.026-.216.226.128.083.113.275-.12-.02-.184.04-.236.102-.052.064-.09.132-.143.137.049.05-.035.191-.105.248-.002.1.196.31.13.48.066-.067.15-.173.293-.179-.073.09-.065.177.104.182.277-.32-.39-.063-.215-.34.183-.085.215-.163.253-.309.116.048.159.014.293.023-.188.113-.178.222-.157.34.027.115.078.24-.012.356-.111.1-.363.044-.404.25-.043-.058-.082-.114-.127-.169.117.184-.116.05-.157.204l.128-.065c.026.094.005.13-.09.184l.2-.084c.026.052.053.15-.066.15.05.013.09.018.123.018-.032.01-.054.034-.046.096.023-.036.009-.062.069-.063-.046.235.22.058.195.206.049-.022.104.022.126.077-.317-.013-.372.273-.55.334h.004c-.044.06-.096.12-.146.178.032-.036.113.013.139.074v-.01c.04.067.35-.038.236.14l-.102.086c.012-.015.059.007.082.02l-.099.09c.14.097.085.166.01.231-.073.067-.165.131-.11.234-.015-.057.022-.13.11-.08.028.04-.016.087-.066.106l.037-.002c-.085.102-.167.201-.26.306.113-.006.16-.2.26-.087.131.082-.042.151-.068.212-.078-.027-.125-.159-.195-.05.038.022.096.153.166.114-.11.102-.198.266-.367.338.027.042.073-.003.088-.018l-.021-.014c.063-.062.21.038.159-.124.27.05.028.223.033.355l.23-.156c.143.212.084.41-.017.595-.105.184-.258.352-.305.517-.056-.12.044-.179-.165-.223-.152.176-.102.162-.202.35l.015-.013c.076.134-.168.215-.006.338.128-.009-.061-.179.168-.113-.03.084-.061.167-.095.25.162-.038.095-.25.155-.338.008-.074-.072.132-.212.054.077-.234.24-.245.489-.305.18-.029.134.152.12.197-.282.087-.454.276-.424.544l.13.186c-.194.067-.482-.085-.515.134l.143-.02c.034.062.038.098.03.12.122-.057.262-.119.386-.17.22.21-.248.305-.363.457.037.003.07-.053.142-.047-.018.141-.13.252-.252.347-.123.095-.258.172-.319.26.078.131.142-.129.29-.019-.106.077-.015.256-.178.215.235.053-.095.243.198.14-.079.42-.498.733-.84.97.07.026.116.061.145.104.04-.058.102-.12.178-.165.074-.047.162-.077.253-.069.051.148-.255.105-.212.165.078-.007.125-.09.227-.028.047.182-.157.136-.226.195l-.02-.074c-.145.066-.252.028-.334.012-.082-.018-.139-.015-.203.104.041.17.087.08.223.197-.049.002-.075.077-.119.14-.04.064-.099.115-.186.065.043-.04.082-.083.12-.128-.062.026-.113.054-.164.077-.049.025-.098.041-.148.038.03.027.058.055.087.052-.108.011-.207.086-.3 0 .02.06.042.12.06.182.02-.099.145-.197.232-.13.082.148-.134.168-.206.21.177-.057.3-.044.415-.045.107-.004.21-.027.279-.185l-.08-.005c.022-.12.099-.172.193-.216.093-.043.192-.08.242-.149.002.061.052.112.091.113.028-.099.063-.187.107-.27.041-.083.085-.163.134-.242.093-.16.191-.325.24-.525l.223-.027-.127-.068c.026-.205.2.047.241-.075-.02.045-.037.026-.075.02.244-.142-.064-.17.026-.268-.162-.005-.151.2-.313.065.242-.136.29-.49.621-.396.03-.44.389-.856.523-1.185-.043-.063-.053.015-.095-.017.232-.075-.003-.48.168-.433-.027-.077-.146-.139-.189-.169.107-.062.172-.153.226-.253l-.069.065-.021-.014.098-.094.01.008c.122-.256.15-.576.398-.777-.146.115-.2-.085-.284-.034.302-.059.377-.356.401-.606-.058-.012-.1-.04-.152-.022l.142-.124-.075.006c-.002-.138.088-.263.166-.383.08-.118.14-.232.084-.33-.047.106-.105.098-.201.095.03-.19.053-.369.165-.587-.019.011-.04.017-.06.016-.018-.06.052-.127.09-.186l-.142-.017c.073-.113.008-.264.128-.399-.148-.055.143-.334.076-.497.034-.063-.162.137-.155-.034.309-.035.005-.223.332-.254l-.134-.146.163-.045c-.322-.105.125-.212.006-.402-.034.015-.041.037-.067.03.026-.067.026-.216.125-.114-.014-.103.008-.474-.142-.286.093-.026.035.133.01.2-.143.011-.111-.152-.27-.166.016-.008.037-.03.058-.05l-.09-.007c.03-.053.047-.106.053-.156.005-.049.002-.096 0-.142-.002-.093.003-.18.087-.272-.046.001-.085-.024-.09-.093l.174-.043c-.015-.069-.037-.136-.056-.205l-.227.16c-.11-.204.134-.438.12-.636-.15.021-.152-.073-.156-.185-.005-.11-.01-.24-.16-.27l-.029.166c-.023-.157-.09-.229-.145-.3-.056-.07-.107-.142-.114-.295.093.094.125.148.18.207.052.062.136.124.31.256-.119-.152-.146-.31-.17-.47-.023-.159-.064-.309-.215-.425-.052.052-.058.146-.16.104.111-.125-.139-.278.043-.315-.104-.064-.261 0-.311-.044.01-.135.02-.27.027-.41l-.024.027c-.331-.147-.407-.408-.482-.689-.034-.14-.067-.286-.125-.418-.055-.132-.133-.255-.26-.34l-.067.068.017-.202c0 .148-.125.036-.195.083-.023-.142-.053-.279-.084-.42-.068.05-.197.191-.109.235z"/>
        <path fill="#ACA199" d="M24.54 41.642c-.035-.01-.05-.026-.056-.045.02.01.04.024.056.045M27.453 46.895c.032-.003.05.006.063.02-.02 0-.04-.003-.063-.02M27.412 47.154v.009l-.01.01.01-.02zM25.39 55.646c-.127-.1.021-.042.052-.071-.029.026.022.119-.052.07M25.81 55.618c-.053-.013-.1-.008-.143.014.018-.023.05-.032.142-.014M25.551 55.763c.031-.069.072-.107.116-.131-.025.036-.019.104-.116.131M26.35 54.81c-.108.004-.124.119-.124.119.05-.243-.177-.052-.245-.077.101-.101.206-.038.368-.041M26.544 54.556c-.01.022-.018.045-.015.067-.01-.031-.002-.051.015-.067M26.503 54.435c.056-.063.166-.042.256-.042.024.126-.159.108-.215.163.024-.054.061-.1-.041-.121M26.895 51.903c-.017.015-.028.059-.086.043l.036-.131c.05-.043.046.059.05.088M27.305 51.49c.038-.104-.126-.087-.077-.133l.194.057-.117.076zM28.28 51.812l-.028.027c.006-.011.01-.023.017-.035l.01.008zM27.24 50.927l-.236.021c.077-.076.252-.036.236-.02M27.187 50.485L27.105 50.532 27.215 50.351zM27.4 50.019L27.356 49.993 27.436 49.873zM27.048 44.832c.081-.048.13-.016.162.034.032.052.052.12.087.14-.238.054.01-.195-.249-.174M24.736 41.705l.12.173c-.167-.056-.031-.029-.12-.173M57.733 56.095c.007.012.021.017.032.026-.037.002-.053-.005-.032-.026M58.26 56.134c-.077.043-.163.064-.257.065-.093 0-.18-.026-.238-.078.06.001.165-.03.251-.049.091-.018.16-.02.243.062M57.797 55.73c.026.03.056.06.088.083-.032.03-.046.016-.053-.008-.01-.024-.013-.054-.035-.074M57.794 55.948l-.021.08c-.022-.028-.04-.064-.055-.096.025.006.051.014.075.016M54.01 48.953c-.036.021-.074.035-.126.03l.125-.03zM54.367 48.545c.012-.034.017-.059.02-.079.006.023 0 .043-.02.08M54.08 49.306l-.02-.068c.016.021.024.045.02.068M55.384 53.307c-.037.079-.069.153-.089.209-.1-.094.025-.149.09-.209M55.672 46.993l-.063-.024c.032-.01.061-.014.063.024M55.48 48.425c-.04.002-.068 0-.09-.006l.015-.018.074.024zM54.248 49.562c.003 0 .005.002.008.003l-.035.06c-.016-.027-.007-.047.027-.063M55.85 46.562c.04-.012.09-.021.153-.022-.039.035-.106.04-.154.022M54.385 48.457h.003l-.002.01v-.01M55.431 48.914c.01-.026.017-.05.03-.08.017.032-.002.06-.03.08M55.384 53.307l.03-.066c.007.023-.008.045-.03.066M57.263 56.054c-.048-.03-.03-.077-.01-.123.011.035.015.075.01.123M59.598 39.517l.02-.01c-.006.009-.014.01-.02.01M57.816 40.574c-.017-.005-.036-.011-.056-.023.002-.026.031-.008.056.023"/>
        <path fill="#ACA199" d="M57.17 43.631l.014.021.116-.04-.015-.022-.115.041zm1.167-1.7c.013-.18.165.02.237-.015-.002.15-.142-.028-.236.014zm-1.914 2.178c.015-.144-.196-.042-.204-.148l-.025.066c-.055-.165.164.003.172-.084l-.005.06c.08.096.113-.027.198.014.01.077-.142.148-.136.092zm1.768-2.154c-.008-.124.023-.104.085-.115.02.047-.02.104-.085.115zm-1.51 1.55c-.084-.047-.012-.159.044-.153-.108-.067-.147.016-.197.07-.012.001-.026.01-.04.028.017-.006.029-.016.04-.029.04-.006.081.046.119.07l.01.05.082-.06-.057.023zm-.895.92l.182.01.043-.11c-.074.033-.15.065-.225.1zm-.744 2.078c-.014.055.005.075-.105.047-.053.02-.003.074-.055.093-.075-.129.1-.087.16-.14.005-.015.01-.03.021-.05.002.025-.007.038-.02.05zm-.01-.373c-.23-.027-.14.214-.208.247-.012-.059-.018-.155.007-.22.03-.062.09-.093.201-.027zm1.719-3.4c-.006-.05-.17-.073-.194.015l-.114-.144c.096.071.19-.07.21-.076.148.081.053.087.098.205zm2.382-2.296l-.067.004c-.049-.022-.063-.07-.09-.094.059-.03.175-.013.157.09zm-.818.282c-.006.028-.01.055-.002.08l-.03-.02c-.022-.064.002-.067.032-.06.007-.03.02-.062.035-.092-.062-.107-.206-.096-.275-.127.067-.01.18.051.195-.054-.03-.02-.039-.045-.076-.014l.069-.087c.198.058.138.171.087.282.012.023.023.05.026.086-.002.025-.033.012-.06.006zm.41-.505c-.096-.099-.199-.25-.287-.07.08.118.117.09.167.261.067-.006.068-.083.084-.11-.045.005-.047.081-.112.012.02-.082.084-.11.148-.093.032.035.066.065.096.068-.026-.035-.06-.058-.096-.068zm-.032-.25l-.054.055.166.113-.111-.169zm-.736.813c-.035-.097-.16-.048-.175-.019l.175.02zm.243.166l.067-.01-.184-.125.117.135zm-.854.792c-.061.023-.12.05-.181.075-.133-.174.116-.113.15-.197.096.053 0 .051.032.122zm-1.11 1.28c-.084-.045-.096-.316.077-.249-.043.1-.119.185-.077.25zm-1.45 3.624l.041-.153-.063.14.021.013zm-.075 1.29c-.4-.11-.288.22-.483.27.133.012.34.108.34-.14.132.214-.261.136.073.261-.026-.102.081-.225.093-.243l.012.12c.25-.065-.119-.184-.035-.268zm.04 2.595l.107-.056-.105.072-.002-.016-.023.012.008-.26.016.248zm.104.031l-.057.167.085-.098-.143.267c-.123-.107-.009-.288.114-.336zm.09.275c.002-.047.013-.07.026-.082.027-.047.074-.088.14-.092-.035.107-.102.06-.14.092-.015.03-.026.058-.025.082zm.52 1.552c.03-.003.067-.018.096-.036.007-.022.02-.042.047-.058.005.016-.016.038-.046.058-.018.056.02.12.072.137.06-.039.026-.106.063-.147.192.054-.215.44.227.227-.041.06-.114.251-.212.224-.01-.128-.137-.338-.248-.405-.026.002-.048-.002-.058-.02.02 0 .038.008.059.02zm1.031 2.274c-.014-.033-.03-.065-.044-.099l.153-.023-.108.122zm-1.005-3.713c-.03-.069-.102-.249-.083-.227.108-.006.13.168.084.227zm-.077-.913l-.01-.168c-.09.027-.023.121.01.168zm.262.91l.053-.077c.008.06-.02.074-.053.076l-.046.062c-.102-.11-.018-.06.046-.062zm-.247-1.2l-.038-.05c-.094-.054-.325-.034-.115-.164l.115.163c.023.011.038.027.038.051zm-.532.251c.064-.164.156-.19.322-.33.11.125-.14.21-.248.212-.073.117.052.074.086.122l-.16-.004zm.376-.066c-.077.113-.155.318-.26.324.197-.037.26-.199.253-.242-.018-.022-.01-.044.007-.082zm.452-4.714l-.11-.015-.002-.028-.103.074c-.082-.186.209-.178.278-.225-.033.052-.34.115-.063.194zm-.519 3.73c-.146.066-.103.206-.126.307.135.01.275-.105.248-.216.1-.14-.21-.03-.122-.092zm.097-.463l-.014-.027-.087.101.102-.074zm.378-2.425c-.032.026-.048.04-.042.068.072.001.191-.036.203.02-.09.011-.142.118-.256.09.15-.066-.15-.227.095-.178zm.7-1.69c-.008.002-.017.005-.03.005.007-.003.017-.005.03-.005.114-.028-.059-.165.157-.117.11.158-.069.112-.156.117zm-1.392.706c-.037.027-.072.056-.105.086l-.02-.018c.035-.029.07-.058.107-.084l.018.016zm-.334 1.12l-.108-.074.107-.035c-.003.035 0 .073 0 .11zm1.666 7.074c-.064.063-.042-.04-.063-.06l.024.123c.052 0 .035-.043.039-.063zm-.542-6.814l-.028.068c.007.015.006.031-.017.043l.017-.043c-.015-.04-.082-.085.028-.068zm1.912-3.468c.005-.153.231-.114.31-.179l-.085-.03.12-.028-.087-.08c.154-.088.218-.324.395-.233l-.148-.12c.079-.008.157-.016.236-.02l-.165-.02c.12-.174.45-.274.482-.3l-.06-.042c.002-.05.051-.032.093-.038l-.09-.062c.252-.179.167-.42.514-.549.06-.078-.064.003-.1-.042-.01-.099.137-.108.186-.086-.12-.117-.212.014-.2-.16.114.015-.136-.09-.002-.15l.172.137c.042-.077-.086-.144.03-.2.17-.008-.002.296.203.19.082-.076-.081-.546.175-.576.108-.198-.267-.224-.004-.324l-.225-.023c.005-.077-.077-.15.053-.178.077.048.197.1.258.076-.154-.002-.137-.082-.117-.172.018-.088.04-.185-.125-.209l.089-.043c-.015 0-.03-.017-.031-.034.035-.027.07-.052.111-.08-.102.002-.273.082-.278-.099.052-.044.096-.086.161-.136-.058-.035-.072-.075-.08-.115-.005-.04-.002-.083-.032-.122-.04.012-.064.013-.093.02l-.082.013-.157.026c-.105.02-.207.038-.31.06.057.046.154.041.166.118-.095.134-.175-.04-.242.12l.105.044c-.03-.024-.054-.022-.034-.05.01-.078.067-.03.099.02.023.127-.139.137-.22.094-.144.115.09.198.078.251-.192-.113-.242.176-.386.167l.133.062c-.015.207-.188.175-.28.187l.09.066c-.161.102-.008.435-.356.232l.06.042c-.04.076-.077.21-.206.17.029.036.055.085.04.117-.125-.084-.114.052-.18.145.08-.02.188.137.276.121.002.257-.258-.057-.362.043.002.131.127.026.19.066-.117.035-.125.195-.148.317-.023.123-.057.217-.239.131l-.019-.153c-.118.004-.151.04-.12.056.013-.028.044-.01.075.008-.049.321-.49.104-.622.358.066.033.11.02.154.06-.026.14-.352-.154-.377.097l.088.023c-.006.083-.13.044-.142.022.12.106.047.184-.023.287-.07.101-.145.223-.018.406-.197-.03-.481.117-.45.246.09.212.234.031.355.173-.05.078-.224.02-.252.172-.15-.095-.14-.442-.378-.27l.059.085c.005-.03-.004-.083.038-.103.132-.006.073.106.102.148-.068.07-.14.14-.205.215-.173-.083-.041-.21-.07-.25-.05.107-.047.264-.063.4-.007.07-.019.135-.041.191-.022.056-.054.104-.108.136l.072.017c-.274.166.23.301-.14.352-.006.125.197.054.137.213-.019.044-.072-.012-.09-.03-.151.16.124.158-.117.26l.201.045c-.114.072-.265.134-.399.204-.13.071-.239.152-.229.265.148.041.177-.08.307-.083-.183.072-.238.23-.286.382-.05.154-.064.314-.17.415-.108-.11-.33.04-.39-.153.204.012.099-.099.143-.18-.227.005-.22.173-.199.325.017.15.06.29-.129.27l.144.072c-.031.034-.167.111-.2.031l.036.307c.137-.082.445-.23.294-.33.178-.043.084.136.284.108-.291.13.083.134-.011.308-.102-.062-.189-.03-.259.017-.069.048-.126.108-.178.096.032.07-.093.198-.176.245-.044.115.116.4.024.577.076-.066.178-.167.319-.147-.088.081-.093.181.072.207.326-.283-.373-.13-.156-.399.195-.05.254-.119.33-.254.099.08.15.058.276.102-.21.056-.24.17-.231.29.005.121.036.247-.072.354-.123.091-.373.003-.42.23-.038-.067-.08-.134-.117-.202.103.222-.12.045-.168.226l.131-.068c.023.111 0 .15-.095.211l.203-.09c.023.06.047.167-.072.17.05.013.089.02.123.02-.034.01-.056.038-.05.107.024-.04.012-.07.072-.07-.05.26.212.058.2.216.044-.026.104.017.133.071-.317.006-.343.327-.512.426h.005c-.041.076-.072.154-.107.232.021-.048.112-.007.154.052l-.003-.009c.056.063.332-.118.265.096l-.08.12c.008-.02.059-.008.084 0l-.073.121c.154.064.128.147.084.24-.044.092-.106.194-.017.28-.036-.053-.029-.143.072-.123.044.031.02.095-.021.134l.033-.017c-.041.137-.084.28-.117.411.096-.05.061-.258.197-.19.153.022.028.158.032.226-.084.01-.184-.095-.2.036.044.006.154.102.2.035-.056.142-.066.335-.184.48.044.027.064-.037.072-.057l-.026-.004c.027-.086.206-.06.088-.188.263-.073.121.195.191.314l.132-.247c.225.128.266.328.26.542-.002.212-.047.438-.004.607-.108-.076-.053-.18-.255-.112-.044.24-.006.198.014.422l.007-.022c.136.078-.024.288.182.304.099-.08-.15-.123.076-.193.02.09.04.178.064.268.105-.124-.064-.268-.061-.379-.033-.069.012.155-.148.165-.065-.25.064-.349.247-.529.14-.117.191.061.206.105-.19.221-.235.486-.05.693l.213.076c-.117.17-.44.222-.325.426l.099-.107c.066.031.091.056.098.08.061-.126.13-.259.2-.374.302.032-.01.387.003.587.03-.02.017-.087.077-.13.078.12.07.277.043.434-.02.155-.055.311-.032.423.148.037.003-.2.186-.229-.021.134.175.188.038.283.194-.143.125.23.235-.059.261.321.273.804.42 1.235.046-.059.094-.094.143-.109-.04-.056-.078-.136-.09-.22-.011-.086.002-.176.053-.25.148.008-.027.265.049.246.022-.068-.025-.144.074-.21.17.024.05.174.078.255h-.075c.005.15-.05.24-.086.317-.034.076-.046.143.078.23.175-.02.086-.082.218-.202-.006.048.061.076.121.108.056.036.105.075.07.168-.045-.03-.09-.062-.131-.097.023.058.058.105.09.15.03.045.06.085.076.134.017-.036.032-.072.021-.099.042.103.151.152.144.28.038-.053.073-.107.108-.16-.084.058-.243-.025-.2-.129.107-.126.172.042.242.056-.118-.086-.127-.207-.136-.294-.01-.094-.02-.153-.146-.192l-.012.07c-.107.001-.145-.078-.164-.16-.019-.085-.016-.18-.06-.23.054.006.114-.03.13-.063-.074-.034-.133-.085-.186-.139-.052-.055-.093-.12-.136-.185-.081-.136-.157-.282-.276-.423l.12-.179-.132.056c-.13-.134.167-.12.108-.216.017.038-.007.041-.035.063.063-.25-.17-.045-.175-.17-.12.113.044.225-.164.262.06-.256-.145-.52.166-.677-.273-.303-.215-.833-.284-1.147-.072-.024-.037.04-.088.038.154-.18-.255-.376-.084-.428-.066-.046-.198-.036-.25-.04.062-.103.077-.21.073-.319l-.027.088-.026-.002.038-.125.013.002c-.022-.266-.132-.556-.004-.83-.08.16-.216.015-.27.095.25-.184.191-.47.112-.693-.057.013-.106.006-.148.042l.09-.152-.066.031c-.047-.11-.005-.243.03-.36.032-.119.066-.224-.009-.29-.022.097-.08.106-.172.13-.014-.168-.029-.327.035-.528-.018.012-.035.021-.058.023-.03-.049.04-.116.07-.169l-.143.002c.06-.104-.019-.23.09-.35-.04-.012-.052-.035-.048-.066.005-.032.026-.07.051-.112.049-.082.11-.173.078-.24.035-.052-.166.108-.156-.037.31-.01.01-.189.347-.183l-.11-.13.168-.015c-.302-.13.149-.147.066-.306-.038.004-.051.02-.073.008.041-.046.078-.154.15-.057.01-.08.126-.339-.066-.245.096.006 0 .106-.041.151-.142-.027-.066-.142-.216-.197.017-.002.043-.014.068-.022l-.086-.032c.045-.034.072-.069.093-.105.023-.035.038-.07.054-.106.032-.069.067-.13.18-.164-.043-.016-.07-.05-.05-.1l.175.038c.008-.054.021-.105.035-.157l-.273.01c.002-.192.317-.237.4-.36-.136-.063-.084-.124-.028-.19.058-.07.122-.145.02-.252l-.113.083c.063-.11.064-.188.067-.263.004-.075.013-.146.104-.235.007.112-.002.161 0 .228.006.068.014.15.085.325-.015-.156.078-.25.154-.347.075-.098.154-.186.13-.34-.072-.015-.14.025-.178-.064.16.02.1-.227.245-.11-.015-.099-.157-.19-.154-.247.108-.047.216-.093.322-.136l-.034-.01c-.058-.305.119-.465.327-.589.1-.065.211-.119.305-.188.092-.069.166-.154.207-.27l-.08-.054.183-.004c-.13.014-.067-.106-.127-.165.115-.037.237-.066.354-.096-.058-.06-.212-.172-.235-.09z"/>
        <path fill="#ACA199" d="M57.618 40.89c.017-.035.036-.049.057-.055-.015.022-.033.041-.057.055M54.141 46.688c.031.009.046.024.055.043-.019-.005-.037-.017-.055-.043M54.022 46.965l-.003.011-.012.008.015-.019zM57.1 56.131c-.03.165-.073-.018-.112-.052.042.035.125-.04.111.052M56.964 55.679c-.012.052-.004.103.023.147-.025-.018-.04-.055-.023-.147M57.151 55.936c-.077-.024-.135-.062-.163-.11.04.03.111.01.163.11M56.337 54.898c-.055.099.051.169.051.169-.207-.165-.124.136-.171.194-.059-.154.04-.216.12-.363M56.224 54.591c.012.021.025.041.047.051-.032-.01-.044-.029-.047-.05M56.101 54.552c-.019-.087.062-.159.121-.229.112.055-.01.187.002.268-.029-.053-.046-.109-.123-.039M54.7 52.255c-.004.022.01.067-.047.085l-.043-.138c.018-.065.07.03.09.053M54.84 51.671c-.02-.112-.153-.017-.135-.08l.197-.045-.062.125zM55.847 51.47l-.012.036c0-.013 0-.024-.002-.037l.014.001zM54.512 51.189l-.2.13c.033-.108.207-.151.2-.13M54.265 50.799L54.212 50.88 54.232 50.66zM54.26 50.26L54.209 50.25 54.239 50.092zM55.039 44.492c.09.03.093.089.076.15-.014.063-.05.13-.04.17-.201-.136.14-.14-.036-.32M57.528 41.091l-.192.121c.074-.172.035-.034.192-.12"/>
    </g>
</svg>
