<svg xmlns="http://www.w3.org/2000/svg" width="84" height="84" viewBox="0 0 84 84">
    <g fill="none" fill-rule="evenodd">
        <path fill="#F2C6A7" d="M84 42c0 23.196-18.804 42-42 42S0 65.196 0 42 18.804 0 42 0s42 18.804 42 42"/>
        <path fill="#DEC0A9" d="M15.419 44.702c-.17.176-.193.326-.182.446.512-.705-.152.203.182-.446M17.618 42.045c.02-.032.037-.064.058-.096-.039.038-.064.072-.058.096"/>
        <path fill="#FFF" d="M68.478 58.85c.053-.104.105-.211.154-.318-.026.089-.07.187-.145.303-.002.005-.006.01-.01.015m-.937 1.49c-.015.002-.03.008-.047.016.089-.108.172-.217.256-.327l-.036.05c-.072.104-.133.195-.172.26m-8.785 3.746l-.04-.014.317-.031-.278.045m-8.098.357c-.053-.025-.073-.056-.072-.088l.21-.005c-.067.027-.116.058-.138.093M18.063 41.936l-.002.01c-.072.068-.143.136-.212.206.041-.06.098-.12.213-.216m1.701-1.382c-.147.105-.293.21-.436.32.136-.124.278-.24.436-.32m.447 25.28c2.748.166 5.684.048 8.681.166 1.442-.073 3.328-.192 4.657-.14 5.587-.175 11.21.096 16.911-.205-.302-.057.014-.162.305-.2l.073.055.445-.137c.427-.023.25.144-.108.173 1.135-.026 2.21-.064 3.279-.098l1.612-.047c.546-.018 1.099-.037 1.666-.064.069-.098.363-.121.65-.147.286-.027.566-.058.596-.161.109.026.01.045-.05.09.787-.126 1.206-.215 1.614-.261.206-.025.407-.04.652-.053l.404-.021c.15-.007.317-.02.505-.032.393-.083.783-.178 1.17-.296.39-.111.774-.248 1.155-.398.38-.152.755-.328 1.124-.521.365-.2.727-.411 1.072-.657.085-.058.17-.122.254-.186.085-.065.17-.126.252-.194.161-.135.328-.268.48-.416.316-.285.605-.598.877-.925.545-.658.986-1.391 1.328-2.15.345-.76.594-1.544.77-2.331.18-.787.29-1.576.35-2.36.064-.784.076-1.564.059-2.336-.01-.387-.025-.773-.051-1.153l-.035-.574-.05-.573c-.034-.388-.09-.771-.138-1.155-.052-.384-.12-.766-.18-1.147-.14-.76-.293-1.516-.483-2.264-.371-1.495-.834-2.966-1.4-4.4-.564-1.432-1.217-2.834-1.954-4.2-.742-1.362-1.572-2.687-2.481-3.973-.197-.156-.394-.338-.582-.543-.186-.206-.379-.423-.572-.647-.098-.111-.194-.225-.292-.337-.102-.11-.204-.22-.31-.326-.104-.107-.21-.211-.319-.311-.108-.098-.224-.19-.34-.276l.117-.005c-.183-.162-.322-.301-.439-.435-.119-.131-.218-.255-.318-.393-.097-.136-.194-.286-.317-.46-.125-.171-.271-.37-.463-.612-.083.062-.354-.314-.353-.067-.203-.095-.294-.274-.398-.476-.1-.203-.224-.421-.472-.603.023-.058-.063.086-.12-.043-.16-.116-.28-.198-.365-.258-.085-.06-.137-.1-.164-.125-.058-.052-.024-.054.01-.074.032-.02.06-.057-.004-.181-.032-.062-.089-.146-.18-.26-.093-.115-.226-.253-.406-.433l-.07-.057-.035-.028-.016-.012-.004-.002-.03-.02-.074-.046-.08-.05-.042-.025-.021-.014c-.003-.002-.01-.004-.01-.007l.005-.008c.035-.054.07-.116.104-.188l.023-.053.116-.22c.069-.153.145-.301.2-.456l.09-.231.078-.234c.056-.155.092-.315.136-.471.075-.317.14-.634.173-.953.08-.636.079-1.27.024-1.887-.051-.6-.161-1.184-.31-1.753.023.139-.073.205-.15-.041.048-.09.049-.191.018-.301-.03-.11-.087-.228-.158-.347l-.109-.183c-.037-.06-.075-.122-.11-.183-.068-.124-.132-.247-.163-.373.07.007.197.218.272.333-.217-.635-.55-1.165-.921-1.648-.184-.243-.386-.47-.59-.7-.105-.111-.209-.23-.316-.341-.099-.1-.197-.203-.294-.31l-.166-.124c-.13-.098-.267-.192-.398-.294l-.197-.155c-.066-.05-.134-.095-.203-.145l-.398-.291c-.133-.09-.269-.174-.398-.256-.13-.083-.256-.162-.384-.223-.255-.124-.487-.236-.7-.273.108-.017-.004-.086-.172-.17l-.272-.13c-.09-.04-.175-.077-.23-.11-.23.013-.473-.041-.735-.098-.129-.032-.263-.071-.4-.115-.136-.042-.277-.08-.419-.122-.566-.175-1.176-.31-1.707-.25l.04-.055c-.778-.063-1.576-.076-2.381-.03l-.604.045-.605.072c-.203.023-.403.06-.604.092-.2.036-.401.076-.602.116-.802.173-1.597.41-2.366.726-.768.314-1.51.707-2.188 1.18-.384.264-.788.527-1.178.833-.2.146-.39.312-.587.474-.098.082-.19.172-.284.259-.094.087-.19.173-.28.27l-.273.29c-.088.098-.17.203-.255.306l-.125.155c-.042.053-.078.108-.117.162l-.228.33c-.07.116-.136.232-.203.348l-.098.175-.086.18c-.057.122-.113.245-.164.368-.047.126-.093.252-.135.378-.055.187-.032.217-.008.238.021.02.045.03.008.183-.18.497-.096-.041-.201.143-.096.52-.26 1.103-.351 1.745-.097.64-.137 1.336-.041 2.012.078.15.155.52.213.379.008.187.042.382.076.582.043.199.11.399.177.604.148.4.354.795.595 1.167.24.373.514.719.79 1.036.276.318.55.612.8.889-.046-.143-.023-.183.046-.162.067.023.178.103.313.208.266.208.626.497.852.603.131.1.182.169.18.209-.002.027-.027.04-.067.042.403.245.73.416 1.056.593.414.22.834.446 1.45.759.542.187.74.094 1.36.368.081.084.206.154.354.218.076.032.157.06.242.09l.13.04.069.02.016.006.006.002.014.003.105.022c.035.005.066.01.098.019.063.015.122.035.15.064.033-.032.078-.058.136-.076.03-.008.063-.015.098-.02l.056-.004.032-.002h.014l.003.006c.014.039.005.109-.023.192-.023.084-.066.18-.116.263-.074-.04-.149-.067-.23-.083-.005.038-.008.077-.017.127l-.008.038-.03.104c-.021.072-.036.145-.056.218-.078.292-.15.598-.221.912-.139.63-.243 1.306-.295 1.995-.053.69-.049 1.397.027 2.082.074.686.217 1.35.428 1.953l-.1.216c.315 1.039.685 2.048 1.158 3l-.123-.094-.166-.122-.325-.247c-.216-.163-.422-.332-.64-.473-.428-.288-.85-.543-1.298-.651l.03-.124c-.21-.081-.439-.171-.68-.27-.245-.09-.5-.19-.755-.3-.127-.053-.254-.111-.38-.167-.128-.053-.255-.11-.377-.167-.248-.116-.482-.244-.696-.375-.3-.005-1.231-.338-.867-.035-.37-.122-.159-.292-.578-.303.137-.012.277-.03.415-.04-.26-.102-.518-.195-.771-.288l-.379-.136-.38-.114-.748-.218c-.25-.06-.5-.116-.75-.171l-.372-.083c-.125-.027-.252-.043-.377-.065l-.76-.122c-.255-.036-.512-.056-.773-.085-.26-.026-.523-.058-.793-.064-.15-.068-.355-.111-.595-.143-.12-.014-.247-.032-.384-.035-.136-.005-.28-.008-.427-.011-.593-.002-1.256.035-1.87.013-.178.043-.39.07-.615.095-.224.03-.463.05-.695.085-.463.068-.899.169-1.134.348l-.058-.113c-.471.085-1.021.208-1.602.362-.58.158-1.189.348-1.788.55-.694.25-.622.422-1.114.72l-.083-.095c-.136.088-.24.169-.323.244-.084.075-.143.15-.194.217-.084.116-.133.218-.19.313-.076.042-.151.085-.226.129-.271.124-.338.219-.71.373.18-.152.334-.312.474-.464.14-.152.256-.311.357-.457-.354.165-.66.42-.93.653-.137.112-.264.22-.389.31-.123.088-.25.15-.372.184-.143.09-.273.18-.389.267-.113.088-.21.175-.287.254-.136.137-.207.256-.198.336-.07.006-.334.18-.147-.058-.101.09-.194.172-.276.248-.081.078-.152.152-.218.222-.064.072-.122.14-.175.208-.028.039-.054.079-.08.119.066-.065.175-.142.25-.215-.023.063-.06.13-.104.197-.04.067-.083.136-.118.197-.053.094-.084.173-.049.218-.142.145-.28.293-.416.444-.098-.052.245-.534-.035-.334l-.171.31c-.055.104-.108.21-.16.315-.058.11-.11.22-.163.333-.462.58-1.505 1.894-2.394 3.339-.89 1.446-4.386 7.268-.566 15.088 1.508 3.087 3.713 3.828 6.461 3.993"/>
        <path fill="#DEC0A9" d="M58.191 18.963c-.003-.018-.007-.035-.014-.055l.014.055M55.644 14.84l.026.028c.076.055.15.109.228.159-.081-.083-.14-.118-.254-.187M38.884 28.658c.024.005.047.008.066.007-.106-.065-.215-.132-.334-.208l.268.201zM16.262 43.91c.125-.407-.21-.029-.382.043.042.095.278-.06.382-.044"/>
        <path fill="#C18966" d="M14.887 45.299c-.02.148.193.004.03.117-.064-.051-.11-.101-.03-.117M47.469 44.871c-.346.035-.53-.146-.707-.347-.182-.194-.353-.413-.647-.449-.057-.02.2-.208.058-.242-.31-.008-.574-.166-.79-.408-.214-.24-.382-.566-.521-.865l.078-.043c-.053-.115-.325.018-.396-.084.03-.043.076-.038.099-.114-.121.113-.215-.069-.327-.002 0-.08.082-.18.075-.275l-.163.11c-.407.241-.353-.29-.693-.254.035-.028.075-.04.082-.087-.245-.007-.462-.095-.674-.202-.216-.099-.425-.22-.642-.3.05-.047.129-.139.147-.216-.125.153-.27.12-.391.085.058-.2-.271.041-.336-.124l.033-.033c-.2.128-.071-.183-.274-.009l.023-.17c-.184.22-.056-.204-.205-.125l-.026.052c-.106.018-.072-.127-.16-.125l.009-.032c-.19-.025-.202-.216-.305-.02.032-.187.187.017.229-.258-.31-.049-.598-.143-.87-.27-.135-.062-.267-.132-.398-.2-.134-.066-.267-.132-.4-.196-.022-.109-.05-.152-.026-.234-.072.014-.22-.06-.316.02.02.003.014-.12-.01-.145-.062-.123-.207.17-.273.03.068-.034.112-.092.13-.174-.16.11-.275.038-.406.04.032-.026.067-.035.09-.1-.198.127-.201-.133-.356-.064l.09-.1c-.11-.217-.154.224-.265.076.05-.02.057-.073.084-.119-.226.16-.416-.01-.582.01.015-.014.025-.047.025-.047-.16-.029-.292-.156-.493-.123-.04-.076.129-.285-.048-.3-.083.243-.308-.003-.312.306-.06-.045-.136-.11-.212-.158-.076-.048-.153-.072-.213-.046.094-.073.033-.32.155-.304l-.04-.176c.048-.095.08.063.094-.07-.061-.01-.263.032-.303-.024-.158.115-.343.364-.525.341.11-.07.036-.286.105-.31-.13.131-.256.263-.382.395-.06-.007.045-.2-.057-.162-.014.068-.062.098-.102.144-.015-.033-.257 0-.215-.25 0-.105.108-.028.067-.132-.108-.025-.135.057-.244.032l.007-.033c-.063-.056-.236.05-.193.205.047.021.018-.152.073-.062-.087.13-.22.136-.326.112.046-.03.057-.097.09-.163-.192.157-.355.173-.534.225-.03.117.108-.202.118-.134-.171-.205-.474.144-.595-.13.032-.016-.02.171-.014.137-.096-.036-.058-.206-.135-.156.013-.1-.088.016-.16.033-.047.066-.008-.053.053-.052-.055.036-.181.065-.317.08-.137.011-.283-.009-.38-.099-.006.068-.167.227-.214.212l.04-.154c-.031-.1-.166-.01-.156-.147-.132.175.43-.102.266.025-.018-.137-.234.22-.174.011-.1-.009-.218.154-.295-.007.025.03.109-.206.027-.207-.146.007-.05.067-.171.105l-.08.06c-.022.152-.124-.033-.09.143-.004-.128-.212.061-.173-.193l.039-.198c-.063.01-.121.202-.177.287-.006-.02-.02-.062-.013-.094-.036.307-.144-.038-.236.193-.12-.118-.322-.038-.372-.235-.104.088-.198.196-.306.125.023-.027.053-.035.063-.102-.067-.093-.088-.012-.154.035.017-.045-.135-.187-.213-.297-.102.092-.07.258-.082.36-.086-.306-.275.193-.387-.083.033-.042.143-.148.06-.226-.093-.305-.18.225-.326.084l.04.251c-.068-.155-.207.152-.2-.106-.045.093-.173-.078-.148.167-.122-.1-.265-.058-.396-.049-.132.01-.254-.01-.345-.222-.03.044-.12.01-.091.135.067.131.07-.105.1-.013-.031.01-.032.078-.032.111-.078-.049-.138-.062-.086-.272-.18-.136-.131.432-.346.356-.002-.103-.022-.139-.08-.115l-.095.187c-.138-.023-.105-.22-.128-.39-.07.038-.16.041-.175.172l-.117-.204c.085.147-.046.111-.073.16l.027-.048c-.023-.07-.1-.012-.14.015.027.105.118.134.167.157-.025.082-.084.073-.12.17-.008-.17-.133-.102-.193-.11-.071-.026-.05.161-.068.158-.016-.087-.11.002-.078-.127.017-.03.064.076.088-.006-.053-.057-.074-.209-.144-.085-.054.094.073.326-.071.244.026-.047.02-.116.036-.18l-.135-.064.022.153c-.022-.036-.014-.05-.025-.07-.006.166-.172.083-.164.268-.057.027-.146-.08-.206-.087l.008-.015c-.088-.076-.168.005-.203.12l-.005-.035c-.04-.002-.124.041-.151.14-.121-.093-.163-.56-.225-.348-.098.028-.086.314-.025.4-.197-.057-.328.235-.55.047-.006.067.02.1-.021.15-.133.008-.251.09-.371.142-.12.051-.24.078-.386-.034.052-.085-.043-.149-.071-.232-.018.151-.118-.112-.065.12.05.13.066.197.153.227-.062.06-.148.107-.235.13-.085.023-.17.02-.232-.027.062.047.045.098.027.15-.064-.213-.184-.205-.238-.103l.036.132-.101-.11c-.017.051.066.275-.06.186-.022-.047-.046-.095-.075-.125-.043.137-.088.358-.22.288l-.148-.153c-.031.036-.048.172.04.197-.197-.046-.3-.014-.416-.149-.047.25-.16.416-.295.544-.137.126-.303.2-.451.266l-.04-.094c-.121-.043.044.178-.043.144-.02-.098-.16-.153-.152-.29-.163-.035-.062.232-.111.31.053.122.017-.106.084.05.01.046-.202-.007-.12.18-.066-.055-.117-.195-.143-.275l-.018.124c-.2-.156-.018-.476-.245-.679l-.05.066c-.165-.148.055-.308-.143-.276-.023.128.064.416.169.457-.115.132.173.454.016.527-.102-.078.105-.094-.007-.22-.154-.098-.1.16-.19.15.109.022.155.233.13.291-.123-.034-.05-.193-.166-.144.043.11-.007.245.118.261.102.247-.146.006-.093.214-.134-.134-.121-.429-.286-.434.113.14-.012.294.192.478-.072-.015-.154-.13-.181-.243-.126-.05.028.376-.19.095l.08.166c-.052-.036-.105-.054-.192-.114-.06.037-.038.326-.191.096-.003.035-.133.117.026.237.142.038.008-.177.199.003-.176-.134-.096.1-.097.19l-.07-.08c-.001.052-.073.077-.022.182-.016-.064-.07-.115-.105-.12l.069.151c-.056.141-.194-.21-.27-.097l.005-.159c-.002.034-.128-.06-.148.017.07.133.142.3.196.404-.014.095-.127-.112-.088.052l-.038-.199c-.018-.047-.198-.153-.271-.089-.018.08.042.306.168.31-.036.03-.145.003-.183-.105-.053.11.112.115.096.245-.092-.053-.274-.086-.421-.145l-.084-.257-.052.044c-.061-.21-.131-.087-.228-.279-.057.006-.054.1-.053.17.319.164.186.446.417.65-.076.178-.582-.483-.4.002.076.037.17.27.19.127-.101.052.154.277-.024.274-.016-.16-.288-.154-.311-.384.063.081.11.002.107-.035-.113-.054-.201-.233-.287-.15-.032.07-.1.143.02.247.124.125.066-.088.155.072-.058.14-.261-.034-.087.227.047-.077.188.037.27.124l-.022.121-.067-.096c-.173.053.115.183-.014.271l-.214-.108c-.115-.165.22-.102-.026-.31-.082.065.012.205-.115.216-.005-.034.01-.062.004-.097-.032.02-.365-.25-.29.03.017.123.07.094.156.178-.09.144-.026.267-.083.357-.161-.173-.141.126-.243-.122.14.05.283-.137.163-.332-.245-.147.12-.069-.058-.29-.1.094-.295-.099-.441-.206-.036.02-.008.1-.002.136.113.127.144.087.273.204-.135.084-.164.26-.094.43-.097-.018-.214-.14-.186-.196-.086.168-.223.306-.372.41.284.086-.07.19.156.273.107-.033.308.031.373.147-.05.032-.092-.077-.153-.096.073.148-.26-.063-.117.14.03-.182-.244-.234-.396-.39.02.17-.12-.1-.192-.003.022.173.012.348-.03.483-.267.016-.241.351-.317.477-.135.007-.313-.17-.393-.119-.05.091.26.076.089.145l-.034-.038c.026.07-.285.154-.006.37l-.204-.174c-.035.011.003.065.016.1-.075-.044-.16-.054-.185-.123-.208-.01-.075.19-.116.282l.168.018c.025.212-.166.241-.197.415l-.134-.074.037.132c-.121-.089-.247-.047-.16.056-.072-.134-.15-.272-.217-.409.116-.024.126.157.283.185.135.025.173-.13.055-.225-.044.046-.015.065.01.132-.197-.08-.146-.159-.25-.268-.006.034-.086.044-.03.081-.062-.104-.044-.17.002-.268.039.104.134.03.174.083-.16-.097-.164-.219-.05-.308.235.03.008-.285.14-.388.129.154.218.3.238.418.129-.03.049-.092.179-.123-.096-.113-.266-.258-.27-.41l.122.07c.003-.134-.17-.248-.057-.35.193-.174.347-.379.475-.52l.115.077c-.087-.132-.06-.223-.006-.3.054-.076.126-.144.119-.242.252-.106.242-.495.505-.429.1-.199.203-.379.32-.55.117-.173.26-.322.44-.459l.085.2c-.045-.164.117.051.152-.024-.175-.058-.067-.232-.106-.359.255-.013.329-.313.377-.538l.094.104c-.025-.315.286-.276.488-.375.055.031.167.112.21.061-.04-.254.02-.279.083-.5.106-.076.313-.149.47-.15.112-.273.313-.424.517-.57.21-.139.427-.267.606-.473l.112.127c.134-.27.377-.412.624-.514.246-.109.496-.18.653-.349l.075.275c.154.026.245-.189.138-.36.155.03.257-.252.42-.069.145-.002.107-.184.2-.258.295.008.378-.055.606-.187l-.067.004c-.007.067.03.182.097.18.065-.106.355-.039.16-.329.318.095.57-.342.899-.165-.045-.084.015-.119.027-.185.235-.063.523.05.675-.143.048.037-.024.166.074.154.049-.047-.026-.117.032-.184.349-.258.813.01 1.15-.094.594-.283 1.267-.264 1.868-.338l-.002.067c.092-.135.217-.076.332-.033.117.043.225.071.299-.125.05.063.185.026.153.157.078-.094.193-.054.315-.02.122.035.252.07.369-.047-.021-.007-.034.006-.058.036.117.075.227.062.34.048.113-.013.227-.025.349.047-.026.03-.073.048-.083.115.089.133.24-.277.276.051.054 0 .048-.16.013-.153.267.08.543.088.829.066.142-.01.287-.027.43-.042.146-.015.288-.016.43-.015.374.252-.051.547.296.352.016.066.037-.12.03-.053.137-.073.132.387.242.231-.002-.203.073-.102.096-.22.222.16.233.356.449.242l-.033.101c.276-.247.5-.039.76-.336l.235.035c.077.013.153.03.23.043l.46.082c.306.052.614.097.913.167.3.065.602.13.903.201.295.084.589.173.88.271l.836.36.419.171.209.086c.069.03.137.063.206.094.272.127.545.26.812.401.136.07.264.152.393.236.128.084.254.171.379.263.12.382.143.378.469.437-.032.033-.053.031-.056.08.125-.19.2.093.333-.08.366.27.763.417 1.15.676-.074-.02-.203.117-.122.152l.153-.073-.021.061c.068.004.184-.054.17-.149.137.06.267.126.393.2.127.074.249.154.364.245.229.18.446.377.658.577l.158.15.153.156c.102.104.205.206.309.305.206.201.428.381.653.555.15.246.5.422.758.575.233.401.447.78.708 1.106.25.336.54.628.933.856 0 0-.493.337-.842.191M14.94 45.132c.116.02.214-.041.316.096-.099-.037-.229-.042-.316-.096"/>
        <path fill="#C18966" d="M17.259 43.548c-.024-.023.057 0 .077.006-.012.029.048.11-.014.093.01-.03-.033-.058-.063-.1M17.703 43.105c.07.072.048.227.01.294-.005-.098-.01-.197-.01-.294M18.394 42.957c.095.023.119.065.072.11-.042-.034-.047-.067-.072-.11M18.255 42.77c.03-.037.09-.013.147.011-.063-.059-.036.117-.147-.011M19.345 42.128c.017-.025.01-.132.104-.064-.075-.04-.024.19-.104.064M19.686 41.644c.02-.007.037.004.035-.032.055.014.073.095.058.12l-.093-.088zM29.544 37.859L29.481 37.911 29.488 37.81zM34.29 38.425c.078-.046.021.104.028.12-.058-.004.051-.115-.028-.12M36.948 38.718L36.927 38.713 37.006 38.522zM45.112 30.469c-.022-.06-.165-.064-.057-.062.07.043.12.08.057.062M44.226 41.482c-.543.008-.076-.308-.44-.369-.026-.012.28-.066.203-.087-.432-.044-.243-.335.026-.57l.082-.008c.05-.044-.222-.028-.193-.07.052-.012.078-.006.148-.029-.161.025-.088-.048-.21-.038.06-.026.187-.05.252-.082l-.185.017c-.443.028.006-.143-.231-.176.043-.005.077-.003.117-.017-.285-.074-.263-.24-.385-.364.065-.004.184-.019.255-.038-.194.024-.251-.01-.294-.043.196-.048-.19-.036-.086-.098l.045-.003c-.213-.002.112-.067-.14-.056l.153-.044c-.282.026.138-.069-.008-.075l-.057.01c-.072-.017.067-.049.016-.067l.033-.007c-.081-.045.07-.099-.148-.068.172-.042.087.044.338-.022-.251-.15-.233-.345-.252-.529.087-.03.112-.046.194-.06-.045-.013-.045-.064-.16-.07.005.006.112-.022.12-.033.08-.04-.244-.014-.148-.06.059.01.13.008.212-.005-.174-.015-.151-.059-.21-.09.038.002.06.008.129.001-.198-.024.035-.078-.092-.102l.129.003c.148-.069-.268.004-.181-.053.04.01.09.001.142 0-.236-.028-.163-.109-.244-.15.017.001.052-.002.052-.002-.032-.048.038-.106-.066-.154.056-.025.31-.013.26-.063-.254.017-.11-.084-.396-.037.039-.048.13-.125.043-.15.098.014.31-.038.335 0l.153-.038c.105 0-.034.032.097.016-.011-.017-.115-.067-.074-.086-.16-.027-.453-.049-.488-.104.1.023.28-.026.325-.009l-.492-.064c-.012-.018.202-.009.134-.036-.067.004-.11-.007-.164-.014.03-.008-.064-.078.187-.092.1-.01.054.03.143.006-.003-.034-.09-.034-.093-.07h.033c.037-.025-.108-.068-.247-.04-.008.017.15-.008.079.017-.147-.014-.188-.055-.191-.09.04.011.108.01.178.013-.198-.046-.261-.096-.344-.15-.12 0 .218.02.155.027.165-.069-.237-.142.005-.199.02.01-.17.004-.137.003.016-.033.188-.03.124-.052.102 0-.033-.028-.063-.05-.075-.013.048-.006.06.014-.087-.032-.238-.16-.09-.229-.066 0-.245-.05-.236-.066l.157.01c.095-.013-.012-.056.123-.055-.19-.04.159.14.012.088.133-.009-.248-.073-.034-.057-.005-.033-.181-.07-.032-.099-.026.01.216.034.207.007-.027-.048-.075-.015-.126-.055l-.065-.027c-.152-.007.023-.04-.15-.03.128 0-.075-.072.179-.058l.2.015c-.014-.02-.21-.04-.298-.062.018-.002.059-.005.092-.003-.307-.016.026-.047-.21-.083.108-.038.012-.11.206-.12-.09-.037-.2-.074-.13-.108.028.01.037.02.102.026.092-.018.012-.029-.036-.053.045.007.183-.037.293-.055-.09-.039-.255-.039-.355-.049.303-.009-.19-.107.089-.125.04.015.143.06.222.037.303-.007-.22-.076-.07-.113l-.251-.009c.156-.009-.14-.084.115-.058-.09-.023.086-.049-.158-.065.213-.06-.111-.208.333-.213-.04-.015.006-.039-.12-.047-.14.006.094.037 0 .034-.006-.01-.072-.019-.106-.024.059-.019.078-.036.278.008.158-.038-.407-.1-.303-.16.1.013.139.012.125-.009l-.168-.059c.046-.04.232 0 .403.02-.026-.027-.014-.056-.14-.082l.217-.003c-.157.002-.1-.032-.14-.049l.04.017c.072.005.03-.029.012-.045-.106-.01-.152.012-.185.024-.073-.02-.054-.038-.14-.066.167.027.124-.025.144-.04.038-.018-.148-.045-.141-.05.087.01.02-.035.139-.002.026.011-.087.006-.012.028.066-.006.217.016.11-.028-.08-.034-.33-.039-.22-.068.04.017.107.028.166.045l.092-.028-.152-.023c.039 0 .052.006.073.006-.16-.035-.042-.068-.221-.103-.013-.022.11-.028.13-.045l.013.006c.092-.01.04-.05-.06-.086l.033.006c.015-.012-.005-.046-.091-.075.12-.016.575.078.39.012 0-.034-.27-.096-.368-.098.112-.043-.123-.153.122-.168-.061-.02-.1-.02-.133-.045.075-.077-.146-.22.162-.234.059.037.15.03.237.045-.131-.045.144.002-.086-.049-.137-.025-.203-.039-.262-.025-.065-.067-.05-.148.085-.15-.067.001-.105-.019-.144-.038.216.047.258.015.188-.03l-.131-.03.14.01c-.04-.022-.274-.072-.141-.074.052.008.103.018.142.02-.101-.053-.274-.136-.155-.144l.198.015c-.018-.018-.128-.068-.19-.055.129-.03.15-.063.32-.042-.381-.19-.368-.339-.308-.445l.096.03c.1-.007-.166-.06-.092-.065.09.034.209.03.316.084.115-.015-.153-.099-.19-.14-.126-.038.076.044-.085-.003-.044-.018.116-.034-.076-.093.08.01.219.057.296.084l-.086-.052c.235.03.384.182.67.224l-.022-.032c.209.034.212.122.297.084-.088-.049-.364-.148-.454-.149-.04-.068-.454-.15-.422-.206.118.016.013.055.176.088.164.015-.072-.079-.01-.089-.08.007-.27-.07-.3-.1.1-.004.178.072.209.035-.11-.039-.182-.102-.27-.09-.246-.088.084-.025-.105-.105.18.038.398.163.5.143-.174-.042-.217-.126-.477-.176.055-.004.19.034.29.078.113.006-.292-.157.048-.063l-.172-.062c.059.01.105.01.203.025.009-.022-.214-.147.047-.064-.025-.016.002-.063-.185-.1-.12-.002.122.08-.13.021.208.038-.012-.056-.071-.097l.1.03c-.034-.025-.003-.044-.11-.086.055.027.125.045.153.044l-.15-.062c-.061-.07.274.076.245.018l.107.072c-.022-.016.126.016.085-.02-.137-.054-.3-.126-.406-.169-.053-.045.162.041.027-.03l.157.087c.045.021.239.055.247.021-.042-.038-.232-.139-.321-.13.004-.019.098-.013.195.035-.035-.055-.152-.046-.228-.109.098.018.245.022.389.044l.22.115.01-.022c.178.094.148.035.339.12.036-.004-.024-.045-.071-.077-.33-.067-.413-.2-.704-.292-.057-.09.71.213.284-.014-.078-.016-.286-.126-.217-.056.045-.028-.277-.132-.143-.135.106.077.302.071.456.183-.094-.038-.082 0-.057.017.114.025.286.11.3.071-.021-.034-.015-.068-.165-.119-.163-.06.006.043-.154-.034-.041-.069.21.017-.072-.112.012.04-.16-.018-.271-.06l-.055-.06.106.047c.097-.028-.192-.092-.14-.137l.224.057c.178.084-.115.047.189.153.026-.03-.12-.1-.03-.104.023.018.026.031.05.048.015-.009.417.134.205-.006-.08-.06-.104-.048-.215-.093-.011-.07-.117-.133-.12-.176.215.096.048-.056.254.074-.135-.033-.157.054.043.156.266.082-.054.03.203.144.024-.042.277.061.447.12.017-.007-.05-.046-.072-.063-.156-.068-.16-.05-.321-.115.062-.03-.005-.112-.146-.202.084.015.237.085.244.11-.022-.077.024-.129.094-.164-.268-.073-.034-.087-.254-.153-.068.005-.26-.046-.366-.11.023-.014.11.047.167.062-.128-.084.237.06.029-.059.06.09.304.144.497.24-.096-.086.14.062.155.026-.093-.085-.161-.17-.186-.23.205.031.065-.128.079-.179.11.024.323.145.374.137.01-.03-.25-.092-.126-.087l.04.025c-.043-.039.189-.008-.118-.176l.23.131c.026.003-.025-.032-.047-.05.078.037.153.063.197.1.175.055 0-.068.008-.1l-.148-.052c-.084-.106.07-.07.046-.143l.135.073-.067-.072c.127.076.225.095.123.023l.296.246c-.091-.022-.153-.108-.294-.164-.121-.05-.107.013.02.088.024-.009-.005-.026-.048-.064.192.093.172.114.292.192-.003-.013.06.004.002-.029.084.065.09.09.08.118-.063-.055-.122-.048-.173-.084.166.088.205.14.14.151-.205-.072.095.126.02.138-.162-.098-.288-.186-.344-.245-.1-.016-.01.032-.11.015.122.074.314.178.375.247l-.128-.059c.05.061.238.15.184.17-.096.033-.12.103-.158.145l-.13-.054c.263.15.063.138.17.23-.151.01.066.187-.17.13.052.153.108.286.022.388l-.184-.09c.132.073-.115-.027-.094.005.16.032.188.102.3.16-.166-.002-.03.125.09.217l-.132-.043c.232.132-.004.113-.066.16-.057-.012-.186-.042-.177-.019.204.101.182.113.302.202-.01.034-.08.073-.173.084.268.221.037.296.183.48l-.161-.032c.299.216-.04.302.109.456l-.271-.074c-.093.017.054.1.25.133-.092.017.113.116-.117.09-.06.025.117.071.147.108-.12.051-.104.082-.064.161l.019-.013c-.058-.02-.176-.043-.196-.03.072.041-.09.081.243.118-.203.04.127.2-.143.224.092.01.106.03.166.05-.007.062-.203.101-.058.176-.047.003-.151-.04-.165-.016.03.021.118.02.165.046.149.127-.204.186-.173.288.156.193.044.357.056.524l-.067-.008c.252.078-.271.105.11.183-.064.008-.034.047-.161.027.177.057-.18.11.044.19.008-.005-.005-.01-.035-.018-.152.054.046.124-.092.183-.03-.009-.05-.022-.117-.028-.13.018.28.08-.046.075.002.015.163.02.154.01-.135.142.07.313.138.47-.197.104-.545-.008-.307.085-.063.006.124.008.057.008.089.036-.364.047-.195.074.199-.006.11.018.232.02-.131.066-.313.08-.161.136l-.104-.005c.297.065.139.14.48.191.036.172.098.34.162.504.07.164.135.325.164.49-.027.165.014.326.036.487.025.161.026.324-.038.5-.263.111-.254.118-.132.19-.045.002-.056-.003-.096.01.224-.026.028.057.244.035-.024.13.049.233.072.358-.028-.016-.212.003-.194.025l.148.002-.062.014c.035.01.149.01.218-.018.124.14.087.303.034.473-.057.17-.113.342-.055.49-.076.094.033.178.094.246-.236.3-.41.583-.144.764 0 0-.57.132-.726.066M45.11 30.523c-.104-.045-.172-.048-.295-.14.096.047.207.09.295.14"/>
        <path fill="#C18966" d="M43.713 30.753c.03.015-.047-.007-.065-.012-.004-.013-.087-.061-.03-.045.004.014.053.034.095.057M43.566 30.93c-.093-.042-.147-.116-.147-.147l.147.147zM43.102 30.968c-.086-.015-.128-.036-.115-.06.05.019.072.038.115.06M43.31 31.065c-.005.017-.063.003-.12-.01.08.031-.035-.057.12.01M42.879 31.393c.004.013.075.063-.034.036.078.015-.103-.094.034-.036M42.953 31.644c-.008.004-.026 0-.003.018-.047-.003-.112-.04-.118-.052l.121.034zM42.632 35.395L42.584 35.37 42.683 35.38zM42.586 37.002c.063.021-.095.016-.11.02-.01-.02.125.005.11-.02M43.117 37.837L43.114 37.831 43.319 37.821z"/>
        <path fill="#221E1F" d="M28.19 46.643c-.005.016.037.01.044.013-.01-.028-.057-.012-.045-.013M28.092 46.398L28.046 46.367 28.075 46.395zM28.09 46.31c-.021-.05-.073-.104-.062-.143-.063.04.03.079.016.125l-.015.01.06.008zM28.132 46.028l.005-.008c-.002-.005-.005-.012-.007-.025-.023.017-.032-.02.002.033M28.133 45.897c-.028-.029-.04-.014-.056.014l.037.023c.012-.014.002-.043.019-.037M28.048 45.927c-.021.006 0 .005.02.014l-.034-.027c-.008.01-.03.02.014.013M28.026 45.991c.03.057.073.031.042-.027-.008.024-.009.05-.042.027M27.968 46.218c-.014-.007.008-.05-.014-.042l-.013.028.027.014zM27.994 45.755c.003-.017-.002-.043.017-.056-.014.005-.029.03-.044.042l.027.014zM27.939 45.92L27.944 45.93 28.017 45.963zM27.932 45.57L27.973 45.569 27.908 45.566zM27.917 45.447c-.021-.019-.057-.02-.087-.022.024.008.037.03.038.068.033-.005.025-.049.049-.046M27.89 45.65c.004.003.007.007.01.012.005-.008.022-.026.017-.049l-.026.036zM27.89 45.65c-.007-.015-.013-.024-.016-.028l.016.028M27.852 45.848c.032-.001.038-.032.085-.021-.031-.007-.075-.033-.085.02M27.912 45.73l-.046-.02.012.038c.01-.006.02-.021.034-.017M27.861 45.695l-.017.005.022.01-.005-.015zM27.799 45.499c-.025-.002-.04-.016-.056-.029.009.022.02.043.035.06.013-.007.039-.013.02-.031M27.597 45.318l-.003.008.006-.005-.003-.003zM27.81 45.558c-.011-.008-.021-.018-.031-.027-.005.002-.01.005-.003.007.005.018.018.02.034.02M27.844 45.56c-.011-.004-.022-.003-.034-.003.009.006.018.012.028.015 0-.004.003-.008.006-.012"/>
        <path fill="#221E1F" d="M27.645 45.382l.015.007c-.009-.018-.006-.037-.003-.077-.034-.006-.047.002-.058.009l.055.06h-.009zM27.615 45.494c.032.032.047 0 .08.01-.058-.05.03 0 .013-.059.015.007.025.016.035.025-.005-.014-.009-.03-.012-.044v.004c-.003.005-.004.008-.004.003h-.002l.005-.003c-.02-.016-.046-.029-.07-.04.008.015.024.027.051.051-.039.02-.077.005-.096.053M27.762 45.823c.007.001.023-.004.028.013-.004.018-.017.01-.03.017.016.003.045.015.047-.022l-.008-.002c-.001-.03.025-.09.032-.09-.027.027-.047.05-.07.084M27.676 45.651l.017-.015c.012.033.03.01.046.003-.017-.01-.034-.024-.052-.035-.004.016-.006.031-.011.047M27.642 45.27c-.023.008-.047.014-.07.021l.034.007.036-.029zM27.564 45.219L27.532 45.224 27.537 45.247zM25.516 45.151l.03.03c.014-.017.029-.02.045-.02-.044-.016-.104-.044-.075-.01M25.104 46.36l-.037-.025.023.028c.003-.002.009-.003.014-.004M26.621 44.873l.013.011c.017-.006.036-.013.057-.006-.019-.023-.044-.033-.07-.005M27.26 45.044l-.023-.01c.008.005.016.01.023.018-.001-.004-.002-.007 0-.008M26.105 48.2v-.002c.002-.005-.006-.004-.003-.01l.003.011z"/>
        <path fill="#221E1F" d="M25.012 46.315c.012-.005.03.006.055.02l-.013-.014c.019-.011.039.006.06.016l-.004.02-.006.002c.002.002.004.002.005.002l-.003.017c-.005-.005-.011-.008-.016-.014-.024.008-.046.014-.057.02-.007-.023-.016-.047-.021-.07zm.813-1.167l.027.022.032-.058.003.171c-.025.012-.045.035-.07.05l-.001-.008c-.012-.07-.013-.143.009-.178zm.413-.018c.008.015.004.035.005.052-.033.008-.067.014-.1.023-.02-.066-.035-.13-.033-.157.007.002.103.045.128.082zm.567-.095c.064-.006.014.059.027.05.1.044.135-.12.207-.026.017.064-.036.1-.041.139-.05.002-.054-.059-.088-.065l.03.035c-.02.013-.051.019-.064 0 .008.025.05.041.099.06-.09-.032-.184-.046-.28-.06.026-.053.05-.114.11-.133zm1.25 1.868c.025-.029.053-.057.077-.087-.064-.023 0-.105-.061-.116l.009.03c-.042-.023-.092-.008-.146.01.002-.03.016-.055.016-.084 0-.484-.226-.898-.56-1.176.03-.017.067-.017.063.03.044 0 .118-.106.14-.183-.012.012-.021.023-.065.015-.003.025.027.093-.02.099-.047-.02-.018-.038-.023-.069-.017.05-.093.017-.13.08l.048.006-.017.017c-.084-.07-.168-.139-.266-.188.01-.005.026-.006.026-.02l-.027-.005c-.003-.048.07-.03.05-.063.045-.01.108-.032.14.018l-.024.056c.009-.016-.01-.049-.031-.04.032-.011.023.11.085.058l-.008-.055c.048-.006.126-.032.153.016.018-.063-.013-.002 0-.082-.024.087-.105-.074-.114.03.014-.088-.033-.064-.04-.149-.008.02-.004.042-.037.014-.004.005-.011.01-.016.012l-.001-.002v.002c-.002.003-.003.004 0 .002.006.011.007.024.005.036-.04.03-.096 0-.125.012-.018-.019.018-.016.015-.041l-.043.017c.016-.04-.032-.092.033-.093l-.05-.021c-.02-.034-.058-.06-.09-.052-.021-.017-.074.029-.043.002l-.088.005.002-.012c-.04-.014-.084-.003-.128 0-.013 0-.024-.013-.036-.014.008.005.014.01.02-.005-.021-.02-.04-.03-.056-.035l.03.038c-.03-.005-.06-.005-.088-.032-.03.01-.058.022-.103.007l-.008-.04c-.035.011-.111-.033-.124.007-.047-.105-.181-.003-.245-.01l.007.05c-.043.006-.08.031-.126.064l.017.042c-.032.044-.118.009-.185.038-.001-.017.017-.02.033-.014-.06-.032-.095.005-.124.044-.031.04-.056.08-.106.07-.008.024-.022.026-.04.025.002 0 .003-.003.003-.005-.002 0-.004.002-.007.005-.011-.003-.023-.006-.035-.006.013.005.024.008.03.008-.01.009-.026.026-.04.046l-.034-.034-.003.005c-.028-.002-.001.029.03.05-.005.015-.007.028-.006.042-.06-.051-.03.055-.098.005.012.038-.063.096-.013.164-.008-.008-.015-.007-.008-.016-.023.01-.047.02-.045.05l-.051-.035.025.095c-.047-.002-.072-.005-.086-.06.005.105-.022.063-.004.157l-.03-.026c-.012.02.01.08-.023.072-.097-.003-.14.204-.253.299.115.019-.07.04.012.077-.028-.003-.048.01-.063-.019.002.075-.077.088-.015.155-.028 0-.035-.026-.051-.023.003.008.016.029 0 .032-.018.003-.02-.017-.03-.03-.012.073.068.097.144.119-.046.025-.042.044.005.077-.027.005-.057.021-.06-.022-.006.024-.058.142.006.15-.017.005-.007.032 0 .038-.006.053-.012.057-.008.11l.01-.015c.075.022.018.041.028.083l-.008-.002c-.048.099.027.038-.026.139l.046-.011c.102-.005-.048.088-.001.137l.023-.023c.037.02-.117.108-.123.145-.006.008-.016-.008-.024-.016-.038.097.062-.004.09.051-.03.02-.085.009-.08.052-.018.03.14.08.1.155.02-.02.039-.041.069-.023.024.032-.04.148.048.146-.002.008-.007.013-.013.016.035.02.083.076.13.07-.063.056-.016.088.029.113.044.026.086.045.028.09l.073.074-.013.008c.034.056.08.044.12.035.003.017-.014.02-.02.024.045.088.06.091.167.08l-.023.042c.018-.005.03.033.059.07.028.035.066.076.12.074-.003.005-.01.011-.02.014.062 0 .1.06.145.1.045.038.09.06.137-.018.026-.005.052-.012.078-.021-.08-.036.035-.072.01-.11.033 0 .063.073.025.073-.017.066.088.053.073.11.17.03.34.087.51.074l-.027-.07.056-.005c.018.016.028.053-.013.057.028.038.064-.044.06-.06.086.016-.015.087.009.086l.034-.011-.01-.008c.022-.033.018-.063.066-.072.033.006.026.039.039.039 0 .005.005.005.019-.003l.073-.014-.046-.047c.024-.033.065-.018.015-.067.037.038.103.023.163 0 .058-.03.11-.064.13-.057.019-.059.053-.082.1-.107-.017-.002-.058-.051-.017-.069.064.12.098-.003.188.047-.034-.014-.01-.036.009-.061.019-.029.032-.054-.017-.07.035-.018.035.035.077.038.017-.053.06-.08.103-.114.045-.033.097-.066.123-.121-.013-.013-.045-.013-.052-.047h.106c.007-.024-.072-.072 0-.076-.015-.002-.04-.008-.036-.023.094-.075.13-.189.16-.299.017-.055.033-.11.054-.163.023-.053.056-.105.102-.158-.038.027-.04.005-.036-.02-.01.014-.043-.005-.066-.005z"/>
        <path fill="#221E1F" d="M27.434 45.122l-.04-.012c.018.01.018.022.02.033.007-.01.009-.027.02-.02M27.523 45.54c-.016-.014-.039-.011-.03.011.008-.001.008.007.015.006l.015-.017zM27.375 45.273c-.019.03.005.032.026.04.036-.037.006-.041-.026-.04"/>
        <path fill="#221E1F" d="M27.404 45.318c-.002 0 0-.004-.003-.005v.002l.003.003zM27.22 45.023c.036-.04-.103.017-.027.023.007.017.029-.041.028-.023M27.337 45.346l-.034.026c.005.007.009.012.013.02l.02-.046zM27.22 45.283c-.02-.014-.037-.033-.044-.02l.027.03c.004-.009.01-.01.018-.01M27.262 45.361L27.241 45.344 27.265 45.376zM26.77 45.144c.012-.011.027-.015.024-.031l-.044.007c-.006.016.003.028.02.024M26.189 45.191L26.2 45.187 26.175 45.089zM28.186 46.754L28.209 46.719 28.174 46.74zM28.115 46.684l.064-.007-.057-.021c.003.007.008.023-.007.028M40.166 46.643c-.003.016.038.01.045.013-.01-.028-.056-.012-.045-.013M40.069 46.398L40.022 46.367 40.051 46.395zM40.066 46.31c-.02-.05-.072-.104-.062-.143-.063.04.031.079.016.125l-.014.01.06.008zM40.11 46.028l.003-.008-.007-.025c-.022.017-.03-.02.003.033M40.11 45.897c-.028-.029-.04-.014-.056.014l.037.023c.012-.014.002-.043.018-.037M40.025 45.927c-.02.006.001.005.021.014l-.036-.027c-.007.01-.028.02.015.013M40.003 45.991c.03.057.074.031.042-.027-.007.024-.008.05-.042.027M39.945 46.218c-.014-.007.008-.05-.014-.042l-.014.028.028.014zM39.972 45.755c.002-.017-.002-.043.016-.056-.014.005-.03.03-.044.042l.028.014zM39.915 45.92L39.921 45.93 39.995 45.963zM39.908 45.57L39.95 45.569 39.884 45.566zM39.895 45.447c-.023-.019-.058-.02-.089-.022.026.008.038.03.04.068.032-.005.024-.049.049-.046M39.868 45.65l.008.012c.006-.008.022-.026.018-.049l-.026.036zM39.867 45.65h.001l-.017-.028.016.028M39.828 45.848c.033-.001.038-.032.086-.021-.032-.007-.075-.033-.086.02M39.89 45.73l-.047-.02.012.038c.01-.006.019-.021.035-.017M39.839 45.695L39.822 45.7 39.843 45.709zM39.775 45.499c-.025-.002-.039-.016-.055-.029.01.022.021.043.035.06.012-.007.038-.013.02-.031M39.573 45.318c0 .003-.002.006-.003.008l.006-.005-.003-.003zM39.787 45.558l-.03-.027c-.007.002-.01.005-.005.007.005.018.018.02.035.02M39.82 45.56c-.01-.004-.022-.003-.033-.003.01.006.017.012.027.015l.006-.012"/>
        <path fill="#221E1F" d="M39.622 45.382l.016.007c-.009-.018-.007-.037-.005-.077-.033-.006-.047.002-.057.009l.055.06h-.009zM39.593 45.494c.03.032.047 0 .078.01-.057-.05.032 0 .014-.059.015.007.026.016.036.025-.006-.014-.01-.03-.012-.044l-.001.003v.001h-.001c-.001.005-.003.008-.003.003h-.002l.005-.003c-.021-.016-.045-.029-.07-.04.008.014.024.027.052.051-.04.02-.078.005-.096.053M39.738 45.823c.008.001.024-.004.028.013-.004.018-.017.01-.029.017.015.003.044.015.046-.022l-.007-.002c-.002-.03.024-.09.032-.09-.028.027-.048.05-.07.084M39.653 45.651l.017-.015c.012.033.03.01.045.003-.017-.01-.034-.024-.052-.035l-.01.047M39.618 45.27l-.069.021.033.007.036-.029zM39.54 45.219L39.508 45.224 39.514 45.247zM37.492 45.151l.032.03c.012-.017.028-.02.043-.02-.043-.016-.103-.044-.075-.01M37.08 46.36l-.037-.025c.008.008.016.018.023.028l.014-.004M38.599 44.873l.012.011c.018-.006.037-.013.057-.006-.018-.023-.044-.033-.07-.005M39.236 45.044l-.023-.01c.01.005.017.01.024.018-.002-.004-.002-.007 0-.008"/>
        <path fill="#221E1F" d="M36.988 46.315c.012-.006.031.006.055.02l-.012-.014c.018-.011.04.006.06.016l-.004.02-.007.002c.002.002.004.002.006.002 0 .007-.002.012-.004.017l-.016-.014c-.024.008-.046.014-.056.02-.007-.023-.017-.047-.022-.07zm.813-1.167l.027.022.033-.058.003.171c-.026.012-.045.035-.07.05l-.002-.008c-.012-.07-.013-.143.01-.178zm.413-.018c.008.015.005.035.006.052-.034.008-.068.012-.1.023-.02-.066-.035-.13-.034-.157.008.002.103.045.128.082zm.568-.095c.063-.006.014.059.026.05.101.044.135-.12.207-.026.018.064-.035.1-.04.139-.05.002-.055-.059-.088-.065l.031.035c-.02.013-.053.019-.065 0 .007.025.051.041.098.06-.088-.032-.184-.046-.279-.06.026-.053.05-.114.11-.133zm1.25 1.868c.025-.029.053-.057.076-.087-.063-.023.001-.105-.06-.116l.01.03c-.044-.023-.094-.008-.148.01.002-.03.016-.055.016-.084 0-.484-.226-.898-.558-1.176.028-.017.065-.017.062.03.043 0 .118-.106.14-.183-.012.012-.022.023-.065.015-.003.025.027.093-.02.099-.048-.02-.018-.038-.024-.069-.016.05-.093.017-.128.08l.047.006c-.005.005-.01.011-.018.017-.084-.07-.167-.139-.265-.188.01-.005.025-.006.025-.02l-.027-.005c-.003-.048.072-.03.05-.063.046-.01.11-.032.14.018l-.024.056c.01-.016-.009-.049-.03-.04.032-.011.022.11.084.058l-.008-.055c.048-.006.126-.032.154.016.017-.063-.013-.002 0-.082-.024.087-.105-.074-.115.03.014-.088-.032-.064-.04-.149-.007.02-.003.042-.036.014-.005.005-.01.01-.016.012l-.002-.002.001.002c-.003.003-.003.004 0 .002.005.011.006.024.005.036-.04.03-.097 0-.126.012-.017-.019.018-.016.016-.041l-.044.017c.016-.04-.032-.092.033-.093l-.048-.021c-.02-.034-.059-.06-.09-.052-.022-.017-.076.029-.045.002l-.088.005.002-.012c-.038-.014-.084-.003-.128 0-.012 0-.023-.013-.035-.014.007.007.013.01.02-.005-.022-.02-.04-.03-.057-.035.012.014.022.029.031.038-.029-.005-.059-.005-.089-.032-.028.01-.058.022-.102.007l-.009-.04c-.035.011-.11-.033-.124.007-.047-.105-.18-.003-.244-.01l.007.05c-.043.006-.08.031-.126.064l.016.042c-.032.044-.117.009-.184.038-.002-.017.017-.02.033-.014-.06-.032-.096.005-.125.044-.03.04-.055.08-.106.07-.008.024-.022.026-.039.025l.003-.005c-.002 0-.005.002-.008.005-.01-.003-.023-.006-.035-.006.013.005.025.008.032.008-.01.009-.028.026-.04.046l-.035-.034c0 .002-.003.003-.004.005-.027-.002 0 .029.03.05-.004.015-.006.028-.006.042-.06-.051-.028.055-.097.005.012.038-.063.096-.014.164-.008-.008-.015-.007-.008-.016-.023.01-.047.02-.045.05l-.05-.035c.007.032.016.064.025.095-.047-.002-.072-.005-.087-.06.005.105-.022.063-.004.157l-.029-.026c-.012.02.01.08-.024.072-.097-.003-.14.204-.253.299.115.019-.069.04.012.077-.027-.003-.048.01-.063-.019.003.075-.076.088-.015.155-.028 0-.034-.026-.05-.023.002.008.016.029 0 .032-.019.003-.02-.017-.03-.03-.012.073.068.097.143.119-.045.025-.042.044.006.077-.028.005-.057.021-.06-.022-.007.024-.059.142.005.15-.016.005-.006.032.001.038-.007.053-.013.057-.009.11l.011-.015c.074.02.017.041.028.083l-.008-.002c-.049.099.026.038-.027.139l.046-.011c.102-.005-.048.088 0 .137l.022-.023c.037.02-.117.108-.122.145-.006.008-.016-.008-.025-.016-.038.097.062-.004.091.051-.03.02-.085.009-.08.052-.019.03.14.08.1.155.02-.02.04-.041.068-.023.025.032-.04.148.05.146-.004.008-.009.013-.015.016.035.02.084.076.131.07-.064.056-.016.088.028.113.044.026.087.045.03.09l.071.074-.013.008c.034.056.08.044.12.035.004.017-.014.02-.02.024.046.088.061.091.168.08l-.023.042c.018-.005.03.033.06.07.026.035.065.076.12.074-.004.005-.01.011-.02.014.061 0 .1.06.144.1.044.038.09.06.136-.018.026-.005.052-.012.08-.021-.08-.036.033-.072.008-.11.033 0 .064.072.025.073-.017.066.088.053.073.11.17.03.34.087.511.074l-.028-.07.056-.005c.018.016.03.053-.013.057.028.038.064-.044.062-.06.084.016-.017.087.008.086l.033-.011-.01-.008c.023-.035.02-.063.067-.072.033.006.026.039.04.038 0 .005.004.006.017-.002l.073-.014-.045-.047c.023-.033.065-.018.014-.067.037.038.104.023.163 0 .058-.03.11-.064.13-.057.02-.059.053-.082.102-.107-.019-.002-.06-.051-.019-.069.064.12.1-.003.19.047-.036-.014-.01-.036.008-.061.018-.029.031-.054-.018-.07.035-.018.035.035.078.038.017-.053.06-.08.102-.114.046-.033.097-.066.124-.121-.014-.013-.046-.013-.053-.047h.106c.007-.024-.072-.072 0-.076-.015-.002-.038-.008-.035-.023.093-.075.131-.189.16-.299.016-.055.032-.11.054-.163.023-.053.056-.105.102-.158-.039.027-.039.005-.037-.02-.009.014-.042-.005-.065-.005z"/>
        <path fill="#221E1F" d="M38.082 48.2v-.002c.001-.005-.007-.004-.004-.01l.004.011zM39.411 45.122l-.04-.012c.017.01.018.022.021.033.005-.01.008-.027.02-.02M39.501 45.54c-.017-.014-.039-.011-.03.011.008-.001.008.007.015.006l.015-.017zM39.352 45.273c-.018.03.006.032.027.04.035-.037.006-.041-.027-.04"/>
        <path fill="#221E1F" d="M39.382 45.318c-.003 0-.001-.004-.003-.005l-.001.002.004.003M39.198 45.023c.034-.04-.104.017-.029.023.007.017.03-.041.03-.023M39.315 45.346l-.034.026c.004.007.008.012.011.02l.023-.046zM39.197 45.283c-.019-.014-.038-.033-.044-.02l.027.03c.003-.009.01-.01.017-.01M39.238 45.361L39.217 45.344 39.242 45.376zM38.746 45.144c.012-.011.028-.015.025-.031l-.044.007c-.006.016.002.028.02.024M38.167 45.191L38.176 45.187 38.152 45.089zM40.163 46.754L40.185 46.719 40.151 46.74zM40.092 46.684l.064-.007-.056-.021c.002.007.007.023-.008.028"/>
        <path fill="#F6DFD0" d="M39.471 59.835L39.683 59.684 39.409 59.789zM42.034 58.041c-.06.125-.113.264-.19.386-.057-.016-.129.027-.213.091-.042.03-.086.067-.13.108-.044.041-.089.084-.134.124.074-.052.142-.113.21-.172-.046.055.028.075-.019.131-.087.06-.16.103-.219.15-.06.047-.108.093-.159.131-.102.077-.206.154-.402.192l.015-.02-.12.1-.124.092c-.094.027-.077-.032-.058-.06-.222.161-.394.286-.74.403.161.036.343-.061.515-.174.088-.052.172-.109.256-.151.084-.041.17-.062.252-.058l-.014.02c.072-.058.152-.106.237-.149.083-.049.171-.094.26-.14.086-.047.172-.101.254-.153.083-.054.155-.122.22-.19.036-.05.08-.112.123-.178.043-.065.091-.128.124-.195.068-.133.106-.245.056-.288M38.433 53.35c-.007.002-.014.002-.021.002-.02.045-.007.032.02-.001M39.49 52.813c.018-.029.058-.038.088-.056l-.088.056z"/>
        <path fill="#F6DFD0" d="M42.19 54.773c-.021-.047-.042-.094-.064-.139.032.008.049-.132.136.038.005.029-.01.042-.005.07l.074.062c-.003.082-.088-.01-.142-.032zm-.957-1.254c.093.017.223.089.348.186.147.111.286.23.378.203-.02.033.184.248-.077.07.144.136.178.268.19.375.008.096.01.167.03.234-.221-.424-.513-.796-.87-1.068zm-.284-.173l.017.003c.07.009.123.04.166.095-.057-.04-.123-.065-.183-.099zm-.195-.102c-.421-.188-.892-.252-1.407-.112 0 0-.144.055-.43.132.085-.028.17-.056.248-.09l.154-.068c.057-.023.112-.035.174-.05.061-.012.127-.02.197-.023.07.002.146 0 .227.017.157-.04.346-.041.523-.018.177.022.339.063.459.085-.04.053-.083.094-.145.127zm-2.477.166l.041-.033c-.108-.055-.404.024-.21-.099.258.04.19-.125.502-.09-.066.026-.138.115-.178.162.128-.005.23-.026.33-.049-.136.035-.297.07-.486.11zm-.124.025c-.07.014-.128.026-.206.04.034-.03.087-.056.206-.064v.023zm-1.005.161c.158-.05.326-.093.56-.088.006 0 .003.003.008.005-.174.029-.364.056-.568.084zm-5.575.243c-.091-.002-.19-.002-.277-.003.015-.017.032-.033.058-.041.095-.004.212-.019.313-.005-.07.02-.087.035-.094.049zm-2.23-.087l-.128-.01c.041-.015.088-.026.122-.05.046.02.035.041.006.06zm13.424 1.828c-.092-.45-.24-.892-.463-1.305l.081.059c-.08-.062-.172-.145-.234-.184-.013-.085-.084-.273-.207-.44-.12-.166-.286-.31-.418-.325-.018-.024.031-.01.057-.003-.124-.1-.291-.255-.502-.39-.209-.14-.466-.252-.707-.287-.114.056-.284.005-.462-.006-.087-.012-.175-.008-.252.007-.035.006-.053.034-.081.05.08.017.029.062-.046.108-.075.044-.168.107-.193.138-.04-.028-.072-.038-.086-.052-.011-.015-.017-.026-.024-.037-.012-.021-.025-.04-.103-.077l.075-.002c.009.002.035-.007.058-.009.02-.002.04-.003.056-.002-.02-.032-.049-.065-.076-.095-.069.04-.068.058-.095.08-.023.023-.048.04-.072.057-.05.032-.105.055-.157.075-.111.034-.221.044-.33.047-.105.005-.207.002-.298.015-.091.015-.173.044-.242.108.017-.014.01-.03.028-.044-.216-.023-.337.14-.485.2-.026-.051.078-.102.15-.157-.367.023-.968.247-1.386.201-.138.088.066.096-.08.164-.13-.008-.225-.06-.072-.111-.362-.099-1.163.18-1.715.077-.283.092-.103.12-.543.188.102-.056-.108-.178.153-.191l.03-.06c-.438.006-1.02-.015-1.258.154-.015-.12-.08-.024-.245-.09-.069.014.005.02.033.026-.161.104-.243-.005-.36.011l.041-.02-.317.074c-.052-.016-.13-.04-.142-.077l.002.084c-.17-.003-.081-.11-.293-.09l.044.063c-.133-.04-.349.044-.375-.048-.006-.018.021-.01.069-.012-.206-.133-.543.029-.8-.038l.062.137c-.253.035-.154-.034-.142-.08-.169-.006-.204-.052-.424-.076-.11.027-.06.046-.097.083l-.223-.044.15-.066c-.36.182-.861-.085-1.107.072-.125-.053.125-.07.05-.101-.198-.066-.424-.063-.643-.069-.22-.004-.433-.017-.59-.1-.262-.105-.553-.174-.861-.24l-.467-.1c-.079-.017-.157-.035-.233-.054l-.247-.064.006.04c-.162-.038-.329-.06-.497-.075-.07.044-.189.053-.317.081-.064.011-.13.03-.19.051-.061.02-.118.05-.163.087.01-.032-.045-.066-.002-.099-.212.063-.416.186-.55.203l.053-.062c-.23.091-.483.25-.674.431-.194.178-.323.371-.37.49-.087.136-.137.096-.198.108-.153.233-.201.413-.235.639-.035.048-.072.097-.127.148l.05.126c-.048.1-.079 0-.127.078-.012.215-.06.433-.101.638-.044.204-.082.397-.085.542l.046-.04c.027.12-.035.354-.078.21-.014.147 0 .28.015.401.024.123.063.238.1.355.1.233.197.484.377.839-.05.09.063.24.17.386.12.137.235.273.215.375.069.053.125.106.177.157l.152.133c.096.084.194.142.318.166-.006.019.015.043-.03.014.065.142.475.325.789.413l-.006.058c.154-.054.663.166.806.07.026.035-.07.033-.12.04.064.077.139.083.22.08.082-.002.172-.022.273.014-.022.026.033.07-.015.083.04.016.084.032.13.047.041.014.084.026.13.038.088.025.181.045.279.064.195.038.404.069.623.098.438.063.912.112 1.352.204.247.032-.075-.134.245-.09.089.07-.17.105.033.151.157-.06.209-.04.407-.017-.04.036-.008.066-.15.08.111.062.493-.056.716.053-.01-.037.034-.056.077-.075.34-.086.764.135.797.078 0 0 .117-.013.017-.028.122.007.297.027.265.085.066-.032.123-.08.22-.084l-.053.067c.056-.014.12-.056.175-.062l-.085-.042c.14.06.416-.075.405.055l-.047.003.262.063c.105-.052.212-.103.387-.084.067.136.447.03.672.046l-.01.047c.175-.064.624-.041.544-.063.17-.002.4.03.316.071.14-.026.434-.034.505-.114l.282.108c.163-.172.562.038.572-.14.157.023.123.063.231.09.213-.1.438-.097.663-.095l.008.018c.227-.002.483-.108.798-.145l.078.13c.165-.035.194-.142.355-.13.038.017.003.028-.038.04.153-.044.364-.03.485-.01.226-.127.413-.11.608-.245.2.093-.269.092-.096.18.348.017.685-.1 1.047-.228.036.02-.002.047-.01.079 0 0 .174-.115.325-.248.136-.12.225-.245.184-.303h.008c1.756-.532 3.209-1.454 3.209-3.227 0-.428-.084-.867-.23-1.279.01.016.016.035.026.051.074.117.15.244.197.422l-.045-.055.037.183.025.184-.014-.02c.034.096.068.195.093.294l-.047-.005c.02.069.047.084.056.183l-.06-.032c.096.091.127.466.085.646l-.03.03c.011.074.005.146.005.222-.003.075.003.155-.01.229-.145.193-.017-.32-.148.118-.023-.053-.044-.102-.067-.151-.018.075-.038.134-.056.182-.021.047-.043.082-.064.114-.02.033-.04.063-.058.097l-.06.121c.026-.01.05-.027.072-.044l.05-.05c.029-.025.042-.03.038.035-.057.04-.105.075-.136.117-.032.044-.05.09-.067.14-.033.099-.058.206-.117.322.08-.099.138-.163.138-.27.078-.108.078-.002.128-.066.018-.067.038-.129.05-.194l.096-.005.052-.16.024-.078.016-.082c.079.058.125-.274.169-.12.014-.057.023-.108.036-.155l.038-.134c.028-.085.032-.173.003-.283.081-.147.028.256.063.093.027-.235.024-.468.014-.697-.014-.228-.045-.456-.09-.68z"/>
        <path fill="#C18966" d="M29.454 56.352c-.006-.005-.01.002 0 0M34.246 56.31l.005-.001.007-.05-.012.05zM35.025 56.376l.005.005c0-.012 0-.024-.005-.005M32.476 56.552c-.007-.002-.011.003-.013.009.003-.004.008-.008.013-.01M28.027 56.284s.003 0 .004-.002l-.007-.013.003.015z"/>
        <path fill="#C18966" d="M28.048 56.253c.016.017-.01.026-.017.029.015.03.034.034.055.025.004-.031-.033-.031-.038-.054M25.469 55.905l.01-.01-.01.01M32.555 58.05c-.004.004-.01.006-.012.009.006 0 .01-.003.012-.008M25.86 56.022l.014-.047c-.008.02-.012.033-.014.047M34.258 56.259l.004-.02c-.002.004-.003.012-.004.02M35.741 56.339c.002.015.005.026.008.036h.002l-.01-.036zM39.47 56.52l-.006-.02-.008.038c.008-.005.012-.01.014-.018M36.746 56.428c0-.006.002-.011.001-.017-.019-.014-.063-.011-.119-.002l.004.06.114-.041z"/>
        <path fill="#C18966" d="M38.043 57.635l-.127-.1c.337-.112.519-.023.797-.172l-.012.028c.05.018.022-.248.56-.021l.003.012c.015-.006.01-.03.05-.005l-.097-.054c.044-.041.075-.105.138-.126.017.009.027.032.033.05l.156-.053.065.065c.041-.053-.016-.207.135-.146-.074-.1.051-.082.022-.135.009.012.029.029.046.046.076-.032.213-.097.242-.164l-.062-.026-.136-.064c-.103-.054-.218-.12-.271-.17.114.007.025-.02-.004-.052l-.002.029c-.07-.012-.085-.083-.121-.094l.006.018.002-.01c.006.012.006.02.004.029.004.014.003.026-.015.026l.001-.008c-.024.016-.073.016-.095.015l-.012-.06c-.025.123-.356-.1-.419-.092-.078-.062-.14.047-.227.025-.131.006-.08-.073-.153-.111-.087-.023.028.065-.003.075l-.11-.065c.053-.016.017-.046.002-.067-.084.005-.233-.08-.237.043-.122-.036-.13-.084-.179-.081.02.019.055.032.06.057-.054-.045-.019.015.001.024-.061.063-.389-.154-.382-.023l-.004-.024c0 .1.04.189.001.249l-.038-.037-.042.049c-.037-.026-.025-.055-.027-.067-.071.057-.189.02-.285.023l.14.247c-.09-.05-.253-.15-.256-.062l-.061-.082c-.185-.146-.102.089-.173.047l-.095-.085.081-.008c-.087-.04-.124-.066-.196-.12v.003c.005.003.009.007.01.013l-.011.004c-.003.05-.041.088-.098.093-.082-.002-.135.077-.276-.01l-.019.103-.104-.047-.01-.08c.095-.006.269-.055.389-.078l-.003-.036c-.071.01-.148.056-.197.054-.026-.014-.094-.088-.058-.146l-.035.083c-.237.037-.238.042-.497-.02l.025.038c-.047.028-.093.056-.114-.007-.15.003-.31-.031-.417-.121l-.013.095c-.031-.001-.091-.137-.094-.006l-.065.046c-.044-.003-.065.052-.119.003l-.011-.011.002.008c-.101-.033.008.083-.108.039-.042-.064-.03.12-.087.104l-.065-.128c-.105-.07-.112.069-.255.078-.072-.044-.113-.156-.074-.26-.054.126-.023.082-.102.145-.016-.05-.008-.06.008-.107-.077-.054-.042.049-.098.049-.011.097-.021.248-.038.256l.023.028c-.055.054-.119.082-.191.038v-.048l-.071.029-.008-.061-.104.024.016.016c-.024.009-.104.033-.151.003v-.034c-.134-.101-.236.042-.387.059l.017-.07c-.053-.066-.01.107-.073.075l-.006-.085c-.051.115-.071-.021-.109-.062l.02.11-.071-.022c-.078-.035-.05-.14-.04-.2l-.051.089-.011-.097c-.037.115-.039-.02-.106.044-.006-.037.011-.06-.012-.075l-.109.14.067-.061-.006.143c-.07.11-.096-.014-.145.026l.034-.043c-.082.037-.087-.025-.133-.056.015.027.038.066.004.086-.024.008-.013-.051-.036-.067-.005.096-.064.149-.117.103.001-.014.002-.027.006-.036-.014.015-.021.04-.045.016l.015-.105-.046.1c-.031-.03-.074.047-.071-.025l.018-.02-.228-.03-.002-.085c-.025.118-.123-.046-.119.1-.041-.08-.171.055-.141-.11-.15-.015-.236.138-.415.05-.06-.141-.24-.102-.356-.122-.23.045-.382.088-.619.118-.127-.203-.356.04-.499-.083l-.049.075c-.09-.131-.257.006-.386-.13-.039.03-.058.04-.066.042.006.004.015.019.013.069-.037-.04-.123-.004-.108-.101l.011-.01c.017-.097-.126.034-.162-.056l.013.108-.074-.026.022-.018c-.358.195-.469-.156-.807.016.057-.108-.069.052-.056-.073-.057-.168-.15.014-.22.046-.001.007-.003.014-.008.022l-.11-.03c.09-.148-.101.119-.02-.006-.275-.161-.675-.1-1.004-.214l.008.043c-.085-.022-.199.007-.253-.07-.052-.075-.16.077-.186.079-.085.057-.123-.095-.095-.082-.079.005-.178.134-.271.052-.01-.14-.314.07-.287-.08l-.004.013c-.112-.132-.277.017-.399-.11 0 0 .005-.01.012-.018-.131.127-.264.254-.399.378-.013.172-.023.343-.034.515l.176.464c.249.025.496.048.743.065.183.09.365.18.55.268.474.066.948.125 1.424.172l.116-.1c.253.239.64.05.924.229l.016-.098c.085.003.074.064.093.082.794.066 1.615-.007 2.326.14.067.068.279.039.331.109.238-.117.483-.113.717-.098l-.009.01c.037-.005.074-.011.11-.018.005.008.006.02.002.027.124-.09.319-.005.472.028l-.008.01c.89.002 1.695-.232 2.578-.181.423.12.868-.153 1.347-.085.099.089 1.026-.124 1.099-.188"/>
        <path fill="#C18966" d="M39.388 57.247l-.004.002c.009.04.01.023.004-.002M37.301 56.471L37.307 56.471 37.277 56.416zM38.485 56.235c-.056-.003-.057.007-.046.022.02 0 .036-.007.046-.022M39.821 57.071c.03-.004.014-.025-.01-.048l-.049.02c.02.005.04.022.06.028M39.581 56.548l.001-.034c-.015.012-.012.023 0 .034"/>
    </g>
</svg>
