<svg xmlns="http://www.w3.org/2000/svg" width="160" height="24" viewBox="0 0 160 24">
    <path fill="#FF7866" d="M17.028 16.552c.864 0 1.512-.384 1.512-1.248V1.288c0-.72-.696-1.128-1.512-1.128-.816 0-1.536.408-1.536 1.128v14.016c0 .864.648 1.248 1.536 1.248zM2.316 13.696c1.944-.792 3.864-2.28 4.56-4.272.816 1.896 2.856 3.408 4.584 3.984.96.288 1.56-.048 1.872-.792.288-.672.168-1.416-.528-1.704C10.452 10 8.388 8.248 8.388 4.816V4.36h3.648c.744 0 1.032-.672 1.032-1.32s-.336-1.272-1.032-1.272H1.452c-.672 0-.984.6-.984 1.272 0 .648.264 1.32.984 1.32H5.22v.456c0 3.456-1.752 5.232-4.272 6.408-.84.384-.84 1.176-.504 1.8.312.624.96 1.032 1.872.672zm15.888 8.928c.72 0 1.056-.552 1.056-1.32 0-.696-.336-1.272-1.056-1.272H7.524c-.504 0-.552-.072-.552-.528v-3.84c0-.744-.72-1.152-1.608-1.152-.84 0-1.56.408-1.56 1.152v4.848c0 1.848.888 2.112 2.64 2.112h11.76zm19.8-6.096c.888 0 1.512-.408 1.512-1.272V8.824h2.568c.744 0 1.008-.528 1.008-1.296 0-.744-.264-1.296-1.008-1.296h-2.568V1.288c0-.72-.672-1.128-1.512-1.128-.816 0-1.488.408-1.488 1.128v13.968c0 .864.624 1.272 1.488 1.272zm-3.432-4.704c.408-.12.696-.528.696-1.104 0-.744-.504-1.512-1.272-1.32-2.616.648-5.28.672-7.824.6-.528-.024-.648-.12-.648-.624V4.96c0-.528.168-.624.696-.624h6.072c.672 0 1.056-.552 1.056-1.272 0-.744-.384-1.296-1.056-1.296h-7.248c-2.208 0-2.592.432-2.592 2.4v5.88c0 2.26.678 2.53 2.956 2.543l.212.001c3.888 0 6.456-.072 8.952-.768zm4.824 10.8c.744 0 1.032-.6 1.032-1.32 0-.72-.288-1.272-1.032-1.272H28.788c-.48 0-.528-.072-.528-.528v-3.816c0-.744-.744-1.128-1.608-1.128-.816 0-1.584.384-1.584 1.128v4.872c0 1.807.738 2.049 2.41 2.063l11.918.001zm22.008-8.928c.888 0 1.536-.384 1.536-1.248V1.288c0-.744-.696-1.152-1.536-1.152-.816 0-1.512.408-1.512 1.152v4.224h-3.048c-.72 0-1.056.504-1.056 1.32 0 .792.336 1.32 1.056 1.32h3.048v4.296c0 .864.648 1.248 1.512 1.248zm-15.024-.552c1.92-.72 3.84-2.304 4.56-4.296.84 1.944 2.856 3.264 4.56 3.792.96.288 1.56-.048 1.872-.816.288-.648.144-1.416-.528-1.68-2.16-.792-4.464-2.304-4.464-5.736V4.12h3.72c.744 0 1.032-.648 1.032-1.32 0-.648-.336-1.272-1.032-1.272H45.564c-.672 0-1.008.576-1.008 1.272 0 .672.288 1.32 1.008 1.32h3.672v.288c0 3.48-1.68 5.16-4.224 6.264-.816.36-.816 1.152-.504 1.8.312.624.96.984 1.872.672zm9.168 9.912c4.92 0 7.536-1.728 7.536-4.56 0-2.904-2.616-4.632-7.536-4.632-4.848 0-7.464 1.728-7.464 4.632 0 2.832 2.616 4.56 7.464 4.56zm0-2.4c-2.808 0-4.32-.888-4.32-2.184 0-1.32 1.512-2.184 4.32-2.184 2.88 0 4.368.864 4.368 2.184 0 1.296-1.488 2.184-4.368 2.184zm30.168-1.152c.672 0 1.008-.552 1.008-1.296 0-.72-.336-1.32-1.008-1.32h-7.824v-3.912h3.816c1.776 0 2.352-.696 2.352-2.472V2.2c0-.696-.72-1.08-1.608-1.08-.768 0-1.512.384-1.512 1.08v2.64h-9.264V2.2c0-.696-.744-1.08-1.608-1.08-.768 0-1.536.384-1.536 1.08v8.568c0 1.584.624 2.208 2.328 2.208h3.84v3.912h-7.848c-.648 0-.984.6-.984 1.32 0 .744.336 1.296.984 1.296h18.864zm-5.4-9.048h-8.088c-.456 0-.552-.024-.552-.552V7.312h9.264v2.544c0 .528-.096.6-.624.6zm29.592-.432c1.632 0 2.28-.432 2.28-1.992V1.6c0-.696-.696-1.032-1.584-1.032-.768 0-1.536.336-1.536 1.032v1.536h-8.616V1.6c0-.696-.72-1.032-1.584-1.032-.792 0-1.536.336-1.536 1.032v6.408c0 1.584.576 2.016 2.28 2.016h10.296zm-1.416-2.448h-7.488c-.456 0-.552-.048-.552-.576V5.56h8.616v1.416c0 .528-.048.6-.576.6zm-3.432 10.608c.84 0 1.608-.312 1.608-1.08v-2.88h7.56c.648 0 .96-.648.96-1.272 0-.6-.312-1.296-.96-1.296h-18.96c-.648 0-.936.696-.936 1.296 0 .624.288 1.272.936 1.272h8.208v2.88c0 .768.696 1.08 1.584 1.08zm6.48 4.44c.696 0 1.032-.576 1.032-1.296 0-.744-.336-1.296-1.032-1.296h-10.536c-.456 0-.528-.048-.528-.504v-2.64c0-.768-.768-1.152-1.608-1.152-.84 0-1.584.384-1.584 1.152v3.6c0 1.807.76 2.116 2.455 2.135l11.801.001zm22.536-9.192c.888 0 1.536-.384 1.536-1.272V1.288c0-.744-.696-1.152-1.536-1.152-.816 0-1.512.408-1.512 1.152v3.216h-3.408c-.744 0-1.056.48-1.056 1.272 0 .816.312 1.32 1.056 1.32h3.408v5.064c0 .888.648 1.272 1.512 1.272zm-15.24-.84c1.992-.768 3.984-2.496 4.68-4.512.792 1.872 2.736 3.432 4.56 4.176.912.36 1.584-.144 1.896-.792.288-.672.192-1.44-.552-1.752-2.232-.888-4.368-2.688-4.368-6.456v-1.44c0-.72-.744-1.08-1.608-1.08-.816 0-1.56.36-1.56 1.08v1.56c0 3.696-1.944 5.472-4.392 6.744-.624.336-.768 1.128-.456 1.776.312.624.888 1.032 1.8.696zm15.216 10.656c.792 0 1.56-.384 1.56-1.128v-5.592c0-1.704-.6-2.112-2.232-2.112h-12.024c-.72 0-1.08.576-1.08 1.272 0 .744.36 1.296 1.08 1.296h10.584c.456 0 .504.048.504.48v4.656c0 .744.744 1.128 1.608 1.128zm8.28-13.656c2.592-.36 5.496-1.608 6.648-3.6 1.2 1.992 4.128 3.192 6.768 3.528.912.12 1.44-.168 1.68-.816.288-.768 0-1.584-.72-1.68-2.856-.384-5.376-1.488-5.832-3.504h5.16c.72 0 1.032-.648 1.032-1.296 0-.672-.36-1.272-1.032-1.272h-14.088c-.696 0-1.032.576-1.032 1.272 0 .648.312 1.296 1.032 1.296h5.136c-.432 2.016-2.76 3.096-5.688 3.552-.744.12-1.008 1.008-.72 1.68.24.672.768.96 1.656.84zm6.648 13.44c5.088 0 7.728-1.464 7.728-4.152 0-2.424-2.112-3.84-6.144-4.104V13.12h7.872c.648 0 .96-.648.96-1.272 0-.6-.312-1.272-.96-1.272h-18.96c-.648 0-.936.672-.936 1.272 0 .624.288 1.272.936 1.272h7.92v1.656c-4.056.264-6.12 1.68-6.12 4.104 0 2.688 2.616 4.152 7.704 4.152zm0-2.352c-3.072 0-4.584-.72-4.584-1.824 0-1.08 1.512-1.8 4.584-1.8 3.12 0 4.608.72 4.608 1.8 0 1.104-1.488 1.824-4.608 1.824z"/>
</svg>
