<svg xmlns="http://www.w3.org/2000/svg" width="84" height="84" viewBox="0 0 84 84">
    <g fill="none" fill-rule="evenodd">
        <path fill="#B0D39F" d="M42 0C18.804 0 0 18.804 0 42c0 12.467 5.437 23.659 14.063 31.352.011-2.866.033-5.206.068-5.496.134-.362.031.698.175.276-.103-.486-.05-.905-.14-1.457.047-.267.102-.745.085-1.101.004.097.009.177.035.094.046-.359.217-7.484.211-7.865l.155-.148c.022-.725-.047-1.339-.005-1.856l.021-.012c.047-.518.087-1.032.024-1.537.051-.246.089-.16.143-.516-.097-.025-.068-.258-.034-.536.037-.276.078-.596 0-.797.058-.211.115-.422.177-.632-.071-.175-.011-.851-.008-1.174.025.2.118-.328.161-.721-.024.093 0-.119.028-.405.034-.287.071-.649.063-.857l.048.031.123-.921c.011-.077.023-.151.036-.219.014-.068.032-.132.05-.187.035-.11.075-.19.12-.22.057-.2.08-.365.1-.51.022-.146.029-.273.035-.402l.118-.29c.038-.097.087-.19.131-.285l-.034.108c.065.032.115-.117.172-.312.029-.096.057-.206.094-.306.039-.101.082-.196.13-.266l-.124.172c-.014.039-.03.073-.049.102-.02.031-.041.055-.069.071.035-.059.077-.115.118-.173.043-.123.06-.282.098-.412l.02.145c.042-.107.065-.197.08-.28.016-.083.032-.156.051-.233.011.046.07-.022.143-.134.075-.112.155-.272.238-.395-.14.201-.008-.048-.008-.048-.004-.024.04-.09.112-.187.072-.098.169-.228.297-.365.24-.284.549-.621.793-.949.056-.088.111-.176.063-.185.06-.04.12-.085.179-.136.063-.048.129-.097.192-.15.13-.105.254-.23.388-.327.131-.102.25-.207.362-.282.111-.072.207-.128.273-.151-.278.198-.193.183-.246.264.208-.118.342-.191.459-.263.121-.064.223-.132.368-.247.058-.025.1-.039.132-.046.03-.007.049-.009.058-.006.02.004.004.025-.019.049-.047.048-.118.118-.004.104.357-.134.338-.163.298-.183-.021-.011-.046-.019-.032-.038.007-.009.024-.022.056-.038.033-.015.081-.039.153-.059l.39-.103c.131-.035.268-.057.402-.086.067-.016.133-.026.2-.035l.199-.032c.133-.023.266-.04.397-.056.529-.073 1.05-.122 1.558-.171 1.015-.09 1.964-.149 2.74-.116-.096.029.042.058.009.092.468.006.726-.193 1.094-.091-.096.03-.302.068-.224.092.061-.036.18-.064.33-.092.149-.027.327-.052.506-.077.356-.053.709-.11.821-.192l.045.055.258-.051c.089-.017.175-.04.264-.059l.262-.059.243-.066c.314-.08.582-.169.717-.177-.098.039-.041.028-.022.042.2-.128.401-.219.63-.317.227-.098.479-.208.768-.385.149.036.469-.14.783-.332.313-.19.624-.39.768-.371.715-.407 1.181-.734 1.68-.98.25-.121.515-.228.857-.255.084-.003.19-.002.248.005l.211.02c.144.013.295.045.455.08-.165-.004-.118.035.001.075l.102.03c.038.013.077.024.117.035.081.021.163.039.234.046l-.08-.07c.324.085.757.251 1.176.565l.079.058c.026.021.05.045.076.067l.149.138c.092.105.189.205.266.326.086.113.148.243.214.369l.081.195c.029.065.043.132.066.198.01.116-.015.121-.035.132-.021.012-.039.031-.034.168.042.083.069.165.1.252-.011.041-.017.081-.029.119-.01.038-.022.075-.031.111-.021.073-.034.137-.063.221-.008.08-.027.151-.045.225-.021.068-.043.139-.07.202-.028.064-.058.126-.091.184-.032.059-.067.114-.104.169-.149.219-.331.406-.557.602-.103.024-.143-.033-.4.189-.089.096-.222.22-.379.358-.156.14-.336.296-.506.463-.086.083-.168.171-.244.259-.074.089-.143.179-.196.268-.052.089-.096.178-.121.263-.009.022-.01.043-.015.064-.006.021-.012.042-.013.063l-.009.062-.002.067c-.012-.036-.023-.073-.03-.106-.01.021-.018.045-.021.077-.004.029-.008.063-.005.093l.001.049.008.046c.002.016.006.031.012.044.005.013.008.028.014.04.022.053.052.085.094.117s.103.061.178.087c-.075-.006-.032.066-.069.084.172.022.429.053.701.093.135.021.271.045.396.072.126.028.24.054.33.072.097.045.195.106.289.172.092.072.182.149.257.241.157.182.256.382.326.582l.025-.044c.147.432.168.865.123 1.283-.047.417-.169.821-.36 1.189-.193.367-.458.695-.777.943-.318.249-.681.419-1.04.5-.111.021-.229.04-.348.061-.115.016-.233.036-.354.06-.241.054-.504.091-.772.136-.067.012-.136.017-.204.023l-.207.018-.208.014-.21-.005c-.278 0-.553-.046-.805-.115-.047-.017-.043-.024-.016-.027.027-.002.076 0 .123-.005.094-.007.168-.019.011-.064-.018.004-.038.007-.059.009-.019.001-.04.002-.061.001-.042 0-.086-.003-.133-.008-.094-.009-.197-.02-.303-.05-.105-.03-.215-.066-.33-.105-.113-.044-.226-.097-.342-.148-.46-.217-.903-.507-1.306-.646.109.042.222.083.336.122-.15-.106-.287-.218-.43-.327-.093-.011-.001.073-.233-.04-.417-.305-.458-.391-.781-.599.023-.015.091-.01.091-.035 0-.011-.017-.032-.067-.065-.05-.031-.132-.076-.26-.14l.05.205c-.058-.044-.12-.087-.185-.128-.034-.022-.061-.034-.09-.047l-.089-.041c-.028-.014-.065-.024-.1-.036l-.105-.031c-.069-.023-.145-.039-.22-.056-.075-.016-.146-.036-.22-.051-.073-.015-.144-.032-.213-.05-.135-.04-.265-.075-.373-.135.105.019.16.038.153.017-.021-.056-.153-.086-.318-.11-.165-.018-.359-.041-.507-.079l.09.081c-.236-.016-.303-.049-.357-.083-.055-.033-.098-.069-.289-.085l-.004.093c-.022-.042-.197-.083-.315-.11-.239.018-.477.025-.714.054l.093-.022c-.131.008-.241-.019-.365-.033-.125-.014-.262-.008-.441.053.061.007.226.008.076.027-.094-.014-.173-.021-.239-.018-.067.003-.121.009-.164.013-.086.008-.131.005-.152-.06-.263.107-.711.203-1.201.32-.49.122-1.002.297-1.414.508l.029-.087c-.055.019-.023-.011.012-.043l-.012.043c.029-.019.057-.034.08-.048l.066-.034c.036-.021.061-.039.077-.054.031-.03.027-.05.013-.068-.031-.034-.104-.056-.01-.129l-.15.078c-.046.023-.087.045-.122.069-.07.046-.126.085-.171.117-.088.066-.137.103-.171.144-.036.041-.061.076-.106.127-.023.026-.051.055-.088.092-.036.037-.084.076-.137.135-.515.295-1.027.868-1.378 1.471-.357.604-.581 1.209-.774 1.559.039-.17.026-.215-.011-.184-.018.016-.044.051-.071.099-.027.047-.057.107-.082.173-.038.343.117-.076.103.254-.04.107-.079.221-.11.343-.028.122-.058.247-.071.387-.031.275-.066.558-.072.856l-.035.859c-.008.273-.022.526-.045.743-.037-.193-.059-.453-.123-.415.011.182.049.362.073.558.011.097.02.2.019.307.001.107-.008.222-.03.345-.01-.05-.029-.039-.039-.085.097.378.018.817-.048 1.315-.063.498-.12 1.055.016 1.657l-.124.079.064-.372c-.146.31-.104.065-.26.325.053.134-.158 7.942-.087 7.624l.242-7.224c.215.363-.367 8.401-.209 8.805-.004.523-.066 5.667-.117 10.251C25.658 81.486 33.533 84 42 84c23.196 0 42-18.804 42-42S65.196 0 42 0"/>
        <path fill="#FED16D" d="M34.817 38.242c-.01-.032-.05-.124-.158-.328.055.108.105.22.158.328M35.901 41.943l-.014-.163c-.02-.03 0 .124.014.163M35.732 42.685l-.007-.053.007.053"/>
        <path fill="#FED16D" d="M33.23 63.8l-.232-.264-.228-.281c-.073-.09-.136-.177-.19-.244.087.089-.014-.11.053-.033l-.089-.123-.082-.125c-.055-.084-.114-.166-.165-.253-.1-.174-.206-.346-.305-.523-.111-.358-.107-.466 0-.297-.03-.077-.065-.16-.1-.247-.037-.087-.066-.18-.102-.272l-.105-.278c-.034-.093-.06-.186-.086-.272-.114-.347-.163-.626-.12-.637-.05-.207-.073-.294-.08-.305-.009-.013-.007.05.008.14.026.184.072.482.072.52-.01-.023-.017-.046-.023-.07.038.147.084.292.125.437.04.147.093.288.145.43-.017.033-.046-.012-.08-.1-.018-.044-.038-.098-.059-.16-.015-.063-.034-.131-.052-.2-.035-.142-.076-.288-.11-.41-.03-.12-.062-.214-.095-.245-.054-.025-.096-.118-.13-.252-.026-.136-.041-.314-.055-.507-.011-.194-.005-.404-.011-.604 0-.2.005-.391-.012-.551.058.236.11.469.183.698.122 1.239.454 2.486 1.108 3.702.296.552.642 1.05 1.013 1.52l.002.004c-.053-.051-.123-.118-.198-.197m-1.963-5.52c.006.135.02.27.032.405-.026-.173-.046-.346-.064-.52.01.049.02.078.032.115m4.563-13.44c0-.084.009-.177.032-.332.008-.078.02-.172.038-.287.014-.116.034-.254.05-.421-.014-.017-.019-.091-.017-.202 0-.111.004-.261.005-.432.006-.341-.009-.763-.032-1.128-.008.119-.015.238-.03.356-.032-.186-.052-.285-.054-.35-.004-.061.005-.087.014-.12.008-.03.014-.07.008-.158-.004-.045-.01-.103-.023-.18-.014-.074-.035-.168-.064-.285.046-.41-.02-1.17.197-.651-.032-.173-.072-.316-.104-.443-.038-.126-.074-.235-.11-.343l-.267-.712c-.029-.207.017-.156.072-.075.22.588.39 1.179.512 1.77-.038-.103-.06-.117-.04.062.016.138.033.235.053.309.017.074.038.126.057.175.014.028.027.06.04.09.116.808.133 1.615.03 2.413-.015.076-.03.152-.044.232-.018.099-.044.2-.07.313-.05.224-.122.48-.224.805.014-.026.038-.06.063-.086-.046.159-.102.316-.161.473l-.049-.003c.125-.494.104-.623.117-.79m-.578-6.49l.079.178c.003.015.004.027.01.05-.028-.075-.059-.151-.089-.227m30.732 2.684c-.026-.453-.06-.904-.099-1.354.005-.765-.1-1.523-.103-2.19.01.297.085.09.08.587-.01-.075-.013-.024-.023-.098.034.566.053.719.078.857.023.139.052.26.085.766-.06-.89-.168-2.091-.224-2.878-.026.09-.05-.07-.073-.277-.025-.208-.054-.464-.087-.572l.001-.05c-.031.003-.106-.48-.134-.628l.064-.206c-.053-.341-.032.103-.087-.237-.043-.241-.123-.795-.195-1.303-.069-.508-.127-.973-.09-1.042-.108-.583-.19-.741-.293-1.345.034.043.07.185.086.206-.056-.321-.121-.66-.192-1.004l-.11-.523-.058-.262-.063-.27c-.17-.716-.383-1.41-.58-2.011-.383-.957-.785-1.743-1.145-2.286.066.12.193.359.257.52.064.159.081.234-.053.02-.154-.228-.338-.607-.561-.967.093.06-.505-.947-.047-.234-.005-.058-.066-.187-.157-.345-.093-.155-.209-.345-.33-.521-.236-.36-.477-.68-.43-.705-.033-.037-.103-.124-.194-.242-.09-.118-.2-.264-.322-.412l-.18-.227-.184-.212c-.058-.068-.115-.132-.166-.187-.054-.055-.102-.104-.145-.142-.017-.052.099.064.213.196.114.133.236.276.248.266-.12-.14-.237-.28-.359-.416l.023-.02c-.165-.205-.303-.363-.428-.487-.124-.126-.228-.224-.33-.306l-.284-.236c-.096-.078-.194-.16-.306-.268l.026.008c-.104-.096-.208-.19-.314-.284l.207.143.204.147c-.485-.467-.786-.654-1.36-1.13l-.038-.067-.364-.266c.06.045.088.052.054.016-.091-.054-.21-.131-.337-.22-.13-.09-.267-.193-.41-.29-.28-.2-.566-.386-.745-.473-.24-.174-.394-.398-.766-.55l.114-.043.258.16.154.11c.08.06.114.093.151.127.038.033.078.067.163.127.084.063.212.15.43.295-.276-.275-.863-.723-1.566-1.15-.702-.43-1.515-.836-2.184-1.12-.55-.204-1.27-.49-1.93-.693-.166-.055-.328-.097-.48-.14-.075-.02-.15-.04-.221-.057l-.207-.046c-.133-.026-.252-.05-.352-.063-.105-.01-.19-.015-.254-.011l.133-.031c-.636-.164-1.285-.293-1.94-.381-.836-.085-1.688-.126-2.49-.101-.803.022-1.553.107-2.175.245h-.178l-.175.007c-.32.097-.754.204-1.23.339l-.367.102-.375.116c-.255.074-.508.166-.76.25-.25.088-.495.183-.727.274-.23.099-.45.189-.648.284-.197.096-.374.187-.525.269-.148.088-.269.166-.355.234-.688.274.168-.163.221-.226-.509.209-1.26.735-1.755.933-.02-.034.663-.408.346-.254-.095.036-.172.074-.24.116-.069.043-.127.087-.188.132-.122.09-.25.18-.456.284.101-.03-.035.094-.257.285-.107.099-.241.208-.375.327-.131.122-.272.239-.395.355.093-.083.094-.08.14-.11.102-.03-.282.29-.47.488 0 0 .008-.026.057-.082-.301.31-.597.638-.867.995-.267.358-.52.735-.74 1.136-.218.4-.413.819-.578 1.252-.163.434-.296.88-.403 1.334-.215.908-.305 1.845-.322 2.77-.008.927.06 1.846.185 2.736-.049-.216-.09-.434-.133-.652.084.51.232 1.413.278 1.703l-.018-.073c.026.24.06.426.099.579.037.155.079.277.117.392.08.23.154.434.203.803l-.049-.138c.159.557.275 1.003.406 1.442.133.44.277.873.512 1.388.15.419.211.609.256.768.045.159.077.287.186.578.22.47.384.663.405.682l-.104-.226c-.035-.134.032-.016.136.174.102.19.24.45.343.613-.03-.145.005-.196-.005-.335-.01-.117-.056-.308-.18-.66.26.54.433.854.433.854.14.236.273.473.4.71-.028-.04-.059-.087-.077-.11.04.06.154.25.185.34l-.163-.267c-.062-.095-.127-.194-.184-.285-.123-.18-.225-.321-.248-.336.154.219.215.352.276.487.061.135.122.274.276.507-.043-.031-.128-.093-.255-.355.174.428.378.836.405 1.035-.12-.368-.292-.56-.336-.627.07.157.184.388.29.607.105.218.207.424.262.527-.02.02.004.108.046.222.037.114.095.253.142.38.094.254.16.45.042.254.03.028.08.16.133.319.05.158.099.342.119.47-.023-.005-.084-.166-.157-.355-.075-.19-.166-.408-.237-.532-.506-1.22.08-.006 0-.305-.118-.316-.255-.627-.396-.935.015.05-.044-.035-.07-.057-.014-.012-.02-.007-.003.037.015.045.052.13.119.28-.177-.258-.49-.81-.703-1.29-.083-.09.106.24.157.347-.04-.046-.157-.197-.22-.242-.063-.046-.06.007.12.376-.104-.211.227.332.061-.06.042.072.094.178.146.29.053.113.105.234.144.338.08.205.106.339.014.189l.154.315c.054.119.117.245.172.372.113.253.212.5.267.654-.008.052-.032-.013-.066-.11-.035-.094-.078-.221-.114-.294.136.354.258.713.361 1.077-.008-.11-.023-.218-.038-.327.098.406.195.732.28 1.043.087.31.168.604.21.939-.08-.087-.145-.637-.271-1.06-.008.215.016.279.052.378.018.049.041.106.066.195.017.088.043.208.053.38-.006.094-.023.119-.05.076.04.18.07.36.098.543-.006.119-.017.1-.024.054.008.086.018.165.024.219.007.065.014.11.02.14.014.064.024.07.035.089.01.018.022.045.022.148 0 .05 0 .122-.003.219-.004.098-.015.22-.03.38.07-.378.061-.545.052-.692-.006-.074-.014-.145-.017-.237-.003-.092-.012-.206-.01-.367.02-.188.056-.005.078.252.011.129.013.276.02.402 0 .126.002.232.007.28-.02.157-.046.278-.072.383-.03.104-.058.194-.084.288-.032.093-.06.192-.087.316-.035.123-.06.274-.102.466l.032-.16c.005-.04.006-.068.008-.088 0-.042-.005-.054-.008-.072-.007-.037.005-.1.078-.483.013-.22-.005-.163-.032-.044-.032.12-.08.303-.11.342-.017.1.011.072.026.088.007.008.01.026.004.077-.01.05-.024.137-.068.274l-.005-.026c-.053.31-.136.615-.227.919-.188.4-.396.85-.633 1.26-.243.425-.47.818-.67 1.07l.145-.084c-.294.508-.7 1.239-.875 1.619.002-.108.181-.46.373-.832-.532.918-.9 1.784-1.123 2.465.265-.45.291-.517.541-.942-.047.167-.098.294-.151.403-.051.11-.105.204-.164.302-.06.097-.12.202-.185.334-.068.13-.136.29-.206.5-.084-.007.04-.277-.117-.101-.095.36-.317.938-.405 1.35-.07.095-.096.043-.06-.142.017-.092.048-.217.095-.373.046-.156.111-.342.192-.557.315-.621.522-1.367.835-1.85l-.195.29c.279-.635.486-1 .738-1.536l-.002.026c.024-.1.05-.198.075-.297l-.157.28c.033-.11.117-.316.204-.52.088-.202.18-.4.23-.484-.49.862-.404.993-.566 1.438-.105.196-.203.36-.287.503-.088.144-.165.269-.24.385-.144.233-.259.442-.352.727-.054.029-.29.474-.163.09.18-.465.38-.76.352-.826-.113.236-.154.308-.207.41-.055.103-.125.235-.278.606.003.166-.162.746-.301 1.302-.041.145-.09.299-.137.457-.044.158-.093.319-.142.475l-.245.847c.133-.587.256-1.18.16-1.05-.021.178-.113.459-.186.677-.07.219-.114.378-.044.302l-.072.276c-.02.098-.044.2-.067.304-.021.103-.047.208-.067.31l-.06.305c-.043.193-.072.37-.102.502-.029.13-.056.218-.08.234.044-.678.224-1.31.338-1.865-.02.075-.043.149-.064.192-.017.044-.03.057-.032.009.073-.27.137-.543.22-.81-.108.298-.151.419-.2.562-.023.07-.047.148-.075.259-.026.109-.055.252-.096.453.018-.05.053-.148.041-.07l-.03.157-.031.169c-.02.113-.04.227-.056.329l-.084.013c-.014.154-.037.342-.07.556-.014.108-.024.222-.04.34-.012.12-.032.245-.04.375-.046.518-.053 1.108.015 1.68l-.022-.102c.003.115.015.216.029.308.012.09.024.172.04.247.014.074.027.143.047.208.018.064.038.127.059.188.04.124.08.25.127.406.053.153.105.336.166.575-.101-.27-.104-.135-.13-.075.078.237.13.42.166.608.041.188.09.373.162.614-.148-.563.21.339.095-.066.018-.014.047.037.096.125s.11.214.175.357c.034.072.064.149.102.224l.114.226.107.217c.032.07.064.135.098.192.014.079-.031.034-.101-.07-.066-.104-.157-.27-.24-.42-.087-.15-.15-.295-.188-.351-.037-.056-.043-.025.012.168.104.24.194.38.23.42.038.04.027-.022-.046-.191.072.147.146.318.236.487l.137.257c.046.086.098.17.144.255.095.17.197.33.28.478.089.145.169.274.224.38l.349.378c.1.106.186.203.27.287.084.084.163.16.246.235.086.072.177.14.282.21-.147-.146-.24-.21-.333-.292-.092-.083-.196-.176-.346-.39.14.13.288.254.434.377.517.54.934.976 1.343 1.298-.152-.098-.3-.206-.45-.312l.028.007c-.092-.051-.265-.201-.413-.325-.145-.127-.265-.228-.256-.18.102.072.194.147.284.223.089.075.177.15.268.232.092.079.19.158.296.243.107.084.23.166.367.254l-.028-.006c.48.314.89.593 1.27.819.383.225.736.4 1.098.468-.194-.073-.545-.303-.416-.273.054.035.136.079.227.125l.283.132c.184.083.34.146.32.163l-.222-.07c.596.247.967.359 1.194.41.184-.003.02-.084.471.002.27.077.378.11.397.127.018.018-.053.02-.134.018-.162-.006-.37-.022 0 .09.347.056.694.108 1.041.139.075.028.148.056.223.082.77.125 1.463.139 2.159.107.697-.034 1.4-.11 2.21-.205.02.038-.265.1-.606.15-.17.025-.356.047-.524.06l-.233.02-.186.009c.514.055 1.238-.1 1.92-.143.315-.04.587-.098.766-.154.178-.053.265-.1.212-.112.378-.09.515-.107.572-.103.056.006.03.035.08.03.056-.034.16-.072.291-.113.13-.042.29-.086.462-.131.34-.096.726-.203 1.02-.306l.043.039c.306-.116.608-.24.906-.368-.237.08-.041-.038-.051-.067l.234-.081c-.468.103-.967.292-1.477.466-.51.174-1.032.328-1.526.356.286-.084-.109-.023.18-.107.241-.05.291-.057.32-.044.136-.075.511-.204.006-.077 0-.054.254-.135.59-.24.167-.052.356-.11.544-.17.188-.065.377-.126.543-.192.278-.06.146.01-.089.115l-.395.16c-.133.052-.253.098-.32.13.26-.082.46-.191.843-.29l-.066.106c.462-.178.52-.218.486-.228-.032-.011-.157.006-.066-.067.22-.183.835-.3 1.084-.414-.09.043-.178.087-.269.128.362-.126.575-.227.773-.332.203-.102.39-.21.705-.351l.316-.084c-.813.303-.917.545-1.392.7.597-.21.55-.152.311-.004-.238.146-.675.362-.852.463.513-.207.973-.4 1.266-.48.344-.21.727-.377 1.1-.56.093-.045.188-.09.28-.136.092-.048.181-.097.27-.146.177-.098.344-.21.497-.33.378-.193-.297.23.095.013.722-.396 1.456-.876 2.146-1.411.37-.257.326-.186.448-.231.447-.311.81-.592 1.133-.87.326-.274.607-.542.887-.818.556-.558 1.108-1.15 1.895-2.047l-.195.295c.337-.374.612-.703.72-.934.121-.106.26-.268.405-.463.139-.2.294-.424.436-.662.297-.471.575-.976.84-1.287.136-.227.23-.405.303-.553.07-.152.12-.274.164-.39.047-.116.084-.228.132-.356.047-.13.11-.275.19-.465.028.012-.026.265.166-.117.543-1.241.964-2.454 1.318-3.716.354-1.263.635-2.578.849-4.038.008.026-.005.174-.013.248.16-.943.237-1.89.288-2.793.051-.905.072-1.768.112-2.557-.007-.148-.013-.444-.025-.67-.016-.224-.036-.378-.063-.242-.008.368-.079.418-.12.394-.023-.701-.004-.872.025-.986.028-.114.066-.171.046-.638.099-.298.08.588.17.588"/>
        <path fill="#FED16D" d="M35.901 41.943l.004.096.01-.119c-.004.04-.009.04-.014.023"/>
        <path fill="#B0D39F" d="M28.63 46.105c.124.018.245.027.354.047.053.002.087-.008.122-.017-.194-.038-.387-.078-.601-.107-.02.013-.08.023-.233.023.056.011.116.02.176.029l.183.025M19.355 52.395c-.035.405-.067.877-.099 1.41.006-.01.01-.022.015-.044.075-.56.088-.973.084-1.367M33.31 48.293c-.07-.032-.138-.071-.207-.106-.077-.011-.114-.003-.02.071.072.004.145.021.227.035M24.295 46.099c-.053.012-.1.028-.151.04.008.014-.011.029.018.042l.133-.082M19.132 56.571c-.038 1.044-.23 6.126-.338 9.254.124-1.52.325-8.517.338-9.254M18.723 68.075c.054.082.11.101.175.128-.061-.486-.061-1.363-.113-2.082-.031.893-.054 1.606-.062 1.954M19.23 54.309c-.009.159-.018.323-.024.49l.029.014c.027-.28.015-.411-.005-.504M19.215 55.428l-.007.048c.037.116.107.329.11.489.145-.688-.05-.624.072-1.19-.074-.502-.075.21-.172.429l-.025-.13c-.018.394-.035.809-.051 1.239.01-.254.026-.52.066-.837-.025-.08-.034-.114.007-.048"/>
        <path fill="#EFA693" d="M22.951 47.017l.012-.043c-.035.032-.067.063-.012.043M19.208 55.476l.007-.048c-.041-.066-.032-.032-.007.048M16.172 45.107c.02-.029.035-.063.049-.103-.041.058-.083.115-.118.173.028-.015.049-.04.069-.07"/>
        <path fill="#EFA693" d="M18.794 65.825c.108-3.128.3-8.21.338-9.254-.013.737-.214 7.734-.338 9.254m-.071 2.25c.008-.348.03-1.06.06-1.954.054.72.054 1.596.115 2.082-.064-.027-.122-.046-.175-.128m.469-13.002l.026.131c.097-.22.097-.932.172-.429-.122.566.073.501-.072 1.19-.003-.16-.073-.373-.11-.49-.04.32-.056.583-.066.837.016-.429.033-.844.05-1.239m.038-.765c.02.093.032.225.004.504l-.03-.013.026-.49m.126-1.915c.003.394-.01.807-.084 1.367-.005.022-.01.034-.015.044.03-.534.063-1.004.099-1.41m4.939-6.297l-.133.082c-.03-.012-.01-.028-.018-.042.05-.01.098-.028.15-.04m4.21-.07c.215.03.408.068.602.107-.035.01-.07.018-.123.016-.108-.019-.23-.029-.352-.047l-.183-.025c-.06-.008-.12-.017-.176-.027.154 0 .214-.012.233-.025m4.599 2.16c.069.034.136.074.207.106-.082-.014-.157-.03-.227-.035-.096-.075-.058-.082.02-.072M19.389 58.12l-.241 7.224c-.072.318.139-7.49.086-7.624.156-.26.114-.015.26-.326l-.064.372.124-.078c-.136-.602-.08-1.159-.016-1.657.067-.498.145-.937.048-1.315.01.046.029.035.039.085.023-.123.03-.238.03-.345 0-.108-.007-.21-.02-.307-.023-.196-.061-.376-.071-.558.063-.038.085.221.122.415.023-.217.037-.47.045-.744.01-.27.023-.563.035-.858.007-.298.04-.58.072-.856.013-.14.043-.265.07-.387.032-.122.072-.236.11-.343.015-.33-.14.09-.102-.254.025-.066.055-.127.082-.174.027-.047.053-.083.07-.098.038-.03.05.013.012.183.193-.349.417-.955.774-1.558.35-.603.863-1.176 1.378-1.47.053-.06.1-.1.137-.137.037-.036.065-.065.088-.09.045-.052.07-.087.106-.128.034-.04.083-.079.17-.144l.172-.117c.035-.025.076-.046.122-.069l.15-.079c-.094.074-.021.096.01.13.014.018.018.037-.013.068-.016.015-.041.033-.077.053l-.066.035-.08.047-.03.088c.413-.212.925-.386 1.415-.508.49-.117.938-.213 1.2-.32.022.065.067.068.154.06.042-.004.096-.01.163-.013.066-.003.145.004.239.018.15-.019-.015-.02-.076-.027.179-.06.316-.067.44-.053.125.014.235.041.366.033l-.092.022c.236-.029.474-.036.713-.054.118.027.293.068.315.11l.004-.093c.19.016.234.052.289.085.055.034.12.066.357.083l-.09-.08c.148.037.342.06.507.078.165.024.297.054.318.11.007.021-.048.001-.153-.017.108.06.238.095.373.135.069.018.14.035.213.05.074.015.145.035.22.051.075.017.15.032.22.056l.105.031c.035.012.072.022.1.036l.089.04c.029.014.056.026.09.048.065.041.127.084.185.128l-.05-.205c.128.063.21.108.26.14.05.033.067.053.067.065 0 .025-.068.02-.091.035.323.208.364.294.78.6.233.112.14.028.234.04.143.108.28.22.43.326-.114-.039-.227-.08-.336-.122.403.14.846.43 1.306.646.116.051.229.104.342.148.115.04.225.075.33.104.106.031.209.041.303.051.047.005.09.008.133.008h.062l.058-.01c.157.045.083.057-.011.064-.046.005-.096.003-.123.005-.027.003-.031.01.016.027.252.068.527.115.805.115l.21.005.208-.015.207-.017c.068-.006.137-.01.204-.024.268-.045.53-.082.772-.135.12-.024.239-.044.354-.06l.348-.06c.359-.082.722-.252 1.04-.5.319-.249.584-.578.777-.944.19-.368.313-.772.36-1.189.045-.418.024-.85-.123-1.283l-.025.043c-.07-.199-.17-.399-.326-.582-.075-.09-.165-.168-.257-.24-.094-.066-.192-.127-.29-.173-.09-.017-.203-.044-.328-.07-.125-.028-.262-.053-.397-.073-.272-.04-.53-.07-.701-.093.037-.019-.006-.09.069-.084-.075-.026-.136-.056-.178-.087-.042-.032-.072-.064-.094-.117-.006-.012-.01-.027-.014-.04-.006-.013-.01-.028-.012-.044-.002-.016-.006-.03-.007-.046l-.002-.049c-.003-.03.002-.064.005-.094s.01-.055.02-.077c.008.034.02.071.03.107.002-.022.002-.044.003-.068l.009-.06c0-.023.007-.043.013-.065.006-.02.006-.042.015-.063.025-.085.069-.174.12-.263.054-.09.123-.179.197-.268.076-.088.158-.176.244-.259.17-.167.35-.323.506-.463.157-.139.29-.262.379-.358.257-.222.297-.165.4-.189.227-.196.408-.384.557-.602.037-.055.072-.11.104-.169.033-.058.063-.12.09-.184.028-.063.05-.134.07-.202.019-.074.038-.146.046-.225.029-.085.042-.148.063-.22.009-.038.02-.075.03-.112.013-.038.019-.078.03-.119-.031-.087-.058-.169-.1-.252-.005-.138.013-.156.034-.168.02-.012.045-.016.035-.133-.022-.065-.037-.132-.065-.197-.028-.064-.054-.13-.082-.195-.066-.126-.128-.256-.214-.369-.077-.12-.174-.22-.266-.327l-.15-.137-.075-.068-.08-.057c-.418-.315-.851-.48-1.175-.566l.08.071c-.071-.007-.153-.025-.234-.046-.04-.01-.08-.023-.117-.035l-.102-.03c-.12-.04-.166-.079 0-.075-.161-.035-.312-.067-.456-.08l-.211-.02c-.058-.006-.164-.008-.248-.005-.342.027-.607.133-.857.255-.5.246-.965.573-1.68.98-.144-.02-.455.181-.768.371-.314.192-.634.368-.783.332-.29.177-.54.287-.768.385-.23.098-.43.188-.63.317-.02-.014-.076-.004.022-.042-.135.008-.403.097-.717.177l-.243.065-.262.06c-.09.02-.175.042-.264.06-.088.016-.175.033-.258.05l-.044-.055c-.113.082-.466.138-.822.192-.178.025-.357.05-.506.077-.15.028-.27.056-.33.092-.078-.024.128-.062.224-.092-.368-.102-.626.097-1.094.091.033-.034-.105-.063-.01-.092-.775-.033-1.724.026-2.74.116-.507.048-1.028.098-1.557.17-.131.017-.264.034-.397.057l-.2.031c-.066.01-.132.02-.2.035-.133.03-.27.052-.401.086l-.39.104c-.072.02-.12.044-.153.06-.032.015-.05.028-.056.037-.014.02.01.027.032.038.04.02.059.05-.298.182-.114.015-.043-.055.004-.103.023-.025.039-.045.019-.049-.01-.003-.028 0-.058.006-.032.007-.074.02-.132.046-.145.115-.247.182-.368.247-.117.072-.251.144-.46.262.054-.08-.031-.065.247-.263-.066.023-.162.08-.273.151-.112.074-.231.18-.362.281-.134.098-.258.223-.387.328-.064.053-.13.102-.193.15-.06.051-.12.096-.18.136.049.01-.006.096-.062.185-.244.327-.553.664-.793.95-.128.136-.225.266-.297.364-.072.096-.116.163-.112.187 0 0-.132.25.008.048-.083.123-.162.283-.238.395-.073.112-.132.18-.143.133-.02.078-.035.151-.051.234-.015.083-.038.173-.08.28l-.02-.145c-.038.13-.055.29-.098.412l.124-.172c-.048.07-.091.165-.13.265-.037.101-.065.21-.094.307-.056.194-.107.344-.172.312l.034-.108c-.043.095-.093.188-.131.284l-.118.29c-.006.13-.013.257-.035.403-.02.145-.043.31-.1.51-.045.03-.085.11-.12.22-.018.055-.036.118-.05.187-.013.068-.025.141-.036.218l-.123.921-.048-.03c.009.208-.03.57-.063.857-.028.286-.052.498-.028.405-.043.392-.136.921-.161.721-.003.323-.063 1 .008 1.173-.062.211-.12.422-.177.633.078.2.037.521 0 .797-.034.277-.063.511.034.536-.054.356-.092.27-.143.516.063.505.023 1.018-.024 1.537l-.02.012c-.042.517.026 1.13.004 1.856l-.155.148c.006.38-.165 7.505-.211 7.865-.026.083-.031.003-.035-.094.017.355-.038.834-.085 1.101.09.551.037.97.14 1.457-.144.422-.041-.638-.175-.276-.035.29-.057 2.63-.068 5.495 1.42 1.267 2.924 2.444 4.509 3.511 0-.173.002-.319.004-.404.01.047.019.206.028.424.15.101.306.195.459.294.05-4.584.113-9.728.117-10.25-.157-.405.425-8.443.209-8.806"/>
        <path fill="#221E1F" d="M51.536 34.501c0 .839-.646 1.519-1.444 1.519-.798 0-1.445-.68-1.445-1.519 0-.839.647-1.52 1.445-1.52s1.444.681 1.444 1.52M51.76 34.488c-.002.016.036.01.043.013-.01-.028-.053-.012-.043-.013M51.652 34.243L51.668 34.245 51.625 34.216zM51.605 34.018c-.058.039.03.078.018.124l-.014.01.056.007c-.02-.048-.07-.102-.06-.141M51.7 33.85c-.022.018-.03-.02.001.033l.005-.008c-.002-.003-.005-.011-.007-.024M51.706 33.875c.01.024.015-.023 0 0M51.648 33.768l.035.023c.011-.012.001-.043.016-.037-.027-.027-.037-.013-.05.014M51.59 33.758l.017.013c.005-.006.005-.011-.016-.013M51.64 33.796l-.033-.025c-.007.008-.027.017.013.01-.018.006.002.006.02.015M51.64 33.82c-.006.021-.007.048-.04.024.03.057.07.033.04-.025"/>
        <path fill="#221E1F" d="M51.536 34.025l-.013.028.027.013c-.013-.006.007-.048-.014-.04M51.58 33.559c-.013.006-.026.029-.04.04l.026.015c.002-.016-.003-.042.014-.055M51.54 33.6l-.04-.021c.015.03.027.03.04.02M51.522 33.783L51.593 33.817 51.517 33.773zM51.502 33.433L51.542 33.433 51.479 33.429zM51.44 33.356c.031-.004.021-.047.046-.043-.023-.019-.056-.02-.084-.023.022.008.036.028.038.066M51.356 33.283c.012.004.028.005.046.007-.013-.005-.027-.008-.046-.007M51.474 33.52c.005-.007.02-.023.016-.046l-.024.035.008.011M51.465 33.51v-.001l-.016-.027c.002.003.007.01.016.028M51.476 33.524l-.002-.004c-.003.004-.003.005.002.004M51.514 33.683c-.031-.01-.072-.034-.082.019.03 0 .036-.031.082-.02M51.443 33.565l.012.038c.01-.006.017-.019.033-.016l-.045-.022z"/>
        <path fill="#221E1F" d="M51.423 33.557L51.444 33.566 51.439 33.552zM51.374 33.36c-.025-.002-.038-.016-.054-.03.009.022.021.043.035.06.012-.006.036-.012.019-.03M51.417 33.434l-.005-.001c-.001.004-.001.006.005 0M51.175 33.182l-.003.008.005-.005-.002-.003z"/>
        <path fill="#221E1F" d="M51.352 33.398c.006.017.019.02.034.02-.011-.008-.02-.017-.03-.029-.006.003-.01.005-.004.008M51.304 33.251c0 .013 0 .025.004.037.003-.015.006-.042-.004-.037M51.418 33.42c.001.002.002.002.003.002.003-.01.001-.006-.003-.001"/>
        <path fill="#221E1F" d="M51.418 33.42c-.01-.003-.021-.002-.032-.003.009.007.017.012.026.016l.006-.012zM50.965 33.336c.025-.027.079-.028.076.026.042.002.11-.1.13-.172-.011.01-.02.02-.062.012-.002.024.029.092-.016.094-.047-.02-.02-.036-.025-.065-.015.046-.09.013-.124.073l.046.006c-.005.007-.027.012-.025.026M51.224 33.243l.015.008c-.01-.017-.008-.036-.007-.074-.031-.006-.045 0-.055.007l.055.06h-.008zM51.288 33.303c-.037.018-.074.002-.09.049.03.03.044 0 .075.01-.055-.05.031 0 .012-.055.015.007.025.016.035.023-.006-.012-.01-.027-.012-.042v.004c-.003.006-.004.009-.004.004l-.002-.001-.014.008c-.008-.022.006-.01.014-.008l.005-.003c-.022-.015-.045-.028-.069-.041.007.016.024.028.05.052M51.339 33.71l.007-.006c-.006-.001-.01-.001-.007.007M51.346 33.675c.008 0 .023-.004.027.013-.003.018-.015.009-.027.016.015.003.042.016.044-.02l-.008-.002c-.002-.03.022-.09.029-.088-.026.026-.044.047-.065.08M51.32 33.495c-.018-.012-.033-.024-.052-.035l-.009.045.016-.014c.013.031.03.011.044.004M51.183 33.162l.034-.025c-.022.005-.044.011-.067.02.012 0 .02.003.033.005M51.114 33.112L51.14 33.086 51.108 33.089zM49.034 35.154l.017.007c-.006-.004-.012-.006-.017-.007M48.991 35.063l-.017.005c.011 0 .02-.002.017-.005M49.191 33.026c-.042-.014-.1-.039-.072-.007l.03.028c.012-.017.027-.02.042-.02M48.684 34.21l.014-.004-.035-.023.02.027M48.845 34.256l-.03.023c.01-.004.02-.012.03-.023M49.418 35.532l.036-.023c-.018-.015-.023.007-.036.023M50.335 32.782c-.021-.02-.039-.029-.056-.033.027.027.044.065.056.033M48.637 35.315c.01.007.02.007.028.003-.011-.008-.02-.01-.028-.003M50.21 32.743c.004.005.008.007.013.011.017-.005.036-.012.056-.005-.018-.022-.043-.03-.069-.006M51.103 35.214l.008-.001c-.005-.004-.006-.002-.008 0M51.696 34.72c.002.008 0 .02 0 .032.003-.006.004-.014 0-.031M50.84 32.913c.019.006.006-.003 0 0M50.838 33.092c-.005.002-.01.005-.015.013.006-.008.01-.012.015-.013M50.041 32.99h-.001c.005.008.004.006.001 0M50.856 32.941c-.004-.008-.009-.015-.015-.02.002.003.006.01.015.02M50.862 32.923c.005.005.008.008.012.01.006-.004.006-.01-.012-.01"/>
        <path fill="#221E1F" d="M50.817 32.903c.01.004.018.011.024.018-.002-.005-.003-.007 0-.008l-.024-.01M50.269 35.884l.004.004c.01-.02.005-.016-.004-.004M49.163 33.603v-.002h-.002l.002.002z"/>
        <path fill="#221E1F" d="M49.155 33.66c-.025-.048-.013-.054.006-.059l-.1-.062c.031.041.062.081.094.12"/>
        <path fill="#221E1F" d="M49.18 35.346l.005-.046c.072-.008.073.024.093-.03-.102.078-.08-.085-.185-.019l.008-.032c.003.006.01.003.012.01.027-.066-.092.022-.106-.036 0-.023.007-.042.027-.038l-.048-.023c-.003-.012.018-.02.021-.008l-.037-.055h.004c-.022-.002-.058-.009-.075-.015.01-.022.016.003.03-.007-.016-.005-.03-.014-.044-.022.025-.026.063-.008.071.016.1-.078-.04-.017.003-.111l.026.026c.06-.044.027-.059.06-.106-.023.014-.084.103-.126.078.006-.014.003-.028-.026-.042.043-.013.028-.03.02-.053l.057-.014c-.023-.022-.052-.013-.082-.024-.002-.03.042-.046.08-.06.002-.048-.068.047-.087-.008.018-.045-.015-.069-.05-.116.017-.031.035.002.052-.01l-.049-.023c.001-.007.015-.006.023-.005-.019-.022-.059.002-.077-.034-.032-.004-.01-.023.012-.047.024-.023.047-.047.012-.072.016-.009.035.008.058.005-.045-.06-.034-.05-.092-.108l.045-.038c-.049.024-.095-.023-.132-.07-.022.01-.043.016-.052.022-.007-.023-.016-.046-.02-.068.011-.005.03.005.051.02l-.01-.014c.026-.017.056.002.085.023l-.04.014c.032.021.07.041.105.043-.006-.004-.01-.012-.014-.02.01.005.017.01.024.008.006 0-.006-.009-.019-.02h.067l-.024-.008.056-.06c-.054-.066-.128-.14-.124-.236.037.039.072.034.124.056-.063 0 .003.07-.022.105.014-.02.038-.005.045.003l-.028-.09c.044.018.038-.003.064-.014-.092-.02-.033-.075-.045-.115.028.012.054.032.031.063.081-.007-.077-.097-.003-.108-.004.008-.01.01.001.02-.012-.032.034-.067.051-.042l-.005.008c.037-.05.103-.154.046-.212.01.005.07.066.081.078-.05-.082-.09-.166-.129-.258.045.05.188.132.184.195.016-.005.036-.01.038-.05-.013 0-.088-.047-.083-.062.08.023.05.008.126.023-.02-.002-.082-.088-.062-.103.008.014.073.075.074.09-.009-.04-.019-.08-.026-.12 0 .024.056.07.084.084-.017-.011.04-.029.045-.047l-.033-.003c.06-.029-.035-.16.03-.195.003.024.054.123.09.117-.009-.027-.028-.09-.039-.158-.009-.066-.009-.136.014-.17l.025.023.034-.056v.355c.031.007.022.026.052.008.024.02.004.045-.004.051l.078-.018c-.03-.055.028-.084.006-.129-.02.03-.037.067-.054.098-.015-.028-.024-.073-.02-.114.004-.041.022-.08.056-.085.024.017.03.108.04.126 0-.023.038-.06.048-.048l-.012.041c.037.012.023-.099.08-.051.015 0 .06.066.053.03-.039-.063-.104-.272-.1-.328.008.002.101.041.125.075.035.052-.01.137.02.18-.003-.016.005-.04.01-.046.017.01.003.052.033.04-.004-.063.066-.005.007-.055.03-.022.035.006.072 0-.017-.04.023-.141.06-.16-.002.014.007.036.011.045.072 0 .108.038.173.04.005.014.033.035.017.06.01-.008.021-.029.04-.027.03.06-.044.002-.023.072.006-.036.055-.043.086-.06.002-.059-.064-.023-.093-.004.008-.078.07-.151.152-.174.063-.006.014.056.027.047.1.042.132-.111.205-.023.017.062-.033.095-.038.13-.049.002-.056-.053-.088-.06l.03.032c-.019.012-.052.017-.063-.002.014.048.167.062.218.137.021-.008.05-.013.05-.035l-.027-.005c-.004-.047.07-.029.048-.06.044-.01.105-.03.137.02l-.022.052c.01-.014-.01-.047-.03-.04.031-.008.023.108.083.058l-.009-.053c.047-.005.123-.026.15.02.016-.06-.012-.003-.002-.077-.02.083-.103-.073-.11.025.011-.083-.034-.06-.043-.142-.008.019-.002.04-.035.013-.004.004-.012.008-.016.01 0-.002 0-.002-.002-.003l.001.003c-.003.002-.004.002 0 .002.005.012.008.023.006.035-.039.027-.095-.003-.123.008-.018-.018.018-.014.015-.038l-.043.016c.014-.04-.033-.088.031-.09l-.048-.02c-.02-.032-.058-.057-.09-.05-.02-.016-.074.026-.044.002l-.086.003.002-.01c-.038-.014-.083-.005-.127-.002-.043.002-.085-.008-.128-.046-.028.009-.056.02-.1.006l-.01-.036c-.035.01-.108-.032-.122.006-.046-.1-.178-.003-.24-.008l.006.045c-.042.008-.079.032-.124.064l.014.04c-.032.04-.116.008-.18.037-.003-.017.015-.019.031-.014-.058-.03-.094.007-.123.044-.03.04-.056.076-.105.069-.007.024-.022.026-.039.025l.003-.004-.007.003-.035-.005c.013.005.024.007.031.007-.01.008-.027.026-.04.045l-.033-.032c0 .002-.002.004-.004.005-.026 0 0 .029.028.048-.004.013-.007.026-.006.04-.058-.047-.03.052-.095.008.01.035-.064.093-.018.157-.006-.008-.014-.007-.006-.014-.024.008-.047.019-.046.049l-.047-.033.021.09c-.045 0-.069-.004-.08-.056.001.101-.024.063-.009.153l-.028-.025c-.012.02.008.077-.025.071-.092 0-.138.203-.246.297.108.017-.067.04.01.077-.026-.002-.046.01-.06-.017.002.07-.073.085-.016.15-.026.002-.032-.023-.049-.02.004.006.017.026 0 .03-.016.003-.018-.014-.026-.028-.014.07.062.095.133.114-.043.024-.04.044.004.075-.026.008-.053.025-.056-.018-.006.022-.057.139.004.147-.015.006-.006.032.001.039-.006.052-.012.056-.009.108l.011-.016c.07.022.016.043.026.084l-.007-.002c-.046.098.024.038-.025.137l.043-.011c.096-.004-.044.087 0 .136l.022-.023c.034.021-.109.105-.114.142-.006.009-.015-.008-.023-.017-.035.096.058-.003.086.052-.028.02-.08.008-.075.05-.017.03.134.081.097.154.018-.02.036-.04.064-.022.024.034-.035.144.05.145-.003.008-.008.013-.014.016.034.019.082.076.126.07-.059.053-.013.086.03.111.043.026.084.044.03.088l.071.072-.012.008c.034.055.078.044.116.038.004.016-.013.017-.018.023.046.084.061.088.165.078l-.022.043c.017-.005.03.032.06.067.027.035.065.075.12.074-.005.003-.01.01-.02.012.06 0 .1.057.142.097.045.037.09.058.135-.015.025-.004.05-.01.076-.019-.077-.033.033-.066.01-.101.031-.002.064.07.024.068l-.004-.01c-.039.08.093.058.078.114.168.03.337.083.505.07l-.026-.065.055-.005c.017.014.028.05-.013.053.027.035.063-.041.061-.056.083.014-.016.081.007.08l.033-.01-.008-.007c.021-.032.017-.06.065-.07.032.007.025.038.037.038.002.002.006.005.02-.004l.072-.014-.044-.044c.023-.031.063-.018.015-.063.036.036.101.02.161-.003.057-.029.108-.064.128-.056.02-.055.053-.08.101-.103-.017-.003-.056-.049-.015-.066.058.112.095-.005.181.04-.032-.012-.008-.035.011-.06.02-.026.031-.052-.016-.066.035-.019.034.032.075.033.017-.05.06-.078.102-.111.044-.032.094-.067.12-.12-.012-.011-.043-.011-.049-.044.034 0 .068-.002.102-.005.008-.023-.067-.067.002-.072-.015-.002-.037-.005-.034-.021.092-.075.13-.188.16-.296.015-.054.031-.108.051-.163.023-.052.054-.104.097-.157-.035.026-.035.006-.033-.017-.01.014-.04-.007-.062-.007.024-.027.05-.055.073-.085-.06-.023.001-.103-.057-.115l.01.03c-.068-.04-.156.045-.244.031.038.023.008.047-.022.07-.028.024-.052.05-.002.09-.019.01-.026-.017-.047-.014.036.023.04.042.014.072l-.009-.005c-.01.096-.062.125-.122.212l.044.01c-.015.019-.029.018-.044.023.05.05.031-.057.088-.008-.048-.002-.065.034-.083.069-.016.036-.042.066-.09.048-.017.03.05.017.032.047l-.029-.005.026.025c-.016.017-.05.01-.072-.004.006-.002.003-.017.004-.022-.04.007-.037.072-.05.075l.032-.017c-.008.022-.02.044-.033.065-.015.02-.034.038-.049.06-.032.04-.066.077-.08.13l.02.01c-.027.08-.059.02-.108.083v-.006c0 .026-.01.049-.032.056.003-.03-.056-.019-.049-.055-.042.075-.014.047-.019.14l-.027-.024c0 .035.006.051-.028.078.017-.041-.045-.035-.03-.087-.1-.03-.082.118-.155.03-.003.103.084.026.072.051.028.023-.004.078-.034.079-.026.01-.082-.1-.142-.082.007-.002.005-.008.011-.01-.028-.017-.037.046-.074.013-.005.059-.037.002-.03.075l.056-.026c-.028.024-.049.114-.113.083.003-.017.018-.038.027-.052-.019-.018-.03.021-.049 0-.003-.072.071-.028.095-.088-.02-.028-.056.063-.05-.017-.005.052-.022.052-.04.049-.019-.005-.039-.014-.058.026v-.044c-.006.007-.019.028-.03.028l.018-.059c-.032.05-.065-.036-.096-.014.067.002.015.054.043.086-.089.056-.047-.117-.136-.1.012-.004.044.029.022.047-.017-.006-.038-.03-.046-.053-.06 0 .003.047-.026.069-.013-.058-.033.017-.066.027l.01-.043c-.065-.043-.04.087-.097.037l.042-.053-.037.007.02-.047c-.044.026-.055.016-.082-.011-.003.032-.03.074-.064.063-.01-.032.028-.035-.017-.044.02-.024.043-.053.047-.007.007-.012.018-.023.025-.034-.01-.038-.05-.029-.065-.033.006.004.01.009.012.016-.029.012-.055.018-.085.027-.002-.019.012-.028.025-.036-.014-.002-.03.014-.05.008.021-.03.037-.064.067-.067l-.07.009c.002-.014-.006-.053.008-.061-.015-.036-.108.018-.126-.032-.006.002-.014.005-.025.002-.029-.032-.028-.085-.096-.084l.025-.066c-.039-.017-.029.084-.095.056-.048-.02.028-.052.031-.075-.038.005-.117.017-.104-.05.018.005.02.017.031.024"/>
        <path fill="#221E1F" d="M48.826 34.25c-.008.002-.017.001-.024 0 .006.006.015.007.024 0M49.411 35.536l.001.002.006-.006-.007.004zM49.87 33.185c-.01-.005-.018-.012-.022-.02.001.011.007.02.022.02M51.013 32.99l-.04-.012c.018.01.018.021.02.032.007-.009.009-.026.02-.02M51.081 33.402c.008 0 .008.006.016.006l.013-.016c-.016-.013-.038-.01-.029.01M50.959 33.132c-.02.032.006.034.029.045l-.004-.003c.037-.037.007-.042-.025-.042M50.994 33.179c.007.004.014.008.02.014.013-.015-.006-.01-.02-.014M50.774 32.914c.008.015.028-.04.028-.022.033-.038-.1.013-.028.022M50.903 33.244l.021-.043-.034.023c.005.007.01.013.013.02M50.764 33.118l.027.028c.004-.007.01-.007.017-.007-.02-.014-.04-.033-.044-.02"/>
        <path fill="#221E1F" d="M50.808 33.139c.01.007.02.013.029.01-.006-.003-.018-.01-.03-.01M50.853 33.228L50.849 33.214 50.83 33.197zM50.384 32.969l-.043.007c-.008.014.002.026.019.022.01-.01.027-.012.024-.03M50.469 33.123c-.007-.013-.005-.022-.006-.039l-.017.056.023-.017zM50.36 33.107c-.009.015-.063.036-.017.04.007-.017.046-.019.016-.04M49.78 33.043L49.79 33.04 49.767 32.948zM49.432 33.443c.047-.003-.024-.054.022-.05-.003-.023-.038-.003-.041-.023-.007.032-.026.028.019.073M49.413 33.37c.001-.006.003-.012.003-.02-.003.01-.003.015-.003.02M51.758 34.598L51.779 34.564 51.746 34.585zM51.691 34.53l.06-.009-.053-.02c.002.007.007.022-.007.028M49.014 34.826l-.015.002c-.013.008-.013.014-.012.025l.027-.027zM49.102 35.153L49.1 35.147 49.059 35.184zM49.322 35.335c-.006-.01-.022-.012-.028-.021.022.011-.019.071.028.021M61.188 34.501c0 .839-.646 1.519-1.444 1.519-.797 0-1.444-.68-1.444-1.519 0-.839.647-1.52 1.445-1.52.797 0 1.444.681 1.444 1.52M61.413 34.488c-.003.016.035.01.042.013-.009-.028-.053-.012-.042-.013M61.305 34.243L61.322 34.245 61.278 34.216zM61.258 34.018c-.06.039.03.078.017.124l-.013.01.056.007c-.02-.048-.07-.102-.06-.141M61.352 33.85c-.021.018-.03-.02.003.033 0-.004.003-.005.004-.008-.002-.003-.005-.011-.007-.024M61.358 33.875c.011.024.015-.023 0 0M61.3 33.768l.036.023c.012-.012 0-.043.017-.037-.028-.027-.037-.013-.052.014M61.243 33.758l.017.013c.004-.006.004-.011-.017-.013M61.294 33.796l-.034-.025c-.008.008-.028.017.013.01-.02.006 0 .006.02.015M61.293 33.82c-.007.021-.007.048-.039.024.029.057.07.033.039-.025"/>
        <path fill="#221E1F" d="M61.19 34.025l-.014.028.026.013c-.012-.006.008-.048-.012-.04M61.233 33.559c-.014.006-.026.029-.04.04l.025.015c.002-.016-.003-.042.015-.055M61.192 33.6l-.039-.021c.014.03.026.03.04.02M61.175 33.783L61.245 33.817 61.169 33.773zM61.155 33.433L61.194 33.433 61.131 33.429zM61.093 33.356c.03-.004.022-.047.046-.043-.022-.019-.055-.02-.084-.023.022.008.037.028.038.066M61.009 33.283c.012.004.028.005.046.007-.013-.005-.027-.008-.046-.007M61.126 33.52c.006-.007.021-.023.017-.046l-.025.035.008.011M61.117 33.51l.001-.001-.017-.027c.002.003.007.01.016.028M61.128 33.524l-.002-.004c-.002.004-.003.005.002.004M61.166 33.683c-.03-.01-.072-.034-.081.019.031 0 .036-.031.081-.02M61.096 33.565l.012.038c.009-.006.018-.019.033-.016l-.045-.022zM61.075 33.557l.021.009-.004-.014-.017.005zM61.026 33.36c-.024-.002-.038-.016-.054-.03.01.022.021.043.035.06.012-.006.036-.012.02-.03M61.07 33.434l-.005-.001c0 .004 0 .006.004 0M60.827 33.182l-.003.008.006-.005-.003-.003z"/>
        <path fill="#221E1F" d="M61.005 33.398c.005.017.019.02.033.02-.01-.008-.02-.017-.03-.029-.005.003-.008.005-.003.008M60.956 33.251c0 .013.002.025.004.037.004-.015.006-.042-.004-.037M61.07 33.42c.001.002.002.002.003.002.004-.01.001-.006-.003-.001"/>
        <path fill="#221E1F" d="M61.07 33.42c-.01-.003-.02-.002-.032-.003.01.007.017.012.027.016l.005-.012M60.617 33.336c.025-.027.08-.028.076.026.043.002.111-.1.131-.172-.01.01-.02.02-.063.012-.002.024.03.092-.016.094-.047-.02-.02-.036-.025-.065-.015.046-.09.013-.124.073l.046.006c-.005.007-.027.012-.025.026M60.876 33.243l.015.008c-.009-.017-.008-.036-.006-.074-.032-.006-.045 0-.055.007l.054.06h-.008zM60.94 33.303c-.037.018-.074.002-.09.049.031.03.045 0 .075.01-.055-.05.032 0 .012-.055.015.007.025.016.035.023-.006-.012-.01-.027-.012-.042v.004c-.002.006-.004.009-.004.004l-.002-.001c-.004.004-.009.006-.014.008-.008-.022.006-.01.014-.008l.005-.003c-.022-.015-.044-.028-.069-.041.008.016.025.028.05.052M60.992 33.71l.007-.006c-.007-.001-.01-.001-.007.007M60.998 33.675c.008 0 .023-.004.028.013-.004.018-.016.009-.027.016.014.003.042.016.043-.02l-.007-.002c-.002-.03.022-.09.028-.088-.026.026-.044.047-.065.08M60.973 33.495c-.018-.012-.033-.024-.052-.035l-.008.045.015-.014c.013.031.029.011.045.004M60.835 33.162l.034-.025c-.022.005-.044.011-.066.02.011 0 .021.003.032.005M60.768 33.112L60.793 33.086 60.762 33.089zM58.688 35.154l.015.007c-.006-.004-.01-.006-.016-.007M58.645 35.063l-.019.005c.012 0 .02-.002.019-.005M58.845 33.026c-.042-.014-.1-.039-.073-.007l.03.028c.013-.017.027-.02.043-.02M58.337 34.21l.013-.004-.034-.023.02.027M58.497 34.256l-.029.023c.01-.004.02-.012.03-.023M59.07 35.532l.036-.023c-.018-.015-.022.007-.036.023M59.988 32.782c-.02-.02-.04-.029-.056-.033.026.027.043.065.056.033M58.29 35.315c.011.007.02.007.028.003-.01-.008-.02-.01-.029-.003M59.863 32.743l.012.011c.017-.005.036-.012.057-.005-.019-.022-.044-.03-.069-.006M60.757 35.214l.006-.001c-.005-.004-.006-.002-.006 0M61.35 34.72l-.002.032c.004-.006.005-.014.002-.031M60.493 32.913c.018.006.005-.003 0 0M60.491 33.092c-.006.002-.01.005-.016.013.006-.008.011-.012.016-.013M59.693 32.99c.004.008.003.006 0 0M60.509 32.941c-.004-.008-.01-.015-.015-.02.002.003.006.01.015.02M60.515 32.923l.012.01c.006-.004.006-.01-.012-.01M60.47 32.903c.01.004.018.011.024.018-.002-.005-.002-.007-.001-.008l-.023-.01M59.922 35.884l.003.004c.012-.02.006-.016-.003-.004M58.816 33.603v-.002h-.003l.003.002z"/>
        <path fill="#221E1F" d="M58.808 33.66c-.025-.048-.013-.054.006-.059l-.1-.062.094.12"/>
        <path fill="#221E1F" d="M58.832 35.346l.007-.046c.072-.008.072.024.092-.03-.102.078-.08-.085-.185-.019l.009-.032c.002.006.009.003.012.01.027-.066-.093.022-.106-.036-.002-.023.007-.042.027-.038l-.05-.023c-.002-.012.019-.02.022-.008l-.037-.055h.004c-.021-.002-.058-.009-.075-.015.009-.022.016.003.029-.007-.015-.005-.03-.014-.042-.022.025-.026.063-.008.07.016.1-.078-.041-.017.003-.111l.026.026c.06-.044.027-.059.059-.106-.021.014-.082.103-.125.078.006-.014.004-.028-.026-.042.043-.013.028-.03.02-.053l.057-.014c-.023-.022-.051-.013-.082-.024-.001-.03.042-.046.08-.06.002-.048-.068.047-.086-.008.017-.045-.015-.069-.052-.116.018-.031.036.002.053-.01l-.048-.023c0-.007.014-.006.022-.005-.02-.022-.06.002-.077-.034-.032-.004-.011-.023.013-.047.023-.023.047-.047.01-.072.018-.009.037.008.059.005-.045-.06-.034-.05-.092-.108l.045-.038c-.048.024-.095-.023-.131-.07-.023.01-.043.016-.052.022-.007-.023-.017-.046-.021-.068.012-.005.029.005.052.02l-.012-.014c.027-.017.058.002.086.023l-.04.014c.033.021.07.041.105.043-.006-.004-.011-.012-.013-.02.009.005.017.01.023.008.006 0-.006-.009-.02-.02h.068l-.024-.008.057-.06c-.055-.066-.13-.14-.125-.236.037.039.073.034.125.056-.064 0 .003.07-.022.105.013-.02.037-.005.045.003l-.028-.09c.043.018.037-.003.063-.014-.092-.02-.032-.075-.045-.115.028.012.054.032.03.063.082-.007-.076-.097-.002-.108-.004.008-.01.01.002.02-.013-.032.034-.067.05-.042l-.004.008c.036-.05.102-.154.046-.212.008.005.069.066.08.078-.05-.082-.09-.166-.128-.258.044.05.187.132.183.195.016-.005.036-.01.038-.05-.013 0-.087-.047-.083-.062.08.023.049.008.126.023-.021-.002-.082-.088-.062-.103.008.014.073.075.075.09-.01-.04-.02-.08-.027-.12 0 .024.056.07.085.084-.017-.011.039-.029.045-.047l-.034-.003c.06-.029-.035-.16.03-.195.003.024.055.123.089.117-.008-.027-.027-.09-.037-.158-.01-.066-.01-.136.014-.17l.025.023c.01-.02.022-.038.033-.056l-.001.355c.033.007.023.026.053.008.024.02.004.045-.004.051l.078-.018c-.031-.055.028-.084.006-.129-.02.03-.037.067-.054.098-.015-.028-.024-.073-.02-.114.005-.041.023-.08.056-.085.024.017.03.108.04.126-.001-.023.038-.06.048-.048l-.011.041c.037.012.022-.099.08-.051.014 0 .059.066.052.03-.038-.063-.104-.272-.1-.328.009.002.1.041.126.075.034.052-.012.137.018.18-.002-.016.006-.04.01-.046.019.01.004.052.034.04-.004-.063.066-.005.007-.055.03-.022.035.006.072 0-.016-.04.023-.141.059-.16-.001.014.008.036.012.045.072 0 .108.038.173.04.005.014.033.035.017.06.01-.008.02-.029.04-.027.03.06-.043.002-.023.072.007-.036.055-.043.087-.06 0-.059-.064-.023-.093-.004.008-.078.068-.151.15-.174.064-.006.016.056.028.047.1.042.133-.111.205-.023.017.062-.033.095-.038.13-.05.002-.056-.053-.088-.06l.03.032c-.018.012-.052.017-.063-.002.015.048.167.062.219.137.02-.008.05-.013.048-.035l-.025-.005c-.005-.047.068-.029.047-.06.045-.01.105-.03.137.02l-.021.052c.008-.014-.011-.047-.032-.04.032-.008.024.108.085.058l-.01-.053c.047-.005.123-.026.149.02.017-.06-.011-.003-.001-.077-.021.083-.103-.073-.11.025.01-.083-.034-.06-.042-.142-.008.019-.003.04-.036.013-.004.004-.011.008-.016.01l-.002-.003v.003c-.002.002-.002.002.002.002.005.012.007.023.005.035-.04.027-.095-.003-.123.008-.017-.018.018-.014.015-.038l-.042.016c.014-.04-.034-.088.03-.09l-.048-.02c-.02-.032-.058-.057-.09-.05-.02-.016-.073.026-.043.002l-.087.003.002-.01c-.038-.014-.083-.005-.126-.002-.044.002-.086-.008-.13-.046-.027.009-.055.02-.1.006l-.01-.036c-.033.01-.107-.032-.121.006-.046-.1-.177-.003-.241-.008l.007.045c-.042.008-.08.032-.124.064l.014.04c-.032.04-.115.008-.181.037-.002-.017.016-.019.032-.014-.058-.03-.093.007-.122.044-.03.04-.057.076-.106.069-.007.024-.022.026-.04.025.003-.001.004-.003.004-.004l-.007.003-.034-.005c.012.005.024.007.03.007-.011.008-.027.026-.04.045l-.033-.032-.003.005c-.027 0-.002.029.028.048-.005.013-.008.026-.007.04-.057-.047-.03.052-.095.008.01.035-.063.093-.017.157-.007-.008-.015-.007-.007-.014-.023.008-.046.019-.045.049l-.048-.033.02.09c-.044 0-.068-.004-.08-.056.002.101-.023.063-.008.153l-.028-.025c-.012.02.008.077-.024.071-.093 0-.14.203-.247.297.108.017-.067.04.01.077-.026-.002-.045.01-.06-.017.002.07-.073.085-.015.15-.027.002-.033-.023-.05-.02.005.006.017.026 0 .03-.015.003-.018-.014-.026-.028-.013.07.063.095.133.114-.042.024-.04.044.005.075-.026.008-.054.025-.056-.018-.007.022-.057.139.004.147-.016.006-.006.032 0 .039-.006.052-.012.056-.008.108l.01-.016c.069.022.016.043.026.084l-.007-.002c-.045.098.024.038-.025.137l.043-.011c.096-.004-.044.087 0 .136l.023-.023c.034.021-.11.105-.115.142-.006.009-.014-.008-.023-.017-.034.096.058-.003.086.052-.028.02-.08.008-.075.05-.017.03.134.081.098.154.017-.02.035-.04.063-.022.024.034-.035.144.05.145-.003.008-.008.013-.013.016.033.019.08.076.126.07-.06.053-.014.086.029.111.043.026.084.044.03.088l.072.072-.013.008c.034.055.079.044.117.038.004.016-.013.017-.018.023.045.084.06.088.165.078l-.023.043c.018-.005.03.032.059.067.028.035.066.075.12.074-.004.003-.01.01-.02.012.06 0 .1.057.144.097.044.037.09.058.134-.015.025-.004.05-.01.077-.019-.078-.033.033-.066.008-.101.032-.002.065.07.025.068l-.004-.01c-.038.08.093.058.078.114.168.03.337.083.505.07l-.026-.065.055-.005c.017.014.029.05-.013.053.027.035.063-.041.06-.056.084.014-.015.081.008.08l.033-.01-.008-.007c.02-.032.018-.06.065-.07.032.007.025.038.038.038 0 .002.006.005.019-.004l.072-.014-.044-.044c.023-.031.063-.018.015-.063.036.036.1.02.16-.003.058-.029.109-.064.13-.056.019-.055.053-.08.1-.103-.016-.003-.055-.049-.015-.066.059.112.095-.005.18.04-.031-.012-.007-.035.012-.06.019-.026.03-.052-.016-.066.035-.019.034.032.075.033.017-.05.059-.078.102-.111.045-.032.095-.067.12-.12-.012-.011-.043-.011-.05-.044.035 0 .069-.002.103-.005.008-.023-.066-.067.002-.072-.015-.002-.036-.005-.033-.021.09-.075.128-.188.158-.296.016-.054.032-.108.053-.163.022-.052.053-.104.097-.157-.036.026-.036.006-.034-.017-.01.014-.04-.007-.061-.007.023-.027.049-.055.072-.085-.06-.023 0-.103-.057-.115l.009.03c-.066-.04-.155.045-.243.031.038.023.009.047-.022.07-.028.024-.052.05-.002.09-.02.01-.026-.017-.047-.014.036.023.04.042.014.072l-.008-.005c-.012.096-.063.125-.123.212l.044.01c-.014.019-.03.018-.044.023.05.05.03-.057.088-.008-.048-.002-.065.034-.083.069-.015.036-.042.066-.09.048-.017.03.049.017.032.047l-.03-.005.028.025c-.017.017-.052.01-.073-.004.006-.002.003-.017.005-.022-.042.007-.037.072-.051.075l.033-.017c-.01.022-.021.044-.034.065-.015.02-.033.038-.05.06-.031.04-.065.077-.078.13l.018.01c-.026.08-.058.02-.106.083l-.001-.006c0 .026-.011.049-.031.056.002-.03-.057-.019-.05-.055-.041.075-.013.047-.018.14l-.027-.024c-.001.035.005.051-.028.078.016-.041-.045-.035-.031-.087-.1-.03-.081.118-.155.03-.003.103.084.026.072.051.029.023-.004.078-.033.079-.027.01-.083-.1-.142-.082.006-.002.004-.008.01-.01-.028-.017-.036.046-.073.013-.006.059-.038.002-.03.075l.056-.026c-.028.024-.05.114-.114.083.003-.017.018-.038.028-.052-.02-.018-.03.021-.05 0-.003-.072.07-.028.096-.088-.021-.028-.057.063-.052-.017-.004.052-.021.052-.04.049-.017-.005-.038-.014-.057.026v-.044c-.006.007-.02.028-.031.028l.019-.059c-.032.05-.064-.036-.096-.014.067.002.015.054.044.086-.09.056-.047-.117-.137-.1.012-.004.044.029.022.047-.017-.006-.038-.03-.045-.053-.06 0 .003.047-.026.069-.014-.058-.034.017-.067.027l.009-.043c-.063-.043-.04.087-.096.037l.042-.053-.037.007.02-.047c-.044.026-.054.016-.082-.011-.002.032-.03.074-.063.063-.011-.032.028-.035-.018-.044.02-.024.043-.053.047-.007.007-.012.018-.023.025-.034-.01-.038-.05-.029-.064-.033.005.004.01.009.01.016-.027.012-.054.018-.084.027-.002-.019.012-.028.025-.036-.014-.002-.031.014-.051.008.022-.03.038-.064.069-.067l-.072.009c.004-.014-.005-.053.009-.061-.014-.036-.107.018-.126-.032-.006.002-.014.005-.025.002-.028-.032-.028-.085-.096-.084l.025-.066c-.038-.017-.03.084-.095.056-.047-.02.029-.052.03-.075-.036.005-.116.017-.103-.05.018.005.019.017.03.024"/>
        <path fill="#221E1F" d="M58.478 34.25c-.008.002-.016.001-.023 0 .006.006.014.007.023 0M59.063 35.536l.002.002.006-.006-.008.004zM59.523 33.185c-.012-.005-.019-.012-.023-.02.002.011.008.02.023.02M60.665 32.99l-.039-.012c.017.01.018.021.021.032.005-.009.007-.026.018-.02M60.734 33.402c.007 0 .008.006.015.006l.013-.016c-.015-.013-.038-.01-.028.01M60.611 33.132c-.019.032.006.034.03.045l-.004-.003c.037-.037.006-.042-.026-.042M60.647 33.179c.007.004.014.008.019.014.015-.015-.005-.01-.02-.014M60.428 32.914c.007.015.027-.04.027-.022.034-.038-.1.013-.027.022M60.556 33.244l.02-.043-.032.023c.004.007.009.013.012.02M60.416 33.118l.027.028c.004-.007.01-.007.017-.007-.019-.014-.038-.033-.044-.02M60.46 33.139c.01.007.021.013.03.01-.006-.003-.018-.01-.03-.01M60.506 33.228L60.502 33.214 60.482 33.197zM60.036 32.969l-.043.007c-.007.014.002.026.02.022.01-.01.027-.012.023-.03M60.122 33.123c-.008-.013-.005-.022-.007-.039l-.017.056.024-.017zM60.012 33.107c-.007.015-.062.036-.015.04.007-.017.045-.019.015-.04M59.434 33.043L59.444 33.04 59.421 32.948zM59.085 33.443c.046-.003-.025-.054.021-.05-.003-.023-.038-.003-.041-.023-.007.032-.026.028.02.073M59.065 33.37l.004-.02c-.004.01-.004.015-.004.02M61.41 34.598L61.431 34.564 61.399 34.585zM61.344 34.53l.06-.009-.053-.02c.002.007.007.022-.007.028M58.667 34.826l-.015.002c-.014.008-.013.014-.013.025l.028-.027zM58.755 35.153L58.753 35.147 58.712 35.184zM58.975 35.335c-.005-.01-.022-.012-.028-.021.023.011-.02.071.028.021"/>
        <path fill="#EFA693" d="M60.19 44.884s-1.929.467-4.562.467c-3.045 0-6.459-.467-6.459-.467-1.384-.417-2.525-1.14-2.525-2.532v-.122c0-1.393 1.105-2.79 2.525-2.533 0 0 4.67.685 7.585.64 2.153-.033 3.436-.64 3.436-.64.898-.374 2.525.509 2.525 1.902.032 1.76-.674 2.579-2.525 3.285M60.248 45.036L60.3 45.066 60.461 44.936z"/>
        <path fill="#EFA693" d="M62.06 44.056c.024-.044.063-.088.093-.145.032-.053.065-.11.092-.162.05-.106.072-.202.033-.23l-.06.16-.077.156c-.044-.008-.097.033-.163.085-.065.054-.133.132-.203.198l.084-.07.078-.076c-.034.046.024.056-.011.103-.069.05-.127.089-.172.13-.044.04-.081.079-.122.11-.08.066-.157.133-.313.173l.01-.017c-.063.054-.123.113-.188.163-.075.025-.063-.02-.048-.043-.174.134-.305.242-.578.352.133.022.27-.073.405-.162.134-.1.265-.19.398-.192l-.011.016c.055-.048.12-.088.185-.128.065-.043.133-.083.202-.123.133-.087.27-.176.366-.298"/>
        <path fill="#EFA693" d="M61.093 44.59l.016-.011c-.003-.003-.01.002-.016.012M55.966 40.035l-.012.021c.017-.006.033-.014.012-.02M59.434 39.94c-.006 0-.011 0-.017.002-.013.035-.004.023.017-.002M53.373 45.543l.067.035c-.015-.03-.039-.037-.067-.035M58.13 45.503l.007-.002c-.002 0-.005 0-.007.002M55.954 45.212l-.01-.027c-.009.015-.004.024.01.027M57.462 45.086c.042.004.084.005.126.002-.03-.013-.083-.012-.126-.002M58.085 45.52c.013-.008.029-.013.045-.018-.018.005-.035.01-.045.017M53.675 45.11l-.056-.076c0 .023.029.05.056.075M57.828 44.996c.021.012.051.016.081.018-.017-.013-.043-.02-.08-.018M62.286 43.808c-.03.036-.064.077-.1.13.043-.041.075-.085.1-.13M46.898 42.143c.008.01.016.02.026.025-.005-.03-.014-.033-.026-.025M50.147 44.762l.017-.001-.02-.014.003.015zM48.765 44.507c.009-.002.017-.005.023-.01-.014.003-.02.006-.023.01M51.254 44.8c.018-.004.037-.01.053-.02l-.053.02z"/>
        <path fill="#EFA693" d="M52.3 44.966c-.044-.03.008-.05.06-.07-.26-.054-.355.027-.622-.058l.125.046c-.181.038-.51.019-.661-.064l.052-.02c-.174.04-.428-.09-.504-.05.066.038-.008.049.096.09l-.434.014-.021-.1-.228.007c.05.045-.297-.065-.313.025-.123-.05.06-.066.11-.098-.128.012-.137-.03-.261.01l-.114-.098-.334.019c.017-.006-.002-.014.015-.02-.045.012-.023.024-.083.007-.043-.013-.087-.031-.134-.048-.092-.033-.187-.07-.298-.041.01-.001.01-.006.014-.01-.06.014-.144-.017-.223-.055-.08-.038-.15-.09-.188-.115-.156-.055-.098.043-.12.074l-.227-.132c-.05-.032-.084-.05-.118-.064-.07-.027-.134-.04-.331-.121-.064-.12.02-.107.092-.1.036.006.072.006.084-.007.013-.014 0-.04-.042-.101-.032.009-.092-.012-.171-.051-.037-.022-.077-.05-.12-.081-.022-.016-.045-.031-.066-.05l-.061-.06c-.03-.046-.064-.097-.091-.157-.03-.06-.066-.12-.086-.185-.023-.065-.048-.128-.056-.191-.01-.064-.022-.12-.014-.171l-.061.04c-.036-.087-.082-.175-.105-.271l.062.07c.022.025.047.046.07.067-.041-.034-.102-.167-.153-.261-.038-.151-.003-.198.027-.231.016-.02.032-.036.036-.064.003-.03-.003-.068-.028-.126.008-.01.016-.016.023-.021-.051-.078-.02-.28.015-.511l.07.099c-.017.046-.03.093-.044.14.096-.063.027-.241.076-.381.016-.154-.073-.105-.07-.194.022-.052.032-.142.074-.173.084-.114.1.032.118.084-.018-.07-.02-.115-.005-.172.016-.057.044-.128.1-.25.044.013.049.039.038.073.02-.052.029-.103.015-.15l.093-.04c.119-.093.135-.172.159-.263.023-.09.054-.197.21-.297-.024.049.035-.004.123-.061.087-.06.205-.12.268-.114-.055.03-.026.056.008.08.034.027.073.057.052.095.124-.037.14-.065.149-.104.009-.04.01-.081.116-.12-.021.044-.04.089-.057.132.09-.052.102-.066.112-.081.01-.016.02-.033.126-.064-.054.04.096.017-.024.07.136-.012.186-.01.233-.008.022 0 .045 0 .076.004.03.005.07.006.132.02l.036-.103c.042 0 .075.013.099.03.022.016.035.034.046.046-.037-.003-.101-.016-.097-.001.102.108.186-.026.302.075-.027-.038-.055-.09.06-.08-.046.06.168.084.173.112-.067-.054.249.013.273-.056.127.066-.048.046-.06.08.12-.07.466.049.572.013.002.006.007.012.006.016.146-.033.38-.017.669-.058l-.104.05c.28.06.187-.107.42-.081-.058.082.388.036.273.122.145-.034.297-.042.395-.107.128.062-.265.093-.084.137l.203-.026.032.05c.01-.033.185-.018.179-.047.026.06.102.108.089.15.127-.005.3.065.409.026l.007.028c.13-.093.386.013.456-.091l.073.066c.194.006.166-.108.256-.127.078.002.172-.004.252.012-.256.05.119.093.169.137.099.01.39.019.473-.031-.122.049-.051.099-.266.09.109.114.327-.004.566.025l-.005.049c.344-.017.358-.102.509-.182.038.064.004.079-.096.136.226.05.588.015.846.028.08.043.026.07-.06.087.134-.021.283-.02.42-.025.137-.004.262-.02.345-.077-.066.046.108.024.208.043-.001-.023.016-.053.028-.05.08-.026.21-.057.343-.076.132-.021.268-.037.365-.027l-.065.04c.11-.005.203-.028.288-.053.085-.025.162-.054.239-.084.156-.06.314-.114.556-.125.088.005-.07.107.103.066.075-.057.029-.131.249-.163l.004.073c.043-.035.086-.071.128-.108-.09-.034-.323.042-.173-.062.105.008.142-.021.184-.047.042-.028.09-.054.215-.052-.051.022-.105.097-.135.135.255-.031.42-.105.579-.184.082-.038.154-.085.254-.12.097-.03.21-.043.34-.024.128-.034.28-.037.42-.022.142.014.272.039.368.05-.04.063-.063.118-.19.135.099.037.184.033.26.039.076.007.143.025.182.108.07-.017.21.05.339.129.128.076.249.16.317.135-.012.027.168.186-.052.058.125.098.163.204.18.288.016.088.013.157.045.216.02.032.029.003.043-.015.012-.02.036-.03.077.053.004.023-.006.034-.002.056.02.016.038.033.057.05-.002.079-.091-.046-.128-.034.037.115.09.2.139.298.052.097.1.208.113.358l-.026-.05c.004.102.002.2-.002.3l-.008-.018c.015.08.035.16.042.242l-.034-.008c.006.055.028.07.026.148l-.042-.028c.03.04.052.134.054.235.004.1-.002.21-.02.28l-.026.023c.002.057.006.116.005.176l-.01.177c-.05.08-.057.015-.061-.024-.007-.04-.002-.053-.05.12-.014-.037-.031-.076-.051-.115-.06.244-.12.259-.175.42.076-.045.13-.155.122-.058-.048.032-.08.066-.102.102-.011.017-.02.037-.026.055-.008.019-.016.038-.022.058-.012.039-.022.08-.033.125-.012.044-.024.09-.05.134.034-.037.057-.073.075-.11.016-.034.026-.07.024-.111.06-.086.062-.004.1-.058l.03-.156.075-.01c.029-.082.043-.17.064-.254.028.02.057-.033.073-.08.017-.043.032-.08.053-.02.012-.091.042-.156.058-.224.015-.066.025-.133.007-.22.068-.111.01.198.045.073.045-.36.052-.713.045-1.07-.005-.383-.123-.774-.33-1.103l.07.046c-.035-.024-.071-.053-.105-.08l-.094-.063c-.016-.068-.092-.214-.206-.336-.113-.123-.26-.218-.361-.223-.016-.018.024-.011.043-.006-.108-.067-.252-.173-.423-.266-.171-.092-.373-.171-.562-.195-.088.042-.225.01-.37.002-.144-.008-.297.014-.348.11.024-.016.047-.034.072-.05.07.01.027.04-.033.084-.06.04-.14.1-.15.127-.121-.058-.037-.068-.167-.115l.062-.007c.02-.002.039-.003.063-.007-.021-.022-.041-.042-.06-.065-.062.085-.147.14-.233.174-.086.034-.176.049-.261.059-.085.009-.166.015-.238.03-.072.017-.137.044-.19.096.014-.011.007-.024.022-.036-.173-.004-.265.123-.381.178-.022-.038.059-.082.114-.128-.073.009-.156.028-.247.05-.091.022-.186.05-.285.073-.196.05-.4.086-.566.07-.11.069.05.072-.065.125-.103-.004-.177-.042-.056-.083-.074-.02-.167-.018-.274-.012-.107.006-.227.025-.353.037-.25.029-.527.045-.744-.002-.232.06-.087.089-.444.122.084-.038-.08-.14.13-.14l.026-.042c-.35-.013-.818-.053-1.017.062-.006-.092-.064-.022-.194-.078-.054.007.004.013.026.02-.134.07-.195-.014-.29-.008l.035-.013c-.086.012-.172.028-.257.04-.042-.016-.104-.037-.111-.066l-.003.064c-.137-.01-.06-.086-.231-.082l.033.05c-.106-.037-.284.016-.3-.056-.004-.014.016-.006.055-.005-.161-.111-.438-.006-.643-.07l.044.108c-.206.014-.122-.032-.111-.067-.136-.013-.164-.05-.341-.077-.09.017-.05.033-.081.06l-.18-.043.123-.044c-.296.12-.702-.09-.904.026-.104-.041.102-.051.04-.076-.325-.101-.754.013-1.023-.096-.22-.065-.463-.096-.711-.126-.247-.03-.507-.06-.744-.12l.006.03c-.128-.028-.266-.052-.406-.056-.027.015-.066.028-.11.037-.044.009-.094.019-.145.032-.104.022-.211.059-.281.117.007-.025-.037-.047-.004-.073-.168.055-.324.16-.432.175l.042-.047c-.178.079-.375.206-.524.345-.153.14-.261.287-.3.38-.073.104-.108.074-.157.082-.128.18-.174.322-.21.5-.031.036-.062.075-.105.115.01.035.02.068.032.1-.04.082-.06 0-.1.063-.02.172-.063.347-.1.513-.036.166-.065.323-.065.444l.034-.034c.023.105-.023.27-.058.166-.001.028-.004.05-.004.079 0 .029 0 .056.003.083.002.054.007.106.014.155.016.099.05.192.079.287.078.188.16.392.319.67-.018.037-.002.085.029.137.032.05.073.113.125.166.05.052.1.105.135.156.038.046.06.09.054.132.219.164.33.303.527.34-.003.016.012.035-.024.012.03.05.125.11.242.172.12.055.26.109.385.145l-.004.044c.03-.012.077-.005.133.005.056.01.12.028.184.045.128.034.258.06.314.034.02.029-.057.02-.096.024.048.06.106.072.17.072.033 0 .066 0 .102.003l.054.009c.015.003.042.014.073.022-.024.02.044.054-.011.064.06.013.08.02.12.03.035.01.072.017.109.025.074.014.15.025.232.035.16.018.333.029.51.039.354.019.729.033 1.08.1.196.022-.063-.1.193-.07.07.052-.133.079.028.113.123-.045.165-.03.322-.01-.03.028-.007.049-.12.06.089.046.394-.038.57.052-.007-.028.028-.042.064-.055.273-.058.608.124.636.08 0 0 .095-.006.014-.02.099.008.24.03.213.072.053-.021.1-.056.179-.055l-.046.049c.046-.008.099-.037.143-.042l-.067-.035c.11.05.337-.043.325.056h-.038l.209.055c.086-.034.174-.072.314-.052.05.104.362.039.542.052l-.008.035c.142-.045.505-.014.439-.035.138 0 .324.029.255.06.113-.02.35-.017.409-.078l.228.084c.133-.127.454.033.464-.101.127.017.098.049.187.068.172-.077.354-.071.536-.075l.006.014c.09 0 .189-.021.296-.046.106-.025.222-.055.348-.07l.064.098c.132-.028.156-.11.284-.102.03.013.004.02-.03.03.123-.033.294-.028.39-.014.182-.097.333-.09.489-.195.162.068-.215.073-.076.139.279.008.549-.087.84-.187.028.014-.002.036-.01.06 0 0 .14-.09.26-.19.124-.1.224-.214.157-.25.058-.083.127-.14-.127-.138-.071.057-.295.15-.353.085l-.001.073c-.328.093-.055-.137-.455-.067l.089.008c-.075.017-.13.073-.217.063-.03-.016.025-.033.054-.055l-.318.146c-.02-.04-.01-.063.05-.104-.304.046.08.12-.297.145-.072-.023.018-.047.065-.077-.181-.037-.291.03-.466.09-.01-.062.11-.068-.043-.091.033.03.059.083-.054.1.047-.068-.091-.024-.204-.028.025.019.019.05-.023.066-.054.016-.103-.006-.18.005l.144.05c-.188.078-.305-.004-.452-.02.01-.013.035-.022.064-.03-.156-.014-.317-.053-.508.014l.016-.01c-.363.083.12.102-.306.184-.141-.008.059-.21-.262-.124.156.048-.206.14-.392.166.063-.041.126-.083.189-.127-.075.002-.204.037-.245.024l.01.028c.016.105-.24-.011-.375.053.168-.144.177-.118.206-.261-.13.08-.28.152-.518.134l.197-.108c-.318-.026-.694.128-.96.213.073-.08-.034-.113.083-.18-.103.005-.205.006-.307.007l.089-.086c-.128.087-.263.018-.247.138.034-.014.03-.03.09-.023-.01.036-.066.108-.224.096-.105-.034.065-.044.036-.078-.103.044-.106-.033-.213-.005l.092.055c-.078.065-.175-.005-.281.023.127-.023.088-.065.043-.108l.006.009c-.076 0-.18.043-.231 0l.07-.091-.115.064c-.042-.015-.071-.05 0-.064-.344-.08 0 .206-.454.089.01-.035.062-.056.185-.027.023-.056-.005-.092-.127-.121-.002-.004 0-.007 0-.011-.238-.014-.547-.045-.708.008"/>
        <path fill="#EFA693" d="M53.009 44.958c.127.009.234.016.284.007-.022-.021-.287-.067-.284-.007M56.132 40.532l-.048.008.048-.008M57.16 40.491c-.013-.01-.032-.015-.056-.019.001.02.015.033.055.02M47.269 40.861v-.004.004M52.408 40.346c.092-.021.127-.044.135-.067-.057.002-.106.019-.135.067M50.47 40.089l-.037.01c.029-.002.037-.005.038-.01M47.176 41.127c.006-.084.06-.18.093-.266-.027.074-.126.191-.093.266M58.392 40.256L58.298 40.319 58.4 40.269zM57.446 40.4c-.043-.01-.209.032-.159.054.05-.027.105-.04.16-.054M53.804 40.267L53.759 40.316 53.847 40.282z"/>
        <path fill="#221E1F" d="M52.384 42.37c-.005-.004-.01.001 0 0M56.31 42.536h.005l.005-.039-.01.04zM56.934 42.556c.002 0 .003.002.004.003-.001-.01-.002-.018-.004-.003M54.87 42.698c-.006 0-.009.002-.01.007.002-.003.005-.005.01-.007M51.207 42.205h.003l-.005-.01.002.01zM51.226 42.183c.01.015-.01.02-.016.02.01.025.026.03.043.025.006-.023-.024-.026-.027-.045M49.11 41.692l.01-.007c-.005.001-.008.004-.01.007M54.888 43.836l-.011.006c.005 0 .008-.002.01-.006M49.428 41.816l.014-.034c-.007.013-.012.024-.014.034M56.32 42.497l.002-.015-.003.015M57.51 42.472c.002.01.006.02.009.026h.002l-.011-.026zM60.477 41.889l-.01-.011.005.03c.005-.006.006-.012.005-.02M58.323 42.43v-.014c-.018-.007-.053 0-.096.016l.01.045.086-.047z"/>
        <path fill="#221E1F" d="M59.552 43.105l-.123-.047c.067-.04.128-.066.185-.089.055-.023.108-.043.159-.06.05-.02.1-.038.149-.066.049-.027.099-.06.15-.108l-.005.025c.022 0 .014-.048.063-.093.025-.02.062-.044.124-.063.064-.017.152-.026.278-.033l.005.007c.013-.01.003-.026.042-.022l-.094-.005c.026-.044.037-.102.085-.139.015.002.029.014.039.026l.115-.099.072.022c.02-.054-.071-.14.069-.16-.088-.04.018-.078-.021-.105.012.005.032.009.05.013.026-.028.063-.07.094-.114.014-.021.028-.044.038-.066l.012-.032c.005-.011.008-.021.009-.03-.007.009-.1.036-.196.044-.098.008-.206.008-.262-.008.09-.038.013-.023-.018-.035l.007.021c-.057.017-.09-.026-.121-.022.003.005.007.008.01.01l-.001-.007c.008.007.01.013.012.019.007.01.01.018-.004.024l-.001-.005c-.014.018-.052.035-.068.041l-.027-.036c.008.046-.066.06-.15.059-.082 0-.17-.01-.194.002-.075-.021-.096.073-.17.08-.098.04-.077-.032-.141-.041-.071.005.036.04.015.055l-.1-.02c.038-.026.004-.04-.011-.05-.032.012-.081.01-.118.019-.04.006-.066.021-.057.066-.101 0-.116-.035-.153-.021.019.01.048.013.057.028-.05-.02-.013.016.005.018-.035.063-.33-.036-.301.06l-.007-.018c.016.072.062.132.04.184l-.036-.02-.026.044c-.033-.012-.028-.035-.031-.043-.048.056-.147.047-.223.064l.146.16c-.08-.02-.224-.07-.215-.003l-.06-.05c-.165-.083-.071.08-.133.059l-.086-.05.063-.02c-.074-.016-.106-.03-.17-.06v.002c.005 0 .008.003.01.008l-.01.005c.004.037-.021.07-.066.083-.066.008-.102.073-.225.025l-.006.08-.088-.025-.014-.058c.075-.015.21-.075.305-.103l-.007-.026c-.056.014-.113.056-.152.06-.022-.007-.084-.053-.061-.102l-.02.067c-.093.028-.14.043-.19.047-.051.005-.104 0-.211-.011l.024.026c-.036.024-.072.05-.092.005-.061.008-.124.01-.183.003-.06-.01-.116-.03-.161-.06l-.005.072c-.026 0-.082-.097-.078.002l-.05.04c-.034 0-.05.044-.094.01h-.001l-.01-.006.003.006c-.083-.018.009.063-.086.037-.036-.047-.02.092-.065.08l-.057-.096c-.086-.047-.087.055-.201.068-.06-.03-.094-.113-.066-.194-.04.099-.017.063-.078.115-.013-.036-.007-.046.004-.08-.062-.038-.032.038-.076.04-.006.074-.012.189-.027.196l.02.02c-.044.044-.096.065-.154.03l-.001-.035-.06.02-.005-.047-.084.02.012.012c-.02.006-.084.025-.123.002v-.026c-.108-.075-.191.035-.315.047l.016-.053c-.043-.052-.011.08-.062.055l-.003-.066c-.044.084-.058-.017-.088-.05l.014.085-.057-.02c-.064-.029-.038-.107-.03-.15l-.043.064-.007-.074c-.033.087-.032-.014-.087.032-.004-.029.01-.044-.008-.056l-.093.103.056-.047-.01.11c-.06.081-.076-.013-.118.017l.029-.032c-.067.025-.07-.022-.106-.045.01.02.027.05 0 .064-.021.006-.01-.04-.028-.05-.006.072-.057.108-.1.07.002-.01.003-.02.007-.026-.012.012-.02.03-.037.01l.014-.08-.041.075c-.023-.023-.062.033-.056-.022l.014-.015-.186-.032v-.063c-.024.087-.1-.04-.1.07-.031-.063-.144.033-.112-.09-.122-.016-.2.093-.345.019-.043-.112-.192-.093-.287-.115-.193.027-.32.042-.518.05-.094-.163-.298.013-.41-.095l-.043.052c-.067-.107-.213-.016-.313-.127-.033.022-.05.028-.056.029.004.003.01.014.006.051-.028-.03-.102-.01-.083-.082l.01-.007c.018-.072-.107.017-.132-.055l.006.083-.061-.027.02-.012c-.307.117-.38-.15-.668-.052.05-.077-.061.033-.043-.06-.038-.132-.125-.002-.186.017-.001.005-.003.01-.007.017l-.09-.033c.083-.105-.09.081-.015-.005-.11-.072-.248-.108-.392-.137-.144-.028-.295-.055-.427-.113l.003.033c-.068-.024-.165-.011-.205-.072-.04-.063-.136.041-.16.04-.071.035-.096-.081-.072-.07-.065-.004-.154.085-.228.016-.001-.108-.263.023-.232-.087l-.004.01c-.086-.111-.23-.014-.325-.12 0 0 .005-.008.012-.014-.116.086-.232.17-.35.252-.02.128-.036.258-.054.387.038.122.079.246.119.367.205.044.407.08.61.117.145.084.29.17.438.252.194.044.388.091.582.132.196.041.39.084.585.12l.103-.067c.195.203.527.091.753.247l.019-.073c.07.01.058.055.073.072.163.028.33.044.496.065l.249.026.248.023c.164.015.324.035.48.06.159.02.313.047.46.088.053.053.23.047.273.1.205-.078.41-.066.606-.042l-.007.007.093-.01c.004.008.004.017 0 .02.108-.063.27.005.4.035l-.007.007c.094.002.187.003.28.002.093 0 .186-.011.279-.02.185-.019.365-.034.548-.06.183-.03.365-.057.55-.078.093-.007.183-.02.275-.03.092-.01.185-.018.279-.022.183.03.368-.026.556-.081.094-.03.189-.065.286-.089.098-.026.198-.041.303-.05.023.012.089.004.176-.02.043-.012.092-.025.142-.041l.158-.06c.21-.082.413-.195.44-.224"/>
        <path fill="#221E1F" d="M60.608 42.438l-.003.002c.018.026.015.014.003-.002M58.772 42.379L58.776 42.379 58.745 42.343zM59.656 41.97c-.043.012-.04.02-.029.027.014-.005.025-.013.03-.026M60.917 42.138c.023-.017.003-.023-.022-.03l-.035.035c.017-.004.04-.001.057-.005M60.57 41.868l-.01-.024c-.008.013-.002.02.01.024"/>
    </g>
</svg>
