<svg xmlns="http://www.w3.org/2000/svg" viewBox="0 0 168.12 84.08">
  <defs>
    <mask id="mask" x="84.12" y="0" width="68.53" height="65.35" maskUnits="userSpaceOnUse">
      <g id="prefix_b" data-name="prefix b">
        <path id="prefix_a" data-name="prefix a" class="cls-1" d="M84.12 0h68.53v65.35H84.12z"/>
      </g>
    </mask>
    <mask id="mask-2" x="95.77" y="14.97" width="72.34" height="69.03" maskUnits="userSpaceOnUse">
      <g id="prefix_d" data-name="prefix d">
        <path id="prefix_c" data-name="prefix c" class="cls-1" d="M95.77 15h72.35v69H95.77z"/>
      </g>
    </mask>
    <mask id="mask-3" x="11.66" y="15.05" width="72.34" height="69.03" maskUnits="userSpaceOnUse">
      <g id="prefix_b-2" data-name="prefix b">
        <path id="prefix_a-2" data-name="prefix a" class="cls-1" d="M11.66 15.06H84v69H11.66z"/>
      </g>
    </mask>
    <mask id="mask-4" x="0" y=".08" width="68.53" height="65.35" maskUnits="userSpaceOnUse">
      <g id="prefix_d-2" data-name="prefix d">
        <path id="prefix_c-2" data-name="prefix c" class="cls-1" d="M0 .08h68.53v65.35H0z"/>
      </g>
    </mask>
    <style>
      .cls-1{fill:#fff}.cls-1,.cls-11,.cls-12,.cls-13,.cls-2,.cls-5,.cls-6,.cls-7,.cls-8{fill-rule:evenodd}.cls-2{fill:#eedc7e}.cls-5{fill:#ea6852}.cls-6{fill:#221e1f}.cls-7{fill:#e3c951}.cls-8{fill:#efe5dc}.cls-11{fill:#d4c2b5}.cls-12{fill:#937c77}.cls-13{fill:#e1d5cb}
    </style>
  </defs>
  <g id="레이어_2" data-name="레이어 2">
    <g id="레이어_9" data-name="레이어 9">
      <path class="cls-2" d="M111.91 62.21l-.4-.05h.4m25.19-4.07h-.06z"/>
      <g mask="url(#mask)">
        <path class="cls-2" d="M105.14 33.67l-.23.28-.22.22c.14-.17.3-.33.45-.5m44.51-15.86a2 2 0 01.21-.4 3.63 3.63 0 01-.15.39c-.08.16-.16.34-.24.52a2.41 2.41 0 01.18-.51m-58 46.24l-.08.14a.61.61 0 000-.11c-.09.27-.13.41-.1.35-.25.45 0-.06-.16-.06a7.24 7.24 0 01.51-1.28c.08-.24.15-.39.25-.63a2.7 2.7 0 01.15-.49v.08a.31.31 0 00.08-.05 17.68 17.68 0 00.7-2.6c-.09.68.19-.12.28-.09a2.65 2.65 0 00-.16.46l-.19.55-.23.69c0-.07.07-.12.1-.12a4.08 4.08 0 00.23-.6c.06-.2.12-.39.17-.61a14.13 14.13 0 01.47-1.5v.2a2.61 2.61 0 00.21-1 5.48 5.48 0 00.58-1.5 4.25 4.25 0 01.24-1.13v.35c.31-.87.13-.75.39-1.46-.11.28-.06.33 0 .11a6.73 6.73 0 00.28-1.65l.06.14A10 10 0 0196 50c-.06.05-.07 0 0-.2a6.75 6.75 0 01.17-.69c.15-.56.39-1.21.5-1.56-.07.24 0 .3 0 .33a21 21 0 011.66-4.27l.24-.16c.34-.72.19-1.06.61-1.84l-.09.32c.18-.35.34-.64.49-.9s.28-.48.41-.7.27-.43.41-.64l.48-.71.07.08c.11-.2.24-.41.38-.63s.28-.42.39-.62a7.44 7.44 0 00.74-.82c.29-.36.61-.79 1-1.22a13.42 13.42 0 012.33-2.32v-.22a6.8 6.8 0 011.37-1.23l-.13.1c0 .08.16 0 .34-.2a5.3 5.3 0 01.58-.51c.26-.22.47-.51.22-.35.79-.55 1.75-1.24 2.68-1.83a14.56 14.56 0 012.37-1.28c.82-.48 1.54-.91 2.31-1.3.38-.21.77-.39 1.18-.59l.65-.28.69-.27c.66-.24 2-.63 2-.48l1-.36.9-.33a10 10 0 011-.32c.34-.1.73-.18 1.16-.27l-.36.15a11.91 11.91 0 001.31-.35c.15 0 0 0 0 0a4.37 4.37 0 001-.23l-.13.08c.35 0 .75-.09 1.18-.16l.66-.11.35-.06.35-.05a26.62 26.62 0 012.86-.32c-.33 0-.15.08 0 .1a4.75 4.75 0 01.75-.13l1-.07h1.77l-.47.06a4.64 4.64 0 011.38.07l.53.07a6.47 6.47 0 00.84 0l-.84-.15a5.59 5.59 0 00.76 0c.18 0 .28 0 .21-.06a1 1 0 01.43.12 2.12 2.12 0 00.69.12h-.32c-.15 0-.27 0-.1.05l.72.13.35.07.36.07c-1-.21.75 0 .1-.2.82.16-.19.16-.1.2h.1-.1a4.77 4.77 0 00.7.08c-.1-.23 1.19.16.5-.15.51.06 1 .16 1.47.24s.92.19 1.37.3c.89.2 1.74.42 2.6.59a2.1 2.1 0 00.33.15h.18l.12.05h.06v-.06l.07-.13.25-.49c.16-.34.32-.65.45-.87s.21-.32.25-.25a11.6 11.6 0 00.82-2.26 4 4 0 00-.22.61 15 15 0 01.68-1.82c-.1.31-.24.71-.37 1.1s-.23.76-.29 1c.17-.42.34-.93.5-1.39.08-.23.16-.45.22-.65l.15-.47.21-.16a2 2 0 01.26-.65 1.75 1.75 0 00.23-.66l-.09.12a11.12 11.12 0 00.42-1.32 11.55 11.55 0 01.36-1.26v.07a8 8 0 01.51-1.45l-.26.8c.08 0 1.1-3.11 1.72-5A42 42 0 0091.2 65.35c.14-.26.28-.51.4-.7s0-.38.05-.6"/>
      </g>
      <g mask="url(#mask-2)">
        <path class="cls-2" d="M147.38 47.53l.09-.18.26-.49-.36.67zM143 53.35v-.11c-.06.08.25-.24 0 .11zM137.32 58c.23-.14.49-.33.47-.28s-.31.2-.47.28zm-16.13 5s-.56 0 0-.08.37.08 0 .08zm-4-.08c.07 0 .13.06-.55 0 .5 0 .25 0 .06-.1l1.09.08c-.67-.04-.61 0-.55.04zm41-48c-.23.87-.43 1.62-.54 2l-.26.64c.1.17-.23 1.27-.18 1.26a1.05 1.05 0 01.08-.13c-.05.1-.06.13-.08.13-.09.2-.19.49-.25.43a14.35 14.35 0 00-.32 1.41l.16-.47c-.43 1.48-.48 2.42-.87 3.54l-.19-.08c-.29.74-.27 1.44-.57 2.06.13-.21.12-.27.06.24.09-.29.18-.83.31-1.31l-.16 1.05.38-1.61c-.11.7-.11.65 0 .39-.2 1-.38 1-.55 2-.12.32-.1 0-.24.33-.16.84-.59 1.52-.64 2.14-.08.18.08-.34 0-.31l-.17.68a1.52 1.52 0 00-.06.4l.16-.44a9.48 9.48 0 01-.33 1.22c-.08.45-.06.73.08.26 0 .19-.22.6-.23.43-.35 1.18.05.63-.4 1.74 0 .1 0 .19 0 0v-.12c-.1.28-.17.51-.22.71.29-1-.26.26.14-.91a7.19 7.19 0 00-.45 1.26c-.11.6.13.11.09.42 0 0-.1.22-.21.5l.17-.25c-.08.24-.16.48-.23.77l.12-.49a18.88 18.88 0 00-.79 2.2 2.16 2.16 0 00.06-.4c0-.08 0-.06-.16.24-.3 1-.11.22-.37.76a1.92 1.92 0 00-.16.66.77.77 0 01-.06.27 6.32 6.32 0 01-.27.73c-.07.15 0 0 .12-.12-.21.48-.36.86-.5 1.24-.08.19-.14.38-.23.58l-.3.63c.19-.41.36-.71.15-.14 0-.27-.38.75-.6 1.09v.11c-.17.27 0 0 .05-.29 0 0 0-.07.07-.22s0 .09-.07.22.06-.06.13-.24.08-.33 0-.27a.62.62 0 00-.15.2 3.45 3.45 0 00-.24.42c-.32.79-.16.71-.06.6a5.67 5.67 0 00-.28.6 3.25 3.25 0 00-.13.42c0 .13-.08.25-.14.41a4 4 0 01-.3.56 7.1 7.1 0 01-.42.61 11.42 11.42 0 00-.64 1c-.12.4.54-.83.39-.39a8.11 8.11 0 00-.57.83l-.26.46c-.08.16-.16.32-.25.48-.18.32-.35.66-.57 1q-.15.26-.33.51t-.39.51v-.25c-.25.32-.48.64-.74 1 .14-.14.27-.29.4-.44-.2.35-.81 1.08-.69.78a5 5 0 01-.32.48 3.37 3.37 0 01-.27.34c-.17.2-.35.4-.64.7.3-.33.3-.34.28-.32s-.06 0 .12-.22l-.21.23-.18.19-.25.28c-.14.16-.24.32-.45.56 0-.11-.24.1-.41.28a10.24 10.24 0 01-.77.88c-.15.16-.32.31-.49.48l-.47.46c-.13.13-.27.25-.41.37L140 56l-.22.17-.44.34-.45.33-.46.33-.45.32c-.3.21-.61.42-.89.64H137.21a2.76 2.76 0 01-.37.27l-.53.34-.42.27a1.09 1.09 0 00-.38.13c0 .1-.47.31-.62.45-.46.2 0-.13-.76.25-.3.15-.31.21-.26.23l-.47.14-.64.24a1.08 1.08 0 01.24-.11l.22-.09c0-.07-.24.07-.26 0-.37.15-.11.15-.59.31l.4-.25a3 3 0 00-.5.23c.14-.08.19-.13.19-.16l-.53.21v.06c0 .06.32 0 .31.06-1 .34-1.83.71-2.65 1l.13-.13a3.14 3.14 0 00-.71.28l.16-.05-.29.13a.57.57 0 01.13-.08l-.63.15c.35-.12.46-.18.47-.26a10.22 10.22 0 00-1.71.53l-.81.12-.9.12-.73.07h-.27c-.48.08-1 .12-1.46.16s-.74.08-.75.14a.93.93 0 00.33-.09.35.35 0 01-.26.16s-.07 0-.07-.07a12.76 12.76 0 00-1.92.07c-.68-.07 0 0 .17-.13a5.15 5.15 0 00-1 0c-.29 0-.52 0-.63-.07-.8 0 .18 0-.09.12a2 2 0 00-.9-.11 9.11 9.11 0 01-1.33-.1c-.34 0 .34.07-.24.11.06 0-.25-.07-.4-.08l-.16.09-.51-.23-.69-.05c-.06 0 0 0 0 .06s0 .06-.79 0h.1c-.4-.15-1.08 0-2.15-.26.36.07.16 0 .28 0h-.61c.06 0 .08 0 0 0-.52-.15-.47 0-1.07-.18h.27l-.84-.13h-.19.07c-2.35-.36-4.54-.78-6.5-1.13H103h.11-.13a1.28 1.28 0 00-.51.13.09.09 0 00.08 0h.33a.91.91 0 01.17 0h-.07a.77.77 0 00-.17.07 3.11 3.11 0 00-.76.56c-.3.24-.45.4-.55.47s-.13.08-.16.07 0 0-.1 0a1.57 1.57 0 00-.34.32c-.29.39-.55.79-.8 1.2h-.06a.83.83 0 00-.21.37c0-.06-.18.17-.39.49l-.6 1 .17-.15a12.28 12.28 0 01-1.07 1.77 9.58 9.58 0 00-1 1.55l-.32.86-.19.12a6.19 6.19 0 01-.64 1.3 42 42 0 0062.49-56z"/>
      </g>
      <path class="cls-5" d="M149.87 42.4c0-.13.09-.24.07-.22s-.08.21-.07.22m-12.08 15.34c0-.05-.24.13-.47.27l.47-.27m-8.66 4.06l-.16.05a.57.57 0 00-.13.08l.29-.13m-6.6 1a1.2 1.2 0 01-.33.09l.07.07a.35.35 0 00.26-.16m-19.44-2H103h.13M153.51 33c0 .16 0 .07 0 0m-14-9.92c.65.17-1.09 0-.1.2-.09 0 .92 0 .1-.2m17.79-4.15l.08-.13a1.05 1.05 0 00-.08.13"/>
      <path class="cls-5" d="M91.66 63.69a.21.21 0 010-.12c.08-.27.13-.35.16-.37l-.15.46m20.25-1.48h-.4l.4.05m-15.53 7.4l.19-.12.32-.86a9.58 9.58 0 011-1.55 12.28 12.28 0 001.07-1.77l-.17.15.6-1c.21-.32.38-.55.39-.49a.83.83 0 01.21-.37h.06c.25-.41.51-.81.8-1.2a1.57 1.57 0 01.34-.32h.1c.03 0 .06 0 .16-.07s.25-.23.55-.48a3.34 3.34 0 01.76-.55.77.77 0 01.17-.07h.07c.07 0 .1 0 0 0a.91.91 0 00-.17 0h-.33a.09.09 0 01-.08 0 1.28 1.28 0 01.51-.13h.09c2 .35 4.15.77 6.5 1.13h-.07.19l.84.13h-.27c.6.16.55 0 1.07.18.05 0 0 0 0 0h.61c-.13 0 .08.11-.28 0 1.07.23 1.75.11 2.15.26h-.1c.76.05.8 0 .79 0s0 0 0-.06l.69.05.51.23.16-.1c.15 0 .46.05.4.09.58 0-.09-.06.24-.11a9.11 9.11 0 001.33.1 2 2 0 01.9.11c.27-.08-.71-.08.09-.12.11.1.34.09.63.07a5.15 5.15 0 011 0c-.2.1-.85.06-.17.13a12.76 12.76 0 011.92-.07c0-.06.32-.1.75-.14s1-.08 1.46-.16h.27l.73-.07.9-.12.81-.12a10.22 10.22 0 011.71-.53c0 .08-.12.14-.47.26l.63-.15a3.14 3.14 0 01.71-.28l-.13.13c.82-.24 1.61-.61 2.65-1 0 0-.21 0-.31-.06s0 0 0-.06l.53-.21s-.05.08-.19.16a3 3 0 01.5-.23l-.4.25c.48-.16.22-.16.59-.31 0 .07.29-.07.26 0l-.22.09a1.08 1.08 0 00-.24.11l.64-.24.47-.14c-.05 0 0-.08.26-.23.76-.38.3-.05.76-.25.15-.14.66-.35.62-.45a1.09 1.09 0 01.38-.13l.42-.27.53-.34a2.76 2.76 0 00.37-.27c.07-.06.07-.08-.05 0h-.1.06c.28-.22.59-.43.89-.65l.45-.31.46-.33.45-.33.44-.34.25-.1.2-.18c.14-.12.28-.24.41-.37l.47-.46c.17-.16.34-.32.49-.48a10.24 10.24 0 00.77-.88c.17-.18.45-.39.41-.28.21-.24.31-.4.46-.56l.24-.28.18-.19.21-.23c-.19.27-.14.24-.12.22s0 0-.28.32c.29-.3.47-.5.65-.7s.17-.21.26-.34a5 5 0 00.32-.48c-.12.3.48-.43.69-.78-.13.15-.26.3-.4.44.26-.37.49-.69.74-1v.25q.21-.26.39-.51t.33-.51c.22-.33.39-.67.57-1 .09-.16.17-.32.25-.48l.26-.46a8.11 8.11 0 01.57-.83c.15-.44-.51.79-.39.39a11.42 11.42 0 01.64-1 7.1 7.1 0 00.42-.61 4 4 0 00.3-.56c.06-.16.1-.28.14-.41a3.25 3.25 0 01.13-.42 5.67 5.67 0 01.28-.6c-.1.11-.26.19.06-.6a3.45 3.45 0 01.24-.42.62.62 0 01.15-.2c.08-.06.09 0 0 .27s-.12.26-.13.24c-.1.24-.22.56-.05.29v-.11c.21-.34.63-1.36.59-1.09.21-.57 0-.27-.15.14l.3-.63c.09-.2.15-.39.23-.58.14-.38.29-.76.5-1.24-.08.15-.19.27-.12.12a6.32 6.32 0 00.27-.73.77.77 0 00.06-.27 1.92 1.92 0 01.16-.66c.26-.54.07.25.37-.76.12-.3.16-.32.16-.24a2.16 2.16 0 01-.06.4 18.88 18.88 0 01.79-2.2l-.12.49c.07-.29.15-.53.23-.77l-.17.25c.11-.28.18-.52.21-.5 0-.31-.2.18-.09-.42a7.19 7.19 0 01.45-1.26c-.4 1.17.15-.1-.14.91 0-.2.12-.43.22-.71v.12c.45-1.11.05-.56.4-1.74 0 .17.19-.24.23-.43-.14.47-.16.19-.08-.26a9.48 9.48 0 00.33-1.22l-.16.44a1.27 1.27 0 01.07-.4l.16-.68c.06 0-.1.49 0 .31.06-.62.49-1.3.65-2.14.14-.37.12 0 .24-.33.17-.95.35-1 .55-2-.15.25-.15.31 0-.4l-.38 1.61.16-1.05c-.13.48-.22 1-.31 1.31.06-.51.07-.45-.06-.24.3-.62.28-1.32.57-2.06l.19.08c.39-1.12.44-2.06.87-3.54l-.16.47a11.9 11.9 0 01.32-1.41c.06.06.16-.23.25-.43-.05 0 .28-1.09.18-1.26l.26-.64c.11-.38.31-1.13.54-2a42.56 42.56 0 00-5.61-5.54c-.62 1.87-1.64 4.94-1.72 5l.26-.8a8 8 0 00-.51 1.45v-.07a11.55 11.55 0 00-.36 1.26 11.12 11.12 0 01-.42 1.32l.09-.12a1.75 1.75 0 01-.23.66 2 2 0 00-.26.65l-.21.16-.15.48c-.06.19-.14.41-.22.64-.16.46-.33 1-.5 1.39.06-.26.16-.63.29-1s.27-.79.37-1.1a15 15 0 00-.68 1.82 4 4 0 01.22-.61 11 11 0 01-.82 2.26c0-.07-.13 0-.25.26a9.23 9.23 0 00-.45.86l-.25.49-.07.13v.06h-.07l-.11-.05h-.18a2.1 2.1 0 01-.33-.15c-.87-.17-1.71-.39-2.6-.59-.45-.11-.9-.2-1.37-.3s-1-.18-1.47-.24c.69.31-.6-.08-.5.15a4.77 4.77 0 01-.7-.08h.1-.1l-.36-.08-.35-.07L138 23c-.17 0-.05-.05.1-.05h.32a2.12 2.12 0 01-.69-.12 1 1 0 00-.43-.12c.07 0 0 .06-.21.06a5.59 5.59 0 01-.76 0l.84.15a5 5 0 01-.84 0l-.53-.07a4.64 4.64 0 00-1.38-.07l.47-.06h-1.77l-1 .07a4.75 4.75 0 00-.75.13c-.14 0-.32-.07 0-.1a26.62 26.62 0 00-2.86.32l-.35.05-.35.06-.66.11c-.43.07-.83.12-1.18.16l.13-.07a5.8 5.8 0 01-1 .23s.12-.08 0-.05-.87.26-1.31.34l.36-.15c-.43.09-.82.17-1.16.27a10 10 0 00-1 .32l-.9.33-1 .36c0-.15-1.38.24-2 .48l-.69.27-.65.28c-.41.2-.8.38-1.18.59-.77.39-1.49.82-2.31 1.3a14.56 14.56 0 00-2.37 1.28c-.93.59-1.89 1.28-2.67 1.83.24-.16 0 .13-.23.35a5.3 5.3 0 00-.58.51c-.18.16-.32.28-.34.2l.13-.1a7 7 0 00-1.55 1.24v.22a13.42 13.42 0 00-2.33 2.32c-.36.43-.68.86-1 1.22a6.61 6.61 0 01-.74.82c-.11.2-.25.41-.39.62s-.27.43-.38.63l-.07-.08-.48.71c-.14.21-.28.42-.41.64s-.27.44-.41.7-.31.55-.49.9l.09-.32c-.42.78-.27 1.12-.61 1.84l-.24.16a21 21 0 00-1.66 4.27v-.33c-.11.35-.35 1-.5 1.56-.08.28-.14.52-.17.69s0 .25 0 .2a10 10 0 00-.59 2.29l-.06-.14a6.73 6.73 0 01-.21 1.53c-.07.22-.13.17 0-.11-.26.71-.08.59-.39 1.46v-.34a4.11 4.11 0 00-.24 1.13 5.52 5.52 0 01-.58 1.49 2.61 2.61 0 01-.21 1v-.2a14.13 14.13 0 00-.47 1.5c0 .21-.11.41-.17.61a4.08 4.08 0 01-.23.6s-.07 0-.1.12l.23-.69.19-.56a2.24 2.24 0 01.16-.45c-.09 0-.36.77-.28.09A16.78 16.78 0 0192.3 62a.31.31 0 01-.07.09v-.08a3.4 3.4 0 00-.15.49c-.1.24-.17.39-.25.63a7.24 7.24 0 00-.51 1.28c.11 0-.09.51.16.06 0 .06 0-.08.1-.34a.7.7 0 00.05-.18L92 63a3.73 3.73 0 01-.34 1.09c0 .22 0 .46-.05.6s-.26.44-.4.7A43.11 43.11 0 0095.77 71a6.19 6.19 0 00.59-1.38"/>
      <path class="cls-5" d="M137.13 58.12h-.07zm-20.44 4.79c.68.09.61.07.55 0s-.12-.08.6 0l-1.09-.08c.19 0 .44.12-.06.1m4.5.11c.37-.05.46-.06 0-.08s0 .06 0 .08m21.74-9.78v.11c.29-.35 0 0 0-.11m4.45-5.71l.35-.67-.26.49zm2.48-30.12a2 2 0 00-.21.4 2.41 2.41 0 00-.18.51c.08-.18.16-.36.24-.52a2.28 2.28 0 00.15-.39m-44.72 16.24c-.15.17-.31.33-.45.5l.22-.22z"/>
      <path class="cls-6" d="M121.06 37.84zm0-.09s-.07-.1-.06-.14 0 .08 0 .12zM121.06 37.34H121s0-.05 0 0m-.08.06c0 .06.07 0 0 0s0 .05 0 0m-.06.23zm0-.46a.07.07 0 010-.06zm0 .16h.07zm0-.34zm0-.12h-.09c-.03 0 0 0 0 .07m0 .19zm0 .19h0m0-.1zM120.82 37.14zm0-.2a.07.07 0 01-.06 0 .09.09 0 000 .06m-.21-.18zM120.57 36.89v-.07h-.05l.05.06zM120.59 36.94h.07c.07 0 0 0 0 0h-.07l.05.06h-.09m.15.32a.3.3 0 010-.09l-.06.08m-.09-.17a.09.09 0 010 .05m0-.37h-.07zm-.08 0zm-2-.07h-.07m1.1-.28h0m.64.17"/>
      <path class="cls-6" d="M118.79 36.59v.16l-.07.05a.3.3 0 010-.17m.41 0h-.1a.56.56 0 010-.15s.1 0 .12.08m.58-.09c.06 0 0 .05 0 0s.14-.11.21 0 0 .1 0 .13-.06-.05-.09-.06 0 0-.06 0 .05 0 .1.06a2.47 2.47 0 00-.29-.06c0-.05 0-.11.11-.12m1.29 1.92l.07-.09c-.06 0 0-.1-.06-.11s-.09 0-.14 0a.29.29 0 000-.09 1.54 1.54 0 00-.54-1.16s.11-.09.13-.17 0 0-.06 0 0 .1 0 .1v-.07c0-.07-.09 0-.13.08a1.31 1.31 0 00-.27-.19c0-.05.07 0 0-.06s.11 0 .14 0v.05s0-.05 0 0 0 .11.08.06.13 0 .15 0 0 0 0-.07c0 .08-.1-.08-.11 0v-.14c0-.08 0 0 0 0h-.12c-.03 0 0 0 0 0v-.09a.08.08 0 00-.09 0s-.08 0 0 0h-.09a.56.56 0 00-.13 0 .09.09 0 00-.06 0 .11.11 0 01-.09 0 .16.16 0 01-.1 0h-.37v.05a.23.23 0 00-.12.06h-.18c-.06 0 0 0 0 0s-.09 0-.13.05 0 .08-.1.07 0 .05-.09 0-.07.09 0 .16 0 0 0 .05h-.05v.09s-.07 0-.08-.06v.23c0-.01-.14.21-.25.3.11 0-.07 0 0 .08s0 0-.06 0-.07.09 0 .16.06.09.13.11 0 .05 0 .08-.06 0-.06 0-.06.14 0 .15 0 .05 0 .1c.07 0 0 0 0 .08v.14c.1 0 0 .09 0 .14s-.1.11-.11.15c0 .1.06 0 .08 0h-.07c.01 0 .13.08.1.16s0 0 .06 0 0 .14.05.14.08.07.13.07 0 .08 0 .11.08 0 0 .09l.08.07h.11c.03 0 0 0 0 0s.07.09.17.08 0 0 .06.07a.19.19 0 00.12.07c.06 0 .1 0 .15.09s.09.06.13 0h.08c-.08 0 0-.07 0-.1s.06.07 0 .07.09 0 .08.1a1.79 1.79 0 00.51.07v-.06h.06v.06c0 .06.07 0 .07-.06v.08s0-.06.06-.07h.07s.06 0 0-.07.1 0 .16 0l.13-.06a.17.17 0 01.1-.1s-.06 0 0-.07.1 0 .19 0 0 0 0-.06v-.06c0-.06 0 0 .08 0s.06-.08.1-.11a.34.34 0 00.12-.12l-.05-.05h.11s-.07-.07 0-.07a.47.47 0 00.16-.29l.06-.17a.59.59 0 01.1-.16h-.06M119.07 39.64zM120.5 36.98zM120.16 36.42s-.1 0 0 0m0 .33zm-1.08-.22v-.09zm2 1.57zm-.06-.07h.06-.06m12-.28zm0-.09s-.07-.1-.06-.14 0 .08 0 .12zM133.02 37.25s0-.05 0 0m-.08.06c0 .06.07 0 0 0s0 .05 0 0m0 .23zm0-.46v-.06zm-.05.16h.07zm0-.34zm0-.12h-.08c-.08 0 0 0 0 .07m0 .19zM132.93 37.29h0m0-.1zm0 0zm0-.2a.09.09 0 01-.06 0 .15.15 0 000 .06m-.2-.18zM132.69 36.94v-.07c0-.07 0 0-.06 0l.05.06zm0 .11h.08c.03 0 0 0 0 0h-.07l.05.06h-.09m.15.32v-.09l-.07.08m-.09-.17h-.05v.05m0-.37h-.07zm-.08 0zm-2-.07h-.07m1.1-.28h0M131.03 39.9z"/>
      <path class="cls-6" d="M130.86 36.59v.16l-.07.05a.3.3 0 010-.17m.42 0h-.1a.56.56 0 010-.15.32.32 0 01.13.08m.57-.09c.06 0 0 .05 0 0s.13-.11.2 0 0 .1 0 .13 0-.05-.09-.06-.06 0-.07 0 .05 0 .1.06a2.8 2.8 0 00-.28-.06c0-.05 0-.11.11-.12m1.25 1.86l.08-.09c-.07 0 0-.1-.06-.11s-.09 0-.14 0 0-.06 0-.09a1.53 1.53 0 00-.53-1.16s.11-.09.14-.17a.08.08 0 01-.07 0v.03c0-.07-.09 0-.12.08a1.57 1.57 0 00-.26-.19c0-.05.06 0 0-.06s.11 0 .14 0v.05s0-.05 0 0 0 .11.08.06.13 0 .15 0 0 0 0-.07c0 .08-.1-.08-.11 0v-.14c0-.08 0 0 0 0h-.12c-.03 0 0 0 0 0v-.09a.08.08 0 00-.09 0s-.07 0 0 0h-.09a.48.48 0 00-.12 0 .09.09 0 00-.06 0 .11.11 0 01-.09 0 .15.15 0 01-.1 0h-.36v.05a.23.23 0 00-.12.06H131c-.07 0 0 0 0 0s-.09 0-.12.05-.06.08-.11.07c-.06 0 0 .05-.1 0s-.06.09 0 .16-.05 0-.05.05h-.05v.09s-.07 0-.09-.06v.23c0-.01-.14.21-.25.3.11 0-.06 0 0 .08s0 0-.06 0-.07.09 0 .16 0 0-.05 0 .06.09.13.11 0 .05 0 .08-.05 0-.06 0-.06.14 0 .15a.34.34 0 000 .1c.07 0 0 0 0 .08-.05.1 0 0 0 .14.09 0 0 .09 0 .14s-.11.11-.12.15c0 .1.06 0 .09 0h-.08s.14.08.1.16 0 0 .06 0 0 .14.05.14.08.07.13.07 0 .08 0 .11.08 0 0 .09l.07.07h.12c0 .09.06.09.16.08s0 0 .06.07a.19.19 0 00.12.07c.06 0 .1 0 .15.09s.09.06.13 0h.08c-.08 0 0-.07 0-.1s.06.07 0 .07.08 0 .07.1a1.79 1.79 0 00.51.07v-.06h.06v.06c0 .06.06 0 .06-.06v.08s0-.06.07-.07h.08s.07 0 0-.07.1 0 .16 0l.13-.06a.17.17 0 01.1-.1s-.05 0 0-.07.09 0 .18 0 0 0 0-.06v-.06c0-.06 0 0 .07 0a.27.27 0 01.1-.11.37.37 0 00.13-.12s-.05 0-.05-.05h.1s-.07-.07 0-.07a.52.52 0 00.16-.29 1.09 1.09 0 010-.17.59.59 0 01.1-.16h-.06M132.57 36.98zM132.29 36.52s-.1 0 0 0M132.3 36.77h-.05m0 .08zm-.5-.22h-.05m-.58 0v-.09zm2 1.57zm-.07-.07h.06-.05"/>
      <path class="cls-7" d="M132.61 51.29l.22-.14-.28.1zm2.57-1.81a.88.88 0 01-.09.2 1.74 1.74 0 01-.1.19c-.05 0-.12 0-.21.1a2.73 2.73 0 00-.26.24l.21-.18v.13l-.22.15-.15.14-.17.11h-.11a.4.4 0 01-.13 0 1.5 1.5 0 01-.25.19c-.09 0-.08 0 0-.05l-.17.11-.16.1a2.38 2.38 0 01-.42.19.82.82 0 00.52-.18c.09 0 .17-.11.26-.15a.54.54 0 01.25-.06 4.72 4.72 0 01.5-.3l.25-.16a1.37 1.37 0 00.22-.19c.14-.21.41-.57.3-.66m-.25.6l.08-.08a.22.22 0 000-.08l-.06.08-.02.08m-2.56-5.68a.31.31 0 01.09-.07z"/>
      <path class="cls-7" d="M135.18 46.06s0-.13.14 0 0 0 0 .07l.07.06c0 .08-.09 0-.14 0s-.05-.08-.07-.13zm-.92-1.06a1 1 0 01.35.18c.15.11.29.23.37.2s.19.25-.07.07a.59.59 0 01.21.37.73.73 0 000 .23 3.59 3.59 0 00-.9-1.06zm-1.76-.38l-.57.14.25-.08.33-.11a.94.94 0 01.42 0 1.34 1.34 0 01.53 0 3.41 3.41 0 01.46.09.3.3 0 01-.14.11 1.72 1.72 0 00-1.28-.18zm-10.23.55v.06h-.12zm2.35.14h-.37zm6.08-.31l-.56.08a2 2 0 01.55-.08zm.45-.07h-.2a.42.42 0 01.2-.06zm0-.15c.26 0 .2-.12.51-.09a.56.56 0 00-.18.16h.33l-.49.09c-.11-.16-.41-.08-.21-.2zm3 .1a1 1 0 00-.18-.1.29.29 0 01.13.05zm1.83 3v-.17a3.85 3.85 0 00-.1-.68 4.34 4.34 0 00-.51-1.29l.09.06-.24-.18a1.33 1.33 0 00-.22-.43.8.8 0 00-.42-.32h.06c-.13-.1-.29-.25-.5-.39a1.89 1.89 0 00-.71-.28 1.28 1.28 0 01-.48 0 .71.71 0 00-.34.08c.08 0 0 0 0 .11a.69.69 0 00-.17.14c-.14-.09 0-.09-.19-.17h.16l-.06-.09a.93.93 0 01-.67.22.88.88 0 00-.55.12c-.22 0-.34.13-.5.19s.08-.1.16-.15a10 10 0 01-1.4.21c-.14.08.06.08-.08.15s-.23 0-.08-.1a2.27 2.27 0 00-.79 0 3.38 3.38 0 01-.94 0c-.28.09-.1.12-.54.18.1 0-.11-.16.15-.18h-.71a1.23 1.23 0 00-.55.13c0-.12-.09 0-.25-.08-.16.1-.24 0-.36 0L125 45s-.13 0-.14-.07v.08c-.17 0-.08-.1-.29-.09v.06c-.13 0-.35 0-.37-.05s0 0 .07 0a.7.7 0 00-.39-.05 1.48 1.48 0 01-.42 0l.06.13c-.25 0-.15 0-.14-.08-.17 0-.2-.05-.43-.08s-.06 0-.09.08l-.23-.05.15-.06a1.11 1.11 0 01-.6 0 .89.89 0 00-.52 0c-.13-.06.13-.07 0-.1-.4-.12-.93 0-1.26-.14a5.69 5.69 0 00-.86-.21l-.45-.11-.22-.07h-.26a2.27 2.27 0 00-.25-.06h-.27a2.06 2.06 0 01-.32.1.93.93 0 00-.35.15v-.09c-.21.08-.4.22-.53.25v-.06a2.16 2.16 0 00-.64.46 1.8 1.8 0 00-.35.48c-.08.14-.13.1-.19.11a1.54 1.54 0 00-.24.63l-.13.15v.12c0 .1-.07 0-.12.08s-.07.43-.11.64a3.27 3.27 0 00-.07.56.33.33 0 010 .2s0 .08-.06 0a2.49 2.49 0 000 .4 1.05 1.05 0 000 .19.7.7 0 00.06.17 3.76 3.76 0 00.16.37c0 .07.07.15.11.22l.06.12v.12c0 .09.07.25.2.38l.18.18a.22.22 0 01.07.17c.15.09.25.19.36.26l.15.09.17.05a1.76 1.76 0 00.79.37.88.88 0 01.39.06.72.72 0 00.39 0h-.12a.24.24 0 00.21.09h.28v.08a18.6 18.6 0 002.54.48c.24 0-.08-.13.24-.08.09.07-.17.09 0 .15a.71.71 0 01.41 0s0 .06-.15.07c.11.06.49 0 .71.08 0 0 0-.05.08-.06.35-.06.77.16.8.11s.12 0 0 0c.12 0 .3 0 .27.1a.44.44 0 01.22-.07l-.06.06a1.67 1.67 0 01.18-.05h-.08a.56.56 0 00.26 0c.09 0 .16 0 .15.06l.26.07a.69.69 0 01.4-.07c.06.13.45 0 .68 0 .18-.06.64 0 .55-.06.18 0 .41 0 .32.06.14 0 .44 0 .51-.12l.29.1c.16-.17.57 0 .58-.15.15 0 .12 0 .23.07a1.89 1.89 0 01.67-.12c.23 0 .48-.12.8-.17l.08.12c.16 0 .19-.15.35-.14a1.43 1.43 0 01.49 0c.22-.13.41-.13.6-.26.21.08-.26.1-.09.17a3.06 3.06 0 001-.26v.07a2.33 2.33 0 00.32-.24c.14-.12.23-.24.19-.29 1.69-.49 3.15-1.42 3.15-3.15v-.16a3.39 3.39 0 00-.25-1.24 1.64 1.64 0 01.2.42c0 .12 0 .24.07.36v.3a1.67 1.67 0 01.05.19h-.06a.36.36 0 01.06.11.74.74 0 010 .17 1.11 1.11 0 010 .36v.45c-.06.1-.07 0-.07 0a.69.69 0 010 .18l-.06-.14a1.2 1.2 0 01-.11.3 1.08 1.08 0 00-.12.22c.1-.06.17-.2.16-.07a.51.51 0 00-.13.12l-.07.14a.94.94 0 000 .16.6.6 0 01-.08.16c.09-.1.15-.16.14-.27s.07 0 .13-.07a1.29 1.29 0 000-.19h.1v-.32s.07 0 .1-.1 0-.11.06 0a1.77 1.77 0 01.07-.29.67.67 0 000-.28c.08-.15 0 .25.06.09a2.08 2.08 0 000-.35v-.17z"/>
      <path class="cls-6" d="M127.28 47.85zM121 47.77zM121 47.74v-.06M128.77 47.72zM129.78 47.8h-.12v.2z"/>
      <path class="cls-6" d="M131.09 49H131c.34-.11.52 0 .8-.17.05 0 0-.24.56 0s0 0 .05 0h-.09s.07-.1.14-.12v.05l.15-.06.07.07s0-.2.14-.14c-.08-.1.05-.08 0-.13.08 0 .22-.09.25-.15h-.06l-.14-.06a1.6 1.6 0 01-.27-.16c.12 0 0 0 0 0-.07 0-.08-.08-.12-.09h-.1V48c0 .12-.35-.09-.42-.08s-.14 0-.23 0-.08-.06-.15-.1 0 .06 0 .07l-.12-.06c.06 0 0 0 0-.06s-.23-.08-.24 0c-.12 0-.13-.08-.18-.08s.06 0 .06.06-.39-.14-.38 0V47.97c0-.02-.19 0-.29 0l.14.23c-.09 0-.25-.14-.25-.06l-.06-.07c-.19-.14-.11.08-.18 0l-.09-.08h.01a.64.64 0 01-.2-.11c0 .05 0 .08-.1.09s-.14.07-.28 0v.1h-.1V48l.39-.08h-.2a.12.12 0 01-.06-.14v.08a1 1 0 01-.51 0s-.09.06-.11 0a.69.69 0 01-.42-.11v.09s-.09-.13-.09 0h-.19c-.1 0 0 .08-.11 0s0 .12-.09.1l-.06-.12c-.11-.06-.11.07-.26.08a.21.21 0 01-.07-.25c-.06.12 0 .08-.11.14a.16.16 0 010-.1c-.07-.05 0 0-.1 0a.83.83 0 010 .25c-.06.05-.12.08-.19 0h-.08V48h-.11a.28.28 0 01-.16 0c-.13-.09-.23.05-.39.06V48c0-.07 0 .1-.07.07V48c0 .1-.07 0-.11-.06v.1h-.07c-.08 0 0-.13 0-.19v.09-.1c0 .11 0 0-.11 0s0-.06 0-.07l-.11.13.07-.06v.14c-.07.1-.1 0-.15 0-.08 0-.09 0-.14-.05s0 .06 0 .08v-.07c0-.02-.06.15-.12.1V48v.1H125.29v-.08c0 .11-.13-.05-.12.09 0-.07-.17.05-.14-.1-.16 0-.24.13-.42 0s-.24-.09-.36-.11-.39.08-.63.11c-.12-.2-.36 0-.5-.09v.07c-.09-.12-.26 0-.39-.12h-.07v.06c0 .06-.13 0-.11-.09 0-.09-.13 0-.16-.06v.11h-.08c-.36.18-.48-.15-.82 0 .06-.1-.07 0-.06-.07s-.15 0-.22 0h-.12c.09-.14-.1.11 0 0a6.9 6.9 0 00-1-.21c-.09 0-.2 0-.26-.07s-.16.08-.18.08-.13-.09-.1-.08-.18.12-.27.05-.32.06-.29-.08c-.11-.12-.28 0-.4-.11l-.39.35v.49l.19.44.74.07.56.25c.47.07 1 .13 1.43.17l.11-.09c.26.23.65.05.93.22v-.09c.09 0 .07.06.09.08.8.07 1.63 0 2.34.14.07.07.28 0 .34.11a1.38 1.38 0 01.72-.09h.59c.9 0 1.71-.23 2.59-.18.43.11.88-.15 1.36-.09a2.93 2.93 0 001.1-.19M130.35999999999999 48v-.05zm1.2-.23h-.05.05m1.09.28"/>
    </g>
    <g id="레이어_10" data-name="레이어 10">
      <path class="cls-8" d="M7.88 63l-.35 1v.11A4.12 4.12 0 007.88 63"/>
      <path class="cls-8" d="M7.54 64a1.67 1.67 0 010 .18.88.88 0 010-.15M53 58.22h-.06zM7.53 63.65a.38.38 0 000 .12l.15-.46s-.08.1-.16.37m20.26-1.36h-.39.39"/>
      <g mask="url(#mask-3)">
        <path class="cls-8" d="M63.26 47.61l.09-.18.27-.49-.36.67zm-4.42 5.82v-.1c-.02.07.29-.25 0 .1zm-5.64 4.66c.23-.14.49-.33.48-.27zm-16.13 5s-.56 0 0-.08.37.04 0 .09zM33.13 63c.06 0 .13.06-.56 0 .5 0 .25-.05.06-.1l1.09.08c-.72-.04-.66.02-.59.02zm41-48c-.23.87-.43 1.62-.54 2l-.25.64c.09.17-.24 1.27-.18 1.26a.5.5 0 01.07-.13c0 .1-.06.13-.07.13-.1.2-.2.49-.26.43a11.48 11.48 0 00-.31 1.41l.16-.47c-.44 1.48-.48 2.42-.87 3.54l-.2-.08c-.28.74-.27 1.44-.57 2.06.13-.21.12-.27.06.24.09-.29.18-.83.32-1.31l-.16 1 .37-1.61c-.1.71-.11.65.05.4-.2 1-.38 1-.56 2-.12.32-.09 0-.24.33-.16.84-.58 1.52-.64 2.14-.08.18.09-.34 0-.31l-.17.68a1.19 1.19 0 00-.06.4l.15-.44a9.48 9.48 0 01-.33 1.22c-.08.45 0 .73.09.26 0 .19-.22.6-.24.43-.35 1.18 0 .63-.39 1.74 0 .1-.05.19 0 0v-.12c-.1.28-.17.51-.22.71.29-1-.25.26.15-.91-.15.1-.3.89-.46 1.26-.11.6.13.11.1.42 0 0-.11.22-.22.5l.17-.25c-.08.24-.15.48-.23.77l.13-.49a17 17 0 00-.8 2.2 2.16 2.16 0 00.06-.4c0-.08 0-.06-.16.24-.3 1-.11.22-.37.76a2 2 0 00-.15.66 2 2 0 01-.06.27c0 .15-.13.37-.28.73-.06.15 0 0 .12-.12-.21.48-.35.86-.5 1.24-.07.19-.14.38-.23.58l-.3.63c.2-.41.36-.71.16-.14 0-.27-.39.75-.6 1.09v.11c-.17.27 0-.05 0-.29 0 0 0-.07.07-.22s0 .09-.07.22.06-.06.14-.24.07-.33 0-.27a.82.82 0 00-.15.2 2.55 2.55 0 00-.23.42c-.32.79-.17.71-.07.6-.12.25-.21.44-.28.6a3.25 3.25 0 00-.13.42c0 .13-.08.25-.14.41a3.19 3.19 0 01-.3.56 6.38 6.38 0 01-.41.61 9.43 9.43 0 00-.65 1c-.12.4.55-.83.39-.39a8.11 8.11 0 00-.57.83c-.09.15-.17.3-.25.46l-.26.48c-.18.32-.35.66-.56 1l-.34.51q-.18.25-.39.51v-.25c-.24.32-.48.64-.74 1 .14-.14.27-.29.41-.44-.21.35-.82 1.08-.7.78-.12.2-.22.35-.31.48s-.18.24-.27.34-.35.4-.65.7c.3-.33.3-.34.28-.32s-.06.05.12-.22l-.21.23-.17.19-.25.28c-.14.16-.24.32-.46.56 0-.11-.24.1-.41.28a8.75 8.75 0 01-.77.88l-.48.48c-.17.15-.32.32-.48.46l-.4.37-.21.18-.22.17-.44.34-.45.33-.45.33c-.16.1-.31.21-.46.32s-.6.42-.89.64h.13l-.37.27-.53.34-.43.27a1.16 1.16 0 00-.38.13c.05.1-.46.31-.62.45-.46.2 0-.13-.76.25-.29.15-.3.21-.25.23a4 4 0 00-.47.14l-.65.24a1.33 1.33 0 01.24-.11l.22-.09c0-.07-.24.07-.26 0-.37.15-.11.15-.58.31l.39-.25a3 3 0 00-.5.23c.15-.08.19-.13.19-.16l-.53.21v.06c0 .06.33 0 .31.06-1 .34-1.83.71-2.64 1l.12-.13a3.14 3.14 0 00-.71.28h.16l-.28.13a.36.36 0 01.12-.08l-.62.15c.35-.12.46-.18.46-.26a10.22 10.22 0 00-1.71.53l-.8.12-.91.12-.72.07a.82.82 0 01-.28 0c-.48.08-1 .12-1.46.16s-.74.08-.75.14a1 1 0 00.34-.09c-.06 0-.11.15-.27.16s-.07-.05-.07-.07a12.63 12.63 0 00-1.91.07c-.69-.07 0 0 .17-.13a5.23 5.23 0 00-1 0c-.29 0-.52 0-.63-.07-.8 0 .18 0-.08.12a2.1 2.1 0 00-.9-.11 9 9 0 01-1.33-.1c-.34 0 .34.07-.25.11.06 0-.24-.07-.4-.08l-.15.09-.52-.23h-.69c-.06 0 0 0 0 .06s0 .06-.78 0h.09c-.4-.15-1.08 0-2.15-.26.37.07.16 0 .28 0h-.61c.06 0 .09 0 0 0-.52-.15-.46 0-1.07-.18h.27l-.74-.33h-.19.07c-2.35-.36-4.54-.78-6.49-1.13a.27.27 0 01-.09 0H19h-.13a1.28 1.28 0 00-.51.13.09.09 0 00.08 0h.33a.91.91 0 01.17 0h-.17a.77.77 0 00-.17.07 3.11 3.11 0 00-.76.56c-.29.24-.45.4-.55.47s-.13.08-.16.07a.08.08 0 00-.1 0 1.57 1.57 0 00-.34.32c-.29.39-.55.79-.8 1.2h-.06a1 1 0 00-.21.37c0-.06-.18.17-.38.49s-.45.72-.61 1l.17-.15a12.28 12.28 0 01-1.07 1.77 9.58 9.58 0 00-1 1.55l-.32.86-.18.12a6.87 6.87 0 01-.6 1.38 42 42 0 0062.48-56z"/>
      </g>
      <g mask="url(#mask-4)">
        <path class="cls-8" d="M21 33.75l-.2.25-.23.22.46-.5m44.5-15.86a2.64 2.64 0 01.22-.4 4.1 4.1 0 01-.16.39l-.24.52a2.41 2.41 0 01.18-.51m-58 46.24l-.07.15a.81.81 0 010-.11c-.09.26-.14.4-.11.34-.25.45 0-.06-.15-.06a7.38 7.38 0 01.5-1.28c.08-.24.15-.39.25-.63a3.83 3.83 0 01.15-.49v.08l.08-.1a17.78 17.78 0 00.68-2.56c-.09.68.18-.12.27-.09l-.13.5-.18.55-.24.69c0-.07.07-.12.1-.12a5.77 5.77 0 00.24-.6c.06-.2.11-.39.17-.61a13.76 13.76 0 01.46-1.5v.2a2.53 2.53 0 00.2-1 5.17 5.17 0 00.58-1.5 4.25 4.25 0 01.24-1.13v.35c.31-.86.13-.75.39-1.46-.11.28-.05.33 0 .11a6.73 6.73 0 00.28-1.65l.06.15a9.79 9.79 0 01.6-2.3c-.07 0-.08 0-.06-.2s.09-.41.17-.69c.15-.56.39-1.21.5-1.56-.07.24 0 .3 0 .33a21.58 21.58 0 011.66-4.27l.24-.16c.35-.72.19-1.06.62-1.84a1.92 1.92 0 00-.09.32c.18-.35.34-.64.48-.9s.28-.48.42-.7.26-.42.41-.64.29-.45.48-.7l.07.07c.1-.2.24-.41.37-.63s.28-.42.39-.62a5.9 5.9 0 00.74-.82c.29-.36.61-.79 1-1.22a13.78 13.78 0 012.33-2.32v-.22A7 7 0 0123 32.05l-.13.1c0 .08.16 0 .34-.2a4.58 4.58 0 01.59-.51c.25-.22.46-.5.22-.35.78-.55 1.74-1.24 2.67-1.83A15.87 15.87 0 0129.1 28c.82-.48 1.55-.91 2.31-1.3.38-.21.77-.39 1.18-.59l.65-.28.7-.27c.66-.24 2-.63 2-.48l1-.36.9-.33c.31-.12.62-.22 1-.32s.73-.18 1.17-.27l-.36.15c.44-.08 1.13-.29 1.3-.34s.05 0 0 .05a5.58 5.58 0 001-.23l-.13.07c.35 0 .75-.09 1.18-.16l.67-.11.34-.06.36-.05a26.07 26.07 0 012.86-.32c-.34 0-.16.08 0 .1a6.15 6.15 0 01.76-.13l1-.07h1.77l-.47.06a4.58 4.58 0 011.38.07l.53.07a6.47 6.47 0 00.84 0l-.84-.15h.76c.18 0 .28 0 .21-.07a1.13 1.13 0 01.43.12 2.12 2.12 0 00.69.12h-.32c-.15 0-.27 0-.1.05l.72.13.36.07.35.08c-1-.22.76 0 .11-.21.82.16-.2.16-.11.21h.1-.09a4.27 4.27 0 00.69.08c-.1-.23 1.19.16.5-.15.51.07 1 .16 1.47.24s.93.19 1.37.3c.89.2 1.74.42 2.61.59a1.75 1.75 0 00.33.15H62.63v-.06l.07-.13.3-.27c.17-.34.32-.65.45-.86s.21-.33.26-.26a12.31 12.31 0 00.82-2.26 3.19 3.19 0 00-.23.61 16.88 16.88 0 01.68-1.82c-.1.31-.24.71-.36 1.1s-.24.76-.3 1c.17-.42.34-.93.5-1.39.08-.23.16-.45.22-.64l.15-.48.22-.16a2.1 2.1 0 01.25-.65 1.75 1.75 0 00.23-.66l-.09.12a9.49 9.49 0 00.42-1.32c.09-.33.15-.65.36-1.26v.07a8 8 0 01.51-1.45l-.26.8c.09 0 1.1-3.11 1.72-5A42 42 0 007.09 65.43a6.23 6.23 0 01.4-.7v-.6"/>
      </g>
      <path class="cls-11" d="M65.75 42.48c0-.13.1-.24.07-.22s-.08.21-.07.22M53.68 57.82s-.25.13-.48.27l.48-.27M45 61.88h-.16a.57.57 0 00-.13.08l.29-.13m-6.59 1a1 1 0 01-.34.09l.07.07c.07.07.21-.11.27-.16M19 60.86h-.11.13M69.39 33c0 .16 0 .07 0 0m-14-9.92c.65.17-1.1 0-.11.2-.09 0 .93 0 .11-.2M73.17 19l.07-.13a.5.5 0 00-.07.13M47.62 36.41h-.06a.11.11 0 00.09 0m-13.72 1.47a.14.14 0 000 .07M34 37.87h-.05m.35-.74a.22.22 0 01-.07-.06.41.41 0 00.05.09m12.25-.44a.06.06 0 00-.05 0v-.05M46 37.88a.14.14 0 000 .07m0 0a.07.07 0 00-.06 0m-9.41-.92zm-2.11-.27v-.05m1.07-.28h-.06a.11.11 0 00.09 0m1 .55zm12.07 0zm-2.28.17a.22.22 0 01-.07-.06.41.41 0 00.05.09m-11.56-.38v-.16a.3.3 0 000 .17l.07-.05m1-.12h.06s0 .06.09.06.06-.07 0-.13-.1.07-.2 0 0-.05 0 0-.09.07-.11.12a2.8 2.8 0 01.28.06s-.09 0-.1-.06m12.83.31zm-13.56-.3v-.05a.32.32 0 00-.13-.08.56.56 0 000 .15zm.21-.05v.06zm12.5 0h.07s0 .06.09.06 0-.07 0-.13-.11.07-.21 0 0-.05 0 0-.08.07-.11.12l.29.06s-.1 0-.11-.06m-5.49 8.69h-.05.05m4.25-.39a2.07 2.07 0 00-.55.08l.56-.07M47 45a.28.28 0 00-.2.06h.2zm2.63-.18a.41.41 0 00.14-.12 3.41 3.41 0 00-.46-.09 1.55 1.55 0 00-.53 0 .94.94 0 00-.42 0l-.33.11-.25.08c.37-.08.57-.14.57-.14a1.67 1.67 0 011.28.1m-2.5.17l.49-.09h-.33a.44.44 0 01.18-.15c-.31 0-.25.12-.51.08-.2.12.1 0 .21.09zM38.12 45.21l-.11.05h.12v-.06m9.22-8.57v.06z"/>
      <path class="cls-11" d="M7.54 63.77a.38.38 0 010-.12c.08-.27.13-.35.16-.37l-.15.46zm20.25-1.48h-.39.39zm3.27-14.48a3.27 3.27 0 01.07-.56 4.5 4.5 0 00.11-.64c.05-.08.08 0 .13-.08l-.05-.12a.87.87 0 00.13-.15 1.54 1.54 0 01.24-.63c.06 0 .11 0 .2-.1a1.5 1.5 0 01.35-.49 2.55 2.55 0 01.63-.46v.06c.13 0 .33-.17.53-.25v.1a.62.62 0 01.16-.1.7.7 0 01.19-.06c.13 0 .25-.06.32-.09h.27a1.19 1.19 0 01.26.05h.26l.22.06.45.11a5.69 5.69 0 01.86.21c.33.15.86 0 1.26.14.08 0-.17 0-.05.1a.89.89 0 01.52 0 1.15 1.15 0 00.61 0l-.16.06h.23s0-.06.1-.08.25.07.42.08c0 .05-.11.11.15.08l-.12-.05a1.48 1.48 0 00.42 0 .7.7 0 01.39 0h-.07c.01 0 .24 0 .37.05v-.06c.21 0 .12.09.29.09V45s.09.06.15.07l.31-.07c.12 0 .2.09.36 0 0 0-.1 0 0 0s.23 0 .25.08a1.27 1.27 0 01.55-.13h.71V45c-.26 0 0 .13-.15.18.44-.06.26-.09.55-.18a3.33 3.33 0 00.93-.05 2.27 2.27 0 01.79 0c-.15 0-.05.1.08.11s-.06-.07.08-.16a10 10 0 001.4-.21c-.07.05-.18.1-.15.15s.27-.21.49-.19a.88.88 0 01.55-.12.88.88 0 00.67-.22l.06.09h-.16c.16.08.05.08.19.17a1 1 0 01.17-.14c.07-.06.12-.09 0-.11s-.07 0-.08.07l.08-.07a.72.72 0 01.35-.08 1.23 1.23 0 00.47 0 1.7 1.7 0 01.71.29 5.31 5.31 0 01.5.38h-.06a.8.8 0 01.42.32 1 1 0 01.22.43l.24.18-.08-.06a5 5 0 01.51 1.29 3.84 3.84 0 01.09.68v.17a1 1 0 010 .17v.35c0 .12 0-.24-.06-.09a.88.88 0 010 .28c0 .09-.05.17-.07.29 0-.08 0 0-.06 0s-.06.12-.1.1v.16a.75.75 0 000 .16h-.1a1.29 1.29 0 010 .19c0 .07 0 0-.13.07s0 .17-.13.27L51 50a.3.3 0 01-.08.08L51 50l.06-.08a1.11 1.11 0 00.07-.16v-.16a.91.91 0 01.07-.14.51.51 0 01.13-.12c0-.13-.06 0-.15.07a.75.75 0 01.11-.22 1.2 1.2 0 00.11-.3l.06.14c0-.11 0-.16.06-.18s0 .13.07 0v-.23a1.62 1.62 0 000-.22 1.44 1.44 0 000-.36.85.85 0 000-.17s0-.09-.06-.11h.06a1.67 1.67 0 00-.05-.19V47.28a2.2 2.2 0 00-.07-.37h.05a1.37 1.37 0 00-.21-.42v-.05a3.39 3.39 0 01.25 1.24V48c0 1.73-1.46 2.66-3.15 3.15s0 .17-.18.29a3.29 3.29 0 01-.32.24v-.07a3 3 0 01-1 .26c-.18-.07.29-.09.08-.17-.19.13-.37.13-.6.26a1.36 1.36 0 00-.48 0s.07 0 0 0-.19.1-.35.14l-.12-.1c-.32.05-.57.16-.8.17a1.72 1.72 0 00-.67.11c-.11 0-.07-.06-.23-.07 0 .17-.42 0-.58.15l-.29-.1c-.07.08-.36.09-.5.12.08 0-.15-.06-.33-.06.09 0-.37 0-.55.06-.22 0-.61.08-.68 0a.64.64 0 00-.39.07l-.27-.07h.05c0-.06-.06-.06-.15 0a.74.74 0 01-.26 0h.09a1 1 0 00-.18.05v-.06a.48.48 0 00-.22.07c0-.06-.14-.08-.27-.09.1 0 0 0 0 0s-.45-.17-.8-.11c0 0-.09 0-.08.06-.22-.11-.6 0-.71-.08.14 0 .11 0 .15-.07a.71.71 0 00-.41 0c-.2-.06.06-.08 0-.15-.32 0 0 .12-.25.08a19.74 19.74 0 01-2.53-.48v-.08h-.27a.25.25 0 01-.22-.09h.12a.68.68 0 01-.38 0 .94.94 0 00-.4-.06v-.06a1.76 1.76 0 01-.79-.37h-.17l-.15-.09c-.11-.07-.21-.17-.35-.26a.24.24 0 00-.08-.16l-.18-.19c-.13-.13-.24-.29-.2-.37v-.13l-.07-.12c0-.07-.07-.15-.11-.21s-.11-.26-.16-.38a1.27 1.27 0 01-.06-.18s0-.11-.05-.17a2.61 2.61 0 010-.4c0 .07 0 0 .07 0a.41.41 0 000-.19zm5.6-10.46l.07-.08v.09zm-2.94.38h.05c.05 0 0-.08 0-.16s0 0 .06 0 .1-.06 0-.08c.11-.09.16-.3.25-.3s0-.05 0-.07v-.16c0 .06 0 .06.09.06v-.09-.16c0-.03 0-.06.1 0s-.05 0 0 0h.07s.08 0 .11-.07.06-.08.12-.05.15 0 .18 0a.23.23 0 01.12-.06c.06 0 .19-.09.24 0s.09 0 .12 0a.15.15 0 00.1 0h.07a.09.09 0 01.06 0h.25a.08.08 0 01.09.05c-.06 0 0 .05 0 .09s.08 0 .12 0 0 .06 0 .14c0-.09.09.06.11 0s0 0 0 .08-.11 0-.16 0V37c-.06 0 0-.07-.08-.06 0-.05-.09 0-.14 0s-.05 0-.05.06a1.57 1.57 0 01.26.19c0-.06.11 0 .13-.08s0 0 0 .07v-.1c0-.03 0 0 .06 0h.06c.06 0 0 .06 0 .07h.07a.07.07 0 00.06 0 .09.09 0 010-.06c0 .06-.07 0 0 .05s0 0-.08 0h.09l-.05-.06v-.06c0 .08-.09.18-.13.18a1.51 1.51 0 01.54 1.16v.09c0 .03.1 0 .14 0 .06 0 0 .09 0 .11l-.07.09h.06c.01 0 0 0 0 0a.44.44 0 00-.1.15l-.06.17a.46.46 0 01-.15.29v.07h-.11l.05.05a.28.28 0 01-.12.12.27.27 0 00-.1.11h-.08c-.08 0 0 0 0 .06v.07c0 .02-.12.07-.19 0s0 .06 0 .06a.17.17 0 00-.1.1l-.13.06h-.16c-.03 0 0 0 0 .07h.05-.08l-.07.07s.08-.07 0-.08 0 .09-.06.06 0 0 0-.06h-.06v.06a1.79 1.79 0 01-.51-.07s-.09 0-.08-.1 0-.07 0-.07-.09.07 0 .1h-.08c0 .07-.09 0-.13 0s-.09-.1-.15-.1a.19.19 0 01-.12-.07s0-.07-.06-.07c-.1 0-.12 0-.16-.08s-.08 0-.11 0l-.07-.07v-.09c0-.03-.09-.06 0-.11s-.1 0-.13-.07 0-.11-.05-.15 0 0-.06 0-.12-.13-.1-.16 0 0 .08-.05-.13.05-.09 0 .15-.13.12-.15.09-.14 0-.14v-.14s.05-.06 0-.08a.2.2 0 010-.11v-.15c0-.02 0 0 .06 0s0 0 0-.08-.14 0-.13-.11zm3.16 0s0 .09.06.14c-.03-.11-.12-.14-.06-.18zm11.86-.34h-.05c-.05 0 0 0 0 0l.07-.08v.09zm-3 .38h.05c.05 0 0-.08 0-.16s0 0 .07 0 .09-.06 0-.08c.11-.09.16-.3.25-.3s0-.05 0-.07V37c0 .06 0 .06.08.06a.29.29 0 010-.09v-.16c0-.03 0-.06.09 0s-.06 0 0 0h.08s.08 0 .11-.07.07-.08.12-.05.15 0 .19 0 .08-.06.13-.06c.06 0 .2-.09.24 0s.09 0 .13 0a.16.16 0 00.1 0h.42a.08.08 0 01.09.05c-.06 0 0 .05 0 .09h.18s.06.06 0 .14c0-.09.09.06.11 0s0 0 0 .08-.1 0-.15 0v.05c-.06 0-.06-.07-.09-.06 0-.05-.09 0-.13 0s-.06 0-.05.06a1.65 1.65 0 01.27.19c0-.06.11 0 .12-.08s0 0 0 .07v-.1c0-.03.06 0 .07 0a.06.06 0 01.06 0v.07h.07a.16.16 0 010-.06c0 .06-.07 0 0 .05s0 0-.08 0h.1l-.06-.06-.06-.06c0 .08-.09.18-.13.18a1.54 1.54 0 01.54 1.16v.09c0 .03.1 0 .14 0 .06 0 0 .09.06.11l-.08.09h.07c.01 0 0 0 0 0l-.1.15v.17a.52.52 0 01-.16.29v.07h-.1v.05a.46.46 0 01-.12.12.23.23 0 00-.11.11h-.07c-.07 0 0 0 0 .06v.07c0 .02-.12.07-.18 0s0 .06 0 .06a.19.19 0 00-.1.1l-.13.06h-.16c-.04 0 0 0 0 .07h-.07l-.07.07s.07-.07 0-.08 0 .09-.06.06 0 0 0-.06v.06a1.79 1.79 0 01-.51-.07s-.09 0-.07-.1 0-.07 0-.07-.09.07 0 .1h-.07a.09.09 0 01-.14 0s-.09-.1-.14-.1a.19.19 0 01-.12-.07s0-.07-.06-.07c-.11 0-.12 0-.17-.08s-.08 0-.12 0l-.07-.07c.06 0 0-.06 0-.09s-.09-.06 0-.11S46 39 46 39c-.09 0 0-.11 0-.15s-.05 0-.07 0-.11-.13-.1-.16 0 0 .08-.05-.12.05-.09 0 .15-.13.11-.15.1-.14 0-.14v-.14-.08a.37.37 0 010-.11v-.15c0-.02 0 0 0 0v-.08c0-.08-.15 0-.14-.11zm3.17 0s0 .09.06.14H49c0-.15-.1-.18 0-.22zM50.5 50.5l-.26.15c-.17.1-.35.19-.5.3a.57.57 0 00-.25.06c-.09 0-.17.1-.26.15a.8.8 0 01-.52.18 2.09 2.09 0 00.42-.19l.17-.1.16-.11s0 .08 0 0a1.5 1.5 0 00.25-.19H49.95l.17-.11.16-.14c.06 0 .13-.1.22-.15s0-.08 0-.13l-.21.18a1.89 1.89 0 01.26-.24c.08-.07.15-.11.21-.1s.06-.13.1-.19a1.67 1.67 0 00.08-.2c.11.09-.15.46-.29.66a2.09 2.09 0 01-.1.09zm-2 .95h-.06l.27-.1zM12.27 69.69l.18-.12.32-.86a9.58 9.58 0 011-1.55 12.28 12.28 0 001.07-1.77l-.17.15c.16-.25.4-.65.61-1s.38-.55.38-.49a1 1 0 01.21-.37h.06c.25-.41.52-.81.8-1.2a2.3 2.3 0 01.34-.32.08.08 0 01.1 0s.06 0 .16-.07.26-.23.55-.48a3.34 3.34 0 01.76-.55.77.77 0 01.17-.07h.13c.06 0 .09 0 0 0a.86.86 0 00-.17 0h-.33a.09.09 0 01-.08 0 1.28 1.28 0 01.51-.13.27.27 0 00.09 0c1.95.35 4.15.77 6.49 1.13h-.07.19l.84.13h-.27c.61.16.55 0 1.07.18.05 0 0 0 0 0h.61c-.12 0 .09.11-.28 0 1.07.23 1.75.11 2.15.26h-.09c.75.05.79 0 .78 0s0 0 0-.06h.69l.51.23.16-.1c.16 0 .46 0 .4.09.59 0-.09-.06.25-.11a9 9 0 001.33.1 2.1 2.1 0 01.9.11c.26-.08-.72-.08.08-.12.11.1.34.09.63.07a5.23 5.23 0 011 0c-.21.1-.86.06-.18.13a12.76 12.76 0 011.93.1c0-.06.32-.1.75-.14s1-.08 1.46-.16h.27l.73-.07.9-.12.81-.12a10.22 10.22 0 011.71-.53c0 .08-.11.14-.46.26l.62-.15a3.14 3.14 0 01.71-.28l-.12.13c.81-.24 1.6-.61 2.64-1 0 0-.21 0-.31-.06s0 0 0-.06l.53-.21s0 .08-.19.16a3 3 0 01.5-.23l-.39.25c.47-.16.21-.16.58-.31 0 .07.29-.07.26 0l-.22.09a1.33 1.33 0 00-.24.11l.64-.24.48-.14c-.06 0 0-.08.25-.23.76-.38.3-.05.76-.25.16-.14.66-.35.62-.45a1.09 1.09 0 01.38-.13l.42-.27.54-.34.37-.27c.06-.06.06-.08-.06 0l-.1.05h.06l.89-.65.46-.31.45-.33.45-.33.44-.34.22-.17.21-.18.4-.37c.16-.14.31-.31.48-.46l.48-.48a10.24 10.24 0 00.77-.88c.17-.18.45-.39.41-.28.22-.24.32-.4.46-.56s.15-.17.25-.28l.17-.19.21-.23c-.18.27-.14.24-.12.22s0 0-.28.32c.3-.3.47-.5.65-.7l.27-.34c.09-.13.19-.28.31-.48-.12.3.49-.43.69-.78-.13.15-.26.3-.4.44.26-.37.5-.69.74-1v.25q.21-.26.39-.51l.34-.51c.21-.33.38-.67.56-1l.26-.48c.08-.16.16-.31.25-.46a8.11 8.11 0 01.57-.83c.16-.44-.51.79-.39.39a9.43 9.43 0 01.65-1c.19-.27.35-.5.41-.61a4 4 0 00.3-.56c.06-.16.1-.28.14-.41a3.25 3.25 0 01.13-.42c.07-.16.16-.35.28-.6-.1.11-.25.19.07-.6a2.55 2.55 0 01.23-.42.82.82 0 01.15-.2c.08-.06.09 0 0 .27s-.13.26-.14.24c-.1.24-.22.56 0 .29v-.11c.21-.34.63-1.36.6-1.09.2-.57 0-.27-.16.14l.3-.63c.09-.2.16-.39.23-.58.15-.38.29-.76.5-1.24-.08.15-.18.27-.12.12a6.32 6.32 0 00.27-.73 1.32 1.32 0 00.07-.27 2 2 0 01.15-.66c.26-.54.07.25.37-.76.13-.3.16-.32.16-.24a2.16 2.16 0 01-.06.4 17 17 0 01.8-2.2l-.13.49c.08-.29.15-.53.23-.77l-.17.25c.11-.28.18-.52.21-.5 0-.31-.2.18-.09-.42.16-.37.31-1.16.46-1.26-.41 1.17.14-.1-.15.91 0-.2.12-.43.22-.71v.12c.45-1.11 0-.56.4-1.74 0 .17.19-.24.24-.43-.14.47-.17.19-.09-.26a9.48 9.48 0 00.33-1.22l-.16.44a1.66 1.66 0 01.07-.4l.17-.68c.06 0-.11.49 0 .31.06-.62.48-1.3.64-2.14.14-.37.12 0 .24-.33.17-.95.36-1 .55-2-.15.25-.15.31 0-.4l-.37 1.61.15-1c-.13.48-.22 1-.31 1.31.06-.51.07-.45-.06-.24.3-.62.29-1.32.57-2.06l.2.08c.39-1.12.43-2.06.86-3.54l-.15.47a11.48 11.48 0 01.31-1.41c.06.06.16-.23.26-.43-.06 0 .27-1.09.17-1.26l.26-.64c.11-.38.31-1.13.54-2a42 42 0 00-5.61-5.54c-.62 1.87-1.63 4.94-1.72 5l.26-.8a8 8 0 00-.51 1.45v-.07c-.21.61-.27.93-.36 1.26a9.49 9.49 0 01-.42 1.32l.09-.12a1.75 1.75 0 01-.23.66 2.32 2.32 0 00-.26.65l-.21.16-.15.48c-.06.19-.14.41-.22.64-.16.46-.33 1-.5 1.39.06-.26.17-.63.3-1s.26-.79.36-1.1a15 15 0 00-.68 1.82 3.19 3.19 0 01.23-.61 12.31 12.31 0 01-.82 2.26c0-.07-.14 0-.26.26s-.28.52-.45.86l-.25.49-.07.13v.06h-.36l-.33-.15c-.86-.17-1.71-.39-2.6-.59-.45-.11-.9-.2-1.37-.3s-1-.18-1.47-.24c.69.31-.6-.08-.5.15a4.27 4.27 0 01-.69-.08h.09-.1l-.35-.08-.36-.07-.94-.35c-.17 0-.05-.05.1-.05h.32a2.12 2.12 0 01-.69-.12 1 1 0 00-.43-.12c.07 0 0 .06-.21.06a5.66 5.66 0 01-.76 0l.84.15a5.06 5.06 0 01-.84 0l-.53-.07a4.64 4.64 0 00-1.38-.07l.47-.06H49l-1 .07a4.75 4.75 0 00-.75.13c-.14 0-.32-.07 0-.1a26.07 26.07 0 00-2.86.32l-.36.05-.34.06-.67.11c-.43.07-.83.12-1.18.16l.13-.07a5.58 5.58 0 01-1 .23s.12-.08 0-.05-.86.26-1.31.34l.37-.15c-.44.09-.82.17-1.17.27s-.66.2-1 .32l-.9.33-1 .36c0-.15-1.38.24-2 .48l-.7.27-.65.28c-.41.2-.8.38-1.18.59-.76.39-1.49.82-2.31 1.3a15 15 0 00-2.37 1.28c-.93.59-1.89 1.28-2.67 1.83.24-.16 0 .13-.22.35a4.58 4.58 0 00-.59.51c-.18.16-.32.28-.34.2l.13-.1a7 7 0 00-1.55 1.24v.22a13.78 13.78 0 00-2.33 2.32c-.36.43-.68.86-1 1.22a5.9 5.9 0 01-.74.82c-.11.2-.25.41-.39.62a7.3 7.3 0 00-.37.63l-.02-.16c-.19.26-.34.49-.48.71s-.28.42-.41.64-.27.44-.42.7-.31.55-.49.9l.09-.32c-.42.78-.26 1.12-.61 1.84l-.24.16a21.58 21.58 0 00-1.66 4.27v-.33c-.11.35-.35 1-.5 1.56-.08.28-.14.52-.17.69s0 .25 0 .2a10.54 10.54 0 00-.59 2.29l-.06-.14a6.73 6.73 0 01-.28 1.65c-.07.22-.13.17 0-.11-.26.71-.08.59-.39 1.46v-.34a4.11 4.11 0 00-.14 1.17 5.52 5.52 0 01-.58 1.49 2.53 2.53 0 01-.2 1c-.06 0 0-.11 0-.2a13.76 13.76 0 00-.46 1.5c-.06.21-.11.41-.17.61a5.77 5.77 0 01-.24.6s-.07.05-.1.12l.24-.69.2-.59a3.74 3.74 0 01.16-.45c-.09 0-.36.77-.28.09a16.78 16.78 0 01-.7 2.52l-.06.09v-.08a3.4 3.4 0 00-.15.49c-.1.24-.17.39-.25.63a7.38 7.38 0 00-.5 1.28c.1 0-.1.51.15.06 0 .06 0-.08.11-.34v-.18l.35-1a4.12 4.12 0 01-.35 1.09v.6a6.23 6.23 0 00-.4.7 41.54 41.54 0 004.57 5.67 6.87 6.87 0 00.6-1.38z"/>
      <path class="cls-11" d="M40.5 45.37a1.14 1.14 0 00-.32 0h.37m6.31-8.57v-.16a.22.22 0 000 .17.18.18 0 01.07-.05m.36-.1a.07.07 0 000-.05.27.27 0 00-.13-.08v.15zM50 44.92a.29.29 0 00-.13-.05L50 45m1 1.18a1.2 1.2 0 010-.23.62.62 0 00-.2-.37c.26.18.05 0 .06-.07s-.22-.09-.37-.2a1.23 1.23 0 00-.35-.19 3.59 3.59 0 01.86.98m.23.21l-.07-.06v-.07c0-.07-.1 0-.14 0l.07.13c.06 0 .14.11.14 0M7.53 64.13V64v.15a.29.29 0 000 .11l.07-.15M53 58.2h-.07zM32.57 63c.69.09.62.07.56 0s-.12-.08.59-.05l-1.09-.08c.19 0 .44.12-.06.1m4.5.11c.37-.05.46-.06 0-.08s0 .06 0 .08m21.74-9.77v.1c.29-.35 0 0 0-.1m4.45-5.72l.36-.67-.27.49zm2.49-30.12a2.64 2.64 0 00-.22.4 3.14 3.14 0 00-.18.51l.24-.52a4.1 4.1 0 00.16-.39M21 33.75l-.46.5.26-.25z"/>
      <path class="cls-12" d="M37 37.92h-.05zm0-.09s-.07-.1-.06-.14 0 .08 0 .12zM37 37.42h-.06m-.06 0c0 .06.07 0 0 0m-.05.23v-.05zm0-.46v-.06zm-.05.16h.07zm0-.34zm0-.12h-.08a.07.07 0 010 .07s0-.05 0 0m0 .16M36.72 37.37h0m0-.1zM36.7 37.22zm-.05-.2a.07.07 0 01-.06 0 .09.09 0 000 .06m-.2-.18zM36.41 36.96v-.07c0-.07 0 0-.06 0v.06zM36.47 37h.08c.03 0 0 0 0-.06h-.07l.05.06s-.07 0-.09.05m.15.32a.11.11 0 010-.09l-.07.08m-.09-.17h-.05m0-.37h-.07zm-.08 0zm-2-.07h-.07m1.1-.28h0m.64.17"/>
      <path class="cls-12" d="M34.67 36.67v-.06.17l-.07.05a.22.22 0 010-.17m.41 0v.05h-.1a.56.56 0 010-.15.32.32 0 01.13.08m.57-.09c.06 0 0 0 0 0s.14-.11.21 0 0 .1 0 .13-.05-.05-.09-.06-.06 0-.07 0 .05 0 .1.06a2.8 2.8 0 00-.28-.06s.05-.11.11-.12m-1.84 1.25v.08c0 .08 0 0-.06 0s-.05.14 0 .15a.2.2 0 000 .11c.07 0 0 0 0 .08v.14c.09 0 0 .09 0 .14s-.11.11-.12.15c0 .1.06 0 .09 0s-.08 0-.08.05.14.08.1.16 0 0 .06 0 0 .15.05.15.08.07.13.07 0 .08 0 .11.08 0 0 .09l.07.07c0 .06.08 0 .11 0s.06.09.16.08 0 0 .06.07a.19.19 0 00.12.07c.06 0 .1.06.15.1s.09.05.13 0h.08c-.08 0 0-.07 0-.1s.06.07 0 .07.09.05.08.1a1.79 1.79 0 00.51.07v-.06h.06v.06c0 .06.06-.05.06-.06v.08s0-.06.07-.07h.08-.05s.07 0 0-.07.1 0 .16 0l.13-.06a.17.17 0 01.1-.1s-.06-.05 0-.07.09 0 .18 0 0 0 0-.07v-.06c0-.06 0 0 .07 0a.27.27 0 01.1-.11.37.37 0 00.13-.12V39h.1s-.07-.07 0-.07a.59.59 0 00.16-.3 1.09 1.09 0 010-.17.44.44 0 01.1-.15h-.06l.07-.09c-.06 0 0-.1 0-.11s-.09 0-.14 0 0-.06 0-.09a1.53 1.53 0 00-.43-1.02s.11-.1.14-.18 0 0-.07 0 0 .1 0 .1v-.07c0-.07-.09 0-.12.08a1.24 1.24 0 00-.23-.13c0-.05.08 0 .05-.06s.11 0 .14 0 0 .11.08.06v-.05h.16c.03 0 0 0 0-.08s-.1-.08-.11 0v-.14c0-.08 0 0 0 0h-.12c-.03 0 0 0 0 0v-.09a.08.08 0 00-.09-.05s-.07 0 0 0h-.25a.09.09 0 00-.06 0 .11.11 0 01-.09 0 .15.15 0 01-.1 0h-.36a.23.23 0 00-.12.06h-.18c-.07 0 0 0 0 0s-.09 0-.12.05-.06.08-.11.07v.05c-.06 0 0 .05-.1 0s-.06.09 0 .16a.29.29 0 010 .09s-.07 0-.08-.06v.23c0-.01-.14.21-.25.3.11 0-.07 0 0 .08s0 0-.06 0-.07.09 0 .16 0 0-.05 0 .06.09.13.11M35 39.72zM36.43 37.06zM36.09 36.55s-.1 0 0 0M36.1 36.89zM35.03 36.66v-.09.09zm2 1.57zM37 38.2h-.05M49 37.92h-.05zm0-.09s-.07-.1-.07-.14v.12H49zM48.94 37.42c0 .06.07 0 0 0m-.05.23v-.05zm0-.46v-.06zm-.05.16h.07zm0-.34zm0-.12h-.08a.07.07 0 010 .07s0-.05.05 0m0 .38h0m0-.1h-.05zm0-.05zm-.05-.2a.16.16 0 000 .06m-.2-.18zM48.57 36.93v-.07a.06.06 0 00-.06 0l.06.06zm0 .11h.08c.03 0 0 0 0-.06h-.07l.05.06s-.07 0-.09.05m.15.32h.05v-.09l-.07.08m-.08-.17h.05-.06m0-.37h-.07zm-.07 0zm-2.05-.07h-.07M47.52 36.4h0M47 39.72z"/>
      <path class="cls-12" d="M46.75 36.67a.21.21 0 010-.06v.17a.18.18 0 00-.07.05.22.22 0 010-.17m.41 0a.07.07 0 010 .05h-.11v-.15a.27.27 0 01.13.08m.57-.09c.06 0 0 0 0 0s.13-.11.2 0 0 .1 0 .13-.06-.05-.09-.06h-.07s.06 0 .11.06a2.47 2.47 0 00-.29-.06s.05-.11.11-.12m-1.75 1.31v.08c0 .08 0 0 0 0s-.06.14 0 .15a.37.37 0 000 .11c.07 0 0 0 0 .08v.14c.1 0 0 .09 0 .14s-.11.11-.11.15c0 .1.06 0 .09 0s-.08 0-.08.05.14.08.1.16 0 0 .07 0 0 .15 0 .15.09.07.13.07 0 .08 0 .11.08 0 0 .09l.07.07c0 .06.08 0 .12 0 .05.09.06.09.17.08s0 0 .06.07a.19.19 0 00.12.07c.06 0 .11.06.15.1a.09.09 0 00.14 0H47c-.08 0 0-.07 0-.1s.07.07 0 .07.09.05.07.1a1.79 1.79 0 00.51.07v-.06.06c0 .06.06-.05.06-.06v.08s0-.06.07-.07h.07s.06 0 0-.07.1 0 .16 0l.13-.06a.19.19 0 01.1-.1s-.05-.05 0-.07.1 0 .18 0 0 0 0-.07v-.06c0-.06 0 0 .07 0a.23.23 0 01.11-.11.46.46 0 00.12-.12v-.05h.1s-.07-.07 0-.07a.59.59 0 00.16-.3v-.17l.1-.15h-.07l.08-.09c-.06 0 0-.1-.06-.11s-.09 0-.14 0 0-.06 0-.09a1.54 1.54 0 00-.47-1.08s.12-.1.14-.18 0 0-.07 0 0 .1 0 .1v-.07c0-.07-.09 0-.12.08a1.65 1.65 0 00-.27-.19c0-.05.07 0 .05-.06s.1 0 .14 0 0 .11.09.06v-.05h.15c.03 0 0 0 0-.08s-.11-.08-.11 0v-.14c0-.08 0 0 0 0h-.13c-.03 0 0 0 0 0h-.05v-.09h-.05a.08.08 0 00-.09-.05h-.35a.11.11 0 01-.09 0 .16.16 0 01-.1 0h-.37c-.05 0-.08 0-.13.06s-.12 0-.19 0-.1 0-.13.05-.06.08-.11.07v.05c-.06 0 0 .05-.1 0s-.06.09 0 .16v.09s-.07 0-.09-.06v.23c0-.01-.14.21-.25.3.11 0-.06 0 0 .08s-.05 0-.06 0-.08.09 0 .16 0 0-.05 0 .07.09.14.11M48.46 37.059999999999995zm-.28-.51s-.11 0 0 0M48.18 36.89zm-1.08-.23v-.09.09zm2 1.57zm-.1-.03h.06-.05"/>
      <path class="cls-13" d="M48.5 51.37l.21-.14-.27.1zm2.56-1.81a1.67 1.67 0 01-.08.2c0 .06-.06.13-.1.19s-.13 0-.21.1a1.89 1.89 0 00-.26.24l.21-.18v.13l-.21.15-.16.14-.17.11h-.23a2.43 2.43 0 01-.25.2c-.09 0-.07 0 0-.06l-.16.11-.17.1a1.86 1.86 0 01-.42.19.82.82 0 00.52-.18c.09-.05.17-.11.26-.15a.57.57 0 01.25-.06 3.33 3.33 0 01.49-.29l.26-.16.22-.2c.14-.2.4-.57.29-.66M51 50l.06-.09L51 50l-.08.08m-2.55-5.68s.05 0 .08-.07zm-3.19 3.73h.1v-.1c.15.08.2 0 .28 0s.1 0 .1-.09h-.11V48c-.12 0-.29.07-.39.08zm3.24-.07"/>
      <path class="cls-13" d="M33.91 47.83l.39-.35c.13.12.29 0 .4.11 0 .14.28-.06.29.08s.19-.05.27-.05 0 .13.1.08.13-.15.18-.08.17.05.26.07a7.05 7.05 0 011 .21c-.08.12.11-.13 0 0h.11v.06c0 .06.17-.21.23-.05s.11 0 0 .07c.34-.16.46.17.82 0h.08v-.11c0 .09.18 0 .16.06 0 .09.07.06.11.09a.15.15 0 000-.06h.06c.13.13.3 0 .39.12v-.07c.15.12.38-.11.51.09.24 0 .39-.07.62-.11s.3 0 .36.11.27-.06.42 0c0 .15.1 0 .14.1 0-.14.09 0 .12-.09v.08h.23c0 .07 0 0 .07 0v-.1.1s.11 0 .11-.1V48.08c0-.02.05.08.13 0 .06 0 .08.08.15 0V48l-.07.06.11-.13V48c0 .07.07.06.11-.05V48H42v.19h.07v-.1s.06.16.11.06v.08c.06 0 0-.14.07-.07v.06c.15 0 .25-.15.39-.06a.25.25 0 00.15 0h.11v.06h.07v.05h.19v-.24s0-.1.09 0a.12.12 0 000 .1c.08-.06 0 0 .1-.14a.21.21 0 00.07.25c.15 0 .16-.14.26-.08l.07.12c.05 0 0-.16.08-.1s0-.06.11 0c.06.05.08 0 .12 0h.07c0-.12.06 0 .09 0v-.09a.69.69 0 00.42.11c0 .06.06 0 .11 0a1 1 0 00.5 0v-.08c0 .06 0 .13.06.14s.13 0 .2-.05h.12a.78.78 0 00.2.11h-.03l.09.08c.07 0 0-.18.18 0l.06.07c0-.08.17 0 .26.06l-.14-.53v-.05.05h.28c.07 0 0 0 0 .07v-.24c0-.12.32.08.38 0s-.05-.06 0 0 0 0-.06-.06.06 0 .18.08.15 0 .24 0 0 0 0 .06l.11.06s-.09-.09 0-.07 0 .11.15.1.15-.08.23 0 .39.2.42.08v.06h.1V48s.05.08.12.09.12.06 0 .05a1.06 1.06 0 00.27.16l.13.06h.06c0 .06-.17.12-.24.15s-.1 0 0 .13c-.15-.06-.1.09-.14.14l-.06-.07-.16.06c-.07 0-.1.08-.14.12h.09c-.54-.21-.51 0-.56 0-.28.14-.46.06-.8.17l.12.09a2.93 2.93 0 01-1.1.19c-.48-.06-.93.2-1.36.09-.88 0-1.69.18-2.59.18-.15 0-.35-.11-.48 0h-.11a1.38 1.38 0 00-.72.09c-.05-.07-.27 0-.33-.11-.72-.14-1.55-.07-2.34-.14 0 0 0-.07-.1-.08v.09c-.29-.17-.68 0-.93-.22l-.12.09c-.48 0-.95-.1-1.43-.17l-.56-.25-.74-.07-.19-.44v-.49m4.24-2.61c.05 0 0 0 0 .06H38s.08 0 .11-.05m2 .14h.32-.37m6.4-.32l-.56.07a2.07 2.07 0 01.55-.08M47 45h-.2a.42.42 0 01.2-.06m0-.12c.26 0 .2-.12.51-.08-.07 0-.14.11-.18.15a1.57 1.57 0 00.33 0l-.49.09c-.11 0-.41 0-.21-.09m1.07-.09l.33-.11a1.11 1.11 0 01.42 0 1.34 1.34 0 01.53 0c.18 0 .34.07.46.09a.41.41 0 01-.14.12 1.68 1.68 0 00-1.28-.1s-.2.06-.57.14l.25-.08m1.81.14a.29.29 0 01.13.05 1 1 0 00-.18-.1m.62.36c.15.11.29.23.37.2s.19.25-.07.07a.59.59 0 01.21.37.73.73 0 000 .23 3.43 3.43 0 00-.9-1.05 1 1 0 01.35.18m.71 1v.07l.07.06c0 .08-.08 0-.14 0a.83.83 0 00-.07-.13s0-.14.14 0M31 48a2.61 2.61 0 000 .4c0 .06 0 .12.05.18a1.77 1.77 0 00.06.17c.05.12.09.24.16.38s.07.14.11.21l.07.12v.13c0 .08.07.24.2.37l.18.19a.24.24 0 01.08.16c.14.09.24.19.35.26l.15.09h.17a1.76 1.76 0 00.79.37v.06a.94.94 0 01.4.06c.16 0 .31.08.38 0s-.07 0-.12 0a.28.28 0 00.22.1h.27v.08a18.44 18.44 0 002.53.48c.24 0-.07-.13.25-.08.08.07-.18.09 0 .15a.71.71 0 01.41 0s0 .06-.15.07c.11.06.49 0 .71.08 0 0 0-.05.08-.06.35-.06.77.16.8.11s.12 0 0 0c.13 0 .3 0 .27.09a.48.48 0 01.22-.07v.06a1 1 0 01.18-.05h-.09a.74.74 0 00.26 0h.15-.05l.27.07a.65.65 0 01.39-.07c.07.13.46 0 .68 0 .18-.06.64 0 .55-.06.18 0 .41 0 .33.06.14 0 .44 0 .51-.11l.28.09c.16-.17.57 0 .58-.15.16 0 .12 0 .23.07a1.72 1.72 0 01.67-.11 7.33 7.33 0 00.8-.17l.08.12c.16 0 .19-.15.35-.14a1.36 1.36 0 01.48 0c.23-.13.41-.13.61-.26.2.08-.27.1-.09.17a3.18 3.18 0 001-.26v.07a3.29 3.29 0 00.32-.24c.13-.12.22-.24.18-.29 1.69-.5 3.16-1.43 3.16-3.16v-.16a3.4 3.4 0 00-.26-1.24v.06a1.21 1.21 0 01.21.41h-.05a2.2 2.2 0 01.07.37V47.47a1.67 1.67 0 01.05.19h-.06s0 .06.06.11a.85.85 0 010 .17 1.44 1.44 0 010 .36 1.62 1.62 0 010 .22v.23c-.07.1-.07 0-.08 0s0 .07-.06.18a.59.59 0 00-.06-.14 1.2 1.2 0 01-.11.3.75.75 0 00-.11.22c.09-.06.16-.19.15-.07a.51.51 0 00-.13.12.91.91 0 00-.07.14.94.94 0 010 .16 1.11 1.11 0 01-.07.16c.08-.1.14-.16.13-.27s.08 0 .13-.07a1.29 1.29 0 000-.19h.1a.75.75 0 010-.16v-.16s.07-.05.1-.1 0-.11.06 0c0-.12 0-.2.07-.29a.66.66 0 000-.28c.08-.15 0 .25.06.09s0-.24 0-.35v-.33a3.83 3.83 0 00-.09-.69 5 5 0 00-.51-1.29l.08.06-.24-.18a1 1 0 00-.22-.43.8.8 0 00-.42-.32h.06a5.31 5.31 0 00-.5-.38 1.7 1.7 0 00-.71-.29 1.23 1.23 0 01-.47 0 .72.72 0 00-.35.08c.08 0 0 .05 0 .11a1 1 0 00-.17.14c-.14-.09 0-.09-.19-.17h.16l-.06-.09a.92.92 0 01-.66.23.84.84 0 00-.56.11c-.22 0-.34.13-.49.19s.08-.09.15-.15a10 10 0 01-1.4.21c-.14.08.06.09-.08.16s-.23-.06-.07-.11a2.32 2.32 0 00-.8 0 3.31 3.31 0 01-.93.05c-.29.09-.11.12-.55.18.1-.05-.11-.16.15-.18L43 45h-.71a1.27 1.27 0 00-.55.13c0-.11-.08 0-.25-.08-.16.1-.24 0-.36 0l-.31.07c-.06 0-.14 0-.14-.07v.08c-.17 0-.08-.1-.3-.09v.06c-.14 0-.35 0-.38-.05s0 0 .07 0a.67.67 0 00-.38 0 1.48 1.48 0 01-.42 0l.06.13c-.26 0-.16 0-.15-.08-.17 0-.2 0-.42-.08s-.06 0-.1.08h-.23l.16-.06a1.15 1.15 0 01-.61 0 .89.89 0 00-.52 0c-.12 0 .13-.07.05-.1-.4-.12-.93 0-1.26-.14a5.69 5.69 0 00-.86-.21l-.39-.17-.22-.06h-.26a1.19 1.19 0 00-.26-.05h-.27c-.07 0-.19 0-.32.09a.7.7 0 00-.19.06.62.62 0 00-.16.1v-.09c-.21.07-.4.21-.53.24v-.06a2.55 2.55 0 00-.63.46 1.5 1.5 0 00-.35.49c-.09.13-.14.09-.2.1a1.54 1.54 0 00-.24.63.87.87 0 01-.13.15l.05.12c-.05.1-.08 0-.13.08a6.09 6.09 0 01-.11.64 3.27 3.27 0 00-.07.56.41.41 0 010 .19s0 .08-.07 0M45.690000000000005 48z"/>
      <path class="cls-12" d="M43.16 47.9zm-6.27 0zM36.89 47.85h.06c.06 0 0 0 0 0m7.78.06zm3.75.13zm-2.74 0h-.12V48z"/>
      <path class="cls-12" d="M34.81 48.83l.56.25c.48.07 1 .13 1.43.17l.12-.09c.25.23.64.05.93.22v-.09c.09 0 .08.06.1.08.79.07 1.62 0 2.34.14.06.07.28 0 .33.11a1.4 1.4 0 01.72-.09h.11c.12-.08.32 0 .47 0 .9 0 1.71-.23 2.6-.18.42.11.87-.15 1.35-.09a3 3 0 001.13-.14l-.15-.12c.34-.11.52 0 .8-.17s0-.24.56 0h-.09s.07-.1.14-.12l.16-.06.06.07s0-.2.14-.14c-.07-.1.05-.08 0-.13.07 0 .21-.09.24-.15h-.06l-.13-.06a1.06 1.06 0 01-.27-.16c.11 0 0 0 0-.05-.07 0-.08-.08-.12-.09h-.09v-.06c0 .12-.35-.09-.42-.08s-.14 0-.23 0-.07-.06-.15-.1 0 .06 0 .07l-.11-.06v-.06c0-.06-.23-.08-.24 0s-.13-.08-.18-.08.06 0 .06.06-.39-.14-.38 0v.23a.07.07 0 010-.07c-.08.06-.2 0-.29 0l.14.23c-.09 0-.26-.14-.26-.06l-.06-.07c-.19-.14-.11.08-.18 0l-.09-.08h.08a.78.78 0 01-.2-.11s0 .08-.1.09-.13.07-.28 0v.1h-.1v-.08a3.39 3.39 0 00.39-.08c-.07 0-.15.05-.2.05s-.09-.08 0-.14v.08a1 1 0 01-.5 0s-.09.06-.11 0a.73.73 0 01-.42-.11v.09s-.09-.13-.09 0h-.07l-.2.3c-.11 0 0 .08-.12 0s0 .12-.08.1l-.11-.1c-.1-.06-.11.07-.26.08a.21.21 0 01-.07-.25c0 .12 0 .08-.1.14s0-.06 0-.1-.05 0-.1 0a.83.83 0 010 .25c-.06.05-.12.08-.19 0v-.05h-.07v-.06h-.11a.25.25 0 01-.15 0c-.14-.09-.24 0-.39.06v-.06c0-.07 0 .1-.07.07V48c-.06.1-.08 0-.11-.06v.1h-.08c-.08 0-.05-.13 0-.19v.09-.1c0 .11 0 0-.11.05s0-.06 0-.07l-.11.13.07-.06v.14c-.07.1-.09 0-.14 0h-.13c-.04 0 0 .06 0 .08v-.07c0-.07-.06.15-.11.1v-.1.1H41.16V48c0 .11-.12 0-.12.09 0-.07-.17 0-.14-.1-.15 0-.24.13-.42 0s-.24-.09-.36-.11-.38.08-.62.11c-.13-.2-.36 0-.51-.09v.07c-.09-.12-.26 0-.39-.12h-.06a.15.15 0 010 .06s-.13 0-.11-.09c0-.09-.13 0-.16-.06v.11h-.07c-.36.18-.47-.15-.81 0 .05-.1-.07.05-.06-.07s-.15 0-.22.05H37c.09-.14-.1.11 0 0a7.05 7.05 0 00-1-.21c-.08 0-.2 0-.25-.07s-.16.08-.19.08-.13-.09-.1-.08-.18.12-.27.05-.32.06-.29-.08c-.12-.13-.28 0-.41-.11l-.39.35v.49l.18.44.74.07M46.239999999999995 48v-.05zm1.15-.21c-.06 0-.06 0 0 0m1.38.76h.06"/>
    </g>
  </g>
</svg>
