<svg xmlns="http://www.w3.org/2000/svg" viewBox="0 0 168.01 84">
  <defs>
    <style>
      .cls-2,.cls-3,.cls-4,.cls-5,.cls-7{fill-rule:evenodd}.cls-2{fill:#fff}.cls-3{fill:#232121}.cls-4{fill:#f4a43d}.cls-5{fill:#ac734b}.cls-7{fill:#937c77}
    </style>
  </defs>
  <g id="레이어_2" data-name="레이어 2">
    <g id="레이어_13" data-name="레이어 13">
      <path d="M168 42a42 42 0 11-42-42 42 42 0 0142 42" fill-rule="evenodd" fill="#a3d5c0"/>
      <path class="cls-2" d="M103.84 33.61c-.15.15-.34.23-.45.48-.11.07 0-.22-.17 0s.27 0 .62-.35-.06 0 0-.13M104 33.31a2.45 2.45 0 00-.19.3.6.6 0 00.19-.3M98.62 43.28s0 .13-.05.27a1.12 1.12 0 00.05-.27M103.86 33.74h0M154.82 44.49v.27a1.2 1.2 0 010-.27M109.37 29l-.18.15v-.05l.16-.1m3.75-2.95l-.48.35-.17.18-.25.18a2.22 2.22 0 01.88-.68M154.83 42c0-.18-.05-.34-.08-.5l-.09-.44c0-.13-.06-.25-.08-.34.05.12.09.12 0 0s-.11-.35-.16-.49-.08-.24-.05-.26a.83.83 0 01-.06-.35 1.42 1.42 0 000-.19v-.13-.17c0-.07-.06 0-.08 0a4.08 4.08 0 00-.15-.63c-.08-.24-.19-.48-.29-.72s-.24-.49-.35-.74-.12-.25-.17-.38a2.52 2.52 0 01-.14-.33 1.15 1.15 0 00.22.22l-.26-.46-.33-.52a4.14 4.14 0 00-.34-.48 5.54 5.54 0 00-.37-.45c.08 0 .11 0 .23.14a4.46 4.46 0 00-.93-1.15c.18.34.07 0 .21.2.16.38-.34-.15-.54-.46a5.43 5.43 0 00-.38-.43l-.39-.42c-.16-.3.21.2.18.05s-.16-.36-.36-.61-.43-.46-.46-.51l-.18-.12c-.06 0-.1-.05-.11 0-.34-.28-.07-.21-.29-.42s-.38-.22-.58-.32l-.44-.24-.06-.05c0-.06-.17-.32.11-.15a5.17 5.17 0 00-1-.63l-.21-.1c-.52-.41-1.05-.81-1.61-1.18.17.05-.1-.26.15-.15l-.41-.24-.52-.34-.57-.37-.52-.32c.17.21 0 .11-.33 0a1.74 1.74 0 00-.62-.21l-.47-.23v-.05c0-.06 0-.1-.1-.18-.42-.17-.83-.33-1.22-.5s-.77-.32-1.16-.44l-.61-.18-.69-.2a6.76 6.76 0 00-1.28-.24h-.05s0-.06.17 0c-.38-.13-.43-.08-.5 0h-.14l-.34-.07h.14a16.46 16.46 0 00-1.75-.28h.23l-.93-.11H132.83s.11-.05.28-.06a1.51 1.51 0 00-.62 0h-.63a1.16 1.16 0 01-.31-.1H130.12c-.1 0-.29-.07-.58-.14h-.09c.4-.38.74-.78 1.08-1.17a8.38 8.38 0 001-1.33 5.31 5.31 0 00.34-.81 3.2 3.2 0 00.13-.92 2.9 2.9 0 00-.15-.95 2.39 2.39 0 00-.52-.89 2.36 2.36 0 00-.89-.61 3.09 3.09 0 00-1-.21 4.28 4.28 0 00-.95 0l-.45.07-.43.1a11.18 11.18 0 00-2.34 1.05 12.47 12.47 0 00-1.59 1.14c-.07-.22-.15-.44-.23-.65a7.69 7.69 0 00-1-1.7c-.09-.14-.2-.26-.3-.39a3.5 3.5 0 00-.38-.4 2.44 2.44 0 00-.55-.4 2.29 2.29 0 00-.75-.25 2.94 2.94 0 00-.73 0 3.23 3.23 0 00-.61.14l-.5.19-.13.05-.12.06-.24.11a7.1 7.1 0 00-1.68 1.24 6.72 6.72 0 00-1.24 1.67 6.3 6.3 0 00-.64 2c.06-.17.09-.16.1-.06a1.16 1.16 0 000 .17 1.85 1.85 0 010 .23v.55c0 .16 0 .29-.08.24a.87.87 0 010-.37 6.27 6.27 0 00.08 1.87l.06.24a1.84 1.84 0 00.09.25 2.42 2.42 0 00.23.49 2 2 0 00.33.44l-1.53 1.07.1-.11c-.19.18-.47.31-.44.18l-.38.35v-.1c-.68.54-1.22.82-1.88 1.43l.33-.12c-.2.16-.39.34-.58.51l-.45.36-.16.09c.16-.18 0-.12 0-.16a1.52 1.52 0 01-.28.29l.06-.24a1.85 1.85 0 01-.54.58l-.4.31a1.56 1.56 0 00-.25.22v-.08c-.64.46.17 0-.23.33s-.26 0-.62.19c-.59.53-1.48 1.56-2.19 2.1a5 5 0 00-.36.42l-.34.42c-.05.07-.11.14-.16.22l-.16.21-.28.42c-.21.23-.24.2-.26.17s0 0-.21.22c0-.09-.11-.06-.19-.06s-.76.92-.32.62c-.15.17-.29.36-.44.55s-.31.38-.45.59l-.42.61c-.14.2-.26.42-.39.63.17-.28.12-.41-.08-.21a13 13 0 01-.9 1.85c.12 0 .24-.2.3-.07a2.47 2.47 0 01-.18.48c-.08 0-.16 0-.26.07a1.3 1.3 0 00-.37.53c0-.13.09-.41.2-.62s.21-.38 0-.27a1.84 1.84 0 01.11-.39c.06-.17.15-.35.24-.54s.21-.35.3-.5a2.7 2.7 0 01.25-.31c.2-.64-.29.44-.36.25a6.33 6.33 0 00-.34.7c-.1.24-.22.52-.41.94.07 0 .21-.23.09.17a1.79 1.79 0 01-.35.76c-.12.14-.23.21-.27.3 0-.11.08-.27.12-.38a8.35 8.35 0 00-.46 1.22c-.13 0 0-.18.05-.43a2.1 2.1 0 00.23-.67l-.31.33c-.18.41-.15.48-.14.55s0 .15-.16.57v-.13c0 .18-.09.37-.14.56a.16.16 0 00.16-.07 1.42 1.42 0 00.22-.45.63.63 0 010 .45 3.17 3.17 0 00-.27.73c0 .27.09-.32.21-.3s.06.1 0 .26 0 .18-.06.28-.05.2-.07.29c-.08.3-.13.38-.18.4s-.1 0-.17.11a2.2 2.2 0 01.07-.33c0-.13.07-.23.1-.19.09-.79-.33.26-.27-.28a1.18 1.18 0 00-.13.61.77.77 0 010 .27c.06-.16.1.12.17 0a1.83 1.83 0 010 .56.64.64 0 01-.15.27 1.35 1.35 0 00-.19.25 1.46 1.46 0 00-.09.21 2 2 0 00-.05.31c.12-.09.14.25.18.52s.1.48.26.13a4.07 4.07 0 010 .78c-.12-.27-.14.43-.24-.05v.37c0-.19-.09-.37-.13-.56-.07.2-.13.46-.19.71s-.11.46-.14.57c.06.53.13-.16.17.45-.07-.21-.14.17-.13.44 0-.55.2 0 .25.32 0 .53 0 1-.09.9s-.12-.34-.17-.51c.06.19.06.24 0 .29s0 .09 0 .29a4.88 4.88 0 00.37.45 1.05 1.05 0 010 .24v.19a1 1 0 000 .27l-.18-.52c.08.35 0 .4 0 .45a.23.23 0 000 .12 1 1 0 00.07.34l.15.17c0 .11 0 .18-.06.15a6.56 6.56 0 01.23.62v.07c.07.14.16.29.25.45a1 1 0 01.14.55.49.49 0 000-.37 1.44 1.44 0 01-.16-.52c0-.17.08-.06.15.12s.15.39.18.45c-.19 0 .25.75.41 1.08s.07.41.1.54l.17.07c-.07.12 0 .28.15.46a2.09 2.09 0 01.39.56c-.17-.14-.24-.07-.12.2 0-.22.11-.1.26 0s.3.31.32.23c.18.32.11.32 0 .27s-.27-.17-.26 0a1 1 0 01.2.22c.06.08.11.17.16.25a.78.78 0 00.34.37c-.28-.47.14 0 .28 0 .42.53-.13 0 .12.37a1 1 0 00.32.23c.08 0 .11 0 0-.2a2.62 2.62 0 00.44.44c.07.08.16.15.24.23a1.79 1.79 0 01.2.26c0 .21-.62-.56-.5-.32.32.34.46.38.59.41a1 1 0 01.59.31c-.12-.14-.07-.19 0-.17a1.34 1.34 0 01.48.21c.67.65-.36-.22-.19.12l.3.23c.14.25-.13.12-.4 0a2.48 2.48 0 00-.35-.16c-.08 0-.11 0 0 .11l.36.23c-.11 0-.28 0-.18.12.09 0 .28.14.46.3a3.08 3.08 0 00.4.33c.14 0-.29-.19-.18-.21a3.79 3.79 0 00.53.27 2.34 2.34 0 01.63.42c-.36-.16 0 .21-.15.17.25.23.17-.05.53.27h-.08a16.94 16.94 0 002.53 1.41l.67.27.67.23.64.17.61.12a1.14 1.14 0 00.23.15l.34.16.46.18.58.22c-.37-.15 0-.12.24-.08l.38.24a5.13 5.13 0 001.68.23.17.17 0 01.11.12c.44.17.49 0 .67 0l.29.14.08-.08a5 5 0 01.7.08c.2 0 .34.1.29.17.19 0 .37 0 .15-.08a2.66 2.66 0 00.47.1l.66.08.73.05h.69c-.39-.06-.35-.1-.38-.2.13-.15.19 0 .53 0 0 .06.38.13 0 .16l.43.07H123.99c.35 0 .19-.06.33-.11a7 7 0 001.43 0h.37l.38-.06c.24 0 .49-.06.73-.07-.22 0 .05-.26.58-.33a.91.91 0 01.28-.07.23.23 0 01.12.06.41.41 0 00.38.15 4.35 4.35 0 01.93-.23l.25-.09.3-.09a2.81 2.81 0 01.61-.11h-.05c.3 0 .67 0 1-.12.11-.16.9-.28 1-.43s0 0 .08 0v-.59l.64-.1a2.79 2.79 0 01-.31.2c.34 0 .39-.09.39-.14s0-.09.14-.17A1 1 0 01134 63a2.31 2.31 0 01-.45.13c-.24.16.29-.05.31 0s.11-.16.45-.24l.59-.17c.2-.06.35-.09.33 0 .23-.14.52-.23.69-.34a2.37 2.37 0 01-.75.13 2.89 2.89 0 01.7-.24l-.16.09c.16-.09.79-.27.43-.26h.49a4.79 4.79 0 01.92-.47c.06.1-.18.34.5.1l.27-.17.26-.17c.3-.15.38-.16.36-.07a2.84 2.84 0 001-.56 2.05 2.05 0 01.78-.48c-.27.28 0 .16.38 0 0 0 0-.09.16-.16-.13 0-.16.19-.47.24-.12 0 .29-.21.44-.32a4.84 4.84 0 001.62-.67l.47-.26.47-.28c.31-.18.62-.35.91-.49-.08 0 0-.13.19-.22a2.39 2.39 0 00.44-.31c0 .19.58-.42.92-.52H146a2.58 2.58 0 00.44-.29c.12-.11.22-.22.32-.32a1.25 1.25 0 01.62-.43c.38-.22-.05.18-.18.31a2.73 2.73 0 00.88-.62 2.54 2.54 0 01.8-.59c0-.09-.21-.06.15-.44.19-.1.45-.27.66-.41s.38-.25.36-.21a2.6 2.6 0 01.57-.58s-.1.17-.18.27a5.47 5.47 0 001.06-1.23 1.25 1.25 0 00.29-.23l.18-.19.18-.21c.13-.15.26-.32.38-.48l.36-.45a.52.52 0 01.06-.16l.08-.16c.06-.11.14-.22.2-.32s.23-.37.15-.44.08 0 .11-.08a5.38 5.38 0 01.17-.79l.08.14c.06.07.18-.13.27-.37a3.18 3.18 0 01.21-.51c-.07.07 0 0 0-.12s.1-.29.06-.31 0-.26.07-.38c.07-.3.05-.32 0-.36a.66.66 0 010-.11l.06-.35c.09-.41.19-.11.14 0a3 3 0 00.2-1.07c0 .13 0 .18 0 0v-.5.4c0-.09 0-.24.06-.39a.35.35 0 000-.13c0-.12 0-.23.06-.3l.1.11a3.09 3.09 0 000-.59 1 1 0 00-.09-.38v-.46a4.34 4.34 0 000-.51 9.28 9.28 0 00-.09-1.06"/>
      <path class="cls-2" d="M153.29 36.52l.05.08-.05-.08m-43.22-8.45v-.05.05m3.87-2.59l.11-.11-.11.11m-9.65 7.8c0-.08 0-.09.08-.21-.12.07-.17.23-.27.35a.78.78 0 00.19-.14m-1.66 1.86l.15-.26-.2.3-.2.34a1.31 1.31 0 00-.19.42l.29-.53.15-.27m-2.29 3.41v-.19c-.17.34-.17.42 0 .19m0 .27c-.06-.1-.18.26-.26.39a1.38 1.38 0 00.25-.39M98.14 45.35c0-.07 0 .06-.06.22a2 2 0 010 .46 1 1 0 00.07-.33v-.35m-.11 3.32c0 .16.08.36.1.16a.78.78 0 010-.26l-.08.1zm48.31 8.43l.26-.22-.26.14zm6-22.43s-.13 0 .08.29c-.21-.35.08 0-.08-.29m-10-8.37v.15l.09-.11z"/>
      <path class="cls-3" d="M120.07 40.05a1.76 1.76 0 01-1.51 2 1.72 1.72 0 01-1.91-1.53 1.77 1.77 0 011.51-2 1.72 1.72 0 011.91 1.53M120.15 39.79zm-.09-.25v.14s-.08-.11-.08-.15M119.96 39.23s.08 0 0 0M120 39.51v-.05m0-.51v-.06m0 .2h.08-.09zm-.09-.38zm-.08-.08a.15.15 0 00-.09 0 .1.1 0 01.05.06m.14.35h-.08.08m-.09-.12zM119.78 39zm-.09-.21h-.06l.05.06M119.43 38.68z"/>
      <path class="cls-3" d="M119.24 38.790000000000006a.05.05 0 01.09 0s.1-.11.11-.18 0 0-.07 0 0 .09 0 .1v-.07c0-.07-.09 0-.12.08h.05m.27-.1a.45.45 0 010-.08h-.06l.07.06zM119.59 38.75H119.58c.08 0 0 0 0-.06v-.05h-.09.07m.14.43v-.09a.26.26 0 000 .09m-.07-.19h-.06m-.22-.34h-.07m-.08 0zM116.94 38.72h-.08M118.15 38.25h-.07.07M118 38.23a.07.07 0 01.06 0 .05.05 0 00-.08 0M117.01 39.41zM117.1 39.42v-.07h-.11l.1.11"/>
      <path class="cls-3" d="M117.36 41.4h.09c.01 0-.11-.09-.21 0 0-.08-.09 0-.12 0s0-.05 0 0h-.06l-.05-.06H117h.07c.01 0 0 0 0-.12.06-.06 0-.07 0-.13S117 41 117 41v-.05-.06h-.08c-.08 0 0-.06.06-.08s-.06.06-.08 0 0-.08-.07-.13 0 0 .05 0h-.13c-.02 0 0 0 0-.06v-.08c0-.02 0 0 0 0a.58.58 0 00-.1-.12s-.09 0-.13-.06v-.07h.09a.21.21 0 00.1 0l.06-.08a.39.39 0 01-.14-.25h.12c.05 0 0 .08 0 .12v-.1h.06c.06 0 0-.08-.05-.12s.06 0 0 .06-.09-.09 0-.12 0-.08.05-.06c0-.06.1-.19 0-.24l.09.06a1 1 0 01-.14-.25s.2.1.19.17a.06.06 0 000-.06h-.09.14s-.09-.08-.07-.1.08.06.08.08v-.12s.06.06.1.07 0 0 0-.06c.06 0 0-.16 0-.21s.06.12.1.1a1 1 0 010-.15.19.19 0 010-.17v-.06.35c0 .07 0 0 .06 0s0 .05 0 .06h.09v-.13l-.06.11a.2.2 0 010-.11s0-.09.07-.1 0 .1 0 .12v-.06s0-.1.09-.07.08.06.07 0a.75.75 0 01-.14-.3.37.37 0 01.15 0V38.79c0-.05 0 .05 0 0s.08 0 0-.06 0 0 .09 0 0-.14 0-.16h.21c.08 0 0 0 0 .06v.07c0 .07.06 0 .1-.07s-.08 0-.11 0a.2.2 0 01.15-.18c.08 0 0 .05 0 0s.14-.12.23 0 0 .09 0 .13-.07 0-.11 0a.06.06 0 01-.07 0s.2 0 .28.11c0-.05.07 0 0-.06s.11 0 .16 0v.05s0 .1.11 0 .13 0 .17 0 0 0 0-.08c0 .08-.13-.07-.12 0 0-.08 0-.06-.07-.13s-.11 0-.14 0h-.05v-.08h-.06a.12.12 0 00-.11 0s-.08 0 0 0h-.09a.38.38 0 00-.15 0 .21.21 0 01-.15 0 .22.22 0 01-.12 0h-.14a.12.12 0 00-.14 0 .48.48 0 01-.14 0v.05a.34.34 0 00-.14.08s-.13 0-.2.07a.12.12 0 00-.14.07.19.19 0 01-.11.09v.06c-.06 0 0 .06-.1 0s-.07.11 0 .17 0 0 0 .06a.29.29 0 000 .09h-.09c-.02 0 0 .07 0 .16v.08s-.14.25-.24.38c.11 0-.06 0 0 .08s0 0-.06 0-.07.11 0 .17.07.1.14.11 0 .06 0 .09 0 0-.06 0 0 .17 0 .17a.57.57 0 000 .13c.07 0 0 0 0 .09v.15c.09 0 0 .1 0 .15s-.08.13-.08.17.06 0 .1.05-.08 0-.07.06.15.08.12.16 0 0 .06 0 0 .16.08.16.1.08.15.07 0 .09.05.12.1 0 0 .09l.09.07a.11.11 0 00.14 0 .16.16 0 00.2.07l.08.07a.2.2 0 00.15.06c.07 0 .12 0 .18.08s.11.05.15 0h.09c-.1 0 0-.06 0-.1s.09.06 0 .07c0 .08.12 0 .11.1a2.41 2.41 0 00.6 0h.06v.06c0 .01.07-.06.07-.07v.08s0-.06.07-.08 0 0 .05 0h.08s.07 0 0-.07.12 0 .18 0 .12-.09.14-.09a.25.25 0 01.11-.12s-.06 0 0-.06.11 0 .2 0 0 0 0-.07v-.06h.08a.39.39 0 01.11-.15.61.61 0 00.12-.15h-.05.1s-.07-.06 0-.08a.68.68 0 00.15-.36 1.62 1.62 0 010-.19v-.09a.47.47 0 01.05-.1h-.06a.6.6 0 00.06-.11c-.06 0 0-.12-.07-.12s-.15.07-.24.07 0 .05 0 .08v.11c0 .04 0 0 0 0v.08c0 .11 0 .15-.11.27s0-.07.08 0-.06.05-.08.09 0 .09-.09.08a.08.08 0 01-.08 0v.1a.2.2 0 010 .08.35.35 0 010 .08.48.48 0 00-.08.16c0 .09-.07 0-.12.11a.08.08 0 010 .07h-.06c.01 0 0 .05 0 .14v0c0-.08-.09.14-.18.07 0 .1.1 0 .09 0s0 .08 0 .08-.1-.07-.17 0 0 .06-.08 0 0 0 0 .08h.06s0 .12-.13.1 0 0-.06 0 .08 0 .11-.1-.07.07-.06 0a.07.07 0 00-.07 0v-.06h-.12c-.04 0 0 0 .07.08-.11.06-.07-.11-.18-.08s.05 0 0 0a.08.08 0 01-.06 0c-.08 0 0 0 0 .06s0 0-.07 0c-.08 0 0 .08-.11 0a.07.07 0 01-.1 0 .06.06 0 01-.07.06h.06c.06 0 0 0 0 0H117.84s0-.07.07-.07h-.08v-.06c0-.06-.12 0-.15 0s0-.09-.13-.09v-.07s0 .09-.09.06 0 0 0-.08-.13 0-.13 0"/>
      <path class="cls-3" d="M117.67 41.6zm1.22-3.25s-.11 0 0 0m.21.32v-.05m-.12-.03zM118.52 38.51v.05zm-.14 0s-.06 0 0 0m-.69 0v-.08zm-.39.47h-.05c-.05 0 0 0 0 .07m2.91 1.02zm-.08-.07h.06m-3.15.76zm.16.37zm.29.2s0 .07 0 0M136 38.05s-.05 0 0 0m-.17-.27zm0-.1s-.09-.11-.09-.15v.13zm0-.44h-.05m-.11 0s.07 0 0 0m-.07.23v-.05m0-.51v-.06m0 .18h.08zm0-.36zm-.12-.08a.15.15 0 00-.09 0 .1.1 0 010 .06m.08.13M135.59 37.18h-.08.08m0-.1h-.05M135.37 36.87h-.06a.1.1 0 00.05.06m-.25-.17zM135.19999999999996 36.72a.45.45 0 010-.08h-.06l.07.06zm0 .11h.09c.04 0 0 0 0-.06v-.05h-.09l.07.05h-.09m.23.34v-.09a.26.26 0 00-.05.09m-.13-.18h-.06V37m-.12-.38h-.07zm-.1 0zm-2.33.22h-.08m1.37-.45h-.07.07M134 36.31a.07.07 0 01.06 0 .05.05 0 00-.08 0m.77.29"/>
      <path class="cls-3" d="M133.08 36.71v-.06.15h-.09a.18.18 0 01.09-.09zm.46-.11h-.06v-.06.06h-.06v-.12a.37.37 0 01.12.12zm.65-.16c.08 0 0 .05 0 0s.14-.12.24 0 0 .09 0 .13-.07 0-.11-.06a.06.06 0 01-.07 0h-.27a.27.27 0 01.13-.1zm1.75 1.9h-.06l.07-.11c-.07 0 0-.12-.07-.12h-.12a.34.34 0 010-.1 1.77 1.77 0 00-.67-1.19h-.05s.09-.11.1-.18 0 0-.07 0 .05.09 0 .1 0 0 0-.07-.07 0-.1.07a1.35 1.35 0 00-.3-.14s.07 0 0-.06.11 0 .16 0 0 .09.09 0 .13 0 .17 0 0 0 0-.08c0 .08-.13-.07-.12 0 0-.08-.05-.06-.07-.13s-.11 0-.14 0h-.05v-.09h-.06a.12.12 0 00-.11 0s-.08 0 0 0h-.09a.39.39 0 00-.15 0 .27.27 0 01-.15 0 .22.22 0 01-.12 0h-.14a.12.12 0 00-.14 0 .48.48 0 01-.14 0 .55.55 0 00-.14.09s-.13 0-.2.08a.12.12 0 00-.14.07.19.19 0 01-.11.09.09.09 0 000 .06c-.06 0 0 .06-.1 0s-.07.11 0 .17a.07.07 0 000 .06.29.29 0 000 .09h-.08v.25s-.13.25-.24.38c.11 0-.06 0 0 .08s-.05 0-.06 0-.07.11 0 .17.07.1.14.11 0 .06 0 .09-.05 0-.06 0 0 .17 0 .17a.57.57 0 000 .13c.07 0 0 0 0 .09v.15c.09 0 0 .1 0 .15s-.09.13-.09.17.06 0 .1.05-.08 0-.07.06.15.08.13.16 0-.05.06 0 0 .16.07.15.1.08.15.07 0 .09 0 .12.1 0 .05.09l.09.07a.11.11 0 00.14 0 .16.16 0 00.2.07l.08.07a.2.2 0 00.15.06s.13 0 .18.08.11 0 .15 0h.09c-.1 0 0-.06 0-.1s.09.06 0 .07c0 .08.11 0 .1.1a2.41 2.41 0 00.6 0h.07v.06c0 .06.07-.06.07-.07v.08s0-.06.07-.08h.08-.05s.07 0 0-.07.12 0 .18 0 .12-.09.14-.09a.22.22 0 01.11-.12s-.06 0 0-.06.11 0 .2 0 0 0 0-.07v-.06h.08a.67.67 0 01.11-.14.44.44 0 00.12-.15h.1s-.07-.06 0-.08a.67.67 0 00.14-.36 1.62 1.62 0 010-.19v-.19zM134.9 36.62h.05m-.25-.24s-.11 0 0 0m.07.22zm-.53-.11h-.05m1.81 1.67zm0-.08h-.05z"/>
      <path class="cls-4" d="M128.51 58.08c-2.8.35-13.62-3.16-13.83-5s10.63-7.45 12.48-7.68 13.42 2.49 13.64 4.4-9.5 7.9-12.29 8.25m0 .21l.07.05.16-.06.15-.08a2.62 2.62 0 01-.38.09"/>
      <path class="cls-4" d="M131.56 57.26c.23-.18.68-.47.63-.59l-.4.34c-.11-.06-.4.09-.66.25l.3-.15c-.07 0 0 .08-.07.13-.48.17-.55.35-1 .44l-.33.2c-.11 0-.09 0-.06-.07a3.27 3.27 0 01-1 .43 1.19 1.19 0 00.67-.18 1.35 1.35 0 01.64-.23c.38-.23.9-.33 1.28-.57M137.48 47.32s.05 0 0 0m-19.34 8.49l.09.08a.1.1 0 00-.09-.08m6.21 1.43l.18.06a.42.42 0 00-.18-.06m-5.6-1.81v-.12.12m6.18 1.87a.24.24 0 00.11.06s-.05 0-.11-.06M132 57a.92.92 0 00-.21.12L132 57m-10.52-8.73a.14.14 0 000 .06v-.06m-6.32 4.36zM115.57 53.56h.08-.08"/>
      <path class="cls-4" d="M116.85 54.5c0-.06 0 0 .12 0-.33-.22-.51-.18-.82-.46l.14.14a2.1 2.1 0 01-.46-.22 1 1 0 01-.33-.33h.07a.66.66 0 01-.29-.26l-.08-.13a.17.17 0 00-.06-.06v.15a.6.6 0 01-.15-.18.13.13 0 010-.08.13.13 0 010-.06h.13a.9.9 0 01.08-.25s0-.07.1-.16.16-.19.11-.23.09 0 .07 0a1.54 1.54 0 00-.05.17c.09-.16.15-.14.22-.31l.21-.05.31-.39c.11-.22.49-.33.63-.63.07-.17.44-.35.57-.42s0-.15 0-.19a3.13 3.13 0 00.93-.74c.4-.09-.27.43.2.25a1.94 1.94 0 01.6-.54 8.24 8.24 0 011.2-.5l-.1-.02.4-.28-.18.25c.06-.07.25-.24.37-.36.41-.32.36 0 .64-.28a3.46 3.46 0 01.72-.46l-.06.16-.24.1c.18 0 .36-.21.59-.32s.05-.18.15-.27.2-.14.28-.14.08.11 0 .19c.12-.2.19-.21.56-.45v.11a.34.34 0 00.16-.18h.16c.49-.13.35-.41.91-.63-.12.12.47-.22.67-.22-.19.09.15.11.07.23.45-.14.12-.2.46-.37l-.09.19c.32-.19.06-.11.39-.28-.08.07.17 0 0 .1l.39-.14a3.39 3.39 0 01.34-.09v-.16a.2.2 0 01.22 0h-.12a.18.18 0 00.19 0 .23.23 0 01.21 0s-.09-.1.08-.11c-.06.08.25.09.27.13s.37 0 .41-.08c.19.08-.08.06-.09.1.18-.09.71.08.87 0h1l-.17.06c.43.11.3-.12.66 0-.1.1.6.11.41.21a2.25 2.25 0 00.62-.07c.19.11-.42.07-.15.16h.32v.08h.28c-.01 0 .14.16.11.21a3.19 3.19 0 00.62.14c.22-.09.58.11.72 0l.09.11c.29.06.28-.1.42-.09a1.83 1.83 0 01.39.09c-.41 0 .15.16.21.23a2.39 2.39 0 00.73.13c-.2 0-.11.11-.43 0 .13.18.49.11.84.24v.06a1.31 1.31 0 00.82 0c0 .1 0 .1-.19.13.31.16.86.28 1.22.43.1.1 0 .1-.12.08a7.19 7.19 0 001.13.32c-.11 0 .14.09.26.18s.06-.05.07 0a2.64 2.64 0 01.51.18 1.79 1.79 0 01.48.28h-.12c.28.19.5.28.71.42a.84.84 0 01.27.29v.1a.5.5 0 010 .12.57.57 0 01-.06.25c0 .06-.05 0-.07 0s0 0-.08.09 0 .1 0 .16a.42.42 0 01-.12.27l-.07-.07a2.27 2.27 0 01-.06.25.76.76 0 00.21-.19c.06-.06.09-.08.05.06a.53.53 0 00-.18.25.61.61 0 01-.24.27.55.55 0 00.07-.28 9.25 9.25 0 00-.65.69 3 3 0 01-.73.63c-.25.32-.65.65-.83.87a.27.27 0 010-.32c-.28.19-.28.46-.55.49-.05.2-.72.62-.69.81 0 0-.31.21-.07-.08-.35.31-.6.22-.77.34s.18 0-.05.17h-.08l-.07.09c-.11 0 .05-.14 0-.18-.34.18-.47.43-.85.68l.05-.07-.4.24-.29.25c-.07 0-.07.09-.17.15v-.07a1.83 1.83 0 01-.6.51l-.38.35c-.27.07.23-.29-.22 0l.07-.17c-.32.22-.4.19-.61.35.13 0 .29-.09.2 0-.33 0-.41.26-.64.44a.56.56 0 00.27-.22c.14-.07.08 0 .17 0l.16-.16h.1l.3-.24c0 .1.3-.15.22 0 .21-.17.38-.18.54-.38.18 0-.21.2 0 .11.88-.58 1.81-1.14 2.74-1.72l-.07.1.21-.27a2 2 0 001-.64v.06c.29-.23.88-.54 1.28-.88 0-.13.2-.23.36-.35s.31-.23.31-.37l-.05.1c-.17.08.09-.27.11-.35.2 0 .08.06.29 0l-.18.11.11.05a2.08 2.08 0 01.61-.72 1 1 0 00.46-.61v.06a.62.62 0 00.18-.36 2.55 2.55 0 000-.39c.07 0 .06.17.05.31a1 1 0 00.1-.58 1.09 1.09 0 00-.32-.59 4 4 0 00-.41-.35c-.14-.11-.27-.2-.37-.29s0 .12-.19.07-.21-.21 0-.14A2.74 2.74 0 00139 48a7.57 7.57 0 01-1.1-.47c-.38 0-.18.06-.72-.08.14 0-.07-.22.25-.11h.06a4.12 4.12 0 00-1.57-.39c0-.12-.09 0-.27-.17-.23 0-.29-.1-.44-.12h.06-.41c-.06 0-.15-.08-.15-.12v.08c-.21-.06-.07-.13-.33-.18v.07c-.15-.08-.44-.07-.45-.16s0 0 .09 0c-.22-.2-.68-.14-1-.28v.15c-.32 0-.18-.07-.15-.11-.21 0-.25-.11-.52-.19s-.08 0-.13.06l-.28-.1h.2c-.48.09-1.08-.26-1.41-.14-.16-.07.16 0 .07-.09-.5-.2-1.18-.1-1.6-.27a5 5 0 00-1.13-.2l-.63-.05h-.7c-.2 0-.39.1-.58.15s-.51.23-.69.41c0 0-.06-.05 0-.09a2.49 2.49 0 01-.6.25l.06-.06a7 7 0 00-1.4.69c-.16.09-.18 0-.25 0a3.22 3.22 0 00-.64.42.78.78 0 01-.22 0l-.07.14c-.12 0-.06-.06-.16 0a7.9 7.9 0 01-1.21.66h.06c-.1.09-.37.17-.25.05-.61.28-.8.6-1.59 1-.19-.08-.67.46-.88.38-.3.24-.55.31-.72.54a2.91 2.91 0 00-.85.6c0 .17-.6.54-.64.72 0 0 0-.08.06-.13-.23 0-.25.25-.46.4 0 0-.09 0-.06-.06a2.8 2.8 0 00-.57.45 3.79 3.79 0 00-.55.67 1.85 1.85 0 00-.21.47V52.94a.48.48 0 000 .17.76.76 0 000 .16.88.88 0 00.05.15 1.67 1.67 0 00.3.42c.1.11.21.22.32.32s.12.06.13 0 0-.06.18.07-.24 0 0 .15a1.24 1.24 0 01.47.24h-.21a1.15 1.15 0 00.35.2 1.46 1.46 0 01.44.26h.12c.42.11.82.52.88.49s.14 0 0 0c.14.07.34.17.28.21a.57.57 0 01.28 0h-.09.23l-.08-.08c.14.12.52.12.45.24l.28.18a1.07 1.07 0 01.49.09c0 .16.51.23.77.34a6.79 6.79 0 01.67.17c.2.07.47.19.35.19.17 0 .52.15.64.1l.3.21c.25-.09.65.26.72.1.18.08.13.11.25.17a2.31 2.31 0 01.82.17c.26.08.61.08 1 .16v.15c.21 0 .28-.06.47 0s0 0-.06 0a2.3 2.3 0 01.59.16h.82c.21.15-.36 0-.18.14a3.8 3.8 0 001.36.09v.07a2.73 2.73 0 00.49-.17 1 1 0 00.28-.17c.06 0 .08-.1 0-.13s.11-.09.11-.12-.09-.06-.27-.08-.48.13-.54 0v.1c-.27 0-.27 0-.29-.1s0-.12-.36-.15h.13a.83.83 0 01-.35 0h.1-.53c0-.06 0-.08.12-.11-.47-.07.06.19-.51.05-.1-.06 0-.05.13-.07a1.48 1.48 0 00-.73-.09c0-.08.19 0 0-.14 0 .05.05.13-.13.1.1-.06-.12-.07-.29-.13 0 0 0 .07-.06.07a1.3 1.3 0 01-.27-.08l.19.13c-.32 0-.45-.15-.66-.24h.11a2.12 2.12 0 00-.76-.23c-.58-.07.13.18-.54.08-.2-.08.18-.24-.33-.28.21.13-.37.07-.66 0l.34-.07a3.37 3.37 0 01-.37-.09c0 .14-.35-.13-.58-.11.31-.1.31-.06.42-.23a1.4 1.4 0 01-.83-.08h.34a5.32 5.32 0 00-1.51-.2c.15-.06 0-.15.2-.18l-.45-.14.17-.06c-.23 0-.39-.11-.42 0a.19.19 0 01.14 0s-.15.1-.37 0 .11 0 .09-.08c-.18 0-.14-.1-.31-.12l.11.12c-.15 0-.26-.1-.43-.12.2 0 .16 0 .12-.11-.11 0-.28 0-.33-.12l.14-.07h-.2s-.08-.1 0-.08c-.47-.28-.11.25-.7-.14 0 0 .11 0 .27.07.07-.06 0-.11-.12-.22a5.66 5.66 0 00-1-.4"/>
      <path class="cls-4" d="M117.86 54.9a1.89 1.89 0 00.4.16s-.38-.24-.4-.16m21.05-6.34a.17.17 0 00-.06-.06l.06.06M131.93 46.49c.15 0 .21 0 .22-.05a.28.28 0 00-.22.05M123.1 47.5a3.07 3.07 0 01.4-.26c-.11.07-.35.15-.4.26m17.43 2l-.14-.06.13.08zm-1.18-.78s-.3-.12-.25-.06a1.83 1.83 0 01.25.06m-5.27-1.93l-.08.05h.14z"/>
      <path class="cls-5" d="M129.88 50.419999999999995a.09.09 0 000-.05zM121.59 51.71zm0 0a.08.08 0 00.08 0h-.06M131.89 50.4zM133.22 50.44h-.15v.06z"/>
      <path class="cls-5" d="M134.78 51.56l-.15-.1a9 9 0 001-.16c.06 0 .06-.25.72 0s0 0 .06 0l-.11-.06c.06 0 .11-.1.19-.11a.05.05 0 010 .05l.21-.05.07.07c.06 0 0-.2.19-.14-.07-.1.08-.07.05-.13.1 0 .29-.08.33-.14a3.24 3.24 0 01-.54-.3c.14 0 0 0 0 0-.09 0-.09-.09-.14-.1h-.12v-.06c0 .12-.45-.12-.53-.11s-.19 0-.3 0-.09-.08-.19-.12 0 .07 0 .08l-.14-.07c.08 0 0 0 0-.07s-.3-.08-.32 0c-.16 0-.16-.08-.23-.08s.07 0 .08.05-.49-.16-.5 0v.25h-.06a.05.05 0 010-.06.91.91 0 01-.37 0l.16.25c-.11 0-.32-.15-.33-.06l-.07-.08c-.23-.14-.14.09-.23.05l-.12-.08h.1a1.92 1.92 0 01-.25-.12.14.14 0 01-.13.1c-.11 0-.19.08-.37 0v.1h-.13v-.08c.12 0 .36-.07.52-.09-.09 0-.2.06-.26.06s-.12-.08-.07-.14l-.05.08a1.47 1.47 0 01-.66 0c-.06 0-.12.06-.15 0a1.06 1.06 0 01-.55-.1v.1s-.12-.13-.13 0l-.08.05c-.06 0-.09.06-.16 0-.14 0 0 .08-.15 0s0 .12-.11.11l-.09-.12c-.14-.06-.15.07-.34.1a.18.18 0 01-.1-.25c-.07.13 0 .08-.13.15s0-.06 0-.1 0 .05-.13.06 0 .24 0 .25a.25.25 0 01-.25.06v-.05h-.09v-.06h-.13a.32.32 0 01-.2 0c-.19-.08-.31.08-.51.11v-.07c-.07-.06 0 .11-.09.08v-.08c-.06.12-.1 0-.15-.05v.11h-.09c-.11 0-.08-.13-.07-.19l-.06.09v-.09c0 .12 0 0-.14.06s0-.06 0-.07l-.13.15.08-.07v.14c-.08.12-.13 0-.19 0h-.18c-.06 0 0 .06 0 .08s0 0-.06-.06-.06.16-.14.12 0 0-.05 0v-.11.11s-.09.06-.09 0H127v-.09c0 .12-.17 0-.15.12-.06-.07-.22.09-.2-.08-.2 0-.29.18-.55.14-.1-.13-.33-.06-.49 0s-.49.17-.79.25c-.21-.17-.46.13-.68 0v.09c-.14-.11-.33.07-.53 0l-.08.06v.06c0 .06-.16 0-.16-.07 0-.09-.16.07-.23 0v.1h-.1c-.42.29-.65 0-1 .25 0-.12-.08.07-.1 0s-.19 0-.27.11h-.16c.08-.16-.09.15 0 0a11.22 11.22 0 00-1.36.12c-.11 0-.25.07-.34 0s-.18.13-.22.14-.19-.05-.15-.05-.18.19-.32.15-.37.18-.4 0c-.19-.08-.34.12-.55 0l-.35.51.18.48.39.37.92-.21.77.07 1.81-.29.11-.13c.38.16.81-.13 1.21 0v-.09h.14a21.44 21.44 0 012.95-.4c.09.06.35 0 .43 0a2.15 2.15 0 01.89-.21h.14c.15-.11.4 0 .6 0a32.91 32.91 0 013.27-.44c.53.1 1.11-.2 1.71-.14a4.81 4.81 0 001.41-.2"/>
      <path class="cls-5" d="M133.93 50.4zm1.58-.23h-.06.06m1.6.89v-.05H137h.07m-.22-.54"/>
      <path d="M84 42A42 42 0 1142 0a42 42 0 0142 42" fill="#efe5dc" fill-rule="evenodd"/>
      <path class="cls-2" d="M19.83 33.76s-.06 0 0-.13c-.15.15-.34.23-.45.48-.12.07 0-.22-.18 0s.27 0 .62-.35m0-.15a.7.7 0 00.19-.3 1.86 1.86 0 00-.19.3m-5.18 9.67a1.1 1.1 0 00-.06.27 2.32 2.32 0 00.06-.27M28.68 26.42l-.17.18-.24.18a2.19 2.19 0 01.87-.68h.06l-.49.35m-3.49 2.75v-.05l.15-.1-.17.15M71 44.4a1 1 0 00-.09-.38 3.33 3.33 0 000-.46 4.34 4.34 0 000-.51 9.45 9.45 0 00-.09-1.05 3.85 3.85 0 00-.08-.49l-.08-.43c0-.14-.06-.25-.09-.35 0 .12.08.12 0 0s-.11-.35-.15-.49-.09-.24-.05-.26a.72.72 0 01-.07-.35 1.42 1.42 0 000-.19v-.13s0-.1-.05-.17-.06 0-.08 0a5.56 5.56 0 00-.14-.63q-.13-.36-.3-.72c-.11-.25-.24-.49-.35-.74s-.12-.25-.17-.38-.09-.21-.13-.32a1.11 1.11 0 00.22.21l-.3-.5-.33-.52a4.14 4.14 0 00-.34-.48 5.54 5.54 0 00-.37-.45c.08 0 .11 0 .23.14a4.47 4.47 0 00-.92-1.15c.18.34.06 0 .21.2.15.38-.35-.15-.54-.46a5.43 5.43 0 00-.38-.43c-.1-.11-.2-.21-.38-.42s.21.2.18.05-.16-.36-.36-.61-.44-.46-.47-.51a1.88 1.88 0 00-.18-.12c-.06 0-.1-.05-.11 0-.34-.28-.07-.21-.29-.42l-.57-.32-.38-.29-.06-.05c0-.06-.17-.32.11-.15a5.13 5.13 0 00-.94-.63l-.21-.1c-.52-.41-1.06-.81-1.62-1.18.17.05-.1-.26.15-.15l-.43-.24c-.16-.1-.33-.23-.52-.34l-.56-.37-.53-.32c.17.21 0 .11-.33 0a1.69 1.69 0 00-.62-.21l-.44-.25-.05-.05c0-.06 0-.1-.1-.18-.42-.17-.82-.32-1.21-.5s-.78-.32-1.17-.44l-.61-.18-.69-.2a6.76 6.76 0 00-1.28-.24s0-.06.17 0c-.38-.13-.43-.08-.5-.05h-.14l-.42-.16h.14a14.08 14.08 0 00-1.72-.28h.23l-.93-.11H48.83s.11-.05.28-.05a1.39 1.39 0 00-.62 0h-.63a1.55 1.55 0 01-.31-.1H46.12a4.63 4.63 0 00-.57-.14h-.1c.4-.38.74-.78 1.08-1.17a8.38 8.38 0 001-1.33 4.79 4.79 0 00.34-.81 3.6 3.6 0 00.14-.92 3.19 3.19 0 00-.15-.95 2.57 2.57 0 00-.53-.89 2.36 2.36 0 00-.89-.61 3.4 3.4 0 00-1-.22 5 5 0 00-.95 0l-.45.07-.42.1a10.74 10.74 0 00-2.34 1.05 11.92 11.92 0 00-1.6 1.14c-.07-.22-.14-.44-.23-.65a8.07 8.07 0 00-.94-1.7c-.1-.14-.21-.26-.31-.39a2.8 2.8 0 00-.38-.4 2.61 2.61 0 00-.54-.4 2.43 2.43 0 00-.76-.25 2.94 2.94 0 00-.73 0 3.31 3.31 0 00-.6.14 5 5 0 00-.51.19l-.13.05-.12.06-.23.11a7 7 0 00-1.69 1.24 6.44 6.44 0 00-1.23 1.67 6.31 6.31 0 00-.65 2c.06-.17.09-.16.1-.06s0 .1 0 .17a1.85 1.85 0 010 .23l-.05.07c0 .15 0 .32.05.48s-.05.29-.08.24a.77.77 0 010-.37 5.94 5.94 0 00.07 1.87l.06.24.09.25a3.6 3.6 0 00.23.49 2.41 2.41 0 00.33.44l-1.53 1.07.11-.11c-.2.18-.48.31-.45.18l-.38.35v-.1c-.68.54-1.22.82-1.88 1.43l.33-.12c-.2.16-.39.34-.58.51l-.45.36-.16.09c.16-.18 0-.12 0-.16a2 2 0 01-.29.29l.06-.24a1.85 1.85 0 01-.54.58l-.4.31a1.39 1.39 0 00-.24.22v-.08c-.64.46.17 0-.22.33s-.26 0-.62.19c-.6.53-1.49 1.56-2.2 2.1-.12.13-.24.27-.35.41l-.35.43c-.05.07-.11.14-.16.22l-.16.21-.28.41c-.2.24-.24.21-.26.18s0 0-.21.22c0-.09-.11-.06-.19-.06s-.76.92-.32.62c-.15.17-.29.36-.44.55a6.46 6.46 0 00-.44.59c-.15.2-.29.41-.43.61s-.26.42-.39.63c.17-.28.12-.41-.08-.21a12.79 12.79 0 01-.89 1.85c.11 0 .23-.2.29-.07a2.47 2.47 0 01-.18.48c-.08 0-.16 0-.26.07a1.3 1.3 0 00-.37.53c0-.13.09-.41.2-.62s.21-.38 0-.27a1.3 1.3 0 01.1-.39 4.23 4.23 0 01.25-.54c.09-.18.2-.35.29-.5a2.7 2.7 0 01.25-.31c.2-.64-.29.43-.36.25-.14.27-.24.46-.34.7s-.22.52-.41.94c.07 0 .22-.23.09.17a1.79 1.79 0 01-.35.76c-.12.14-.23.21-.27.31 0-.12.09-.28.12-.39a7.33 7.33 0 00-.45 1.22c-.14 0-.06-.18 0-.44a2.17 2.17 0 00.22-.66l-.31.33c-.18.41-.15.48-.14.55s0 .15-.16.57v-.13c0 .18-.09.37-.14.56a.18.18 0 00.17-.07 1.74 1.74 0 00.21-.45.58.58 0 010 .45 3.28 3.28 0 00-.26.73c0 .27.08-.32.2-.3s.06.1 0 .26 0 .18-.06.28l-.07.29c-.08.3-.13.38-.18.4s-.1 0-.17.11a2.2 2.2 0 01.07-.33c0-.13.08-.23.1-.19.09-.79-.33.26-.27-.28a1 1 0 00-.12.61 1.12 1.12 0 010 .27c0-.16.09.12.17 0a1.75 1.75 0 010 .56.64.64 0 01-.15.27 1.35 1.35 0 00-.19.25.84.84 0 00-.08.21 1.22 1.22 0 00-.06.31c.12-.09.14.25.19.52s.09.48.25.13a4.07 4.07 0 010 .78c-.12-.27-.14.43-.24 0v.36c0-.19-.09-.37-.13-.56-.07.2-.13.46-.19.71s-.1.46-.14.57c.06.53.14-.16.17.45-.07-.21-.14.17-.13.44 0-.55.21 0 .25.32 0 .53 0 1-.09.9s-.12-.34-.17-.51c.07.2.06.24 0 .29a.44.44 0 000 .29 3.55 3.55 0 00.36.45 2 2 0 010 .24v.19a1 1 0 000 .27c-.06-.17-.12-.34-.17-.52.07.35 0 .4 0 .45a.23.23 0 00-.05.12 1 1 0 00.07.34l.15.17c0 .11 0 .18-.05.15.08.14.16.47.23.62l-.06.07c.07.14.17.29.25.45a1.16 1.16 0 01.15.55.54.54 0 00-.05-.37 1.68 1.68 0 01-.16-.52c0-.17.08-.06.15.12l.18.45c-.19 0 .25.75.41 1.08s.07.41.1.54l.18.07c-.08.12 0 .28.15.46a2.68 2.68 0 01.39.56c-.18-.14-.25-.07-.13.2 0-.22.11-.1.26 0s.31.31.33.23c.17.33.1.32 0 .27s-.28-.17-.27 0a1 1 0 01.2.22c.06.08.11.17.16.25a.75.75 0 00.35.37c-.28-.47.14 0 .28 0 .41.53-.14 0 .11.37a1 1 0 00.32.23c.09 0 .11 0 0-.2a2.62 2.62 0 00.44.44l.24.23a1.37 1.37 0 01.2.26c0 .21-.61-.56-.49-.32.32.34.45.38.58.41a1 1 0 01.59.31c-.11-.14-.07-.19.05-.17a1.39 1.39 0 01.47.21c.68.65-.36-.22-.19.12l.3.23c.14.25-.13.12-.4 0a3.11 3.11 0 00-.34-.16c-.09 0-.12 0-.05.11a3.17 3.17 0 00.36.23c-.11 0-.29 0-.19.12.09 0 .28.14.46.3a3.08 3.08 0 00.4.33c.14 0-.29-.18-.18-.21a3 3 0 00.53.27 2.2 2.2 0 01.63.42c-.35-.16 0 .21-.14.17.25.23.16-.05.53.27h-.09a15.75 15.75 0 002.53 1.41c.23.09.45.19.68.27l.66.23.65.17c.2.05.41.09.6.12a1.53 1.53 0 00.23.15l.35.16a4.45 4.45 0 00.46.18l.57.22c-.37-.15 0-.12.24-.08l.38.24a5.13 5.13 0 001.68.23.17.17 0 01.11.12c.45.17.5 0 .68 0l.28.14.08-.08a4.82 4.82 0 01.7.08c.2 0 .34.1.3.17.18 0 .36 0 .14-.08a2.88 2.88 0 00.47.1l.66.08.74.05h.69c-.39-.06-.36-.1-.38-.2.13-.15.18.05.52 0 0 .06.38.13 0 .16l.44.07a3.39 3.39 0 00.47 0h3.04c.35 0 .19-.06.33-.11a7 7 0 001.43 0h.38l.37-.06c.25 0 .49-.06.73-.07-.22 0 .06-.26.58-.33a.91.91 0 01.28-.07.16.16 0 01.12.06.41.41 0 00.38.15 4.66 4.66 0 01.93-.23l.25-.08.3-.09a2.79 2.79 0 01.62-.11h-.06c.3 0 .67 0 1-.12.11-.16.9-.28 1.06-.43s0 0 .07 0v-.4l.64-.1a1.67 1.67 0 01-.31.2c.34 0 .39-.09.4-.14s0-.09.13-.17A1.08 1.08 0 0150 63c-.18.1-.35.07-.46.13s.29-.05.31 0 .11-.16.45-.24l.59-.17c.2-.06.36-.09.33 0 .23-.14.53-.23.69-.34a2.37 2.37 0 01-.75.13 2.89 2.89 0 01.7-.24l-.16.09c.16-.09.79-.27.44-.26h.49a3.88 3.88 0 01.92-.46c.06.1-.19.33.5.09l.26-.17.26-.17c.3-.15.39-.16.37-.07a2.88 2.88 0 001-.56 2.05 2.05 0 01.78-.48c-.27.28 0 .16.38 0 0 0 0-.08.16-.16-.13 0-.16.18-.47.24-.12 0 .3-.21.45-.32a4.8 4.8 0 001.61-.67l.48-.26.46-.28c.31-.18.62-.35.91-.49-.08 0 0-.13.19-.22a2.39 2.39 0 00.44-.31c0 .19.58-.42.92-.52H62a2.58 2.58 0 00.44-.29l.32-.32a1.25 1.25 0 01.62-.43c.38-.22 0 .18-.17.31a3 3 0 00.88-.62 2.44 2.44 0 01.8-.59c0-.09-.22-.06.15-.44.18-.1.44-.27.65-.41s.38-.25.36-.21a2.87 2.87 0 01.57-.59c0 .06-.1.18-.18.28a5.47 5.47 0 001.06-1.23 1.25 1.25 0 00.29-.23l.18-.19.13-.33c.13-.15.26-.32.38-.48l.36-.45a.52.52 0 01.06-.07 1.19 1.19 0 01.08-.16c.06-.11.14-.22.2-.32s.23-.37.15-.45.08 0 .11-.07a5.78 5.78 0 01.17-.8l.08.15c.06.07.18-.14.27-.37s.16-.43.21-.51 0 0 0-.12.1-.29.06-.32 0-.25.07-.37c.07-.3 0-.32 0-.36a.66.66 0 010-.11c0-.06 0-.17.07-.35.08-.41.19-.11.14 0a3 3 0 00.19-1.07c0 .13 0 .18 0 0v-.5.4a2.7 2.7 0 00.06-.39.21.21 0 000-.13c0-.12 0-.23.06-.3L71 45a3.09 3.09 0 000-.59m-1.68-7.88v0"/>
      <path class="cls-2" d="M20.28 33.28c0-.08 0-.09.08-.21-.11.07-.16.23-.27.35a.78.78 0 00.19-.14m-1.66 1.87l.15-.27-.2.3c-.07.11-.14.23-.19.33s-.21.39-.19.43l.29-.53a2.15 2.15 0 01.14-.26m-2.28 3.4v-.19c-.17.34-.17.42 0 .19m-.21.66a2 2 0 00.25-.39c-.06-.1-.18.26-.25.39m-1.95 6.14v.22a1.91 1.91 0 010 .46.77.77 0 00.07-.33v-.35m0 3.48a.78.78 0 010-.26l-.08.1c0 .16.08.36.1.17m48.11 8.26l.26-.22-.26.14zm6-22.43s-.12 0 .09.29c-.22-.35.07 0-.09-.29m-10-8.37v.15l.1-.11z"/>
      <path class="cls-7" d="M36.15 39.74zm0-.1s-.09-.11-.09-.15.05.08 0 .13zm0-.45h-.05m-.07.07c0 .06.08 0 0 0m0 .2v-.05m-.09-.41v-.06m0 .24h.07zm0-.37zm-.09-.12a.13.13 0 00-.09 0v.07c0 .07 0 0 0 0m0 .2zm0 .2h0m0-.12h-.05m-.16-.22h-.07.05c.05 0 0 0 0 0m-.26-.17zM35.31 38.71v-.08h-.06l.07.06zM35.49 38.8h.09c.09 0 0 0 0-.06h-.08.06-.09m.23.34s.05 0 0 0a.2.2 0 010-.09l-.05.09M35.6 39h-.06m-.13-.38h-.07zm-.09 0zm-2.33.22h-.03m1.21-.47a.07.07 0 01.06 0 .05.05 0 00-.08 0m.75.1"/>
      <path class="cls-7" d="M33.38 38.68v-.06.15l-.08.06a.27.27 0 01.08-.15zm.46-.11h-.05v-.06.06h-.06a.54.54 0 010-.12.37.37 0 01.15 0zm.66-.17c.07 0 0 .05 0 0s.13-.11.23 0 0 .09 0 .12-.08 0-.11 0a.08.08 0 01-.08 0h-.27a.26.26 0 01.23-.12zm1.75 1.91h-.06l.06-.11c-.06 0 0-.12-.07-.12h-.12c-.04 0 0-.07 0-.1a1.74 1.74 0 00-.67-1.19l-.11-.08a.05.05 0 01.06 0s.1-.11.1-.18 0 0-.06 0 .05.09 0 .1 0 0 0-.07-.08 0-.11.07l-.14-.08-.15-.06c0-.05.07 0 0-.06s.12 0 .16 0v.05h-.05s.05.1.11 0 .13 0 .17 0 0 0 0-.08c0 .08-.13-.07-.11 0 0-.08-.05-.06-.08-.13s-.11 0-.14 0-.06-.08 0-.08h-.06a.13.13 0 00-.11 0s-.08 0 0 0h-.1a.38.38 0 00-.15 0h-.06a.22.22 0 01-.11 0 .2.2 0 01-.12 0h-.14a.1.1 0 00-.13 0 .65.65 0 01-.15 0v.05a.34.34 0 00-.14.08s-.13 0-.21.08-.1 0-.13.07-.07.08-.12.09v.06c-.06 0 0 .06-.1 0s-.06.11 0 .17a.06.06 0 000 .06v.09h-.09v.25s-.13.25-.23.38c.11 0-.07 0 0 .08s0 0-.06 0-.07.11 0 .17.07.1.14.11 0 .06 0 .09v.17a.57.57 0 000 .13c.07 0 0 0 0 .09v.15c.09 0 0 .1 0 .15s-.09.13-.09.17c0 .1 0 0 .09.05s-.08 0-.07.06.15.08.13.16 0 0 .06 0 0 .16.08.15.1.08.14.07 0 .09.06.12.1 0 .05.09l.09.07c0 .06.09 0 .13 0s.08.09.19.07 0 0 .08.07.09.07.14.06.12 0 .18.08.11.05.15 0h.08c-.09 0 0-.07 0-.1s.09.06 0 .07c0 .08.12 0 .11.1a2.32 2.32 0 00.59 0h.06v.06c0 .01.07-.06.06-.07s0 .08 0 .08 0-.06.07-.08 0 0 .05 0h.08-.05s.07 0 0-.07.12 0 .19 0a.72.72 0 01.14-.09.25.25 0 01.11-.12s-.07 0 0-.06.1 0 .2 0 0 0 0-.07v-.06h.08c.08 0 .06-.09.1-.14a.35.35 0 00.12-.15h.11s-.07-.06 0-.08a.67.67 0 00.14-.36v-.19a.36.36 0 010-.09.3.3 0 010-.1zM35 38.36000000000001s-.12 0 0 0M35 38.6h-.06M36.21 40.13zm-.07-.1h.06-.06zm15.74-2.29h-.05zm0-.1s-.09-.11-.09-.15v.13zm-.07-.38c0 .06.07 0 0 0m0 .2v-.05m0-.51v-.06m0 .23h.07zm0-.36zm-.09-.12a.13.13 0 00-.09 0v.06c0 .06 0 0 .05 0m0 .17M51.5 37zm0 .21h0M51.39 36.88a.09.09 0 01-.07 0v.06c0 .01 0 0 0 0m-.25-.17zm.27.23M51.19 36.72v-.08h-.06l.07.06zM51.19 36.83h.08c.03 0 0 0 0-.06h-.08l.06.05h-.08m.22.34a.2.2 0 010-.09l-.05.09m-.05-.16h.05-.07v.05m-.13-.38h-.07zm-.09 0zm-2.33.22h-.08m1.36-.58a.07.07 0 01.06 0 .05.05 0 00-.08 0m.75.1"/>
      <path class="cls-7" d="M50.44 36.56c-.06 0-.08-.05-.11-.05a.08.08 0 01-.08 0h-.26a.19.19 0 01.13-.1c.07 0 0 .05 0 0s.14-.12.24 0 .08.12.08.15zm-.95.08v-.06.06h-.06v-.12a.43.43 0 01.15.05zm-.43.22a.24.24 0 010-.15v-.06.15zm2.88 1.48h-.06l.06-.11c-.06 0 0-.12-.07-.12h-.12a.34.34 0 000-.1 1.74 1.74 0 00-.67-1.19s.1-.11.1-.18 0 0-.06 0 0 .09 0 .1v-.07c0-.07-.07 0-.11.07a1 1 0 00-.3-.14s.07 0 0-.06.12 0 .16 0 0 .09.09 0 .13 0 .17 0 0 0 0-.08-.13-.07-.11 0c0-.08 0-.06-.08-.14s-.11 0-.14 0-.06-.08 0-.09h-.06a.13.13 0 00-.11 0H50.48a.39.39 0 00-.15 0h-.06a.22.22 0 01-.11 0 .2.2 0 01-.12 0h-.14a.1.1 0 00-.13 0 .82.82 0 01-.14 0 .55.55 0 00-.14.09s-.13 0-.21.08-.1 0-.14.07 0 .08-.11.09a.15.15 0 000 .06c-.06 0 0 .06-.1 0s-.06.11 0 .17a.06.06 0 00-.05.06v.09h-.09v.25s-.13.25-.23.38c.11 0-.07 0 0 .08s0 0-.06 0-.07.11 0 .17 0 0-.05 0 .07.1.14.11 0 .06 0 .08-.05 0-.05 0v.17a.45.45 0 000 .12c.08 0 0 0 0 .09v.15c.09 0 0 .1 0 .15s-.09.13-.09.17c0 .1.05 0 .09.05s-.08 0-.07.06.15.08.13.16 0-.05.06 0 0 .16.08.15.1.08.14.07 0 .09.06.12.1 0 0 .09l.09.07c.05.06.09 0 .13 0s.08.08.19.07 0 0 .08.07a.19.19 0 00.15.06c.06 0 .12 0 .18.08s.11 0 .15 0h.08c-.09 0 0-.07 0-.1s.09.06 0 .07c0 .08.12 0 .11.1a2.32 2.32 0 00.59 0h.06v.06c0 .06.07-.06.06-.07s0 .08 0 .08 0-.06.07-.08h.08s.07 0 0-.07.12 0 .19 0a.72.72 0 01.14-.09.19.19 0 01.11-.12s-.07 0 0-.07.1 0 .2 0 0 0 0-.06v-.07c0-.01 0 0 .08 0s.06-.09.1-.14a.35.35 0 00.12-.15h.11s-.07-.06 0-.08a.67.67 0 00.14-.36v-.19a.36.36 0 010-.09.3.3 0 010-.1zM50.68 36.39s-.11 0 0 0M50.74 36.63h-.06M52 38.16zm-.07-.1H52z"/>
      <path d="M44.59 58.34l.16-.06.15-.08a2.34 2.34 0 01-.38.09zm3.59-1.67l-.4.34c-.11-.06-.4.09-.66.25l.3-.15c-.07 0 0 .08-.06.13-.49.17-.55.35-1 .44l-.32.2c-.12 0-.09 0-.06-.06a3.47 3.47 0 01-1 .42 1.19 1.19 0 00.67-.18 1.43 1.43 0 01.64-.23c.39-.22.9-.33 1.28-.57s.69-.47.63-.59m5.26-9.35s.06 0 0 0m2.89 3.59" fill="#d7c5b9" fill-rule="evenodd"/>
      <path d="M56.78 50.1a.63.63 0 00-.17-.7.74.74 0 01.18.21 1 1 0 010 .1.5.5 0 010 .12.85.85 0 010 .26m-.11.56a.62.62 0 00-.18.25.5.5 0 01-.24.27.69.69 0 00.08-.28 3.94 3.94 0 00-.29.29 5.09 5.09 0 00.39-.47v.07a.93.93 0 00.21-.19c0-.06.08-.08 0 .07m-1 .92a2.89 2.89 0 01-.72.63c-.26.32-.65.65-.83.87a.31.31 0 010-.17 15.41 15.41 0 001.82-1.58l-.22.25m-2 1.63l.13-.1a.26.26 0 01-.13.1m-.79.85s-.3.21-.06-.08a1.16 1.16 0 01-.67.29c.48-.32 1-.64 1.39-1-.13.21-.69.57-.66.75m-.89.43h-.08l-.06.09c-.09 0 0-.07 0-.13l.16-.11s.13 0 0 .14m-4.44-8.45h-.16a.9.9 0 00.16 0c.05 0 0 0 0 .06m2.46.57a1.75 1.75 0 01.38.09h-.14l-.32-.09h.08m6.65 3.74a.41.41 0 01-.12.25l.14-.23m.54-.59a1.15 1.15 0 00-.31-.6 4.09 4.09 0 00-.42-.35l-.37-.29c-.2 0 0 .12-.19.07s-.21-.21 0-.15A2.83 2.83 0 0055 48a8.08 8.08 0 01-1.1-.47c-.38 0-.17.06-.72-.08.14 0-.06-.22.26-.11h.06a4 4 0 00-1.58-.38c0-.12-.08-.06-.26-.18-.23 0-.3-.1-.44-.12h-.4c-.06 0-.15-.08-.16-.12v.08c-.21-.06-.07-.13-.33-.18v.07c-.15-.08-.44-.07-.44-.16s0 0 .08 0c-.22-.2-.67-.14-1-.28l.05.16c-.32 0-.18-.08-.16-.12-.21 0-.24-.11-.51-.19s-.09 0-.14.06l-.27-.09h.2c-.49.09-1.09-.27-1.42-.15-.16-.07.17 0 .07-.09-.5-.2-1.18-.1-1.6-.27a5.54 5.54 0 00-1.13-.2l-.51-.18h-.71l-.59.14c-.12.13-.5.23-.69.41 0 0-.06-.05 0-.09a2.66 2.66 0 01-.6.25l.06-.06a6.72 6.72 0 00-1.4.69c-.16.09-.19 0-.25 0a3.32 3.32 0 00-.65.42.72.72 0 01-.22 0l-.06.14c-.12 0-.06-.06-.16 0a6.23 6.23 0 01-1.22.66h.07c-.11.1-.38.17-.25.05-.62.28-.81.6-1.6 1-.19-.08-.67.46-.88.38-.3.24-.55.31-.71.54 0 0-.05 0 0 0a3.2 3.2 0 00-.85.6c-.05.17-.61.54-.64.72-.05 0 0-.08 0-.13-.23 0-.24.26-.46.4 0 0-.08 0-.06-.06a3.11 3.11 0 00-.57.45 3.79 3.79 0 00-.55.67 2 2 0 00-.21.47V52.8a1 1 0 000 .17 1 1 0 000 .17 1.21 1.21 0 00.05.14 2 2 0 00.3.42l.32.32c.13.1.13.06.13 0s0-.06.19.06-.24 0 0 .15a1.2 1.2 0 01.46.24c-.06 0 0 .06-.21 0a1.23 1.23 0 00.36.2 1.3 1.3 0 01.43.26h.12c.42.11.82.52.88.49s.14 0 0 0c.14.07.34.17.28.21a.61.61 0 01.29 0h-.09.23l-.09.11c.14.12.51.12.45.24h-.06l.28.18a1 1 0 01.49.09c0 .16.52.23.78.34a6.22 6.22 0 01.66.17c.21.07.47.19.35.19.18 0 .53.15.64.1l.3.21c.25-.09.65.26.73.1.18.08.12.11.24.17a2.37 2.37 0 01.83.17c.27.09.62.08 1 .16v.15c.21 0 .29-.06.47 0s0 0-.06 0a2.3 2.3 0 01.59.16 7.24 7.24 0 00.82 0c.21.15-.36 0-.18.14a3.84 3.84 0 001.37.09v.07a2.5 2.5 0 00.48-.17.9.9 0 00.28-.17s.06-.07 0-.1c1.35-.18 4.31-1.66 7-3.36a3.49 3.49 0 01-.48.39v-.07l-.39.24-.28.24c-.07 0-.07.09-.17.15v-.07a1.89 1.89 0 01-.59.51h-.05l-.39.35c-.27.07.24-.29-.21 0l.06-.17c-.31.22-.39.19-.6.35.13 0 .29-.09.19 0-.33 0-.41.26-.64.44a.64.64 0 00.28-.22c.14-.07.07 0 .16 0l.16-.16h.1l.3-.23c0 .09.31-.16.23 0 .21-.17.37-.18.53-.38.19 0-.21.2 0 .11.88-.58 1.81-1.14 2.74-1.72l-.07.1c.07-.1.17-.2.21-.27a2 2 0 001-.64v.06c.28-.23.87-.54 1.27-.88 0-.13.2-.23.36-.35s.31-.23.32-.37l-.06.1c-.17.08.1-.27.11-.35.2 0 .08.06.29 0l-.18.11.11.05a2 2 0 01.61-.71 1.09 1.09 0 00.46-.62v.06a.62.62 0 00.18-.36 2.56 2.56 0 000-.39c.06 0 .06.17 0 .31a1.05 1.05 0 00.09-.57" fill="#dfd3c9" fill-rule="evenodd"/>
      <path class="cls-5" d="M45.870000000000005 50.43zM37.58 51.72zm0 0a.06.06 0 00.07 0h-.06m10.27-1.31zM49.18 50.45a.48.48 0 00-.16 0v.06z"/>
      <path d="M50.78 51.56l-.15-.1a9.31 9.31 0 001-.16c.06 0 .06-.25.71 0s0 0 .06 0l-.11-.06c.06 0 .11-.1.19-.11a.1.1 0 010 .05l.2-.05.07.07c.06 0 0-.21.2-.14-.08-.1.07-.08 0-.13.1 0 .29-.08.33-.14a3.24 3.24 0 01-.54-.3c.14 0 0 0 0 0-.09 0-.1-.09-.15-.1a.17.17 0 01-.12 0v-.06c-.05.13-.44-.11-.53-.11h-.3c-.11 0-.09-.07-.18-.11s0 .06 0 .07l-.13-.06c.07 0 0 0 0-.07s-.3-.08-.32 0c-.15 0-.16-.08-.22-.08s.07 0 .07.05-.5-.16-.5 0v.25h-.06c-.05 0 0 0 0-.06a.94.94 0 01-.38 0l.16.25c-.11 0-.31-.15-.33-.06l-.07-.08c-.23-.14-.14.09-.23.05l-.12-.08h.11a1.45 1.45 0 01-.25-.12c0 .05 0 .09-.13.1s-.18.08-.36 0v.1h-.14v-.08c.13 0 .36-.07.52-.09-.1 0-.2.06-.27.06s-.12-.08-.06-.14l-.05.08a1.62 1.62 0 01-.66 0c-.07 0-.13.06-.15 0a1 1 0 01-.56-.09v.1c-.05 0-.12-.13-.13 0l-.09.05c-.05 0-.08.06-.16 0-.13 0 0 .08-.14 0s0 .12-.12.11l-.08-.12c-.14-.06-.15.07-.34.1a.18.18 0 01-.11-.25c-.07.13 0 .08-.13.15s0-.06 0-.1-.06.05-.13.05a.92.92 0 010 .26.26.26 0 01-.25.06v-.05h-.09v-.06h-.14a.3.3 0 01-.2 0c-.18-.08-.31.07-.51.11v-.07c-.08-.06 0 .11-.1.08v-.08c-.06.12-.09 0-.15-.05v.11h-.1c-.11 0-.08-.13-.07-.19l-.06.09v-.09c0 .12 0 0-.13.06s0-.06 0-.07l-.13.15.03.24v.14c-.08.12-.13 0-.19 0h-.18c-.06 0 .06.06 0 .08s0 0-.05-.06-.07.16-.15.12 0 0-.06 0v-.11l-.05.11s-.1.06-.1 0H43v-.09c0 .12-.17 0-.14.12-.07-.07-.22.09-.21-.08-.2 0-.29.18-.54.14s-.34-.06-.49 0c-.3.09-.49.17-.8.25-.21-.17-.46.13-.68 0v.09c-.15-.11-.34.07-.54 0l-.07.06v.06c0 .06-.16 0-.17-.07 0-.09-.16.07-.23 0v.1h-.1c-.41.29-.65 0-1 .25 0-.12-.07.07-.09 0s-.19 0-.27.11h-.15c.07-.16-.09.15 0 0a9.64 9.64 0 00-1.36.12c-.12 0-.26.07-.35 0s-.18.13-.21.14-.19-.05-.15-.05-.18.19-.33.15-.37.18-.39 0c-.2-.08-.35.12-.55 0l-.34.51.17.48.39.37.93-.21.76.07 1.81-.29.12-.13c.38.16.81-.13 1.21 0v-.09h.13a21.64 21.64 0 013-.4c.09.06.36 0 .43 0a2.19 2.19 0 01.89-.21h.14c.15-.11.41 0 .6 0 1.13-.12 2.14-.43 3.27-.44.53.1 1.11-.2 1.72-.14a4.81 4.81 0 001.41-.2" fill="#c2aa9e" fill-rule="evenodd"/>
      <path class="cls-5" d="M49.92 50.4zm1.58-.23h-.06.06m1.6.89v-.05H53h.07m-.22-.54"/>
    </g>
  </g>
</svg>
