<svg xmlns="http://www.w3.org/2000/svg" xmlns:xlink="http://www.w3.org/1999/xlink" viewBox="0 0 168 84"><defs><style>.cls-1{fill:#fff;}.cls-1,.cls-10,.cls-15,.cls-16,.cls-3,.cls-4,.cls-5,.cls-6,.cls-7,.cls-8,.cls-9{fill-rule:evenodd;}.cls-2{mask:url(#mask);}.cls-3{fill:#dfbdd2;}.cls-4{fill:#040201;}.cls-5{fill:#fdfaf6;}.cls-6{fill:#221e1f;}.cls-7{fill:#f2dab2;}.cls-8{fill:#c2aa9e;}.cls-9{fill:#aca199;}.cls-10{fill:#efe5dc;}.cls-11{mask:url(#mask-2);}.cls-12{mask:url(#mask-3);}.cls-13{mask:url(#mask-4);}.cls-14{mask:url(#mask-5);}.cls-15{fill:#937c77;}.cls-16{fill:#e1d5cb;}</style><mask id="mask" x="84" y="0" width="84" height="84" maskUnits="userSpaceOnUse"><g id="prefix_b" data-name="prefix  b"><path id="prefix_a" data-name="prefix  a" class="cls-1" d="M84,0h84V84H84Z"/></g></mask><mask id="mask-2" x="10" y="18" width="63.21" height="49" maskUnits="userSpaceOnUse"><g id="prefix_b-2" data-name="prefix  b"><path id="prefix_a-2" data-name="prefix  a" class="cls-1" d="M10,18H73.21V67H10Z"/></g></mask><mask id="mask-3" x="72.31" y="47.79" width="0.9" height="1" maskUnits="userSpaceOnUse"><g id="prefix_d" data-name="prefix  d"><path id="prefix_c" data-name="prefix  c" class="cls-1" d="M72.31,47.79h.9v1h-.9Z"/></g></mask><mask id="mask-4" x="72.69" y="44.52" width="0.52" height="1" maskUnits="userSpaceOnUse"><g id="prefix_f" data-name="prefix  f"><path id="prefix_e" data-name="prefix  e" class="cls-1" d="M72.69,44.52h.52v1h-.52Z"/></g></mask><mask id="mask-5" x="72.46" y="42.31" width="0.75" height="1" maskUnits="userSpaceOnUse"><g id="prefix_h" data-name="prefix  h"><path id="prefix_g" data-name="prefix  g" class="cls-1" d="M72.46,42.31h.75v1h-.75Z"/></g></mask></defs><g id="레이어_2" data-name="레이어 2"><g id="레이어_15" data-name="레이어 15"><g class="cls-2"><path class="cls-3" d="M168,42A42,42,0,1,1,126,0a42,42,0,0,1,42,42"/></g><path class="cls-4" d="M149.71,34.29c.31,0,.66,0,.53-.16a4.54,4.54,0,0,0-.73,0c-.24,0-.4-.16-.35-.2s-.38-.11-.53-.05a3,3,0,0,0,1.13.31c.08,0,0,.06,0,.08m3.19,1.19a.75.75,0,0,0-.2-.1l.18.11h0m-7-7.09h0s0,0,0,0m-10.16-8.64a.44.44,0,0,1,.14.19c0-.11.58.14-.14-.19M153,35.57l-.12-.08s0,0,0,0a.17.17,0,0,1,.14,0M119.19,66l-.69-.16.69.16m-2.72-.69a1.48,1.48,0,0,0-.35-.19s-.07,0-.09,0Zm19.72-.7-.09,0a.19.19,0,0,0,.09,0"/><path class="cls-5" d="M156,50.9a.13.13,0,0,1-.1,0l.18-.38S156.07,50.65,156,50.9ZM124.52,17.71s0,.08-.14.09c.07,0-.23-.05-.43-.07Zm.74,0a1.83,1.83,0,0,1,.32,0,1.9,1.9,0,0,0-.32,0Zm27.86,18.27c0,.08.07.15,0,.16a5.6,5.6,0,0,0-.49-.36l.47.2Zm2.35,2.48v.2l-.29-.42a.94.94,0,0,1,.28.22Zm2.13,5.52,0,.22a3,3,0,0,1-.25-.94,3,3,0,0,0-.27-1.06c.36.73.13.1.27.13,0-.21-.05-.54,0-.46a5.59,5.59,0,0,0-.42-1.13s-.16-.39,0-.35c-.23-.46,0,.14-.08.12a9.54,9.54,0,0,0-1.49-2.56,4.9,4.9,0,0,0-.79-.71l-.63-.46-.2-.18c-.06-.14.31.11.31.11a3.32,3.32,0,0,0-1-.84c.1,0,0,0-.05-.17-.3-.22-.28,0-.66-.34a1.48,1.48,0,0,1,.41.06,13.22,13.22,0,0,0-1.22-.53c-.08-.12.29,0,.46.06a4.06,4.06,0,0,0-1.41-.47l.28.16c-.17-.06-.05-.13.09-.09.43.1.54.31.55.35l-.3-.12c.19.35,1.15.55,1.67.95h-.25a10.8,10.8,0,0,0-4.48-1.74l0-.06c.13,0,.28.07.32-.11l.14-.07-.14,0a2,2,0,0,0-.09-.57l-.37-.62v-.25l.23.56a1.38,1.38,0,0,0-.34-.73.51.51,0,0,0,0-.31l-.48-.55c0-.11.28.21.11-.23-.23-.25,0,.36-.31-.1-.07-.34.05-.3-.22-.61,0-.07.09,0,.19.11a6.08,6.08,0,0,0-.69-.91,3.23,3.23,0,0,0-.32-.65c-.14-.21-.25-.38-.16-.42a4.58,4.58,0,0,1-.68-.7c.27.18.09-.07-.11-.37s-.48-.62-.33-.63A3.28,3.28,0,0,1,144,26a8.18,8.18,0,0,0-.95-.92.44.44,0,0,1,.17.12,6.46,6.46,0,0,1-.51-.7c-.15.07-.69-.36-1-.53-.3-.49.37.07.35-.16-.07.12-.79-.53-.73-.32-.24-.36-.24-.26-.32-.51-.18.12-.32-.21-.67-.32-.42-.44,0-.25-.57-.6-.19-.2.18,0,.28,0-.51-.37-.33,0-.49-.05-.7-.41-.25-.3-.43-.52-.45-.24-.83-.35-1.16-.53,0,0-.07-.08,0-.07a16,16,0,0,0-2-.87l-.06-.07c.06.11,0,.19,0,.23-.27-.12-.54-.14-.6-.28a.4.4,0,0,0,.28.05l-.3-.09c-.2-.25.41.14.45,0l-.9-.31a6,6,0,0,1-.79-.27c0-.17,1,.34.5,0,.22.1.44.21.65.33-.42-.44.39.2,0-.23-.87-.43-1-.32-1.92-.71-.22,0,0,.14-.19.14-1.34-.23-.93-.65-2-.72a1.41,1.41,0,0,1-1.08,0l.26-.11c-.91-.18-.55.09-1.49-.13.18,0,.73,0,.59,0-.61-.21-.46,0-.93,0l-.09-.16a25.43,25.43,0,0,0-3.16,0c.06,0,.24-.1,0-.13-1.38.1-2.94.14-4.28.32l-.47.22c-.12,0-.23,0-.11-.06-.52.06,0,.08-.24.18s-.4,0-.22-.06c-.88.3-2.45.9-3.38,1.15l.16-.1c-.73.21-.7.54-1.37.73l.11-.08c-1.52.59-3,1.66-4.1,2.21-.11.25-1.33.93-1.26,1.18a8.55,8.55,0,0,0-1.64,1.12c-.27.22-.26.48-.54.81l-.1-.08-.3.52-.33.12a4.08,4.08,0,0,0-.25.33c.11-.13.28-.22.29-.18a4.64,4.64,0,0,1-1.12,1.11c-.29.4-.54.85-.79,1.28a1.41,1.41,0,0,1,.19-.46c-.35.74-.2,0-.51.72.08-.06,0,.09.05.12a6,6,0,0,0-1,1.53l0-.15a11.51,11.51,0,0,0-.79,1.57c-.26.55-.48,1.13-.7,1.72.21-.4.31-.25.2.1l-.19.08c0,.25.19-.33.11.15a.63.63,0,0,1-.11.21h-.06s0,0,0-.05a1.24,1.24,0,0,1,0-.18,1.28,1.28,0,0,0-.06.26h0a.13.13,0,0,1,0-.05l0-.06a0,0,0,0,1,0,0h0l-.11,0-.18,0a1.24,1.24,0,0,0-.59.26l0,0a9.92,9.92,0,0,0-2.51,1.5c0,.1-.29.32-.46.61A9.07,9.07,0,0,0,96.61,38c-.32.57,0,.22-.13.49-.14,0-.58.78-.41.32a8.59,8.59,0,0,0-1,2.6c.08-.13.15-.28.16-.19-.06.25-.21.54-.25.49v-.07c-.32,1.51-.79,3.58-.42,4.8v-.07c.07.42.18.84.29,1.25.09.59-.14-.33-.13.11a16.16,16.16,0,0,0,1.15,3.15,4.63,4.63,0,0,0,1,1.83c.25.33.55.64.79,1a5.89,5.89,0,0,1,.69.82v-.11c.27.17.25.29.4.45,0-.06-.2-.27,0-.17a24.56,24.56,0,0,0,3.22,2.34c.57.37,1.16.68,1.75,1,.3.17.6.3.9.44l.45.22.11,0h0l0,0,.1.08c.73.62.65.05,1.49.94l-.36-.1a42.94,42.94,0,0,0,4.89,3.22c-.11,0-.14,0-.3-.09a3.33,3.33,0,0,0,1.34.66c.27.14,0,.1.18.22.34.23,1,.34,1.12.51s-.12,0-.19,0c.26.06,1.12.51.94.3.64.33,1.29.45,1.81.7.39,0,1.15.43,1.32.26-.1.17,1.18.47,1.64.45-.16,0,.38.14.19.18.51.11,1,.13.91,0,.91.39,1.91.06,2.41.4,1.54,0,3-.06,4.31-.13-.05.19-1.51,0-1.45.24,1.3-.09,2-.27,3.33-.32.33,0-.19.1-.3.14a24.62,24.62,0,0,0,3.64-.55s-.12.06-.24.1c.23-.05.54-.07.49-.15l-.21.06c-.38,0,.83-.43.85-.52-.32.33,1.12-.2.6.24.15,0,.32-.14.27-.19.22,0,.29,0,.09.1.78-.28.48-.27,1.18-.5,0,0-.12.1-.18.17a5.19,5.19,0,0,1,1.26-.58s0,0,0,.07c.94-.39,1.55-.86,2.6-1.29-.23.32.38-.12.51,0l.54-.33-.26.05c.49-.25.85-.6,1.3-.78l-.33.25c.29-.17.59-.34.88-.53l-.53.24c.44-.34-.15-.14.5-.47a7.14,7.14,0,0,1,.77-.35h0a3.36,3.36,0,0,1,.79-.55c.11,0,0,.19.09.18.16-.25,1.08-.71,1.28-1-.08.09,0,.16,0,.15l.13-.21c.23-.11.27-.12.28,0,.65-.4-.32,0,.49-.46-.06.05,0,0-.13.14.39-.23.74-.5,1.09-.75l.52-.38.25-.16s.07,0,.1,0l.15,0c.16,0-.08.12-.16.15s-.25.17-.08.14.08-.07.28-.14l.46-.14a5.52,5.52,0,0,0,.88-.34c.59-.24,1.14-.53,1.68-.78l-.2.08c.05-.25.82-.32,1.29-.73-.12.09-.1.21-.08.16a8.8,8.8,0,0,0,2.16-1.92l-.06.16c.18-.16.41-.38.63-.61s.41-.5.59-.7.24-.38.06-.29c1.23-1.11,1.43-2.66,2.13-3.88-.06.16-.09.39,0,.27a11.85,11.85,0,0,0,.31-1.17c-.12.07-.1.14-.24.36a2.45,2.45,0,0,1,.11-.78c-.09.53.17,0,.25-.19,0,0-.05,0-.08,0,.29-.58-.17-.14.1-.95l.05,0a7.6,7.6,0,0,1,0-1c.13-.13,0,.34.1.37.07-.48-.13-1,0-1.39,0,.2,0,.5,0,.7a2.69,2.69,0,0,0,.15-.88v0c0-.27,0-.55,0-.83Z"/><path class="cls-4" d="M140,22.05h0m-32.24,3,0,0,.06-.1Zm49.4,22.82s0,0,0-.08,0,0,0,.08m.39-3.09a4.16,4.16,0,0,0,0-.45,3.4,3.4,0,0,1,0,.45m-.18-2.41s0,0-.06,0h0l.06,0ZM131.88,65.87l-.09,0c-.21.06-.06,0,.09,0m10.29-4.52a3.11,3.11,0,0,1-.28.23c.18-.09.31-.17.28-.23M119.27,66Zm22.62-4.39c-.14.08-.31.17-.45.27a1.73,1.73,0,0,0,.45-.27m9-27.23h0l.13,0Zm-.41-.1.27.08a.49.49,0,0,0-.27-.07m3.94,2.55a4.13,4.13,0,0,0-.62-.67h-.05c.16.06.48.54.67.66m-7.81,21.87.07-.17-.37.29Z"/><path class="cls-6" d="M121.32,36.48s0,0,.05,0-.06,0-.05,0m-.1-.26,0,0,0,0Zm0-.09c0-.05-.08-.11-.07-.15s0,.08,0,.13h0Zm0-.3h0s0,0,0,0,0,0,0,0m0-.14s0,0-.06,0l0,0s0,0,0,0m-.09,0s0,0,0,0l0,0s0,0,0,0m0,.07c0,.06.08,0,0,0s0,.05,0,0m-.06.24s0-.05,0,0v0Zm0-.49s0,0,0-.06l0,0Zm-.06.17h0l.08,0Zm0-.37h0Zm0-.13a.13.13,0,0,0-.09,0s0,0,0,.07,0,0,0,0m0,.22h0s0,0,0,0l0,0Zm0,0v0m0,.21s0,0,.09,0-.08,0-.09,0m.07-.13,0,0v0l0,0m-.06,0h0Zm-.06-.2-.06,0,0,.06s0,0,0,0m-.21-.19Zm.23.25,0,0h0s0,0,0,0m0,0h0m-.21-.19h0a.17.17,0,0,1,0-.08.06.06,0,0,0-.06,0l.06.06Z"/><path class="cls-6" d="M120.71,35.26s.05,0,.08,0,0,0,0-.06l0,0s0,0,0-.05h0s0,0,0,0h0l-.07,0,0,.06s-.08,0-.1,0m.16.35a0,0,0,0,1,0,0h0s0,0,0,0h0s0-.1,0-.1a.31.31,0,0,0-.07.09m-.09-.18v0s0,0,0,0l0,0v0m0-.41-.08,0h0l0,0Zm-.09-.05h0v0Zm-2.18-.07,0,0s0,0,0,0-.11,0-.08,0m1.18-.3h.07s0,0-.07,0m.68.18h0l0,0h0"/><path class="cls-6" d="M118.8,34.89l0,0,0-.06V35l-.07,0A.34.34,0,0,1,118.8,34.89Zm.44,0v0h0l0-.08v.08l-.05,0a.58.58,0,0,1,0-.14A.4.4,0,0,1,119.24,34.88Zm.6-.1c.07,0,0,.06,0,0s.15-.13.22,0,0,.1,0,.15-.06-.07-.09-.07l0,0s-.06,0-.07,0,0,0,.07.05l-.28-.07a.25.25,0,0,1,.13-.12Zm1.41,2s0,0-.07,0l.08-.09c-.07,0,0-.11-.06-.13v0a.26.26,0,0,0-.15,0s0,0,0-.09a1.68,1.68,0,0,0-.48-1.17h0v0s0,0,0,0l-.09-.08s.05,0,.05,0,.12-.11.15-.2a.06.06,0,0,1-.07,0s0,.1,0,.1,0,0,0-.07-.08,0-.12.08a.47.47,0,0,0-.12-.09l0,0h0l-.13-.07,0,0h0c0-.06.08,0,0-.07s.12,0,.15,0l0,.06s0-.05,0-.05,0,.12.09.06v0s.13,0,.16,0,0,0,0-.08c0,.09-.11-.08-.12,0,0-.09,0-.07,0-.16s0,.05,0,0h0v0s-.1,0-.13,0,0,0,0,0l0,0c0-.05,0-.1,0-.1l0,0a.1.1,0,0,0-.1,0s-.08,0,0,0h-.1v0h-.18s0,0,0,0a.09.09,0,0,0-.06,0l0,0a.21.21,0,0,1-.1,0,.13.13,0,0,1-.11,0v0s-.12,0-.13,0c0-.12-.19,0-.26,0v.05a.23.23,0,0,0-.14.07l0,0s-.13,0-.2,0,0,0,0,0-.1,0-.14,0,0,.08-.11.07,0,0,0,0h0a.11.11,0,0,0,0,0l0,0h0s0,0,0,.06a.06.06,0,0,0,0,0c-.06-.05,0,.06-.1,0s-.07.1,0,.17,0,0,0,0a0,0,0,0,0-.05,0l-.06,0,0,.1s-.08,0-.09-.06c0,.11,0,.07,0,.16l0,0s0,.08,0,.07-.15.22-.27.32c.12,0-.08,0,0,.08s0,0-.07,0-.08.1,0,.17,0,0-.06,0,0,0,0,0,0,0,0,0,.07.11.15.13,0,0,0,.08-.06,0-.06,0-.07.15,0,.16,0,0,0,0,0,.06,0,.12v0c.08,0,0,.05,0,.09h0c-.06.1,0,0,0,.14h0c.1,0-.06.1,0,.15l0,0s-.13.12-.13.16,0,0,0,0,.07,0,.1.06-.09,0-.09.05.15.09.11.17,0,0,.07,0,0,.16.06.16h0s.09.08.14.08,0,.09,0,.12.09,0,0,.09l.08.08h0a.1.1,0,0,0,.13,0s0,0,0,0,.07.1.18.09l0,0s0,0,.06.08.07.08.13.08h0c.06,0,.1.06.15.11s.1.06.15,0l.08,0c-.08,0,0-.07,0-.11s.07.08,0,.08h0c0,.09.1.06.09.12a2.52,2.52,0,0,0,.54.08l0-.07h.06s0,.06,0,.06.07-.05.06-.06,0,.09,0,.09h0s0-.07.07-.08,0,0,0,0h.1l0-.05s.07,0,0-.08.11,0,.18,0a.48.48,0,0,1,.14-.06c0-.06,0-.08.11-.11s-.07,0,0-.07c.06.13.1,0,.2.05s0,0,0-.07,0-.06,0-.07,0,0,.08,0a.22.22,0,0,1,.11-.12.4.4,0,0,0,.13-.13s-.05,0-.05-.05H121s-.08-.08,0-.08,0,0,0,0a.56.56,0,0,0,.17-.31l.06-.18a.69.69,0,0,1,.11-.17s0,0,0,0Z"/><path class="cls-6" d="M120.52,34.87l0,0a0,0,0,0,1,0,0s0,0,0,0m-.07.16s0,0,0,0h0s0,0,0,0m0,0s0,0,0,0,0,0,0,0m-.2-.32s-.11,0,0,0,0,0,0,0m.1.39,0,0,0,0v0m-.1-.11s0,0-.05,0l0,0h0m-.46-.18h0s0,0,0,0,0,0,0,0m1.49,1.74,0,0,0,0Zm-.08-.07h.07l-.06,0a0,0,0,0,1,0,0m12.88-.05s0,0,0,0-.06,0,0,0m-.1-.26,0,0,0,0Zm0-.09c0-.05-.08-.11-.07-.15s0,.08,0,.13h0Zm0-.3h0s0,0,0,0,0,0,0,0m0-.14s0,0-.05,0l0,0s0,0,0,0m-.1,0s0,0,0,0l0,0s0,0,0,0m0,.07c0,.06.08,0,.05,0s0,.05-.05,0m-.06.24s0-.05,0,0v0Zm0-.49s0,0,0-.06,0,0-.05,0Zm-.06.17h0l.08,0Zm0-.37h0Zm0-.13a.18.18,0,0,0-.1,0s0,0,0,.07,0,0,.06,0m0,.22h0s0,0,0,0l0,0Z"/><path class="cls-6" d="M133.79,35.43h0l0,0v0m0,.21s0,0,.09,0-.09,0-.09,0m.06-.13,0,0v0l0,0m-.06,0h0Zm-.06-.2-.06,0a.21.21,0,0,0,0,.06s0,0,0,0m-.22-.19Zm.23.25,0,0a0,0,0,0,0,0,0s0,0,0,0m0,0h0"/><path class="cls-6" d="M133.53,35.14h0a.11.11,0,0,1,0-.08.08.08,0,0,0-.07,0l.06.06Zm0,.12s.05,0,.09,0,0,0,0-.06l0,0a.11.11,0,0,1,0-.05h0s0,0,0,0h0l-.08,0,0,.06s-.08,0-.1,0m.16.35s0,0,0,0h0s0,0,.05,0h0a.41.41,0,0,1,0-.1.31.31,0,0,0-.07.09m-.09-.18,0,0s0,0,0,0a.1.1,0,0,0,0,0s0,0,0,0m0-.41-.07,0h0l0,0Zm-.08-.05h0v0Zm-2.19-.07,0,0a.06.06,0,0,1,.05,0c-.05,0-.11,0-.08,0m1.18-.3h.07s0,0-.07,0m.68.18h0l0,0h0"/><path class="cls-6" d="M131.59,34.89l0,0,0-.06V35l-.08,0a.34.34,0,0,1,0-.18Zm.44,0v0H132l0-.08v.08l-.05,0a.58.58,0,0,1,0-.14A.4.4,0,0,1,132,34.88Zm.61-.1c.06,0,0,.06,0,0s.15-.13.23,0,0,.1,0,.15-.06-.07-.09-.07l0,0s-.06,0-.07,0,0,0,.07.05l-.27-.07a.22.22,0,0,1,.13-.12Zm1.4,2s0,0-.07,0l.08-.09c-.07,0,0-.11-.06-.13v0a.26.26,0,0,0-.15,0s0,0,0-.09a1.68,1.68,0,0,0-.48-1.17h0v0s0,0,0,0l-.09-.08s.05,0,.05,0,.12-.11.15-.2,0,0-.07,0,0,.1,0,.1,0,0,0-.07-.08,0-.12.08l-.12-.09,0,0h0L133,35l0,0h0c0-.06.08,0,.06-.07s.11,0,.15,0l0,.06a0,0,0,0,0,0-.05s0,.12.09.06v0c.05,0,.13,0,.16,0s0,0,0-.08c0,.09-.11-.08-.12,0,0-.09,0-.07,0-.16s0,.05,0,0h0a.06.06,0,0,1,0,0c-.05,0-.11,0-.14,0s0,0,0,0l-.05,0c0-.05,0-.1,0-.1l-.06,0s-.06-.06-.09,0-.08,0-.05,0h-.09v0h-.18s0,0,0,0l-.07,0,0,0a.26.26,0,0,1-.1,0,.13.13,0,0,1-.11,0v0s-.11,0-.13,0c0-.12-.19,0-.26,0v.05a.19.19,0,0,0-.13.07v0s-.12,0-.19,0,0,0,0,0-.1,0-.13,0-.06.08-.12.07,0,0,0,0h0a.11.11,0,0,0,0,0l0,0h0s0,0,0,.06,0,0,0,0,0,.06-.11,0-.07.1,0,.17h0a0,0,0,0,0-.05,0l0,0a.36.36,0,0,0,0,.1c-.05,0-.07,0-.09-.06,0,.11,0,.07,0,.16l0,0s0,.08,0,.07-.15.22-.27.32c.12,0-.07,0,0,.08s0,0-.07,0-.08.1,0,.17,0,0-.06,0,0,0,0,0,0,0,0,0,.08.11.16.13-.05,0,0,.08-.06,0-.06,0-.07.15,0,.16,0,0,0,0,0,.06,0,.12l0,0c.08,0,0,.05,0,.09h0c0,.1,0,0,0,.14h.05c.11,0-.05.1,0,.15l0,0s-.12.12-.13.16,0,0,0,0,.07,0,.1.06-.09,0-.08.05.15.09.1.17,0,0,.08,0-.05.16,0,.16h0s.09.08.14.08,0,.09,0,.12.1,0,0,.09l.08.08h0c0,.06.08,0,.13,0s0,0,0,0,.07.1.18.09l0,0s0,0,.06.08.07.08.13.08h0c.06,0,.11.06.15.11s.1.06.15,0l.08,0c-.08,0,0-.07,0-.11s.07.08,0,.08h0c0,.09.1.06.08.12a2.52,2.52,0,0,0,.54.08l0-.07h.06s0,.06,0,.06.07-.05.07-.06,0,.09,0,.09h0s0-.07.07-.08,0,0,0,0h.1l-.05-.05s.07,0,0-.08.11,0,.17,0l.14-.06c0-.06.06-.08.11-.11s-.07,0,0-.07c.07.13.1,0,.2.05s0,0,0-.07,0-.06,0-.07,0,0,.08,0a.26.26,0,0,1,.11-.12s.11-.07.13-.13-.05,0-.05-.05h.11s-.08-.08,0-.08,0,0,0,0a.56.56,0,0,0,.17-.31L134,37a1.2,1.2,0,0,1,.11-.17s0,0,0,0Z"/><path class="cls-6" d="M133.31,34.87l-.05,0s0,0,0,0,0,0,0,0m-.06.16s0,0,0,0h0s0,0,0,0m0,0s0,0,0,0,0,0,0,0m-.2-.32s-.11,0,0,0,0,0,0,0m.1.39,0,0,0,0v0m-.1-.11s0,0-.05,0l0,0h0m-.45-.18h0s0,0,0,0l0,0m1.48,1.74,0,0,0,0Zm-.07-.07h.06l-.06,0s0,0,0,0"/><path class="cls-7" d="M133.38,50.49l.22-.16-.29.12Zm2.73-1.89-.09.21a2.12,2.12,0,0,1-.12.2c-.11,0-.32.17-.51.34l.12-.09.11-.09c-.05.06,0,.08,0,.14a3,3,0,0,0-.41.29l-.18.12a.92.92,0,0,1-.25.08l0,0-.26.2c-.1,0-.09,0-.06-.06a3,3,0,0,1-.79.43.85.85,0,0,0,.55-.19,1,1,0,0,1,.54-.22l0,0,.25-.16.28-.14.27-.16a1.59,1.59,0,0,0,.24-.2,4.39,4.39,0,0,0,.27-.39c.07-.14.11-.26.06-.31m-8.45-5,0,0s0,0,0,0m4.62-.07h0s0,0,0,0m1.14-.55s.06,0,.09-.06h0Z"/><path class="cls-7" d="M136.22,45s.06-.12.14,0,0,0,0,.08l.08.06c0,.08-.08,0-.14,0S136.25,45.05,136.22,45Zm-.94-1.19a1.08,1.08,0,0,1,.35.2c.16.12.31.24.4.22s.2.26-.08.07a.59.59,0,0,1,.2.39c0,.08,0,.15,0,.21A3.41,3.41,0,0,0,135.28,43.81Zm-2-.44-.46.13.29-.09a1.19,1.19,0,0,1,.8-.12,1.5,1.5,0,0,1,.56,0l.48.1a.41.41,0,0,1-.14.12A2.21,2.21,0,0,0,133.24,43.37ZM122.6,44h-.14a.75.75,0,0,0,.13-.06s0,.05,0,.07Zm2.47.06c-.07,0-.1,0-.11,0h-.29l.07,0A1.82,1.82,0,0,1,125.07,44Zm6.44-.3a0,0,0,0,0,0,0l-.62.08.19,0A1.76,1.76,0,0,1,131.51,43.73Zm.47-.07-.22,0a.32.32,0,0,1,.22-.06Zm0-.17c.27,0,.2-.13.53-.08-.07,0-.14.12-.19.17l.38,0-.55.11,0,0C132,43.54,131.73,43.62,131.94,43.49Zm3.18.18,0,0-.13-.08A.17.17,0,0,1,135.12,43.67ZM136.9,46a5.09,5.09,0,0,0-.5-1.38l.09.06-.25-.19A1.24,1.24,0,0,0,136,44c-.13-.17-.3-.33-.44-.34s0,0,.06,0a6.32,6.32,0,0,0-.53-.41,1.92,1.92,0,0,0-.75-.32.39.39,0,0,1-.22,0l-.27,0a.69.69,0,0,0-.36.06c.09,0,0,.07,0,.12a1.08,1.08,0,0,0-.21.14c-.08,0-.09-.07-.1-.1a.29.29,0,0,0-.11-.08h.18a.86.86,0,0,1-.07-.1l-.05,0,0,0-.08.06-.17.07a1.45,1.45,0,0,1-.35,0,.93.93,0,0,0-.59.12s0,0,0,0c-.23,0-.36.14-.52.21s.09-.11.16-.17a11,11,0,0,1-1.48.2c-.14.1.07.1-.08.18s-.24-.07-.08-.12c-.39-.11-1.24.19-1.83.08-.3.1-.11.13-.58.2.11-.06-.11-.19.17-.2l0-.06c-.24,0-.51,0-.75,0a1.14,1.14,0,0,0-.59.14c0-.13-.09,0-.26-.09s0,0,0,0c-.17.11-.26,0-.38,0l0,0-.33.07c-.06,0-.14,0-.15-.08v.09c-.18,0-.09-.11-.31-.1l0,.07c-.14,0-.37,0-.4,0s0,0,.08,0c-.22-.14-.58,0-.85,0l.06.15c-.27,0-.16,0-.15-.09-.18,0-.22-.06-.45-.09s-.06,0-.1.09l-.24,0,.16-.07c-.39.19-.93-.09-1.19.08-.13-.06.13-.08,0-.11-.42-.13-1,0-1.33-.13a8.28,8.28,0,0,0-.92-.2l-.47-.11-.23-.06-.11,0-.16-.05v0a2.44,2.44,0,0,0-.54-.09,1.75,1.75,0,0,1-.35.09l-.2.06a.4.4,0,0,0-.17.1s0-.07,0-.11a4.54,4.54,0,0,1-.58.24l.06-.07a2.69,2.69,0,0,0-.7.47,1.76,1.76,0,0,0-.39.51c-.1.14-.15.1-.21.11a1.47,1.47,0,0,0-.27.66,1,1,0,0,1-.14.15l0,.14c-.06.1-.09,0-.14.08a5,5,0,0,1-.13.67,3.19,3.19,0,0,0-.11.58l0,0c0,.13,0,.38-.08.23a1.52,1.52,0,0,0,0,.43c0,.13.07.25.11.38s.24.51.45.88c0,.1.08.25.2.4s.26.27.24.38a1.75,1.75,0,0,1,.2.16l.16.13a.73.73,0,0,0,.34.17s0,0,0,0a1.76,1.76,0,0,0,.83.44v.06c.17-.06.69.19.85.1s-.08,0-.13,0a.26.26,0,0,0,.23.1.71.71,0,0,1,.28,0s0,.08,0,.09a4.22,4.22,0,0,0,1.27.31,14.24,14.24,0,0,1,1.44.2c.26,0-.08-.15.26-.1.09.07-.19.11,0,.16a.69.69,0,0,1,.43,0s0,.07-.16.08c.11.07.52-.05.76.08,0,0,0-.06.08-.08.36-.09.81.17.85.1s.12,0,0,0c.13,0,.31,0,.28.1a.52.52,0,0,1,.23-.08l0,.07a1.46,1.46,0,0,1,.19-.07l-.09,0c.14.06.44-.08.43.06h0l.28.08a.63.63,0,0,1,.41-.09c.07.14.48,0,.72.05v0c.19-.07.67,0,.58-.07.18,0,.43,0,.34.08.15,0,.46,0,.54-.13l.3.11c.17-.18.6,0,.61-.15.16,0,.13.07.24.09a1.73,1.73,0,0,1,.71-.11v0a8.45,8.45,0,0,0,.85-.17l.08.14c.18,0,.21-.15.38-.14s0,0,0,0a1.28,1.28,0,0,1,.51,0c.24-.14.44-.13.65-.28.21.1-.29.11-.1.2a2.87,2.87,0,0,0,1.11-.27s0,0,0,.09.18-.13.34-.27.25-.27.21-.33c2-.63,3.42-1.54,3.42-3.43a3.94,3.94,0,0,0-.24-1.31l0,0a1.39,1.39,0,0,1,.21.44l0-.05c0,.13,0,.26.07.39l0,0a2,2,0,0,1,.1.32h0a.71.71,0,0,1,.06.19l-.06,0a1.08,1.08,0,0,1,.09.69l0,0a1.76,1.76,0,0,1,0,.23,1.93,1.93,0,0,1,0,.24c-.15.21,0-.34-.16.13a.77.77,0,0,0-.07-.16.71.71,0,0,1-.06.19.35.35,0,0,1-.07.12l-.12.24c.11-.05.18-.2.17-.07a.5.5,0,0,0-.22.27,1.58,1.58,0,0,1-.13.34.41.41,0,0,0,.15-.28c.09-.11.09,0,.14-.07l.06-.2h.1c0-.12.08-.22.1-.34.08.06.13-.29.18-.13a263761604533.61,263761604533.61,0,0,1,0-.16.83.83,0,0,1,0-.15.59.59,0,0,0,0-.13.88.88,0,0,0,0-.16c.08-.16,0,.27.07.09A5.49,5.49,0,0,0,136.9,46Z"/><path class="cls-8" d="M122.66,46.72h0m5.11-.15h0v0Zm.84.06h0m-2.73.23h0m-4.74-.19h0v0Z"/><path class="cls-8" d="M121.16,46.63s0,0,0,0,0,0,0,0,0,0,0-.06m-2.75-.32h0M126,48.45h0m-7.17-2v0a.09.09,0,0,0,0,0m9,.08v0m1.6.09a0,0,0,0,0,0,0h0Zm4,.34v0l0,0,0,0m-2.9-.23v0s-.07,0-.13,0v.07Z"/><path class="cls-9" d="M131.79,48l-.13-.11c.36-.1.55,0,.85-.14v0c.05,0,0-.26.58,0h0s0,0,0,0l-.1-.06c.05,0,.09-.11.15-.13a.09.09,0,0,1,0,.06l.17,0,.06.07c.05,0,0-.22.15-.15-.07-.11.07-.08,0-.14l0,.06a.7.7,0,0,0,.27-.15l-.2-.12a1.26,1.26,0,0,1-.27-.2c.12,0,0,0,0-.06v0c-.07,0-.08-.09-.12-.11a0,0,0,0,0,0,0h0v0s0,0,0,0h0a.14.14,0,0,1-.11,0V46.9c0,.13-.37-.13-.44-.13s-.15,0-.24,0-.08-.09-.16-.13,0,.07,0,.08l-.12-.08c.06,0,0,0,0-.07s-.25-.09-.26,0c-.12-.05-.13-.1-.19-.1a.22.22,0,0,1,.07.06c-.06-.05,0,0,0,0s-.41-.18-.41,0v0c0,.11,0,.2,0,.27l0,0-.05,0a.07.07,0,0,1,0-.07c-.08.05-.2,0-.3,0l.14.27c-.1-.06-.27-.17-.27-.08l-.07-.09c-.19-.16-.11.09-.18.05l-.1-.1h.08a1,1,0,0,1-.2-.14h0a.11.11,0,0,1-.11.09c-.09,0-.15.08-.3,0l0,.1-.11,0v-.08l.42-.08v0c-.08,0-.16.05-.22.05s-.09-.1-.05-.16l0,.09a.92.92,0,0,1-.54,0l0,0s-.1.06-.12,0a.62.62,0,0,1-.45-.13v.1s-.1-.14-.11,0l-.07,0s-.07.05-.12,0h0c-.11,0,0,.08-.12,0s0,.13-.09.11l-.07-.14c-.12-.07-.12.07-.28.09a.24.24,0,0,1-.08-.28c-.06.14,0,.09-.11.16a.16.16,0,0,1,0-.12c-.08,0,0,.06-.11.06a2.33,2.33,0,0,1,0,.27l0,0c-.06.06-.12.09-.2,0v0l-.08,0v-.07l-.11,0,0,0s-.11,0-.16,0v0c-.15-.1-.26,0-.42.07l0-.08c-.06-.07,0,.12-.08.09v-.09c0,.12-.07,0-.11-.07l0,.12-.08,0c-.08,0,0-.15,0-.21l-.06.09v-.1c0,.12,0,0-.11,0s0-.06,0-.08l-.11.15.07-.07v.16c-.07.12-.11,0-.16,0l0-.05c-.09,0-.09,0-.15-.06s0,.07,0,.09,0,0,0-.06-.07.15-.12.11v0s0,0,0,0v-.11l0,.11s-.08,0-.07,0v0l-.24,0v-.09c0,.13-.14,0-.13.11,0-.08-.18.06-.15-.11-.16,0-.25.15-.44.06s-.25-.1-.38-.12-.4.11-.65.14c-.14-.22-.38.05-.54-.08l0,.08c-.09-.14-.27,0-.41-.13l-.07,0s0,0,0,.07-.13,0-.12-.11h0c0-.1-.13,0-.17-.05v.11l-.08,0,0,0c-.38.22-.5-.15-.86,0,.06-.12-.07.05-.06-.08s-.16,0-.24,0v0l-.12,0c.09-.16-.11.13,0,0-.3-.17-.72-.1-1.08-.21v0c-.09,0-.21,0-.27-.07s-.17.09-.2.09-.13-.1-.1-.08-.19.14-.29.06-.33.08-.3-.08h0c-.12-.14-.29,0-.43-.11l0,0-.42.41,0,.55.19.49.79.05.59.28,1.52.16.12-.11c.28.24.68,0,1,.22l0-.1c.09,0,.08.07.1.09a22.05,22.05,0,0,1,2.48.1c.08.07.3,0,.36.11a1.46,1.46,0,0,1,.76-.13h0l.12,0s0,0,0,0,.34,0,.5,0h0c1,0,1.79-.28,2.72-.22.45.13.92-.15,1.42-.07a2.7,2.7,0,0,0,1.16-.16"/><path class="cls-8" d="M133.22,47.7h0s0,0,0,0m-2.17-.93h0l0-.06Zm1.28-.2c-.06,0-.06,0-.05,0s0,0,.05,0m1.36,1s0,0,0,0h-.05l.06,0m-.21-.58v0s0,0,0,0"/><path class="cls-9" d="M109.11,56.11h0s.05,0,0,0m-.44-.13a.93.93,0,0,0,.18.06,1.8,1.8,0,0,1,.22.06.59.59,0,0,1-.26.06c-.1,0-.2-.07-.14-.18m.55.49-.23,0c.06,0,.08,0,.11,0a.19.19,0,0,0,.12,0m-.12-.2v-.08l.11.06-.1,0m2.4-7.42a.16.16,0,0,1-.12,0Zm.4-.32a.45.45,0,0,0,0-.08s0,0,0,.08m-.4.64V49.1a.08.08,0,0,1,0,.07m-.63,3.93-.2.1c0-.13.11-.1.2-.1M113,46.7h-.07s.06,0,.07,0m0,1.77h-.09l0,0,.07,0Zm-1.41,1h0l-.05,0s0,0,0,0M113,46.12a.5.5,0,0,1,.13-.11.18.18,0,0,1-.13.11m-1.06,2.32h0m1,.6a.25.25,0,0,0,0-.09s0,.07,0,.09m-2,4.06.06,0a.06.06,0,0,1-.06,0m-1.45,2.72s.07,0,.11,0l-.11,0M106.8,40.27h0a0,0,0,0,1,0,0m1.42,1.24a.11.11,0,0,1,0,.05s0,0,0-.05"/><path class="cls-9" d="M111.3,42.46h0l0-.14h0l0,.14Zm-1.79-1.63c-.19,0,0-.17-.05-.25C109.62,40.58,109.45,40.74,109.51,40.83Zm2,2.63c-.13-.1-.13.15-.23.1l0,.06c-.18,0,.07-.15,0-.2l.06,0c.12,0,0-.12.09-.18S111.57,43.49,111.52,43.46Zm-2-2.47c-.13,0-.11,0-.13-.09s.11,0,.13.09ZM111,42.9c-.07.06-.15-.06-.14-.11s0,.15,0,.22a.07.07,0,0,0,0,.05.11.11,0,0,0,0-.05s.07-.06.11-.08h0l0-.11Zm.44,1.31.11-.14-.07-.11C111.49,44.05,111.48,44.13,111.47,44.21Zm.76,2.2c0,.06,0,.07-.08.09s0,.07,0,.11,0-.12.09-.2a.07.07,0,0,1,0,0A.05.05,0,0,1,112.23,46.41Zm-.17-.34c-.21.08,0,.26-.08.32a.46.46,0,0,1-.09-.2C111.89,46.12,111.92,46.06,112.06,46.07Zm-1.78-3.5s-.11.15,0,.19l-.17.08c.1-.07,0-.19,0-.22s.1,0,.22,0ZM107.8,40.3l0,.06s0,.08-.06.12-.07-.17,0-.18Zm.49.7h.07v0c-.06,0-.06,0-.06,0h-.1c-.09.08,0,.22-.07.29s0-.18-.09-.17,0,0,0,.08l-.09,0c0-.21.13-.18.25-.16l.08-.05s0,0,0,.06Zm-.57-.25c-.07.12-.18.27,0,.29s0-.14.2-.23c0-.06-.09,0-.12-.05s.09,0,0,.1a.1.1,0,0,1-.12-.11.17.17,0,0,0,0-.11.23.23,0,0,0,0,.11Zm-.23.12.07,0,.06-.19-.13.16Zm.91.47c-.09,0,0,.16,0,.17v-.17Zm.12-.27,0-.06-.09.2.11-.14Zm.84.78a1.46,1.46,0,0,1,.07.19c-.18.12-.1-.12-.19-.16.06-.09.05,0,.12,0Zm1,1.29c-.07.07-.32,0-.21-.13.08.06.14.16.21.14Zm1.64,3.5,0-.16v.15Zm.19,1.28c-.4-.08-.28.23-.47.28.13,0,.34.1.33-.14.14.21-.25.13.08.26,0-.1.08-.23.09-.25l0,.12c.24-.07-.13-.18-.05-.27Zm-.5,2.53h.12l-.12,0h0l.12-.23-.1.23Zm.08.07-.12.12.12,0-.24.18c-.07-.15.11-.26.25-.25Zm0,.29a.11.11,0,0,1,.06-.07.15.15,0,0,1,.16,0c-.07.08-.12,0-.16,0a.13.13,0,0,0-.06.07Zm-.32,1.6.1,0,.07,0s0,0-.07,0a.13.13,0,0,0,0,.16c.07,0,.08-.07.13-.09.13.16-.43.25.06.33-.07,0-.24.14-.31.06a.62.62,0,0,0,0-.48s0,0,0,0Zm-.38,1.15.06.06,0,.05Zm-.45,1.26.07-.09.1.11Zm1.59-3.67c0-.07,0-.27,0-.24S112.29,51.12,112.23,51.15Zm.32-.89.06-.18c-.1,0-.07.12-.06.18Zm-.16,1,.08,0c0,.06,0,.06-.08,0l-.07,0c0-.15,0-.06.07,0Zm.29-1.27,0-.07c-.07-.09-.29-.14,0-.21l0,.21a.1.1,0,0,1,0,.07Zm-.59.06c.11-.14.21-.13.42-.22,0,.17-.21.17-.31.13s0,.09,0,.15l-.14-.06Zm.37.07c-.11.09-.26.26-.36.22a.26.26,0,0,0,.32-.13.1.1,0,0,1,0-.08ZM112,44.84l-.09.06,0,0,0,.13c-.19-.08,0-.28,0-.38C112,44.7,111.79,45,112,44.84Zm.65,4.19c-.16,0-.15.2-.2.3a.22.22,0,0,0,.29-.18C112.92,49,112.59,49.08,112.69,49Zm.15-.51v0l-.1.11.11-.08Zm-.28-2.87s0,.07,0,.09.14-.15.18-.1,0,.21-.17.24c.09-.15-.25-.14,0-.23Zm-.83-2v0a0,0,0,0,1,0,0c0-.12-.17,0,0-.22C111.9,43.42,111.77,43.57,111.73,43.65Zm-.32,1.58,0,.13h0a.5.5,0,0,0,0-.12Zm.33,1.06-.12,0,.08-.07Zm-.13,7.38c-.09,0,0-.06,0-.09l-.07.12S111.59,53.69,111.61,53.67ZM112.87,46v.09a0,0,0,0,1,0,0v0S112.76,46.05,112.87,46Zm-2.2-4.36c-.16,0-.1-.28-.18-.38l0,.09,0-.14-.09.08c-.09-.19-.36-.28-.28-.46l-.12.15c0-.09,0-.18,0-.26v.18a2.43,2.43,0,0,1-.41-.53l0,.07s0-.05-.06-.1l0,.1c-.26-.26-.48-.13-.73-.47-.1,0,0,.07,0,.12s-.16-.12-.15-.17c-.08.15.09.21-.09.24,0-.12,0,.16-.15,0l.07-.21c-.09,0-.11.12-.21,0s.3-.09.11-.26-.5.25-.64,0c-.23,0-.08.34-.3.14l.08.22c-.07,0-.1.13-.18,0s0-.22,0-.26c.07.13,0,.15-.09.18s-.17.06-.13.21l-.07,0s0,0,0,0l-.1,0c0,.07.16.18,0,.27l-.15,0a.53.53,0,0,1-.06.13l-.06.1s0,0,0,.05l0,0,.06.1.13.22c0-.07,0-.15.06-.19s0,.16.16.14V41s0,.06,0,0,0,0,0-.09.16.06.14.15c.14.07.15-.16.2-.17,0,.2.21.14.24.27l0-.14c.18-.05.2.12.22.19l0-.1c.11.12.41-.11.27.27l0-.07c.07,0,.21,0,.18.16,0,0,.08-.07.11-.06s.06.1.15.15.12-.2.09-.29c.25,0,0,.26.08.35s0-.13,0-.2c0,.11.19.11.32.12s.21.05.13.23l-.15,0c0,.12,0,.15,0,.12s0,0,0-.07c.32,0,.08.47.3.6,0-.06,0-.11.08-.15s-.2.33,0,.37l0-.08c.08,0,0,.13,0,.14s.19,0,.26.06a.31.31,0,0,0,.38.09c-.08.19,0,.47.09.48s.11-.2.28-.27-.06.21.07.29c-.15.1-.45,0-.4.25l.1,0s-.07,0-.07-.07.12,0,.17,0,.07.16.1.25c-.15.12-.19,0-.25,0a1.38,1.38,0,0,0,.31.2.61.61,0,0,1,.15.12.25.25,0,0,1,0,.15l.05,0c0,.3.38,0,.2.29.09.07.17-.13.25,0s0,0-.08.05c0,.21.2,0,.12.24l.17-.12a2.61,2.61,0,0,1-.13.43c0,.13-.07.25,0,.32s.09-.17.18-.25a.53.53,0,0,0,0,.46.61.61,0,0,1,.07.41c-.14,0-.26.19-.41.08.18-.09,0-.12,0-.2-.19.12-.11.23,0,.32s.18.2,0,.26h.16s-.11.15-.17.1l.15.22c.1-.1.32-.34.14-.36.15-.11.13.08.3,0-.21.23.13.08.12.28a.24.24,0,0,0-.24.1c0,.06-.09.13-.14.13s0,.2-.11.25.2.31.13.48a.5.5,0,0,1,.3-.18c-.08.09-.07.18.1.19.28-.32-.39-.07-.22-.34A.39.39,0,0,0,112,47c.11,0,.16,0,.29,0a.27.27,0,0,0-.16.34.38.38,0,0,1,0,.36c-.11.1-.36,0-.4.25,0-.06-.08-.12-.13-.17.12.18-.12.05-.16.2l.13-.06c0,.09,0,.13-.09.18l.2-.08c0,.05,0,.15-.06.15h.12a.08.08,0,0,0,0,.1s0-.06.07-.06c0,.23.22,0,.2.2,0,0,.1,0,.12.08-.31,0-.37.27-.55.33h0l-.15.18s.11,0,.14.08h0c0,.06.35,0,.24.14l-.11.08s.06,0,.09,0l-.1.09c.14.1.08.17,0,.23s-.17.13-.11.24c0-.06,0-.13.11-.08s0,.08-.07.1h0l-.26.31c.11,0,.16-.2.26-.09s0,.15-.07.21-.13-.16-.2-.05.1.15.17.12c-.11.1-.2.26-.37.33,0,0,.08,0,.09,0l0,0c.06-.06.21,0,.16-.12.27,0,0,.22,0,.35l.23-.15a.51.51,0,0,1,0,.59,3,3,0,0,0-.31.52c-.06-.12,0-.18-.16-.22-.16.17-.11.16-.21.35l0,0c.07.14-.17.22,0,.34s-.06-.18.17-.11l-.09.25c.16,0,.09-.25.15-.34s-.07.13-.21.05c.08-.23.24-.24.49-.3s.13.15.12.2a.51.51,0,0,0-.43.54l.13.19c-.19.06-.48-.09-.51.13l.14,0c0,.06,0,.1,0,.12l.39-.17c.22.21-.25.3-.37.46,0,0,.07-.06.15,0a.58.58,0,0,1-.26.35,1.41,1.41,0,0,0-.31.26c.07.13.14-.13.29,0-.11.07,0,.25-.18.21.23.06-.1.25.2.14a1.77,1.77,0,0,1-.84,1,.27.27,0,0,1,.14.11.59.59,0,0,1,.18-.17.37.37,0,0,1,.25-.07c.05.15-.25.11-.21.17s.12-.09.23,0-.16.14-.23.19l0-.07a.42.42,0,0,1-.33,0c-.09,0-.14,0-.21.11s.09.08.23.19c0,0-.08.08-.12.14s-.1.12-.19.07l.12-.13-.16.08a.42.42,0,0,1-.15,0s.06,0,.09,0-.21.08-.3,0l.06.18c0-.1.14-.2.23-.13s-.14.17-.21.21a1.39,1.39,0,0,1,.42-.05.27.27,0,0,0,.28-.18H110a.27.27,0,0,1,.19-.21.58.58,0,0,0,.24-.15.11.11,0,0,0,.09.11,2.18,2.18,0,0,1,.11-.27c0-.08.08-.16.13-.24a1.77,1.77,0,0,0,.24-.52l.23,0-.13-.07c0-.21.2.05.24-.08,0,.05,0,0-.07,0,.24-.14-.07-.16,0-.26-.16,0-.15.2-.31.06.24-.13.29-.49.62-.39a4.16,4.16,0,0,1,.52-1.19c0-.06,0,0-.09,0,.23-.07,0-.48.17-.43,0-.08-.15-.14-.19-.17a.59.59,0,0,0,.22-.25l-.07.06h0l.1-.09h0c.12-.25.15-.57.4-.77-.15.11-.2-.09-.29,0,.31-.06.38-.35.41-.6a.3.3,0,0,0-.16,0l.15-.12h-.08a.76.76,0,0,1,.17-.39c.08-.11.14-.23.08-.33,0,.11-.1.1-.2.1a1.8,1.8,0,0,1,.16-.59l-.06,0c0-.06.06-.13.09-.19l-.14,0c.08-.11,0-.26.13-.39-.15-.06.14-.34.08-.5s-.17.14-.16,0c.31,0,0-.22.33-.25l-.13-.15.16,0c-.32-.11.13-.21,0-.4,0,0,0,0-.07,0s0-.22.13-.12c0-.1,0-.47-.15-.28.1,0,0,.13,0,.2s-.11-.15-.27-.17l.06-.05h-.09a.47.47,0,0,0,.06-.15v-.14a.31.31,0,0,1,.08-.27s-.08,0-.09-.1l.18,0-.06-.21-.23.16c-.11-.2.14-.43.12-.63-.15,0-.15-.08-.15-.19s0-.24-.16-.27l0,.17a.5.5,0,0,0-.15-.3.5.5,0,0,1-.11-.3c.09.1.12.15.18.21a2.18,2.18,0,0,0,.31.26.87.87,0,0,1-.17-.47.57.57,0,0,0-.22-.43c-.05.05-.05.15-.16.11.12-.13-.13-.28.05-.32-.11-.06-.26,0-.31,0s0-.27,0-.41l0,0a.84.84,0,0,1-.48-.68,2.92,2.92,0,0,0-.13-.42.67.67,0,0,0-.26-.34l-.06.07v-.21c0,.15-.12,0-.19.09l-.09-.42c-.06,0-.19.19-.11.23Z"/><path class="cls-9" d="M108.54,41.64a.09.09,0,0,1-.06,0l.06,0m2.91,5.26a.06.06,0,0,1,.07,0l-.07,0m0,.25h0v0Zm-2,8.5c-.13-.1,0,0,0-.07s0,.11,0,.07m.42,0a.17.17,0,0,0-.14,0s0,0,.14,0m-.26.14a.26.26,0,0,1,.12-.13s0,.11-.12.13m.8-.95c-.11,0-.12.12-.12.12,0-.24-.18,0-.25-.08.1-.1.21,0,.37,0m.19-.25a.13.13,0,0,0,0,.06.06.06,0,0,1,0-.06m0-.12c.06-.07.17,0,.26,0s-.16.11-.22.17.07-.1,0-.12m.4-2.54s0,.06-.09.05l0-.14s0,.06,0,.09m.42-.41c0-.1-.13-.09-.08-.13l.19,0Zm1,.32,0,0s0,0,0,0Zm-1-.88L111,51c.08-.08.26,0,.24,0m0-.44-.09,0,.12-.18Zm.21-.47,0,0,.08-.12Zm-.35-5.19a.1.1,0,0,1,.16,0c0,.05.05.12.09.14-.24.05,0-.2-.25-.18m-2.31-3.12.12.17c-.17-.06,0,0-.12-.17m33,14.39,0,0s-.06,0,0,0m.53,0a.46.46,0,0,1-.26.07.38.38,0,0,1-.24-.08,1.47,1.47,0,0,0,.26,0,.22.22,0,0,1,.24.06m-.46-.4a.24.24,0,0,0,.09.08s0,0-.06,0,0-.06,0-.08m0,.22,0,.08a.47.47,0,0,1-.05-.1l.07,0M138,49a.18.18,0,0,1-.13,0l.13,0Zm.36-.41a.64.64,0,0,1,0-.07.15.15,0,0,1,0,.08m-.29.76,0-.07a.08.08,0,0,1,0,.07m1.3,4c0,.08-.07.15-.09.21-.1-.1,0-.15.09-.21m.29-6.32-.06,0s.06,0,.06,0m-.19,1.43h-.09v0l.08,0Zm-1.23,1.14h0l0,.07s0-.05,0-.07m1.6-3,.15,0a.14.14,0,0,1-.15,0m-1.47,1.9h0m1,.45,0-.08s0,.06,0,.08m-.05,4.4,0-.07a.06.06,0,0,1,0,.07m1.88,2.74s0-.07,0-.12a.25.25,0,0,1,0,.12m2.34-16.53h0m-1.78,1-.06,0s0,0,.06,0"/><path class="cls-9" d="M141.17,43.63v0l.12,0,0,0Zm1.17-1.7c0-.18.16,0,.23,0,0,.15-.14,0-.23,0Zm-1.92,2.18c0-.14-.19,0-.2-.15l0,.07c-.05-.17.17,0,.18-.09V44c.08.1.11,0,.2,0S140.42,44.17,140.42,44.11ZM142.19,42c0-.13,0-.11.09-.12S142.26,41.94,142.19,42Zm-1.51,1.55c-.08,0,0-.16,0-.16-.1-.07-.14,0-.19.07a.05.05,0,0,0,0,0l0,0s.08,0,.12.07v0l.08-.06-.06,0Zm-.89.91H140l0-.11ZM139,46.5c0,.06,0,.08-.1,0s0,.07-.06.09c-.07-.13.1-.08.16-.14s0,0,0,0,0,0,0,0Zm0-.37c-.23,0-.14.21-.21.25a.55.55,0,0,1,0-.22C138.86,46.09,138.92,46.06,139,46.13Zm1.72-3.4s-.17-.07-.19,0l-.12-.14c.1.07.19-.07.21-.08S140.71,42.61,140.75,42.73Zm2.38-2.3h-.06s-.07-.07-.09-.1S143.15,40.33,143.13,40.43Zm-.81.29a.19.19,0,0,0,0,.08l0,0c0-.07,0-.07,0-.06a.38.38,0,0,1,0-.1c-.06-.1-.21-.09-.27-.12s.18,0,.19-.06,0,0-.08,0l.07-.09c.2.06.14.17.09.28a.94.94,0,0,1,0,.09s0,0-.06,0Zm.41-.51c-.1-.1-.2-.25-.29-.07.08.12.12.09.17.26.06,0,.06-.08.08-.11s-.05.08-.11,0a.11.11,0,0,1,.15-.09s.06.07.09.07A.15.15,0,0,0,142.73,40.21Zm0-.25-.05.06.17.11-.12-.17Zm-.73.81c0-.09-.16,0-.18,0l.18,0Zm.24.17h.07l-.19-.13Zm-.85.79a1,1,0,0,0-.18.08c-.14-.18.11-.12.15-.2s0,0,0,.12ZM140.24,43c-.09,0-.1-.31.07-.25,0,.1-.12.19-.07.25Zm-1.45,3.63,0-.16-.07.14,0,0Zm-.08,1.29c-.4-.11-.29.22-.48.27.13,0,.34.1.34-.14.13.21-.26.13.07.26,0-.11.08-.23.09-.25l0,.12C139,48.13,138.63,48,138.71,47.93Zm0,2.59.11-.06-.11.08v0h0v0Zm.1,0,0,.17.08-.1-.14.27c-.12-.11,0-.29.11-.34Zm.09.28a.3.3,0,0,1,0-.09.23.23,0,0,1,.14-.09c0,.11-.1.06-.14.09s0,.06,0,.09Zm.53,1.55.09,0a.13.13,0,0,1,.05-.06s0,0-.05.06a.12.12,0,0,0,.07.14c.06,0,0-.11.07-.15.19.06-.22.44.22.23,0,.06-.11.25-.21.22a.69.69,0,0,0-.25-.4s0,0-.05,0Zm1,2.27a.93.93,0,0,1-.05-.1l.15,0-.1.12Zm-1-3.71a1,1,0,0,1-.08-.23c.11,0,.13.17.08.23Zm-.08-.91v-.17C139.31,49.89,139.38,50,139.41,50Zm.27.91,0-.08c0,.06,0,.07,0,.08l-.05.06c-.1-.11,0-.06.05-.06Zm-.25-1.2,0-.05c-.09-.06-.32,0-.11-.17l.11.17S139.43,49.71,139.43,49.74Zm-.53.25c.06-.17.15-.19.32-.33.11.12-.14.21-.25.21s.05.07.09.12Zm.37-.07c-.07.11-.15.32-.26.33a.3.3,0,0,0,.26-.25S139.26,50,139.27,49.92Zm.45-4.71-.11,0v0l-.1.08c-.08-.19.21-.18.28-.23S139.45,45.13,139.72,45.21Zm-.51,3.73c-.15.06-.11.2-.13.3s.27-.1.25-.21-.21,0-.12-.09Zm.09-.47v0l-.09.1.1-.08Zm.38-2.42s-.05,0,0,.07.19,0,.2,0-.14.12-.25.09C139.74,46.16,139.44,46,139.68,46.05Zm.7-1.69h0c.11,0-.06-.17.16-.12s-.07.11-.16.12Zm-1.39.71-.11.08,0,0,.11-.08Zm-.34,1.12-.1-.08.1,0v.11Zm1.67,7.07c-.06.06,0,0-.06-.06l0,.12C140.33,53.32,140.32,53.28,140.32,53.26Zm-.54-6.81,0,.06s0,0,0,.05l0-.05S139.67,46.43,139.78,46.45ZM141.69,43c0-.16.23-.12.31-.18l-.08,0,.12,0-.09-.08c.15-.09.22-.32.39-.23l-.14-.12.23,0-.16,0a1.18,1.18,0,0,1,.48-.3l-.06,0s.05,0,.09,0l-.09-.06c.25-.18.17-.42.52-.55.06-.08-.07,0-.1-.05s.13-.1.18-.08c-.12-.12-.21,0-.2-.16.12,0-.13-.09,0-.15l.17.14c0-.08-.08-.15,0-.2s0,.29.2.19-.08-.55.18-.58c.11-.2-.27-.22,0-.32l-.23,0c0-.07-.08-.15.05-.18a.41.41,0,0,0,.26.08c-.15,0-.14-.08-.12-.17s0-.19-.12-.21l.09,0s0,0,0,0l.11-.08c-.1,0-.27.08-.28-.1l.16-.13a.17.17,0,0,1-.08-.12.18.18,0,0,0,0-.12l-.09,0h-.09l-.15,0-.31.06c.05.05.15,0,.16.12s-.17,0-.24.12l.11,0s-.06,0,0,0,.07,0,.1,0-.14.14-.22.1.09.19.08.25c-.19-.12-.24.17-.39.16l.14.07c0,.2-.19.17-.28.18l.09.07c-.16.1,0,.43-.36.23l.06,0c0,.08-.08.21-.21.17,0,0,.06.09,0,.12s-.11.05-.18.14c.08,0,.19.14.28.13,0,.25-.26-.06-.36,0s.13,0,.19.06c-.12,0-.13.2-.15.32s-.06.22-.24.13l0-.15c-.12,0-.15,0-.12.06s.05,0,.08,0c-.05.32-.49.11-.62.36.06,0,.11,0,.15.06s-.35-.15-.38.1l.09,0c0,.08-.13,0-.14,0s0,.19,0,.29a.31.31,0,0,0,0,.41c-.2,0-.48.11-.45.24s.23,0,.35.18c0,.07-.22,0-.25.17-.15-.1-.14-.44-.38-.27l.06.08s0-.08,0-.1.07.11.1.15l-.2.21c-.18-.08,0-.21-.07-.25a1.67,1.67,0,0,0-.07.4.53.53,0,0,1,0,.19.22.22,0,0,1-.11.14l.08,0c-.28.16.23.3-.14.35,0,.12.19.05.13.21s-.07,0-.09,0c-.15.16.13.16-.11.26l.2,0-.4.2c-.13.07-.24.15-.23.27s.18-.08.31-.09a.51.51,0,0,0-.29.38c-.05.16-.06.32-.17.42-.11-.11-.33,0-.39-.15.2,0,.1-.1.14-.18-.22,0-.22.17-.2.32s.06.29-.12.27l.14.07s-.17.11-.2,0l0,.31c.13-.08.44-.23.29-.33.18,0,.08.14.28.11-.29.13.09.13,0,.31a.24.24,0,0,0-.26,0c-.07,0-.12.11-.17.1s-.1.2-.18.25.12.4,0,.57a.44.44,0,0,1,.32-.14c-.09.08-.09.18.07.2.33-.28-.37-.13-.15-.4a.46.46,0,0,0,.33-.25c.1.08.15.06.27.1-.21.06-.24.17-.23.29s0,.25-.07.36-.37,0-.42.23l-.12-.21c.11.23-.12.05-.16.23l.13-.07c0,.11,0,.15-.1.21l.21-.09c0,.06,0,.17-.08.17a.32.32,0,0,0,.13,0s-.06,0,0,.11,0-.07.07-.07c-.05.26.21.06.2.22,0,0,.1,0,.13.07-.32,0-.34.32-.51.42h0c0,.08-.07.16-.1.23s.11,0,.15.06h0c.05.06.33-.12.26.09l-.08.12s.06,0,.09,0l-.08.12c.16.07.13.15.09.24s-.11.2,0,.28,0-.14.07-.12,0,.1,0,.14l0,0a3.71,3.71,0,0,0-.12.41c.09-.05.06-.26.2-.19s0,.16,0,.23-.19-.1-.2,0,.15.1.2,0a1.71,1.71,0,0,1-.19.48s.07,0,.08-.06h0c0-.09.21-.06.09-.19.26-.08.12.19.19.31l.13-.25a.53.53,0,0,1,.26.55,2.4,2.4,0,0,0,0,.6c-.11-.07-.06-.18-.26-.11,0,.24,0,.2,0,.42v0c.14.08,0,.29.18.31s-.15-.13.08-.2l.06.27c.11-.12-.06-.27-.06-.38s0,.16-.14.17c-.07-.25.06-.35.24-.53s.19.06.21.1a.5.5,0,0,0,0,.7l.21.07c-.12.17-.44.22-.32.43l.1-.11c.06,0,.09.06.09.08a3.22,3.22,0,0,1,.2-.37c.31,0,0,.38,0,.58,0,0,0-.08.07-.13a.65.65,0,0,1,.05.44,1.64,1.64,0,0,0,0,.42c.15,0,0-.2.19-.23,0,.14.18.19,0,.28.19-.14.12.23.23,0a3.8,3.8,0,0,1,.42,1.23.36.36,0,0,1,.15-.11.44.44,0,0,1-.09-.22.38.38,0,0,1,.05-.25c.15,0,0,.27.05.25s0-.15.07-.21.05.17.08.25h-.07a.64.64,0,0,1-.09.32c0,.08,0,.14.08.23s.08-.08.22-.2c0,.05.06.07.12.11a.12.12,0,0,1,.07.16l-.13-.09a.6.6,0,0,0,.09.15.33.33,0,0,1,.07.13.13.13,0,0,0,0-.1c0,.1.15.15.15.28l.1-.16c-.08.06-.24,0-.2-.13s.18,0,.25.06a.38.38,0,0,1-.14-.3.18.18,0,0,0-.15-.19v.07c-.1,0-.14-.08-.16-.16a.7.7,0,0,0-.06-.23.15.15,0,0,0,.13-.06.67.67,0,0,1-.19-.14,1.18,1.18,0,0,1-.13-.18,2.62,2.62,0,0,0-.28-.43l.12-.18-.13.06c-.13-.13.17-.12.11-.22s0,0,0,.07c.06-.25-.17-.05-.17-.17-.12.11,0,.22-.17.26.06-.26-.14-.52.17-.68-.27-.3-.22-.83-.29-1.15-.07,0,0,0-.08,0,.15-.18-.26-.37-.09-.43a.77.77,0,0,0-.25,0,.6.6,0,0,0,.08-.31l0,.08h0l0-.12h0a1.56,1.56,0,0,1,0-.83c-.08.16-.22,0-.27.09a.55.55,0,0,0,.11-.69.37.37,0,0,0-.15,0l.09-.15-.06,0a.51.51,0,0,1,0-.36c0-.12.06-.22,0-.29,0,.1-.08.11-.17.13a1.21,1.21,0,0,1,0-.53l-.06,0s0-.12.07-.17h-.14c.06-.1,0-.23.09-.35a.06.06,0,0,1,0-.07l0-.11c.05-.08.11-.17.08-.24s-.16.11-.15,0c.31,0,0-.18.34-.18l-.11-.13h.17c-.3-.13.15-.15.07-.31,0,0,0,0-.08,0s.08-.16.15-.06c0-.08.13-.34-.06-.24.09,0,0,.1,0,.15s-.07-.14-.22-.2l.07,0-.09,0a.5.5,0,0,0,.1-.11l0-.1a.28.28,0,0,1,.18-.17.07.07,0,0,1,0-.1l.17,0s0-.11,0-.16h-.27c0-.19.31-.23.4-.36-.14-.06-.09-.12,0-.19s.12-.14,0-.25l-.11.08a.46.46,0,0,0,.06-.26.33.33,0,0,1,.11-.23,1.57,1.57,0,0,0,0,.22.85.85,0,0,0,.08.33.48.48,0,0,1,.16-.35.44.44,0,0,0,.13-.34c-.08,0-.14,0-.18-.06.16,0,.1-.23.24-.11,0-.1-.15-.19-.15-.25l.32-.14h0a.52.52,0,0,1,.32-.58l.31-.19a.71.71,0,0,0,.21-.27l-.08-.06h.18c-.13,0-.07-.11-.13-.17l.36-.09c-.06-.06-.22-.17-.24-.09Z"/><path class="cls-9" d="M141.62,40.89a.08.08,0,0,1,0-.06.1.1,0,0,1,0,.06m-3.48,5.8a.09.09,0,0,1,.06,0s0,0-.06,0M138,47h0Zm3.08,9.16c0,.17-.07,0-.11-.05s.12,0,.11.05m-.14-.45a.21.21,0,0,0,0,.15s0-.06,0-.15m.19.26a.34.34,0,0,1-.16-.11s.11,0,.16.11m-.81-1c-.06.1,0,.17,0,.17-.21-.17-.13.13-.17.19-.06-.15,0-.22.12-.36m-.12-.31s0,0,.05,0a.08.08,0,0,1-.05,0m-.12,0c0-.09.06-.16.12-.23s0,.19,0,.27,0-.11-.12,0m-1.4-2.29a.07.07,0,0,1,0,.08l0-.14c0-.06.07,0,.09.06m.14-.59c0-.11-.15,0-.13-.08l.19,0Zm1-.2,0,0v0Zm-1.34-.28-.2.13c0-.11.21-.15.2-.13m-.25-.39,0,.08,0-.22Zm0-.54h0l0-.16Zm.78-5.77c.09,0,.09.09.08.15a.45.45,0,0,0,0,.17c-.21-.13.14-.14,0-.32m2.49-3.4-.19.12c.07-.17,0,0,.19-.12"/><path class="cls-10" d="M84,42A42,42,0,1,1,42,0,42,42,0,0,1,84,42"/><path class="cls-4" d="M65.32,34.79c.3,0,.66,0,.52-.16a4.39,4.39,0,0,0-.72,0c-.25,0-.41-.16-.36-.2s-.38-.11-.52-.05a3,3,0,0,0,1.12.31c.08,0,0,.06,0,.08M68.5,36a.75.75,0,0,0-.2-.1l.18.11h0m-7-7.09h0s0,0,0,0M51.37,20.25a.7.7,0,0,1,.14.19c0-.11.57.14-.14-.19M68.6,36.07,68.48,36s0,0,0,0,.07,0,.13,0M34.8,66.46l-.69-.16.69.16m-2.72-.69a1.55,1.55,0,0,0-.36-.19s-.06,0-.08,0Zm19.72-.7-.09,0,.09,0"/><g class="cls-11"><path class="cls-1" d="M71.58,51.4s-.07,0-.09,0,.11-.25.17-.38C71.69,51,71.67,51.15,71.58,51.4ZM40.12,18.21c.05,0,0,.08-.13.09.07,0-.24-.05-.44-.07Zm.74,0a1.85,1.85,0,0,1,.32,0,1.9,1.9,0,0,0-.32,0ZM68.72,36.44c0,.08.07.15,0,.16a5.6,5.6,0,0,0-.49-.36l.47.2Zm2.35,2.48,0,.2-.29-.42a1.13,1.13,0,0,1,.27.22Zm2.14,5.52,0,.22a3,3,0,0,1-.24-.94,2.79,2.79,0,0,0-.28-1.06c.36.73.13.1.27.13,0-.21-.05-.54,0-.46a6.42,6.42,0,0,0-.43-1.13s-.16-.39,0-.35c-.23-.46,0,.14-.08.12a9.39,9.39,0,0,0-1.49-2.56,4.51,4.51,0,0,0-.79-.71l-.63-.46-.2-.18c-.06-.14.32.11.32.11a3.49,3.49,0,0,0-1-.84c.1,0,0,0,0-.18-.3-.21-.28,0-.66-.33a1.48,1.48,0,0,1,.41.06,10.21,10.21,0,0,0-1.22-.53c-.08-.12.3,0,.46.06a4.06,4.06,0,0,0-1.41-.47l.28.16c-.17-.06,0-.13.09-.09.43.09.55.31.55.35l-.3-.12c.19.35,1.15.54,1.67.95h-.25a10.8,10.8,0,0,0-4.48-1.74.14.14,0,0,1,0-.06c.12,0,.27.07.31-.11l.14-.07-.13,0a2.4,2.4,0,0,0-.09-.57L63.52,33v-.25l.23.56a1.38,1.38,0,0,0-.34-.73.44.44,0,0,0,0-.31l-.48-.55c0-.11.28.21.11-.23-.23-.25,0,.36-.31-.1-.07-.34,0-.3-.21-.61,0-.07.09,0,.18.11A6.9,6.9,0,0,0,62,30a4,4,0,0,0-.33-.65c-.14-.21-.25-.38-.16-.42a4.62,4.62,0,0,1-.67-.7c.26.18.09-.07-.12-.37s-.48-.62-.33-.63a3.28,3.28,0,0,1-.78-.75,8.18,8.18,0,0,0-1-.92.38.38,0,0,1,.17.12,7.62,7.62,0,0,1-.51-.7c-.15.06-.69-.36-1-.54-.29-.48.37.08.35-.15-.07.12-.79-.53-.72-.32-.24-.36-.25-.26-.32-.51-.19.12-.33-.21-.68-.32-.41-.45,0-.25-.57-.6-.19-.2.18,0,.28,0-.51-.38-.33,0-.49-.06-.69-.4-.25-.3-.43-.51-.45-.24-.83-.35-1.16-.53,0,0-.07-.08,0-.07a15.42,15.42,0,0,0-2-.87l-.05-.07a.2.2,0,0,1,0,.23c-.27-.12-.54-.14-.6-.28a.4.4,0,0,0,.28.05l-.3-.09c-.19-.25.41.13.46,0l-.9-.31a5.7,5.7,0,0,1-.8-.27c0-.17,1,.34.5,0a6.59,6.59,0,0,1,.65.33c-.41-.44.4.2,0-.23-.87-.43-1-.33-1.91-.71-.23,0,0,.14-.2.14-1.34-.24-.93-.65-2-.72a1.41,1.41,0,0,1-1.08,0l.27-.11c-.91-.18-.56.09-1.5-.13.18-.05.73,0,.59,0-.6-.21-.45,0-.93,0L44,18.16a25.59,25.59,0,0,0-3.17,0c.06,0,.25-.1,0-.13-1.38.1-2.94.14-4.27.32l-.48.22c-.11,0-.23,0-.1-.06-.52.06,0,.08-.25.18s-.4,0-.22-.07c-.88.31-2.45.91-3.38,1.16l.16-.1c-.73.21-.69.54-1.36.73l.11-.08c-1.53.59-3,1.66-4.11,2.21-.1.25-1.32.92-1.26,1.18a8.87,8.87,0,0,0-1.64,1.12c-.27.22-.26.48-.54.81l-.1-.09-.3.53-.33.12-.25.32c.11-.12.28-.21.29-.17a4.67,4.67,0,0,1-1.11,1.11c-.3.4-.54.85-.8,1.28,0-.06.11-.28.19-.46-.34.74-.19,0-.51.72.08-.06,0,.09.05.12a6.23,6.23,0,0,0-1,1.53l0-.15a12.78,12.78,0,0,0-.79,1.57c-.26.55-.47,1.13-.69,1.72.2-.4.31-.25.19.1l-.18.08c0,.25.18-.33.11.15a.83.83,0,0,1-.12.21H18.1s0,0,0-.06a.5.5,0,0,1,0-.17.62.62,0,0,0-.05.26h0s0,0,0-.05l0-.06v0h0l-.12,0-.17,0a1.15,1.15,0,0,0-.59.26l-.05,0a10.11,10.11,0,0,0-2.51,1.51c0,.1-.29.32-.45.61a8.11,8.11,0,0,0-1.8,1.77c-.33.57,0,.22-.14.49-.13,0-.58.78-.41.32a8.59,8.59,0,0,0-1,2.6c.08-.13.15-.28.16-.19,0,.25-.21.54-.25.49v-.07c-.32,1.51-.78,3.58-.41,4.8l0-.07a10.82,10.82,0,0,0,.3,1.25c.08.59-.15-.33-.14.11a15.81,15.81,0,0,0,1.15,3.14,4.59,4.59,0,0,0,1,1.84c.26.33.55.64.8,1a7.71,7.71,0,0,1,.69.82v-.11c.27.17.25.29.41.45,0-.06-.21-.27,0-.17a25.24,25.24,0,0,0,3.22,2.34c.57.37,1.16.68,1.75,1,.3.17.61.3.91.44l.45.21.1,0h0l.05,0,.09.08c.73.62.66.05,1.49.94l-.36-.1a43.84,43.84,0,0,0,4.89,3.22c-.11,0-.14,0-.3-.09a3.3,3.3,0,0,0,1.35.66c.26.14,0,.1.17.22.34.23,1,.34,1.12.51s-.12,0-.19,0c.26.06,1.13.51.94.3.64.33,1.29.45,1.81.69.4,0,1.16.43,1.32.27-.1.17,1.18.47,1.65.45-.16,0,.37.14.18.18.51.11,1,.13.91,0,.91.39,1.91.06,2.42.4,1.53,0,2.94-.06,4.3-.13,0,.19-1.51,0-1.45.24,1.3-.09,2-.27,3.33-.32.33,0-.18.1-.3.14a24.62,24.62,0,0,0,3.64-.55s-.12.06-.23.1c.22-.05.53-.07.49-.15l-.22.06c-.38,0,.83-.43.85-.52-.32.33,1.12-.2.61.24.14,0,.31-.14.26-.19.22,0,.3,0,.1.1.77-.28.47-.27,1.17-.5,0,0-.12.1-.18.17A5.19,5.19,0,0,1,51.83,65s0,0,0,.07c.94-.39,1.55-.86,2.6-1.29-.23.32.38-.12.51,0l.54-.33-.26.05c.49-.25.86-.6,1.3-.78l-.33.25c.3-.17.6-.34.89-.53l-.54.24c.44-.34-.15-.14.5-.47a7.14,7.14,0,0,1,.77-.35h0a3.5,3.5,0,0,1,.78-.55c.12,0,0,.19.1.18.15-.25,1.07-.71,1.27-1-.08.09,0,.16,0,.15l.12-.21c.24-.11.28-.12.28,0,.65-.4-.32,0,.49-.46a1.11,1.11,0,0,1-.13.14,13,13,0,0,0,1.09-.75l.52-.38.25-.16a.14.14,0,0,1,.1,0l.15,0c.17,0-.08.12-.16.15s-.25.17-.08.13.09-.06.29-.13l.45-.14a6,6,0,0,0,.89-.34c.59-.24,1.14-.53,1.68-.78l-.21.08c0-.25.83-.32,1.29-.73-.12.09-.1.21-.08.16a9,9,0,0,0,2.17-1.92l-.07.16a8.69,8.69,0,0,0,.63-.61c.22-.24.42-.5.59-.7s.24-.38.06-.29c1.23-1.11,1.44-2.66,2.13-3.88,0,.16-.09.39,0,.27a11.85,11.85,0,0,0,.31-1.17c-.12.07-.1.14-.24.36a2.78,2.78,0,0,1,.11-.78c-.09.53.17,0,.26-.19,0,0-.06,0-.09,0,.29-.58-.17-.14.11-.95l0,0a7.6,7.6,0,0,1,0-1c.13-.13,0,.34.11.37a10.8,10.8,0,0,1,0-1.39c0,.2,0,.5,0,.7a3,3,0,0,0,.16-.88v0c0-.27,0-.55,0-.83Z"/></g><path class="cls-4" d="M55.62,22.55l0,0,0,0m-32.23,3,0,0,.06-.1Z"/><g class="cls-12"><path class="cls-4" d="M72.79,48.33a.21.21,0,0,0,0-.08s0,0,0,.08"/></g><g class="cls-13"><path class="cls-4" d="M73.17,45.24c0-.11,0-.25,0-.45,0,.15,0,.3,0,.45"/></g><g class="cls-14"><path class="cls-4" d="M73,42.83l-.06,0h0l.06,0Z"/></g><path class="cls-4" d="M47.49,66.37l-.09,0c-.21.06-.07,0,.09,0m10.29-4.52a3.11,3.11,0,0,1-.28.23c.17-.09.31-.17.28-.23M34.87,66.47ZM57.5,62.08a3.35,3.35,0,0,0-.45.27,2.14,2.14,0,0,0,.45-.27m9-27.23h0l.13,0Zm-.42-.1.27.07a.77.77,0,0,0-.27-.07M70,37.31a3.72,3.72,0,0,0-.62-.67h0c.16.05.48.54.67.66m-7.8,21.87L62.3,59l-.38.29Z"/><path class="cls-15" d="M36.93,37s0,0,0,0-.06,0,0,0m-.11-.26,0,0,0,0Zm0-.09c0-.05-.08-.11-.07-.15s0,.08,0,.13h0Zm0-.3h0v0s0,0,0,0m0-.14s0,0-.06,0l0,0s0,0,0,0m-.09,0s0,0,0,0l0,0s0,0,0,0m0,.07c0,.06.08,0,0,0s0,.05,0,0m-.06.24s0-.05,0,0l0,0Zm0-.49s0,0,0-.06,0,0-.05,0l0,0Zm-.06.17h0l.08,0Zm0-.37h0Zm0-.13a.16.16,0,0,0-.1,0s0,0,0,.07,0,0,.06,0m0,.22h0s0,0,0,0Zm0,0,0,0,0,0m0,.21s0,0,.09,0-.08,0-.09,0m.06-.13-.05,0v0a.05.05,0,0,1,0,0m-.05,0h0Zm-.07-.21-.06,0a.21.21,0,0,0,0,.06s0,0,0,0m-.22-.19Zm.23.25,0,0a0,0,0,0,0,0,0s0,0,0,0m0,0h0m-.22-.19h0a.11.11,0,0,1,0-.08s0,0-.06,0l.05.06Zm0,.12s0,0,.09,0,0,0,0-.06l0,0s0,0,0,0h0s0,0,0,0h0l-.08,0s0,0,.06.05-.09,0-.11.06m.16.35s0,0,0,0h0s.05,0,.05,0h0a.29.29,0,0,1,0-.1.31.31,0,0,0-.07.09m-.09-.18,0,0s0,0,0,0a.1.1,0,0,0,0,0v0m0-.41-.07,0h0l0,0Zm-.08-.05h0v0Zm-2.19-.07,0,0a.06.06,0,0,1,0,0s-.11,0-.08,0m1.18-.3h.08a0,0,0,0,0-.08,0m.68.18h0l0,0h0"/><path class="cls-15" d="M34.4,35.39l0,0,0-.06v.17l-.08,0A.34.34,0,0,1,34.4,35.39Zm.44,0s0,0,0,0h-.05v0l-.06,0a.45.45,0,0,1,0-.14S34.82,35.34,34.84,35.38Zm.61-.11c.07,0,0,.07,0,.06s.14-.13.22,0,0,.1-.05.15-.06-.07-.09-.07l0,0s-.05,0-.07,0,0,0,.07.05l-.27-.07a.25.25,0,0,1,.13-.12Zm1.4,2s0,0-.07,0l.09-.09c-.07,0,0-.11-.07-.13v0s-.09,0-.15,0,0,0,0-.09a1.64,1.64,0,0,0-.48-1.17h0l0,0s0,0,0,0l-.1-.08s0,0,0,0,.13-.11.15-.2,0,0-.07,0,0,.1,0,.1,0,0,0-.07-.08,0-.12.08l-.12-.09,0,0h0l-.13-.07,0,0h0c0-.06.08,0,.06-.07s.11,0,.15,0l0,.06a0,0,0,0,0,0-.05s0,.12.09.06v0c.05,0,.13,0,.16,0s0,0,0-.08c0,.09-.11-.08-.12,0,0-.09,0-.07,0-.16s0,.05,0,0h0a.06.06,0,0,1,0,0c-.05,0-.11,0-.14,0s0,0,0,0l-.05,0c0-.05,0-.1,0-.1l0,0s-.07-.06-.1,0-.08,0,0,0h-.09v0h-.17s0,0,0,0l-.06,0,0,0a.26.26,0,0,1-.1,0,.13.13,0,0,1-.11,0v0s-.12,0-.14,0-.19,0-.26,0v.06a.24.24,0,0,0-.13.07v0s-.12,0-.19,0,0,0,0,0-.1,0-.13.05-.06.09-.11.08,0,0-.05,0h0l0,.05,0,0h0s0,0,0,.06v0c-.07-.05,0,.06-.11,0s-.06.1,0,.17h0a0,0,0,0,0,0,0l-.05,0,0,.1c-.06,0-.08,0-.1-.06,0,.11,0,.07,0,.16l0,0s0,.08,0,.07-.15.22-.27.32c.12,0-.07,0,0,.08s0,0-.06,0-.09.1,0,.17,0,0,0,0,0,0,0,0,0,0,0,0,.07.11.15.13,0,0,0,.08-.06,0-.06,0-.06.15,0,.16,0,0,0,0a.25.25,0,0,0,0,.12v0c.08,0,0,.05,0,.09h0c0,.1,0,0,0,.14h.05c.11,0-.05.1,0,.15l0,0s-.12.12-.13.16l0,0c0,.1.06,0,.09.06s-.09,0-.08.05.15.09.11.17,0,0,.07,0,0,.16.05.16h0s.08.08.13.08,0,.09,0,.12.1,0,0,.09l.08.08h0c0,.06.08,0,.13,0a0,0,0,0,1,0,0c0,.1.06.1.18.09l0,0s0,0,.06.08.07.08.13.08h0c.07,0,.11.06.15.11s.1.06.15,0l.08,0c-.08,0,0-.07,0-.11s.07.08,0,.08h0c-.05.09.1.06.08.12a2.52,2.52,0,0,0,.54.08l0-.07h.06s0,.06,0,.06.07-.05.07-.06,0,.09,0,.09h0s0-.07.07-.08,0,0,0,0h.1l0-.05s.07,0,0-.08.11,0,.17,0l.14-.06c0-.06.06-.08.11-.11s-.06,0,0-.07c.07.13.1,0,.2.05s0,0,0-.07,0-.06,0-.07,0,0,.08,0a.26.26,0,0,1,.11-.12c.05,0,.11-.07.13-.13s0,0-.05-.05h.11s-.07-.08,0-.08,0,0,0,0a.65.65,0,0,0,.18-.31.64.64,0,0,1,.16-.35s0,0,0,0Z"/><path class="cls-15" d="M36.12,35.37l0,0a0,0,0,0,1,0,0s0,0,0,0m-.06.16s0,0,0,0h0c.05,0,0,0,0,0m0,0s0,0,0,0,0,0,0,0m-.2-.32s-.11,0,0,0,0,0,0,0m.1.39,0,0,0,0v0m-.1-.11s0,0,0,0l0,0h0m-.45-.18h0s0,0,0,0l0,0m1.48,1.74,0,0,0,0ZM36.85,37h.07l-.06,0s0,0,0,0m12.87,0s0,0,.05,0a0,0,0,0,0-.05,0m-.1-.26,0,0,0,0Zm0-.09c0-.05-.08-.11-.06-.15s0,.08,0,.13h0Zm0-.3h0v0s0,0,0,0m0-.14s0,0-.06,0l0,0s0,0,0,0m-.09,0s0,0,0,0l0,0s0,0,0,0m0,.07c0,.06.08,0,.05,0s0,.05-.05,0m-.06.24s0-.05,0,0l0,0Zm0-.49s0,0,0-.06,0,0-.05,0l0,0Zm-.06.17h0l.07,0Zm0-.37h0Zm0-.13a.15.15,0,0,0-.1,0,.07.07,0,0,1,.05.07s0,0,0,0m0,.22h0a.08.08,0,0,0,0,0Zm0,0,0,0,0,0m0,.21s0,0,.09,0-.08,0-.09,0m.06-.13-.05,0,0,0,0,0m-.05,0h0Zm-.07-.21-.06,0a.21.21,0,0,0,0,.06s0,0,0,0m-.22-.19Zm.23.25,0,0s0,0,0,0,0,0,0,0m0,0h0"/><path class="cls-15" d="M49.14,35.64h0s0,0,0-.08,0,0-.06,0l.06.06Zm0,.12s0,0,.08,0,0,0,0-.06l0,0s0,0,0,0h0a0,0,0,0,1,0,0h0s0,0,0,0h0l-.08,0s0,0,.06.05-.08,0-.1.06m.15.35s0,0,0,0h0s.05,0,.05,0h0a.16.16,0,0,1,0-.1l-.08.09m-.09-.18,0,0s0,0,.05,0l-.06,0v0m0-.41-.07,0h0l0,0Zm-.08-.05h0v0Zm-2.19-.07,0,0a0,0,0,0,1,0,0s-.11,0-.08,0M48,35.1h.08a0,0,0,0,0-.08,0m.69.18h0l0,0s0,0,0,0"/><path class="cls-15" d="M47.19,35.39l0,0,0-.06v.17l-.08,0a.34.34,0,0,1,0-.18Zm.44,0s0,0,0,0h0l0-.08v.08l0,0a.58.58,0,0,1,0-.14A.31.31,0,0,1,47.63,35.38Zm.61-.11c.07,0,0,.07,0,.06s.14-.13.22,0,0,.1,0,.15-.06-.07-.1-.07l0,0s-.06,0-.07,0,0,0,.06.05l-.27-.07a.25.25,0,0,1,.13-.12Zm1.4,2s0,0-.07,0l.09-.09c-.07,0,0-.11-.07-.13v0s-.09,0-.15,0,0,0,0-.09A1.64,1.64,0,0,0,49,35.82h0l0,0s0,0,0,0l-.1-.08s0,0,0,0,.13-.11.15-.2,0,0-.07,0,0,.1,0,.1,0,0,0-.07-.08,0-.12.08l-.13-.09v0h0l-.13-.07,0,0h0c0-.06.07,0,.05-.07s.11,0,.15,0l0,.06a0,0,0,0,0,0-.05s0,.12.09.06v0c.05,0,.14,0,.17,0s0,0,0-.08c0,.09-.12-.08-.13,0,0-.09,0-.07,0-.16s0,.05,0,0h0a.06.06,0,0,1,0,0s-.1,0-.14,0,0,0,0,0l0,0c0-.05,0-.1,0-.1l0,0a.1.1,0,0,0-.1,0s-.08,0,0,0h-.1v0h-.17s0,0,0,0a.09.09,0,0,0-.06,0l0,0a.18.18,0,0,1-.09,0,.13.13,0,0,1-.11,0v0s-.12,0-.13,0-.2,0-.26,0v.06a.24.24,0,0,0-.13.07l0,0s-.13,0-.2,0,0,0,0,0-.1,0-.13.05-.06.09-.11.08a0,0,0,0,1,0,0h0l0,.05,0,0h0s0,0,0,.06a.06.06,0,0,0,0,0c-.07-.05,0,.06-.11,0s-.06.1,0,.17h0a.05.05,0,0,0,0,0l-.05,0,0,.1s-.08,0-.09-.06c0,.11,0,.07,0,.16l0,0s0,.08,0,.07-.15.22-.27.32c.13,0-.07,0,0,.08s-.06,0-.07,0-.08.1,0,.17,0,0,0,0,0,0,0,0,0,0,0,0,.07.11.15.13,0,0,0,.08-.07,0-.07,0-.06.15,0,.16,0,0,0,0a.25.25,0,0,0,0,.12v0c.08,0,0,.05,0,.09h0c0,.1,0,0,0,.14h.05c.11,0-.05.1,0,.15l0,0s-.13.12-.13.16,0,0,0,0,.07,0,.1.06-.09,0-.09.05.15.09.11.17,0,0,.07,0,0,.16,0,.16h0s.09.08.14.08,0,.09,0,.12.09,0,0,.09l.08.08h0a.1.1,0,0,0,.13,0s0,0,0,0,.06.1.18.09l0,0s0,0,.07.08a.17.17,0,0,0,.12.08h0c.07,0,.11.06.16.11s.09.06.14,0l.09,0c-.09,0,0-.07,0-.11s.07.08,0,.08h0c0,.09.1.06.08.12a2.52,2.52,0,0,0,.55.08l0-.07h.06s0,.06,0,.06.07-.05.07-.06,0,.09,0,.09h0s0-.07.07-.08,0,0,.05,0h.09l0-.05s.07,0,0-.08.11,0,.17,0l.14-.06c0-.06.06-.08.11-.11s-.06,0,0-.07c.07.13.11,0,.2.05s0,0,0-.07,0-.06,0-.07,0,0,.09,0,.06-.09.11-.12a.4.4,0,0,0,.13-.13s0,0-.06-.05h.12s-.08-.08,0-.08,0,0,0,0a.56.56,0,0,0,.17-.31,1.27,1.27,0,0,1,.06-.18,1.06,1.06,0,0,1,.1-.17s0,0,0,0Z"/><path class="cls-15" d="M48.91,35.37l0,0a0,0,0,0,1,0,0s0,0,0,0m-.06.16s0,0,0,0h0s0,0,0,0m0,0h0s0,0,0,0m-.21-.32s-.11,0,0,0,0,0,0,0m.1.39,0,0,0,0,0,0m-.11-.11s0,0,0,0l0,0h0m-.45-.18h0s0,0,0,0l0,0m1.49,1.74,0,0,0,0ZM49.64,37h.07l-.06,0s0,0,0,0"/><path class="cls-7" d="M49,51l.22-.16-.29.12Zm2.73-1.89-.09.21a2,2,0,0,1-.11.2c-.12,0-.32.17-.51.34l.11-.09.11-.09c0,.06,0,.08,0,.14a3,3,0,0,0-.41.29l-.17.12a1.23,1.23,0,0,1-.25.08v0l-.26.2c-.1,0-.08,0-.06-.06a3,3,0,0,1-.79.43.82.82,0,0,0,.55-.19,1,1,0,0,1,.54-.22v0a1.53,1.53,0,0,1,.25-.16l.28-.14.27-.16a1.59,1.59,0,0,0,.24-.2c.07-.1.18-.26.26-.39s.12-.26.06-.31m-8.45-5,0,0s0,0,0,0m4.62-.07h0s0,0,0,0M49,43.53s.06,0,.1-.06h0Z"/><path class="cls-16" d="M51.83,45.5s.05-.12.13,0,0,0,0,.08l.08.06c0,.08-.08,0-.13,0S51.85,45.55,51.83,45.5Zm-.95-1.19a1.15,1.15,0,0,1,.36.19c.15.13.3.25.4.22s.19.27-.08.08a.63.63,0,0,1,.2.39c0,.08,0,.15,0,.21a3.41,3.41,0,0,0-.89-1.09Zm-2-.44-.45.13.28-.09a1.19,1.19,0,0,1,.8-.12,1.5,1.5,0,0,1,.56,0c.19,0,.36.07.49.09a.43.43,0,0,1-.14.13,2.21,2.21,0,0,0-1.53-.13Zm-10.64.6h-.14a.39.39,0,0,0,.13-.06c.05,0,0,.05,0,.07Zm2.47.06c-.07,0-.1,0-.1,0h-.29a.09.09,0,0,1,.06,0A1.82,1.82,0,0,1,40.67,44.53Zm6.44-.3a0,0,0,0,1,0,0l-.62.08.2,0A1.68,1.68,0,0,1,47.11,44.23Zm.48-.07-.23,0a.41.41,0,0,1,.23-.07ZM47.54,44c.27,0,.21-.13.54-.08a.52.52,0,0,0-.19.17l.37,0-.55.11,0,0C47.65,44,47.33,44.12,47.54,44Zm3.18.18,0,0-.12-.07A.16.16,0,0,1,50.72,44.17Zm1.78,2.32A5.42,5.42,0,0,0,52,45.11l.08.06c-.08-.06-.18-.15-.25-.19a1.24,1.24,0,0,0-.22-.47.76.76,0,0,0-.44-.34s0,0,.06,0c-.13-.1-.31-.27-.53-.42a2.09,2.09,0,0,0-.74-.31.4.4,0,0,1-.22,0l-.27,0a.67.67,0,0,0-.36.06c.08,0,0,.07,0,.12a.83.83,0,0,0-.21.14c-.09,0-.1-.08-.11-.1a.4.4,0,0,0-.11-.09h.19l-.08-.1,0,0,0,0-.08,0a.53.53,0,0,1-.17.08,1.45,1.45,0,0,1-.35,0c-.23,0-.44,0-.58.12,0,0,0,0,0,0-.23,0-.36.14-.52.2s.08-.1.16-.16a11.48,11.48,0,0,1-1.48.2c-.15.1.06.1-.09.18s-.24-.07-.08-.12c-.38-.12-1.24.19-1.83.08-.3.1-.11.13-.57.2.11-.06-.12-.19.16-.2l0-.07c-.23,0-.5,0-.75,0a1.3,1.3,0,0,0-.59.15c0-.13-.08,0-.26-.09s0,0,0,0c-.17.11-.25,0-.38,0l0,0-.34.08s-.14,0-.15-.08v.09c-.18,0-.08-.11-.31-.1l0,.07c-.14,0-.38,0-.4,0s0,0,.07,0c-.22-.14-.58,0-.85,0l.07.15c-.27,0-.17,0-.15-.08-.18,0-.22-.06-.45-.09s-.07,0-.11.09l-.24,0,.16-.07c-.38.19-.92-.09-1.18.08-.14-.06.13-.08,0-.11-.43-.13-1,0-1.34-.13a8.62,8.62,0,0,0-.91-.2l-.48-.11-.23-.07-.1,0-.17-.05v0a2.53,2.53,0,0,0-.55-.09,1.47,1.47,0,0,1-.34.09l-.21.06a.91.91,0,0,0-.17.09s0-.06,0-.1c-.23.07-.44.22-.58.24a.18.18,0,0,1,.05-.07,2.69,2.69,0,0,0-.7.47,1.43,1.43,0,0,0-.38.51c-.1.14-.15.1-.22.11a1.6,1.6,0,0,0-.27.66,1,1,0,0,1-.14.15l.05.14c-.05.1-.08,0-.14.08a5,5,0,0,1-.13.67,2.94,2.94,0,0,0-.1.58l.05,0c0,.13,0,.38-.09.23a2,2,0,0,0,0,.43,2.78,2.78,0,0,0,.12.38c.11.24.23.51.44.88-.05.1.08.25.2.4s.27.27.25.38l.19.16.16.13a.76.76,0,0,0,.34.16s0,0,0,0a1.68,1.68,0,0,0,.82.43v.06c.16,0,.68.2.84.11s-.08,0-.13,0a.29.29,0,0,0,.23.1.71.71,0,0,1,.28,0s0,.08,0,.08a3.59,3.59,0,0,0,1.26.31c.48.06,1,.1,1.44.2.26,0-.08-.14.26-.09.09.07-.18.11,0,.16a.69.69,0,0,1,.43,0s0,.07-.16.08c.12.07.53-.05.76.08,0,0,0-.06.08-.08.37-.09.81.16.85.1s.13,0,0,0c.13,0,.32,0,.28.1a.52.52,0,0,1,.24-.08l-.06.07a1.46,1.46,0,0,1,.19-.07l-.09,0c.15.06.44-.08.43.06h0l.28.08a.64.64,0,0,1,.41-.09c.07.14.48,0,.72.05v0c.19-.07.67,0,.58-.07.19,0,.43,0,.34.08.15,0,.46,0,.54-.13l.3.11c.17-.18.6,0,.61-.15.17,0,.13.07.25.09a1.66,1.66,0,0,1,.7-.11v0c.24,0,.52-.12.85-.17l.09.14c.17,0,.2-.15.37-.14s0,0,0,0a1.32,1.32,0,0,1,.52,0c.24-.14.44-.13.64-.28.22.1-.28.11-.09.2a3,3,0,0,0,1.1-.27s0,0,0,.09.18-.13.34-.27.24-.27.2-.33c2-.63,3.42-1.54,3.42-3.43A3.93,3.93,0,0,0,52,46l0,0a1.64,1.64,0,0,1,.21.44l-.05-.05c0,.13.05.26.06.39v0c0,.11.07.21.1.32h0a1.45,1.45,0,0,1,.06.19l-.07,0a1.06,1.06,0,0,1,.09.68l0,0c0,.07,0,.15,0,.23a1.93,1.93,0,0,1,0,.24c-.16.21,0-.34-.16.13l-.07-.16a1.45,1.45,0,0,1-.06.19l-.07.12a1.57,1.57,0,0,0-.13.23c.12,0,.18-.19.18-.06a.43.43,0,0,0-.22.27,1.81,1.81,0,0,1-.13.34.46.46,0,0,0,.15-.28c.08-.11.08,0,.14-.07l0-.21h.1a2.56,2.56,0,0,0,.1-.34c.08.06.13-.29.18-.13a.29.29,0,0,1,0-.09s0,0,0-.07a.83.83,0,0,1,0-.15.59.59,0,0,0,0-.14.47.47,0,0,0,0-.16c.09-.15,0,.27.07.1a4.77,4.77,0,0,0-.08-1.46Z"/><path class="cls-8" d="M38.26,47.22h0m5.11-.15h0v0Zm.84.06h0s0,0,0,0m-2.73.23h0m-4.73-.19h0v0Z"/><path class="cls-8" d="M36.77,47.13s0,0,0,0,0,0,.06,0,0,0,0-.06M34,46.81h0M41.6,49h0m-7.17-2v0s0,0,0,0m9,.08v0m1.6.09s0,0,0,0h0Zm4,.34v0s0,0,0,0m-2.9-.22v0s-.07,0-.13,0v.07Z"/><path class="cls-8" d="M47.4,48.53l-.13-.11c.36-.1.54,0,.84-.14v0s0-.26.59,0h0s0,0,.05,0l-.1-.06s.09-.11.16-.13l0,.06.16,0,.07.07s0-.22.15-.15c-.07-.11.06-.08,0-.14l0,.06c.08,0,.23-.09.26-.15l-.2-.12a1.26,1.26,0,0,1-.27-.2c.12,0,0,0,0-.06v0c-.08,0-.09-.1-.12-.11v0h0a0,0,0,0,1,0,0s0,0,0,0h0a.12.12,0,0,1-.1,0V47.4c0,.13-.37-.13-.44-.13s-.15,0-.25,0-.08-.09-.15-.13,0,.07,0,.08l-.11-.08s0,0,0-.07-.24-.09-.25,0c-.13-.05-.14-.1-.19-.1s.06,0,.06.06,0,0,0,0-.41-.18-.41,0v0c0,.11,0,.2,0,.27l0,0,0,0a.06.06,0,0,1,0-.07c-.08.05-.21,0-.31,0l.14.26c-.09-.05-.26-.16-.27-.07l-.06-.09c-.2-.16-.11.09-.19.05l-.1-.09h.09l-.21-.13h0a0,0,0,0,1,0,0h0a.1.1,0,0,1-.11.09c-.08,0-.14.08-.29,0l0,.1-.11,0v-.08a4.18,4.18,0,0,0,.41-.08v0c-.08,0-.16.06-.21.06s-.1-.1-.06-.16l0,.09a.88.88,0,0,1-.53,0l0,0s-.1.06-.12,0a.65.65,0,0,1-.45-.13v.1s-.1-.14-.1,0l-.07,0s-.07.05-.13,0h0c-.11,0,0,.09-.12,0s0,.13-.09.11l-.07-.14c-.11-.07-.12.07-.27.09a.24.24,0,0,1-.09-.28c0,.13,0,.09-.1.16a.17.17,0,0,1,0-.12c-.08,0,0,.05-.1.05a1,1,0,0,1,0,.28l0,0a.18.18,0,0,1-.21,0v0l-.07,0v-.07l-.12,0,0,0a.21.21,0,0,1-.16,0v0c-.15-.11-.25,0-.41.07v-.08c-.06-.07,0,.12-.07.09v-.09c-.05.12-.08,0-.12-.07l0,.12-.07,0c-.09,0-.06-.15-.05-.21l0,.09,0-.1c0,.12,0,0-.11,0s0-.07,0-.08l-.12.15.07-.07v.16c-.07.12-.1,0-.16,0l0-.05c-.09,0-.09,0-.14-.06s0,.07,0,.09,0,0,0-.07-.06.16-.12.12,0,0,0,0,0,0,0,0v-.11l0,.1s-.08.06-.08,0l0,0-.25,0v-.09c0,.13-.13,0-.12.11-.05-.08-.18.06-.16-.11-.16,0-.24.15-.44.06s-.25-.1-.38-.12-.4.1-.65.14c-.14-.22-.38.05-.53-.08l0,.08c-.1-.14-.28,0-.42-.13l-.07,0s0,0,0,.08-.13,0-.12-.11h0c0-.1-.13,0-.17-.05l0,.11-.08,0,0,0c-.38.22-.5-.15-.86,0,.06-.11-.07.06-.06-.07s-.16,0-.23,0,0,0,0,0l-.12,0c.1-.16-.1.13,0,0-.29-.17-.72-.1-1.07-.21v0c-.09,0-.22,0-.27-.07s-.17.09-.2.09-.13-.1-.1-.09-.19.15-.29.06-.34.09-.31-.07h0c-.13-.14-.3,0-.43-.11v0l-.42.41,0,.55.2.49.79.05.59.28,1.51.16.13-.11c.27.24.68,0,1,.22l0-.1c.09,0,.08.07.1.09a22.23,22.23,0,0,1,2.49.1c.07.07.3,0,.35.1a1.47,1.47,0,0,1,.76-.12h0l.11,0a0,0,0,0,1,0,0c.13-.1.34,0,.51,0h0c.94,0,1.79-.28,2.72-.22.44.13.91-.15,1.42-.07a2.87,2.87,0,0,0,1.16-.16"/><path class="cls-8" d="M48.83,48.2h0s0,0,0,0m-2.18-.93h0l0-.06Zm1.28-.2c-.06,0-.06,0,0,0s0,0,0,0m1.36,1s0,0,0,0h-.05l.06,0m-.21-.58v0a0,0,0,0,0,0,0M24.71,56.61h0s0,0,0,0m-.44-.13.18.06a1.8,1.8,0,0,1,.22.06.59.59,0,0,1-.26.06c-.1,0-.19-.07-.14-.18m.55.49-.23,0c.06,0,.09,0,.12,0a.14.14,0,0,0,.11,0m-.12-.2v-.08l.11.06-.11,0m2.4-7.42a.16.16,0,0,1-.12,0Zm.4-.33,0-.07a.13.13,0,0,1,0,.07m-.39.65V49.6s0,0,0,.07m-.64,3.93-.2.1c0-.13.11-.1.2-.1m2.13-6.4h-.07s.06,0,.07,0m0,1.77h-.09l0,0,.07,0Zm-1.41,1h0l0,0s0,0,0,0m1.37-3.31a.75.75,0,0,1,.13-.11.16.16,0,0,1-.13.11m-1,2.32h0m1,.6,0-.09a.08.08,0,0,1,0,.09M26.47,53.6l.06,0a.06.06,0,0,1-.06,0M25,56.32s.08,0,.11,0l-.11,0M22.41,40.77h0s0,0,0,0M23.83,42s0,0,0,.05,0,0,0-.05"/><path class="cls-8" d="M26.9,43h0v-.14h0l0,.14Zm-1.78-1.63c-.19,0,0-.17-.06-.25C25.22,41.08,25.06,41.24,25.12,41.33Zm2,2.63c-.13-.1-.13.15-.23.1l.05.06c-.18,0,.08-.15,0-.2l0,0c.13,0,0-.11.1-.18s.08.22,0,.19Zm-2-2.47c-.13,0-.11,0-.13-.09S25.14,41.42,25.16,41.49Zm1.47,1.91c-.07.06-.15-.06-.13-.11s0,.15,0,.22a.06.06,0,0,0,0,.05s0,0,0-.05.07-.06.11-.08h.05l0-.11Zm.44,1.31.11-.15-.07-.1a2.17,2.17,0,0,1,0,.25Zm.76,2.2c0,.06,0,.07-.08.09s0,.07,0,.11.06-.12.09-.2v0A0,0,0,0,1,27.83,46.91Zm-.17-.35c-.21.09,0,.26-.08.32a.33.33,0,0,1-.08-.2c0-.06,0-.12.16-.12Zm-1.78-3.49c-.05,0-.1.15,0,.19l-.17.08c.09-.08,0-.2,0-.22s.1,0,.22,0ZM23.4,40.8l0,.06s-.05.08-.06.12-.07-.17,0-.18Zm.49.7H24l0,0c-.05,0-.06,0-.06,0H23.8c-.09.08-.06.22-.08.29s0-.18-.08-.17,0,0,0,.08l-.09,0c0-.21.13-.18.25-.16s0,0,.07-.05,0,0,0,.06Zm-.57-.25c-.07.12-.18.26,0,.29s.06-.14.21-.23c0-.06-.1,0-.13-.05s.09,0,0,.1a.1.1,0,0,1-.12-.11.3.3,0,0,0,0-.11.15.15,0,0,0,0,.11Zm-.22.11.06,0,.06-.19-.12.16Zm.9.48c-.09,0,0,.16,0,.17v-.17Zm.13-.27,0-.06-.1.2Zm.84.78.06.19c-.18.12-.1-.12-.19-.16S24.9,42.38,25,42.35ZM26,43.64c-.08.07-.33,0-.22-.14.08.07.14.16.22.14Zm1.63,3.5,0-.16v.15Zm.2,1.28c-.41-.08-.29.23-.48.28.14,0,.35.1.34-.14.14.21-.26.13.08.26,0-.1.07-.23.09-.25v.12c.25-.07-.12-.18,0-.27Zm-.5,2.52h.12l-.13,0v0h0l.12-.23-.09.23Zm.08.08-.12.12.11,0-.24.18c-.06-.15.12-.26.25-.25Zm0,.28.06-.06a.17.17,0,0,1,.17,0c-.08.08-.12,0-.17,0Zm-.31,1.61.1,0,.07,0s0,0-.07,0a.12.12,0,0,0,0,.16c.07,0,.08-.07.14-.09.13.16-.44.25.05.33-.07,0-.24.14-.3.06a.66.66,0,0,0,0-.48.05.05,0,0,1,0,0Zm-.38,1.15.05.06,0,.05Zm-.46,1.26.07-.09.1.11Zm1.59-3.67c0-.08,0-.27,0-.24S27.9,51.62,27.83,51.65Zm.33-.89.05-.18c-.1,0-.07.12-.05.18Zm-.17,1,.09,0c0,.06-.06.06-.09,0l-.07,0C27.88,51.62,27.94,51.71,28,51.73Zm.29-1.27,0-.07c-.07-.09-.29-.14-.05-.21l.05.21a.06.06,0,0,1,0,.07Zm-.59.06c.12-.14.21-.13.42-.22.06.17-.21.17-.31.13s0,.09,0,.15l-.15-.06Zm.37.07c-.11.09-.26.26-.36.22a.27.27,0,0,0,.33-.14s0,0,0-.08Zm-.42-5.26-.09.07,0,0,0,.13c-.19-.08,0-.29,0-.38,0,.07-.15.34.1.2Zm.65,4.2c-.16,0-.15.2-.2.3a.23.23,0,0,0,.3-.18C28.52,49.51,28.19,49.58,28.29,49.53Zm.15-.51v0l-.1.11Zm-.27-2.88s0,.07,0,.1.14-.15.18-.1-.05.21-.16.24C28.28,46.23,27.93,46.23,28.17,46.14Zm-.84-2a0,0,0,0,1,0,0v0c0-.12-.17,0,0-.22C27.5,43.92,27.37,44.07,27.33,44.15ZM27,45.73s0,.09,0,.13h0l0-.13Zm.34,1.06-.13,0,.08-.07Zm-.14,7.38c-.09,0,0-.06,0-.09l-.07.12S27.2,54.19,27.21,54.17Zm1.26-7.65v.09s0,0,0,0v0S28.36,46.55,28.47,46.52Zm-2.19-4.36c-.17,0-.11-.28-.19-.38l0,.09,0-.14-.08.08c-.1-.19-.37-.28-.29-.46l-.11.15c0-.09,0-.18-.05-.26v.18a2.43,2.43,0,0,1-.41-.53l0,.07c-.06,0-.05-.06-.06-.1l0,.1c-.26-.26-.48-.13-.73-.47-.1,0,0,.07,0,.12s-.16-.12-.16-.17c-.08.15.09.21-.09.24,0-.12-.05.16-.15,0l.08-.21c-.1,0-.12.12-.22,0s.3-.08.11-.25-.5.25-.64,0c-.23,0-.08.34-.29.14l.07.22c-.07,0-.1.13-.18,0s0-.22,0-.26c.08.13,0,.15-.09.18s-.17.06-.12.21l-.07,0,0,0-.1,0c0,.07.17.17,0,.27l-.14,0a.32.32,0,0,1-.07.13l-.06.1a.17.17,0,0,0,0,.05l0,0,.07.1.13.22c0-.07,0-.15.05-.2s0,.17.16.15v-.11s0,0,0,0-.05,0,0-.09.15.06.14.14.14-.15.19-.17c-.05.21.22.15.24.28l0-.14c.19-.05.2.11.23.19l0-.1c.12.12.41-.11.27.27l0-.07c.08,0,.21,0,.19.16,0,0,.07-.07.1-.06s.06.1.16.15.11-.2.09-.29c.25,0,0,.26.07.35s0-.13.05-.2c0,.11.2.1.32.12s.22.05.13.23l-.15,0c0,.12,0,.15,0,.12s0,0,0-.08c.32,0,.08.48.3.61,0-.07,0-.11.08-.15s-.2.33,0,.37l0-.08c.08,0,0,.13,0,.13.13-.1.19,0,.26.06a.32.32,0,0,0,.39.1c-.09.18,0,.47.08.48s.12-.21.29-.27-.07.21.06.29c-.15.1-.45,0-.39.25l.09,0s-.07,0-.07-.07.12,0,.17,0a2.77,2.77,0,0,1,.1.26c-.15.12-.19,0-.24,0a1.18,1.18,0,0,0,.31.2.81.81,0,0,1,.14.12.2.2,0,0,1,.05.15l.05,0c0,.3.38,0,.21.29.09.07.16-.13.24,0s-.05.05-.08.06c0,.21.21,0,.13.24l.16-.12a1.69,1.69,0,0,1-.13.42c-.05.14-.06.26,0,.33s.09-.17.18-.25a.56.56,0,0,0,0,.46.62.62,0,0,1,.08.41c-.15,0-.27.18-.41.07.18-.09,0-.12,0-.2-.19.13-.11.23,0,.33s.18.19,0,.26H27s-.11.15-.17.1l.15.22c.1-.1.32-.34.15-.36.14-.11.12.08.3,0-.22.23.12.08.11.27a.24.24,0,0,0-.24.11c-.05.06-.09.13-.14.13s0,.19-.11.25.2.31.13.48a.46.46,0,0,1,.3-.18c-.08.09-.07.18.1.18.28-.32-.39-.06-.21-.34a.37.37,0,0,0,.25-.3.93.93,0,0,0,.29,0,.27.27,0,0,0-.15.34c0,.11.07.24,0,.35s-.36,0-.4.25a1.83,1.83,0,0,0-.13-.16c.12.18-.11.05-.15.2l.12-.07c0,.1,0,.13-.09.19l.2-.09c0,.06.06.15-.06.15a.3.3,0,0,0,.12,0s0,0,0,.1,0-.06.07-.06c0,.23.22,0,.2.2,0,0,.1,0,.12.08-.31,0-.37.27-.55.33h0c0,.06-.1.12-.15.18s.12,0,.14.07h0c0,.07.35,0,.24.14l-.1.09s.05,0,.08,0l-.1.09c.14.1.08.17,0,.23s-.17.13-.11.24c0-.06,0-.13.11-.08s0,.08-.07.1h0l-.26.31c.11,0,.16-.2.26-.09s0,.15-.07.21-.12-.16-.19-.05.09.15.16.11c-.11.11-.19.27-.36.34,0,0,.07,0,.08,0h0c.07-.06.21,0,.16-.12.27,0,0,.22,0,.35l.22-.15a.51.51,0,0,1,0,.59,2.63,2.63,0,0,0-.31.52c0-.12.05-.18-.16-.23-.15.18-.1.17-.2.35h0c.08.14-.17.22,0,.34s-.07-.18.16-.11l-.09.25c.16,0,.09-.25.15-.34s-.07.13-.21.05c.08-.23.24-.24.49-.3s.13.15.12.19a.51.51,0,0,0-.42.55l.13.18c-.2.07-.49-.08-.52.14l.14,0c0,.06,0,.1,0,.12l.39-.17c.22.21-.25.3-.36.46,0,0,.07-.06.14,0a.61.61,0,0,1-.25.35,1.28,1.28,0,0,0-.32.26c.08.13.14-.13.29,0-.11.07,0,.25-.18.21.24,0-.09.24.2.14-.08.42-.5.73-.84,1a.27.27,0,0,1,.14.11.74.74,0,0,1,.18-.17.38.38,0,0,1,.25-.07c0,.15-.25.11-.21.17s.13-.09.23,0-.16.13-.23.19l0-.07a.42.42,0,0,1-.33,0c-.08,0-.14,0-.2.11s.08.08.22.19c-.05,0-.08.08-.12.14s-.1.12-.19.07a.71.71,0,0,0,.12-.13l-.16.08a.27.27,0,0,1-.15,0s.06.06.09.06-.21.08-.3,0l.06.18c0-.1.14-.2.23-.13s-.13.17-.2.21a1.06,1.06,0,0,1,.41-.05.26.26,0,0,0,.28-.18h-.08a.27.27,0,0,1,.19-.21.7.7,0,0,0,.24-.15c0,.06.05.11.09.11a1.69,1.69,0,0,1,.11-.27c0-.08.09-.16.14-.24a2.14,2.14,0,0,0,.24-.53l.22,0-.13-.07c0-.21.2.05.24-.08,0,.05,0,0-.07,0,.24-.14-.07-.17,0-.26-.16,0-.15.2-.31.06.24-.13.29-.49.62-.39a3.92,3.92,0,0,1,.53-1.19c-.05-.06-.06,0-.1,0,.23-.07,0-.48.17-.43,0-.08-.15-.14-.19-.17a.53.53,0,0,0,.22-.25l-.06.06h0l.1-.09h0c.13-.25.15-.57.4-.77-.15.11-.2-.09-.28,0,.3-.06.37-.35.4-.6a.29.29,0,0,0-.15,0l.14-.12H28.3a.76.76,0,0,1,.17-.39c.08-.11.14-.23.08-.33,0,.11-.1.1-.2.1a1.84,1.84,0,0,1,.17-.59l-.06,0c0-.06.05-.13.09-.19l-.14,0c.07-.11,0-.26.12-.39-.15-.06.15-.34.08-.5s-.16.14-.16,0c.31,0,0-.22.34-.25L28.65,48l.17,0c-.33-.11.12-.21,0-.4,0,0,0,0-.07,0s0-.22.13-.12c0-.1,0-.47-.14-.28.09,0,0,.13,0,.2s-.11-.15-.27-.17l.05-.05h-.09A.47.47,0,0,0,28.5,47v-.14a.38.38,0,0,1,.08-.28s-.08,0-.09-.09l.18,0-.06-.21-.22.16c-.11-.2.13-.43.12-.63-.15,0-.16-.08-.16-.19s0-.24-.16-.27l0,.17a.56.56,0,0,0-.14-.3.44.44,0,0,1-.12-.3l.18.21a3.21,3.21,0,0,0,.31.26,1,1,0,0,1-.17-.47.59.59,0,0,0-.21-.43c-.06.05-.06.15-.16.11.11-.13-.14-.28,0-.32-.1-.06-.26,0-.31,0l0-.41,0,0a.84.84,0,0,1-.48-.69,2.77,2.77,0,0,0-.12-.41.7.7,0,0,0-.27-.34l-.06.06,0-.2c0,.15-.13,0-.2.09,0-.15,0-.28-.08-.42-.07,0-.2.19-.11.23Z"/><path class="cls-8" d="M24.14,42.14s-.05,0-.05,0a.1.1,0,0,1,.05,0m2.92,5.26a0,0,0,0,1,.06,0l-.06,0m0,.25h0v0Zm-2,8.5c-.12-.1,0,0,.06-.07s0,.11-.06.07m.42,0a.17.17,0,0,0-.14,0s.05,0,.14,0m-.26.14a.31.31,0,0,1,.12-.13s0,.11-.12.13m.8-.95c-.1,0-.12.12-.12.12.05-.24-.18,0-.24-.08.1-.1.2,0,.36,0m.2-.25a.14.14,0,0,0,0,.06,0,0,0,0,1,0-.06m0-.12c.05-.07.16,0,.25,0s-.16.11-.21.17.06-.1,0-.12m.39-2.54s0,.06-.09.05l0-.14c.05,0,0,.06.05.09m.41-.41c0-.1-.13-.09-.08-.13l.2.06-.12.07Zm1,.32,0,0,0,0Zm-1-.88-.23,0c.07-.08.25,0,.23,0M26.79,51l-.08,0,.11-.18Zm.21-.47,0,0,.08-.12Zm-.35-5.19a.1.1,0,0,1,.16,0c0,.05.06.12.09.14-.24.05,0-.2-.25-.18M24.34,42.2l.12.18c-.17-.06,0,0-.12-.18m33,14.4,0,0s-.06,0,0,0m.52,0a.43.43,0,0,1-.25.07.36.36,0,0,1-.24-.08,1.57,1.57,0,0,0,.25,0,.22.22,0,0,1,.24.06m-.46-.4.09.08s-.05,0-.05,0a.2.2,0,0,0,0-.08m0,.22,0,.08a.53.53,0,0,1-.06-.1l.08,0m-3.79-7a.16.16,0,0,1-.12,0Zm.36-.4A.45.45,0,0,0,54,49s0,0,0,.08m-.29.76,0-.07a.06.06,0,0,1,0,.07m1.31,4a1.65,1.65,0,0,0-.09.21c-.1-.1,0-.15.09-.21m.29-6.32-.07,0s.06,0,.07,0m-.2,1.43H55l0,0Zm-1.23,1.14h0l0,.07s0-.05,0-.07m1.6-3,.16,0a.15.15,0,0,1-.16,0"/><path class="cls-8" d="M54,49h0m1,.45,0-.08s0,.06,0,.08m0,4.4,0-.07a.11.11,0,0,1,0,.07m1.88,2.74s0-.07,0-.12a.49.49,0,0,1,0,.12M59.2,40h0s0,0,0,0m-1.78,1-.06,0s0,0,.06,0"/><path class="cls-8" d="M56.77,44.13l0,0,.11,0v0Zm1.17-1.7c0-.18.17,0,.24,0,0,.15-.14,0-.24,0ZM56,44.61c0-.14-.2,0-.21-.15l0,.07c-.06-.17.16,0,.17-.09v.06c.08.1.12,0,.2,0S56,44.66,56,44.61Zm1.76-2.16c0-.12,0-.1.09-.11S57.86,42.44,57.79,42.45ZM56.28,44c-.08,0,0-.15,0-.15-.11-.07-.15,0-.2.07a.05.05,0,0,0,0,0l0,0s.08,0,.12.07v0l.08-.06-.06,0Zm-.89.92h.18l0-.11ZM54.65,47c0,.06,0,.08-.11,0s0,.07,0,.09c-.08-.13.09-.08.16-.14a.06.06,0,0,1,0,0A.06.06,0,0,1,54.65,47Zm0-.37c-.23,0-.14.21-.21.25a.54.54,0,0,1,0-.22C54.46,46.59,54.52,46.56,54.64,46.63Zm1.71-3.4s-.17-.07-.19,0l-.11-.14c.09.07.19-.07.21-.08S56.31,43.11,56.35,43.23Zm2.39-2.3h-.07c-.05,0-.06-.07-.09-.1S58.75,40.83,58.74,40.93Zm-.82.29a.11.11,0,0,0,0,.08l0,0c0-.07,0-.07,0-.06l0-.1c-.06-.1-.2-.09-.27-.12s.18,0,.19-.06,0,0-.07,0l.07-.09c.19.06.13.17.08.28a.14.14,0,0,1,0,.09S58,41.22,57.92,41.22Zm.41-.51c-.1-.1-.2-.25-.29-.07.08.12.12.09.17.26.07,0,.07-.08.08-.11s0,.08-.11,0a.11.11,0,0,1,.15-.09s.06.07.09.07A.15.15,0,0,0,58.33,40.71Zm0-.25-.06.06.17.11-.11-.17Zm-.74.81c0-.09-.16,0-.17,0l.17,0Zm.24.17h.07l-.18-.12Zm-.85.79-.18.08c-.13-.18.11-.12.15-.2S56.92,42.16,57,42.23Zm-1.11,1.28c-.08,0-.1-.31.08-.25-.05.1-.12.19-.08.25Zm-1.45,3.63,0-.16-.06.14,0,0Zm-.08,1.29c-.4-.11-.28.22-.48.27.14,0,.34.1.34-.14.13.21-.26.13.07.26,0-.1.09-.23.1-.25v.12C54.6,48.63,54.23,48.51,54.31,48.43Zm0,2.59.11-.05-.1.07v0h0v0Zm.11,0-.06.17.09-.1-.15.27C54.22,51.28,54.33,51.1,54.46,51.05Zm.09.28s0-.07,0-.08a.17.17,0,0,1,.14-.1c0,.11-.11.06-.14.1a.13.13,0,0,0,0,.08Zm.52,1.55a.21.21,0,0,0,.1,0,.07.07,0,0,1,0-.05s0,0,0,.05a.12.12,0,0,0,.07.14c.06,0,0-.11.06-.15.19.06-.21.44.23.23,0,.06-.12.25-.22.22a.63.63,0,0,0-.24-.4s0,0-.06,0Zm1,2.27a1,1,0,0,1,0-.1l.15,0Zm-1-3.71a1.34,1.34,0,0,1-.09-.23C55.12,51.21,55.14,51.38,55.1,51.44ZM55,50.53v-.17C54.92,50.39,55,50.48,55,50.53Zm.26.91,0-.08c0,.06,0,.07,0,.08l-.05.06c-.1-.11,0-.06.05-.06ZM55,50.24l0-.05c-.1-.06-.33,0-.12-.17l.12.17A0,0,0,0,1,55,50.24Zm-.53.25c.06-.17.16-.19.32-.33.11.12-.14.21-.25.21s.06.07.09.12Zm.38-.07c-.08.11-.16.32-.26.33a.29.29,0,0,0,.25-.25S54.86,50.46,54.88,50.42Zm.45-4.71-.11,0v0l-.11.07c-.08-.19.21-.18.28-.23S55.05,45.63,55.33,45.71Zm-.52,3.73c-.15.06-.1.2-.13.3.14,0,.28-.1.25-.21s-.21,0-.12-.09Zm.1-.46,0,0-.09.1Zm.37-2.43s0,0,0,.07.19,0,.2,0-.14.12-.25.09C55.34,46.66,55,46.5,55.28,46.55Zm.7-1.69h0c.12,0,0-.17.16-.12s-.07.11-.15.12Zm-1.39.71-.1.08,0,0,.1-.08Zm-.33,1.12-.11-.08.11,0v.11Zm1.66,7.07c-.06.06,0,0-.06-.06l0,.12S55.92,53.78,55.92,53.76ZM55.38,47l0,.06s0,0,0,.05V47S55.27,46.93,55.38,47Zm1.91-3.47c0-.15.23-.12.31-.18l-.08,0,.12,0-.09-.08c.16-.09.22-.32.4-.23l-.15-.12.23,0-.16,0a1.18,1.18,0,0,1,.48-.3l-.06,0s.05,0,.09,0l-.09-.06c.26-.18.17-.42.52-.55.06-.08-.06,0-.1,0s.14-.11.19-.09c-.13-.12-.22,0-.2-.16.11,0-.14-.09,0-.15l.18.14c0-.08-.09-.15,0-.2s0,.29.21.19-.08-.55.17-.58c.11-.2-.26-.22,0-.32l-.23,0c0-.07-.07-.15.06-.18s.19.11.26.08c-.16,0-.14-.08-.12-.17s0-.19-.13-.21l.09,0a0,0,0,0,1,0,0l.11-.08c-.1,0-.27.09-.28-.1l.16-.13a.21.21,0,0,1-.08-.12.18.18,0,0,0,0-.12l-.09,0h-.08l-.16,0-.31.06c.06.05.15,0,.17.12s-.18,0-.25.12l.11,0s0,0,0,0,.06,0,.09,0-.13.14-.22.1.09.19.08.25c-.19-.12-.24.17-.38.16l.13.07c0,.2-.19.17-.28.18l.09.07c-.16.1,0,.43-.36.23l.06,0c0,.08-.07.21-.2.17a.16.16,0,0,1,0,.12c-.13-.08-.12.05-.18.15s.19.13.27.12c0,.25-.25-.06-.36,0s.13,0,.19.07c-.11,0-.12.19-.15.31s0,.22-.24.13v-.15c-.12,0-.16,0-.12.06s0,0,.07,0c0,.33-.49.11-.62.36.07,0,.11,0,.15.06s-.35-.15-.37.1l.08,0c0,.09-.13,0-.14,0s0,.19,0,.29a.31.31,0,0,0,0,.41c-.2,0-.48.11-.45.24s.24,0,.36.18c0,.07-.23,0-.26.17-.15-.1-.14-.44-.38-.27l.06.08s0-.08,0-.1.08.11.11.15l-.21.21c-.17-.08,0-.21-.07-.25a1.29,1.29,0,0,0-.06.4.9.9,0,0,1,0,.19.31.31,0,0,1-.11.14l.07,0c-.27.16.23.3-.14.35,0,.12.2.05.14.21s-.07,0-.09,0c-.15.16.12.16-.12.26l.2,0c-.11.07-.26.13-.4.2s-.24.15-.23.27.18-.08.31-.09a.55.55,0,0,0-.29.38c0,.16-.06.32-.17.42-.1-.11-.33,0-.39-.15.21,0,.1-.1.15-.18-.23,0-.22.17-.2.32s.06.29-.13.27l.14.07s-.16.12-.2,0l0,.3c.14-.08.44-.23.29-.33.18,0,.09.14.29.11-.29.13.08.13,0,.31a.22.22,0,0,0-.26,0c-.07,0-.13.1-.18.09s-.09.2-.18.25.12.4,0,.57a.4.4,0,0,1,.32-.14c-.09.08-.1.18.07.2.32-.28-.38-.13-.16-.4a.41.41,0,0,0,.33-.25c.1.08.15.06.28.1-.21.06-.24.17-.23.29s0,.25-.07.36-.38,0-.42.23a2.25,2.25,0,0,1-.12-.21c.1.23-.12.05-.17.23l.13-.07a.17.17,0,0,1-.09.21l.2-.09c0,.06.05.17-.07.17a.3.3,0,0,0,.12,0s-.06,0-.05.11,0-.07.07-.07c0,.26.21.06.2.22,0,0,.11,0,.13.07-.31,0-.34.32-.51.42h0l-.11.24s.11,0,.15.05h0c.06.06.33-.12.27.09l-.08.12s.06,0,.08,0l-.07.13c.15.06.13.14.08.24s-.1.19,0,.28c0-.06,0-.15.08-.13s0,.1,0,.14l0,0-.12.41c.1-.05.06-.26.2-.19s0,.16,0,.23-.18-.1-.2,0,.15.1.2,0a1.67,1.67,0,0,1-.18.48s.06,0,.07-.06h0c0-.09.21-.06.09-.19.26-.07.12.19.19.31l.13-.24a.51.51,0,0,1,.26.54,3,3,0,0,0,0,.6c-.11-.07,0-.18-.26-.11,0,.24,0,.2,0,.42v0c.13.08,0,.29.18.31s-.15-.13.07-.2a2.68,2.68,0,0,0,.07.27c.1-.12-.07-.27-.06-.38s0,.16-.15.17c-.07-.25.06-.35.25-.53s.19.06.2.1a.51.51,0,0,0,0,.7l.22.07c-.12.17-.44.22-.33.43l.1-.11a.22.22,0,0,1,.1.08c.06-.12.13-.26.2-.37.3,0,0,.38,0,.58,0,0,0-.08.08-.13a.59.59,0,0,1,0,.44,1.59,1.59,0,0,0,0,.42c.15,0,0-.2.18-.23,0,.14.18.19,0,.29.2-.15.13.23.24-.06a4.05,4.05,0,0,1,.42,1.23.29.29,0,0,1,.14-.11.44.44,0,0,1-.09-.22.38.38,0,0,1,0-.25c.15,0,0,.27.05.25s0-.15.08-.21,0,.17.07.25h-.07a.64.64,0,0,1-.09.32c0,.08,0,.14.08.23s.09-.08.22-.2c0,.05.06.07.12.11s.11.07.07.16l-.13-.09a.75.75,0,0,0,.09.15.57.57,0,0,1,.08.13s0-.07,0-.1.15.15.14.28l.11-.16c-.09.06-.25,0-.2-.13s.17,0,.24.06a.38.38,0,0,1-.14-.29c0-.1,0-.16-.14-.2V56c-.11,0-.15-.07-.17-.16s0-.18-.06-.23a.13.13,0,0,0,.13-.06.49.49,0,0,1-.18-.14.79.79,0,0,1-.14-.18,2.62,2.62,0,0,0-.28-.43l.12-.18-.13.06c-.13-.13.17-.12.11-.22s0,0,0,.07c.07-.25-.17-.05-.17-.17-.12.11,0,.22-.16.26.06-.26-.15-.52.16-.68-.27-.3-.21-.83-.28-1.14-.07,0,0,0-.09,0,.15-.18-.25-.37-.08-.42a.47.47,0,0,0-.25,0,.62.62,0,0,0,.07-.32l0,.08h0l0-.12h0a1.67,1.67,0,0,1,0-.83c-.08.16-.21,0-.27.09a.57.57,0,0,0,.12-.69.33.33,0,0,0-.15,0l.09-.15-.07,0a.57.57,0,0,1,0-.36c0-.12.07-.22,0-.29,0,.1-.08.11-.17.13a1.4,1.4,0,0,1,0-.53.05.05,0,0,1-.05,0s0-.12.07-.17H54.9c.06-.1,0-.23.09-.35s-.05,0,0-.07a.21.21,0,0,1,0-.11c0-.08.11-.17.07-.24s-.16.11-.15,0c.31,0,0-.19.35-.19l-.11-.13h.16c-.3-.13.15-.15.07-.31,0,0,0,0-.07,0s.08-.15.15-.06c0-.08.12-.34-.07-.24.1,0,0,.1,0,.15s-.07-.14-.22-.2l.07,0-.08,0a.44.44,0,0,0,.09-.11.47.47,0,0,0,.05-.1.28.28,0,0,1,.18-.17.07.07,0,0,1-.05-.1l.18,0,0-.16h-.27c0-.19.32-.23.4-.36-.14-.06-.08-.12,0-.19s.12-.14,0-.25l-.11.08a.6.6,0,0,0,.07-.26.29.29,0,0,1,.1-.23,1.57,1.57,0,0,1,0,.22.94.94,0,0,0,.09.33.44.44,0,0,1,.15-.35.44.44,0,0,0,.13-.34c-.07,0-.14,0-.18-.06.16,0,.1-.23.25-.11,0-.1-.16-.19-.16-.25L56.4,45h0a.52.52,0,0,1,.33-.59c.1-.07.21-.12.3-.19a.62.62,0,0,0,.21-.27l-.08-.06h.18c-.13,0-.07-.11-.13-.16l.36-.1c-.06-.06-.21-.17-.24-.09Z"/><path class="cls-8" d="M57.22,41.39a.11.11,0,0,1,.06-.06.17.17,0,0,1-.06.06m-3.48,5.8a.09.09,0,0,1,.06,0s0,0-.06,0m-.11.28h0Zm3.07,9.16c0,.17-.07,0-.11-.05s.13,0,.11.05m-.13-.45a.2.2,0,0,0,0,.15s0-.06,0-.15m.18.26a.41.41,0,0,1-.16-.11s.11,0,.16.11m-.81-1a.14.14,0,0,0,.05.17c-.21-.17-.12.13-.17.19-.06-.15,0-.22.12-.36m-.11-.31a.1.1,0,0,0,0,0,.05.05,0,0,1,0,0m-.13,0c0-.09.07-.16.12-.23s0,.19,0,.27,0-.11-.13,0m-1.4-2.29s0,.06,0,.08l0-.14c0-.06.07,0,.09.06m.14-.59c0-.11-.15,0-.13-.08l.2,0Zm1-.2v0Zm-1.33-.28-.2.13c0-.11.2-.15.2-.13m-.25-.39,0,.08,0-.22Zm0-.54h0l0-.16ZM54.64,45c.09,0,.09.09.08.15a.45.45,0,0,0,0,.17c-.2-.13.14-.14,0-.32m2.49-3.4-.19.12c.07-.17,0,0,.19-.12"/></g></g></svg>