<svg xmlns="http://www.w3.org/2000/svg" viewBox="0 0 168.1 84.05">
  <defs>
    <style>
      .cls-10,.cls-2,.cls-3,.cls-4,.cls-5,.cls-6,.cls-8,.cls-9{fill-rule:evenodd}.cls-2{fill:#dec0a9}.cls-3{fill:#fff}.cls-4{fill:#937c77}.cls-5{fill:#e1d5cb}.cls-6{fill:#c2aa9e}.cls-8{fill:#c18966}.cls-9{fill:#221e1f}.cls-10{fill:#f6dfd0}
    </style>
  </defs>
  <g id="레이어_2" data-name="레이어 2">
    <g id="레이어_1-2" data-name="레이어 1">
      <path d="M84 42.05a42 42 0 11-42-42 42 42 0 0142 42" fill-rule="evenodd" fill="#efe5dc"/>
      <path class="cls-2" d="M15.42 44.75a.55.55 0 00-.18.45c.51-.71-.16.2.18-.45m2.2-2.66l.06-.09s-.07.07-.06.09"/>
      <path class="cls-3" d="M68.48 58.9l.15-.32a1 1 0 01-.14.3m-.94 1.49h-.05a4 4 0 00.26-.32v.05l-.17.26m-8.78 3.74h.31-.27m-8.1.36c-.06 0-.08-.06-.07-.09h.21a.21.21 0 00-.14.09M18.06 42l-.21.21a1.3 1.3 0 01.21-.22m1.7-1.38l-.43.32a1.92 1.92 0 01.43-.32m.45 25.28c2.75.17 5.68.05 8.68.17 1.44-.08 3.33-.19 4.66-.14 5.59-.18 11.21.09 16.91-.21-.3 0 0-.16.3-.2l.08.06.44-.14c.43 0 .25.14-.11.17 1.14 0 2.21-.06 3.28-.09h1.61l1.67-.07c.07-.09.36-.12.65-.14s.57-.06.6-.16 0 0 0 .09c.78-.13 1.2-.22 1.61-.26.21 0 .41 0 .65-.06H62.15a11.13 11.13 0 001.17-.3 12.15 12.15 0 001.16-.39c.38-.16.75-.33 1.12-.53a10.51 10.51 0 001.07-.65l.26-.19.25-.19c.16-.14.33-.27.48-.42a9 9 0 002.2-3.07 11.36 11.36 0 00.77-2.33 16.21 16.21 0 00.35-2.36A20.43 20.43 0 0071 52v-2.3c0-.39-.09-.77-.14-1.16s-.12-.76-.18-1.14c-.14-.76-.29-1.52-.48-2.27a38.1 38.1 0 00-1.4-4.4 38.28 38.28 0 00-4.44-8.17 5.81 5.81 0 01-.58-.54l-.57-.65-.3-.34c-.1-.11-.2-.22-.31-.32l-.31-.31-.34-.28h.11l-.44-.44a3.79 3.79 0 01-.31-.39l-.32-.46c-.13-.17-.27-.37-.46-.61-.09.06-.36-.32-.36-.07a1 1 0 01-.4-.48 1.5 1.5 0 00-.47-.6c0-.06-.06.09-.12 0l-.36-.26-.17-.13v-.07c0-.02.06-.06 0-.18a1.55 1.55 0 00-.18-.26 4.87 4.87 0 00-.41-.43l-.07-.06-.08-.05h-.08c0-.06.07-.12.1-.19v-.05L57.8 25c.07-.16.14-.31.2-.46l.09-.23.08-.24c0-.15.09-.31.13-.47a7.58 7.58 0 00.18-1 8.54 8.54 0 000-1.89 10.17 10.17 0 00-.29-1.71c0 .14-.07.21-.15 0a.39.39 0 000-.3 1.53 1.53 0 00-.16-.35l-.11-.18-.09-.17a1.54 1.54 0 01-.16-.38c.07 0 .2.22.27.34a5.73 5.73 0 00-.92-1.65c-.18-.25-.39-.47-.59-.7l-.28-.38-.29-.31-.17-.13-.39-.29-.2-.16-.2-.14-.4-.29-.4-.26-.38-.22a2.49 2.49 0 00-.7-.27c.1 0 0-.09-.18-.17l-.27-.13-.23-.11a3.27 3.27 0 01-.73-.1 3 3 0 01-.4-.12l-.42-.12a4.53 4.53 0 00-1.71-.25v-.05a15.73 15.73 0 00-2.38 0h-.6l-.61.07-.6.09-.61.12a13.4 13.4 0 00-2.36.73 10.76 10.76 0 00-2.19 1.18c-.38.26-.79.52-1.18.83-.2.15-.39.31-.58.47l-.29.26-.28.27-.27.29-.26.31-.12.15-.12.17-.23.33-.2.34-.1.18-.08.18c-.06.12-.12.24-.17.37l-.13.37c-.06.19 0 .22 0 .24v.19c-.18.49-.1-.05-.2.14-.1.52-.26 1.1-.35 1.74a7.16 7.16 0 00-.05 2c.08.15.16.52.22.37 0 .19 0 .39.07.59s.11.4.18.6a5.63 5.63 0 00.6 1.17 8.24 8.24 0 00.79 1c.27.32.55.62.8.89-.05-.14 0-.18 0-.16a1.11 1.11 0 01.31.21 5.43 5.43 0 00.86.6c.13.1.18.17.18.21s0 0-.07 0c.4.25.73.42 1.06.6s.83.44 1.45.75a11.76 11.76 0 011.36.37.92.92 0 00.35.22l.24.09h.4a.42.42 0 01.15.07.27.27 0 01.14-.08h.2a.47.47 0 010 .19 1.59 1.59 0 01-.12.27.92.92 0 00-.23-.09v.45c-.08.29-.15.6-.22.91a13.94 13.94 0 00-.3 2 11.12 11.12 0 000 2.08 8.66 8.66 0 00.43 1.95l-.1.22a18.09 18.09 0 001.16 3l-.13-.1-.16-.12-.33-.25c-.21-.16-.42-.33-.64-.47a4.17 4.17 0 00-1.3-.65v-.12l-.68-.27-.75-.3-.38-.17-.38-.17a5.6 5.6 0 01-.69-.37c-.3 0-1.24-.34-.87 0-.37-.12-.16-.29-.58-.3h.42l-.78-.29-.37-.13-.38-.12-.75-.22-.75-.17-.38.07-.38-.07-.76-.12-.77-.08c-.26 0-.53-.06-.8-.07a2.44 2.44 0 00-.59-.14h-2.68a4.84 4.84 0 01-.62.09l-.69.09a2.74 2.74 0 00-1.14.35l-.06-.12c-.47.09-1 .21-1.6.36s-1.19.35-1.79.55-.62.43-1.11.72L22 38.9c-.14.09-.24.17-.33.24a1.74 1.74 0 00-.19.22c-.08.12-.13.22-.19.31l-.29.13c-.27.13-.33.22-.71.38.18-.16.34-.32.48-.47a4.82 4.82 0 00.36-.46 4 4 0 00-.93.66l-.39.31a1.09 1.09 0 01-.38.18 4.17 4.17 0 00-.38.27 2.63 2.63 0 00-.29.25c-.14.14-.21.26-.2.34s-.33.18-.15-.06l-.27.25-.22.22-.18.21-.08.12c.07-.07.18-.14.25-.22a.93.93 0 01-.1.2l-.12.2c-.05.09-.08.17-.05.21l-.41.45c-.1-.05.24-.54 0-.34l-.17.31-.16.32c-.06.11-.11.22-.16.33a35.86 35.86 0 00-2.4 3.34 15 15 0 00-.56 15.09c1.51 3.09 3.71 3.83 6.46 4"/>
      <path class="cls-2" d="M58.19 19v-.05.05m-2.55-4.12l.23.15a1.08 1.08 0 00-.26-.18M38.88 28.71H39l-.33-.21zM16.26 44c.13-.41-.21 0-.38 0 0 .1.28-.06.38 0"/>
      <path class="cls-4" d="M28.19 46.69s-.05 0 0 0m-.1-.24zm0-.09s-.07-.11-.06-.15 0 .08 0 .13h.05zM28.09 45.94h-.05M28 46c0 .06.08 0 .05 0s0 .05-.05 0m-.05.23v-.05zm0-.47zm0 .18L28 46h-.08zm0-.36zm0-.13h-.09a.07.07 0 010 .07h.05m0 .17v-.05m-.05.23h0m0-.09zm0 0zm-.05-.2h-.06v.06m-.2-.18zm.21.24M27.65 45.43a.11.11 0 010-.08h-.06v.06zm0 .11h.08c.03 0 0 0 0-.06v-.05h-.07l.05.05h-.1m.15.33v-.09a.27.27 0 00-.07.08m-.08-.17a.09.09 0 000 .05m0-.38h-.07zm-.08 0zm-2-.07s-.1-.05-.07 0m1.1-.28h0M26.1 48.25z"/>
      <path class="cls-4" d="M27 45.24c-.05 0-.06-.05-.09-.06h-.06s.05 0 .1.06a.94.94 0 00-.29-.06c0-.06 0-.12.12-.14s0 .06 0 .05.14-.12.21 0 0 .1 0 .14m-.86 0a.64.64 0 010-.15.32.32 0 01.13.08h-.1m-.32.13a.27.27 0 010-.18v-.06.17s-.05 0-.07.05m-.71 1H25a.25.25 0 000-.07h.11m3 .56h-.06l.07-.09c-.06 0 0-.1-.06-.11s-.09 0-.15 0a.29.29 0 000-.09 1.53 1.53 0 00-.56-1.17h.06c-.01 0 .12-.11.14-.19s0 0-.06 0 0 .09 0 .1v-.07c0-.07-.09 0-.12.08a1.65 1.65 0 00-.27-.19c0-.05.07 0 .05-.06s.11 0 .14 0v.06s0 .11.09.06v-.06h.15c.02 0 0 0 0-.08 0 .09-.1-.08-.11 0v-.15c0-.08 0 0 0 0h-.12c-.03 0 0 0 0 0v-.09h-.05A.11.11 0 0027 45s-.07 0 0 0h-.25a.09.09 0 00-.06 0 .11.11 0 01-.09 0 .16.16 0 01-.1 0h-.37a.37.37 0 00-.13 0c0 .05-.12 0-.18 0h-.12c-.03 0-.06.08-.11.07s0 0 0 .05c-.06 0 0 .06-.1 0s-.06.1 0 .16-.05 0-.05.05v.1a.08.08 0 01-.09-.06v.23c0-.01-.13.2-.25.3.12 0-.07 0 0 .08s0 0-.06 0-.08.09 0 .15h-.06s.06.1.14.12 0 0 0 .08-.05 0-.06 0-.05.14 0 .15a.34.34 0 000 .1c.08 0 0 0 0 .08-.05.1 0 0 0 .14.1 0 0 .09 0 .14s-.11.11-.12.15.06 0 .09 0h-.08c.01 0 .14.08.1.16s0 0 .07 0 0 .15 0 .14.08.07.13.07 0 .09 0 .11.09 0 0 .09l.07.07c0 .06.08 0 .12 0 0 .09.06.09.17.08s0 0 .06.07a.16.16 0 00.12.08c.06 0 .1.06.15.1s.09.06.13 0h.08c-.08 0 0-.07 0-.11s.06.08 0 .08.08 0 .07.11a2.24 2.24 0 00.51.07v-.07h.06s.06 0 .06-.06v.09s0-.06.06-.07H27s.06 0 0-.07a.15.15 0 00.17 0c.06 0 .11-.06.13 0a.18.18 0 01.1-.11s-.06-.05 0-.07.1 0 .19 0 0 0 0-.06v-.07c0-.01 0 0 .08 0s.06-.07.1-.11a.23.23 0 00.12-.12l-.05-.05h.11s-.07-.07 0-.07a.52.52 0 00.16-.3 1.15 1.15 0 01.06-.17.59.59 0 01.1-.16M27.52 45.59zm-.14-.27M27.4 45.37zm-.18-.3s-.1 0 0 0m0 .35zM26.15 45.24v-.09zm2 1.56zm-.08-.07h.07-.06m12.06 0s-.06 0 0 0m-.1-.24zm0-.09s-.08-.11-.07-.15 0 .08 0 .13zM40.04 45.98h-.06m-.06.05c0 .06.08 0 0 0s0 .05 0 0m-.06.23v-.05zm0-.47h-.05zm0 .18L40 46h-.07zm0-.36zm0-.13h-.09v.07c0 .07 0 0 0 0m0 .17v-.05m0 .23h0m0-.09zm0 0zm0-.2h-.06v.06m-.21-.18zm.22.24M39.62 45.43a.17.17 0 010-.08h-.05l.05.06zm0 .11h.08c.08 0 0 0 0-.06a.09.09 0 010-.05h-.07v.05h-.1m.15.33a.15.15 0 010-.09.27.27 0 00-.07.08m-.09-.17h-.05v.05m0-.38h-.07zm-.08 0zm-2-.07s-.11-.05-.08 0m1.11-.28h.07-.07m.64.17"/>
      <path class="cls-4" d="M39 45.24s0-.05-.08-.06h-.07a.21.21 0 00.1.06.88.88 0 00-.28-.06c0-.06 0-.12.11-.14s0 .06 0 .05.13-.12.21 0 0 .1-.05.14m-.85 0a.35.35 0 010-.15s.1 0 .12.08h-.1m-.33.13a.34.34 0 010-.18v-.06.17l-.07.05m-.7 1h-.06a.14.14 0 010-.07.07.07 0 01.06 0m3 .56h-.07l.08-.09c-.07 0 0-.1-.06-.11a.16.16 0 00-.15 0v-.09a1.53 1.53 0 00-.56-1.17h.06s.12-.11.14-.19 0 0-.07 0 0 .09 0 .1v-.07c0-.07-.09 0-.13.08h.05a1.24 1.24 0 00-.26-.19c0-.05.07 0 0-.06s.1 0 .14 0v.06s0 .11.09.06v-.06h.15c.03 0 0 0 0-.08 0 .09-.1-.08-.11 0v-.15c0-.08 0 0 0 0h-.13c-.03 0 0 0 0 0v-.09A.11.11 0 0039 45s-.08 0 0 0h-.3a.11.11 0 01-.09 0 .16.16 0 01-.1 0h-.37a.56.56 0 00-.14 0c0 .05-.12 0-.19 0h-.13c-.03 0 0 .08-.1.07s0 0 0 .05 0 .06-.09 0-.07.1 0 .16 0 0 0 .05h-.05v.1s-.08 0-.09-.06 0 .06 0 .16v.07c0-.01-.14.2-.25.3.12 0-.07 0 0 .08s0 0-.06 0-.08.09 0 .15.07.1.15.12-.05 0 0 .08-.05 0-.06 0-.06.14 0 .15a.34.34 0 000 .1c.07 0 0 0 0 .08v.14H37c.1 0-.05.09 0 .14s-.12.11-.12.15.07 0 .09 0h-.08s.14.08.1.16 0 0 .07 0 0 .15 0 .14.08.07.13.07 0 .09 0 .11.08 0 0 .09l.08.07a.09.09 0 00.12 0s.06.09.17.08 0 0 .06.07.06.08.12.08.1.06.14.1.09.06.14 0h.08c-.08 0 0-.07 0-.11s.06.07 0 .08.09 0 .08.11a2.24 2.24 0 00.51.07v-.07h.06s.07 0 .06-.06 0 .09 0 .09 0-.06.07-.07H39s.06 0 0-.07.1 0 .16 0 .11-.06.13 0a.22.22 0 01.1-.11v-.07c0-.02.09 0 .18 0s0 0 0-.06v-.07c0-.01 0 0 .08 0s.06-.07.11-.11a.34.34 0 00.12-.12v-.05h.1s-.07-.07 0-.07a.59.59 0 00.16-.3 1.09 1.09 0 01.05-.17 1 1 0 01.1-.16M38.08 48.25zM39.5 45.59zm-.15-.27M39.2 45.07s-.11 0 0 0m0 .26h-.05m0 .09zM38.08 45.24v-.09zm2 1.56zm-.07-.07h.07-.06"/>
      <path class="cls-5" d="M39.47 59.88l.21-.15-.27.11zM42 58.09a3.37 3.37 0 01-.19.38c-.05 0-.12 0-.21.1l-.13.1-.13.13.21-.17v.13l-.22.15-.16.13a1 1 0 01-.4.19l-.12.1-.12.09c-.1 0-.08 0-.06-.06a2.23 2.23 0 01-.74.4.75.75 0 00.52-.17l.25-.15a.61.61 0 01.25-.06 1.4 1.4 0 01.24-.15l.26-.14.25-.15a1 1 0 00.22-.19 1.4 1.4 0 00.12-.18 2.14 2.14 0 00.13-.19c.06-.14.1-.25.05-.29m-2.54-5.23s.06 0 .09-.06z"/>
      <path class="cls-5" d="M42.19 54.82l-.06-.14s0-.13.13 0 0 0 0 .07l.07.06c0 .08-.09 0-.14 0zm-1-1.25a.84.84 0 01.35.18c.15.11.29.23.38.21s.18.24-.08.07a.51.51 0 01.19.37 1.17 1.17 0 000 .23 3.12 3.12 0 00-.87-1.06zm-.19-.18a.24.24 0 01.16.09l-.18-.1zm-.2-.1a2 2 0 00-1.4-.11l-.43.13a2.5 2.5 0 00.25-.09l.15-.07h.37a.93.93 0 01.23 0 1.49 1.49 0 01.52 0l.46.08a.32.32 0 01-.2.06zm-2.47.17c-.11-.05-.41 0-.21-.1.26 0 .19-.12.5-.08a.46.46 0 00-.18.16h.33l-.48.11zm-.13 0H38s.08-.05.2-.06zm-1 .16a1.51 1.51 0 01.56-.08zm-5.58.25h-.28.06a1.71 1.71 0 01.32 0c-.12-.01-.14 0-.15.02zm-2.23-.09h-.13.13v.06zm13.43 1.83a4.9 4.9 0 00-.47-1.31l.09.06-.24-.18a1 1 0 00-.21-.44.76.76 0 00-.41-.33 4.19 4.19 0 00-.5-.39 1.91 1.91 0 00-.71-.29c-.11.06-.28 0-.46 0a.7.7 0 00-.25 0h-.08c-.08 0 0 .07 0 .11a1.33 1.33 0 00-.19.14h-.09l-.1-.08h.19l-.08-.09a.31.31 0 00-.1.08.18.18 0 01-.07 0l-.15.08a1.35 1.35 0 01-.33 0h-.3a.38.38 0 00-.24.11c-.21 0-.33.14-.48.2s.08-.1.15-.15a9.89 9.89 0 01-1.39.2c-.13.09.07.09-.08.16s-.22-.06-.07-.11c-.36-.1-1.16.18-1.71.08-.29.09-.11.12-.55.19.1-.06-.11-.18.15-.2v-.06a2.9 2.9 0 00-1.25.16c0-.12-.08 0-.25-.09-.17.11-.25 0-.36 0l-.32.07c-.05 0-.13 0-.14-.08v.09c-.17 0-.08-.11-.29-.09v.06c-.13 0-.35 0-.37-.05s0 0 .06 0c-.2-.13-.54 0-.8 0l.07.14c-.26 0-.16 0-.15-.08-.16 0-.2-.05-.42-.08s-.06.05-.1.09l-.22-.05.15-.06c-.36.18-.86-.09-1.11.07-.12-.06.13-.07.05-.1a1.91 1.91 0 00-.64-.07 1.52 1.52 0 01-.59-.1 4.32 4.32 0 00-.76-.22l-.47-.1-.23-.08-.25-.06a4 4 0 00-.5-.08 1 1 0 01-.32.09h-.19l-.16.08v-.1c-.21.07-.42.19-.55.21l.05-.06a2.19 2.19 0 00-.67.43 1.39 1.39 0 00-.37.49c-.09.13-.14.09-.2.1a1.47 1.47 0 00-.23.64l-.13.15.05.13c-.05.1-.08 0-.13.08a4.35 4.35 0 01-.1.63 3.31 3.31 0 00-.08.55c0 .12 0 .35-.08.21a1.73 1.73 0 000 .4 2.3 2.3 0 00.1.35c.1.23.2.49.38.84-.06.09.06.24.16.39s.24.27.22.37a1.45 1.45 0 01.18.16l.15.13a.62.62 0 00.32.17 1.52 1.52 0 00.79.41v.06c.15 0 .66.17.81.07s-.07 0-.12 0a.22.22 0 00.22.08.64.64 0 01.27 0v.08l.13.05h.13l.28.07.63.1c.43.06.91.11 1.35.2.25 0-.08-.13.24-.09.09.07-.17.1 0 .15a.66.66 0 01.4 0s0 .07-.15.08c.11.07.5 0 .72.06 0 0 0-.06.08-.08.34-.08.76.14.79.08s.12 0 0 0c.12 0 .3 0 .27.09a.56.56 0 01.22-.09l-.06.07c.06 0 .12-.06.18-.06h-.09c.14.06.42-.08.41.05l.26.07a.65.65 0 01.39-.09c.07.14.45 0 .67.05.18-.07.63 0 .55-.07.17 0 .4 0 .31.07.14 0 .44 0 .51-.11l.28.11c.16-.17.56 0 .57-.14.16 0 .12.06.23.09a1.5 1.5 0 01.66-.1c.23 0 .49-.11.8-.14l.08.13c.16 0 .19-.15.35-.13a1.12 1.12 0 01.48 0c.23-.13.41-.11.61-.25.2.09-.27.09-.1.18a2.69 2.69 0 001.05-.23v.08a2.63 2.63 0 00.32-.25c.14-.12.23-.24.19-.3 1.75-.53 3.21-1.45 3.21-3.23a4 4 0 00-.23-1.27 1.26 1.26 0 01.2.42v-.06.37a1.9 1.9 0 01.09.29.65.65 0 010 .18h-.06a1 1 0 01.09.65 1.61 1.61 0 010 .22.91.91 0 010 .23c-.14.19 0-.32-.14.12l-.07-.16a1.45 1.45 0 01-.06.19l-.06.11-.06.1a.67.67 0 00-.06.12.18.18 0 00.07 0h.05a.55.55 0 00-.14.12.35.35 0 00-.06.14 3.32 3.32 0 01-.12.32c.08-.1.14-.16.14-.27s.08 0 .13-.07a1.33 1.33 0 01.05-.19h.09l.05-.16v-.07.03c.08.06.13-.27.17-.12a.83.83 0 000-.15v-.14a.44.44 0 000-.28c.08-.15 0 .26.06.09a4 4 0 000-.69c0-.23 0-.46-.09-.68z"/>
      <path class="cls-6" d="M14.89 45.35c-.08 0 0 .06 0 .11.16-.11-.05 0 0-.11M17.48 43.72a.11.11 0 000-.08v.08m6-6.6h.05zm-6 6.52s.19 0 .14-.06.1.13.15.1a.38.38 0 00-.37-.15.23.23 0 01.12.12M32.2 38z"/>
      <path class="cls-6" d="M43.91 40.29h.18c-.06 0-.18 0-.24.08l-.11-.07zm0 .13l-.09-.06c.11 0 0 .06.2 0h-.11zm.1.08h.11zm3.34 3.37a8.34 8.34 0 01-.71-1.1 2.23 2.23 0 01-.76-.58 8.24 8.24 0 01-.65-.55c-.11-.1-.21-.2-.31-.31l-.12-.12a1 1 0 01.27-.51c-.07-.07-.17-.15-.1-.25a.72.72 0 01.06-.49c0-.17.09-.33 0-.47a.44.44 0 01-.22 0h.07-.15.19c.02 0-.09-.23-.07-.36-.21 0 0-.06-.24 0h.09c-.12-.07-.13-.07.13-.19a.86.86 0 000-.5 1.55 1.55 0 010-.48 2.19 2.19 0 00-.17-.49 4.32 4.32 0 01-.16-.51c-.34 0-.18-.12-.48-.19h.11c-.16-.06 0-.07.16-.14h-.23c-.23 0 .28 0 .19-.07h-.06c-.24-.09.11 0 .31-.09-.07-.15-.28-.32-.14-.47h-.15c.32 0-.09 0 0-.07h.12c.14-.06-.06-.13.09-.19-.23-.08.13-.13 0-.19h.16c-.38-.08.15-.11-.11-.19h.07c0-.17.1-.33 0-.52s.32-.16.17-.29-.14 0-.17-.05.12 0 .17 0c-.15-.08.05-.11.06-.18a.58.58 0 00-.17-.05c.27 0-.06-.18.14-.22-.33 0-.17-.08-.24-.12a.62.62 0 01.17 0c0-.06 0-.09.07-.14s-.21-.08-.15-.11c.23 0 0-.07.12-.09-.2 0-.34-.11-.25-.13l.27.08c-.15-.16.19-.24-.11-.46h.16c-.14-.18.09-.26-.18-.48.1 0 .16 0 .17-.08a1 1 0 00-.3-.2h.18c.06 0 .3 0 .06-.16h.14c-.12-.09-.26-.22-.09-.22-.11-.06-.14-.13-.3-.16s.22.07.09 0l.19.09c.08-.11 0-.24 0-.39.24.06 0-.12.17-.13-.1-.09.1-.08-.17-.23h.13s.07-.11.16-.14-.13-.11-.18-.17l.12.06a2 2 0 00-.37-.25h.11A1.9 1.9 0 0045 31c.07 0-.23-.21 0-.14.06 0 0-.06-.14-.15 0 0 .1 0 .17.08s0-.05-.08-.11a2.34 2.34 0 00-.3-.19s.08.06 0 .07-.14-.14 0-.09a3.21 3.21 0 00.3.16l-.3-.24c.1.07 0 .05-.12 0l.06.07-.13-.08c0 .08-.13 0 0 .15l.15.05s.17.15 0 .1a.67.67 0 00-.19-.1s.07.05 0 .05l-.23-.13c.31.17.08.13.12.17-.12 0 .14.05.12.08s-.26-.11-.37-.13.13.21-.08.18a1.07 1.07 0 00.19.23s-.25-.12-.16 0c-.15-.08-.34-.13-.44-.19s-.17-.05-.08 0c-.06 0-.15-.08-.17-.06a1.07 1.07 0 00.37.11c.22.07 0 .08.25.15-.07 0-.12.09-.09.16a.75.75 0 00-.25-.11c.14.09.21.18.15.21.16.06.16 0 .32.11s.09.06.07.06c-.17 0-.42-.16-.45-.12-.25-.11.07-.06-.2-.14s-.18-.19 0-.16c-.21-.13 0 0-.26-.07 0 0 .11.11.12.18a.56.56 0 01.22.09c.21.14-.19 0-.2 0s0 0 0-.05v.1c-.31-.1 0-.07-.19-.15l-.33-.15c-.05 0 .24.11.14.14l-.1-.05v.06c.11 0 .28.1.27.06.28.13 0 0 .07.11s0 0 .16 0 .14.08.16.12-.18-.05-.3-.07 0-.06.06 0c-.15-.11-.35-.11-.46-.18s.19.1.15.13.14 0 .21.06c.43.22-.34-.08-.28 0 .29.09.37.23.7.29 0 0 .11.08.08.08a3.4 3.4 0 01-.34-.12l-.22-.11c-.15 0-.3 0-.39-.05.07.07.19.06.22.11s-.19-.05-.19 0a.62.62 0 01.32.13h-.25l-.15-.09c.13.07-.08 0 0 0l.41.17h-.09l-.11-.07c0 .06-.3-.09-.24 0l.15.06h-.15c.1 0 .07.06.11.08h-.1c.06 0 .28.14.07.1.25.06 0 0 .13 0s.16.08.18.1c-.26-.09 0 0 0 .06h-.21l.17.06c-.34-.1.07.07 0 .06a1.17 1.17 0 00-.29-.08c.26 0 .3.14.47.18-.1 0-.32-.1-.5-.14.19.08-.14 0 .11.1.09 0 .16 0 .27.09s-.11 0-.21 0a.76.76 0 00.3.1c-.06 0 .17.1 0 .09s-.06-.08-.18-.09.39.14.42.2a1.55 1.55 0 01.46.15c-.09 0-.09 0-.3-.08-.29 0-.44-.19-.68-.22h.09a1.71 1.71 0 00-.3-.09c.2.06 0 .08.08.1s0 0 .08 0 .31.13.19.14a2 2 0 00-.31-.08c-.07 0 .19 0 .09.06h-.1c0 .11-.07.26.31.45a.64.64 0 00-.32 0 .43.43 0 01.19 0h-.19c-.12 0 0 .09.15.14h-.14c-.14 0 .1.06.14.08h-.14.13c.07 0 0 .07-.19 0a.22.22 0 00.15 0c-.14 0-.15.09-.09.16a.63.63 0 01.26 0h.09a.78.78 0 01-.24 0c-.31 0-.08.16-.16.24a.68.68 0 00.13 0c-.24 0 0 .13-.12.17a.87.87 0 01.37.1c.18.06-.27 0-.39 0 .09 0 .1.06.09.07.1 0 .15.07.06.08s-.14 0-.13 0c.18 0 .07.07.22.1h-.07.15-.25c-.11 0 .14 0 .22.07s0 0-.11 0h0c-.04 0 0 .07-.14 0 .08 0 .06.05.14.07a.37.37 0 01.18 0s.06 0 0 0 0 .05.14.05h-.22c.13 0 .12 0 .14.08-.17 0-.36-.06-.4 0l.17.06h-.13c-.13 0 .46.12.3.16s-.21 0-.27 0h.1c.1 0-.14 0 0 0h.12c-.44 0-.12.16-.33.22.24 0 .07 0 .16.06-.26 0 0 0-.12.06h.25c-.14 0 .38.11.07.11a.47.47 0 01-.22 0c-.27 0 .22.11-.09.12a1.42 1.42 0 01.36 0 1.58 1.58 0 01-.29.05s.12 0 0 .06h-.1c-.07 0 0 .07.13.11-.19 0-.1.08-.21.12.24 0-.09.07.21.08h-.09a2.21 2.21 0 01.3.06h-.2c-.25 0-.05.06-.18.06h.21c.06 0 .1 0 .13.05s-.23 0-.21 0 0 0 0 .07 0 0 .06 0h-.16s.17.06.24.06c-.15.07 0 .2.08.23s-.13 0-.06 0 .17.05.07.05H42.99c-.24.06.16.13 0 .2h-.14a.8.8 0 00.33.14H43a.21.21 0 00.13.07h.23s.09 0 .09.07 0 0-.14 0c-.25 0-.16.09-.19.1a.91.91 0 00.17 0h-.14l.5.06h-.33c-.1 0 .33.08.49.1 0 0 .06.07.07.09s0 0-.09 0h-.49c.09 0 0 .1 0 .15.28 0 .14.06.39 0 .05 0-.2 0-.26.06.1 0 0 .11.07.16h-.06c.09 0 0 .12.25.15a.65.65 0 01-.14 0c-.09.05.33 0 .18.05h-.13c.12 0-.11.08.09.1h-.13c.06 0 0 .07.21.09h-.21c-.1.05.23 0 .15.06h-.12c.11 0 .11 0 .16.07a.89.89 0 00-.2.06c0 .18 0 .38.25.53-.25.06-.16 0-.33 0 .22 0 .06 0 .15.07.05 0-.09 0 0 .07h.06c.14 0-.28.1 0 .07h-.15c.25 0-.07 0 .14.06-.1.06.29 0 .09.1 0 0 .1.06.29 0h-.25c.12.12.1.29.38.36h-.11c.15 0 0 .1 0 .14l-.09-.06-.4-.2c0 .1-.1.16-.17.15v-.06l-.15.07c-.08 0 0-.17.12-.15-.38-.26-.78-.41-1.15-.68-.13.18-.21-.1-.33.08l.06-.07c-.33-.06-.35-.06-.47-.44l-.38-.26-.39-.24-.82-.4-.2-.1-.21-.08-.42-.17-.84-.36c-.29-.1-.58-.19-.88-.27s-.6-.14-.9-.2-.61-.12-.91-.17l-.46-.08h-.47c-.26.3-.48.09-.76.33v-.1c-.22.12-.23-.08-.45-.24 0 .12-.1 0-.1.22s-.11-.3-.24-.23 0 .12 0 .05c-.35.2.08-.1-.3-.35a3.17 3.17 0 00-.43 0h-.43a2.32 2.32 0 01-.83-.07v.16c0-.33-.19.08-.28 0s.06-.09.09-.12a.55.55 0 00-.35 0 .42.42 0 01-.34-.05h.06a.34.34 0 01-.37 0c-.12 0-.24-.07-.32 0 0-.14-.1-.1-.15-.16-.07.19-.18.17-.3.12s-.24-.1-.33 0V36a5.6 5.6 0 00-1.87.34c-.34.1-.8-.17-1.15.09-.06.07 0 .14 0 .19s0-.12-.07-.16c-.16.19-.44.08-.68.14 0 .07-.07.11 0 .19-.32-.18-.58.26-.89.16.19.29-.1.23-.17.33s-.08-.08-.09-.15a.85.85 0 01-.54.16c-.09.07-.06.25-.2.25-.16-.18-.27.1-.42.07.11.17 0 .39-.14.36l-.07-.27a2 2 0 01-.66.35 1.11 1.11 0 00-.62.51l-.11-.13a2.74 2.74 0 01-.61.48 1.32 1.32 0 00-.52.57.93.93 0 00-.47.15c-.06.22-.12.24-.08.5 0 .05-.15 0-.21-.06s-.51.06-.49.37l-.09-.1c-.05.22-.12.52-.38.54 0 .12-.07.3.11.36 0 .07-.2-.14-.15 0l-.09-.2a1.92 1.92 0 00-.44.46 4.17 4.17 0 00-.32.55c-.26-.07-.25.32-.5.43 0 .09-.07.16-.12.24a.24.24 0 000 .3l-.51-.02a5.35 5.35 0 01-.48.52c-.11.1.06.22.06.35l-.12-.07c0 .15.17.3.27.41-.13 0-.05.09-.18.12a1 1 0 00-.24-.41c-.13.1.1.42-.14.39s-.11.21 0 .3c0-.05-.13 0-.17-.08a.22.22 0 000 .27c-.06 0 0-.05 0-.08s0 .18.25.26c0-.06-.06-.08 0-.13.11.1.08.25-.06.23s-.17-.21-.28-.19a3.23 3.23 0 00.22.41c-.09-.1 0-.14.16-.05v-.14l.13.08c0-.18.22-.21.2-.42h-.17c0-.09-.09-.29.12-.28 0 .07.11.08.18.12s-.05-.08 0-.09l.2.17c-.28-.22 0-.3 0-.37.17-.07-.14-.06-.09-.15s.26.13.39.12.05-.46.32-.48a1.24 1.24 0 000-.48c.07-.1.21.17.19 0a1.7 1.7 0 00.23.17c-.07-.08.15-.17-.09-.24a1 1 0 00.37-.41c0 .06.09.18.19.2a.34.34 0 01.09-.43c-.13-.12-.16-.08-.27-.21s0-.11 0-.13.34.3.44.2c.18.22-.19.15.06.29s0 .38-.16.33c.1.25.08-.05.24.13.06-.09 0-.22.08-.36-.08-.08-.14-.06-.15-.18-.08-.28.25 0 .29 0s0 .06 0 .1 0-.15.12-.22c.24.21-.09.15 0 .31l.22.11c.13-.09-.16-.22 0-.27l.07.1v-.12c-.08-.09-.22-.21-.27-.13-.17-.26 0-.09.09-.23-.09-.16 0 .06-.16-.07s-.05-.18 0-.25.18.1.29.15-.05.12-.11 0c0 .23.3.22.31.38.18 0-.07-.22 0-.27 0 .14-.12-.09-.19-.13-.19-.48.32.18.4 0-.23-.2-.1-.49-.42-.65 0-.07 0-.16.05-.17.1.19.17.07.23.28h.05l.09.25a3.92 3.92 0 01.42.15c0-.13-.15-.14-.1-.25 0 .11.15.14.18.11s-.18-.23-.16-.31.25 0 .27.09v.2c0-.17.07 0 .08-.06s-.12-.27-.19-.4.14 0 .15 0v.16c.08-.11.22.24.27.1l-.07-.15s.09 0 .11.12c-.05-.11 0-.13 0-.19l.07.09c0-.09-.08-.33.1-.19-.19-.18-.06 0-.2 0s0-.2 0-.23c.15.23.13-.06.19-.1l.19.11-.08-.16c.22.28.07-.15.19-.1a.34.34 0 00.19.25c-.21-.19-.08-.34-.2-.48.17 0 .15.3.29.43-.05-.21.19 0 .09-.21-.12 0-.07-.15-.12-.26.12-.05.05.11.17.14s0-.27-.13-.29c.09 0 0-.25.19-.15s-.09.14 0 .22-.13-.4 0-.53c-.1 0-.19-.33-.17-.45.2 0 0 .12.15.27v-.06c.23.2.05.52.25.68v-.13a.63.63 0 00.14.27c-.08-.18.13-.13.12-.18s0 .08-.08 0-.05-.35.11-.31c0 .13.13.19.15.29s-.08-.19 0-.15v.1a1.5 1.5 0 00.45-.27 1 1 0 00.3-.54c.12.13.22.1.41.15-.08 0-.07-.17 0-.2l.15.15c.14.07.18-.15.22-.29a.41.41 0 01.08.13c.12.09 0-.14.06-.19l.1.11v-.13c.06-.1.18-.11.24.1v-.15a.28.28 0 00.24 0 .53.53 0 00.23-.13c-.09 0-.1-.1-.15-.23s.05 0 .06-.12c0 .09.13.15.07.23a.34.34 0 00.39 0 1 1 0 01.37-.14v-.15c.22.18.36-.11.55-.05-.06-.09-.07-.37 0-.4.06-.21.1.25.22.35a.18.18 0 01.15-.14c0-.11.11-.19.2-.12.06 0 .15.11.21.08s.16-.1.16-.26v.07V38l.13.07a.53.53 0 010 .18c.15.08 0-.15.07-.25s.1 0 .15.09-.07 0-.09 0 .06 0 .08.13 0-.18.07-.16.18-.06.19.11c0-.09.1-.08.12-.17a.24.24 0 01-.17-.15s.12-.09.14 0 .16 0 .07-.16l.12.2c0-.13.1-.13.17-.17 0 .17 0 .37.13.39l.09-.19c.06 0 .08 0 .08.12.22.08.17-.49.35-.36 0 .21 0 .23.09.28s0-.11 0-.11 0 .14-.1 0 .06-.09.09-.14a.3.3 0 00.34.22c.14 0 .28-.05.4 0 0-.24.1-.07.15-.16 0 .25.13-.05.2.1v-.25c.14.14.23-.39.33-.08.08.08 0 .18-.06.22.11.28.3-.22.38.09 0-.1 0-.27.08-.36.08.11.23.25.22.29s.08-.12.15 0 0 .07-.06.1.2 0 .3-.12c.05.19.26.11.38.23.09-.23.2.11.23-.19a.24.24 0 000 .09c.05-.08.11-.28.17-.29v.2c0 .26.17.07.18.2 0-.18.06 0 .09-.15l.08-.06c.12 0 0-.1.17-.1s0 .23 0 .2c.06.12.13.07.21 0h.08-.08.07s.05 0 .06.05v.16s.21-.15.21-.22a.51.51 0 00.38.1.7.7 0 00.32-.08c-.06 0-.1.12 0 .06s.17-.14.16 0 0 .12.13.16 0-.15 0-.14c.12.28.42-.07.59.13 0 0-.06.07-.1.13a1.27 1.27 0 00.52-.22c0 .07-.05.13-.09.16a.3.3 0 00.25-.06c0-.15.13-.25.19-.19.1 0 .13-.06.24 0s-.07 0-.07.13.2.22.22.25a.28.28 0 00.1-.14c.1 0 0 .15.06.16l.38-.4c-.07 0 0 .24-.1.31.18 0 .36-.22.52-.34 0 .06.24 0 .3 0s0 0-.09.07v.17c-.12 0-.06.23-.16.31a.26.26 0 01.22 0l.21.16c0-.31.23-.06.31-.31.18 0 0 .23 0 .31.2 0 .33.09.49.12.16 0 .35.15.58 0 0 0 0 .09-.09.12.11.14.16-.3.27-.08l-.09.1c.15-.07.16.19.36.06a.18.18 0 01-.09.1c.13 0 .24.07.4 0a.27.27 0 01-.13.18c.07.14.21-.16.27 0s0 .14 0 .14h.32a.43.43 0 000 .24l.4.19.4.2a3.08 3.08 0 00.86.27c0 .28-.19.07-.23.26.11-.2.12 0 .31 0 .09 0 .06.14.16.13v-.06c.15-.07 0 .35.2.13v.17c.2-.17.07.14.27 0 .06.17.39-.08.34.13a.34.34 0 00.39-.09.57.57 0 01-.15.22c.22.08.43.2.64.3a1.73 1.73 0 00.68.2s0 .06-.09.09c.34 0 .29.49.7.25l.16-.11c0 .09-.07.19-.08.27s.21.12.33 0c0 .07-.07.07-.1.11s.35 0 .4.08h-.08a3.72 3.72 0 00.52.86 1.12 1.12 0 00.79.41c.14 0-.11.22-.06.24a1.12 1.12 0 01.65.45.79.79 0 00.71.35c.35.14.84-.19.84-.19a3.07 3.07 0 01-.93-.86zm-32.41 1.31a3 3 0 00.32.1c-.11-.14-.2-.08-.32-.1"/>
      <path class="cls-6" d="M17.26 43.6s.07.06.06.09 0-.06 0-.09-.1 0-.08 0m.44-.45v.3a.29.29 0 000-.3m.77 0s0-.08-.08-.11 0 .08.08.11m-.22-.29c.11.12.09 0 .15 0h-.15m1.09-.64c.08.12 0-.11.11-.07-.09-.07-.09 0-.11.07m.35-.49l.09.09s0-.11-.06-.12m9.8-3.83V38l.06-.05zm4.83.73v-.12c.08 0 0 .12 0 .12m2.69 0l-.08.19zm8.1-8c.06 0 0 0-.06-.07l.06.07m-.43 3.4zM43.51 30.79l.05.05-.05-.05M44.84 30.51a1 1 0 00.3.14l-.3-.14m-1.1.37s-.09 0-.09-.06v.05c0 .05.09 0 .06 0m-.14.18l-.15-.15a.23.23 0 00.15.15m-.47 0L43 31l.11.06m.21.09c-.16-.06 0 0-.12 0h.12m-.43.33c-.14-.06 0 0 0 0 .1 0 0 0 0 0m-.05.22a.23.23 0 00.12.05h-.12zm-.25 3.76h.05-.05zm-.1 1.65h.11-.11m.63.81zm-8.87 18.44zm-6.22 0zM28 56.33h.06c.06 0 0 0 0-.05m7.71.06zM36.78 56.43h-.12v.06z"/>
      <path class="cls-6" d="M40 56.88l-.14-.06a2.62 2.62 0 01-.27-.17c.12 0 0 0 0 0-.07 0-.09-.08-.12-.09h-.09v-.06c0 .12-.36-.1-.42-.09s-.14 0-.23 0-.08-.07-.15-.11 0 .07 0 .08l-.11-.07c.05 0 0 0 0-.06s-.23-.08-.24 0c-.12 0-.13-.09-.18-.08s.06 0 .06 0-.39-.16-.38 0v.3a.05.05 0 010-.06h-.28l.14.25c-.09-.05-.26-.15-.26-.07l-.06-.08c-.19-.14-.1.09-.17.05l-.1-.09h.08a.59.59 0 01-.19-.11.11.11 0 01-.1.09c-.08 0-.14.08-.28 0v.1h-.1v-.08a3.63 3.63 0 00.39-.07c-.07 0-.14.06-.19 0s-.1-.08-.06-.14v.08a.86.86 0 01-.5 0s-.09.06-.11 0a.61.61 0 01-.42-.12v.1s-.09-.14-.1 0h-.06s-.07.05-.12 0c-.1 0 0 .08-.11 0s0 .12-.08.1l-.07-.13c-.1-.07-.11.07-.25.08a.21.21 0 01-.08-.26c0 .13 0 .08-.1.14s0-.06 0-.1 0 0-.1 0a.9.9 0 010 .25c-.06 0-.12.08-.19 0h-.08v.2h-.26c-.14-.1-.24 0-.39.06v-.07c-.06-.07 0 .1-.08.07v-.08c-.05.11-.07 0-.11-.07v.11h-.07c-.08 0 0-.14 0-.2v.09-.1c0 .12 0 0-.1.05s0-.06 0-.08l-.11.14.06-.06v.15c-.07.11-.1 0-.15 0-.08 0-.09 0-.13-.06s0 .07 0 .09v-.07c0-.07-.06.15-.11.1v-.1.1s-.08.05-.07 0h-.23v-.08c0 .12-.12-.05-.12.1 0-.08-.17 0-.14-.11-.15 0-.23.14-.41 0s-.24-.1-.36-.12-.38.09-.62.12c-.12-.21-.35 0-.5-.09v.08c-.09-.13-.26 0-.39-.13h-.07v.07c0 .07-.13 0-.11-.1 0-.1-.13 0-.16-.06v.11h-.07c-.36.2-.47-.15-.81 0 .06-.11-.07 0-.06-.07s-.14 0-.21 0h-.11c.09-.15-.1.12 0 0-.28-.16-.68-.1-1-.21-.08 0-.2 0-.25-.07s-.16.08-.19.08-.12-.1-.09-.08-.18.13-.27 0-.32.07-.29-.08c-.11-.13-.27 0-.39-.11l-.4.38v.52l.17.46.74.07.55.26c.48.07.95.13 1.43.18l.11-.1c.26.23.64.05.93.22v-.09c.09 0 .08.06.1.08a19 19 0 012.32.14c.07.07.28 0 .33.11a1.31 1.31 0 01.72-.1h.11c.13-.09.32 0 .48 0 .89 0 1.69-.24 2.58-.18.42.12.87-.16 1.34-.09a2.58 2.58 0 001.1-.19l-.12-.1c.33-.11.51 0 .79-.17s0-.25.56 0 0 0 .05 0l-.09-.05s.07-.1.13-.13h.15l.07.07c0-.06 0-.21.13-.15-.07-.1 0-.08 0-.13h.05a.53.53 0 00.24-.16h-.06M37.3 56.519999999999996v-.06zm1.14-.21h.05-.05m1.38.81h-.05.06"/>
      <path d="M168.1 42a42 42 0 11-42-42 42 42 0 0142 42" fill="#f2c6a7" fill-rule="evenodd"/>
      <path class="cls-2" d="M99.52 44.7a.52.52 0 00-.18.45c.51-.71-.16.2.18-.45m2.2-2.66v-.09s-.06.07 0 .09"/>
      <path class="cls-3" d="M152.58 58.85l.15-.32a1.31 1.31 0 01-.14.3m-.94 1.49l.26-.33-.17.26m-8.79 3.74h.32-.28m-8.09.36c-.06 0-.08 0-.08-.09h.21a.36.36 0 00-.13.09m-32.6-22.5l-.21.2a1 1 0 01.21-.21m1.7-1.39l-.43.32a1.92 1.92 0 01.43-.32m.45 25.28c2.75.17 5.68 0 8.68.17 1.44-.07 3.33-.19 4.66-.14 5.58-.18 11.21.1 16.91-.21-.3-.05 0-.16.3-.19l.08.05.44-.14c.43 0 .25.15-.11.18l3.28-.1h1.61l1.67-.06c.07-.1.36-.12.65-.15s.57-.06.6-.16 0 0-.05.09c.78-.13 1.2-.22 1.61-.26.21 0 .41 0 .65-.06H146.34c.39-.08.78-.18 1.17-.29s.77-.25 1.16-.4.75-.33 1.12-.52a9.94 9.94 0 001.07-.66l.26-.19.25-.19c.16-.14.33-.27.48-.42a8.44 8.44 0 00.87-.92 9.26 9.26 0 001.19-2.16 11.36 11.36 0 00.77-2.33 16.21 16.21 0 00.35-2.36 20.43 20.43 0 00.06-2.34c0-.39 0-.77-.05-1.15v-1.15c0-.39-.09-.77-.14-1.15s-.12-.77-.18-1.15c-.14-.76-.3-1.52-.49-2.26a33.59 33.59 0 00-1.4-4.4 36.33 36.33 0 00-1.95-4.2 39.32 39.32 0 00-2.48-4 4.83 4.83 0 01-.58-.54c-.19-.21-.38-.42-.57-.65l-.3-.33-.31-.33c-.1-.11-.21-.21-.32-.31a3.17 3.17 0 00-.34-.28h.02a4.55 4.55 0 01-.44-.44 3.89 3.89 0 01-.32-.39l-.31-.46c-.13-.17-.27-.37-.47-.61-.08.06-.35-.32-.35-.07a.92.92 0 01-.4-.48 1.5 1.5 0 00-.47-.6c0-.06-.06.09-.12 0l-.36-.26-.17-.12c-.06-.06 0-.06 0-.08s.06-.06 0-.18a1.55 1.55 0 00-.18-.26c-.09-.11-.23-.25-.41-.43l-.07-.06h-.08l-.08-.05c0-.06.07-.12.1-.19l.12-.22c.07-.16.14-.3.2-.46l.09-.23.08-.23c0-.16.09-.32.13-.47a8.1 8.1 0 00.18-1 9.1 9.1 0 000-1.88 10.29 10.29 0 00-.31-1.76c0 .14-.07.21-.15 0a.39.39 0 000-.3 1.53 1.53 0 00-.16-.35l-.11-.18-.11-.18a1.54 1.54 0 01-.16-.38c.07 0 .19.22.27.34a5.73 5.73 0 00-.92-1.65c-.19-.24-.39-.47-.59-.7l-.32-.34-.29-.31-.17-.13-.4-.29-.25-.37-.21-.15-.39-.29-.4-.26a3.84 3.84 0 00-.39-.22 2.57 2.57 0 00-.7-.27c.11 0 0-.09-.17-.17l-.27-.13-.23-.11a2.78 2.78 0 01-.73-.1 3 3 0 01-.4-.12l-.42-.12a4.53 4.53 0 00-1.71-.25 15.73 15.73 0 00-2.38 0h-.61l-.6.07-.6.1-.61.11a14.29 14.29 0 00-2.36.73 11.27 11.27 0 00-2.19 1.18c-.38.26-.79.53-1.18.83-.2.15-.39.31-.59.48l-.28.25-.28.27-.27.29-.26.31-.12.16-.12.16-.23.33c-.07.11-.13.23-.2.35l-.1.17v.1c-.06.12-.12.25-.17.37s-.09.25-.13.38 0 .21 0 .23v.19c-.18.49-.1 0-.2.14-.1.52-.26 1.1-.36 1.75a7.49 7.49 0 000 2c.08.15.16.52.22.38a4.16 4.16 0 00.07.58q.08.3.18.6a6.11 6.11 0 00.59 1.17 10.51 10.51 0 00.79 1l.8.88v-.16a1.87 1.87 0 01.31.21 5.43 5.43 0 00.86.6c.13.1.18.17.18.21s0 0-.07 0c.4.25.73.42 1 .6l1.45.76a9.54 9.54 0 011.36.36 1 1 0 00.36.22l.24.09h.4a.42.42 0 01.15.07.41.41 0 01.13-.08H128.37a.37.37 0 010 .19 1 1 0 01-.11.27 1.09 1.09 0 00-.23-.09v.45c-.08.29-.15.6-.22.91a13.94 13.94 0 00-.3 2 11.11 11.11 0 000 2.08 8.54 8.54 0 00.43 2l-.1.22a19 19 0 001.15 3l-.12-.09-.16-.13-.33-.24c-.22-.17-.42-.34-.64-.48a4.4 4.4 0 00-1.3-.65v-.12l-.68-.27-.75-.3-.38-.17-.38-.17a6.6 6.6 0 01-.7-.37c-.3 0-1.23-.34-.86 0-.37-.12-.16-.29-.58-.3h.41l-.77-.29-.38-.13-.38-.12-.74-.21-.75-.18-.38-.08c-.12 0-.25 0-.37-.06l-.76-.13-.78-.08a6.83 6.83 0 00-.79-.06 2 2 0 00-.59-.15h-2.7a4.84 4.84 0 01-.62.09l-.69.09a2.74 2.74 0 00-1.14.35l-.06-.12c-.47.09-1 .21-1.6.37s-1.19.34-1.79.55-.62.42-1.11.72l-.08-.1a2.56 2.56 0 00-.33.25 1.71 1.71 0 00-.19.21c-.08.12-.13.22-.19.32l-.23.12c-.27.13-.33.22-.71.38a4.61 4.61 0 00.83-.92 4.18 4.18 0 00-.93.65l-.38.31a1.09 1.09 0 01-.38.18l-.39.27-.28.25c-.14.14-.21.26-.2.34s-.33.18-.15-.06l-.27.25-.22.22c-.07.07-.12.14-.18.21a.83.83 0 01-.08.12c.07-.07.18-.14.25-.22a.93.93 0 01-.1.2l-.12.2c0 .09-.08.17 0 .22-.14.14-.28.29-.41.44-.1 0 .24-.53 0-.33l-.17.31-.16.31c-.06.11-.11.22-.16.33a35.86 35.86 0 00-2.4 3.34 15 15 0 00-.56 15.09c1.51 3.09 3.71 3.83 6.46 4"/>
      <path class="cls-2" d="M142.29 19v-.05.05m-2.55-4.12l.26.12a.88.88 0 00-.26-.19M123 28.66h.07l-.34-.21zm-22.64 15.25c.13-.41-.21 0-.38 0 0 .1.28-.06.38 0"/>
      <path class="cls-8" d="M99 45.3c0 .15.19 0 0 .12-.07-.05-.11-.11 0-.12m32.58-.43a.77.77 0 01-.71-.35 1.12 1.12 0 00-.65-.45c-.05 0 .2-.2.06-.24a1.08 1.08 0 01-.79-.41 3.72 3.72 0 01-.52-.86h.08c0-.12-.33 0-.4-.09s.08 0 .1-.11c-.12.11-.21-.07-.33 0s.09-.18.08-.28l-.16.11c-.41.24-.36-.29-.7-.25 0 0 .08 0 .09-.09a1.58 1.58 0 01-.68-.2c-.21-.1-.42-.22-.64-.3a.57.57 0 00.15-.22.32.32 0 01-.39.09c0-.2-.28 0-.34-.13-.2.13-.07-.18-.27 0v-.17c-.18.22 0-.2-.2-.12v.05c-.11 0-.07-.13-.16-.13-.19 0-.2-.21-.31 0 0-.19.19 0 .23-.26a3.26 3.26 0 01-.87-.27l-.39-.2-.4-.19a.42.42 0 010-.24c-.07 0-.22-.06-.32 0s0-.12 0-.14-.2.17-.27 0a.25.25 0 00.13-.18c-.16.11-.27 0-.41 0a.13.13 0 00.09-.1c-.19.13-.2-.13-.35-.06l.09-.1c-.11-.22-.16.22-.27.08.05 0 .06-.08.09-.12-.23.16-.42 0-.58 0-.16 0-.29-.16-.49-.12 0-.08.13-.29 0-.3-.08.24-.31 0-.31.3-.06 0-.14-.11-.21-.15a.24.24 0 00-.22-.05c.1-.07 0-.32.16-.3v-.18c0-.1.08.06.09-.07s-.26 0-.3 0c-.16.11-.34.36-.53.34.11-.07 0-.29.11-.31l-.38.39c-.06 0 0-.2-.06-.16s-.06.1-.1.14-.26 0-.22-.25c0-.1.11 0 .07-.13s-.14.06-.24 0c-.06-.06-.23 0-.19.21s0-.16.07-.07a.29.29 0 01-.32.12s0-.1.09-.17a1.24 1.24 0 01-.54.23c0 .11.11-.2.12-.14-.17-.2-.47.15-.59-.13v.14c0-.03-.06-.21-.13-.16 0-.1-.09 0-.16 0s0-.06 0-.05a1.22 1.22 0 01-.32.08.51.51 0 01-.38-.1c0 .07-.16.22-.21.21v-.15c0-.1-.17 0-.16-.15-.13.17.43-.1.27 0 0-.13-.24.22-.18 0-.1 0-.21.16-.29 0 0 0 .11-.21 0-.21s-.05.07-.17.11l-.08.06c0 .15-.13 0-.09.14 0-.13-.22.06-.18-.19v-.2c-.06 0-.12.2-.18.28s0-.06 0-.09c0 .31-.14 0-.23.19-.12-.11-.33 0-.38-.23-.1.09-.19.19-.3.12a.13.13 0 00.06-.1c-.07-.09-.09 0-.15 0s-.14-.19-.22-.3c-.1.09-.07.26-.08.36-.08-.31-.27.19-.39-.08 0 0 .15-.15.06-.23-.09-.3-.18.23-.32.08v.26c-.07-.16-.21.15-.2-.11 0 .09-.17-.08-.15.17-.12-.1-.26-.06-.4 0a.3.3 0 01-.34-.22s-.12 0-.09.13.07-.1.1 0 0 .07 0 .11-.14-.06-.09-.27c-.18-.14-.13.43-.35.35 0-.1 0-.14-.08-.11l-.09.18c-.14 0-.11-.22-.13-.39-.07 0-.16 0-.17.18l-.12-.21c.08.15-.05.11-.07.16v-.05c0-.07-.1 0-.14 0s.12.13.17.16-.08.07-.12.17c0-.17-.13-.11-.19-.11s0 .16-.07.15-.11 0-.08-.12.07.07.09 0-.07-.21-.14-.08.07.32-.08.24v-.18l-.02-.08v.15-.07c0 .17-.17.08-.16.27-.06 0-.15-.08-.21-.09-.09-.08-.17 0-.2.12a.18.18 0 00-.15.14c-.12-.09-.16-.56-.22-.35-.1 0-.09.32 0 .4-.2 0-.33.24-.55 0v.15a1.28 1.28 0 00-.37.14.35.35 0 01-.39 0c.06-.09 0-.15-.07-.23 0 .15-.12-.12-.06.12s.06.19.15.22a.53.53 0 01-.23.13.28.28 0 01-.24 0c.07 0 0 .09 0 .15-.06-.22-.18-.21-.24-.11v.13l-.1-.11c0 .06.06.28-.06.19a.36.36 0 00-.08-.12c0 .13-.09.35-.22.28l-.15-.15v.2c-.19-.05-.3 0-.41-.15a1 1 0 01-.3.54 1.5 1.5 0 01-.45.27v-.1c-.12 0 0 .18 0 .15s-.16-.15-.15-.29c-.17 0-.06.23-.11.31s0-.11.08.05-.2 0-.12.18a.62.62 0 01-.14-.28v.13c-.2-.16 0-.48-.25-.68v.06c-.16-.14.06-.3-.14-.27a.6.6 0 00.17.46c-.11.13.17.45 0 .52s.1-.09 0-.22-.1.16-.19.15c.11 0 .15.24.13.29s-.05-.19-.17-.14c0 .11 0 .24.12.26.1.25-.14 0-.09.21-.14-.13-.12-.42-.29-.43.12.14 0 .29.19.48a.36.36 0 01-.18-.24c-.12 0 0 .37-.19.09l.08.17-.19-.12c-.06 0 0 .33-.19.1 0 0-.13.12 0 .24s0-.18.2 0c-.18-.14-.1.1-.1.19l-.07-.08s-.07.08 0 .18a.19.19 0 00-.11-.12l.07.15c-.06.14-.19-.21-.27-.1v-.22s-.13-.06-.15 0 .14.3.19.41-.12-.12-.08.05v-.2s-.2-.15-.27-.09 0 .31.16.31-.14 0-.18-.1c0 .11.11.11.1.24-.09 0-.28-.09-.42-.15l-.09-.25c-.06-.21-.13-.09-.23-.28v.17c.32.17.19.45.42.65-.08.18-.59-.48-.4 0 .07 0 .17.27.19.13-.1 0 .15.28 0 .28 0-.16-.29-.16-.31-.39.06.08.11 0 .11 0s-.2-.24-.29-.15-.1.14 0 .24.07-.08.16.08-.26 0-.09.22c0-.07.19 0 .27.13v.12l-.07-.1c-.17 0 .12.18 0 .27l-.22-.11c-.11-.16.22-.1 0-.31-.09.07 0 .21-.12.22s0-.06 0-.1-.37-.25-.29 0 .07.1.15.18c-.09.15 0 .27-.08.36-.16-.17-.14.12-.24-.12.14 0 .28-.14.16-.34s.12-.06-.06-.29c-.1.1-.29-.09-.44-.2s0 .1 0 .13.14.09.27.21a.34.34 0 00-.09.43c-.1 0-.22-.14-.19-.2a1.13 1.13 0 01-.37.41c.28.09-.07.19.15.28a.38.38 0 01.38.14s-.09-.07-.16-.09c.08.14-.26-.07-.11.14 0-.19-.25-.24-.4-.39 0 .17-.12-.1-.19 0a1.3 1.3 0 010 .49c-.27 0-.24.35-.32.47s-.31-.17-.39-.12.26.08.09.15c0 .07-.28.16 0 .37l-.21-.17v.1c0 .04-.16-.06-.18-.13-.21 0-.08.19-.12.29H100c0 .22-.17.25-.2.42l-.13-.07v.13c-.12-.09-.24 0-.16 0-.07-.13-.15-.27-.21-.41.11 0 .12.16.28.19s.17-.13 0-.23 0 .07 0 .14c-.19-.08-.14-.16-.25-.27s-.08 0 0 .08a.24.24 0 010-.27c0 .11.13 0 .17.08-.16-.09-.16-.21 0-.3s0-.29.14-.39a1 1 0 01.24.42c.13 0 .05-.1.18-.13-.1-.11-.27-.25-.27-.41l.12.07c0-.13-.17-.24-.06-.35a5.35 5.35 0 00.48-.52l.11.08a.24.24 0 010-.3c0-.08.12-.14.12-.24.25-.11.24-.5.5-.43a4.17 4.17 0 01.32-.55 2.12 2.12 0 01.44-.46l.09.2c0-.16.11.05.15 0-.18-.06-.07-.24-.11-.36.26 0 .33-.32.38-.54l.09.1c0-.31.29-.27.49-.37s.17.11.21.06c0-.25 0-.28.08-.5a.93.93 0 01.47-.15 1.44 1.44 0 01.52-.57 3 3 0 00.61-.47l.11.12a1.11 1.11 0 01.62-.51 2 2 0 00.66-.35l.07.28c.15 0 .25-.19.14-.36.15 0 .26-.26.42-.07.14 0 .11-.19.2-.26a.88.88 0 00.6-.19h-.06c0 .06 0 .18.09.18s.36 0 .16-.33c.32.09.57-.35.9-.17v-.18c.24-.07.52.05.68-.15 0 0 0 .17.07.16s0-.12 0-.19c.35-.25.81 0 1.15-.09a6.16 6.16 0 011.87-.34V36c.09-.14.21-.08.33 0s.22.07.3-.13c0 .06.18 0 .15.16.08-.1.19-.06.32 0A.34.34 0 00114 36h-.06a.45.45 0 00.34 0 .56.56 0 01.35.05s-.08 0-.09.12.24-.28.28.05v-.16a2.32 2.32 0 00.83.07h.43a3.17 3.17 0 01.43 0c.38.26 0 .55.3.36v-.06c0 .06.13.39.24.23s.07-.1.1-.22c.22.16.23.36.44.25v.1c.28-.25.5 0 .76-.34h.47l.46.08c.3 0 .61.1.91.17l.9.2c.3.08.59.17.88.27l.84.36.42.17.21.09.2.09c.27.13.55.26.81.4a3.26 3.26 0 01.4.24l.38.26c.12.38.14.38.47.44 0 0-.06 0-.06.08.12-.19.2.09.33-.08.37.27.77.42 1.15.67-.07 0-.2.12-.12.16l.15-.08v.06c.07 0 .19-.05.17-.14a3 3 0 01.4.2l.36.24c.23.18.45.38.66.58l.16.15.15.15c.1.11.2.21.31.31a6.75 6.75 0 00.65.55 2.11 2.11 0 00.76.58 8.34 8.34 0 00.71 1.1 3.07 3.07 0 00.93.86s-.49.34-.84.19M99 45.13c.11 0 .21 0 .31.1a1.86 1.86 0 01-.31-.1"/>
      <path class="cls-8" d="M101.36 43.55h.07c.07 0 0 .11 0 .1s0-.06-.06-.1m.44-.45a.29.29 0 010 .3v-.3m.69-.14c.1 0 .12.06.07.11s0-.07-.07-.11m-.14-.19h.15c.06 0 0 .12-.15 0m1.09-.64s0-.13.11-.07c-.08 0 0 .19-.11.07m.34-.49a.12.12 0 01.06.12zm9.86-3.78h-.06v-.1zm4.75.56c.08 0 0 .11 0 .12v-.12m2.66.3l.07-.19zm8.16-8.25c0-.06-.16-.06-.06-.06s.12.08.06.06m-.89 11c-.54 0-.07-.31-.44-.37 0 0 .28-.06.21-.08-.43-.05-.25-.34 0-.57h.09c.05-.05-.23 0-.2-.07h.15c-.16 0-.09-.05-.21 0 .06 0 .19-.05.25-.08H128c-.45 0 0-.15-.23-.18h.11c-.28-.07-.26-.24-.38-.36h.25-.29c.2 0-.19 0-.09-.1h.05c-.21 0 .11-.07-.14-.06h.15c-.28 0 .14-.07 0-.08h-.05c-.08 0 .06-.05 0-.06-.09-.05.07-.1-.15-.07h.34c-.26-.15-.24-.35-.26-.53a.89.89 0 01.2-.06s0-.06-.16-.07h.12c.08 0-.25 0-.15-.06a.77.77 0 00.21 0c-.17 0-.15-.06-.21-.09a.55.55 0 00.13 0c-.2 0 0-.08-.09-.1h.13c.15-.07-.27 0-.18 0h.14c-.24 0-.16-.11-.25-.15h.06c0-.05 0-.11-.07-.16.06 0 .31 0 .26-.06-.25 0-.11-.08-.4 0 0 0 .13-.12.05-.15h.58c.09 0-.11-.07-.07-.08-.16 0-.45-.05-.49-.11a3.12 3.12 0 00.33 0l-.5-.06h.14a.47.47 0 01-.17 0s-.06-.08.19-.09 0 0 .14 0-.09 0-.09-.07-.1-.06-.24 0 .15 0 .08 0-.19 0-.2-.09h.18a.67.67 0 01-.34-.15h.15c.17-.07-.23-.14 0-.2h-.14s.19 0 .13-.05H126.77c.06 0-.24-.16-.09-.23-.06 0-.24 0-.23-.07h.15c.1 0 0-.06.13-.05-.19 0 .16.14 0 .08.13 0-.25-.07 0 0 0 0-.18-.07 0-.1h.21H126.6c.13 0-.08-.07.18 0h.2a2.21 2.21 0 00-.3-.06h.09c-.31 0 0 0-.21-.09.11 0 0-.11.21-.12-.09 0-.2-.07-.13-.11a.29.29 0 00.1 0c.09 0 0 0 0 0l.3-.06a1.42 1.42 0 00-.36 0c.3 0-.19-.1.09-.12a.37.37 0 00.22 0c.31 0-.22-.07-.07-.11h-.25c.16 0-.14-.08.12-.05-.09 0 .08 0-.16-.07.21-.06-.11-.21.33-.21l-.12-.05c-.12-.05.1 0 0 0h-.1.27c.2 0-.4-.1-.3-.16s.14 0 .13 0l-.17-.06h.4s0-.06-.14-.08h.22c-.16 0-.1 0-.14-.05.07 0 0 0 0 0a.42.42 0 00-.19 0c-.07 0 0 0-.14-.06h.15c.14 0-.09 0 0 0h.11c-.11 0-.33 0-.22-.06h.26-.15.07c-.16 0 0-.07-.22-.11h.13c.09 0 0-.05-.06-.08s0 0-.09-.07c.12 0 .57.08.39 0a1.05 1.05 0 00-.37-.1c.11 0-.12-.15.12-.16h-.13c-.03 0-.15-.22.16-.23a.8.8 0 00.24 0c-.13 0 .14 0-.09-.05a.64.64 0 00-.26 0c-.07-.07-.05-.15.08-.15a.29.29 0 01-.14 0c.22.05.26 0 .19 0h-.13.14s-.28-.07-.14-.07h.14c-.1-.06-.28-.14-.16-.15h.2a.33.33 0 00-.19-.06.64.64 0 01.32 0c-.38-.19-.37-.34-.31-.45h.1c.1 0-.17-.06-.09-.06a2 2 0 01.31.08c.12 0-.15-.1-.19-.14s.08 0-.08 0 .11 0-.08-.09a1.67 1.67 0 01.3.08l-.09-.05c.24 0 .39.18.67.22.21 0 .21.12.3.09a1.65 1.65 0 00-.46-.15c0-.07-.45-.15-.42-.21s0 .06.18.09-.07-.08 0-.09a.63.63 0 01-.3-.1c.1 0 .18.07.21 0s-.19-.1-.27-.09c-.25-.08.08 0-.11-.1.18 0 .4.16.5.14a4.13 4.13 0 00-.48-.17.75.75 0 01.29.07c.12 0-.29-.15 0-.06l-.17-.06h.2s-.21-.14.05-.06c0 0 0-.06-.18-.1s.12.08-.13 0c.2 0 0 0-.08-.1h.1l-.11-.08a.41.41 0 00.16 0l-.15-.06c-.06-.07.27.08.24 0l.11.07h.08l-.4-.17s.16 0 0 0l.15.09h.25a.62.62 0 00-.32-.13h.19c.09 0-.15 0-.22-.1h.38l.22.11c.18.1.15 0 .34.12s0 0-.07-.07a4.47 4.47 0 01-.7-.3c-.06-.09.71.22.28 0-.08 0-.28-.13-.21-.06s-.28-.13-.15-.13.3.07.46.18h-.06c.02 0 .29.11.3.07s0-.07-.16-.12 0 0-.16 0 .21 0-.07-.12c0 0-.16 0-.27-.06l-.06-.06.11.05c.1 0-.19-.09-.14-.14l.22.06c.18.09-.11.05.19.15 0 0-.12-.1 0-.1s0 0 0 .05.42.13.21 0a.63.63 0 00-.22-.09c0-.07-.11-.13-.12-.18.22.1 0-.05.26.08-.14 0-.16 0 0 .15s0 0 .2.15c0 0 .28.06.45.12s0-.05-.07-.07l-.32-.11c.06 0 0-.11-.15-.2a.49.49 0 01.25.11c0-.08 0-.13.09-.17-.27-.07 0-.08-.25-.15a.89.89 0 01-.37-.11s.11.05.17.06c-.13-.08.23.06 0-.06.06.09.3.15.49.24-.09-.08.14.07.16 0a.83.83 0 01-.19-.23c.21 0 .07-.13.08-.18s.32.15.37.14-.25-.09-.12-.09.19 0-.12-.18l.23.13-.05-.05a.92.92 0 01.2.1c.18.06 0-.07 0-.1l-.15-.05c-.08-.11.07-.07.05-.14l.13.07-.07-.07c.13.07.23.09.13 0l.29.25c-.09 0-.15-.11-.29-.17s-.11 0 0 .09 0 0 0-.06a1.32 1.32 0 01.29.19s.06 0 0 0 .09.09.08.12-.13 0-.18-.09c.17.09.21.14.14.15s.1.13 0 .14a1.81 1.81 0 01-.34-.24h-.11a2.61 2.61 0 01.37.25l-.12-.06c0 .06.23.15.18.17s-.12.1-.16.14l-.13-.05c.26.15.06.14.17.23-.15 0 .07.19-.17.13.05.15.11.29 0 .39l-.18-.09c.13.07-.12 0-.09 0s.18.11.3.16c-.17 0 0 .13.09.22h-.14c.24.13 0 .11-.06.16s-.19 0-.18 0a1.18 1.18 0 01.3.2.22.22 0 01-.17.08c.27.23 0 .3.18.48h-.16c.3.22 0 .3.11.46l-.27-.08c-.09 0 .05.1.25.14-.09 0 .11.11-.12.09-.06 0 .12.07.15.11-.12.05-.1.08-.06.16a.49.49 0 00-.19 0c.07 0-.09.08.24.12-.2 0 .13.2-.14.23a.5.5 0 01.16.05c0 .06-.2.1-.05.17h0c.05 0-.21.19-.18.29s0 .36.06.52h-.07c.25.07-.27.1.11.18h-.16c.18 0-.18.11 0 .19-.15 0 .05.12-.09.18h-.12c-.13 0 .28.08 0 .08h.15c-.14.14.07.31.14.47-.2.1-.55 0-.31.08h.06c.09 0-.37 0-.2.07s.11 0 .23 0c-.13.07-.31.08-.16.14h-.1c.3.06.14.14.48.19a4.16 4.16 0 00.16.5 2.38 2.38 0 01.17.49 1.6 1.6 0 000 .49.87.87 0 010 .5c-.26.11-.25.12-.13.19h-.09.24a1.1 1.1 0 00.07.36h-.19.08a.44.44 0 00.22 0 .46.46 0 010 .48.72.72 0 00-.06.49c-.08.09 0 .17.09.24-.23.3-.41.59-.14.77a2.12 2.12 0 01-.73.06m.89-11a.8.8 0 01-.3-.14l.3.14"/>
      <path class="cls-8" d="M127.81 30.75h-.06c-.06 0-.09-.06 0 0s0 0 .09.05m-.15.18a.24.24 0 01-.14-.15zm-.46 0c-.09 0-.13 0-.11-.06l.11.06m.21.1h-.12c-.06 0 0-.06.12 0m-.43.32s.07.07 0 0c.08 0-.1-.1 0 0m.07.25a.23.23 0 01-.12-.05zm-.32 3.76h.1zm0 1.6h0m.54.84h.2z"/>
      <path class="cls-9" d="M112.19000000000001 46.4zm0-.09c0-.05-.07-.1-.06-.14s0 .08 0 .12zM112.11 45.96c0 .06.08 0 0 0m-.05.23zm0-.46v-.06c0-.06 0 0 0 0zm0 .16h.08zm0-.35zm0-.12h-.09a.07.07 0 010 .07s0-.05 0 0m0 .2zm0 .2h0m.06-.12h-.05m-.05 0zm-.06-.19h-.06v.06m-.2-.18zm.21.24M111.74 45.38a.11.11 0 010-.08h-.06v.06zm0 .11h.08c.03 0 0 0 0-.06h-.07s-.08 0-.1.05m.15.33v-.09l-.07.08m-.09-.55h-.07zm-.08-.05zm-2-.07h-.08m1.11-.28H110.58m-.38 3.35z"/>
      <path class="cls-9" d="M109.11 46.31h.12-.06a.64.64 0 010-.07zm.81-1.16v-.06.17h-.07a.33.33 0 010-.18zm.42 0h-.1a.64.64 0 010-.15.32.32 0 01.1.13zm.56-.1c.07 0 0 .06 0 0s.14-.12.21 0 0 .1 0 .14-.06-.06-.09-.07-.05 0-.07 0a.21.21 0 00.1.06 1.27 1.27 0 00-.28-.06c.05-.01.07-.07.13-.12zm1.25 1.87l.08-.08c-.06 0 0-.11-.06-.12a.2.2 0 00-.15 0v-.08a1.54 1.54 0 00-.56-1.18h.06c-.01 0 .12-.11.14-.18s0 0-.06 0 0 .09 0 .1v-.07c0-.07-.09 0-.13.08a1.2 1.2 0 00-.26-.18s.07 0 0-.06.11 0 .14 0v.05s0-.05 0 0 0 .11.09.06.13 0 .15 0 0 0 0-.08c0 .09-.1-.07-.11 0v-.15c0-.09 0 0 0 0h-.13c-.03 0 0 0 0 0v-.09h-.05a.08.08 0 00-.09-.05s-.07 0 0 0h-.31a.18.18 0 01-.09 0h-.47a.3.3 0 00-.13.06h-.18c-.06 0 0 0 0 0a.1.1 0 00-.13 0s-.05.08-.1.07 0 0 0 .05c-.06-.05 0 0-.1 0s-.06.1 0 .17v.09s-.08 0-.09-.06v.23c0-.01-.14.21-.25.3.12 0-.07 0 0 .08s0 0-.06 0-.08.09 0 .16 0 0-.05 0 .07.1.15.12 0 .05 0 .08 0 0-.06 0-.06.14 0 .15a.37.37 0 000 .11c.08 0 0 0 0 .08v.14c.1 0 0 .09 0 .14s-.11.11-.12.15.06 0 .09.05-.09 0-.08.06.14.08.1.15 0 0 .06 0 0 .15 0 .14.08.08.13.07 0 .09 0 .11.08.05 0 .09l.07.08h.12c0 .09.06.1.16.08v.05l.06.07a.19.19 0 00.12.07s.1.06.14.1.09.06.14 0h.08c-.08 0 0-.08 0-.11s.06.07 0 .07.09 0 .08.11a1.79 1.79 0 00.51.07v-.07h.06s.07 0 .06-.06 0 .09 0 .09 0-.06.06-.07h.07s.06 0 0-.06.11 0 .17 0 .11-.07.13-.06 0-.08.1-.11-.06 0 0-.07.1 0 .19.05 0 0 0-.06v-.07c0-.02 0 0 .08 0s.06-.08.1-.12.1-.06.12-.12H112s-.08-.08 0-.08a.59.59 0 00.16-.3c0-.06 0-.11.05-.16a.57.57 0 01.11-.16h-.07zM111.62 45.54zm-.15-.27M111.5 45.32zm-.18-.3s-.1 0 0 0m.12.33zM111.32 45.36zM110.25 45.14v-.1zm2 1.56zm-.07-.07h.07-.06m12.05 0s-.06 0 0 0m-.09-.24zm0-.09c0-.05-.07-.1-.06-.14s0 .08 0 .12zM124.15 45.89h-.06m-.09.06c0 .06.08 0 0 0m-.06.23zm0-.46v-.06c0-.06 0 0 0 0zm-.06.16h.07zm0-.35zm0-.12h-.09c-.09 0 0 0 0 .07s0-.05 0 0m0 .2zm0 .2h0m.06-.12zm-.07-.19a.09.09 0 01-.05 0v.06m-.2-.18zm.22.24"/>
      <path class="cls-9" d="M123.72 45.38a.17.17 0 010-.08h-.06l.06.06zm0 .11h.08c.08 0 0 0 0-.06h-.07.05s-.08 0-.1.05m.15.33a.15.15 0 010-.09l-.07.08m-.09-.55h-.07zm-.08-.05zm-2-.07h-.08m1.11-.28H122.61m.63.17"/>
      <path class="cls-9" d="M121.09 46.31h.06a.14.14 0 010-.07zm.81-1.16v-.06.17a.18.18 0 01-.07 0 .33.33 0 010-.18zm.41 0h-.1a.85.85 0 010-.15.27.27 0 01.1.13zm.57-.1c.06 0 0 .06 0 0s.13-.12.2 0 0 .1 0 .14 0-.06-.08-.07-.06 0-.07 0a.21.21 0 00.1.06 1.27 1.27 0 00-.28-.06c.05-.01.07-.07.13-.12zm1.25 1.87l.08-.08c-.07 0 0-.11-.06-.12a.2.2 0 00-.15 0v-.08a1.53 1.53 0 00-.55-1.18h.06s.12-.11.14-.18 0 0-.07 0 0 .09 0 .1v-.07c0-.07-.09 0-.13.08a1.51 1.51 0 00-.26-.18s.08 0 0-.06.11 0 .14 0v.05s0-.05 0 0 0 .11.08.06.12 0 .15 0 0 0 0-.08c0 .09-.11-.07-.12 0v-.15c0-.09 0 0 0 0h-.13c-.03 0 0 0 0 0v-.09a.08.08 0 00-.09-.05s-.08 0 0 0h-.25a.18.18 0 01-.09 0h-.47s-.08 0-.13.06-.12 0-.19 0a.1.1 0 00-.13 0s0 .08-.11.07 0 0 0 .05 0 0-.09 0-.07.1 0 .17 0 .06 0 .09-.07 0-.08-.06v.23c0-.01-.14.21-.25.3.11 0-.07 0 0 .08s0 0-.06 0-.08.09 0 .16.07.1.14.12 0 .05 0 .08-.06 0-.06 0-.06.14 0 .15a.2.2 0 000 .11c.07 0 0 0 0 .08v.14c.1 0 0 .09 0 .14s-.12.11-.12.15.06 0 .09.05-.08 0-.08.06.14.08.1.15 0 0 .07 0 0 .15.05.14.08.08.13.07 0 .09 0 .11.09.05 0 .09l.08.08a.1.1 0 00.12 0s.06.1.17.08v.05l.06.07a.15.15 0 00.12.07c.06 0 .1.06.14.1s.09.06.14 0h.08c-.08 0 0-.08 0-.11s.06.07 0 .07.09 0 .07.11a1.79 1.79 0 00.51.07v-.07h.05s.06 0 .06-.06v.09s0-.06.07-.07h.07s.07 0 0-.06.1 0 .16 0 .11-.07.13-.06a.18.18 0 01.1-.11s-.06 0 0-.07.1 0 .19.05 0 0 0-.06v-.07c0-.02 0 0 .08 0a.38.38 0 01.1-.12.3.3 0 00.13-.12h-.05.1s-.07-.08 0-.08a.59.59 0 00.16-.3.75.75 0 010-.16.54.54 0 01.1-.16h-.07zM122.18 48.2zM123.6 45.54zm-.15-.27M123.3 45.02s-.11 0 0 0m.11.33zM123.3 45.36zm-1.08-.22v-.1zm2 1.56zm-.07-.07h.06"/>
      <path class="cls-10" d="M123.57 59.83l.21-.15-.27.11zm2.56-1.83a2.81 2.81 0 01-.19.39s-.13 0-.21.09l-.13.11-.13.12.21-.17c-.05.05 0 .07 0 .13l-.22.15-.16.13a.88.88 0 01-.4.19l-.12.1-.12.09c-.1 0-.08 0-.06-.06a2.24 2.24 0 01-.74.41.73.73 0 00.51-.18l.26-.15a.57.57 0 01.25-.06 1.38 1.38 0 01.24-.14l.26-.14.25-.16a1.3 1.3 0 00.22-.19 1.4 1.4 0 00.12-.18 1.27 1.27 0 00.13-.19c.06-.13.1-.25 0-.29m-2.54-5.23s.06 0 .09-.05z"/>
      <path class="cls-10" d="M126.29 54.77l-.07-.14s0-.13.14 0 0 0 0 .07l.07.06c0 .09-.09 0-.14 0zm-1-1.25a1.16 1.16 0 01.35.18c.15.12.29.23.38.21s.18.25-.08.07a.57.57 0 01.19.37 1.42 1.42 0 000 .24 3.06 3.06 0 00-.87-1.07zm-.28-.17a.26.26 0 01.17.09l-.18-.1zm-.2-.11a2.07 2.07 0 00-1.4-.11 3.69 3.69 0 01-.43.13 1 1 0 00.24-.09l.16-.06a.48.48 0 01.17 0 1.2 1.2 0 01.2 0 1 1 0 01.23 0 1.49 1.49 0 01.52 0 3.41 3.41 0 01.46.09.44.44 0 01-.11.04zm-2.47.17c-.11-.06-.41 0-.21-.1.25 0 .19-.13.5-.09a.46.46 0 00-.18.16l.33-.05-.49.11zm-.13 0h-.2s.08 0 .2-.06zm-1 .17a1.46 1.46 0 01.56-.09l-.56.09zm-5.58.24h-.28l.06-.05h.32c-.03.04-.05.05-.06.07zm-2.23-.09h-.13a.35.35 0 00.13-.05s.07.05.04.07zm13.43 1.83a4.9 4.9 0 00-.47-1.31l.08.06-.23-.18a1 1 0 00-.21-.44.75.75 0 00-.42-.33h.06a5.56 5.56 0 00-.5-.39 1.91 1.91 0 00-.71-.29c-.11.06-.28 0-.46 0a.69.69 0 00-.25 0h-.08c-.03 0 0 .06-.05.1a1.33 1.33 0 00-.19.14h-.09l-.1-.07h.13l-.07-.09a.55.55 0 00-.1.08l-.07.06-.16.07a1.88 1.88 0 01-.33.05h-.29a.57.57 0 00-.25.11c-.21 0-.33.14-.48.2s.08-.11.15-.16a8.61 8.61 0 01-1.39.2c-.14.09.07.1-.08.16s-.22-.06-.07-.11c-.36-.1-1.16.18-1.72.08-.28.09-.1.12-.54.19.1-.06-.11-.18.15-.19v-.06a2.75 2.75 0 00-1.25.15c0-.12-.08 0-.25-.09-.16.1-.24 0-.36 0l-.32.07c-.05 0-.13 0-.14-.07v.08c-.17 0-.08-.11-.29-.09v.06c-.13 0-.35.05-.38 0h.07c-.2-.13-.54 0-.8 0l.07.14c-.26 0-.16 0-.15-.08-.17 0-.2 0-.42-.07s-.06 0-.1.08h-.22l.15-.06c-.36.18-.86-.09-1.11.07-.12 0 .13-.07 0-.1a2.25 2.25 0 00-.64-.07 1.36 1.36 0 01-.59-.1 6.28 6.28 0 00-.86-.24l-.47-.1h-.23l-.25-.07a2.74 2.74 0 00-.5-.07 1.48 1.48 0 01-.32.08l-.19.05a.51.51 0 00-.16.09V53c-.21.06-.42.18-.55.2v-.06a2.19 2.19 0 00-.67.43 1.35 1.35 0 00-.37.49c-.09.14-.14.1-.2.11a1.53 1.53 0 00-.24.64l-.12.14v.13c0 .1-.08 0-.13.08a4.72 4.72 0 01-.1.64 4.65 4.65 0 00-.09.54h.05c0 .12 0 .35-.08.21a1.7 1.7 0 000 .4 2 2 0 00.1.35c.1.24.19.49.37.84 0 .09.07.24.17.39s.24.27.22.37l.18.16.15.13a.56.56 0 00.32.17c.06.15.47.33.79.42v.06c.15-.06.66.16.81.07s-.07 0-.12 0a.25.25 0 00.22.08.5.5 0 01.27 0v.08h.26l.28.06.63.1c.43.06.91.11 1.35.2.24 0-.08-.13.24-.09.09.07-.17.11 0 .15a.6.6 0 01.4 0s0 .06-.15.08c.11.06.5-.06.72.05 0 0 0-.06.08-.07.34-.09.76.13.79.07s.12 0 0 0c.12 0 .3 0 .26.08a.53.53 0 01.22-.08l-.05.06c.06 0 .12-.05.18-.06h-.09c.14.06.42-.08.41 0l.26.06a.65.65 0 01.39-.08c.07.13.45 0 .67 0v.05c.18-.06.62 0 .54-.06.17 0 .4 0 .32.07.14 0 .43 0 .51-.12l.28.11c.16-.17.56 0 .57-.14.16 0 .12.06.23.09a1.36 1.36 0 01.66-.09c.23 0 .48-.1.8-.14l.08.13c.16 0 .19-.14.35-.13a1.36 1.36 0 01.49 0c.23-.13.41-.11.61-.25.2.1-.27.1-.1.18a2.87 2.87 0 001-.22v.08c0 .08.17-.12.32-.25s.23-.25.19-.31c1.75-.53 3.2-1.45 3.2-3.22a3.76 3.76 0 00-.23-1.28v.05a1.64 1.64 0 01.2.42h-.05v.36c0 .1.07.2.09.3a.74.74 0 010 .19h-.06a1 1 0 01.09.65 1.62 1.62 0 010 .22.87.87 0 010 .23c-.14.19 0-.32-.15.12l-.06-.15a1.89 1.89 0 01-.06.18.54.54 0 01-.06.11l-.06.1-.06.12h.07v-.05a.58.58 0 00-.14.12.35.35 0 00-.06.14 2.56 2.56 0 01-.12.32c.08-.1.14-.16.14-.27s.08 0 .13-.07a1.8 1.8 0 010-.19h.09v-.32c.08 0 .13-.28.17-.12a1.24 1.24 0 000-.16v-.13a.57.57 0 000-.29c.08-.14 0 .26.06.1a4.12 4.12 0 000-.7c0-.23 0-.46-.09-.68z"/>
      <path class="cls-8" d="M118.34 56.35v-.05.05zm-6.21-.03zM112.15 56.25h.05c.05 0 0 0 0-.06M110 56a.11.11 0 000 .05m9.88.32zm1 .09h-.12v.06z"/>
      <path class="cls-8" d="M122.14 57.63l-.13-.1c.34-.11.52 0 .8-.17s0-.25.56 0l-.09-.06s.07-.1.13-.12l.15-.06.07.07s0-.21.13-.15c-.07-.1 0-.08 0-.13.08 0 .21-.09.24-.16h-.06l-.14-.06a1.59 1.59 0 01-.27-.17c.12 0 0 0 0-.05-.07 0-.09-.09-.12-.1h-.09v-.06c0 .13-.36-.1-.42-.09s-.14.05-.23 0-.08-.08-.15-.11 0 .06 0 .07l-.11-.06v-.07c0-.07-.24-.08-.24 0s-.13-.08-.18-.08.06 0 .06.06-.39-.15-.38 0v.3a.07.07 0 010-.07c-.07.06-.19 0-.28 0l.14.25c-.09 0-.26-.15-.26-.06l-.06-.09c-.19-.14-.1.09-.17 0l-.1-.08h.06a.88.88 0 01-.19-.12.09.09 0 01-.09.09c-.09 0-.14.08-.28 0v.1h-.1v-.08l.39-.08c-.07 0-.14.06-.19.06s-.1-.09-.06-.15v.08a.76.76 0 01-.49 0s-.09.06-.11 0a.68.68 0 01-.42-.13v.1s-.09-.14-.1 0h-.18c-.1 0 0 .08-.11 0s0 .12-.08.1l-.07-.13c-.1-.07-.11.07-.25.08a.21.21 0 01-.08-.26c-.05.13 0 .08-.1.15s0-.06 0-.11 0 .05-.1.05a.92.92 0 010 .26.13.13 0 01-.19 0v-.05h-.07v-.06h-.25c-.14-.1-.24 0-.39.06v-.07c-.06-.07 0 .11-.08.07v-.08c0 .11-.07 0-.11-.06v.11h-.07c-.08 0 0-.14 0-.2l-.05.08V56c0 .11 0 0-.1 0s0-.06 0-.07l-.11.14.06-.07v.15c-.07.11-.1 0-.15 0-.08 0-.09 0-.14-.05s0 .06 0 .08v-.07c0-.02-.06.15-.11.11v-.11.1h-.31v-.09c0 .12-.12 0-.12.1 0-.08-.17.06-.14-.11-.15 0-.23.14-.41.05s-.24-.1-.36-.12-.38.09-.62.12c-.12-.21-.35 0-.5-.09v.08c-.09-.13-.25 0-.38-.13h-.07v.07c0 .07-.13 0-.11-.1 0-.1-.13 0-.16-.06v.11h-.07c-.36.19-.47-.16-.81 0 .06-.1-.07.06-.06-.07s-.15 0-.22.05h-.11c.09-.15-.1.12 0 0-.28-.16-.68-.1-1-.21-.08 0-.2 0-.25-.07s-.16.08-.19.08-.12-.09-.09-.08-.18.13-.27.05-.32.07-.29-.08c-.11-.13-.27 0-.39-.11l-.4.37v.52l.18.46.74.07.55.27 1.43.17.11-.1c.26.24.64 0 .93.23v-.1c.09 0 .08.06.1.08a21.27 21.27 0 012.32.14c.07.07.28 0 .33.11a1.41 1.41 0 01.72-.1h.11c.13-.09.32 0 .48 0 .89 0 1.69-.23 2.58-.18.42.12.86-.16 1.34-.09a2.58 2.58 0 001.1-.19M121.39999999999999 56.47zm2.52.6h.06m-.24-.52"/>
    </g>
  </g>
</svg>
