<svg xmlns="http://www.w3.org/2000/svg" viewBox="0 0 168 84">
  <defs>
    <mask id="mask" x="84.5" y="0" width="83.06" height="84" maskUnits="userSpaceOnUse">
      <g id="prefix_b" data-name="prefix b">
        <path id="prefix_a" data-name="prefix a" class="cls-1" d="M84.5 0h83.06v84H84.5z"/>
      </g>
    </mask>
    <mask id="mask-2" x="137.97" y="28.8" width="30.03" height="29.3" maskUnits="userSpaceOnUse">
      <g id="prefix_d" data-name="prefix d">
        <path id="prefix_c" data-name="prefix c" class="cls-1" d="M138 28.8h30v29.3h-30z"/>
      </g>
    </mask>
    <mask id="mask-3" x="84" y="27.86" width="29.06" height="29.3" maskUnits="userSpaceOnUse">
      <g id="prefix_f" data-name="prefix f">
        <path id="prefix_e" data-name="prefix e" class="cls-1" d="M84 27.86h29.06v29.29H84z"/>
      </g>
    </mask>
    <mask id="mask-4" x=".5" y="0" width="83.06" height="84" maskUnits="userSpaceOnUse">
      <g id="prefix_b-2" data-name="prefix b">
        <path id="prefix_a-2" data-name="prefix a" class="cls-1" d="M.5 0h83.06v84H.5z"/>
      </g>
    </mask>
    <mask id="mask-5" x="53.97" y="28.8" width="30.03" height="29.3" maskUnits="userSpaceOnUse">
      <g id="prefix_d-2" data-name="prefix d">
        <path id="prefix_c-2" data-name="prefix c" class="cls-1" d="M54 28.8h30v29.3H54z"/>
      </g>
    </mask>
    <mask id="mask-6" x="0" y="27.86" width="29.06" height="29.3" maskUnits="userSpaceOnUse">
      <g id="prefix_f-2" data-name="prefix f">
        <path id="prefix_e-2" data-name="prefix e" class="cls-1" d="M0 27.86h29.06v29.29H0z"/>
      </g>
    </mask>
    <style>
      .cls-1{fill:#fff}.cls-1,.cls-11,.cls-12,.cls-13,.cls-14,.cls-3,.cls-4,.cls-5,.cls-6,.cls-7{fill-rule:evenodd}.cls-3{fill:#b6b8dd}.cls-4{fill:#c5d9e7}.cls-5{fill:#221e1f}.cls-6{fill:#c4c5e3}.cls-7{fill:#7473c0}.cls-11{fill:#efe5dc}.cls-12{fill:#f9f4ef}.cls-13{fill:#937c77}.cls-14{fill:#e1d5cb}
    </style>
  </defs>
  <g id="레이어_2" data-name="레이어 2">
    <g id="레이어_8" data-name="레이어 8">
      <g mask="url(#mask)">
        <path class="cls-3" d="M138.4 52h.06a1.34 1.34 0 000 .22zm-.27-1.26c0-.62 0 0 .05.08.07.4-.03-.08-.05-.13zm0-11.72l.05.17-.05-.17c0-.14.05.42 0 .29-.07-.52-.09-.07-.15-.65 0-.17 0 0 .14.36zM113 47.54v-.18-.12c0 .54.07.07.11.67-.11.17-.11-.02-.11-.37zm-15.88 5.1l-.12-.29a2.82 2.82 0 01.14.3zm-3.3-2.89l-.07-.07.15.08zm-4.22-.22c0-.07.18 0 .56 0h-.56zm23.32-14.07v.08c.08.63-.03-.04-.05-.08zm-.24-1.21a1 1 0 000-.22l.08.22zm-2.57-4.45l.09.09.23.23c-.16-.12-.25-.22-.37-.32zm43.34 2.64l.13.27a1.92 1.92 0 01-.16-.29zm2.76 3.56v.07l-.13-.09zm4.07.41c.05.07-.17 0-.53 0a4.69 4.69 0 00.53 0zm6.65 14.11c-.14 0-.86-.05-1.26-.1h.3s-.16-.08-.47-.1h-.24c-.47 0 .13.06-.34 0-.26-.12-2-.09-2.41-.18-.32.07.88 0 .53.09a2.47 2.47 0 00-.51 0h.11c-1.42 0-2-.07-3.22 0h.05a3.28 3.28 0 00-.88.09c-.1 0 .22 0 0-.06-.78.18-1.58.08-2 .25 0-.05-.18-.05-.36 0a3.8 3.8 0 00-1 .33c-.9 4.07-5.06 7.41-8.52 7.29a11 11 0 01-2.42-.35H144.12l-.58-.19h-.05l-.63-.25a.37.37 0 00-.16 0c-.11-.07 0 0 0 0l-.39-.17a7.71 7.71 0 01-1.34-.91l.1.09-.15-.13-.16-.15a8.26 8.26 0 01-1-1.06 2.39 2.39 0 01-.22-.26 6.76 6.76 0 01-.42-.73c0-.1-.09-.21-.14-.31s-.09-.18-.13-.28-.08-.17-.11-.26a5.13 5.13 0 01-.32-1 11.09 11.09 0 01-.33-2.35 1.34 1.34 0 010-.2c0-.15-.06-.24-.09-.24a9.71 9.71 0 01.07 1.17c-.06-.35-.11-1-.14-1 .07-.37 0 .67.08.19v-.47c0 .16.06-.22.08-.3a8.25 8.25 0 01.44-2.07c.05-.15.11-.29.16-.43.08-.31.14-.59.07-.5.2-.46.25-.46.44-.84-.39.56.07-.11 0-.21.22-.37.11-.11.22-.27a.72.72 0 00.1-.24 1.21 1.21 0 00-.15.2c.1-.17.15-.21.15-.2.17-.17-.09.37 0 .31L140 44l.07-.1c.12-.17.25-.34.38-.5-.07-.06-.2-.06-.36.06 0 0 .32-.34.35-.36l.09-.08-.05-.06-.17-.1a2.47 2.47 0 01-.49-.39l.29.21-.63-.6s.31.19.19 0a12.71 12.71 0 00-1-1.22 6.46 6.46 0 00.72 1.07c0 .08-.56-.73-.58-.66a6.59 6.59 0 01-.4-1l-.06-.15.06.15c.07.17.17.36.14.23a1.78 1.78 0 01-.17-.58 4.48 4.48 0 00.69 1.11 6 6 0 01-.4-.88l-.4-.66c-.1-.45.06-.32.11-.22a8.85 8.85 0 01-.39-1.71V38c0-.21 0-1-.05-.89 0-.18.1-.34.12-.14 0-.26-.06-.52-.09-.79 0 .12.1.05.12.1 0-.32-.07-.55-.11-.35a4.89 4.89 0 01.24-.94c0-.18-.1 0-.14.12a4 4 0 01.2-.84 2.88 2.88 0 00.19-.64v.47l-.19.17c-.1.47 0 .4.11.37s.09-.32.14-.47a6.78 6.78 0 01.19-1v.2a2.7 2.7 0 01.44-1 7.23 7.23 0 01.91-1.13l.09-.09-.09.1a2.76 2.76 0 00.47-.39l.15-.15-.15.15c.45-.3.46-.57 1-.81-.43.27-.48.37-.44.38.3-.29 1.17-.73.95-.71.24-.11.45-.23.46-.17a7.3 7.3 0 01.94-.43c-.07 0-.13.08.16 0-.56.15-1 .46-1.33.54 0 .06.22 0 0 .17a11.47 11.47 0 012.21-1 6.58 6.58 0 011-.06l.17.07a.69.69 0 01.22 0h-.05.24-.06.06c-.05 0-.14.08-.32.11h.09c.46 0 1-.07.58-.13a5.43 5.43 0 01.56.09 5.71 5.71 0 011.36.11s-.18 0 0 .06a3.37 3.37 0 01.92.28 3.08 3.08 0 00.57.25c.44.17.2 0 .49.15 0 0-.05 0 0 0l.34.13c.12.09-.31-.13 0 .09a5.07 5.07 0 011.36 1c.61.58-.19-.33.31.18a1.88 1.88 0 00.35.55 2.44 2.44 0 01.42.43h-.06c.22.29.37.54.33.56a3.05 3.05 0 01.34.56c.3.47-.07-.42-.13-.54a5.69 5.69 0 01.5 1.13l-.23-.42c.4.95.51.84.58 1.32-.14-.32-.34-.69-.29-.49l.24.45c0 .06-.13-.26-.05 0l.28.5c0 .06 0 0 0 0l.07.15.14.08.35.22c-.13-.09-.18-.09 0 0s.36.12.53.18c-.16-.05 0 0 .23.14.72.19.6 0 1.16.18h-.18l.29.07c.07-.09 1.74.22 1.82.06.43.07 0 0-.52.06.15 0 .3.06.45.07h-.54a5.94 5.94 0 001.49 0c.23 0-.19.1.47.09.92 0-.18-.1.38-.11l.4.07c.71-.07 1.24 0 1.83 0h.24.22-.22c.63 0 1.32-.16 1.8-.19h.33l.86-.15c-.38.07-.36.11-.42.16.27 0 .39-.08.57-.11-.11 0-.22.06-.08.05.3-.06.6-.12.89-.2h-.24l.57-.1a42 42 0 00-83.06-.45 5.56 5.56 0 01.63 0h-.3s.17.07.48.1h.25c.48 0-.14-.06.34 0 .27.13 2.06.08 2.47.17.32-.07-.91 0-.55-.08h.52l-.11-.05c1.45 0 2 .06 3.29 0h-.06a4.09 4.09 0 00.91-.09c.1 0-.23.05-.05.05.79-.17 1.61-.07 2.08-.24 0 .06.2 0 .4 0a3.58 3.58 0 001-.33c.89-4.07 3.75-7.25 9.24-7.28a7 7 0 011.9.25h.16l.59.19c.22.08.43.18.64.28l.16.05c.11.06 0 0 0 0l.39.19a7.59 7.59 0 012.41 2.29 2.73 2.73 0 01.23.27 12.07 12.07 0 01.75 1.64 9.38 9.38 0 01.29 1.05 11.35 11.35 0 01.27 2.1v.48c0 .16.05.28.08.28 0-.37-.08-1.08 0-1.2.07.36.08 1 .11 1-.08.37 0-.69-.08-.19v.48c0-.17-.06.22-.09.3a8.56 8.56 0 01-.53 2.09l-.18.47c-.09.29-.15.53-.07.44-.23.46-.28.46-.48.84.41-.56-.08.11-.07.21-.23.37-.11.11-.24.27a1 1 0 00-.1.24l.16-.19c-.11.16-.16.2-.16.19-.18.17.11-.37 0-.32s-.25.36-.38.53l-.08.09c-.13.17-.26.34-.4.5a2 2 0 00.38-.08c.06 0-.24.13-.08.19l.08.08.14.12.25.2a2.16 2.16 0 01.46.45 2.16 2.16 0 00-.27-.25l.59.67s-.3-.22-.2 0a11 11 0 00.9 1.32 7.08 7.08 0 00-.64-1.14c0-.08.5.79.53.72a7.66 7.66 0 01.33 1 1.42 1.42 0 010 .16 1.42 1.42 0 000-.16c0-.17-.14-.38-.12-.24a2.16 2.16 0 01.13.6 4.86 4.86 0 00-.58-1.13 8.34 8.34 0 01.33.93l.33.65c.07.46-.08.31-.12.21a9.49 9.49 0 01.3 1.77v-.34.91c0 .17-.11.34-.13.14a5.34 5.34 0 010 .81c0-.12-.1-.06-.11-.11 0 .32 0 .56.09.36a5 5 0 01-.33.94c-.06.18.11 0 .15-.11a4.82 4.82 0 01-.28.83 2.34 2.34 0 00-.26.63v-.48l.21-.15c.14-.47 0-.41-.07-.38s-.12.32-.19.47a5.67 5.67 0 01-.29 1v-.2a2.83 2.83 0 01-.54.92 7 7 0 01-1.13 1.16l.09-.09a5.4 5.4 0 00-.69.5l.19-.15c-.48.28-.54.51-1.08.73.47-.23.53-.34.49-.35-.33.28-1.26.63-1 .64-.26.08-.49.18-.49.12a8.9 8.9 0 01-1 .34c.07 0 .13-.06-.17 0 .58-.09 1.1-.36 1.4-.41 0-.06-.22 0 0-.16a11 11 0 01-2.34.74 6.83 6.83 0 01-1 0l-.17-.08h-.23.06-.18s-.11 0 0 0 .14-.06.33-.08h-.09c-.47 0-1 0-.6.08-.19 0-.37-.1-.56-.14a6.91 6.91 0 01-1.38-.24s.18 0 0 0a7.36 7.36 0 01-1.46-.68c-.43-.24-.21 0-.48-.21l-.33-.18c-.11-.1.3.18 0-.09a5.17 5.17 0 01-1.25-1.21c-.54-.66.14.36-.29-.22a1.71 1.71 0 00-.29-.6 4 4 0 01-.38-.48h.07c-.17-.33-.33-.58-.28-.61a5.5 5.5 0 01-.3-.59c-.26-.5 0 .43.09.56a6.91 6.91 0 01-.41-1.16l.21.44a8.1 8.1 0 00-.36-.87c0-.06-.1-.05-.25-.24l.2.12a.17.17 0 01.1.08c0 .1.09.15.07 0s0-.11-.11-.13l-.2-.11s.24.13.06 0a2 2 0 00-.5-.19c-.06 0 0 0 0 0a4.87 4.87 0 00-.84-.28c.17 0 .21 0 0 0l-.58-.11c.17 0 0 0-.26-.09-.76-.13-.62 0-1.21-.09H93l-.3-.06c-.07.11-1.8-.11-1.88 0-.43-.07 0 0 .54-.07l-.47-.06h.55a6.25 6.25 0 00-1.52 0c-.23 0 .19-.1-.48-.08-.94.05.18.1-.38.12l-.42-.06c-.72.06-1.26.06-1.87.08a.69.69 0 00-.24 0s.14 0-.22.07l.22-.07c-.62 0-1.28.16-1.77.19a42 42 0 0082.41.78l-.65-.06z"/>
      </g>
      <path class="cls-4" d="M103.84 56.38c0 .45.22.19.18.2 0-.26-.15-.16-.18-.2m1.65 4l.46.46q-.2-.21-.36-.42zm2 2.37l-.23-.21-.22-.21a2.93 2.93 0 01-.37-.45.5.5 0 000-.12l-.37-.15a11.31 11.31 0 001 1l.26.23.24.22c.15.14.29.27.39.38a.94.94 0 00-.22-.33c-.11-.12-.27-.24-.42-.38M109.2 64l.39.23c0-.07.08 0 .1 0s-.09 0-.56-.28a.45.45 0 01.07.07m0 0c-.41-.24.21.22 0 0m2 .89c-.21 0-.42-.1-.63-.15a1.68 1.68 0 00.32.19c.12.06.2.1.09.09.33.08.46.1.48.07s-.1-.1-.26-.2m.65 0l-.33-.06s.13.07.33.06m-.64-.14H110.8h.35l.34.08c-.07-.07 0-.14-.31-.08m-.79-.48l-.58-.24q-.19-.07-.18 0s.07.09.21.18a4 4 0 00.62.3c-.29-.19-.67-.4-.07-.22M107.86 63c.15.1.54.57.58.5s-.17-.21-.26-.32a3.3 3.3 0 01-.32-.18m7.37 2.53s-.23-.12-.28-.18a4.2 4.2 0 01-.47.08c.24 0 .71 0 .75.1M115 65.25c-.1 0-.12 0-.09.07l.35-.07.34-.08h-.6m-4.12-.72c.22.06.45.09.67.14h.67l-.21-.05a10.63 10.63 0 01-1.13-.18m6.69.57a6.9 6.9 0 00.59-.43l-.26.18c-.1.08-.21.17-.33.25m2.08-.89a5.48 5.48 0 00.85-.72 3.75 3.75 0 01-1.07.57c-.17.22.42 0 .22.15M117 65a1.32 1.32 0 00.42-.06h-.32l-.27.08a1.3 1.3 0 00.17 0m.5-.23l.16-.06-.16.06M117.5 64.74l-.38.12.36-.12m-3.26.09c-.14 0-.1.09-.09.13s0 .1-.34.14h.35a1.84 1.84 0 00.32-.06c.16 0 .16-.1-.24-.16m1.77.11h-.36s.16.07 0 .14c.13 0 .26-.08.39-.12l.19-.06.18-.06h-.18zm.63-.12l.07-.07-.34.13.27-.06m3.26-1.24a5 5 0 01.74-.53c-.33.16-.66.34-1 .53 0 .07-.11.21.24 0m-1.29.68h.06-.06m4.94-1.56h-.06zm-4 .89a1.54 1.54 0 00-.52.36c.19-.12.38-.25.59-.37h-.07m1.63-.79c.14 0 .42-.1.44-.15l-.44.15m-2.44 1.41c.11 0 .09 0 0 0m0 0a1.94 1.94 0 00.29-.26 4.62 4.62 0 00-.4.27h.11"/>
      <path class="cls-4" d="M122.41 63.06l-.22.11a3.25 3.25 0 01.87-.15 1 1 0 00.21-.12l.13-.08c.07 0 .09-.07.09-.1a12 12 0 00-1.15.39zm-1 .1c-.66.35-.4-.61-.75-.34 1-.62-.25.23.56-.12l-.54.35a5.64 5.64 0 01.58-.25c-.05 0-.08 0 0 0a.1.1 0 010-.07c.32-.14.07 0 0 .07.33-.21.66.55 1 .37-.23.08-.51-.74-1-.46.08-.22.59.41.17.45M115 64.5s.12 0 0 0m-.28.17a.88.88 0 00.27 0h1.21l-.24-.1a3.74 3.74 0 00-.43-.11l-.16.07H115c-.28 0 0-.06 0-.11l-.32.09M118.55 63.58v.11c.31-.18.6-.38.89-.58l-.54.17h.07c-.27.13-.37.2-.4.25m5.08-.8c.15-.12.31-.23.48-.35l-.41.17a1.34 1.34 0 01-.07.18m1.29-.33l.16-.06.16-.06h-.3zm22.8-9.47c.14-.4.35-.86.19-.81l-.17.13a2.44 2.44 0 010 .68m-9.63 12.27h-.25a.26.26 0 00-.16 0 5.73 5.73 0 001.09.16l-.37-.08-.31-.07m.38-46.2c-.22 0-.31.06-.3.09.22 0 .34-.06.3-.09m.83 46.34a4.5 4.5 0 01-.53 0 4 4 0 00.61.05 2 2 0 00.63-.08h-.71M104.21 53v-.47a2.59 2.59 0 000 .47m25.9 9.58c-.26 0-.05 0 0 0m-1.11-.8a.23.23 0 01-.13.06.18.18 0 00.13-.06m.71.67l.32.11a1.51 1.51 0 00-.32-.11m0 .08l-.22-.06.22.06M130.46 62.67l-.41-.11s.07 0 0 0l.36.08"/>
      <path class="cls-4" d="M146.76 56.25v-1.39a4.07 4.07 0 01.53 1.4l-.12.21.14.84a11.89 11.89 0 01-.55-1.06zm-.19 5.5l-.18.25-.18.23a3 3 0 01-.31.31c-.06 0-.1.05-.14 0a5.16 5.16 0 00.44-.84l.29.07-.24-.19a6.92 6.92 0 00.28-.88.55.55 0 01.47.3 6.36 6.36 0 01-.43.75zM143.1 64c0-.06-.13-.08-.22-.09a6 6 0 00.81-.36 2.37 2.37 0 01-.59.45zm-4.94.61a4.34 4.34 0 01-1.79 0c-.57-.14-.65-.26-.63-.3s.14 0 0-.07c-.47-.22-.79-.4-1.05-.53s-.47-.21-.66-.29a3.57 3.57 0 01-.55-.28c-.19-.13-.4.65-.66.39s-.13-.32 0-.35.25 0 .24-.12c.37.21.59-.52.78-.31a5.3 5.3 0 00.59.57c-.17-.16-.32-.33-.48-.5a5.2 5.2 0 01.93.65l-.19-.2a6.23 6.23 0 003.8 1.27h-.05zm-5.49-1.93c.33.32.21.16 0-.04zm-9.28-.68l-.41.07c.32-.11.67-.19 1-.28a.93.93 0 01-.2.08 3.17 3.17 0 01-.43.13zm-17.45-39.14l.14-.13c-.17.38-.15.27-.14.13zm41 9.15l.13 1.05c0 .12-.12 0-.22-.15 0 .07 0 .14.06.19s-.08.2-.13.2v-.51l.07.12-.07-.26v-.22c.05-.17.11-.32.14-.43zm.17 14.82c-.08-.06-.2 0-.33 0v-.65zm.51 7.41a1.41 1.41 0 010-.68.17.17 0 000 .07v-.12l.09-.39a1.65 1.65 0 00-.09.33 7.92 7.92 0 00-.07-.87l.18-.14v-.08c.06-.32-.09-.25-.23-.08a1.91 1.91 0 00-.11-.43c.3-.26-.09-.86.22-1.21-.15-.22-.12-1.63-.44-1.8 0 0 .06-.11.07.07a3.06 3.06 0 000-1l.23-.16-.31-.79c.14-.48.22-.68.4-.2-.27-1.15-.1-.93-.37-1.91l.15.05c0-.35-.21-.91-.09-1.12.29-.79 0-3.87.31-5.88-.44.39.19-.94-.15-1 .11-.11.17-.39.26-.07-.11-1 .16-1.54-.13-2.25.11-.11.16.22.22.12s-.09-.33 0-.44.09.16.13.32c0-1-.34-1.15-.64-1.23a1.36 1.36 0 00-.07-1.18c.1-.19.2-.49.24.16 0-.37.14-2.24-.1-2.28a1.35 1.35 0 000-.6v-1.7.22c-.29-.32-.06-.67-.1-1.32 0-.19 0-.34.06-.46s0-.23 0-.31a1.91 1.91 0 000-.32 1.69 1.69 0 010-.32v-.78l-.16.11c-.21 0-.21-.37-.24-.81a2.61 2.61 0 00-.42-1.36l.06.33a2.13 2.13 0 01-.28-.93c-.07-.37-.26-.47-.44-.69a1.09 1.09 0 00-.28-.35 1.09 1.09 0 01-.92-.32 3.83 3.83 0 00-1.3-.6l-.48-.15-.48-.13-.46-.14a2.08 2.08 0 01-.4-.15c.2.14.39.27-.13.22s-.91-.22-1.43-.32a4.06 4.06 0 00-.76-.07 2 2 0 00-.35 0l-.3.08c-.1 0-.14 0-.15-.06l-.58.1c-.23.06-.47.1-.7.18l-.33.12-.29.13a1.63 1.63 0 00-.36.25.72.72 0 00-.38 0l-.23.09a1.41 1.41 0 00-.24.13c-.33.2-.36-.15-.62.15s-.5.58-.69.77-.35.28-.45.2a12.19 12.19 0 01-1.14 1v-.07l-.5.34c-.14.1-.27.17-.36.24l-.14.11-.12.1-.11.09-.11.09c-.23.05-.09-.05-.09-.09l-.25.08-.22.05h-.4l-.62.12-.28.07-.3.08-.35.09c-.13 0-.27.08-.44.11l-.14-.16h-.2a2.06 2.06 0 01-.33 0h-.42a4.81 4.81 0 01-.49-.07c-.69-.1-1.48-.27-2.18-.43a.26.26 0 01.18 0 3.51 3.51 0 01-1.15-.49 6.94 6.94 0 01-1-.81 11.35 11.35 0 00-.84-.77 2.49 2.49 0 00-.4-.24.92.92 0 00-.38-.09l-.52-.32c-.18-.1-.35-.2-.54-.29a2.49 2.49 0 01.34.27.54.54 0 01.12.14c0 .06 0 0-.13 0s-.47-.15-.26.07a5.2 5.2 0 01-.69-.55c-.08-.08-.12-.13-.1-.15s.1 0 .26.09l.08.09c.22-.06-.17-.34-.65-.58l-.35-.16-.33-.14c-.19-.08-.31-.14-.28-.18a11.45 11.45 0 00-2.36-.41H112.81a10.54 10.54 0 00-2.31.48 8.6 8.6 0 00-2.06 1h.45c-.14.08-.28.18-.42.28s-.26.2-.4.3-.22.09-.23 0 .09-.17.38-.39a1.32 1.32 0 00-.57.49 1.1 1.1 0 00-.21.43c-.26.23-.37.32-.41.31s0-.1 0-.21.36-.53.21-.37l-.2.21-.19.22.11-.08a5.21 5.21 0 01-.65 1.16c-.17.2-.24.24-.28.25s-.07 0-.13.07-.06 0-.17.26-.39.7-.55 1l.19-.18.21-.17c-.13.5-.45 1 0 .58a1.49 1.49 0 00-.26.34 5.42 5.42 0 00-.27.54 9 9 0 00-.43 1.41c-.11.5-.17 1-.22 1.4s-.07.7-.1.81a7.78 7.78 0 01.11 1.06v1.14c0-.21.29-.33.26.38-.51-.26-.22 1.31-.59 1.89.24-.52.06 2 .41 1.22 0 .59-.2 0-.31.49.19 1.41-.13 3.12-.06 4.87.06 0 .16-.27.26.11l-.33.93c0 .34.38.31.15.95.06-.09.14-.23.16 0-.32 3.43.27 7-.34 10.49.13-.47.14-.15.15.21 0-.24.16 0 .25 0L104.2 54c.25.27 0 1.57.26 1.72v-.46c.16.34.33 0 .52-.27v1.44c0 3.72 4 8.1 9.31 8.1 3.45 0 4.82-.74 7.41-1.92l.07.05c.3-.13.5-.27.31-.23.27-.11.56-.21.86-.31-.24.14-.23.27-.09.37a1.79 1.79 0 00.72.23s0-.11.55-.34h-.72c-.26 0-.44 0-.21-.11a2.13 2.13 0 01.69-.19 4 4 0 00.41 0c-.19 0 .05-.16.33-.27a3.21 3.21 0 00.37-.18.22.22 0 00.1-.09c.42-.06.86-.1 1.34-.13l.16.16.25-.15h-.35 1a13.92 13.92 0 012.93.27v.07c0 .07.33 0 .48.09s0 .11-.25.1-.4 0-.12.08c-.65 0-1.36 0-2.25-.11l-.16-.21a1.07 1.07 0 00.33.09h.52a3.94 3.94 0 01-.89-.13 4.92 4.92 0 00-.52 0 .76.76 0 00-.41.1l.32.06.32.08c-.32 0-.68.13-1.06.2a5 5 0 01-.56.09 3.68 3.68 0 01-.58.06c.19.08.23.07.3.06a1 1 0 01.45.08c-.13-.06-.07-.1.09-.13a5.08 5.08 0 01.62 0c.47 0 .9 0 .51-.15a2.73 2.73 0 00.79.21 2.86 2.86 0 01.89.23c0-.07-.23-.16.39 0a.33.33 0 01.14 0 1.06 1.06 0 01-.3-.14 2.37 2.37 0 01.85 0l.48.08h.35c.34.15-.17 0 0 .15a4.46 4.46 0 01.51.07c0 .07.17.23.25.33s.05.09 0 .1a.28.28 0 01-.11 0l-.23-.07c.11.06.22.1.33.17l.15.08.16.1c.15.14.34-.64.53-.48a4.68 4.68 0 00.59.42c.27.27.94.52.56.39a8.74 8.74 0 001.29.74 5.68 5.68 0 001.11.43l.29.07.3.05h.6c.8.09 1.6.1 2.43.19h.37l.41-.06 1-.14.19.09c.32-.08.8-.17 1.24-.29a2.35 2.35 0 00.91-.41 1.48 1.48 0 00.37-.07 2.92 2.92 0 00.46-.2 4.76 4.76 0 001-.72c.31-.3.59.31.81 0s.39-.63.53-.87l-.16-.1a5.41 5.41 0 00.55-2.15h-.17a10.15 10.15 0 01.13-1.3v-.76-.78a.89.89 0 010 .52c.39-1.25-.27-2.64 0-3.78z"/>
      <path class="cls-4" d="M127.31 62.41h.6a2.69 2.69 0 01-.54-.06s.13.09-.06.09m-1.2-.42a4.61 4.61 0 00.62-.1c0-.06-.14-.08-.3-.07a4.9 4.9 0 00-.59.06h.08c0 .09 0 .12.19.11m-.77-.05c0 .08.17 0 .4 0h-.4m5.62.77c-.16-.09-.18.13-.26 0s0 0 .07.06h.52s-.09-.07-.33-.13m-1.38-1h.28l-.34-.08c-.12 0-.23-.05-.35-.06s-.09 0-.2 0H129.58m-1.18-.1h.6H128.43m8.37 2.63c-.2 0-.49-.08-.4 0s.26.07.4.09l.39.06c.05 0 0 0 0-.07l-.34-.09M104 54.93l-.08.53.13-.34zm0 1.13l.23.32a.81.81 0 010-.44l-.25.12z"/>
      <path class="cls-5" d="M120.54 37.16a1.47 1.47 0 11-1.47-1.58 1.52 1.52 0 011.47 1.58m.23 0s-.06 0 0 0m-.11-.26zm0-.23c-.06 0 0 .08 0 .13h.05s-.07-.1-.06-.14M120.67 36.38s.07 0 0 0m-.1.22s0-.05 0 0m0-.49v-.06m0 .2h.07l-.08-.05zm0-.37zm-.06-.08a.11.11 0 00-.08 0v.06M120.46 36.03"/>
      <path class="cls-5" d="M120.47 36.29h0m-.07-.12zm0 0zm-.05-.2h-.06v.06m-.24-.19zM120 36h.08s.11-.1.13-.18 0 0-.06 0 0 .1 0 .1v-.07c0-.07-.09 0-.12.08m.27-.09v-.07.07z"/>
      <path class="cls-5" d="M120.29 35.92H120.28c.08 0 0 0 0-.06v-.05h-.07l.05.06m0 .42h.05v-.09l-.07.08m0-.18v.05m-.14-.35h-.07m-.07-.05zM118.2 35.63h-.07M119.3 35.34a.09.09 0 00-.06 0s0 .06.06 0M119.19 35.34h0M118.17 36.26zm0 .06v-.06l-.1-.07.09.13"/>
      <path class="cls-5" d="M118.14 38h.09c.02 0-.08-.09-.19 0 0-.07-.09 0-.11 0h-.08.07c.01 0 0 0 0-.12.06 0 0-.06.06-.11s-.08.11-.13.08 0 0 0-.06h.06-.09c-.03 0 0 0 .08-.07s-.07.05-.09 0 0-.07 0-.12 0 0 .06 0h-.08c-.02 0 0 0 0-.05s.05 0 0-.07h.07l-.1-.11s-.1 0-.14-.07a.19.19 0 010-.07h.09a.16.16 0 00.1 0h.05l.06-.06c-.06-.07-.14-.15-.13-.25s.07 0 .12.06 0 .07 0 .11h.05V37h.07c.07 0 0-.07 0-.12v.07c0 .07-.08-.1 0-.11s0-.07 0 0 .1-.16 0-.22l.09.08a1.15 1.15 0 01-.14-.27c0 .06.19.14.19.21s-.09 0-.08-.07 0 0 .13 0-.09-.09-.07-.1l.08.09v-.12s.06.07.09.09 0 0 0-.05c.06 0 0-.16 0-.2s.05.13.09.12a.91.91 0 010-.16.26.26 0 010-.18V36v.37c0 .09 0 0 .06 0h.08v-.13.1a.24.24 0 010-.12s0-.08.06-.09 0 .11 0 .13 0-.06.05-.05 0-.1.08 0 .06.07.06 0a1.12 1.12 0 01-.11-.34.27.27 0 01.13.08v.19a.43.43 0 010-.05s0 .05 0 0 .06 0 0-.06 0 0 .08 0a.17.17 0 01.06-.16h.17c.06 0 0 0 0 .07v.07c0 .07.06 0 .09-.06s-.07 0-.1 0a.21.21 0 01.16-.18c.06 0 0 0 0 0s.13-.12.21 0 0 .1 0 .14-.06-.06-.09-.07-.06 0-.07 0 .17.06.23.14.07 0 0-.06.11 0 .14 0v.05s0-.05 0 0 0 .11.09.06v-.33h.15c.02 0 0 0 0-.08 0 .09-.1-.07-.11 0v-.15c0-.09 0 0 0 0h-.13c-.03 0 0 0 0 0v-.09a.12.12 0 00-.1-.06s-.07 0 0 0h-.09a.19.19 0 00-.13 0 .2.2 0 01-.13 0 .16.16 0 01-.1 0h-.37s-.08 0-.13.06-.12 0-.19 0h-.12c-.03 0-.06.08-.11.07s0 0 0 .05 0 0-.09 0-.07.09 0 .16a.06.06 0 000 .06v.09c0 .03-.07 0-.08 0s0 .06 0 .16v.07c0-.01-.15.21-.26.31.11 0-.06 0 0 .08s0 0-.06 0-.07.09 0 .16.06.1.14.12 0 0 0 .08 0 0-.06 0-.06.14 0 .15a.41.41 0 000 .11c.07 0 0 0 0 .09v.14c.1 0 0 .09 0 .14s-.11.11-.11.14.06 0 .09 0-.08 0-.08.05.14.09.1.16 0 0 .07 0 0 .15 0 .15.09.07.13.07 0 .09 0 .11.09.05 0 .1l.07.07c0 .06.08 0 .12 0s.07.09.17.08 0 0 .06.07a.16.16 0 00.12.08c.06 0 .1.05.15.1s.09.06.14 0h.07c-.08 0 0-.07 0-.1s.07.07 0 .07c0 .08.1.06.08.11a1.91 1.91 0 00.52.07v-.06h.06v.06c0 .06.06 0 .06-.06v.08s0-.07.07-.08h.07s.07 0 0-.07.1 0 .16 0 .11-.07.13-.06.06-.08.11-.11-.06 0 0-.06.1 0 .19 0 0 0 0-.06v-.07c0-.01 0 0 .08 0a.27.27 0 01.1-.11.4.4 0 00.13-.13h.1s-.07-.07 0-.07a.62.62 0 00.16-.31 1.09 1.09 0 010-.17.7.7 0 01.1-.16h-.07l.08-.09c-.06 0 0-.1-.06-.11h-.25c-.09 0 0 0 0 .07s-.06 0 0 .09 0 0-.05 0 0 0 0 .07c0 .1-.06.13-.12.22s0-.06.09 0-.07 0-.09.08a.07.07 0 01-.09 0h-.07c-.07 0 0 0 0 0v.2a.35.35 0 00-.08.13c0 .08-.06 0-.11.09a.06.06 0 010 .06s-.06 0 0-.06 0 0 0 .15V38.2c0-.09-.08.13-.16 0 0 .1.09 0 .07 0s0 .08 0 .08-.08-.1-.14-.08 0 0-.08 0 0 0 0 .08h.06s0 .12-.12.08.07 0 .1-.09-.06.07 0 0v.05h-.06v-.11c0 .05-.06 0-.09 0s0 .05 0 .09 0-.12-.14-.11 0 0 0 .07 0 0-.07 0c-.06 0 0 .09-.1 0v-.05h-.09c-.03 0 0 .08-.06.07s0-.05 0 0 0 0-.07 0h-.08s0-.07.07-.07h-.07v-.06h-.13c-.02 0 0 0 0 0s0-.09-.1-.09v-.07s0 .09-.1.06 0 0 0-.08-.12 0-.1-.05"/>
      <path class="cls-5" d="M118.37 38.23zM119.74 35.47s0-.05 0 0-.11 0 0 0M119.73 35.77zm-.48-.27h-.05m.09.16v.06zm-.12 0s-.06 0 0 0m-.59-.07v-.1zm-.35.41v-.05.07m2.39 1.2zm-.07-.07h.07-.06m-2.56.35zm.09.33zm.22.19s0 .07 0 0m14.45-.86a1.48 1.48 0 11-1.48-1.58 1.52 1.52 0 011.48 1.58M132.88 36.9zm-.05-.23c-.06 0 0 .08 0 .13s-.07-.1-.06-.14m.03-.28h-.06m0 0s.07 0 0 0M132.74 36.67s0-.05 0 0m0-.49a.13.13 0 010-.06m0 .2h.08l-.08-.05zm0-.37zm-.06-.08h.05a.15.15 0 00-.09 0v.06M132.67 36.1"/>
      <path class="cls-5" d="M132.68 36.309999999999995h0m-.07-.12zm0 0zm-.05-.2v.06m-.2-.19zM132.14 36.02h.08s.11-.1.14-.18a.08.08 0 01-.07 0v.03c0-.07-.09 0-.13.08h.05m.27-.09v-.07h-.06l.06.07z"/>
      <path class="cls-5" d="M132.48 35.92H132.47c.03 0 0 0 0-.06v-.05h-.07v.06m.06.42h.05v-.09l-.07.08m0-.18h-.06.05m-.14-.35h-.07m-.07-.05zM130.22 35.61h-.07M131.32 35.32a.09.09 0 00-.06 0s.05.06.06 0M131.38 35.34h0M130.29 36.26zM130.31 36.29v-.06l-.1-.07a.64.64 0 00.1.13"/>
      <path class="cls-5" d="M130.33 38h.09c.02 0-.08-.09-.19 0 0-.07-.09 0-.11 0h-.13.07c.11-.08 0 0 0-.12.06 0 0-.06.06-.11s-.08.11-.12.08 0 0 0-.06h.06-.09c-.04 0 .05 0 .08-.07s-.06.05-.08 0 0-.07-.06-.12 0 0 .06 0h-.13c-.02 0 0 0 0-.05v-.07h.16l-.1-.11h.05c-.05 0-.1 0-.14-.07s0-.05 0-.07 0 0 .05 0h.09a.16.16 0 00.11 0l.06-.06a.41.41 0 01-.13-.25s.07 0 .13.06 0 .07 0 .11V37h.07c.07 0 0-.07 0-.12s.06 0 0 .07-.08-.1 0-.11 0-.07 0 0 .1-.16.05-.22l.08.08a1.69 1.69 0 01-.13-.27c0 .06.19.14.19.21s-.09 0-.08-.07 0 0 .13 0-.09-.09-.07-.1l.08.09v-.12s.06.07.09.09 0 0 .05-.05c.06 0 0-.16 0-.2s.06.13.09.12a.91.91 0 010-.16.26.26 0 010-.18V36h.05c.05 0 0 0 0 0h.08v-.13a.47.47 0 00-.05.1.16.16 0 010-.12.09.09 0 01.05-.09v.13c0 .02 0-.06.05-.05s0-.1.08 0 .06.07.06 0a.88.88 0 01-.1-.34s.1 0 .12.08 0 .14 0 .19a.43.43 0 010-.05s0 .05 0 0 .07 0 0-.06 0 0 .07 0a.17.17 0 01.06-.16h.18c.07 0 0 0 0 .07v.07c0 .07.06 0 .09-.06s-.06 0-.09 0a.2.2 0 01.15-.18c.07 0 0 0 0 0s.13-.12.21 0 0 .1 0 .14-.06-.06-.09-.07-.05 0-.06 0 .17.06.22.14.07 0 .05-.06.11 0 .14 0v.05s0-.05 0 0 0 .11.08.06v.04h.16c.03 0 0 0 0-.08 0 .09-.1-.07-.11 0v-.15c0-.09 0 0 0 0h-.12c-.02 0 0 0 0 0v-.09h-.05a.11.11 0 00-.09-.06s-.08 0 0 0h-.08a.19.19 0 00-.13 0 .17.17 0 01-.13 0 .19.19 0 01-.11 0h-.37a.3.3 0 00-.13.06h-.19c-.07 0 0 0 0 0h-.13c-.03 0-.06.08-.11.07s0 0 0 .05h-.1c-.1 0-.06.09 0 .16s0 0 0 .06h-.05a.29.29 0 010 .09h-.08c-.01 0 0 .06 0 .16v.07c0-.01-.14.21-.25.31.11 0-.07 0 0 .08s-.05 0-.06 0-.08.09 0 .16.07.1.14.12 0 0 0 .08-.05 0-.05 0-.06.14 0 .15a.41.41 0 000 .11c.07 0 0 0 0 .09v.14c.1 0 0 .09 0 .14s-.11.11-.11.14.06 0 .09 0-.08 0-.08.05.14.09.1.16 0 0 .07 0 0 .15 0 .15.08.07.13.07 0 .09 0 .11.08.05 0 .1l.07.07c0 .06.08 0 .12 0s.06.09.16.08 0 0 .06.07a.16.16 0 00.12.08.22.22 0 01.15.1s.09.06.14 0h.08c-.08 0 0-.07 0-.1s.06.07 0 .07c0 .08.09.06.08.11a1.79 1.79 0 00.51.07v-.06.06c0 .06.06 0 .06-.06v.08s0-.07.07-.08h.07s.06 0 0-.07.11 0 .17 0 .11-.07.13-.06a.18.18 0 01.1-.11s-.06 0 0-.06.1 0 .19 0 0 0 0-.06v-.07c0-.01 0 0 .07 0a.23.23 0 01.11-.11.5.5 0 00.12-.13h.1s-.07-.07 0-.07a.62.62 0 00.16-.31l.06-.17a.65.65 0 01.09-.16h-.06l.07-.09c-.06 0 0-.1-.06-.11h-.25c-.09 0 0 0 0 .07s-.05 0 0 .09 0 0-.05 0 0 0 0 .07c0 .1-.07.13-.13.22h.05a.06.06 0 01-.05 0c.05 0 0-.06.09 0s-.06 0-.08.08a.09.09 0 01-.09 0 .11.11 0 01-.08 0s0 .07-.06.07v.07l-.05.06a.57.57 0 00-.08.13c0 .08-.06 0-.11.09a.06.06 0 010 .06s-.06 0-.05-.06 0 0 0 .15V38.2c0-.09-.08.13-.16 0 0 .1.09 0 .08 0s0 .08 0 .08-.08-.1-.14-.08 0 0-.08 0 0 0 0 .08h.06s-.05.12-.11.08 0 0-.05 0 .08 0 .1-.09-.06.07-.05 0v.05h-.06v-.11c0 .05-.07 0-.1 0s0 .05 0 .09-.05-.12-.14-.11.05 0 0 0c-.06 0 0 0 0 .07s0 0-.06 0 0 .09-.1 0h.05v-.05h-.08c-.08 0 0 .08-.07.07s.05-.05.05 0-.05 0-.07 0h-.09-.05c-.05 0 0-.07.07-.07h-.07v-.06h-.13s0-.09-.1-.09v-.07s0 .09-.1.06 0 0 0-.08-.12 0-.11-.05"/>
      <path class="cls-5" d="M130.6 38.23zM131.89 35.47s0-.05 0 0-.1 0 0 0M131.88 35.77zM131.49 35.66v.06zm-.11 0s-.07 0 0 0m-.59-.07v-.1zm-.36.41v-.05.07m2.57 1.24zm-.06-.07h.06-.06m-2.74.31zm.09.33zm.23.19s0 .07 0 0"/>
      <path class="cls-6" d="M132.15 50.07a27.51 27.51 0 01-6.5.68 40.24 40.24 0 01-7.27-.68c-1.7-.49-3.27-1.5-3.27-3.33s1.34-3.64 3.27-3.32a53.09 53.09 0 006.82.44 42.12 42.12 0 007-.44c1.7-.32 3.26 1.5 3.26 3.33s-1.39 2.71-3.26 3.32m.06.2h.06l.21-.15z"/>
      <path class="cls-6" d="M134.55 49.16a4 4 0 00.26-.37c.07-.13.11-.25.06-.29l-.09.2a1.86 1.86 0 01-.11.19s-.12 0-.21.09l-.13.11-.14.12.11-.08.1-.09v.13c0 .05-.28.21-.39.28a.91.91 0 01-.16.11 1.1 1.1 0 01-.24.09l-.25.19c-.09 0-.07 0 0-.06a2.63 2.63 0 01-.75.41.8.8 0 00.52-.18.89.89 0 01.51-.21 1.88 1.88 0 01.23-.16l.27-.13.25-.16a1.06 1.06 0 00.23-.19M123.61000000000001 51h.08a.08.08 0 00-.08 0m5.16-.66h.16a.22.22 0 00-.16 0M124 50.47l-.07-.09s0 .06.07.09m5.21-.23a.17.17 0 00.1 0 .11.11 0 00-.1 0m5.67-1.38l-.14.15a.66.66 0 00.14-.15M119.58 50zM120.96 50.09h.07z"/>
      <path class="cls-6" d="M122.27 50.29c-.06 0 0-.06.07-.09-.32-.07-.44 0-.78-.08l.16.06a1.5 1.5 0 01-.82-.1h.06c-.22 0-.53-.13-.63-.08.08.05 0 .06.12.11h-.54v-.13h-.29c.06.06-.37-.1-.39 0-.15-.07.08-.08.14-.12h-.32l-.14-.13h-.5l-.16-.06a.67.67 0 00-.37 0 .46.46 0 01-.28-.07l-.23-.14c-.2-.08-.12.05-.15.09-.27-.15-.35-.22-.43-.25s-.17-.05-.42-.16c-.08-.15 0-.13.12-.12h.1v-.13a.44.44 0 01-.22-.07l-.15-.1-.08-.06a.6.6 0 01-.08-.08 1.93 1.93 0 01-.23-.43 2.34 2.34 0 01-.09-.24 2 2 0 010-.22h-.07a.6.6 0 01-.08-.16.61.61 0 01-.07-.17c0 .06.12.11.17.16l-.1-.13a1.74 1.74 0 01-.1-.19.32.32 0 010-.2.23.23 0 01.05-.1s.07-.07 0-.22a1.44 1.44 0 010-.65l.09.12a1.21 1.21 0 00-.05.18c.12-.08 0-.31.09-.48s-.1-.14-.09-.25 0-.18.09-.22.12 0 .15.1a.34.34 0 010-.22 1.5 1.5 0 01.12-.32.07.07 0 010 .09.28.28 0 000-.18l.12-.06a.54.54 0 00.19-.34.61.61 0 01.26-.38c0 .06 0 0 .15-.08a.63.63 0 01.33-.15c-.06 0 0 .07 0 .1s.1.07.07.12c.16 0 .18-.09.19-.14s0-.11.14-.15a1.11 1.11 0 00-.07.16c.12-.06.13-.08.14-.11s0 0 .16-.08c-.07.05.12 0 0 .09h.56v-.13a.18.18 0 01.17.09h-.11c.01 0 .1.06.17 0a.22.22 0 01.2 0s-.07-.11.07-.1c0 .08.22.1.22.14s.32 0 .35-.08c.16.08-.06.06-.08.1.15-.09.59 0 .72 0 .18 0 .48 0 .84-.1l-.13.07c.36.06.23-.15.52-.13-.07.11.49 0 .35.14a1.57 1.57 0 00.49-.16c.17.07-.33.14-.1.18h.26v.06s.23 0 .22-.07.14.13.12.18c.16 0 .38.07.52 0 .16-.13.48 0 .56-.15l.1.08c.24 0 .2-.15.31-.18a1.14 1.14 0 01.32 0c-.32.08.15.11.22.16a1.45 1.45 0 00.59-.07c-.15.07-.06.13-.33.13.14.14.41 0 .71 0v.06a.92.92 0 00.62-.26c0 .07 0 .1-.11.18a9.51 9.51 0 001.06 0c.1.06 0 .09-.07.12.33-.07.75 0 1-.16-.08.06.14 0 .26.05s0-.07 0-.06a2.61 2.61 0 01.42-.1 2.53 2.53 0 01.46 0h-.08c.55 0 .77-.27 1.37-.23.11 0-.1.13.12.1s.06-.16.34-.16v.09l.18-.11c-.11-.07-.41 0-.2-.11.25.05.2-.11.51 0a.55.55 0 00-.19.14 2.4 2.4 0 00.76-.09 2.84 2.84 0 01.34-.08H132.67a1.35 1.35 0 01.53 0c.18 0 .34.08.46.11a.31.31 0 01-.26.15 1.65 1.65 0 00.32.08.28.28 0 01.13 0 .2.2 0 01.09.11.81.81 0 01.4.21c.15.11.3.23.38.2s.2.24-.07.07a.59.59 0 01.21.37 1.08 1.08 0 00.05.28c0 .08 0-.16.15 0v.07l.08.06c0 .1-.12-.05-.17 0a1.79 1.79 0 00.21.36 1.72 1.72 0 01.2.43v-.06c0 .13 0 .25.06.38l.05.15v.15a1.67 1.67 0 010 .19h-.06a.59.59 0 01.09.3v.7a.37.37 0 010 .11c-.14.21 0-.32-.14.13 0 0 0-.11-.06-.15a1.09 1.09 0 01-.13.3l-.06.1a.67.67 0 00-.06.12l.13-.1a.47.47 0 00-.21.26 3.32 3.32 0 01-.12.32.5.5 0 00.14-.27c.08-.11.08 0 .13-.07l.05-.19h.1c0-.11.07-.22.09-.32.08.05.13-.28.17-.13 0-.12.05-.2.08-.29a.68.68 0 000-.14.44.44 0 000-.15c.08-.15 0 .26.06.1a4.43 4.43 0 00-.58-2.73l.08.06a1.66 1.66 0 00-.24-.18 1 1 0 00-.22-.44.84.84 0 00-.42-.32s-.29-.25-.49-.39a2.28 2.28 0 00-.69-.32c-.11.05-.28 0-.46 0a1.06 1.06 0 00-.25 0 .35.35 0 00-.18.1l.1-.05c.08 0 0 .06-.06.1a.79.79 0 00-.2.12c-.13-.11 0-.1-.17-.19h.16a.93.93 0 01-.05-.1 1 1 0 01-.7.16.79.79 0 00-.56.08c-.22 0-.36.11-.51.16s.09-.09.16-.14a12.42 12.42 0 01-1.42.14c-.14.08.06.09-.09.15s-.22-.06-.06-.11c-.37-.11-1.19.15-1.75 0-.29.08-.1.12-.55.18.1-.06-.11-.18.16-.19a3.1 3.1 0 00-1.28.13c0-.11-.08 0-.24-.08-.16.1-.25 0-.36 0l-.32.07s-.13 0-.14-.08v.08c-.18 0-.08-.1-.3-.08v.06c-.13 0-.35 0-.38-.05s0 0 .07 0c-.2-.12-.55 0-.81 0l.07.14c-.26 0-.16 0-.15-.08-.17 0-.2-.06-.43-.08s-.06.05-.1.08h-.22l.15-.07c-.36.18-.89-.07-1.13.09-.13 0 .12-.07 0-.1-.42-.11-1 .06-1.29-.07a6 6 0 00-.89-.13l-.47-.06H118a2.78 2.78 0 00-.51 0 1.61 1.61 0 01-.31.1.81.81 0 00-.35.16v-.09c-.21.07-.4.21-.54.23v-.06a2.53 2.53 0 00-.65.45 1.57 1.57 0 00-.36.49c-.09.14-.14.1-.2.11a1.43 1.43 0 00-.25.64l-.13.15v.13c0 .05-.07 0-.12.08a4.66 4.66 0 01-.12.65 3.41 3.41 0 00-.08.56.38.38 0 010 .21s0 .08-.06 0V47a1.59 1.59 0 00.08.38v.09a.36.36 0 000 .09 3.17 3.17 0 00.18.38 1.43 1.43 0 00.11.21l.14.24a.19.19 0 000 .17 1 1 0 00.16.21l.17.19a.22.22 0 01.07.17c.27.2.41.38.66.43a.64.64 0 00.3.22 2.82 2.82 0 00.48.19V50c.15 0 .65.18.79.1s-.07 0-.12 0c.12.16.29 0 .48.13v.08H118.11a1.36 1.36 0 00.29.06 6.21 6.21 0 00.64.08 12.32 12.32 0 011.36.17c.24 0-.08-.13.24-.08.09.07-.17.1 0 .15a.63.63 0 01.41 0s0 .06-.15.07c.11.07.49 0 .71.08 0 0 0-.05.08-.07.35-.07.77.16.8.11s.12 0 0 0c.13 0 .3 0 .27.09a.63.63 0 01.22-.07v.07s.12-.05.18-.06h-.09c.14.06.43-.06.41.07h-.05l.27.07a.63.63 0 01.39-.08c.07.14.46.05.68.06.18-.06.64 0 .55-.06.18 0 .41 0 .33.07.14 0 .44 0 .51-.11l.28.1c.17-.16.57 0 .58-.14.16 0 .13.06.24.09a1.69 1.69 0 01.67-.11c.23 0 .49-.11.8-.16l.08.12c.17 0 .2-.14.36-.13a1.18 1.18 0 01.49 0c.23-.13.42-.12.61-.26.2.09-.27.1-.09.18a2.92 2.92 0 001-.25v.07a3.29 3.29 0 00.32-.24c.15-.13.28-.28.19-.33s.07-.1.06-.13-.07 0-.22 0-.37.2-.44.11v.1c-.41.12-.07-.18-.57-.08h.11c-.09 0-.16.09-.27.08s0 0 .06-.07l-.39.19c0-.05 0-.08.06-.13-.38.06.1.15-.37.19-.09 0 0-.06.08-.1a.93.93 0 00-.58.12c0-.08.13-.09-.06-.12 0 0 .08.11-.07.13.06-.09-.11 0-.25 0v.08a1.48 1.48 0 01-.22 0l.18.06c-.24.11-.39 0-.57 0a.12.12 0 01.08 0 1.27 1.27 0 00-.64 0c-.45.11.15.13-.38.24-.18 0 .07-.27-.33-.15.2.05-.26.18-.49.22l.24-.17h-.31c0 .14-.3 0-.47.08.21-.19.22-.15.25-.34a1 1 0 01-.27.14 1 1 0 01-.37.05l.24-.15a2 2 0 00-.62.1c-.21.06-.41.14-.57.2.09-.11-.05-.14.1-.23h-.39l.11-.11c-.16.11-.33 0-.31.18h.12c.12 0-.08.14-.28.13s.08-.06 0-.1-.13 0-.26 0l.11.07c-.1.09-.22 0-.35 0 .16 0 .11-.08 0-.14h-.29l.09-.12-.15.08s-.08-.06 0-.08c-.44-.1 0 .27-.57.12 0-.05.07-.08.23 0s0-.12-.16-.15a3.26 3.26 0 00-.89 0"/>
      <path class="cls-6" d="M123.15 50.28a1.44 1.44 0 00.35 0s-.35-.08-.35 0m5.13-6.27h-.07.07m-5.95.14c.11 0 .15-.07.16-.1a.2.2 0 00-.16.1M115.77 45.35a2.24 2.24 0 01.11-.34c0 .09-.15.24-.11.34m14.06-1.52l-.13.07.13-.06zm-1.19.12c-.06 0-.26 0-.2.07a.68.68 0 01.2-.07m-4.57 0v.07h.11z"/>
      <path class="cls-7" d="M126.96 46.43zm-6.35.03zM120.62 46.39h.06c.06 0 0 0 0 0M128.54 46.43zm1.02.12h-.12v.06z"/>
      <path class="cls-7" d="M130.73 47.81l-.12-.11c.35-.08.52 0 .81-.11s0-.24.56 0l-.09-.06c.05 0 .08-.09.15-.11h.16l.05.07c.05 0 0-.2.15-.13-.06-.1.06-.07 0-.13.08 0 .22-.07.25-.13l-.18-.11a2 2 0 01-.25-.19c.12 0 0 0 0 0-.07 0-.07-.09-.11-.11a.27.27 0 01-.09 0v-.06c0 .12-.35-.13-.41-.13h-.23c-.08 0-.08-.08-.15-.12s0 .06 0 .07l-.1-.07v-.07c0-.07-.23-.09-.25 0-.12-.05-.12-.09-.17-.09s0 0 0 .06-.38-.18-.39-.05v.24l-.05.05a.06.06 0 010-.07h-.29l.12.25c-.09-.05-.24-.16-.25-.07l-.06-.08c-.18-.16-.11.08-.18 0l-.09-.08h.08a1.22 1.22 0 01-.19-.12.11.11 0 01-.11.08c-.08 0-.14.07-.28 0v.1h-.11v.07a3.92 3.92 0 00.4-.06h-.21c-.05 0-.09-.09-.05-.14v.07a.9.9 0 01-.51 0h-.12a.68.68 0 01-.42-.13v.09s-.09-.14-.09 0h-.07s-.07.05-.12 0c-.1 0 0 .08-.11 0s0 .12-.1.1l-.06-.13c-.1-.07-.11.07-.26.07a.21.21 0 01-.07-.25c-.06.13 0 .08-.11.15a.14.14 0 010-.11c-.08-.05 0 0-.1 0s0 .24 0 .24c-.06.05-.12.08-.19 0v-.05h-.08v-.06h-.11a.22.22 0 01-.16 0c-.13-.1-.24 0-.39 0v-.06c-.06-.07 0 .1-.08.07v-.08c-.06.11-.07 0-.11-.07v.11h-.08c-.07 0 0-.13 0-.19l-.05.08v-.09c0 .11 0 0-.1 0s0-.06 0-.07l-.11.14.07-.07v.14c-.07.11-.09 0-.14 0-.08 0-.09 0-.13-.06s0 .07 0 .08v-.06c0-.06-.07.14-.12.1v-.1.09H124.83v-.08c0 .11-.12 0-.12.09 0-.08-.17 0-.14-.11-.16 0-.24.14-.43 0s-.24-.1-.36-.12-.39.09-.63.12c-.14-.2-.37 0-.52-.08v.07c-.09-.12-.26 0-.4-.11s0 0-.06 0a.17.17 0 010 .07s-.12 0-.11-.1c0-.09-.13 0-.17 0v.11h-.08c-.35.2-.48-.13-.82.05 0-.11-.07 0-.06-.07s-.16 0-.23.06h-.12c.09-.15-.09.12 0 0a5.45 5.45 0 00-1-.14h-.26c-.06 0-.16.09-.19.09s-.13-.08-.1-.07-.17.15-.27.08-.31.1-.3-.05c-.13-.12-.28 0-.42-.06l-.35.41v.5l.23.43h.74l.56.21 1.43.07.11-.1c.26.22.64 0 .93.18v-.09c.08 0 .07 0 .09.07a15.9 15.9 0 012.33.11c.06.07.28 0 .33.11a1.5 1.5 0 01.72-.09h.11c.12-.08.32 0 .48 0 .9 0 1.7-.22 2.58-.15.42.13.88-.12 1.35 0a3.16 3.16 0 001.1-.12M130.1 46.63v-.05zm1.23-.14h-.05.05m1.24.93v-.05m-.17-.53"/>
      <path class="cls-3" d="M104.2 56.9h.15-.15m1.1.16a3.47 3.47 0 00-.44 0 1.75 1.75 0 00.44 0m-.48-.12h-.47a2 2 0 00.26.06c.12 0 .21 0 .21-.06M96.5 51.16a2.37 2.37 0 00.22.46 1.23 1.23 0 00-.22-.46M145.37 29H145.83a2.06 2.06 0 00-.26 0c-.12 0-.2 0-.2.07m-.48-.06h.43a1.37 1.37 0 00-.43 0m9.19 4.9a1.64 1.64 0 00-.25-.44 1.38 1.38 0 00.25.44"/>
      <path class="cls-1" d="M154.75 35.32c0 .05.05.08 0 0m8.55 1.12h.22-.22m-24.69 10.29c0 .05 0 0 0 0m-.29-12.5zm.2-.64a4.57 4.57 0 01-.19.64l.18-.17a3.65 3.65 0 010-.47M140.14 31.27l.09-.1-.08.09m5.94-2.43h0m17.17 7.61zm-23.74 8a1.21 1.21 0 01.15-.2l-.15.2M138.4 52l.09.22a1.49 1.49 0 010-.22zm-.27-1.26c0 .05.12.53.05.08 0 0-.1-.7-.05-.08m0-11.72c-.1-.35-.09-.53-.14-.36.06.58.08.13.15.65.05.13-.06-.43 0-.29m0 0l.05.17-.05-.17m15.24-6.53a1.92 1.92 0 00.16.29l-.13-.27zm2.83 3.51h-.08l.13.09zm4.07.41a4.69 4.69 0 01-.53 0c.36 0 .58.08.53 0M95.57 50.16c-.07 0-.1 0 0 0M112.49 52.34zm-.27.64a2.34 2.34 0 01.26-.63l-.21.15v.48zm-8.15 4.08s-.06 0 0 0m7.21-15.18l-.16.2.16-.2m-1.22-12.08c.12.1.21.22.32.33l-.22-.23-.1-.1m2.57 4.45h.06l-.08-.22a1 1 0 010 .22m.24 1.21s.1.71 0 .08c0 0-.07-.54 0-.08m.15 12.08c.08.35.06.54.12.37 0-.6-.07-.13-.11-.67v.3m0 0v-.18.18m-15.88 5.1a2.07 2.07 0 00-.14-.31l.11.29zm-3.3-2.89h.08l-.15-.08zm-4.21-.22h.55c-.38 0-.6-.07-.55 0"/>
      <g mask="url(#mask-2)">
        <path class="cls-1" d="M153.83 33.41a1.64 1.64 0 01.25.44 1.38 1.38 0 01-.25-.44M144.89 29a1.08 1.08 0 01.43 0h-.43m22.68 7.1l-.27.05a1.42 1.42 0 01.27-.09l-.57.1h.24c-.29.08-.59.14-.88.2s0 0 .07-.06c-.18 0-.3.08-.57.12.06 0 0-.09.42-.16l-.85.15h-.34c-.48 0-1.16.18-1.8.19H161.22l-.4-.07c-.55 0 .54.09-.38.11-.65 0-.24-.06-.47-.09a5.86 5.86 0 01-1.48 0h.53a3.5 3.5 0 01-.45-.07c.55 0 .95 0 .52-.06-.07.16-1.75-.15-1.82-.06l-.29-.07h.18c-.56-.15-.44 0-1.16-.18-.24-.1-.39-.19-.23-.14-.17-.06-.36-.11-.53-.18s-.09-.09 0 0l-.35-.22-.14-.08-.07-.15-.28-.5c-.08-.22.06.1.05 0l-.24-.45c-.05-.2.15.17.29.49-.07-.48-.18-.37-.57-1.32l.23.42a6.54 6.54 0 00-.51-1.13c.06.12.43 1 .14.54a3.25 3.25 0 00-.35-.56s-.11-.27-.33-.56h.06a2.44 2.44 0 00-.42-.43 1.55 1.55 0 01-.34-.55c-.5-.51.29.4-.32-.18a4.91 4.91 0 00-1.36-1c-.35-.22.08 0 0-.09l-.34-.13c-.08 0 0 0 0 0-.28-.12-.05 0-.49-.15a2.81 2.81 0 01-.56-.25 3.44 3.44 0 00-.93-.28c-.14-.05.08 0 0-.06a5.71 5.71 0 00-1.36-.11 5.43 5.43 0 00-.56-.09c.41.06-.12.1-.58.13h-.55s.08 0 .2-.07a2.06 2.06 0 01.26 0c.18 0 .36-.07.32-.11h-.24.05a.69.69 0 00-.22 0l-.17-.07a6.58 6.58 0 00-1 .06 11.47 11.47 0 00-2.21 1c.22-.18 0-.11 0-.17.3-.08.77-.39 1.33-.54-.29.08-.23 0-.16 0a7.3 7.3 0 00-.94.43c0-.06-.22.06-.46.17.22 0-.65.42-.95.71 0 0 0-.11.45-.38-.52.24-.54.51-1 .81a2.37 2.37 0 01-.47.39 7.23 7.23 0 00-.91 1.13 2.91 2.91 0 00-.44 1 .46.46 0 010-.2 6.78 6.78 0 00-.19 1c-.05.15-.1.31-.14.47s-.21.1-.11-.36a3.69 3.69 0 00-.2.83c0-.13.18-.3.15-.12a4.2 4.2 0 00-.25.94c0-.2.12 0 .11.35 0 0-.11 0-.12-.1 0 .27.05.53.09.79 0-.2-.09 0-.12.14 0-.08 0 .68.05.89v-.34a8.78 8.78 0 00.39 1.72c0-.1-.21-.23-.11.21l.4.67a6 6 0 00.4.88 5 5 0 01-.69-1.11 2.08 2.08 0 00.17.58c0 .13-.07-.06-.14-.23a7.94 7.94 0 00.4 1c0-.07.55.74.58.66a6.46 6.46 0 01-.72-1.07 13.69 13.69 0 011 1.22c.11.18-.2 0-.2 0l.63.6-.29-.21a2.47 2.47 0 00.49.39l.17.1s.07 0 .05.06l-.09.08s-.36.33-.34.36c.15-.12.29-.12.36-.06-.14.16-.26.33-.39.5L140 44l-.36.53c-.1.06.16-.48 0-.31a1.07 1.07 0 01-.09.24c-.12.16 0-.1-.23.27 0 .1-.44.77 0 .21-.19.38-.24.38-.44.84.07-.09 0 .18-.07.5l-.16.42a8.25 8.25 0 00-.44 2.07c0 .08-.06.46-.08.3a3.72 3.72 0 010 .47c-.05.48 0-.56-.08-.19 0 0 .08.65.14 1a9.67 9.67 0 00-.07-1.16s.06.08.09.24v.2a11.19 11.19 0 00.33 2.35 5.34 5.34 0 00.32 1c0 .09.08.17.12.26l.12.28c0 .1.09.21.14.31a6.76 6.76 0 00.42.73c.08.09.18.23.22.26a8.26 8.26 0 001 1.06l.17.15.14.13-.1-.09a7.14 7.14 0 001.34.9l.38.17s-.14 0 0 0a.37.37 0 01.16 0l.63.25h.05l.58.19H144.4a11 11 0 002.42.35c3.46.12 7.63-3.22 8.52-7.29a3.8 3.8 0 011-.33h.36c.46-.17 1.26-.08 2-.25.17 0-.15 0 0 .06a3.28 3.28 0 01.88-.09h-.05c1.26-.06 1.8 0 3.22 0h-.11a3.1 3.1 0 01.51 0c.35-.07-.85 0-.53-.1.4.1 2.15.07 2.41.19.47 0-.13-.06.34 0h.24c.31 0 .46.07.47.1h-.29c.39 0 1.11.08 1.25.1l-.45-.06.66.06A42.67 42.67 0 00168 42a41.67 41.67 0 00-.43-6"/>
      </g>
      <g mask="url(#mask-3)">
        <path class="cls-1" d="M96.72 51.62a2.37 2.37 0 01-.22-.46 1.23 1.23 0 01.22.46m8.58 5.44a1.75 1.75 0 01-.44 0 3.47 3.47 0 01.44 0m-18.57-7.55c.61 0 1.15 0 1.87-.08l.42.06c.56 0-.56-.07.38-.12.67 0 .25.06.49.08a5.84 5.84 0 011.52 0h-.55l.46.06c-.57 0-1 0-.54.07.08-.14 1.81.08 1.88 0l.3.06h-.19c.59.12.45 0 1.21.09.26 0 .43.13.26.1l.58.1c.16 0 .12.06 0 0a5.91 5.91 0 01.84.28 2 2 0 01.5.19c.18.14-.1 0-.06 0l.2.11c.07 0 .06 0 .11.13s0 .06-.07 0a.14.14 0 00-.09-.07l-.25-.22c.16.19.23.18.25.24a8.1 8.1 0 01.36.87l-.22-.46a6.3 6.3 0 00.43 1.18c0-.13-.36-1.06-.1-.56a5.5 5.5 0 00.3.59s.11.29.28.61h-.07a3.26 3.26 0 00.38.48 1.71 1.71 0 01.29.6c.43.58-.25-.44.29.23a5.33 5.33 0 001.25 1.2c.33.27-.08 0 0 .09l.33.18c.08.06 0 0 0 0 .27.16 0 0 .48.21a7.66 7.66 0 001.46.68c.13.06-.08 0 0 0a6.91 6.91 0 001.38.24 5.73 5.73 0 00.56.14c-.41-.1.13-.09.6-.08h-.06.15-.09H104.81s-.09 0-.21.06a1.1 1.1 0 01-.26-.06c-.19 0-.37 0-.33.08h.24-.06.23l.17.08h.05a6.64 6.64 0 001 0 11 11 0 002.34-.74c-.24.14 0 .1 0 .16-.3 0-.82.32-1.4.41h.17a7.24 7.24 0 001-.34c0 .06.22 0 .49-.12-.23 0 .7-.36 1-.64 0 0 0 .12-.49.35.55-.22.6-.45 1.09-.73a1 1 0 00-.19.15c.23-.18.8-.62.68-.49l-.09.08a7.27 7.27 0 001.13-1.15 2.93 2.93 0 00.54-.93v.2a5.67 5.67 0 00.29-1c.07-.15.13-.31.19-.47s.21-.09.07.38a4.53 4.53 0 00.28-.83c0 .13-.21.29-.15.11a5 5 0 00.33-.94c0 .21-.13 0-.09-.36 0 .05.12 0 .11.11a5.34 5.34 0 000-.81c0 .2.1 0 .13-.14v-.91.34a9.49 9.49 0 00-.3-1.77c0 .11.19.25.12-.21l-.33-.65a8.34 8.34 0 00-.33-.93 4.86 4.86 0 01.58 1.13 2.16 2.16 0 00-.13-.6c0-.14.07.07.12.25a9 9 0 00-.33-1c0 .07-.49-.8-.53-.72a7.18 7.18 0 01.64 1.15 12.86 12.86 0 01-.9-1.33c-.1-.19.19.06.2 0l-.59-.68a2.16 2.16 0 01.27.25 2.16 2.16 0 00-.46-.45l-.25-.2-.14-.12-.08-.07c-.16-.07.14-.18.08-.2a1.12 1.12 0 01-.38.08c.14-.16.27-.32.4-.5l.08-.1c.13-.17.26-.35.38-.53s-.18.49 0 .32a2.15 2.15 0 01.11-.24c.13-.16 0 .1.24-.27 0-.1.48-.77.07-.21.2-.38.25-.38.48-.84-.08.09 0-.15.07-.44l.18-.47a8.56 8.56 0 00.53-2.09c0-.08.07-.47.09-.3v-.48c.07-.49 0 .56.08.19 0 0 0-.66-.11-1-.05.12 0 .83 0 1.2 0 0-.06-.11-.08-.28s0-.31 0-.48a11.35 11.35 0 00-.27-2.1 9.38 9.38 0 00-.29-1.05 12.07 12.07 0 00-.75-1.64c-.08-.09-.19-.24-.23-.27a7.59 7.59 0 00-2.43-1.99l-.39-.19s.15.05 0 0l-.16-.05c-.21-.1-.42-.2-.64-.28l-.6-.19H106.94a7 7 0 00-1.9-.25c-5.49 0-8.35 3.22-9.25 7.29a3.76 3.76 0 01-.94.32h-.4c-.47.17-1.29.07-2.08.25-.18 0 .15 0 .05-.06a4.09 4.09 0 01-.91.09h.06c-1.29.06-1.84 0-3.29 0h.11-.52c-.36.07.87 0 .54.08s-2.19 0-2.46-.17c-.48 0 .14.06-.34 0h-.25c-.31 0-.47-.07-.48-.1h.3a5.56 5.56 0 00-.63 0 41.78 41.78 0 00.23 14.22c.48 0 1.14-.18 1.76-.19a.69.69 0 01.24 0"/>
      </g>
    </g>
    <g id="레이어_7" data-name="레이어 7">
      <g mask="url(#mask-4)">
        <path class="cls-11" d="M54.4 52h.06a1.34 1.34 0 000 .22zm-.27-1.26c-.05-.62 0 0 0 .08.12.4.02-.08 0-.13zm0-11.72l.05.17-.02-.19c0-.14.05.42 0 .29-.07-.52-.09-.07-.15-.65 0-.17 0 0 .14.36zM29 47.54v-.18-.12c0 .54.07.07.11.67-.11.17-.11-.02-.11-.37zm-15.88 5.1l-.12-.29a2.82 2.82 0 01.14.3zm-3.3-2.89l-.07-.07.15.08zm-4.22-.22c0-.07.18 0 .56 0h-.61zm23.27-14.07c0-.46 0 0 .05.08.08.63-.03-.04-.05-.08zm-.24-1.21a1 1 0 000-.22l.08.22zm-2.57-4.45a.76.76 0 01.09.09l.23.23c-.11-.12-.2-.22-.32-.32zm43.34 2.64l.13.27a1.92 1.92 0 01-.16-.29zM72.21 36l.05.07-.13-.07zm4.07.41c0 .07-.17 0-.53 0a4.69 4.69 0 00.53 0zm6.65 14.11c-.14 0-.86-.05-1.26-.1H82s-.16-.08-.47-.1h-.25c-.46 0 .14.06-.33 0-.26-.12-2-.09-2.41-.18-.32.07.88 0 .53.09a2.47 2.47 0 00-.51 0h.11c-1.42 0-2-.07-3.22 0a3.28 3.28 0 00-.88.09c-.1 0 .22 0 0-.06-.78.18-1.58.08-2 .25 0-.05-.18-.05-.36 0a3.8 3.8 0 00-1 .33c-.9 4.07-5.06 7.41-8.52 7.29a11 11 0 01-2.42-.35H60.1l-.58-.19-.63-.25a.37.37 0 00-.16 0c-.11-.07 0 0 0 0l-.39-.34a7.71 7.71 0 01-1.34-.94l.1.09-.1-.09-.16-.15a8.26 8.26 0 01-1-1.06 2.39 2.39 0 01-.22-.26 6.76 6.76 0 01-.42-.73c0-.1-.09-.21-.14-.31s-.09-.18-.13-.28-.08-.17-.11-.26a5.13 5.13 0 01-.32-1 11.09 11.09 0 01-.33-2.35 1.34 1.34 0 010-.2c0-.15-.06-.24-.09-.24a9.71 9.71 0 01.07 1.17c-.06-.35-.11-1-.14-1 .07-.37 0 .67.08.19v-.47c0 .16.06-.22.08-.3a8.25 8.25 0 01.44-2.07c0-.15.11-.29.16-.43.08-.31.14-.59.07-.5.2-.46.25-.46.44-.84-.39.56.07-.11.05-.21.22-.37.11-.11.22-.27a.72.72 0 00.1-.24 1.21 1.21 0 00-.15.2c.1-.17.15-.21.15-.2.17-.17-.09.37 0 .31L56 44l.07-.1c.12-.17.25-.34.38-.5-.07-.06-.2-.06-.36.06 0 0 .32-.34.35-.36l.09-.08v-.06l-.17-.1a2.47 2.47 0 01-.49-.39l.29.21-.63-.6s.31.19.19 0a12.71 12.71 0 00-1-1.22 6.46 6.46 0 00.7 1.14c0 .08-.56-.73-.58-.66a6.59 6.59 0 01-.4-1l-.06-.15.06.15c.07.17.17.36.14.23a1.78 1.78 0 01-.17-.58 4.48 4.48 0 00.69 1.11 6 6 0 01-.4-.88l-.4-.66c-.1-.45.06-.32.11-.22a8.85 8.85 0 01-.41-1.69V38c0-.21 0-1-.05-.89 0-.18.1-.34.12-.14 0-.26-.06-.52-.09-.79 0 .12.1.05.12.1 0-.32-.07-.55-.11-.35a4.89 4.89 0 01.24-.94c0-.18-.1 0-.14.12a4 4 0 01.2-.84 2.88 2.88 0 00.19-.64v.47l-.19.17c-.1.47 0 .4.11.37s.09-.32.14-.47a6.78 6.78 0 01.19-1v.2a2.7 2.7 0 01.44-1 7.23 7.23 0 01.91-1.13l.09-.09-.09.1a2.76 2.76 0 00.47-.39 2.11 2.11 0 01.15-.15 2.11 2.11 0 00-.15.15c.45-.3.46-.57 1-.81-.43.27-.48.37-.44.38.3-.29 1.17-.73 1-.71.24-.11.45-.23.46-.17a7.3 7.3 0 01.94-.43c-.07 0-.13.08.16 0-.56.15-1 .46-1.33.54 0 .06.22 0 0 .17a11.47 11.47 0 012.21-1 6.58 6.58 0 011-.06l.17.07a.69.69 0 01.22 0h-.05.24-.06.06c-.05 0-.14.08-.32.11h.09c.46 0 1-.07.58-.13a5.43 5.43 0 01.56.09 5.71 5.71 0 011.36.11s-.18 0 0 .06a3.37 3.37 0 01.92.28 3.08 3.08 0 00.57.25c.44.17.2 0 .49.15l.34.13c.12.09-.31-.13 0 .09a5.07 5.07 0 011.36 1c.61.58-.19-.33.31.18a1.88 1.88 0 00.35.55 2.44 2.44 0 01.42.43h-.06c.22.29.37.54.33.56a3.05 3.05 0 01.34.56c.3.47-.07-.42-.13-.54a5.69 5.69 0 01.5 1.13l-.14-.29c.4.95.51.84.58 1.32-.14-.32-.34-.69-.29-.49l.24.45c0 .06-.13-.26 0 0l.28.5c0 .06 0 0 0 0l.07.15.14.08.35.22c-.13-.09-.18-.09 0 0s.36.12.53.18c-.16-.05 0 0 .23.14.72.19.6 0 1.16.18h-.18l.29.07c.07-.09 1.74.22 1.82.06.43.07 0 0-.52.06.15 0 .3.06.45.07h-.54a5.94 5.94 0 001.49 0c.23 0-.19.1.47.09.92 0-.18-.1.38-.11l.4.07c.71-.07 1.24 0 1.83 0h.24.22-.22c.63 0 1.32-.16 1.8-.19h.33l.86-.15c-.38.07-.36.11-.42.16.27 0 .39-.08.57-.11-.11 0-.22.06-.08.05.3-.06.6-.12.89-.2h-.24l.57-.1a42 42 0 00-83.2-.54 5.56 5.56 0 01.63 0h-.3s.17.07.48.1h.25c.48 0-.14-.06.34 0 .27.13 2.05.08 2.46.17.33-.07-.9 0-.54-.08h.52l-.11-.05c1.45 0 2 .06 3.29 0h-.06a4.09 4.09 0 00.91-.09c.1 0-.23.05 0 .05.79-.17 1.61-.07 2.08-.24 0 .06.2 0 .4 0a3.37 3.37 0 00.94-.33c.9-4.07 3.76-7.25 9.25-7.28a7 7 0 011.9.25h.16l.59.19h.05c.22.08.43.18.64.28l.16.05c.11.06 0 0 0 0h.05l.38.19a7.59 7.59 0 012.41 2.29 2.73 2.73 0 01.23.27 12.07 12.07 0 01.75 1.64 9.38 9.38 0 01.29 1.05 11.35 11.35 0 01.27 2.1v.48c0 .16.05.28.08.28 0-.37-.08-1.08 0-1.2.07.36.08 1 .11 1-.08.37 0-.69-.08-.19v.48c0-.17-.06.22-.09.3a8.56 8.56 0 01-.53 2.09l-.18.47c-.09.29-.15.53-.07.44-.23.46-.28.46-.48.84.41-.56-.08.11-.07.21-.23.37-.11.11-.24.27a1 1 0 00-.1.24l.16-.19c-.11.16-.16.2-.16.19-.18.17.11-.37 0-.32s-.25.36-.38.53l-.08.09c-.13.17-.26.34-.4.5a2 2 0 00.38-.08c.06 0-.24.13-.08.19l.08.08.14.12.25.2a2.16 2.16 0 01.46.45 2.16 2.16 0 00-.27-.25l.59.67s-.3-.22-.2 0a11 11 0 00.9 1.32 7.08 7.08 0 00-.64-1.14c0-.08.5.79.53.72a7.66 7.66 0 01.33 1 1.42 1.42 0 01.05.16 1.42 1.42 0 00-.05-.16c-.05-.17-.14-.38-.12-.24a2.16 2.16 0 01.13.6 4.86 4.86 0 00-.58-1.13 8.34 8.34 0 01.33.93l.33.65c.07.46-.08.31-.12.21a9.49 9.49 0 01.3 1.77v-.34.91c0 .17-.11.34-.13.14a5.34 5.34 0 010 .81c0-.12-.1-.06-.11-.11 0 .32.05.56.09.36a5 5 0 01-.33.94c-.06.18.11 0 .15-.11a4.82 4.82 0 01-.28.83 2.34 2.34 0 00-.26.63l.05-.48.21-.15c.14-.47 0-.41-.07-.38s-.12.32-.19.47a5.67 5.67 0 01-.29 1v-.2a2.83 2.83 0 01-.54.92 7 7 0 01-1.13 1.16l.09-.09a5.4 5.4 0 00-.69.5l.19-.15c-.48.28-.54.51-1.08.73.47-.23.53-.34.49-.35-.33.28-1.26.63-1 .64-.26.08-.49.18-.49.12a8.9 8.9 0 01-1 .34c.07 0 .13-.06-.17 0 .58-.09 1.1-.36 1.4-.41 0-.06-.22 0 0-.16a11 11 0 01-2.34.74 6.83 6.83 0 01-1 0l-.17-.08h-.35.06H20h.05c.05 0-.05.11-.05.11s.14-.06.33-.08h-.09c-.47 0-1 0-.6.08-.19 0-.37-.1-.56-.14a6.91 6.91 0 01-1.38-.24h.05a7.36 7.36 0 01-1.46-.68c-.43-.24-.21 0-.48-.21 0 0 .05 0 0 0l-.33-.18c-.11-.1.3.18 0-.09a5.17 5.17 0 01-1.25-1.21c-.54-.66.14.36-.29-.22a1.71 1.71 0 00-.29-.6 4 4 0 01-.38-.48h.07c-.17-.33-.33-.58-.28-.61a5.5 5.5 0 01-.3-.59c-.26-.5 0 .43.09.56a6.91 6.91 0 01-.46-1.31l.21.44a8.1 8.1 0 00-.36-.87c0-.06-.1-.05-.25-.24l.2.12a.17.17 0 01.1.08c.05.1.09.15.07 0s0-.11-.11-.13l-.2-.11s.24.13.06 0a2 2 0 00-.5-.19c-.06 0 0 0 0 0a4.87 4.87 0 00-.84-.28h.05l-.58-.11c.17 0 0 0-.26-.09-.76-.13-.62 0-1.21-.09H9l-.3-.06c-.07.11-1.8-.11-1.88 0-.43-.07 0 0 .54-.07l-.47-.06h.55a6.25 6.25 0 00-1.52 0c-.23 0 .19-.1-.48-.08-.94.05.18.1-.38.12l-.42-.06c-.72.06-1.26.06-1.87.08a.69.69 0 00-.24 0s.14 0-.22.07l.22-.07c-.62 0-1.28.16-1.77.19a42 42 0 0082.41.78l-.65-.06z"/>
      </g>
      <path class="cls-12" d="M19.84 56.38c.05.45.22.19.18.2 0-.26-.15-.16-.18-.2m1.65 4c.15.16.3.31.46.46q-.19-.21-.36-.42zm2 2.37l-.23-.21-.26-.16a2.93 2.93 0 01-.37-.45.5.5 0 000-.12l-.37-.15a11.31 11.31 0 001 1l.26.23.24.22.39.38a.94.94 0 00-.22-.33c-.11-.12-.27-.24-.42-.38M25.2 64l.39.23c0-.07.08 0 .1 0a5.79 5.79 0 01-.56-.28l.07.07m0 0c-.41-.24.21.22 0 0m2 .89c-.21 0-.42-.1-.63-.15a1.68 1.68 0 00.32.19c.12.06.2.1.09.09.33.08.47.1.48.07s-.1-.1-.26-.2m.65 0l-.33-.06s.13.07.33.06m-.64-.14H26.8h.34l.35.08c-.08-.07-.05-.14-.31-.08m-.79-.48l-.58-.24q-.2-.07-.18 0s.07.09.21.18a4 4 0 00.62.3c-.29-.19-.67-.4-.07-.22M23.86 63c.15.1.54.57.58.5s-.17-.21-.26-.32a3.3 3.3 0 01-.32-.18m7.37 2.53s-.23-.12-.28-.18a4.2 4.2 0 01-.47.08c.24 0 .71 0 .75.1m-.23-.28c-.1 0-.12 0-.09.07l.35-.07.34-.08H31m-4.12-.72c.22.06.45.09.67.14h.67l-.21-.05a10.63 10.63 0 01-1.13-.18m6.69.57a6.9 6.9 0 00.59-.43l-.26.18c-.11.08-.21.17-.33.25m2.08-.89a4.93 4.93 0 00.84-.72 3.68 3.68 0 01-1.06.57c-.17.22.43 0 .22.15M33 65a1.32 1.32 0 00.42-.06h-.32l-.27.08A1.3 1.3 0 0033 65m.09-.1l.36-.12-.38.12m-2.85 0c-.14 0-.1.09-.09.13s0 .1-.34.14h.36a1.9 1.9 0 00.31-.06c.16 0 .16-.11-.24-.16m1.77.11h-.37s.17.07 0 .14c.13 0 .26-.08.39-.12l.19-.06.18-.06h-.18zm.63-.12l.07-.07-.34.13.27-.06m3.26-1.24a4.56 4.56 0 01.74-.53c-.33.16-.66.34-1 .53 0 .07-.11.21.24 0m-1.29.68h.06-.06m4.94-1.56h-.06zm-4 .89a1.59 1.59 0 00-.51.36c.19-.12.38-.25.59-.37h-.08m-.8.62c.11 0 .09 0 0 0m0 0a2.62 2.62 0 00.29-.26 4.62 4.62 0 00-.4.27h.11M38.41 63.06l-.22.11a3.25 3.25 0 01.87-.15 1 1 0 00.21-.12l.13-.08c.07 0 .09-.07.09-.1a9.73 9.73 0 00-1.15.39zm-1.23-.25zm0 0c-.06 0 0 0 0 0m-6.24 1.7s.12 0 0 0m-.28.17a.88.88 0 00.27 0h1.21l-.24-.1a4 4 0 00-.44-.11l-.15.07H31c-.28 0 0-.07 0-.11l-.32.09m1.5.07h0m7.46-1.82c.14-.12.31-.23.47-.35l-.41.17-.06.18m1.28-.33l.16-.06.16-.06h-.3zm22.8-9.47c.14-.4.35-.86.18-.81l-.16.13a2.44 2.44 0 010 .68M54.13 65.2h-.25a.26.26 0 00-.16 0 5.73 5.73 0 001.09.16l-.37-.08-.31-.07M54.51 19c-.22 0-.31.06-.3.09.22 0 .34-.06.3-.09m.83 46.34a4.55 4.55 0 01-.53 0 4 4 0 00.61.05 2.32 2.32 0 00.63-.08h-.71M20.21 53v-.47a2.59 2.59 0 000 .47m25.89 9.59c-.25 0 0 0 0 0m-.37-.14l.32.11a1.51 1.51 0 00-.32-.11m0 .08l-.23-.06.23.06M46.46 62.67l-.4-.11.35.08"/>
      <path class="cls-12" d="M62.76 56.25v-1.39a4.07 4.07 0 01.53 1.4l-.12.21.14.84a11.89 11.89 0 01-.55-1.06zm-.19 5.5l-.18.25-.18.23a3 3 0 01-.31.31c-.06 0-.1.05-.14 0a5.16 5.16 0 00.44-.84l.28.07-.23-.19a9 9 0 00.28-.88.55.55 0 01.47.3 6.36 6.36 0 01-.43.75zm.19-15.56l.33.64c-.08-.06-.2 0-.33 0zm0-13.4l.07.12-.07-.26v-.22c.07-.17.13-.32.16-.42l.13 1.05c0 .12-.12 0-.22-.15 0 .07 0 .14.05.19s-.08.2-.12.2zM59.1 64c0-.06-.13-.08-.22-.09a5 5 0 00.81-.36 2.37 2.37 0 01-.59.45zm-10.43-1.36c.29.3.19.19 0 0zm-8.85-.79a3.68 3.68 0 01-.43.13l-.41.07a9.25 9.25 0 011-.27zm-17.88-39l.14-.14c-.17.4-.15.29-.14.16zm41.66 31.4a1.33 1.33 0 010-.69.15.15 0 000 .07v-.12q0-.18.09-.39a1.65 1.65 0 00-.09.33c0-.22 0-.55-.07-.87l.18-.14v-.08c.06-.32-.09-.25-.23-.08a1.91 1.91 0 00-.11-.43c.3-.26-.1-.86.22-1.21-.16-.22-.12-1.63-.44-1.8 0 0 .06-.11.07.07a3.06 3.06 0 000-1l.23-.15-.31-.79c.14-.48.22-.68.4-.21-.27-1.15-.1-.93-.37-1.91l.14.05c0-.35-.2-.91-.08-1.12.29-.78 0-3.87.31-5.88-.44.39.19-.94-.15-1 .11-.11.16-.39.26-.07-.11-1 .16-1.54-.13-2.25.11-.11.16.22.22.12a.7.7 0 010-.43c.06-.11.09.15.13.31 0-1-.34-1.15-.64-1.23a1.43 1.43 0 00-.07-1.18c.1-.18.2-.49.23.16 0-.37.15-2.24-.09-2.28a1.35 1.35 0 000-.6v-1.7.22c-.29-.32-.06-.67-.1-1.32 0-.19 0-.34.06-.46s0-.23 0-.31a2 2 0 000-.32 1.13 1.13 0 010-.32v-.78l-.16.11c-.21 0-.21-.37-.24-.81a2.71 2.71 0 00-.42-1.36v.33a2.13 2.13 0 01-.27-.92c-.07-.37-.26-.48-.44-.7a1.24 1.24 0 00-.28-.35 1.09 1.09 0 01-.92-.32 3.83 3.83 0 00-1.3-.6l-.48-.14-.49-.14-.45-.14a3.09 3.09 0 01-.4-.14c.2.13.39.26-.13.21s-.91-.22-1.43-.32a4.06 4.06 0 00-.76-.07 2 2 0 00-.35 0 1.32 1.32 0 00-.3.09c-.1 0-.14-.05-.15-.07l-.58.1c-.23.06-.47.1-.7.18l-.33.12-.29.13a1.33 1.33 0 00-.36.26.62.62 0 00-.38 0l-.23.09a1.41 1.41 0 00-.24.13c-.34.2-.36-.15-.62.15s-.5.58-.69.77-.35.28-.46.2a10.94 10.94 0 01-1.13 1v-.07l-.5.34-.36.24-.14.11-.12.1-.11.09-.11.09c-.23.05-.09-.05-.09-.09l-.25.08-.23.05h-.39l-.62.12-.28.07-.3.08-.35.09c-.13 0-.27.08-.44.11l-.14-.16h-.2a2.06 2.06 0 01-.33 0h-.42a4.44 4.44 0 01-.49-.07c-.7-.1-1.48-.27-2.18-.43a.26.26 0 01.18 0 3.51 3.51 0 01-1.15-.49 6.94 6.94 0 01-1-.81 11.35 11.35 0 00-.84-.77 2.49 2.49 0 00-.4-.24.92.92 0 00-.38-.09l-.52-.32c-.18-.1-.35-.2-.54-.29a3.34 3.34 0 01.34.27.54.54 0 01.12.14c0 .06 0 0-.14 0s-.46-.15-.25.07a5.2 5.2 0 01-.75-.47c-.08-.08-.12-.13-.1-.15s.1 0 .26.09l.08.09c.22-.06-.17-.34-.65-.58l-.35-.16-.33-.14c-.19-.08-.31-.14-.28-.18a11.45 11.45 0 00-2.36-.41h-2.36a10.54 10.54 0 00-2.31.44 8.42 8.42 0 00-2.06 1h.45c-.14.08-.28.18-.42.28s-.26.2-.4.3-.22.09-.23 0 .09-.17.38-.39a1.32 1.32 0 00-.57.49 1 1 0 00-.21.43c-.26.23-.37.32-.42.31s0-.1.05-.21.36-.53.21-.37l-.2.21-.19.22.11-.08a5.21 5.21 0 01-.65 1.16c-.17.2-.24.24-.28.25s-.07 0-.13.07-.07 0-.17.26-.39.7-.56 1l.2-.18.2-.17c-.13.5-.44 1 0 .58a1.49 1.49 0 00-.26.34 5.42 5.42 0 00-.27.54 9 9 0 00-.43 1.41c-.11.5-.17 1-.22 1.4s-.07.7-.1.81a7.78 7.78 0 01.11 1.06v1.14c.05-.21.3-.33.26.38-.5-.26-.21 1.31-.58 1.89.24-.52.06 2 .4 1.22 0 .59-.19 0-.31.49.2 1.41-.12 3.12-.06 4.87.07 0 .17-.26.27.11l-.33.93c0 .34.38.31.15.95.06-.09.14-.23.16 0-.32 3.43.27 7-.34 10.49.13-.47.14-.15.15.21 0-.24.16 0 .25 0L20.2 54c.25.27 0 1.57.26 1.72l-.05-.46c.16.34.33 0 .52-.27v1.44c0 3.72 4 8.1 9.31 8.1A13.36 13.36 0 0036.75 63l-.11.07.22-.1.33-.15.15-.08h-.2l-.36.15c.06.19.14.41.52.21.23 0 .18-.22.07-.36a.38.38 0 00-.1 0h.06c.25.12.5.5.75.37-.16.06-.35-.33-.62-.47a.13.13 0 00.09-.05h-.22l.21-.1.07.05c.3-.13.5-.27.31-.23.27-.11.56-.21.86-.31-.24.14-.23.27-.09.37a1.74 1.74 0 00.72.23s0-.11.55-.34h-.72c-.26 0-.44 0-.21-.11a2.13 2.13 0 01.69-.19 3.81 3.81 0 00.41 0c-.19 0 0-.16.33-.27a3.21 3.21 0 00.37-.18.22.22 0 00.1-.09c.42-.06.86-.1 1.34-.13l.16.16.25-.15h-.35 1a14 14 0 012.94.27v.07l.48.09c.19.14 0 .11-.26.1s-.39 0-.11.08c-.65 0-1.36 0-2.25-.11l-.13-.07a1 1 0 00.33.09h.51a4 4 0 01-.88-.13 4.92 4.92 0 00-.52 0 .73.73 0 00-.41.1l.32.06.32.08c-.32 0-.68.13-1.06.2a5 5 0 01-.56.09 3.8 3.8 0 01-.58.06c.19.08.23.07.3.06a1 1 0 01.45.08c-.13-.06-.07-.1.08-.13a5.12 5.12 0 01.63 0c.46 0 .89 0 .51-.15a2.73 2.73 0 00.79.21 2.6 2.6 0 01.89.23c0-.07-.23-.16.38 0a.42.42 0 01.15 0 1.06 1.06 0 01-.3-.14 2.37 2.37 0 01.85 0l.47.08h.36c.34.15-.17 0 0 .15a4.46 4.46 0 01.51.07c0 .07.17.23.25.33s0 .09 0 .1a.28.28 0 01-.11 0l-.19-.17a2.59 2.59 0 01.33.17l.15.08.16.1c.15.14.34-.64.53-.48l.28.21c.07 0 .14 0 .13-.09.37.21.59-.52.78-.31a5.3 5.3 0 00.59.57c-.17-.16-.33-.33-.48-.5a5.2 5.2 0 01.93.65 1.85 1.85 0 00-.2-.2 6.29 6.29 0 003.81 1.27l-.29.08a4.34 4.34 0 01-1.79 0c-.57-.14-.65-.26-.63-.3s.14 0 0-.07c-.47-.22-.79-.4-1.05-.53s-.47-.21-.66-.29a3.57 3.57 0 01-.55-.28c-.09-.06-.19.08-.29.21.27.27.94.52.55.39a9.41 9.41 0 001.3.74 5.59 5.59 0 001.1.43l.3.07.3.05h.6c.8.09 1.6.1 2.43.19h.37l.41-.06 1-.14.19.09c.32-.08.8-.17 1.24-.29a2.35 2.35 0 00.91-.41 1.48 1.48 0 00.37-.07 3.38 3.38 0 00.46-.2 4.47 4.47 0 001-.72c.32-.3.59.31.82 0s.39-.63.53-.87l-.16-.1a5.41 5.41 0 00.55-2.15h-.17a10.15 10.15 0 01.13-1.3v-.76-.78a.89.89 0 010 .52c.39-1.25-.27-2.64 0-3.78z"/>
      <path class="cls-12" d="M48.83 63.11c-.1 0-.15.1 0 .35s.27 0 .38-.18a2.17 2.17 0 01-.29-.2h-.11m-5.52-.7h.6a2.69 2.69 0 01-.54-.06s.13.09-.06.09M42.11 62a4.87 4.87 0 00.62-.1c0-.06-.14-.08-.3-.07a4.9 4.9 0 00-.59.06h.08c-.05.09 0 .12.19.11m-.77-.05c0 .08.17 0 .4 0h-.4m5.62.77c-.16-.09-.18.13-.26 0s0 0 .07.06h.52s-.09-.07-.33-.13m-1.38-1h.28l-.34-.08-.35-.07h-.2H45.58m-1.18-.1h.6H44.4m8.37 2.73l.39.06c.05 0 0 0 0-.07l-.34-.09c-.2 0-.49-.08-.4 0s.26.07.4.09M20 54.93l-.08.53.13-.34zm0 1.13l.22.32a.91.91 0 010-.44l-.25.12z"/>
      <path class="cls-13" d="M36.54 37.16a1.47 1.47 0 11-1.47-1.58 1.52 1.52 0 011.47 1.58m.23 0s-.06 0 0 0m-.11-.26zm0-.23c-.06 0 0 .08 0 .13s-.07-.1-.06-.14m.03-.28h-.05m-.06 0s.07 0 0 0m-.11.22s0-.05 0 0m.05-.49v-.06m0 .2h.07l-.08-.05zm0-.37zm-.01.12a.11.11 0 00-.08 0v.06M36.4 36.23"/>
      <path class="cls-13" d="M36.47 36.29h0m-.07-.12zm0 0zm0-.2h-.06v.06m-.25-.19zM36 36h.08s.11-.1.13-.18 0 0-.06 0 0 .1 0 .1v-.07c0-.07-.09 0-.12.08H36m.27-.09v-.07.07z"/>
      <path class="cls-13" d="M36.29 35.92H36.28c.08 0 0 0 0-.06v-.05h-.07v.06m.05.42v-.09l-.07.08m0-.18v.05m-.14-.35h-.07m-.07-.05zM34.2 35.63h-.07M35.3 35.34a.09.09 0 00-.06 0s.05.06.06 0M35.19 35.34h0M34.14 36.26zm0 .06v-.06l-.1-.07.09.13"/>
      <path class="cls-13" d="M34.14 38h.09c.02 0-.08-.09-.19 0 0-.07-.09 0-.11 0s0-.05 0 0h-.13.07c.01 0 0 0 0-.12.06 0 0-.06.06-.11s-.08.11-.13.08 0 0 0-.06h.06-.09c-.03 0 0 0 .08-.07s-.07.05-.09 0 0-.07 0-.12 0 0 .06 0h-.13c-.02 0 0 0 0-.05v-.07h.07l-.1-.11h.05c-.05 0-.1 0-.14-.07h-.05a.19.19 0 010-.07h.09a.16.16 0 00.1 0l.06-.06c-.06-.07-.14-.15-.13-.25s.07 0 .12.06 0 .07 0 .11V37h.07c.07 0 0-.07 0-.12v.07c0 .07-.08-.1 0-.11s0-.07 0 0 .1-.16 0-.22l.09.08a1.15 1.15 0 01-.14-.27c0 .06.19.14.19.21s-.09 0-.08-.07 0 0 .13 0-.09-.09-.07-.1l.08.09v-.12s.06.07.09.09 0 0 0-.05c.06 0 0-.16 0-.2s0 .13.09.12a.91.91 0 010-.16.26.26 0 010-.18V36v.37c0 .09 0 0 .06 0h.08v-.13a.47.47 0 000 .1.24.24 0 010-.12s0-.08.06-.09 0 .11 0 .13v-.05s0-.1.08 0 .06.07.06 0a1.12 1.12 0 01-.11-.34.27.27 0 01.13.08v.19a.43.43 0 010-.05s0 .05 0 0 .06 0 0-.06 0 0 .08 0a.17.17 0 01.06-.16h.17c.06 0 0 0 0 .07v.07c0 .07.06 0 .09-.06s-.07 0-.1 0a.21.21 0 01.16-.18c.06 0 0 0 0 0s.13-.12.21 0 0 .1 0 .14-.06-.06-.09-.07-.06 0-.07 0 .17.06.23.14.07 0 0-.06.11 0 .14 0v.05s0-.05 0 0 0 .11.09.06v-.33h.15c.02 0 0 0 0-.08 0 .09-.1-.07-.11 0v-.15c0-.09 0 0 0 0h-.13c-.03 0 0 0 0 0v-.09h-.05a.12.12 0 00-.1-.06s-.07 0 0 0h-.09a.19.19 0 00-.13 0 .2.2 0 01-.13 0 .16.16 0 01-.1 0h-.37s-.08 0-.13.06-.12 0-.19 0h-.12c-.03 0-.06.08-.11.07s0 0 0 .05 0 0-.09 0-.07.09 0 .16A.06.06 0 0034 36h-.05v.09c0 .03-.07 0-.08 0s0 .06 0 .16v.07c0-.01-.15.21-.26.31.11 0-.06 0 0 .08s0 0-.06 0-.07.09 0 .16.06.1.14.12 0 0 0 .08-.05 0-.06 0-.06.14 0 .15a.41.41 0 000 .11c.07 0 0 0 0 .09v.14h.05c.1 0-.05.09 0 .14s-.11.11-.11.14.06 0 .09 0-.08 0-.08.05.14.09.1.16 0 0 .07 0 0 .15.05.15.09.07.13.07 0 .09 0 .11.09.05 0 .1l.07.07c0 .06.08 0 .12 0s.07.09.17.08 0 0 .06.07a.16.16 0 00.12.08c.06 0 .1.05.15.1s.09.06.14 0h.07c-.08 0 0-.07 0-.1s.07.07 0 .07c0 .08.1.06.08.11a1.91 1.91 0 00.52.07v-.06h.06v.06c0 .06.06 0 .06-.06v.08s0-.07.07-.08h.07s.07 0 0-.07.1 0 .16 0 .11-.07.13-.06.06-.08.11-.11-.06 0 0-.06.1 0 .19 0 0 0 0-.06v-.07c0-.01 0 0 .08 0a.27.27 0 01.1-.11.4.4 0 00.13-.13h.1s-.07-.07 0-.07a.62.62 0 00.16-.31 1.09 1.09 0 010-.17.7.7 0 01.1-.16h-.07l.08-.09c-.06 0 0-.1-.06-.11h-.25c-.09 0 0 0 0 .07s-.06 0 0 .09 0 0 0 .07c0 .1-.06.13-.12.22h.05a.06.06 0 01-.05 0c.05 0 0-.06.09 0s-.07 0-.09.08a.07.07 0 01-.09 0h-.07c-.02 0 0 0 0 0s0 .07-.05.07 0 0 0 .07v.06a.35.35 0 00-.08.13c0 .08-.06 0-.11.09a.06.06 0 010 .06s-.06 0 0-.06 0 0 0 .15v.08c0 .02-.05 0 0-.09s-.08.13-.16 0c0 .1.09 0 .07 0s0 .08 0 .08-.08-.1-.14-.08 0 0-.08 0 0 0 0 .08h.06s-.05.12-.12.08.07 0 .1-.09-.06.07 0 0v.05h-.06v-.11c0 .05-.06 0-.09 0s0 .05 0 .09 0-.12-.14-.11 0 0 0 .07 0 0-.07 0c-.06 0 0 .09-.1 0h.05v-.05h-.09c-.03 0 0 .08-.06.07s0-.05 0 0-.05 0-.07 0h-.08s0-.07.07-.07h-.72v-.06h-.13c-.02 0 0 0 0 0s0-.09-.1-.09v-.07s0 .09-.1.06 0 0 0-.08-.12 0-.1-.05M34.370000000000005 38.23zM35.78 35.47s0-.05 0 0-.11 0 0 0M35.82 35.77zM35.43 35.66v.06zm-.12 0s-.06 0 0 0m-.59-.07v-.1zm-.35.41v-.05.07m2.39 1.2zm-.07-.07h.06M34 37.5zm.09.33h-.05zm.22.19s0 .07 0 0m14.46-.86a1.48 1.48 0 11-1.48-1.58 1.52 1.52 0 011.48 1.58M48.88 36.9zm0-.23c-.06 0 0 .08 0 .13s-.07-.1-.06-.14m.03-.28s.07 0 0 0M48.74 36.67s0-.05 0 0m0-.49a.13.13 0 010-.06m0 .2h.07l-.07-.05zm0-.37zm-.1.05a.15.15 0 00-.09 0v.06M48.58 36.23"/>
      <path class="cls-13" d="M48.68 36.309999999999995h0m-.07-.12zm0 0zm0-.2v.06m-.25-.19zM48.15 36h.08s.11-.1.13-.18 0 0-.06 0 0 .1 0 .1v-.07c0-.07-.09 0-.13.08m.27-.09v-.07h-.06l.06.07z"/>
      <path class="cls-13" d="M48.48 35.92H48.47c.08 0 0 0 0-.06v-.05h-.07v.06m.06.42h.05v-.09l-.07.08m0-.18h-.06.05m-.14-.35h-.07m-.07-.05zM46.22 35.61h-.07M47.32 35.32a.09.09 0 00-.06 0s0 .06.06 0M47.38 35.34h0M46.33 36.26zM46.31 36.29v-.06l-.1-.07a.64.64 0 00.1.13"/>
      <path class="cls-13" d="M46.33 38h.09c.02 0-.08-.09-.19 0 0-.07-.09 0-.11 0s0-.05 0 0h-.08.07c.11-.08 0 0 0-.12.06 0 0-.06.06-.11s-.08.11-.12.08 0 0 0-.06h-.03c-.09 0 0 0 .08-.07s-.06.05-.08 0 0-.07-.06-.12 0 0 .06 0h-.13c-.02 0 0 0 0-.05v-.07H46l-.1-.11h.05c-.05 0-.1 0-.14-.07s0-.05 0-.07.06 0 .09 0a.16.16 0 00.11 0L46 36.8a.41.41 0 01-.13-.25s.07 0 .13.06 0 .07 0 .11v-.09h.07c.07 0 0-.07-.05-.12s.06 0 0 .07-.08-.1 0-.11 0-.07.05 0 .1-.16 0-.22l.08.08a1.69 1.69 0 01-.13-.27c0 .06.19.14.19.21s-.09 0-.08-.07 0 0 .13 0-.09-.09-.07-.1l.08.09v-.12s.06.07.09.09 0 0 .05-.05c.06 0 0-.16 0-.2s.06.13.09.12a.91.91 0 010-.16.26.26 0 010-.18v-.06.37h.08v-.13a.47.47 0 00-.05.1.16.16 0 010-.12.09.09 0 010-.09v.13c0 .02 0-.06.05-.05s0-.1.08 0 .06.07.06 0a.88.88 0 01-.1-.34s.1 0 .12.08 0 .14 0 .19a.43.43 0 010-.05s0 .05 0 0 .07 0 0-.06 0 0 .07 0a.17.17 0 01.06-.16h.18c.07 0 0 0 0 .07a.09.09 0 01.05 0c0 .06-.05 0 0 .07s.06 0 .09-.06-.06 0-.09 0a.2.2 0 01.15-.18c.07 0 0 0 0 0s.13-.12.21 0 0 .1 0 .14-.06-.06-.09-.07-.05 0-.06 0 .17.06.22.14.05 0 .05 0 .07 0 0-.06.11 0 .14 0v.05s0-.05 0 0 0 .11.08.06v.04h.16c.03 0 0 0 0-.08 0 .09-.1-.07-.11 0v-.15c0-.09 0 0 0 0h-.12c-.02 0 0 0 0 0v-.09a.11.11 0 00-.09-.06s-.08 0 0 0h-.08a.19.19 0 00-.13 0 .17.17 0 01-.13 0 .19.19 0 01-.11 0h-.37a.3.3 0 00-.13.06h-.19c-.07 0 0 0 0 0h-.13c-.03 0-.06.08-.11.07s0 0 0 .05h-.1c-.1 0-.06.09 0 .16s-.05 0-.05.06a.29.29 0 010 .09h-.08c-.01 0 0 .06 0 .16v.07c0-.01-.14.21-.25.31.11 0-.07 0 0 .08s-.05 0-.06 0-.08.09 0 .16.07.1.14.12 0 0 0 .08-.06.14 0 .15a.41.41 0 000 .11c.07 0 0 0 0 .09v.14c.1 0 0 .09 0 .14s-.11.11-.11.14.06 0 .09 0-.08 0-.08.05.14.09.1.16 0 0 .07 0 0 .15 0 .15.08.07.13.07 0 .09 0 .11.08.05 0 .1l.07.07c0 .06.08 0 .12 0s.06.09.16.08 0 0 .06.07a.16.16 0 00.12.08.22.22 0 01.15.1s.09.06.14 0h.08c-.08 0 0-.07 0-.1s.06.07 0 .07c0 .08.09.06.08.11a1.79 1.79 0 00.51.07v-.06.06c0 .06.06 0 .06-.06v.08s0-.07.07-.08h.07s.06 0 0-.07.11 0 .17 0 .11-.07.13-.06a.18.18 0 01.1-.11s-.06 0 0-.06.1 0 .19 0 0 0 0-.06v-.07c0-.01 0 0 .07 0a.23.23 0 01.11-.11.5.5 0 00.12-.13h-.05.1s-.07-.07 0-.07a.62.62 0 00.16-.31l.06-.17a.65.65 0 01.09-.16h-.06l.07-.09c-.06 0 0-.1-.06-.11h-.25c-.09 0 0 0 0 .07s-.05 0 0 .09 0 0-.05 0 0 0 0 .07c0 .1-.07.13-.13.22s0-.06.09 0-.06 0-.08.08a.09.09 0 01-.09 0 .11.11 0 01-.08 0s0 .07-.06.07v.07l-.05.06a.57.57 0 00-.08.13c0 .08-.06 0-.11.09a.06.06 0 010 .06s-.06 0-.05-.06 0 0 0 .15V38.2c0-.09-.08.13-.16 0 0 .1.09 0 .08 0s0 .08 0 .08-.08-.1-.14-.08 0 0-.08 0 0 0 0 .08h.06s-.05.12-.11.08.08 0 .1-.09-.06.07-.05 0v.05h-.06v-.11c0 .05-.07 0-.1 0s0 .05 0 .09-.05-.12-.14-.11c-.06 0 0 0 0 .07s0 0-.06 0 0 .09-.1 0v-.05h-.08c-.03 0 0 .08-.07.07s0-.05 0 0 0 0-.07 0h-.09-.05c-.05 0 0-.07.07-.07h-.07v-.06h-.13s0-.09-.1-.09v-.07s0 .09-.1.06 0 0 0-.08-.12 0-.11-.05M46.6 38.23zM48 35.52s0-.05 0 0-.11 0 0 0M48 35.82zM47.61 35.71v.06zm-.11 0s-.07 0 0 0m-.6-.07v-.1zm-.35.41V36v.07M49 37.26zm-.06-.07H49h-.06m-2.74.31zm.09.33zm.23.19s0 .07 0 0"/>
      <path class="cls-14" d="M48.27 50.31l.21-.15-.27.11zm2.6-1.81l-.09.2a1.86 1.86 0 01-.11.19c-.05 0-.12 0-.21.09l-.13.11-.14.12.11-.08.1-.09v.13c0 .05-.28.21-.39.28a.91.91 0 01-.16.11 1.1 1.1 0 01-.24.09l-.25.19c-.09 0-.07 0-.05-.06a2.63 2.63 0 01-.75.41.82.82 0 00.52-.18.89.89 0 01.51-.21 1.28 1.28 0 01.25-.15l.26-.14.25-.16a1.06 1.06 0 00.23-.19 4 4 0 00.26-.37c.07-.13.11-.25.06-.29M48.31 43.16s.06 0 .1-.05z"/>
      <path class="cls-14" d="M51 45s0-.13.13 0 0 0 0 .07l.08.06c0 .09-.09 0-.14 0S51 45.08 51 45zm-1-1.08a1 1 0 01.35.19c.15.11.3.23.38.2s.2.24-.07.07a.59.59 0 01.21.37 1.37 1.37 0 000 .23 3.6 3.6 0 00-.87-1.06zm-1.86-.5l-.49.08.27-.06a2.44 2.44 0 01.34-.08H48.68a1.36 1.36 0 01.53 0l.46.1a.35.35 0 01-.15.12 2.26 2.26 0 00-1.37-.16zM38 43.75h-.13a.26.26 0 00.12-.05s.01.03.01.05zm2.35 0h-.38.06a1.71 1.71 0 01.28.05zm6.11-.17h-.59a1.7 1.7 0 01.55.05zm.46 0h-.22a.47.47 0 01.22 0zm0-.16c.26.06.21-.1.52 0a.55.55 0 00-.19.14 1.32 1.32 0 00.35 0l-.52.07c-.14-.15-.44-.09-.24-.2zm3 .36v.05l-.18-.1a.29.29 0 01.13.06zm1.23.88l.08.06a1.66 1.66 0 00-.24-.18 1 1 0 00-.22-.44.84.84 0 00-.42-.32h.05a5.56 5.56 0 00-.5-.39 2.12 2.12 0 00-.68-.32c-.11.05-.28 0-.46 0a1.06 1.06 0 00-.25 0h-.09c.09 0 0 .06 0 .1a.79.79 0 00-.2.12c-.13-.11 0-.1-.18-.19h.17a.93.93 0 010-.1 1 1 0 01-.7.16.79.79 0 00-.56.08c-.22 0-.36.11-.51.16s.08-.09.16-.14a12.65 12.65 0 01-1.42.14c-.14.08.06.09-.09.15s-.22-.06-.07-.11c-.36-.11-1.18.15-1.74 0-.29.08-.1.12-.55.18.1-.06-.11-.18.16-.19a3.05 3.05 0 00-1.28.13c0-.11-.08 0-.25-.08-.17.1-.25 0-.36 0l-.32.07c-.06 0-.13 0-.15-.08v.08c-.17 0-.08-.1-.29-.09v.07c-.13 0-.35 0-.38-.06H40c-.2-.12-.54 0-.81 0l.07.13c-.26 0-.16 0-.15-.08-.17 0-.2 0-.43-.07s-.06 0-.1.08h-.22l.15-.07c-.37.18-.89-.07-1.13.09-.13 0 .12-.07 0-.1-.41-.11-.94.06-1.28-.07a6.15 6.15 0 00-.89-.13l-.47-.06h-.23l-.25-.19a2.85 2.85 0 00-.51 0 1.89 1.89 0 01-.31.1.81.81 0 00-.35.16v-.1a4.36 4.36 0 01-.54.24v-.06a2.53 2.53 0 00-.65.45 1.57 1.57 0 00-.36.49c-.09.14-.14.1-.2.11a1.43 1.43 0 00-.25.64l-.13.15v.12c0 .04-.07 0-.12.08a4.8 4.8 0 01-.12.66 2.59 2.59 0 00-.08.56.54.54 0 010 .22s0 .08-.06 0V47a1.59 1.59 0 00.08.38v.09a.36.36 0 000 .09 2.5 2.5 0 00.18.37 1.13 1.13 0 00.11.22 2.6 2.6 0 01.13.24.24.24 0 000 .17 1 1 0 00.16.21l.17.19a.22.22 0 01.07.17c.27.2.41.38.65.43s.15.14.3.22a4 4 0 00.48.19V50c.15 0 .65.18.8.1s-.07 0-.12 0c.12.16.29 0 .48.13v.08H34.36a2.47 2.47 0 00.29.06 6.21 6.21 0 00.64.08 11.85 11.85 0 011.35.17c.25 0-.07-.13.25-.08.09.07-.17.1 0 .14a.71.71 0 01.41 0s0 .06-.15.07c.11.06.49 0 .71.08 0 0 0-.06.08-.07.35-.07.77.16.8.11s.12 0 0 0c.12 0 .3 0 .27.09a.57.57 0 01.22-.07v.07s.12-.05.18-.06h-.09c.14.06.42-.06.41.06l.27.07a.65.65 0 01.39-.08c.07.14.46.05.68.06.18-.06.64 0 .55-.06.18 0 .41 0 .33.07.14 0 .43 0 .51-.11l.28.1c.17-.16.57 0 .58-.14.16 0 .13.06.24.08a1.68 1.68 0 01.67-.1c.23 0 .49-.11.8-.16l.08.12c.17 0 .2-.14.36-.13a1.18 1.18 0 01.49 0c.23-.13.42-.12.61-.26.2.08-.27.09-.09.18a3 3 0 001-.25v.07a2.63 2.63 0 00.32-.25c.14-.11.24-.24.2-.3 1.88-.6 3.26-1.49 3.26-3.32a3.56 3.56 0 00-.24-1.25 1.72 1.72 0 01.2.43v-.06a2.53 2.53 0 01.07.38l.05.15v.15a1.67 1.67 0 010 .19h-.06a.59.59 0 01.09.3v.7a.37.37 0 010 .11c-.14.2 0-.32-.14.13l-.06-.16a1.05 1.05 0 01-.13.31l-.06.1a.67.67 0 00-.06.12.42.42 0 00.12-.1s.05 0 0 0a.43.43 0 00-.21.26 2 2 0 01-.13.32.46.46 0 00.3-.03c.08-.11.08 0 .13-.07v-.19h.1c0-.11.07-.22.09-.32.08.05.13-.29.17-.13l.08-.29a.68.68 0 000-.14.44.44 0 000-.15c.08-.15 0 .26.06.09a4.4 4.4 0 00-.58-2.72z"/>
      <path class="cls-13" d="M42.96 46.43zM36.6 46.46zM36.62 46.39H36.63M44.54 46.43zm1.02.12h-.12v.06z"/>
      <path class="cls-13" d="M46.73 47.81l-.12-.11c.35-.08.52 0 .81-.11.05 0 .05-.24.56 0l-.09-.06s.08-.09.15-.11h.16l.05.07s0-.2.15-.13c-.06-.1.06-.07 0-.13s.22-.07.25-.13l-.18-.11a2 2 0 01-.25-.19c.12 0 0 0 0 0-.07 0-.07-.09-.11-.11a.27.27 0 01-.09 0v-.06c0 .12-.35-.13-.41-.13h-.23c-.08 0-.08-.08-.15-.12s0 .06 0 .07l-.1-.07v-.07c0-.07-.23-.09-.25 0-.12-.05-.12-.09-.17-.09s.05 0 .05.06-.38-.18-.39-.05v.29a.06.06 0 010-.07h-.29l.12.25c-.09-.05-.24-.16-.25-.07l-.06-.08c-.18-.16-.11.08-.18 0l-.09-.08h.08a1.22 1.22 0 01-.19-.12.11.11 0 01-.11.08c-.08 0-.14.07-.28 0v.1h-.11v.07a3.92 3.92 0 00.4-.06h-.21c-.05 0-.09-.09 0-.14v.07a.9.9 0 01-.51 0h-.12a.68.68 0 01-.42-.13v.09s-.09-.14-.09 0h-.07s-.07.05-.12 0c-.1 0 0 .08-.11 0s0 .12-.1.1l-.06-.13c-.1-.07-.11.07-.26.07a.21.21 0 01-.07-.25c-.06.13 0 .08-.11.15a.14.14 0 010-.11c-.08-.05 0 0-.1 0s0 .24 0 .24c-.06.05-.12.08-.19 0v-.05h-.08v-.06h-.11a.22.22 0 01-.16 0c-.13-.1-.24 0-.39 0v-.06c-.06-.07 0 .1-.08.07v-.08c-.06.11-.07 0-.11-.07v.11h-.08c-.07 0 0-.13 0-.19v.08-.09c0 .11 0 0-.1 0s0-.06 0-.07l-.11.14.07-.07v.14c-.07.11-.09 0-.14 0-.08 0-.09 0-.13-.06s0 .07 0 .08v-.06c0-.06-.07.14-.12.1v-.1.09H41.03v-.08c0 .11-.12 0-.12.09 0-.08-.17 0-.14-.11-.16 0-.24.14-.43 0s-.24-.1-.36-.12-.39.09-.63.12c-.14-.2-.37 0-.52-.08v.07c-.09-.12-.26 0-.4-.11s-.05 0-.06 0a.17.17 0 010 .07s-.12 0-.11-.1c0-.09-.13 0-.17 0v.11h-.08c-.35.2-.48-.13-.82.05 0-.11-.07 0-.06-.07s-.16 0-.23.06h-.12c.09-.15-.09.12 0 0a5.45 5.45 0 00-1-.14h-.26c-.06 0-.16.09-.19.09s-.13-.08-.1-.07-.17.15-.27.08-.31.1-.3-.05c-.13-.12-.28 0-.42-.06l-.35.41v.5l.23.43h.74l.56.21 1.43.07.11-.1c.26.22.64 0 .93.18v-.09c.08 0 .07 0 .09.07a15.9 15.9 0 012.33.11c.06.07.28 0 .33.11a1.5 1.5 0 01.72-.09h.11c.12-.08.32 0 .48 0 .9 0 1.7-.22 2.58-.15.42.13.88-.12 1.35 0a3.16 3.16 0 001.1-.12M46.1 46.63v-.05zm1.22-.14s-.06 0 0 0m1.25.93v-.05m-.17-.53"/>
      <path class="cls-11" d="M61.37 29H61.83a2.06 2.06 0 00-.26 0c-.12 0-.2 0-.2.07M12.5 51.16a2.37 2.37 0 00.22.46 1.23 1.23 0 00-.22-.46m8.32 5.78h-.47a2 2 0 00.26.06c.12 0 .21 0 .21-.06m.48.12a3.47 3.47 0 00-.44 0 1.75 1.75 0 00.44 0m-1.1-.16h.15-.15M60.89 29h.43a1.37 1.37 0 00-.43 0m9.19 4.9a1.64 1.64 0 00-.25-.44 1.38 1.38 0 00.25.44"/>
      <path class="cls-1" d="M70.75 35.32c0 .05 0 .08 0 0m8.55 1.12h.22-.22M54.61 46.73c0 .05 0 0 0 0m-.29-12.5zm.2-.64a3.48 3.48 0 01-.2.64l.19-.17a3.65 3.65 0 010-.47"/>
      <g mask="url(#mask-5)">
        <path class="cls-1" d="M69.83 33.41a1.64 1.64 0 01.25.44 1.38 1.38 0 01-.25-.44M60.89 29a1.08 1.08 0 01.43 0h-.43m22.68 7.1l-.27.05a1.42 1.42 0 01.27-.09l-.57.1h.24c-.29.08-.59.14-.88.2s0 0 .07-.06c-.18 0-.3.08-.57.12.06 0 0-.09.42-.16l-.85.15h-.34c-.48 0-1.16.18-1.8.19H77.22l-.4-.07c-.55 0 .54.09-.38.11-.65 0-.24-.06-.47-.09a5.86 5.86 0 01-1.48 0h.53a3.5 3.5 0 01-.45-.07c.55 0 1 0 .52-.06-.07.16-1.75-.15-1.82-.06l-.27-.14h.18c-.56-.15-.44 0-1.16-.18-.24-.1-.39-.19-.23-.14-.17-.06-.36-.11-.53-.18s-.09-.09 0 0l-.35-.22-.14-.08-.07-.15-.28-.5c-.08-.22.06.1 0 0l-.24-.45c0-.2.15.17.29.49-.07-.48-.18-.37-.57-1.32l.23.42a6.54 6.54 0 00-.51-1.13c.06.12.43 1 .14.54a3.25 3.25 0 00-.35-.56s-.11-.27-.33-.56h.06a2.44 2.44 0 00-.42-.43 1.55 1.55 0 01-.34-.55c-.5-.51.29.4-.32-.18a4.91 4.91 0 00-1.36-1c-.35-.22.08 0 0-.09l-.34-.13c-.08 0 0 0 0 0-.28-.12 0 0-.49-.15a2.81 2.81 0 01-.56-.25 3.44 3.44 0 00-.93-.28c-.14-.05.08 0 0-.06a5.71 5.71 0 00-1.32-.08 5.43 5.43 0 00-.56-.09c.41.06-.12.1-.58.13h-.55s.08 0 .2-.07a2.06 2.06 0 01.26 0c.18 0 .36-.07.32-.11h-.24.05a.69.69 0 00-.22 0l-.17-.07a6.58 6.58 0 00-1 .06 11.47 11.47 0 00-2.21 1c.22-.18 0-.11 0-.17.3-.08.77-.39 1.33-.54-.29.08-.23 0-.16 0a7.3 7.3 0 00-.94.43c0-.06-.22.06-.46.17.22 0-.65.42-1 .71 0 0 0-.11.45-.38-.52.24-.54.51-1 .81a2.76 2.76 0 01-.47.39 7.23 7.23 0 00-.91 1.13 2.91 2.91 0 00-.44 1v-.2a6.78 6.78 0 00-.19 1c-.05.15-.1.31-.14.47s-.21.1-.11-.36a3.69 3.69 0 00-.2.83c0-.13.18-.3.14-.12a4.89 4.89 0 00-.24.94c0-.2.11 0 .11.35 0 0-.11 0-.12-.1 0 .27 0 .53.09.79 0-.2-.09 0-.12.14 0-.08 0 .68.05.89v-.34a8.78 8.78 0 00.39 1.72c0-.1-.21-.23-.11.21l.4.67a6 6 0 00.4.88 5 5 0 01-.7-1.17 2.08 2.08 0 00.17.58c0 .13-.07-.06-.14-.23a6.59 6.59 0 00.4 1c0-.07.55.74.58.66a6.46 6.46 0 01-.72-1.07 13.69 13.69 0 011 1.22c.11.18-.2 0-.2 0l.63.6-.29-.21a2.47 2.47 0 00.49.39l.17.1s.07 0 0 .06l-.09.08s-.37.33-.35.36c.16-.12.29-.12.36-.06-.13.16-.26.33-.38.5L56 44l-.36.53c-.1.06.16-.48 0-.31a.81.81 0 01-.1.24c-.11.16 0-.1-.22.27 0 .1-.44.77-.05.21-.19.38-.24.38-.44.84.07-.09 0 .18-.07.5l-.16.42a8.25 8.25 0 00-.44 2.07c0 .08-.06.46-.08.3a3.72 3.72 0 010 .47c0 .48 0-.56-.08-.19 0 0 .08.65.14 1a9.67 9.67 0 00-.07-1.16s.06.08.09.24a1.34 1.34 0 000 .2 11.19 11.19 0 00.37 2.37 5.34 5.34 0 00.32 1c0 .09.08.17.11.26l.13.28c0 .1.09.21.14.31a6.76 6.76 0 00.42.73c.08.09.18.23.22.26a8.26 8.26 0 001 1.06l.17.15.14.13-.1-.09a7.14 7.14 0 001.34.9l.38.17s-.14 0 0 0a.37.37 0 01.16 0l.63.25.58.19H60.34a11 11 0 002.42.35c3.46.12 7.63-3.22 8.52-7.29a3.8 3.8 0 011-.33h.36c.46-.17 1.26-.08 2-.25.17 0-.15 0 0 .06a3.28 3.28 0 01.88-.09c1.26-.06 1.8 0 3.22 0h-.11a3.1 3.1 0 01.51 0c.35-.07-.85 0-.53-.1.4.1 2.15.07 2.41.19.47 0-.13-.06.34 0h.24c.31 0 .46.07.47.1h-.29c.39 0 1.11.08 1.25.1l-.45-.06.66.06A42.67 42.67 0 0084 42a41.67 41.67 0 00-.43-6"/>
      </g>
      <path class="cls-1" d="M56.15 31.27l.09-.1-.08.09M62.1 28.83h0m17.17 7.61zm-23.74 8a1.21 1.21 0 01.15-.2s-.05 0-.15.2M54.4 52l.09.22a1.49 1.49 0 010-.22zm-.27-1.26c0 .05.12.53 0 .08 0 0-.1-.7 0-.08m0-11.72c-.1-.34-.09-.53-.14-.36.06.58.08.13.15.65 0 .13-.06-.43 0-.29m0 0l.05.17-.03-.19m15.24-6.56a1.92 1.92 0 00.16.29l-.13-.27zM72.21 36h-.08l.13.09zm4.07.41a4.69 4.69 0 01-.53 0c.36 0 .58.08.53 0M11.57 50.16c-.07 0-.1 0 0 0M28.49 52.34zm-.27.64a2.34 2.34 0 01.26-.63l-.21.15-.05.48z"/>
      <g mask="url(#mask-6)">
        <path class="cls-1" d="M12.72 51.62a2.37 2.37 0 01-.22-.46 1.23 1.23 0 01.22.46m8.58 5.44a1.75 1.75 0 01-.44 0 3.47 3.47 0 01.44 0M2.73 49.51c.61 0 1.15 0 1.87-.08l.42.06c.56 0-.56-.07.38-.12.67 0 .25.06.48.08a5.84 5.84 0 011.52 0h-.55l.47.06c-.57 0-1 0-.54.07.08-.14 1.81.08 1.88 0l.3.06h-.19c.59.12.45 0 1.21.09.26 0 .43.13.26.1l.58.1c.16 0 .12.06-.05 0a5.91 5.91 0 01.84.28 2 2 0 01.5.19c.18.14-.1 0-.06 0l.2.11c.07 0 .05 0 .11.13s0 .06-.07 0a.14.14 0 00-.1-.07l-.2-.13c.15.19.23.18.25.24a8.1 8.1 0 01.36.87l-.21-.55a6.91 6.91 0 00.42 1.18c0-.13-.35-1.06-.09-.56a4.08 4.08 0 00.3.59s.1.29.28.61h-.07a3.26 3.26 0 00.38.48 1.71 1.71 0 01.29.6c.43.58-.25-.44.29.23a5.33 5.33 0 001.25 1.2c.33.27-.08 0 0 .09l.33.18c.08.06 0 0 0 0 .27.16.05 0 .48.21a7.36 7.36 0 001.46.68c.13.06-.08 0-.05 0a6.91 6.91 0 001.38.24 5.09 5.09 0 00.56.14c-.41-.1.13-.09.6-.08h-.06.15-.09H20.76s-.09 0-.21.06a1.1 1.1 0 01-.26-.06c-.19 0-.37 0-.33.08h.24-.06.23l.17.08a6.83 6.83 0 001 0 11 11 0 002.46-.54c-.24.14 0 .1 0 .16-.3 0-.82.32-1.4.41h.17a7.24 7.24 0 001-.34c0 .06.22 0 .49-.12-.23 0 .7-.36 1-.64 0 0 0 .12-.49.35.54-.22.6-.45 1.08-.73a1.53 1.53 0 00-.19.15c.23-.18.81-.62.69-.49l-.09.08a7.27 7.27 0 001.13-1.15 2.93 2.93 0 00.54-.93v.2a5.67 5.67 0 00.29-1c.07-.15.13-.31.19-.47s.21-.09.07.38a4.53 4.53 0 00.28-.83c0 .13-.21.29-.15.11a5 5 0 00.33-.94c0 .21-.13 0-.09-.36 0 .05.12 0 .11.11a5.34 5.34 0 000-.81c0 .2.1 0 .13-.14v-.91.34a9.49 9.49 0 00-.3-1.77c0 .11.19.25.12-.21l-.33-.65a8.34 8.34 0 00-.33-.93 5.28 5.28 0 01.58 1.13 2.16 2.16 0 00-.13-.6c0-.14.07.07.12.25a9 9 0 00-.33-1c0 .07-.49-.8-.53-.72a7.18 7.18 0 01.64 1.15 12.86 12.86 0 01-.9-1.33c-.1-.19.19.06.2 0l-.59-.68a2.16 2.16 0 01.27.25 2.16 2.16 0 00-.46-.45l-.25-.2-.14-.12-.15.04c-.16-.07.14-.18.08-.2a1.12 1.12 0 01-.38.08c.14-.16.27-.32.4-.5l.08-.1c.13-.17.26-.35.38-.53s-.18.49 0 .32a2.15 2.15 0 01.11-.24c.13-.16 0 .1.24-.27 0-.1.48-.77.07-.21.2-.38.25-.38.48-.84-.08.09 0-.15.07-.44l.18-.47a8.56 8.56 0 00.53-2.09c0-.08.07-.47.09-.3v-.48c.07-.49 0 .56.08.19 0 0 0-.66-.11-1-.05.12.05.83 0 1.2 0 0-.06-.11-.08-.28s0-.31 0-.48a11.35 11.35 0 00-.27-2.1 9.38 9.38 0 00-.29-1.05 12.07 12.07 0 00-.75-1.64c-.08-.09-.19-.24-.23-.27a7.59 7.59 0 00-2.38-2.3l-.39-.19s.15.05 0 0l-.16-.05c-.21-.1-.42-.2-.64-.28h-.05l-.6-.19H22.89a7 7 0 00-1.9-.25c-5.49 0-8.35 3.22-9.25 7.29a3.76 3.76 0 01-.94.32h-.4c-.47.17-1.29.07-2.08.25-.18 0 .15 0 0-.06a4.09 4.09 0 01-.91.09h.06c-1.29.06-1.84 0-3.29 0h.11-.52c-.36.07.87 0 .54.08s-2.19 0-2.46-.17c-.48 0 .14.06-.34 0h-.25c-.31 0-.47-.07-.48-.1h.3a5.56 5.56 0 00-.63 0 41.78 41.78 0 00.28 14c.48 0 1.14-.18 1.76-.19a.69.69 0 01.24 0"/>
      </g>
      <path class="cls-1" d="M20.07 57.06L20 57h.06m7.21-15.18a1.47 1.47 0 01-.17.2s.05 0 .17-.2M26.06 29.8c.12.1.21.22.32.33l-.22-.23-.1-.1m2.57 4.45h.06l-.08-.25a1 1 0 010 .22m.24 1.21s.1.71.05.08c0 0-.07-.54-.05-.08M29 47.54c.08.35.06.54.12.37 0-.6-.07-.13-.11-.67v.3m0 0v-.18.18m-15.88 5.1a2.07 2.07 0 00-.14-.31l.11.29zm-3.3-2.89h.08l-.15-.08z"/>
    </g>
  </g>
</svg>
