<svg xmlns="http://www.w3.org/2000/svg" viewBox="0 0 168.12 84">
  <defs>
    <style>
      .cls-1{fill:#efe5dc}.cls-1,.cls-2,.cls-4,.cls-5,.cls-6,.cls-7,.cls-8,.cls-9{fill-rule:evenodd}.cls-2{fill:#eae0d9}.cls-4{fill:#e1d5cb}.cls-5{fill:#937c77}.cls-6{fill:#b0d39f}.cls-7{fill:#fed16d}.cls-8{fill:#efa693}.cls-9{fill:#221e1f}
    </style>
  </defs>
  <g id="레이어_2" data-name="레이어 2">
    <g id="레이어_5" data-name="레이어 5">
      <path class="cls-1" d="M42 0a42 42 0 00-27.94 73.35c0-2.86 0-5.2.07-5.49s0 .69.18.27c-.11-.48-.05-.9-.14-1.46a6 6 0 00.08-1.1v.1c0-.36.21-7.49.21-7.87l.15-.14c0-.73-.05-1.34 0-1.86a7.94 7.94 0 000-1.54 3.31 3.31 0 00.14-.52c-.09 0-.06-.25 0-.53a1.79 1.79 0 000-.8l.18-.63a6.37 6.37 0 010-1.17c0 .2.12-.33.16-.73v-.4a7.18 7.18 0 00.06-.86l.12-.92v-.22a1 1 0 01.05-.18.37.37 0 01.12-.22 3.22 3.22 0 00.1-.51 3 3 0 000-.41l.12-.29.13-.28v.11c.06 0 .11-.12.17-.31l.09-.31a2.29 2.29 0 01.13-.27l-.12.18c0-.13.06-.29.1-.42v.15a2.55 2.55 0 00.08-.28 1.55 1.55 0 010-.23s.07 0 .14-.14.16-.27.24-.39c-.14.2 0-.05 0-.05a.57.57 0 01.11-.19 3.79 3.79 0 01.3-.36c.24-.29.55-.62.79-1 .06-.09.12-.18.07-.19l.18-.13.19-.15c.13-.11.25-.23.39-.33s.25-.21.36-.28a1.1 1.1 0 01.27-.15c-.28.19-.19.18-.24.26l.45-.26a2.41 2.41 0 00.37-.25l.13-.05h.06v.05c0 .05-.11.11 0 .1.36-.13.34-.16.3-.18s-.05 0 0 0h.05s.08 0 .16-.06l.38-.1.41-.09h.4l.39-.06c.53-.07 1.05-.12 1.56-.17a22.92 22.92 0 012.74-.12c-.1 0 0 .06 0 .1.47 0 .73-.2 1.09-.1-.09 0-.3.07-.22.1a1.08 1.08 0 01.33-.1l.51-.07a3.2 3.2 0 00.82-.19h.26l.26-.06.27-.06.24-.06a6.65 6.65 0 01.72-.18c-.1 0-.05 0 0 0a4.13 4.13 0 01.63-.32 4.52 4.52 0 00.77-.38 1.66 1.66 0 00.78-.33 2.1 2.1 0 01.77-.37c.72-.41 1.18-.74 1.68-1a2.41 2.41 0 01.86-.26H36.67a2.67 2.67 0 01.45.08c-.16 0-.11 0 0 .07h.22a1.2 1.2 0 00.24 0l-.08-.07a3.45 3.45 0 011.17.57l.08.06.08.06.15.14a2.69 2.69 0 01.26.33 2.26 2.26 0 01.22.37l.08.19a1.52 1.52 0 01.06.2V38.94c0 .17.06.16.1.25a.53.53 0 000 .12.45.45 0 000 .11c0 .07 0 .14-.07.22a1.85 1.85 0 010 .23 1.59 1.59 0 01-.07.2l-.09.18a1 1 0 01-.11.17 3.08 3.08 0 01-.55.6.54.54 0 00-.4.19c-.09.1-.23.22-.38.36l-.51.46c-.08.09-.17.17-.24.26a1.56 1.56 0 00-.2.27A1.19 1.19 0 0037 43a.14.14 0 000 .06v.13-.11a.19.19 0 000 .08.27.27 0 000 .09v.1a.23.23 0 00.09.12l.18.09c-.07 0 0 .06-.07.08l.7.09.4.08.33.07a1.22 1.22 0 01.29.17 2 2 0 01.26.24 1.85 1.85 0 01.32.58 3 3 0 01.12 1.28 3.5 3.5 0 01-.36 1.19 2.75 2.75 0 01-.78.94 2.57 2.57 0 01-1 .5l-.34.06-.44.16c-.24.06-.5.1-.77.14h-.83a3.43 3.43 0 01-.8-.11h.12c.1 0 .17 0 0-.06h-.25a1.71 1.71 0 01-.3 0l-.33-.1-.34-.15c-.46-.22-.91-.51-1.31-.65a3.4 3.4 0 00.34.12c-.15-.1-.29-.21-.43-.32s0 .07-.24 0c-.41-.31-.46-.39-.78-.6h.09l-.06-.06-.26-.14.05.2-.2-.27a.2.2 0 00-.09-.05H30.02l-.22-.06-.22-.05h-.22a2 2 0 01-.37-.13h.15c-.01 0-.15-.09-.31-.11l-.51-.08.09.08a.66.66 0 01-.36-.09.58.58 0 00-.29-.08v.09s-.2-.08-.32-.11l-.71.06h.09a1.42 1.42 0 01-.36 0 1 1 0 00-.44.05h.07-.4c-.09 0-.13 0-.15-.06-.27.1-.71.2-1.2.32a6.8 6.8 0 00-1.42.5L23 47h.07s.06 0 .07-.06 0-.05 0-.07-.11-.05 0-.13l-.15.08-.12.07-.18.12-.17.14-.1.13-.09.09-.14.14a4.18 4.18 0 00-1.38 1.47c-.35.6-.58 1.21-.77 1.56v-.19l-.07.1a.89.89 0 00-.08.17c0 .35.11-.07.1.26a3.38 3.38 0 00-.11.34 2.26 2.26 0 00-.07.39 7.69 7.69 0 00-.07.85V54.07c0-.2-.06-.46-.13-.42s.05.36.08.56a3 3 0 010 .31 2.14 2.14 0 010 .34v-.08a4 4 0 01-.15 1.22 4.88 4.88 0 000 1.66l-.12.08.06-.37c-.14.31-.1.06-.26.32.06.13-.15 7.94-.08 7.62l.24-7.22c.21.36-.37 8.4-.21 8.81 0 .52-.07 5.66-.12 10.25A42 42 0 1042 0"/>
      <path class="cls-2" d="M34.82 38.24a3.23 3.23 0 00-.16-.33c.05.11.1.22.16.33m1.08 3.7v-.16.16"/>
      <path d="M36.2 43.9c0 .07 0 .15-.05.23s0 .2-.07.31-.12.48-.22.81a.47.47 0 01.06-.09 3.71 3.71 0 01-.16.47 2.73 2.73 0 00.12-.79 2.63 2.63 0 010-.33v-.29c0-.12 0-.25.05-.42a.64.64 0 010-.2v-.43-1.13.35a1.9 1.9 0 01-.06-.35.37.37 0 010-.12.68.68 0 000-.15 1.41 1.41 0 000-.18 2.52 2.52 0 00-.06-.29c0-.41 0-1.17.19-.65 0-.17-.07-.32-.1-.44s-.07-.24-.11-.35l-.27-.71c0-.2 0-.15.08-.07a11.79 11.79 0 01.51 1.77c0-.1-.06-.12 0 .06a1.66 1.66 0 000 .31 1.62 1.62 0 00.06.17.36.36 0 000 .09 9.34 9.34 0 010 2.42m-3 19.9l-.17-.27-.23-.28-.19-.25c.09.09 0-.11.05 0l-.08-.13-.09-.12c-.05-.09-.11-.17-.16-.25L32 62c-.11-.36-.1-.46 0-.29l-.1-.25c0-.09-.06-.18-.1-.27a2.33 2.33 0 00-.11-.28c0-.1-.05-.19-.08-.27a1.4 1.4 0 01-.12-.64 3.1 3.1 0 00-.08-.31v.15c0 .15.07.48.07.52a.25.25 0 010-.07l.12.43a3.12 3.12 0 00.15.43s-.05 0-.08-.1a1.38 1.38 0 01-.06-.16l-.05-.2-.11-.41a.62.62 0 00-.1-.24.41.41 0 01-.13-.25c0-.14 0-.32-.05-.51s0-.41 0-.6a4.79 4.79 0 000-.56c.06.24.11.47.19.7a9.71 9.71 0 001.1 3.7 10.89 10.89 0 001 1.52c-.06 0-.12-.12-.2-.2m-2-5.52v.4a4.35 4.35 0 01-.06-.52v.12m4-19.93a1.42 1.42 0 01.08.18l-.09-.23M66 41c0-.45-.06-.9-.09-1.35 0-.76-.1-1.52-.11-2.19 0 .3.09.09.08.59v-.1a5.39 5.39 0 00.08.86 6.15 6.15 0 01.08.76c-.06-.89-.16-2.09-.22-2.88 0 .09 0-.06-.08-.27a4.3 4.3 0 00-.08-.57v-.05a4.15 4.15 0 01-.14-.63l.07-.21c0-.34 0 .1-.09-.24s-.12-.79-.19-1.3a4.56 4.56 0 01-.09-1c-.11-.58-.19-.74-.3-1.35 0 .05.07.19.09.21-.06-.32-.12-.66-.19-1l-.11-.52-.06-.27-.06-.27c-.17-.71-.39-1.41-.58-2a13.63 13.63 0 00-1.15-2.28 5 5 0 01.26.52c.06.15.08.23 0 0s-.34-.61-.56-1c.09.06-.51-.95 0-.24a1.49 1.49 0 00-.16-.34c-.09-.16-.21-.35-.33-.52-.24-.36-.48-.68-.43-.71l-.19-.24L61 22l-.19-.23-.18-.21-.17-.19-.14-.14c0-.05.1.07.21.2a2.12 2.12 0 00.25.26l-.36-.41a6.42 6.42 0 00-.42-.48l-.33-.31-.29-.23c-.09-.08-.19-.16-.3-.27l-.31-.29.21.15.2.14c-.48-.46-.78-.65-1.36-1.13v-.06l-.36-.27c.06.05.09.05 0 0l-.34-.22c-.12-.09-.26-.2-.4-.29a6.73 6.73 0 00-.75-.48 3.06 3.06 0 00-.77-.55h.12l.26.16.15.11.15.13.16.13.43.29A9.64 9.64 0 0055 16.65a16.83 16.83 0 00-2.19-1.12c-.54-.2-1.27-.49-1.93-.69a4.34 4.34 0 00-.48-.14l-.22-.06-.2-.05-.36-.06h-.25.13A14.59 14.59 0 0045 14a12.29 12.29 0 00-2.17.24h-.36c-.31.1-.75.2-1.23.34l-.36.1-.38.12c-.25.07-.51.16-.76.25s-.49.18-.72.27-.45.19-.65.29l-.53.26a3.41 3.41 0 00-.35.24c-.69.27.17-.17.22-.23-.51.21-1.26.74-1.76.93 0 0 .67-.4.35-.25l-.24.12-.19.13a2.75 2.75 0 01-.45.28c.1 0 0 .1-.26.29l-.38.32-.39.36.14-.11c.1 0-.28.29-.47.49a.34.34 0 01.06-.09 12 12 0 00-.87 1 8.92 8.92 0 00-.74 1.14 10.93 10.93 0 00-.51 1.27 12 12 0 00-.4 1.33 12.4 12.4 0 00-.32 2.77 19 19 0 00.18 2.74c-.05-.22-.09-.43-.13-.65l.28 1.7v-.07a3.44 3.44 0 00.1.58 3 3 0 00.12.39 3.56 3.56 0 01.2.8l-.05-.14c.16.56.27 1 .41 1.44a9.22 9.22 0 00.44 1.35c.15.42.21.61.25.77s.08.29.19.58a2.93 2.93 0 00.4.68l-.1-.23c0-.13 0 0 .13.18s.24.45.35.61a1.85 1.85 0 010-.33 2.62 2.62 0 00-.18-.66c.26.54.44.85.44.85l.4.71-.08-.11a2.16 2.16 0 01.18.34l-.16-.27c-.06-.09-.13-.19-.18-.28a3.71 3.71 0 00-.25-.34 2.09 2.09 0 01.27.49c.07.13.13.27.28.51a.93.93 0 01-.25-.36 7 7 0 01.4 1 1.93 1.93 0 00-.34-.63c.07.16.19.39.3.6s.2.43.26.53 0 .11 0 .22.1.26.14.38.17.45 0 .26a1.21 1.21 0 01.13.32 3.62 3.62 0 01.12.47 1.66 1.66 0 01-.16-.36 4 4 0 00-.23-.53c-.51-1.22.08 0 0-.31s-.26-.62-.4-.93l-.07-.06c-.07-.06 0 0 0 0a1.81 1.81 0 00.12.28 10.07 10.07 0 01-.71-1.29c-.08-.09.11.24.16.35a1.65 1.65 0 00-.22-.24c-.06 0-.06 0 .12.37-.1-.21.23.33.06-.06l.15.29c0 .11.1.24.14.34s.11.34 0 .19l.16.31c0 .12.12.25.17.38s.21.5.27.65 0 0-.07-.11-.08-.22-.11-.29c.13.35.26.71.36 1.07v-.32c.1.4.19.73.28 1a5.6 5.6 0 01.21.94c-.08-.09-.14-.64-.27-1.06a.75.75 0 00.05.38l.07.19a2.35 2.35 0 01.05.38c0 .09 0 .12-.05.08 0 .18.07.36.1.54s0 .1 0 0v.22a.41.41 0 000 .14.17.17 0 000 .09.43.43 0 010 .15 2 2 0 010 .22 3.14 3.14 0 010 .38 2.39 2.39 0 00.05-.69v-.24a2 2 0 010-.37c0-.19.05 0 .07.25s0 .28 0 .41v.28a2.9 2.9 0 01-.07.38l-.08.29c0 .09-.06.19-.09.31s-.06.28-.1.47v-.16-.09a.56.56 0 000-.07 1.71 1.71 0 01.08-.48v-.05a1.81 1.81 0 01-.1.34V44.42a1.11 1.11 0 01-.06.27 7.67 7.67 0 01-.22.92c-.19.4-.4.85-.64 1.26a10.33 10.33 0 01-.55 1.26l.15-.09c-.3.51-.7 1.24-.88 1.62a3.81 3.81 0 01.37-.83 13.94 13.94 0 00-1.12 2.46c.27-.45.29-.51.54-.94a1.61 1.61 0 01-.15.41 2.85 2.85 0 01-.16.3l-.19.33a4.68 4.68 0 00-.2.5c-.09 0 0-.27-.12-.1-.09.36-.32.94-.41 1.35-.06.09-.09 0 0-.14a1.93 1.93 0 01.09-.37c0-.16.11-.35.19-.56.32-.62.52-1.37.84-1.85l-.2.29c.28-.64.49-1 .74-1.54 0-.1 0-.2.07-.3l-.15.28a5 5 0 01.2-.52c.09-.2.18-.4.23-.48a5.16 5.16 0 00-.57 1.44c-.1.19-.2.35-.28.5l-.24.38a3.07 3.07 0 00-.35.73c-.06 0-.29.47-.17.09a5.59 5.59 0 00.35-.83c-.11.24-.15.31-.2.41a5.11 5.11 0 00-.28.61 11.06 11.06 0 01-.3 1.3c0 .15-.09.3-.14.46s-.09.32-.14.47l-.25.85c.14-.59.26-1.18.16-1a4.32 4.32 0 01-.18.68c-.07.22-.12.38-.05.3l-.07.28c0 .09 0 .2-.06.3s-.05.21-.07.31l-.06.3c0 .2-.07.37-.1.51s-.06.22-.09.23a14.45 14.45 0 01.25-1.88.71.71 0 01-.06.19s0 .05 0 0c.07-.27.14-.55.22-.81l-.2.56c0 .07-.05.15-.08.26s-.05.25-.09.45v-.07.33l-.06.33h-.08c0 .15 0 .34-.07.56a3.18 3.18 0 000 .34v.37a7.88 7.88 0 000 1.68v-.1a3 3 0 000 .31 1.5 1.5 0 000 .24 1.08 1.08 0 000 .21l.06.19c0 .12.08.25.12.4s.11.34.17.58c-.1-.27-.11-.13-.13-.07a5.19 5.19 0 01.2.66 5.19 5.19 0 00.16.62c-.15-.57.21.34.09-.07 0 0 .05 0 .1.13a2.9 2.9 0 01.17.35 1.6 1.6 0 01.1.23l.12.22.11.22a1.72 1.72 0 00.09.19c0 .08 0 0-.1-.07l-.24-.42-.21-.4s-.05 0 0 .17a1.59 1.59 0 00.23.42l-.05-.19c.07.14.15.32.24.49l.13.25.15.26c.09.17.19.33.28.47a4.37 4.37 0 01.22.39l.35.37.27.29.25.24a2.27 2.27 0 00.28.21c-.15-.15-.24-.21-.33-.3a1.57 1.57 0 01-.35-.39c.14.14.29.26.43.38a14.14 14.14 0 001.35 1.3c-.16-.1-.3-.21-.45-.31a3.62 3.62 0 01-.42-.32c-.14-.13-.26-.23-.25-.18l.28.22.27.23.29.25.37.25c.48.32.89.6 1.27.82a3.44 3.44 0 001.1.47c-.19-.07-.55-.3-.42-.27l.23.12.28.13c.19.09.34.15.32.17l-.22-.07a7.25 7.25 0 001.2.41c.18 0 0-.09.47 0a1.71 1.71 0 01.39.13h-.13c-.08 0-.37 0 0 .09l1 .14.22.08a10 10 0 002.16.1c.7 0 1.4-.11 2.21-.2 0 0-.26.1-.6.15l-.53.06H43.46a14.13 14.13 0 001.92-.15 4.36 4.36 0 00.77-.15c.18 0 .27-.1.21-.11a2.17 2.17 0 01.57-.1h.08a1.2 1.2 0 01.29-.12l.47-.13c.34-.1.72-.2 1-.3l.91-.36c-.24.08 0 0-.06-.07l.24-.08a14.56 14.56 0 00-1.48.46 5.78 5.78 0 01-1.52.36c.28-.08-.11 0 .18-.11a1.11 1.11 0 01.32 0c.13-.08.51-.21 0-.08 0 0 .26-.13.59-.24l.55-.17c.18-.06.37-.12.54-.19s.15 0-.09.12l-.39.16a1.86 1.86 0 00-.32.13 8.78 8.78 0 01.84-.29l-.07.1c.47-.18.52-.22.49-.23s-.16 0-.07-.06a6 6 0 011.09-.42l-.27.13a6.47 6.47 0 00.77-.33c.2-.1.39-.21.7-.35l.32-.09c-.81.31-.92.55-1.39.7.6-.21.55-.15.31 0s-.68.36-.85.46c.51-.21 1-.4 1.26-.48s.73-.37 1.1-.56l.28-.13.27-.15a3.61 3.61 0 00.5-.33c.38-.19-.3.23.1 0a15.47 15.47 0 002.14-1.41 1.06 1.06 0 01.45-.23 12.17 12.17 0 001.13-.87 11.84 11.84 0 00.89-.82c.56-.55 1.11-1.15 1.89-2l-.19.29a4.69 4.69 0 00.72-.93 3.51 3.51 0 00.41-.47c.13-.19.29-.42.43-.66a14.3 14.3 0 01.84-1.28c.14-.23.23-.41.31-.56a3.6 3.6 0 00.16-.39c0-.11.08-.23.13-.35l.19-.47s0 .27.17-.12a29.35 29.35 0 001.32-3.71 31.93 31.93 0 00.84-4 1.12 1.12 0 010 .25 24.93 24.93 0 00.29-2.79c0-.91.07-1.77.11-2.56v-.67c0-.22 0-.38-.07-.24 0 .36-.08.41-.12.39a3.93 3.93 0 010-1 1.55 1.55 0 000-.63c.1-.3.08.58.17.58" fill="#f9f4ef" fill-rule="evenodd"/>
      <path class="cls-2" d="M35.9 41.94"/>
      <path class="cls-4" d="M23 47s-.1 0 0 0m-3.74 8.46c0-.07 0 0 0 0m-3-10.37a.37.37 0 000-.11l-.12.18.07-.07"/>
      <path class="cls-1" d="M24.3 46.1h-.16l.14-.08m4.33 0h.48L28.5 46a.7.7 0 01-.23 0h.36m-9.28 6.4q0 .6-.09 1.41a.43.43 0 000-.05 7.75 7.75 0 00.08-1.37m14-4.1l-.21-.1c-.07 0-.11 0 0 .07h.23m-14.23 8.31c0 1-.23 6.13-.34 9.25.13-1.51.33-8.51.34-9.25m.1-2.26v.49a1.54 1.54 0 000-.5m.09 1.7c.14-.69-.05-.63.07-1.19-.07-.51-.08.21-.17.42v-.13c0 .4 0 .81-.05 1.24 0-.25 0-.52.07-.83a2.09 2.09 0 01.11.49m-.6 12.1a.27.27 0 00.18.13c-.06-.48-.06-1.36-.12-2.08 0 .89-.05 1.61-.06 1.95"/>
      <path class="cls-4" d="M18.79 65.82c.11-3.12.3-8.21.34-9.25 0 .74-.21 7.74-.34 9.25m-.07 2.25c0-.34 0-1.06.06-1.95.06.72.06 1.6.12 2.08a.27.27 0 01-.18-.13m.47-13v.13c.1-.22.1-.93.17-.43-.12.57.07.51-.07 1.19a1.76 1.76 0 00-.11-.49c0 .32-.06.59-.07.84 0-.43 0-.84.05-1.24m0-.76a1.54 1.54 0 010 .5v-.49m.13-1.92a9 9 0 01-.09 1.37c0-.53.06-1 .1-1.41m4.93-6.29l-.13.08h.15M28.5 46l.61.1H28.27a.6.6 0 00.23 0m4.6 2.16l.21.1h-.23c-.09-.08 0-.08 0-.07m-13.69 9.83l-.24 7.22c-.07.32.14-7.49.08-7.62.16-.26.12 0 .26-.33l-.06.38.12-.08a4.63 4.63 0 010-1.66 3.7 3.7 0 00.05-1.31v.08a2.14 2.14 0 000-.34 3 3 0 000-.31c0-.2-.07-.38-.08-.56s.09.22.13.42v-.75-.86a7.69 7.69 0 01.07-.85 2.26 2.26 0 01.07-.39 3.38 3.38 0 01.11-.34c0-.33-.14.09-.1-.26a.89.89 0 01.08-.17l.07-.1s.05 0 0 .19c.19-.35.42-1 .77-1.56a4.09 4.09 0 011.38-1.47l.14-.14.09-.09.1-.13.17-.14.18-.12.12-.07.15-.08c-.1.08 0 .1 0 .13v.07c0 .07 0 0-.07 0L23 47v.08a6.8 6.8 0 011.42-.5c.49-.12.93-.22 1.2-.32 0 .06.06.06.15.06h.33a1 1 0 01.44-.05 1.42 1.42 0 00.36 0h-.09l.71-.06c.12 0 .3.07.32.11v-.09a.58.58 0 01.29.08.66.66 0 00.36.09l-.09-.08.51.08c.16 0 .29 0 .31.11s0 0-.15 0a2 2 0 00.37.13h.22l.22.05.22.06H30.39a.2.2 0 01.09.05l.19.12-.05-.2.26.14c.05 0 .06.05.06.06s-.07 0-.09 0c.32.21.37.29.78.6.23.11.14 0 .24 0s.28.22.43.32l-.42.16c.4.14.84.43 1.31.65l.34.15.33.1a1.71 1.71 0 00.3 0h.25c.16 0 .09.06 0 .06h-.12a3.11 3.11 0 00.81.12h.83c.27-.05.53-.08.77-.14l.35-.06.35-.06a2.63 2.63 0 001-.5 2.75 2.75 0 00.78-.94 3.5 3.5 0 00.36-1.19 3.12 3.12 0 00-.12-1.28 1.85 1.85 0 00-.32-.58 2 2 0 00-.26-.24 1.46 1.46 0 00-.29-.17l-.33-.07-.4-.08-.7-.09s0-.09.07-.08l-.19-.03a.27.27 0 01-.09-.12v-.1-.09a.19.19 0 010-.08v.11-.13-.06c0-.06.09-.1.09-.1a1.19 1.19 0 01.12-.26 1.56 1.56 0 01.2-.27 2.84 2.84 0 01.24-.26l.51-.46c.15-.14.29-.26.38-.36a.54.54 0 01.4-.19 3.08 3.08 0 00.55-.6s.07-.11.11-.17l.09-.18c0-.07 0-.14.07-.2a1.85 1.85 0 000-.23c0-.08 0-.15.07-.22a.45.45 0 010-.11.53.53 0 010-.12c0-.09-.06-.17-.1-.25s0-.16 0-.17v-.13a1.17 1.17 0 00-.06-.2c0-.06 0-.13-.08-.2a3.55 3.55 0 00-.48-.69l-.02-.19-.08-.07h-.08a3.45 3.45 0 00-1.17-.57l.08.07H37.29c-.12 0-.16-.08 0-.07a2.67 2.67 0 00-.45-.08h-.44a2.23 2.23 0 00-.86.26c-.5.24-1 .57-1.68 1a2.1 2.1 0 00-.77.37 1.66 1.66 0 01-.78.33 4.52 4.52 0 01-.77.38 4.13 4.13 0 00-.63.32s-.07 0 0 0a6.65 6.65 0 00-.72.18l-.24.06-.27.06-.26.06h-.26a3.2 3.2 0 01-.82.19l-.51.07a1.08 1.08 0 00-.33.1c-.08 0 .13-.07.22-.1-.36-.1-.62.1-1.09.1 0 0-.11-.07 0-.1a22.84 22.84 0 00-2.74.12c-.51.05-1 .1-1.56.17l-.39.06h-.4l-.41.09-.39.1-.15.06h-.05s.06 0-.3.18c-.11 0 0-.06 0-.1v-.05h-.06l-.13.05a2.41 2.41 0 01-.37.25l-.46.26c.06-.08 0-.07.25-.26a1.6 1.6 0 00-.27.15c-.11.07-.23.18-.36.28s-.26.22-.39.33l-.19.15-.18.13c.05 0 0 .1-.07.19-.24.32-.55.66-.79 1a3.79 3.79 0 00-.3.36.57.57 0 00-.11.19s-.13.25 0 .05c-.08.12-.16.28-.24.39s-.13.18-.14.13a1.69 1.69 0 000 .24 2.55 2.55 0 01-.08.28v-.15c0 .13-.06.29-.1.41l.12-.17a2.29 2.29 0 00-.13.27l-.09.3c-.06.2-.11.35-.17.32v-.11l-.13.28-.12.29a3 3 0 010 .41 3.22 3.22 0 01-.1.51.37.37 0 00-.12.22.78.78 0 00-.05.18v.22l-.12.92a7.18 7.18 0 01-.06.86c0 .28-.05.5 0 .4 0 .4-.14.92-.16.72a6.47 6.47 0 000 1.18l-.18.63a1.79 1.79 0 010 .8c0 .27-.06.51 0 .53a3.31 3.31 0 01-.14.52 8 8 0 010 1.54v1.85l-.15.15c0 .38-.17 7.51-.21 7.87v-.1a6 6 0 01-.08 1.1c.09.56 0 1 .14 1.46-.15.42-.05-.64-.18-.27s-.06 2.63-.07 5.49a42.56 42.56 0 004.51 3.51v-.4.42l.46.3c.05-4.59.12-9.73.12-10.25-.16-.41.42-8.45.21-8.81m40.91-13l.16-.13-.21.1zm2-1.55l-.06.16-.08.15a.33.33 0 00-.16.09 1.94 1.94 0 00-.21.2l.09-.07.08-.08v.11l-.17.13-.12.11a.81.81 0 01-.31.17l-.19.16c-.07 0-.06 0 0 0a1.86 1.86 0 01-.58.35c.14 0 .27-.07.41-.16a.71.71 0 01.4-.19 1.18 1.18 0 01.18-.13l.2-.13a1.32 1.32 0 00.37-.29c0-.05.06-.09.09-.15a1.29 1.29 0 00.09-.16c0-.11.08-.2 0-.23M60.46 39.73l.07-.05-.07.06"/>
      <path class="cls-4" d="M62.54 40.86v-.1l.08.06c.08.06 0 0 0 .05h.06c0 .07-.07 0-.11 0m-.85-.93a.66.66 0 01.29.12c.13.08.25.16.32.14s.17.18 0 .06a.43.43 0 01.18.28 1 1 0 000 .18 2.24 2.24 0 00-.78-.78m-9.56.13H52h.1v.05m1.87.13h-.27.3m4.86-.09l-.44.08a1.58 1.58 0 01.44-.08m.35-.1h-.16a.31.31 0 01.16-.06m0-.1a.26.26 0 00.18 0 .34.34 0 01.22-.06.93.93 0 00-.14.14 1.7 1.7 0 00.28-.06l-.4.12c-.09 0-.32 0-.17-.07m.84-.14a1.57 1.57 0 01.26-.12.68.68 0 01.29 0 .91.91 0 00-.37.08l-.37.14.19-.08m.6-.15a1.45 1.45 0 01.42 0h.36a.24.24 0 01-.1.1 1.91 1.91 0 00-.73-.13m1 .28l-.14-.07a.17.17 0 01.14.08m1 .57h.07l-.11-.08-.09-.06a.89.89 0 00-.21-.34.62.62 0 00-.36-.22s-.25-.17-.42-.26a1.64 1.64 0 00-.56-.2.91.91 0 01-.37 0 .49.49 0 00-.28.07c.06 0 0 0 0 .08a.51.51 0 00-.15.13c-.12-.06 0-.07-.17-.12h.13l-.05-.11a.49.49 0 01-.24.17.76.76 0 01-.26.06h-.24a.5.5 0 00-.19.1c-.17 0-.26.13-.38.18s.06-.08.12-.13l-.25.05-.28.08a2 2 0 01-.57.07c-.11.07 0 .07-.06.12s-.18 0-.06-.08a.78.78 0 00-.27 0h-.36a2.29 2.29 0 01-.74 0c-.23.06-.09.09-.45.12.09 0-.08-.13.14-.13a2.7 2.7 0 00-1 .06c0-.09-.06 0-.19-.07-.14.07-.2 0-.29 0h-.26s-.1 0-.11-.06V40c-.14 0-.06-.08-.23-.08h-.24c-.16-.11-.44 0-.65-.07v.11c-.21 0-.12 0-.11-.07a3.21 3.21 0 01-.34-.08c-.09 0 0 0-.08.06h-.18.12c-.3.12-.7-.09-.91 0s.11-.05 0-.07c-.32-.1-.75 0-1-.1a6.93 6.93 0 00-.71-.13 5.73 5.73 0 01-.74-.11 1.76 1.76 0 00-.4-.06h-.26a.78.78 0 00-.28.11v-.07c-.17.06-.33.16-.44.18h.05a1.81 1.81 0 00-.53.35 1.25 1.25 0 00-.3.38c-.07.1-.11.07-.16.08a1.34 1.34 0 00-.21.5l-.1.11v.1c0 .08-.06 0-.1.06a4.35 4.35 0 01-.1.52 2.69 2.69 0 00-.06.44c0 .1 0 .27-.06.16v.17a.77.77 0 000 .15c0 .1 0 .19.07.29a5.43 5.43 0 00.32.67.17.17 0 000 .13.7.7 0 00.13.17.91.91 0 01.44.1.19.19 0 01.06.13c.22.16.33.3.52.34a.64.64 0 00.24.17 2.62 2.62 0 00.39.15.36.36 0 01.14 0h.18a.64.64 0 00.31 0h-.09a.18.18 0 00.17.07H49.15v.06h.98a7.89 7.89 0 011.08.1c.19 0-.07-.1.19-.07.07.05-.13.08 0 .11a.57.57 0 01.32 0s0 .05-.12.06H52.23c.28-.06.61.12.64.08s.1 0 0 0c.1 0 .25 0 .22.07a.43.43 0 01.18-.05l-.05.05.14-.05h-.06c.11.05.33 0 .32.05l.21.06a.53.53 0 01.32 0c.05.1.36 0 .54 0h.44c.14 0 .32 0 .25.06.12 0 .35 0 .41-.08l.23.08c.13-.12.46 0 .46-.1.13 0 .1.05.19.07a1.41 1.41 0 01.54-.07 1.65 1.65 0 00.3 0 1.81 1.81 0 01.35-.07l.06.09c.13 0 .16-.11.29-.1a1 1 0 01.39 0c.18-.1.33-.09.49-.2.16.07-.22.08-.08.14a2.37 2.37 0 00.84-.19v.06a1.65 1.65 0 00.26-.19c.11-.09.19-.18.17-.23 1.84-.7 2.55-1.52 2.52-3.28a1.85 1.85 0 00-.07-.48.8.8 0 01.11.35v.68a.55.55 0 01.06.24 2.16 2.16 0 010 .28 1 1 0 010 .17V43c0 .08 0 0-.06 0s0-.06-.05.12a.61.61 0 000-.12 2.74 2.74 0 01-.17.42c.07 0 .13-.15.12-.06a.33.33 0 00-.1.11V43.7l-.05.14.07-.11a.23.23 0 000-.11c.06-.09.06 0 .1-.06v-.16h.07a2.27 2.27 0 00.06-.25s.06 0 .08-.08 0-.08.05 0a1 1 0 01.06-.22.79.79 0 000-.22c.06-.11 0 .19 0 .07a7.72 7.72 0 000-1.07 2.11 2.11 0 00-.32-1.1"/>
      <path class="cls-5" d="M51.669999999999995 34.24zm0-.08s-.07-.1-.07-.14v.12h.05zM51.67 33.75h-.05m-.08.07s.07 0 0 0m-.05.22zm0-.46zm0 .16h.07zm0-.34zm0-.12a.13.13 0 00-.09 0 .07.07 0 010 .07h.05m0 .2a.06.06 0 000-.05zm0 .19h0m0-.1h-.05zm0 0zm-.05-.2v.06m-.2-.18zm.22.24zm-.2-.18a.13.13 0 010-.07v.06zm0 .11h.07c.07 0 0 0 0 0h-.07s-.08 0-.09.05m.15.32v-.09l-.06.08m-.09-.53h-.07zm-.08 0zm-2-.07h-.07m1.09-.28h0m.63.17"/>
      <path class="cls-5" d="M49.45 33v-.06.16h-.07a.27.27 0 010-.16zm.38 0h-.05a.53.53 0 010-.13.32.32 0 01.05.13zm.56-.09c.07 0 0 .05 0 0s.13-.11.21 0 0 .1 0 .13-.06 0-.09-.06-.05 0-.06 0h.06a1.1 1.1 0 00-.26-.06.19.19 0 01.14-.02zm-1.6 2.49c-.06 0 0 .08 0 .11s.08 0 0 .09l.07.07h.12c.04 0 0 0 0 0s.06.09.16.08 0 0 .06.07a.19.19 0 00.12.07c.06 0 .1.06.14.1s.09.06.14 0h.07c-.07 0 0-.07 0-.1s.07.07 0 .06c0 .08.1.06.08.12a2.24 2.24 0 00.51.07v-.07h.06s.07 0 .06-.06 0 .09 0 .08 0-.06.07-.07h.07s.06 0 0-.06.1 0 .16 0 .11-.07.13-.06a.17.17 0 01.1-.1s-.06-.05 0-.07.1 0 .19 0 0 0 0-.06v-.06c0-.06 0 0 .08 0s.06-.08.1-.11a.68.68 0 00.12-.12v-.05h.1s-.07-.07 0-.07a.59.59 0 00.16-.3.75.75 0 01.05-.16.39.39 0 01.1-.16h-.06l.08-.09c-.06 0 0-.1-.06-.11a.12.12 0 00-.13 0v.06a1.58 1.58 0 00-.44-1.1l-.2-.07s.11-.1.13-.17 0 0-.06 0 0 .09 0 .1v-.07c0-.07-.07 0-.11.06l-.12-.08-.12-.06s.07 0 0-.06.11 0 .14 0v.05s0-.05 0 0 0 .11.08.06h.15c.02 0 0 0 0-.07s-.1-.07-.11 0v-.14c0-.08 0 0 0 0h-.12c-.03 0 0 0 0 0v-.09h-.05a.08.08 0 00-.09 0s-.07 0 0 0h-.31a.32.32 0 01-.09 0 .33.33 0 01-.1 0h-.36v.05s-.08 0-.13.06-.12 0-.18 0h-.13c-.03 0 0 .08-.1.07s0 0 0 .05h-.1c-.1 0-.06.09 0 .15s0 0 0 .05v.09a.08.08 0 01-.09-.06v.22c0-.01-.13.2-.24.3.11 0-.07 0 0 .07s-.05 0-.06 0-.08.08 0 .15 0 0-.05 0 .06.09.13.11 0 0 0 .08-.06.14 0 .15 0 0 0 .1c.07 0 0 0 0 .08v.14c.1 0 0 .08 0 .13s-.11.1-.11.14 0 0 .08.06-.08 0-.07.05.13.08.09.15 0 0 .07 0 0 .14 0 .14.08.07.12.07zM50.84 32.9s-.1 0 0 0M50.85 33.15h-.05m.96 1.48zm-.07-.07h.06m9.72 0s-.05 0 0 0m-.09-.25zm0-.08s-.07-.1-.06-.14 0 .08 0 .12zM61.38 33.82h-.05m-.08.07s.07 0 0 0m0 .22zm0-.46zm0 .16h.07zm0-.34zm0-.12a.12.12 0 00-.08 0v.07c0 .07 0 0 0 0m0 .2v-.05zm0 .19h0m0-.1zm0 0zm0-.2h-.06v.06m-.2-.18zM60.93 33.45a.13.13 0 010-.07h-.05l.05.06zM60.85 33.35h.08c.08 0 0 0 0 0h-.07s-.07 0-.09.05m.15.32a.3.3 0 010-.09l-.06.08m-.09-.53h-.07zm-.08 0zm-2-.07h-.07m1.09-.28h0m.63.17"/>
      <path class="cls-5" d="M59.1 33v-.06.16h-.07a.21.21 0 010-.16zm.38 0v-.07-.06c0-.02-.02.13 0 .13zm.57-.09c.06 0 0 .05 0 0s.13-.11.21 0 0 .1 0 .13-.06 0-.09-.06 0 0-.06 0h.06a1.14 1.14 0 00-.25-.06.15.15 0 01.13-.02zm1.3 1.85h-.06l.07-.08c-.06 0 0-.1-.06-.11s-.08 0-.13 0 0 0 0-.08a1.55 1.55 0 00-.45-1.1l-.09-.07s.05 0 0 0 .11-.1.13-.17 0 0-.06 0 0 .09 0 .1v-.07c0-.07-.07 0-.11.06l-.11-.08-.12-.06s.07 0 0-.06.1 0 .13 0v.05s0-.05 0 0 0 .11.09.06.12 0 .15 0 0 0 0-.07-.1-.07-.11 0v-.14c0-.08 0 0 0 0h-.13c-.03 0 0 0 0 0v-.09a.08.08 0 00-.09 0s-.08 0 0 0H60a.09.09 0 00-.06 0 .11.11 0 01-.09 0 .15.15 0 01-.1 0h-.37v.05a.3.3 0 00-.13.06h-.18c-.06 0 0 0 0 0h-.12a.14.14 0 01-.11.07v.05c0 .05 0 0 0 0h-.1c-.1 0-.06.09 0 .15s-.05 0-.05.05v.09c-.05 0-.07 0-.08-.06s0 .06 0 .15v.07s-.14.2-.25.3c.11 0-.07 0 0 .07s0 0-.06 0-.07.09 0 .16.06.09.13.11 0 0 0 .08-.06 0-.06 0-.06.14 0 .15 0 0 0 .1c.07 0 0 0 0 .08-.05.1 0 0 0 .13.1 0 0 .09 0 .14s-.1.1-.11.14.06 0 .09 0-.08 0-.08.05.13.09.1.16 0 0 .06 0 0 .14 0 .14.08.07.12.07 0 .08 0 .11.09 0 0 .09l.08.07a.1.1 0 00.12 0s.06.09.17.08 0 0 .06.06A.16.16 0 0059 36c.06 0 .1.06.15.1s.09.06.13 0h.08c-.08 0 0-.06 0-.1s.06.07 0 .07c0 .08.09.06.07.12a2.24 2.24 0 00.51.07v-.07H60s.06 0 .06-.06v.08s0-.06.06-.07h.07s.06 0 0-.06.1 0 .16 0 .11-.07.13-.06a.19.19 0 01.1-.1s-.05-.05 0-.07.09 0 .18 0 0 0 0-.06v-.06c0-.06 0 0 .08 0a.27.27 0 01.1-.11s.1-.07.12-.12 0 0 0-.05h.11s-.07-.07 0-.07a.59.59 0 00.16-.3c0-.06 0-.11.05-.16a.86.86 0 01.1-.16zM60.46 32.9s-.1 0 0 0M61.37 34.63zm-.07-.07h.06m-5 8zm-5.1-.33zm6.3.27zM58.41 42.46h-.09zM60.59 41.9c.09 0 0 0 0 0h-.12-.07c0 .05-.07.06-.15.06H60c-.07 0-.09.08-.17.08h-.14c-.07 0 0 0 0 .06h-.22s-.07 0-.06.06-.11 0-.15 0h.06c.01 0 0 0 0 0s-.33 0-.3.06c0 .07.06.13 0 .18 0 .06-.15 0-.22.07l.14.16c-.08 0-.22-.07-.21 0h-.06c-.17-.09-.07.08-.13.06l-.09-.06h.06l-.17-.06s0 .07-.06.08-.11.08-.23 0v.08h-.09v-.05l.31-.11-.15.06s-.08-.06-.06-.11v.07H57.39a.49.49 0 01-.17-.06v.07s-.08-.09-.08 0h-.05s0 .05-.09 0c-.08 0 0 .07-.09 0s0 .09-.06.08l-.06-.09c-.08-.05-.08 0-.2.06a.15.15 0 01-.06-.19c0 .1 0 .06-.08.12s0 0 0-.08 0 0-.07 0a1 1 0 010 .19c-.05 0-.1.07-.16 0h-.06v-.05h-.09a.15.15 0 01-.13 0c-.1-.08-.19 0-.31 0v-.05s0 .08-.06.06v-.07c0 .09-.06 0-.09-.05v.08h-.08c-.07 0 0-.11 0-.15v.06-.07c0 .08 0 0-.09 0s0-.05 0-.06l-.09.1h.06v.11c-.06.08-.08 0-.12 0h-.11c-.04 0 0 .05 0 .06v-.05c0-.05-.05.11-.1.07v-.08.07h-.24v-.06c0 .09-.1 0-.1.07 0-.06-.15 0-.11-.09-.13 0-.2.09-.35 0s-.19-.1-.29-.12a2.94 2.94 0 01-.51 0c-.1-.16-.3 0-.41-.09-.06-.11-.21 0-.31-.13h-.06v.05c0 .05-.1 0-.08-.08 0-.07-.11 0-.13 0v.08h-.06c-.31.12-.38-.15-.67 0 .05-.08-.06 0 0-.06s-.13 0-.19 0h-.09c.08-.1-.09.08 0 0a1.21 1.21 0 00-.39-.14 2.7 2.7 0 01-.43-.11c-.07 0-.17 0-.21-.07S50 42 50 42s-.1-.08-.07-.07-.16.08-.23 0-.26 0-.23-.08c-.08-.11-.23 0-.32-.12-.11.09-.23.17-.35.25s0 .26 0 .39l.12.37.61.11.43.26.59.13.58.12.1-.07c.2.21.53.09.76.25v-.07c.07 0 0 0 .07.07s.33 0 .5.06h.49l.48.06a3.12 3.12 0 01.46.09c.06.05.23.05.28.1a1.23 1.23 0 01.6 0h.09c.11-.07.27 0 .4 0h.55c.18 0 .37 0 .55-.06l.55-.08h.55a1.38 1.38 0 00.56-.08l.28-.09a1.54 1.54 0 01.31 0 .4.4 0 00.17 0h.15l.15-.06a1.73 1.73 0 00.44-.23h-.12l.18-.09.16-.06.15-.07a.48.48 0 00.15-.11l.06-.09a.31.31 0 01.12-.07h.28-.09a.34.34 0 01.08-.14l.11-.1h.08s-.07-.14.07-.16c-.09 0 0-.08 0-.1A.63.63 0 0061 42v-.06a1 1 0 01-.46 0M58.769999999999996 42.379999999999995zm2.15-.24h.06"/>
    </g>
    <g id="레이어_6" data-name="레이어 6">
      <path class="cls-6" d="M126.12 0a42 42 0 00-27.94 73.35c0-2.86 0-5.2.07-5.49s0 .69.17.27c-.1-.48 0-.9-.14-1.46a5.2 5.2 0 00.09-1.1v.1c0-.36.22-7.49.21-7.87l.16-.14V55.8a7.94 7.94 0 000-1.54 3.31 3.31 0 00.14-.52c-.09 0-.07-.25 0-.53a1.79 1.79 0 000-.8c.06-.21.11-.42.18-.63a5 5 0 010-1.17c0 .2.12-.33.16-.73v-.4a7.18 7.18 0 00.06-.86l.12-.92a1.7 1.7 0 010-.22 1 1 0 010-.18.37.37 0 01.12-.22 5 5 0 00.1-.51 3 3 0 000-.41l.12-.29.13-.28v.11c.06 0 .11-.12.17-.31l.09-.31a1.36 1.36 0 01.13-.27l-.12.18v.1l-.07.07.12-.17c0-.13.06-.29.1-.42v.15a2.55 2.55 0 00.08-.28 1.55 1.55 0 010-.23s.07 0 .14-.14.16-.27.24-.39c-.14.2 0-.05 0-.05a.57.57 0 01.11-.19 2.7 2.7 0 01.3-.36c.24-.29.55-.62.79-1 .06-.09.11-.18.07-.19a1.09 1.09 0 00.17-.13l.2-.15c.13-.11.25-.23.38-.33s.25-.21.37-.28a1 1 0 01.27-.15c-.28.19-.19.18-.25.26l.46-.26a3 3 0 00.37-.25l.13-.05h.06v.05c0 .05-.12.11 0 .1.35-.13.34-.16.3-.18h.06l.15-.06.39-.1c.13 0 .27-.06.4-.09h.4l.4-.06c.53-.07 1-.12 1.56-.17a22.76 22.76 0 012.74-.12c-.1 0 0 .06 0 .1.47 0 .72-.2 1.09-.1-.09 0-.3.07-.22.1a1.08 1.08 0 01.33-.1l.5-.07a3 3 0 00.82-.19h.26l.26-.06.26-.06.25-.06a7.28 7.28 0 01.71-.18c-.09 0 0 0 0 0a4.13 4.13 0 01.63-.32 4.52 4.52 0 00.77-.38 1.66 1.66 0 00.78-.33 2.1 2.1 0 01.77-.37c.72-.41 1.18-.74 1.68-1a2.41 2.41 0 01.86-.26H120.79a2.67 2.67 0 01.45.08c-.16 0-.12 0 0 .07h.22a1 1 0 00.24 0l-.08-.07a3.45 3.45 0 011.17.57l.08.06.08.06.15.14a4.19 4.19 0 01.26.33 2.26 2.26 0 01.22.37l.08.19a1.52 1.52 0 01.06.2V38.94a1.09 1.09 0 01.1.25.53.53 0 010 .12v.11c0 .07 0 .14-.06.22s0 .15 0 .23a1.59 1.59 0 00-.07.2 1.62 1.62 0 01-.1.18 1 1 0 01-.1.17 2.86 2.86 0 01-.56.6.57.57 0 00-.4.19 4.72 4.72 0 01-.38.36l-.5.46-.25.26a2.22 2.22 0 00-.19.27 1.19 1.19 0 00-.12.26.64.64 0 010 .07v.19-.11a.19.19 0 000 .08.28.28 0 000 .09v.1a.23.23 0 00.09.12.74.74 0 00.18.09c-.08 0 0 .06-.07.08l.7.09.4.08.33.07a1.81 1.81 0 01.29.17 1.42 1.42 0 01.25.24 1.7 1.7 0 01.33.58 3 3 0 01.13 1.28 3.5 3.5 0 01-.36 1.19 2.87 2.87 0 01-.78.94 2.63 2.63 0 01-1 .5l-.35.06-.35.06c-.24.06-.51.1-.77.14h-.83a3.52 3.52 0 01-.81-.11h.12c.09 0 .17 0 0-.06h-.25a1.81 1.81 0 01-.31 0l-.33-.1-.34-.15c-.46-.22-.9-.51-1.3-.65l.33.12c-.15-.1-.28-.21-.43-.32s0 .07-.23 0c-.42-.31-.46-.39-.78-.6h.09l-.07-.06-.26-.14v.2l-.18-.12-.09-.05h-.3l-.22-.06-.22-.05h-.21a2 2 0 01-.37-.13h.15c-.01 0-.15-.09-.32-.11l-.5-.08.09.08c-.24 0-.31-.05-.36-.09a.63.63 0 00-.29-.08v.09a1 1 0 00-.32-.11c-.24 0-.48 0-.71.06h.09a1.54 1.54 0 01-.37 0 1 1 0 00-.44.05h.08-.4c-.09 0-.13 0-.16-.06-.26.1-.71.2-1.2.32a6.7 6.7 0 00-1.41.5v-.08c-.06 0 0 0 0-.05V47l.08-.05h.06s.07 0 .08-.06 0-.05 0-.07-.1-.05 0-.13l-.15.08-.12.07-.17.12a.69.69 0 00-.17.14l-.11.13-.08.09-.14.14a4 4 0 00-1.33 1.46c-.36.6-.58 1.21-.77 1.56v-.19a.29.29 0 00-.07.1l-.09.17c0 .35.12-.07.11.26a3.38 3.38 0 00-.11.34 2.26 2.26 0 00-.07.39 7.66 7.66 0 00-.08.85V54.01c0-.2-.06-.46-.12-.42s0 .36.07.56a3 3 0 010 .31 2.14 2.14 0 010 .34v-.08a3.68 3.68 0 010 1.31 4.63 4.63 0 000 1.66l-.12.08.06-.37c-.14.31-.1.06-.26.32.05.13-.16 7.94-.09 7.62l.25-7.22c.21.36-.37 8.4-.21 8.81 0 .52-.07 5.66-.12 10.25A42 42 0 10126.12 0"/>
      <path class="cls-7" d="M118.93 38.24l-.15-.33.15.33m1.09 3.7v-.16.16m-.17.75M117.35 63.8l-.23-.26-.23-.28a2.77 2.77 0 01-.19-.25c.08.09 0-.11 0 0l-.09-.13-.08-.12-.17-.25-.3-.53c-.11-.35-.11-.46 0-.29 0-.08-.07-.16-.1-.25s-.07-.18-.1-.27l-.11-.28c0-.09-.06-.19-.08-.27-.12-.35-.17-.63-.12-.64 0-.21-.08-.29-.08-.3v.14c0 .09.08.48.08.52v-.07l.13.43c0 .15.09.29.14.43s0 0-.08-.1a1.16 1.16 0 00-.06-.16 1.94 1.94 0 000-.2c0-.14-.07-.28-.11-.41a.66.66 0 00-.09-.24c-.06 0-.1-.12-.13-.25s0-.32-.06-.51 0-.4 0-.6a5 5 0 000-.56c.06.24.11.47.18.7a9.73 9.73 0 001.11 3.7 10.29 10.29 0 001 1.52 1.88 1.88 0 01-.2-.2m-2-5.52v.41c0-.18 0-.35-.07-.52v.11M120 44.84a2.63 2.63 0 010-.33v-.29-.42-.2-.43-1.13a2.19 2.19 0 010 .36 3.39 3.39 0 010-.35.35.35 0 010-.12.34.34 0 000-.16 1.41 1.41 0 000-.18l-.07-.29c0-.41 0-1.17.2-.65 0-.17-.07-.31-.1-.44l-.11-.34-.27-.72c0-.2 0-.15.07-.07a11.79 11.79 0 01.51 1.77c0-.1-.06-.12 0 .06a2.43 2.43 0 00.06.31 1.22 1.22 0 000 .17.36.36 0 010 .09 8.54 8.54 0 010 2.42v.23c0 .08 0 .2-.07.31s-.12.48-.22.81a.24.24 0 01.06-.09c-.05.16-.1.32-.16.47a3.8 3.8 0 00.12-.79m-.58-6.49l.08.18-.09-.23M150.1 41c0-.46-.06-.91-.1-1.36 0-.76-.1-1.52-.1-2.19 0 .3.08.09.08.59v-.1a8.58 8.58 0 00.07.86 4.06 4.06 0 01.09.76c-.06-.89-.17-2.09-.23-2.87 0 .09 0-.07-.07-.28a3.1 3.1 0 00-.09-.57v-.05a3.2 3.2 0 01-.14-.63l.07-.21c-.06-.34 0 .11-.09-.23s-.12-.8-.2-1.31a5.25 5.25 0 01-.09-1c-.1-.58-.19-.74-.29-1.34 0 0 .07.18.09.2-.06-.32-.12-.66-.2-1l-.11-.52-.05-.27-.07-.27c-.17-.71-.38-1.41-.58-2a13 13 0 00-1.14-2.28c.06.12.19.36.26.52s.08.23-.06 0-.34-.61-.56-1c.09.06-.5-.95-.05-.23a1.05 1.05 0 00-.15-.35l-.33-.52c-.24-.36-.48-.68-.43-.71a1.6 1.6 0 01-.2-.24l-.33-.4-.18-.23-.18-.21-.17-.19-.14-.14c0-.05.1.07.21.2a1.53 1.53 0 00.25.26l-.36-.41a4.65 4.65 0 00-.43-.49 2.89 2.89 0 00-.33-.3l-.28-.24-.29-.25-.31-.28.2.14.21.15c-.49-.47-.79-.66-1.36-1.13v-.07l-.37-.27c.06.05.09.05.06 0l-.34-.22-.41-.29a5.29 5.29 0 00-.74-.47 3 3 0 00-.77-.55l.11-.05.26.16.16.11.15.13.16.13.43.29a9.83 9.83 0 00-1.57-1.15 18.08 18.08 0 00-2.18-1.12c-.55-.2-1.27-.49-1.93-.69-.17-.06-.33-.1-.48-.14l-.22-.06h-.21l-.35-.07h-.25.13a18.46 18.46 0 00-1.94-.38 17.52 17.52 0 00-2.49-.1 12.52 12.52 0 00-2.18.24h-.35c-.32.1-.75.2-1.23.34l-.37.1-.37.12c-.26.07-.51.16-.76.25l-.73.27c-.23.1-.45.19-.65.29l-.52.26a3.71 3.71 0 00-.36.24c-.68.27.17-.16.23-.23-.51.21-1.26.74-1.76.94 0 0 .66-.41.35-.26l-.24.12-.19.13a2.5 2.5 0 01-.46.28c.1 0 0 .1-.25.29l-.38.33c-.13.12-.27.23-.39.35l.14-.11c.1 0-.29.29-.47.49v-.08a10.35 10.35 0 00-.86 1 9.68 9.68 0 00-.74 1.14 9.45 9.45 0 00-.58 1.25 10.22 10.22 0 00-.41 1.33 13.68 13.68 0 00-.32 2.77 17.68 17.68 0 00.19 2.74c0-.22-.09-.43-.14-.65.09.51.24 1.41.28 1.7v-.07a4.88 4.88 0 00.1.58c0 .15.08.27.12.39a3.56 3.56 0 01.2.8v-.14c.16.56.28 1 .41 1.45a10.36 10.36 0 00.51 1.38c.15.42.21.61.26.77s.08.29.18.58a2.73 2.73 0 00.41.68l-.1-.22c0-.14 0 0 .13.17s.24.45.34.61a1.82 1.82 0 010-.33 3.17 3.17 0 00-.18-.66c.26.54.43.85.43.85.14.24.28.47.4.71l-.07-.11a2.16 2.16 0 01.18.34l-.16-.27-.19-.28c-.12-.18-.22-.32-.24-.34a2.88 2.88 0 01.27.49 2.77 2.77 0 00.28.51s-.13-.1-.26-.36a7.31 7.31 0 01.41 1 1.93 1.93 0 00-.34-.63c.07.16.19.39.29.61l.26.52s0 .11.05.23l.14.38c.1.25.16.45 0 .25a1.53 1.53 0 01.14.32 3.62 3.62 0 01.12.47 1.26 1.26 0 01-.16-.36c-.08-.19-.17-.4-.24-.53-.5-1.22.08 0 0-.3s-.25-.63-.39-.94l-.07-.05c-.07-.05 0 0 0 0s0 .13.12.28a9.05 9.05 0 01-.7-1.29c-.08-.09.1.24.16.35a1.65 1.65 0 00-.22-.24c-.07 0-.06 0 .12.37-.11-.21.22.34.06-.06l.14.29c.06.12.11.24.15.34s.1.34 0 .19l.15.32c.06.11.12.24.18.37s.21.5.26.65 0 0-.06-.11-.08-.22-.12-.29a10.34 10.34 0 01.36 1.07v-.32c.09.4.19.73.28 1a8.64 8.64 0 01.21.94 8.87 8.87 0 01-.27-1.06.75.75 0 000 .38 1.08 1.08 0 01.06.19 2.16 2.16 0 01.06.38v.08a5.07 5.07 0 01.09.54v.06a2.06 2.06 0 010 .21v.14a.25.25 0 000 .09.32.32 0 010 .15v.6a2.37 2.37 0 000-.69v-.24-.37c0-.17.06 0 .08.26s0 .27 0 .4a2 2 0 000 .28c0 .16 0 .28-.07.38s-.06.2-.09.29a1.86 1.86 0 00-.08.32c0 .12-.06.27-.11.46v-.32a1.86 1.86 0 01.07-.48v-.05a1.83 1.83 0 01-.11.35v.08a.19.19 0 010 .08 1.54 1.54 0 01-.07.28 7.73 7.73 0 01-.23.92c-.19.4-.39.85-.63 1.26a9.35 9.35 0 01-.67 1.07l.14-.09c-.29.51-.7 1.24-.87 1.62a4 4 0 01.37-.83 13.29 13.29 0 00-1.12 2.47l.54-.95a3.06 3.06 0 01-.15.41 2.91 2.91 0 01-.17.3 3.27 3.27 0 00-.18.33 3.14 3.14 0 00-.21.5c-.08 0 0-.27-.11-.1-.1.36-.32.94-.41 1.35-.07.1-.09 0-.06-.14a3.62 3.62 0 01.1-.37c0-.16.11-.34.19-.56.31-.62.52-1.37.83-1.85l-.19.29c.28-.63.48-1 .74-1.54 0-.1 0-.2.08-.3l-.16.28c0-.11.12-.31.21-.52a3.7 3.7 0 01.23-.48 4.86 4.86 0 00-.57 1.44c-.1.19-.2.36-.29.5l-.24.39a3.21 3.21 0 00-.35.72s-.29.48-.16.09a6.29 6.29 0 00.35-.82c-.11.23-.15.3-.21.41a6.58 6.58 0 00-.27.6 11.77 11.77 0 01-.31 1.3c0 .15-.09.3-.13.46s-.1.32-.14.48l-.25.84c.13-.58.26-1.18.16-1a3.53 3.53 0 01-.19.68c-.07.22-.11.38 0 .3l-.07.28c0 .1-.05.2-.07.3s0 .21-.07.31l-.06.31c0 .19-.07.37-.1.5s0 .22-.08.23a14.45 14.45 0 01.34-1.86 1.45 1.45 0 01-.06.19s0 .06 0 0c.08-.27.14-.54.22-.81-.1.3-.15.42-.2.56l-.07.26c0 .11-.06.25-.1.45 0 0 .06-.15 0-.07v.33c0 .11 0 .23-.05.33h-.09a5 5 0 01-.07.56v.71a8.62 8.62 0 000 1.68v-.1a1.48 1.48 0 000 .31 1.5 1.5 0 000 .24 1.12 1.12 0 000 .21l.06.19.13.41c.05.15.1.33.16.57-.1-.27-.1-.13-.13-.07a5.19 5.19 0 01.17.6c0 .19.09.38.16.62-.15-.56.21.34.1-.07l.09.13.18.35a2.29 2.29 0 00.1.23l.11.22.11.22a1.65 1.65 0 00.1.19c0 .08 0 0-.1-.07a4.81 4.81 0 01-.24-.42c-.09-.15-.15-.29-.19-.35s0 0 0 .17a2.63 2.63 0 00.23.42v-.19c.07.15.14.32.23.49l.14.25c.05.09.1.17.14.26s.2.33.28.48.17.27.23.38l.35.37c.1.11.18.21.27.29l.24.24.28.21c-.14-.15-.24-.21-.33-.3a1.83 1.83 0 01-.34-.39c.14.13.28.26.43.38a14.18 14.18 0 001.34 1.3l-.45-.31a4.86 4.86 0 01-.41-.32c-.15-.13-.27-.23-.26-.18l.29.22.26.23.3.25.37.25c.48.31.89.59 1.27.81a3.35 3.35 0 001.1.47c-.2-.07-.55-.3-.42-.27l.23.12.28.14c.18.08.34.14.32.16l-.22-.07a7.25 7.25 0 001.19.41c.19 0 0-.08.47 0a2.31 2.31 0 01.4.13h-.13c-.08 0-.37 0 0 .09l1 .14.22.08a10 10 0 002.16.1c.7 0 1.4-.11 2.21-.2 0 0-.27.1-.61.15l-.52.06H127.58a15.9 15.9 0 001.92-.14 4.23 4.23 0 00.77-.16c.17 0 .26-.1.21-.11a2.12 2.12 0 01.57-.1h.08a1.2 1.2 0 01.29-.12l.46-.13c.34-.09.73-.2 1-.3h.05l.9-.37c-.23.08 0 0-.05-.07l.24-.08a12.53 12.53 0 00-1.48.47 6.14 6.14 0 01-1.53.35c.29-.08-.11 0 .18-.1s.29-.06.32 0 .51-.2 0-.08c0 0 .25-.13.59-.24l.54-.17c.19-.06.38-.12.55-.19s.14 0-.09.12l-.4.16-.32.13c.26-.08.46-.19.84-.29l-.06.1c.46-.17.52-.21.48-.22s-.15 0-.06-.07a6.71 6.71 0 011.08-.42l-.27.13a4.12 4.12 0 00.78-.33c.2-.1.39-.21.7-.35l.32-.08c-.82.3-.92.54-1.39.7.59-.21.55-.16.31 0s-.68.36-.86.46c.52-.2 1-.4 1.27-.48s.73-.37 1.1-.56l.28-.13.27-.15a4.32 4.32 0 00.5-.33c.38-.19-.3.23.09 0a15.55 15.55 0 002.24-1.32c.37-.25.32-.18.45-.23a13.67 13.67 0 001.13-.87 11.84 11.84 0 00.89-.82c.55-.55 1.1-1.15 1.89-2l-.19.29a5.11 5.11 0 00.72-.93 3.29 3.29 0 00.4-.46c.14-.2.3-.43.44-.67a11 11 0 01.84-1.28c.13-.23.23-.41.3-.56a3.6 3.6 0 00.16-.39c0-.11.09-.22.14-.35s.11-.28.19-.47c0 0 0 .27.16-.11a27.11 27.11 0 001.32-3.72 31.89 31.89 0 00.85-4 2.45 2.45 0 010 .25 24.87 24.87 0 00.28-2.79c.06-.91.08-1.77.12-2.56V42c0-.23 0-.38-.06-.24 0 .37-.08.42-.12.39a4.13 4.13 0 010-1 1.54 1.54 0 00.05-.64c.1-.3.08.59.17.59M120 41.94"/>
      <path class="cls-6" d="M112.75 46.1h.47c-.19 0-.38-.08-.6-.11a.7.7 0 01-.23 0h.36m-9.28 6.29c0 .4-.06.87-.1 1.41v-.05a8.84 8.84 0 00.08-1.37m14-4.1l-.21-.1c-.08 0-.11 0 0 .07h.23m-9-2.19h-.15l.13-.08m-5.16 10.47c0 1-.23 6.13-.34 9.25.13-1.51.33-8.51.34-9.25m-.41 11.5a.25.25 0 00.18.13c-.07-.48-.07-1.36-.12-2.08 0 .89-.05 1.61-.06 1.95m.51-13.76v.49a1.54 1.54 0 000-.5m0 1.12a2.75 2.75 0 01.11.49c.14-.69 0-.63.07-1.19-.08-.51-.08.21-.17.42v-.13 1.24c0-.25 0-.52.07-.83 0-.08 0-.12 0 0"/>
      <path class="cls-8" d="M107.07 47s-.07.07 0 .05m-3.74 8.46c0-.07 0 0 0 0m-3-10.37a1.17 1.17 0 000-.11l-.12.18.07-.07"/>
      <path class="cls-8" d="M102.91 65.82c.11-3.12.3-8.21.34-9.25 0 .74-.21 7.74-.34 9.25m-.07 2.25c0-.34 0-1.06.06-1.95 0 .72 0 1.6.12 2.08a.25.25 0 01-.18-.13m.47-13v.13c.09-.22.09-.93.17-.43-.12.57.07.51-.07 1.19a3 3 0 00-.11-.49c0 .32-.06.59-.07.84v-1.24m0-.76a1.54 1.54 0 010 .5v-.49m.12-1.92a8.84 8.84 0 01-.08 1.37c0-.53.07-1 .1-1.41m4.94-6.29l-.13.08h.15m4.21-.07l.6.1H112.31a.7.7 0 00.23 0m4.6 2.16l.21.1h-.23c-.09-.08-.06-.08 0-.07m-13.71 9.93l-.24 7.22c-.08.32.13-7.49.08-7.62.16-.26.12 0 .26-.33l-.06.38.12-.08a4.63 4.63 0 010-1.66 3.68 3.68 0 000-1.31v.08a1.38 1.38 0 000-.34 1.56 1.56 0 000-.31c0-.2-.06-.38-.07-.56s.09.22.12.42v-.75-.86a7.66 7.66 0 01.08-.85 2.26 2.26 0 01.07-.39 3.38 3.38 0 01.11-.34c0-.33-.14.09-.11-.26l.09-.17a.29.29 0 01.07-.1v.19c.19-.35.41-1 .77-1.56a4 4 0 011.38-1.47l.14-.14.08-.09.11-.13a.69.69 0 01.17-.14l.17-.12.12-.07.15-.08c-.09.08 0 .1 0 .13v.07c0 .07 0 0-.08 0h-.06l-.08.05v.08a6.7 6.7 0 011.41-.5c.49-.12.94-.22 1.2-.32 0 .06.07.06.16.06h.32a1 1 0 01.44-.05 1.54 1.54 0 00.37 0h-.09c.23 0 .47 0 .71-.06a1 1 0 01.32.11v-.09a.63.63 0 01.29.08s.12.07.36.09l-.09-.08.5.08c.17 0 .3 0 .32.11s-.05 0-.15 0a2 2 0 00.37.13h.21l.22.05.22.06H114.19l.09.05.18.12v-.2l.26.14s.07.05.07.06-.07 0-.09 0c.32.21.36.29.78.6.23.11.14 0 .23 0s.28.22.43.32L116 48c.4.14.84.43 1.3.65l.34.15.33.1a1.81 1.81 0 00.31 0h.25c.16 0 .08.06 0 .06h-.12a3 3 0 00.81.12h.83c.26-.05.53-.08.77-.14l.35-.06.35-.06a2.63 2.63 0 001-.5 2.87 2.87 0 00.78-.94 3.5 3.5 0 00.36-1.19 3 3 0 00-.13-1.28 1.7 1.7 0 00-.33-.58 1.42 1.42 0 00-.25-.24 1.81 1.81 0 00-.29-.17l-.33-.07-.4-.08-.7-.09s0-.09.07-.08a.74.74 0 01-.18-.09.27.27 0 01-.09-.12.28.28 0 010-.09.19.19 0 010-.08v.11-.13-.06-.07a1.19 1.19 0 01.12-.26 2.22 2.22 0 01.19-.27l.25-.26.5-.46a4.72 4.72 0 00.38-.36.57.57 0 01.4-.19 2.86 2.86 0 00.56-.6 1 1 0 00.1-.17.76.76 0 00.09-.18c0-.07 0-.14.07-.2a1.89 1.89 0 000-.23c0-.08 0-.15.06-.22v-.11a.53.53 0 000-.12 1.09 1.09 0 00-.1-.25v-.17-.13a1.17 1.17 0 00-.06-.2 1.19 1.19 0 01-.08-.2 2.67 2.67 0 00-.22-.36 4.19 4.19 0 00-.26-.33l-.15-.14-.08-.07h-.08a3.45 3.45 0 00-1.17-.57l.08.07H121.17c-.12 0-.16-.08 0-.07a2.67 2.67 0 00-.45-.08H120.26a2.23 2.23 0 00-.86.26c-.5.24-1 .57-1.68 1a2.1 2.1 0 00-.77.37 1.66 1.66 0 01-.78.33 4.52 4.52 0 01-.77.38 4.13 4.13 0 00-.63.32s-.07 0 0 0a7.28 7.28 0 00-.71.18l-.25.06-.26.06-.26.06h-.26a3.19 3.19 0 01-.83.19l-.5.07a1.08 1.08 0 00-.33.1c-.08 0 .13-.07.22-.1-.37-.1-.62.1-1.09.1 0 0-.11-.07 0-.1A22.76 22.76 0 00108 40c-.51.05-1 .1-1.56.17l-.4.06h-.4c-.13 0-.27.05-.4.09l-.39.1-.15.06h-.06l-.3.18c-.12 0-.05-.06 0-.1s0-.05 0-.05h-.06l-.13.05a3 3 0 01-.37.25l-.46.26c.06-.08 0-.07.25-.26a1.29 1.29 0 00-.27.15c-.12.07-.23.18-.37.28s-.25.22-.38.33l-.2.15-.18.13s0 .1-.06.19c-.24.32-.55.66-.79 1a2.7 2.7 0 00-.3.36.57.57 0 00-.11.19s-.13.25 0 .05c-.08.12-.16.28-.24.39s-.13.18-.14.13a1.69 1.69 0 000 .24 2.55 2.55 0 01-.08.28v-.15c0 .13-.06.29-.1.41l.12-.17a1.36 1.36 0 00-.13.27c0 .1-.06.21-.09.3s-.11.35-.17.32v-.11l-.13.28-.12.29a3 3 0 010 .41 5 5 0 01-.1.51.37.37 0 00-.12.22.78.78 0 000 .18 1.43 1.43 0 000 .22l-.12.92a7.18 7.18 0 01-.06.86c0 .28-.06.5 0 .4 0 .4-.14.92-.16.72a5.06 5.06 0 000 1.18c-.07.21-.12.42-.18.63a1.79 1.79 0 010 .8c0 .27-.06.51 0 .53a3.31 3.31 0 01-.14.52 8 8 0 010 1.54v1.85l-.16.15c0 .38-.16 7.51-.21 7.87v-.1a5.2 5.2 0 01-.09 1.1c.09.56 0 1 .14 1.46-.14.42 0-.64-.17-.27s-.06 2.63-.07 5.49a41.56 41.56 0 004.51 3.51v-.4a4.14 4.14 0 010 .42l.46.3c0-4.59.11-9.73.12-10.25-.16-.41.42-8.45.21-8.81"/>
      <path class="cls-9" d="M135.65 34.5a1.45 1.45 0 11-1.44-1.5 1.48 1.48 0 011.44 1.52M135.77 34.27zm-.05-.22c-.06 0 0 .08 0 .12s-.07-.1-.06-.14M135.7 33.75s.07 0 0 0M135.65 33.71h.07-.08zm0-.35zm-.06-.07a.11.11 0 00-.08 0 .07.07 0 010 .07M135.54 33.52a.06.06 0 000-.05m0 .16h0m-.07-.12z"/>
      <path class="cls-9" d="M135.54 33.56zm0-.2a.09.09 0 01-.05 0v.06m-.24-.18zM135.54 33.42zm-.46-.08h.08s.11-.1.13-.17 0 0-.06 0 0 .09 0 .1v-.07c0-.07-.09 0-.13.07h.05m.26-.1a.13.13 0 010-.07h-.06l.06.06zm.07.06s-.08 0-.09.05 0 0 .07 0h-.06m.05.41v-.09l-.07.08m0-.18h-.05.05m-.14-.33h-.06m-.07 0zM133.23 33.08h-.07M134.3 32.78s0 .06 0 0M134.18 32.74h0M133.28 33.62zM133.27 33.66v-.06l-.1-.06.09.12"/>
      <path class="cls-9" d="M133.3 35.35v-.05h.1c.02 0-.08-.08-.19 0 0-.07-.09 0-.11 0H132.98l.02-.3h.07v-.11c.06-.05 0-.06.06-.11s-.08.1-.12.08 0 0 0-.06h.06-.08c-.03 0 0 0 .08-.06s-.07 0-.09 0 0-.07-.05-.12 0 0 .05 0H132.86c-.02 0 0 0 0 0s.05-.05 0-.07 0 0 .06 0a.87.87 0 00-.09-.11c-.05 0-.09 0-.13-.07h-.05a.14.14 0 010-.07h.13a.25.25 0 00.11 0l.06-.06c0-.07-.13-.14-.12-.24s.07 0 .12.06 0 .07 0 .1v-.09h.07c.07 0 0-.07 0-.11s.06 0 0 .06-.07-.1 0-.11 0-.06 0 0 .1-.16 0-.21l.09.07a2 2 0 01-.13-.25c0 .05.18.13.18.19v-.05c0-.05-.09 0-.08-.06h.12s-.08-.09-.06-.1.07.07.07.09a.5.5 0 010-.12s.05.07.08.08c.06 0 0-.16 0-.19s.06.12.09.12v-.16a.39.39 0 010-.17v-.06.36h.05c.05 0 0 0 0 0h.07v-.13a.47.47 0 000 .1.14.14 0 010-.11s0-.08.05-.09 0 .11 0 .13 0-.06.05-.05 0-.1.08 0 .06.06 0 0a1 1 0 01-.1-.33.32.32 0 01.42.03v.13s0 .05 0 0 .06 0 0-.06 0 0 .07 0a.17.17 0 01.06-.16.07.07 0 000 .05h.17a.06.06 0 010 .06v.07c0 .07 0 0 .08-.06s-.06 0-.09 0a.2.2 0 01.15-.17c.06 0 0 .05 0 0s.13-.11.2 0 0 .1 0 .13 0 0-.08-.06-.06 0-.07 0 .17.06.22.14.07 0 .05-.06.11 0 .14 0v.05s0-.05 0 0 0 .11.08.06v-.06h.15c.03 0 0 0 0-.07s-.1-.08-.11 0v-.14c0-.08 0 0 0 0h-.12c-.03 0 0 0 0 0v-.09h-.05a.08.08 0 00-.09 0s-.07 0 0 0h-.21a.26.26 0 00-.23 0h-.36v.05a.23.23 0 00-.12.06h-.18c-.07 0 0 0 0 0h-.12c-.03 0-.05.07-.1.07s0 0 0 .05 0 0-.09 0-.06.09 0 .15 0 0 0 .05h-.05v.09s-.07 0-.08-.06 0 .06 0 .15v.07s-.14.2-.24.3c.1 0-.07 0 0 .07s-.05 0-.06 0-.08.08 0 .15.07.09.14.11 0 0 0 .08-.06.14 0 .15a.45.45 0 000 .11c.07 0 0 0 0 .08v.14c.1 0 0 .09 0 .14s-.11.1-.11.14.06 0 .09 0-.08 0-.07.05.13.09.09.16 0 0 .07 0 0 .14.05.14.08.07.13.07 0 .08 0 .11.08 0 0 .09l.07.07a.09.09 0 00.11 0s.06.09.16.08 0 0 .06.07a.16.16 0 00.12.07c.06 0 .1.06.14.1s.09.06.14 0h.07c-.08 0 0-.06 0-.1s.07.07 0 .07c0 .08.09.06.08.12a2.23 2.23 0 00.5.07v-.07s.06 0 .06-.06v.08s0-.06.07-.07h.07s.07 0 0-.06.1 0 .16 0 .11-.07.13-.06a.14.14 0 01.1-.1s-.06-.05 0-.07.1 0 .18 0 0 0 0-.06v-.07c0-.07 0 0 .07 0a.23.23 0 01.11-.11.68.68 0 00.12-.12s-.05 0-.05-.05h.1s-.07-.07 0-.07a.52.52 0 00.16-.29.75.75 0 01.05-.16.39.39 0 01.1-.16h-.06l.07-.08c-.06 0 0-.1 0-.12h-.25c-.09 0 0 0 0 .07v.09c0 .09 0 0 0 0v.07c0 .09-.07.12-.13.21s0-.05.09 0-.06 0-.08.06 0 .07-.09.05.05 0 0 0h-.07s0 .08-.05.08v.13a.29.29 0 00-.08.13c0 .08-.06 0-.11.08a.06.06 0 010 .06s-.06 0 0-.06 0 0 0 .14a.08.08 0 010 .08s-.05 0 0-.09-.08.12-.16 0c0 .1.09 0 .07 0v.08s-.08-.1-.14-.08 0 .05-.07 0 0 0 0 .08h.05s-.05.12-.11.08.07 0 .09-.09-.05.07-.05 0 0 0-.06 0v-.06h-.09c-.03 0 0 .06 0 .09s-.05-.12-.14-.1a.15.15 0 010-.06c-.06 0 0 0 0 .07s0 0-.06 0c-.07 0 0 .08-.1 0s-.05 0-.08 0 0 .07-.06.06-.05 0-.06 0h-.08a.16.16 0 01.07-.07h-.07v-.06c0-.01-.11 0-.13 0s0-.08-.09-.08v-.07s0 .08-.09.06 0-.06 0-.08-.12 0-.1 0M133.53 35.54zM134.86 32.86s-.1 0 0 0M134.85 33.07h-.05M134.98000000000002 33.230000000000004zM134.59 33.15v.06zm-.11 0s-.07 0 0 0m-.58-.15v-.09zm-.35.4v.07m2.35 1.16zm-.07-.07h.06-.05m-2.68.3zm.09.32zm.22.18s0 .07 0 0m11.87-.83a1.45 1.45 0 11-1.48-1.53 1.49 1.49 0 011.45 1.52m.11-.25zm0-.22c-.06 0 0 .08 0 .12h.05s-.07-.1-.06-.14m.03-.28h-.05m-.06 0s.07 0 0 0M145.31 33.71h.07-.07zm0-.35zm-.06-.07a.15.15 0 00-.09 0 .07.07 0 010 .07M145.19 33.52a.06.06 0 000-.05m0 .16h0m-.07-.12zm0 0zm-.05-.2v.06m-.2-.18zM145.19 33.42"/>
      <path class="cls-9" d="M144.73 33.34h.08s.11-.1.13-.17 0 0-.06 0 0 .09 0 .1v-.07c0-.07-.09 0-.13.07m.26-.1a.13.13 0 010-.07H145l.05.06zm.07.06s-.08 0-.09.05 0 0 .07 0h-.07.05m.05.41v-.09a.42.42 0 00-.06.08m0-.18h-.05m-.14-.33h-.07m-.06 0zM142.83 33.08h-.07M143.9 32.78h-.06s0 .06.06 0M144 32.74h0M142.99 33.66zM142.93 33.66v-.06l-.1-.06.1.12"/>
      <path class="cls-9" d="M143 35.35v-.05h.09c.02 0-.08-.08-.19 0 0-.07-.09 0-.1 0H142.68h.07c.01 0 0 0 0-.11.06-.05 0-.06.05-.11s-.08.1-.12.08 0 0 0-.06h.06-.08c-.03 0 0 0 .08-.06s-.07 0-.09 0 0-.07-.05-.12 0 0 .05 0h-.08c-.02 0 0 0 0 0s.05-.05 0-.07 0 0 .06 0a.44.44 0 00-.09-.11h.05c-.05 0-.1 0-.14-.07a.25.25 0 000-.07h.14a.21.21 0 00.1 0h.05v-.06c0-.07-.13-.14-.12-.24a.27.27 0 00.12.06c-.06 0 0 .07 0 .1s0 0 .05 0v-.09h.06c.06 0 0-.07 0-.11v.06c0 .06-.08-.1 0-.11s0-.06 0 0 .1-.16.05-.21l.08.07a2 2 0 01-.13-.25c0 .05.19.13.18.19s0 0 0-.05-.09 0-.08-.06h.12s-.08-.09-.06-.1.08.07.08.09v-.12s.06.07.09.08c.06 0 0-.16 0-.19s.05.12.09.12a.91.91 0 010-.16.3.3 0 010-.17v-.06.36h.05c.05 0 0 0 0 0h.08v-.13.1a.14.14 0 010-.11s0-.08.05-.09 0 .11 0 .13v-.05s0-.1.08 0 .06.06 0 0a1.39 1.39 0 01-.1-.33.32.32 0 01.13.08v.18a.07.07 0 010-.05s0 .05 0 0 .07 0 0-.06 0 0 .07 0a.17.17 0 01.06-.16.43.43 0 000 .05h.17c.06 0 0 0 0 .06v.07c0 .07 0 0 .09-.06s-.07 0-.1 0a.2.2 0 01.15-.17c.07 0 0 .05 0 0s.13-.11.21 0 0 .1 0 .13-.06 0-.09-.06-.05 0-.06 0 .16.06.22.14.07 0 .05-.06.1 0 .13 0v.05s0-.05 0 0 0 .11.08.06v-.06h.15c.02 0 0 0 0-.07s-.1-.08-.11 0v-.14c0-.08 0 0 0 0h-.12c-.03 0 0 0 0 0h-.05v-.09a.08.08 0 00-.09 0s-.08 0 0 0h-.21a.2.2 0 01-.13 0 .16.16 0 01-.1 0h-.36v.05c-.05 0-.08 0-.13.06s-.12 0-.18 0a.09.09 0 00-.12 0A.14.14 0 01143 33v.05h-.1c-.1 0-.06.09 0 .15s0 0 0 .05v.09c-.05 0-.07 0-.08-.06s0 .06 0 .15v.07s-.14.2-.25.3c.11 0-.07 0 0 .07s-.05 0-.06 0-.07.08 0 .15.06.09.13.11 0 0 0 .08-.06 0-.06 0-.06.14 0 .15a.4.4 0 000 .11c.06 0 0 0 0 .08v.14c.1 0 0 .09 0 .14s-.11.1-.12.14.06 0 .08 0-.08 0-.07.05.13.09.1.16 0 0 .06 0 0 .14 0 .14.08.07.12.07 0 .08 0 .11.09 0 0 .09l.07.07h.12c.04 0 0 0 0 0s.06.09.16.08 0 0 .06.07a.19.19 0 00.12.07c.06 0 .1.06.14.1s.09.06.14 0h.08c-.08 0 0-.06 0-.1s.07.07 0 .07c0 .08.1.06.08.12a2.24 2.24 0 00.51.07v-.07h.06s.07 0 .06-.06 0 .08 0 .08 0-.06.06-.07h.07s.06 0 0-.06a.18.18 0 00.16 0c.06 0 .11-.07.13-.06a.14.14 0 01.1-.1s-.05-.05 0-.07.09 0 .18 0 0 0 0-.06v-.07c0-.07 0 0 .08 0s.06-.08.1-.11a.68.68 0 00.12-.12v-.05h.1s-.06-.07 0-.07a.52.52 0 00.16-.29c0-.06 0-.11.05-.16a.54.54 0 01.1-.16h-.07a.6.6 0 00.08-.08c-.06 0 0-.1-.06-.12h-.24c-.08 0 0 0 0 .07v.09c0 .09 0 0 0 0v.07c0 .09-.06.12-.12.21.05 0 0-.05.09 0s-.07 0-.09.06a.06.06 0 01-.09.05s.05 0 0 0h-.07c-.02 0 0 0 0 0s0 .08-.05.08a.25.25 0 010 .07v.06a.41.41 0 00-.08.13c0 .08-.06 0-.1.08a.07.07 0 010 .06v-.06.14a.08.08 0 010 .08v-.09c0-.09-.08.12-.15 0 0 .1.08 0 .07 0s0 .08 0 .08-.08-.1-.14-.08 0 .05-.07 0 0 0 0 .08h.06s0 .12-.12.08.07 0 .1-.09-.06.07-.06 0 0 0-.05 0v-.06h-.09c-.03 0 0 .06 0 .09s0-.12-.13-.1a.1.1 0 010-.06c-.06 0 0 0 0 .07s0 0-.07 0c-.06 0 0 .08-.1 0h-.08c-.02 0 0 .07-.07.06s.05 0 .05 0H143.96a.16.16 0 01.07-.07h-.07v-.06c0-.01-.11 0-.13 0s0-.08-.1-.08v-.07s0 .08-.1.06 0-.06 0-.08-.11 0-.1 0"/>
      <path class="cls-9" d="M143.18 35.54zM144.52 32.86s-.1 0 0 0M144.5 33.07h-.05m.05.09zM144.12 33.05v.06zm-.11 0s-.06 0 0 0m-.58-.07v-.09zm-.35.4c.05 0 0 0 0 0v.07m2.35 1.16zm-.07-.07h.06-.05m-2.68.3zm.09.32zm.22.18s0 .07 0 0"/>
      <path class="cls-8" d="M144.31 44.88a21.29 21.29 0 01-4.56.47 55.4 55.4 0 01-6.46-.47c-1.39-.41-2.53-1.14-2.53-2.53v-.12c0-1.39 1.11-2.79 2.53-2.53a62.29 62.29 0 007.58.64 9.25 9.25 0 003.44-.64 2.06 2.06 0 012.52 1.9c0 1.76-.67 2.58-2.52 3.28m.06.16l.16-.13z"/>
      <path class="cls-8" d="M146.18 44.06c0-.05.06-.09.09-.15a1.29 1.29 0 00.09-.16c0-.11.07-.2 0-.23l-.06.16-.08.15a.29.29 0 00-.16.09 1.94 1.94 0 00-.21.2l.09-.07.07-.08v.11a1.26 1.26 0 00-.17.13l-.12.11a.81.81 0 01-.31.17l-.19.16c-.08 0-.06 0 0 0a1.86 1.86 0 01-.58.35c.14 0 .27-.07.41-.16a.71.71 0 01.4-.19l.19-.13a1.37 1.37 0 01.2-.13 1.48 1.48 0 00.37-.29"/>
      <path class="cls-8" d="M137.49 45.5h.07a.08.08 0 00-.07 0m4.09-.41h.13a.19.19 0 00-.13 0m.62.43h.05-.05m-4.41-.41v-.08.08M142 45a.11.11 0 00-.08 0m4.45-1.19l-.1.13a.38.38 0 00.1-.13M134.24 44.76zM135.35 44.8z"/>
      <path class="cls-8" d="M136.42 45l.06-.07c-.26-.06-.36 0-.62-.06h.12a1.22 1.22 0 01-.66-.06h.05c-.17 0-.43-.09-.5 0s0 0 .09.09h-.43v-.1h-.23c.05.05-.3-.06-.31 0s.06-.07.11-.1h-.26l-.12-.1h-.33H133.18a.51.51 0 00-.3 0 .41.41 0 01-.22-.06l-.19-.11c-.15-.06-.1 0-.12.07l-.23-.13-.11-.06a3.26 3.26 0 01-.33-.13c-.07-.12 0-.1.09-.1h.08v-.1c0-.1-.09 0-.17 0l-.12-.09h-.07l-.06-.06-.09-.15a1.11 1.11 0 01-.09-.19 1.33 1.33 0 01-.05-.19 1.11 1.11 0 010-.17h-.06a2.15 2.15 0 01-.1-.27l.06.07.07.07a1.82 1.82 0 01-.15-.26v-.24-.06a.26.26 0 000-.13c-.06-.07 0-.28 0-.51l.07.1a.74.74 0 000 .14c.09-.06 0-.24.07-.38s-.07-.1-.07-.19 0-.15.08-.18.1 0 .11.09a.37.37 0 010-.18c0-.05 0-.12.1-.25s.05 0 0 .08a.2.2 0 000-.15h.1a.39.39 0 00.15-.27.47.47 0 01.21-.29l.13-.06a.58.58 0 01.27-.12c-.06 0 0 .06 0 .08s.08.06.06.1.14-.07.14-.11 0-.08.12-.12l-.06.14.12-.08.12-.07c.12-.07.1 0 0 .07h.31a.37.37 0 01.13 0v-.11a.2.2 0 01.1 0h.05-.1s.19 0 .3.07-.05-.09.06-.08c0 .06.17.09.18.12s.25 0 .27-.06 0 .05-.06.08.47 0 .57 0c.14 0 .38 0 .67-.06h-.11c.28.06.19-.11.42-.08 0 .08.39 0 .28.12a1.39 1.39 0 00.39-.1c.13.06-.26.09-.08.13h.38c-.01 0 .1.11.09.15s.3.06.41 0c.13-.09.38 0 .45-.09l.08.07c.19 0 .16-.11.25-.13h.25c-.25.05.12.1.17.14a1.29 1.29 0 00.48 0c-.13.05-.06.1-.27.09.11.11.33 0 .57 0v.05a.75.75 0 00.51-.18c0 .07 0 .08-.1.14a7.77 7.77 0 00.85 0c.08 0 0 .07-.06.08a2.88 2.88 0 01.42 0 .66.66 0 00.34-.08h.21c.1 0 0 0 0 0l.34-.07a1.71 1.71 0 01.37 0h-.07a1.16 1.16 0 00.29 0l.24-.09a1.61 1.61 0 01.56-.12c.08 0-.07.11.1.06s0-.13.25-.16v.07l.13-.1c-.09 0-.32 0-.17-.07a.26.26 0 00.18 0 .28.28 0 01.22 0 .44.44 0 00-.14.13 1.59 1.59 0 00.58-.18 1.45 1.45 0 01.25-.12.75.75 0 01.34 0 1.46 1.46 0 01.42 0h.37a.23.23 0 01-.19.14.86.86 0 00.26 0c.08 0 .15 0 .18.11a.69.69 0 01.34.13c.13.08.25.16.32.14s.17.18 0 .05a.52.52 0 01.18.29.67.67 0 000 .22l.07.06c.07.06 0 0 0 .05h.06c0 .08-.09 0-.13 0a2.75 2.75 0 00.14.3.8.8 0 01.11.35 2.91 2.91 0 010 .3v.24a.57.57 0 010 .15.45.45 0 01.05.24.82.82 0 010 .28V43c0 .08-.06 0-.06 0v.12a.61.61 0 00-.05-.12 1.93 1.93 0 01-.18.42c.08 0 .13-.15.13-.06l-.11.11a.08.08 0 000 .05.14.14 0 000 .06.56.56 0 000 .12.39.39 0 010 .14.38.38 0 00.08-.11.43.43 0 000-.11c.06-.09.06 0 .1-.06v-.16h.08a2.27 2.27 0 00.06-.25s.06 0 .07-.08 0-.08.06 0a1 1 0 01.06-.22.54.54 0 000-.22c.07-.12 0 .19 0 .07a7.66 7.66 0 000-1.07 2.05 2.05 0 00-.33-1.1h.07l-.1-.08-.1-.06a.84.84 0 00-.2-.34.65.65 0 00-.36-.22s-.25-.17-.42-.26a1.94 1.94 0 00-.57-.2.9.9 0 01-.37 0c-.14 0-.29 0-.34.11l.07-.05c.07 0 0 0 0 .09a.51.51 0 00-.15.13c-.13-.06 0-.07-.17-.12h.12l-.06-.07a.5.5 0 01-.23.18 1.32 1.32 0 01-.26 0h-.24a.44.44 0 00-.19.1c-.17 0-.26.13-.38.18s.06-.08.12-.13l-.25.05-.29.08a1.91 1.91 0 01-.56.07c-.11.07.05.07-.07.12s-.17 0 0-.08a.84.84 0 00-.28 0h-.35a2.29 2.29 0 01-.74 0c-.24.06-.09.09-.45.12.09 0-.08-.14.13-.14a2.7 2.7 0 00-1 .06c0-.09-.06 0-.19-.07s-.19 0-.29 0h-.26s-.1 0-.11-.07V40c-.14 0-.06-.08-.23-.08h-.3c-.02 0 0 0 0 0-.16-.11-.43 0-.64-.07v.11c-.21 0-.13 0-.12-.07s-.16 0-.34-.08-.05 0-.08.06h-.18.13c-.3.12-.71-.09-.91 0s.1-.05 0-.07c-.32-.1-.75 0-1-.1a5 5 0 00-.71-.12 6.17 6.17 0 01-.75-.12 1.84 1.84 0 00-.41-.06h-.25a.6.6 0 00-.28.12v-.08a4.08 4.08 0 01-.43.18 2.16 2.16 0 00-.52.35 1.25 1.25 0 00-.3.38c-.07.1-.11.07-.16.08a1.19 1.19 0 00-.21.5l-.1.11v.1c0 .08-.06 0-.1.07a4.59 4.59 0 01-.1.51 2 2 0 00-.07.44c0 .1 0 .27-.06.16v.32c0 .05.05.19.08.29a5.43 5.43 0 00.32.67v.14a.61.61 0 00.13.16.91.91 0 01.13.16.15.15 0 01.05.13c.22.16.33.3.53.34a.64.64 0 00.24.17 3 3 0 00.38.15.31.31 0 01.13 0h.19a.64.64 0 00.31 0h-.09a.18.18 0 00.48.15h.22s.05.05 0 .06h.97a7.74 7.74 0 011.08.1c.2 0-.06-.1.2-.07.07.05-.14.08 0 .11a.57.57 0 01.32 0s0 .05-.12.06H136.3c.27-.06.61.12.64.08s.09 0 0 0c.1 0 .24 0 .21.07a.48.48 0 01.18-.05v.05l.14-.05h-.07c.11.05.34 0 .33.05l.21.06a.58.58 0 01.31 0c.05.1.37 0 .55 0h.44c.13 0 .32 0 .25.06.11 0 .35 0 .41-.08l.23.09c.13-.13.45 0 .46-.11.13 0 .1.05.19.07a1.39 1.39 0 01.54-.07 1.77 1.77 0 00.3 0 1.67 1.67 0 01.35-.07l.06.09c.13 0 .16-.11.28-.1a1 1 0 01.39 0c.19-.1.34-.09.49-.2.16.07-.21.08-.07.14a2.37 2.37 0 00.84-.19v.06a3 3 0 00.26-.19c.12-.1.22-.21.15-.25s.13-.14-.12-.13c-.07.05-.3.15-.36.08v.07c-.33.1 0-.13-.45-.06h.09c-.08 0-.13.07-.22.06s0 0 0-.06L143 45s0-.06.05-.1c-.31 0 .08.12-.3.14-.07 0 0-.05.06-.08a.83.83 0 00-.46.09c0-.06.11-.06-.05-.09 0 0 .06.09-.05.1.05-.07-.09 0-.2 0s0 .05 0 .07-.1 0-.18 0h.15c-.19.07-.31 0-.45 0a.06.06 0 01.06 0 1 1 0 00-.51 0c-.37.08.12.1-.31.18-.14 0 .06-.21-.26-.12.16.05-.21.14-.39.17l.19-.13h-.25c0 .11-.24 0-.37 0 .16-.14.17-.11.2-.26a.85.85 0 01-.52.14l.2-.11a2.75 2.75 0 00-1 .21c.07-.08 0-.11.08-.18h-.3l.09-.09c-.13.09-.27 0-.25.14s0 0 .09 0-.07.11-.22.09.06 0 0-.07-.1 0-.21 0l.09.06c-.08.06-.17 0-.28 0 .13 0 .09-.07 0-.11h-.23l.07-.09-.12.06s-.07-.05 0-.06c-.34-.08 0 .2-.45.09 0 0 .06-.06.18 0s0-.09-.12-.12a2.07 2.07 0 00-.71 0"/>
      <path class="cls-8" d="M137.13 45h.28s-.29-.07-.28 0m4.12-4.43h-.06.06M136.5 40.43c.09 0 .12-.05.13-.07a.13.13 0 00-.13.07m-5.24.74a1 1 0 01.1-.27c0 .08-.13.19-.1.27m11.22-.87l-.09.06h.1zm-.95.14s-.21 0-.16.05l.16-.05m-3.64-.13h.08z"/>
      <path class="cls-9" d="M140.43 42.54zM135.33 42.21zM141.63 42.52zM142.48 42.48h-.1zM143.67 43.1h-.12a.76.76 0 01.18-.09l.16-.06.15-.07a.48.48 0 00.15-.11l.07-.09a.31.31 0 01.12-.07h.28-.1s0-.1.09-.14l.11-.1h.07s-.07-.14.07-.16c-.09 0 0-.08 0-.1l.1-.12v-.06a.6.6 0 01-.19 0 .7.7 0 01-.26 0c.09 0 0 0 0 0h-.13c-.04 0 0 0 0 0h-.07c0 .05-.07.06-.15.06h-.2c-.07 0-.09.08-.17.08h-.14c-.06 0 0 0 0 .06H143.48s-.07 0-.06.06-.12 0-.15 0h.05c.05 0 0 0 0 0s-.33 0-.3.06c0 .07.06.13 0 .18-.05.06-.15 0-.23.07l.15.16c-.08 0-.22-.07-.21 0h-.06c-.17-.09-.08.08-.14 0h-.08.06a.49.49 0 01-.17-.06.08.08 0 01-.07.08c-.06 0-.1.08-.22 0v.08h-.09v-.06a2.74 2.74 0 00.31-.1 1.16 1.16 0 00-.15.06s-.09-.06-.06-.11v.07h-.69a.44.44 0 01-.16-.06v.07s-.08-.09-.08 0h-.05s0 .05-.09 0c-.09 0 0 .07-.09 0s0 .09-.06.08l-.06-.09c-.09-.05-.09 0-.2.06a.15.15 0 01-.07-.19c0 .1 0 .06-.08.11s0 0 0-.08 0 0-.08 0a.75.75 0 010 .2c-.05 0-.1.07-.16 0h-.06v-.05h-.09a.13.13 0 01-.12 0c-.11-.08-.19 0-.31 0v-.05s0 .08-.06.06v-.07c-.05.08-.06 0-.09-.05v.08c-.07 0 0-.1 0-.15l-.05.07v-.08c0 .09 0 0-.09 0s0-.05 0-.06l-.09.1h.05v.11c-.06.08-.07 0-.11 0h-.1c-.03 0 0 .05 0 .06v-.05c0-.05-.06.11-.1.07v-.08.08s-.06 0 0 0h-.18v-.06c0 .08-.1 0-.1.07 0-.07-.15 0-.12-.09-.12 0-.2.09-.34 0s-.19-.1-.29-.12a4.36 4.36 0 01-.52 0c-.09-.16-.29 0-.41-.09-.07-.11-.21 0-.31-.13h-.06v.05c0 .05-.1 0-.09-.08 0-.07-.1 0-.13 0v.08h-.06c-.31.12-.38-.15-.67 0 .05-.08-.06 0 0-.06s-.13 0-.19 0h-.09c.09-.1-.09.08 0 0a1 1 0 00-.39-.14 2.7 2.7 0 01-.43-.11c-.07 0-.16 0-.2-.07s-.14 0-.16 0-.1-.08-.07-.07-.16.08-.23 0-.27 0-.23-.08c-.08-.12-.23 0-.32-.12l-.35.25-.06.39.12.37.61.11.44.26.58.13.59.12.1-.07c.2.2.53.09.75.25v-.07c.07 0 .06 0 .08.07s.33 0 .49.06h.5l.48.06a3.4 3.4 0 01.46.09c.05.05.23.05.27.1a1.16 1.16 0 01.61 0H139 139.96l.54-.06.55-.08h.56a1.32 1.32 0 00.55-.08c.1 0 .19-.07.29-.09a1.57 1.57 0 01.3 0 .44.44 0 00.18 0h.14l.16-.06a2 2 0 00.44-.23M142.89 42.379999999999995zM145.03 42.14H145m-.34-.27"/>
    </g>
  </g>
</svg>
