<svg xmlns="http://www.w3.org/2000/svg" viewBox="0 0 168 84">
  <defs>
    <style>
      .cls-2,.cls-3,.cls-4,.cls-5,.cls-7,.cls-8,.cls-9{fill-rule:evenodd}.cls-2{fill:#fff}.cls-3{fill:#f4efec}.cls-4{fill:#937c77}.cls-5{fill:#e1d5cb}.cls-7{fill:#fae7d1}.cls-8{fill:#221815}.cls-9{fill:#de8b92}
    </style>
  </defs>
  <g id="레이어_2" data-name="레이어 2">
    <g id="레이어_14" data-name="레이어 14">
      <path d="M84 42A42 42 0 1142 0a42 42 0 0142 42" fill-rule="evenodd" fill="#efe5dc"/>
      <path class="cls-2" d="M67.25 30.14h.07c0-.05 0 0-.07 0m3.93 6.35a2.62 2.62 0 00-.06-.3c0-.11-.09-.22-.13-.32l.09.31c0 .1.06.2.1.31m-9.81-14.13a2 2 0 000 .22v-.35.13m10.31 15.31a2.08 2.08 0 000 .41 1.3 1.3 0 000-.41M24.1 21.34a.33.33 0 00.1-.11c-.15.08-.15.11-.1.11M46 17.3zM39.62 15h.1-.1"/>
      <path class="cls-2" d="M71.75 39.11c0 .07.07.07.08 0a.93.93 0 000-.24q0-.16-.06-.39v-.44c0 .13-.1.1-.17-.12a2.48 2.48 0 01-.08-.41c0-.14-.06-.29-.11-.48v.71l-.06-.17-.06-.16-.09-.3-.06-.28a1.38 1.38 0 01-.06-.26v-.26a2.44 2.44 0 00-.06-.26c0-.17-.08-.34-.13-.52a1.42 1.42 0 01.17.3 9.48 9.48 0 00-.41-1.16c-.1-.2-.2-.39-.32-.59a5.37 5.37 0 00-.42-.59l.06.06c-.59-.74-.56-.57-.55-.45s0 .11-.08 0a1.76 1.76 0 01-.2-.2c-.06 0-.11-.11-.18-.18l-.24-.26c-.22-.27-.08-.29 0-.37s0-.11-.06-.23a2.63 2.63 0 00-.2-.23l-.46-.25c.09.14.11.19.07.19a1.11 1.11 0 01-.28-.15l-.49-.34-.3-.15-.14-.09h-.06s.11-.3.16-.44a2.9 2.9 0 000 .4h.08l.16.06-.09-.07h-.06a2.5 2.5 0 00.09-.25.21.21 0 010-.07v-.1a.81.81 0 01.06-.13h-.08c-.12 0 0-.29.11-.67a4.38 4.38 0 00.12-.63 1.68 1.68 0 000-.6 6.36 6.36 0 01.25.82.49.49 0 00.24.33 11.84 11.84 0 00-.13-1.22 11.59 11.59 0 00-.35-1.58 5.34 5.34 0 01.48 1 4.06 4.06 0 00-.36-1.33 4.69 4.69 0 00-1.75-2 5.48 5.48 0 00-1-.5c.2 0 .2-.07.21-.13s0-.11.35 0a5.12 5.12 0 00-.73-.39 5.64 5.64 0 00-.78-.29h.51c-.36 0-.71-.11-1-.14a.74.74 0 00-.3 0c-.07 0-.1 0-.08.12h.18a1 1 0 01.29 0s-.12.08-.3.1a8 8 0 01-.86 0c-.27 0-.2-.06-.06-.09s.31-.05.23-.09a1.51 1.51 0 01-.55 0h-.18a.45.45 0 00-.17 0l.12.05H61.78h-.07a.45.45 0 01-.11 0l-.23.05v-.07l-.06-.14-.08-.14a1.08 1.08 0 00-.11-.18c.05.06.08.12.11.16s.06 0 .08 0v-.14c0-.09-.1-.18-.16-.27l-.15-.18-.16-.25a1 1 0 01-.05-.12.49.49 0 010-.11l.35.17-.21-.21-.23-.19c-.1-.2-.13-.38.12-.09a3.33 3.33 0 00-.29-.44 1.26 1.26 0 00-.19-.2.19.19 0 00-.21 0c-.12 0-.24 0-1-.94 0 0 .13 0 .24.1a4.06 4.06 0 01.45.52c.17 0 .13-.18-.27-.69s-.22-.22-.34-.34l-.18-.18-.19-.17-.39-.32a1.56 1.56 0 00-.2-.16l-.2-.15-.4-.27-.2-.12-.19-.1-.36-.18a1.84 1.84 0 00-.32-.12c-.19-.17.06-.1.32 0a8.14 8.14 0 00-.78-.43l-.68-.26c-.44-.14-.89-.29-1.57-.53l.63.25c-.23 0-.5-.08-.8-.14l-.46-.07-.47-.08-.47-.06h-.4a6.09 6.09 0 01-.76-.12h.26c-.44 0-1 0-1.51.06a3.25 3.25 0 00-1.12.17c.19 0 .19 0 .22.05s.07 0 .35 0a10.83 10.83 0 00-2.09.67l-.25-.29-.53.25-.26.14-.13.07h-.12l-.23-.16c-.15-.09-.27-.13-.3-.09-.25-.22-.18-.22 0-.15l.3.13a1.23 1.23 0 00.26.11 3.42 3.42 0 01-.34-.22l-.24-.16a1.38 1.38 0 00-.41-.07 3.05 3.05 0 00-.35-.15c-.16-.16-.32-.33-.49-.48a10.92 10.92 0 00-1.65-.53h.07c-.4 0-.87-.2-1.39-.3a3.67 3.67 0 00-1.58 0h.06a2.61 2.61 0 01-.54.06H37.3c-.43.09-.5.17-.48.21s.15.08.14.12l-.42.1a3.58 3.58 0 00-.35.09l-.53.16a5.38 5.38 0 00-.64.28 9 9 0 00-1.42 1c-.58.24-.33 0-.1-.3l.15-.18c0-.05.07-.09.06-.11s0 0-.12 0l-.39.18a1.32 1.32 0 01-.22.25c-.11.12-.26.26-.43.42a1.59 1.59 0 00-.13.13l-.14.13-.29.29-.3.33-.15.17c-.06.06-.1.12-.15.18L31 19l-.34.4-.18.21-.17.23a4 4 0 00-.34.47h-.25l-.51-.06-.46-.06.12.16c-.27 0-.54 0-.81.08s-.27 0-.4.06h-.4c.14-.07.29-.12.44-.18l.3-.01-.69.18c-.3.09-.63.18-.88.28l-.28.08-.23.07a2.06 2.06 0 01-.34.07 1.21 1.21 0 01-.41 0 1 1 0 00-.33 0 2.45 2.45 0 00-.61.31.28.28 0 01-.13 0l-.37.25-.27.14-.3.17a11.53 11.53 0 00-1.43 1l.24-.43c.25-.14.48-.29.73-.41a1.85 1.85 0 00-.84.47l-.46.41c-.15.15-.31.29-.46.42-.3.31-.33.43-.34.51a.33.33 0 01-.1.31c-.11.1-.23.25-.35.38a2.16 2.16 0 01-.33.34c-.13.13-.2.2-.25.21s-.05 0-.05-.08a2.51 2.51 0 01.16-.46 5.18 5.18 0 01-.4.78l-.3.49c-.11.2-.26.44-.42.76-.12 0-.11-.09 0-.27-.06.14-.12.27-.16.39a1 1 0 00-.05.32c-.11.12-.22.25-.32.38a3.63 3.63 0 00-.4.89 4.71 4.71 0 00-.1.7v.76c0 .15-.09.64-.18 1.11 0-.13 0-.09-.05.05s0 .16 0 .27V33.06c0-.33-.1-.25-.18-.14s-.18.27-.25.07v.78a.62.62 0 00.12.28.63.63 0 01.14.21 1 1 0 01.08.22 3.11 3.11 0 01.09.36l-.33-.46a2.3 2.3 0 00.25.74 3 3 0 01.28.73c-.17-.31.08.56-.19-.14.1.4.18.67.25.87s.12.34.16.47l.08.2v.18a1.34 1.34 0 01.23.16l-.14.07h-.05l-.28.07.28-.18h-.05a.56.56 0 00-.17.09 2.09 2.09 0 00-.29.23 2.35 2.35 0 01-.67.51h.2c.01 0 0 0 0 .1a1.73 1.73 0 01-.21.23c0-.06 0 0-.1 0a.38.38 0 00-.13.08L16 39l-.28.26c-.07.08-.13.14-.15.14s.07 0 0 .06-.16.23-.26.4l-.15.25c-.05.08-.08.17-.12.25s-.1.26-.08.3c-.2.28-.2.22-.16.08v-.12l.05-.12v-.16a.9.9 0 01-.09.26c0 .1-.08.22-.13.34l-.09.19-.08.2-.16.42c0 .15-.1.29-.14.43s-.07.28-.1.4v.19a1 1 0 000 .16v.26c0 .07 0 0 0 0v.47a.54.54 0 000 .18c0 .24 0 .51.05.79l.06.45c0 .15.06.31.1.46a6.65 6.65 0 00.33 1c-.09-.14-.17-.29-.26-.44a2.6 2.6 0 00.23.73 1 1 0 00.23.31 1.79 1.79 0 01.22.24 1.27 1.27 0 01.14.21l.18.31c-.14-.06.09.37.35.74s.54.68.29.55l.41.35q.21.16.42.3a2.82 2.82 0 00.4.24c.11.09.23.17.35.25h-.13l-.19-.08a1.46 1.46 0 00-.3-.13c-.05 0 0 0 .15.2a7.56 7.56 0 00.89.47l.1.18a1.56 1.56 0 01.45.15l.28.09h.12c.09.19.45.4.37.48h.64a.4.4 0 00.15 0 .42.42 0 00-.11.25h-.08a.41.41 0 010 .12v.08l-.06.15c0 .11-.08.21-.13.32a3 3 0 00-.12.32 1.66 1.66 0 00-.18 1l-.12.18-.11.17a1.34 1.34 0 000 .83l.09.19v.09c0 .21-.05.43-.05.65v.34c0 .11 0 0 0 0v.09a1.15 1.15 0 000 .21 5.86 5.86 0 000 .59 2.56 2.56 0 010 .44 7.2 7.2 0 00.35 1.16 3.32 3.32 0 00.58 1 2.31 2.31 0 00-.36-.34 1.94 1.94 0 01-.38-.75.71.71 0 000 .25 1 1 0 00.08.28 2.38 2.38 0 00.13.29c.05.11.12.21.18.32.27.42.63.87 1 1.35l-.09.06a5.27 5.27 0 00.41.41l.18.16.17.13a2 2 0 00.29.19 1.93 1.93 0 00.24.13 2.07 2.07 0 00.41.15l.21.06.26.17s0 .06-.07.06a1.8 1.8 0 01-.49-.14l.17.14.2.14a4.5 4.5 0 00.43.27 7.09 7.09 0 001 .47h.27l.27.09.55.14.53.09.5.07c.2.07.24.11.16.14h-.18.72a.78.78 0 01.1.15l.17.28q.11.17.21.3l.2.28.21.26A2.23 2.23 0 0028 66a3.82 3.82 0 00.39.35h-.07l.05.09.1.12.26.31.27.32h.19l.27.21.32.26.37.28.19.14.21.14.4.29.1.07.1.07.2.13c.13.08.25.17.36.25s.23.14.32.21l-.33-.1.67.37a2.12 2.12 0 00.31.14l.31.12.3.12.29.08.58.17c.13 0 .26.06.39.09a13.44 13.44 0 002.38.52c.22.08-.45.14.35.22a1.64 1.64 0 00.44-.13h.92v.12l.37-.09h.18a14 14 0 001.45-.15l.45-.08h.35l.38-.1a13.26 13.26 0 003.27-1.35l.33.1h.12a13.16 13.16 0 003.41.59 1 1 0 01-.46.14 3.82 3.82 0 001.29-.11h1.04l.18-.07a12.8 12.8 0 005-1.68 1.4 1.4 0 00.33-.15c.09-.05.09-.07.06-.08l.51-.34a.3.3 0 00-.07.11l.37-.24a3.88 3.88 0 00.31-.26l.29-.26.14-.14.07-.08a13.16 13.16 0 003.17-4.18A8.76 8.76 0 0069.77 52a8.64 8.64 0 00-1.19-3l.44-.4c.1-.19.31-.55.51-.87.1-.16.2-.32.29-.44l.13-.15a.33.33 0 01.11-.08L70 46.9a3.61 3.61 0 01.39-.67.32.32 0 01.19-.13c.06 0 .13 0 .23-.18a3.62 3.62 0 00.44-.9l-.21.4.09-.28.06-.27a2.68 2.68 0 01.07-.27 1.72 1.72 0 01.11-.29c.08-.12 0 .16 0 .34a14.81 14.81 0 00.23-1.74c.1 0 .14 0 .14.38a2.23 2.23 0 00.07-.65c0-.08 0-.06-.09 0s-.06 0-.06-.1 0-.36.09-.84.1.13.11.4c0-.11.06-.22.08-.32s0-.21 0-.31v-.29a8.45 8.45 0 000-.58V39.66c.07 0 .11.14.14.19s0-.16 0-.35c-.06.16-.18.26-.24-.32"/>
      <path class="cls-2" d="M60.19 20.26c.16.2.29.36.38.45s-.07-.12-.15-.25l-.14-.2a1.73 1.73 0 00-.17-.21c-.23-.28-.48-.52-.52-.46l.32.35.28.32m-31 47.15l-.19-.22s0 .1.16.22M18.6 51.62a2.2 2.2 0 00.5.09h.18a1.3 1.3 0 00-.68-.06M14 43.23V43v.19m5-17.66a4.18 4.18 0 00.23-.36 1.07 1.07 0 00.14-.29c-.23.39-.58.9-.81 1.35a3.24 3.24 0 01.2-.33c.07-.12.16-.25.24-.37m15 44.81c.17 0 .35.06.53.09h-.51m-4.1-2.44c-.17-.12-.3-.19-.23-.09a3.13 3.13 0 01.34.21l.17.12.17.11-.19-.16a2.14 2.14 0 00-.26-.19m-10.83-11.7v-.21a2.12 2.12 0 00-.11-.21c0 .14.06.28.08.42"/>
      <path class="cls-3" d="M38.83 32a.9.9 0 00.27-.1 1 1 0 00-.27.1m-19.72 5.4a.55.55 0 00.09.14c0-.09-.08-.16-.09-.14m4.37 4.36l.33.18.19.06c-.21-.11-.42-.2-.63-.32h.09"/>
      <path class="cls-3" d="M64.27 32.79v-.26a3 3 0 01-.25.63 4.31 4.31 0 01-.25.44l-.06.08a4.89 4.89 0 00.65-2 .7.7 0 01.07.28v-.1a4.66 4.66 0 01-.14.91M63.1 34.9c-.2.33-.32.29-.54.51.06-.08.09-.17.14-.25a.54.54 0 01.21-.25l.26-.33c.1 0 .19 0 0 .35m1.64-4.14a1.06 1.06 0 01.1.58c0 .16-.07.29-.08.37v-.2.1a4 4 0 00-.23-.51 1.23 1.23 0 000 .23.16.16 0 000 .08.19.19 0 01.06.12 1 1 0 010 .36c-.07.14-.11.12-.14 0s0-.26-.07-.42a1.31 1.31 0 00-.1-.36 1.85 1.85 0 00-.78-1.34c.08 0 .19.05.22 0a1.3 1.3 0 00-.54-.25.24.24 0 00-.14 0v.06a2.58 2.58 0 00-.42-.13l-.25-.09h.22-.42a1.63 1.63 0 00-.36 0h-.68c-.24 0-.47.08-.71.12h-.26a1.54 1.54 0 01-.38.06h-.27a1.43 1.43 0 00-.3 0 .68.68 0 00-.19 0l-.23.07a.82.82 0 01-.32.17l-.4.1a2.74 2.74 0 00-.45.12 2 2 0 00-.43.24c.14-.13 0-.07-.22 0s-.3.1-.07-.1a1.19 1.19 0 00-.32.12l-.23.12-.24.15-.51.3a2.23 2.23 0 01-.45.21c.06-.07 0-.09.13-.17a1.31 1.31 0 01-.53.29 1.19 1.19 0 00-.43.18l.1.11c-.16.15-.26.1-.41.22.14-.06.43-.18.33 0a6.47 6.47 0 01-.57.47s.11-.17.2-.25l-.07.05-.18.1a.88.88 0 01-.31.14c.15-.16.37-.32.49-.48-.67.4-.08 0-.46.11.09 0 0 .15-.23.29s-.45.3-.6.44c-.08 0 .22-.19.28-.29a1.61 1.61 0 00-.51.23 2.3 2.3 0 00-.38.32l-.18.18a.18.18 0 00-.05.07l-.1.12h-.07v-.06a.17.17 0 01-.06.06h-.07l-.11-.09a.55.55 0 00-.29-.11c-.22-.09-.23-.15-.27-.21s-.1-.13-.47-.24c0 .06 0 .07-.06.06L50 32.5l-.35-.09h-.19l-.53-.23c-.26 0-.24.09-.28.15s0 0-.14.06a2.3 2.3 0 01-.47 0c-.42-.1-.4-.16-.32-.24s.2-.13 0-.21l-.23.07-.49-.11h.06a2 2 0 01-.73-.11s.33 0 .37-.06a1.9 1.9 0 01-.45 0l-.62-.09a1.93 1.93 0 00-1.08.07c-.25-.05-.77 0-.71-.12-.23.13-1.14 0-1.47.12 0 0-.29-.09-.54 0 .35 0 .13.08-.09.17a3.43 3.43 0 00-.71 0 1.15 1.15 0 01-.59 0c-.46.14-.27.22-.36.34a6.81 6.81 0 00-.73 0c-.26 0-.47 0-.4-.07.26 0 .84-.1.72-.19-.51 0-.21.07-.61.17 0 0-.29-.05-.23-.11l-.41.1c-.16 0-.33.07-.5.09.54-.05-.32.2 0 .19l.48-.24c.62-.14.15.06.39.05l-.35.09-.25.09-.34.16a4.5 4.5 0 01-.86.4l-.65.13c.33-.12.22-.24 0-.21a2.43 2.43 0 01-.76.28 5.56 5.56 0 00-.73.18c.41-.14.24 0 .11.14l-.27.15-.17.09h-.14c-.02 0 0-.09-.25 0l-.51.28-.24.12-.23.14-.43.25-.41.27a1.37 1.37 0 00-.2.13L32 35h-.05v.1H32a.78.78 0 000-.16.48.48 0 01.09.19.75.75 0 010 .29h-.07c-.05 0-.07-.07 0-.09h-.28c0 .08.23.17.07.15l-.1-.09h-.06l-.11-.07c-.13-.1-.18-.15.05-.08-.34-.19-.8-.36-.76-.25-.27-.14-.25-.17-.11-.16a3.21 3.21 0 01.52.11c-.44-.23-.33-.31-.18-.27l-.63-.29h.33c-.4-.24-.76-.24-1.07-.5h-.21l-.38-.19-.29-.13-.42-.19-.42-.17-.67-.21.17.14a4.31 4.31 0 01-.5-.09 2.22 2.22 0 01-.31-.13 3 3 0 00-.36-.14l-.28-.07-.41-.06h-.71a2.15 2.15 0 00-.36 0c-.19 0-.29 0-.25.12a1.32 1.32 0 01-.68-.11l-.31.06-.39.07c-.29 0-.6.1-.89.12a5 5 0 011-.21h-.23a3.08 3.08 0 00-.48 0 9.81 9.81 0 00-1.13.26L21 33l-.27.17a4.23 4.23 0 00-.62.55 2.79 2.79 0 00-.51.8 2.58 2.58 0 00-.19.79c.1-.19.18-.22.22-.13a5.2 5.2 0 01.08.68l-.05.1a2.09 2.09 0 000 .37 4.74 4.74 0 00.13.86s-.05 0-.05.07v.38c0-.02-.08-.1-.17-.32a1.37 1.37 0 010-.19v-.18a1.7 1.7 0 00-.07-.44 2.61 2.61 0 000 .62 4.47 4.47 0 00.21.88 1.66 1.66 0 01-.36-.64c.1.17.08.06.11 0a2.51 2.51 0 00-.21-.44v.62c.07.15.17.39.25.54s.14.22.1.06a2.46 2.46 0 00.61 1.07 8.7 8.7 0 01.77.94s-.17-.3.16 0a2.55 2.55 0 01.38.42 1.38 1.38 0 00.15.25 5.6 5.6 0 01.53.36c.2.14.38.26.33.25.19.1.12 0 .08-.1s0-.19.2-.06a11.93 11.93 0 011.17.67c.11.09.13.12.09.12.19.09.37.2.56.28.38.25-.24 0-.63-.19a3.43 3.43 0 00.85.44 2.54 2.54 0 00.38.11.73.73 0 00.25 0l.24.1.2.08a4.31 4.31 0 01.44.17c-.36-.05-.4.15-1 0s-.34-.19-.23-.19.23 0-.13-.15l-.11.08a6.13 6.13 0 00-.9-.4c-.17-.12.06 0 .19 0-.6-.3-1-.63-1.5-.81a6.13 6.13 0 001.28.83A8 8 0 0125 43a11.83 11.83 0 001.76.41s-.56-.3-.06-.24a2.76 2.76 0 001.34.49c-.11-.09.16-.08.43-.09h.16v-.07a.11.11 0 01-.07 0h-.13c-.08 0-.12-.08-.15-.08h.28s0-.07.07-.07h.2c.02 0 0 0 0 0s0 .06.14.09l-.28.13-.12.07H28.28h.31a.18.18 0 010-.1s.06 0 0-.07h.2a1.69 1.69 0 01.13.29 1.71 1.71 0 01.05.24l.07.3.13.63a2.22 2.22 0 01-.34-.94v-.15a.2.2 0 00-.15 0v.15a1.82 1.82 0 01.11.46 2.44 2.44 0 00.1.9c.05.18.11.38.16.57s.12.37.17.55v-.33a3.25 3.25 0 01.16.52l.14.56-.05-.07.13.3v.06a7.11 7.11 0 01.29.8l.19.51.09.26a2.56 2.56 0 01.11.24c.05 0 0-.17-.09-.37a5 5 0 01-.24-.57c0-.09-.16-.7 0-.43 0 .1.07.19.1.28l.12.27c.07.17.15.33.23.5l.25.51.13.29c.05.09.09.2.14.3l-.09-.28a7 7 0 01.51 1c.29.77-.39-.48-.23 0-.24-.25-.36-.81-.52-.84l.08.54a2.31 2.31 0 01.29.59c0 .1.07.2.11.29a1 1 0 00.11.23 3 3 0 01-.09-.32c.13 0 .19.32.25.46l.05-.27a3.69 3.69 0 00-.31-.54 1.14 1.14 0 01-.21-.48c.41.73.44.5.91 1.39 0 .08-.11-.16-.21-.23a2 2 0 00.28.48 3.15 3.15 0 01.19.27c.06.1.12.22.18.34-.1-.12-.22-.29-.31-.38s-.14-.09-.07.11l.26.2c.11.23 0 .17.07.26.17.33.07-.14.34.37 0 .09.11.27 0 .21.36.57.2.25.61.73-.16-.23-.2-.37-.16-.41s.16.06.34.28a10.39 10.39 0 00.7.9 3.07 3.07 0 01.48.73l.31.21c-.13 0 0 .06.08.2s.32.31.4.41-.23-.14-.46-.37-.45-.46-.53-.39c.34.42.14.29 0 .19.41.43.26.06.49.2 0 0 .68.73.36.57a1.88 1.88 0 00.41.33 1.5 1.5 0 01.35.26c-.08 0-.17 0-.19.08a4.17 4.17 0 01.45.42c0-.07.2 0-.15-.23a1.82 1.82 0 01.45.32c.19.16.36.3.38.26 0 .13.74.59 1.11.88 0-.14-.14-.23-.35-.33s-.42-.21-.42-.35c.28.14.7.44 1.18.72l.38.21.38.19.2.09.19.07.37.13c.38.19.38.21.28.21h-.2a11.35 11.35 0 01-1.52-.74l.26.17.29.16.32.16.33.15c.22.09.44.16.64.23a3.41 3.41 0 00.52.12 4.18 4.18 0 01.83.37 2.56 2.56 0 00.4.16 2.31 2.31 0 00.62.11.69.69 0 00-.14-.12h-.09l-.18-.05h.43l.45.06c.09 0 0 0-.11-.07s-.13 0 .07 0 .49.06.42.12H44a1.45 1.45 0 01.29.06 1.12 1.12 0 00.72-.06h-.45c-.21 0 0-.08.16-.13s.37-.09.56-.14h.6c.09 0-.07.07-.27.11a2.35 2.35 0 00-.52.11h.37c.13 0 .25 0 .37-.06h-.15l.38-.13.19-.07.19-.07a1.11 1.11 0 01-.27.06s-.06 0 0 0a.24.24 0 01.09-.08.56.56 0 01.16-.07l.4-.09.33-.08c.2 0 .32-.05.31 0s.18-.16.4-.26l.34-.17.34-.18c-.24.1-.27.08-.22 0l.12-.09.12-.1.37-.13.37-.15c-.7.45.2 0 .07.17a1 1 0 01-.42.32l-.3.15-.32.13.3-.08.25-.11a2.91 2.91 0 00.39-.25 3.3 3.3 0 01.35-.28 3.07 3.07 0 01.42-.27s0 .14-.28.31a1.92 1.92 0 00.37-.28 3.94 3.94 0 01.59-.44c-.06 0-.17.06-.21 0s0-.07.16-.25l.3-.15.3-.16c.59-.5.11-.28.51-.76l-.35.22c0-.13.6-.59.51-.7a4.35 4.35 0 00-.31.38 1.75 1.75 0 01-.36.36c-.1 0 0-.09.11-.22a2.21 2.21 0 00.33-.39l.54-.48.44-.36c.08 0 0 .29-.15.52s-.22.45-.09.49l.22-.25.22-.28.23-.28.21-.29.21-.28.19-.26a4.59 4.59 0 01.32-.41c.36-.66.18-.69 0-.65a2.38 2.38 0 01.35-.55l-.12.33c.4-.81.58-1.3 1-2.17.09-.25.08-.34 0-.35s-.12 0-.18.09l.19-.54-.06.07a.8.8 0 01.07-.42c.05-.18.14-.38.2-.56v.23a2.52 2.52 0 00.2-.55 2.43 2.43 0 00.11-.52s.05.07.05.18a1.16 1.16 0 01-.1.46l-.06.05c0 .22-.1.44-.15.67a4 4 0 01.15-.51c.06-.14.11-.26.16-.36s.2-.28.26-.25c.07-.4 0-.25-.07-.12s-.07.12-.08.11a1.05 1.05 0 010-.33c.07-.14.13-.28.19-.42s.09-.29.13-.43.07-.28.1-.41 0-.27.07-.4 0-.25.07-.36a3.38 3.38 0 01.08-.34 1.58 1.58 0 01.24-.56v-2.17c-.11 0 0-.6-.16-.52a3.31 3.31 0 00-.05.62v.58a3.37 3.37 0 010 .55 1.72 1.72 0 01-.11.51c0 .39.11.27.15.45 0 .34-.11.65-.18.68 0-.39 0-.45-.08-.54a.38.38 0 010-.19 2.34 2.34 0 010-.5 1.8 1.8 0 00-.13.55c-.05.25-.09.54-.13.71 0-.11-.1 0-.18.2a.25.25 0 010-.09 24.76 24.76 0 00.34-3.42v-.34-.08-1c0-.09 0-.19-.05-.28a1.49 1.49 0 000-.21 2.11 2.11 0 00.18.27 1.26 1.26 0 01.2.46V41.3a5.81 5.81 0 00-.15-1.07.5.5 0 010-.13h.12l-.06-.12v-.11-.21-.31c0-.09 0 0 0 0h.19c.13-.07 0-.08-.12-.09h-.22c-.05 0-.08 0 0-.07a.7.7 0 00.29 0l.22-.08a.81.81 0 01-.25 0h-.43l.06.31c-.08-.26-.22-.31-.3-.44 0 .17.09.34.12.51-.11 0-.17-.36-.25-.62h.18a.33.33 0 00.13 0 .13.13 0 000 .13.28.28 0 010 .13c.17 0 .42-.1.68-.15h.37l.41-.06c.14 0 .09 0 0 .07l-.34.01a.66.66 0 00.34-.06c.13-.06.26-.1.32-.06a.18.18 0 01-.08.06 11.06 11.06 0 001.12-.42s-.36.22-.61.29a2.39 2.39 0 001.27-.72c.27-.1.54-.23.74-.3s.32-.11.26 0c.2-.17 0-.11 0-.16a2.14 2.14 0 00.59-.49 2.15 2.15 0 01.36-.41l-.33.14c.32-.19.32-.25.32-.3s0-.1.25-.28c0 .14.1.21.25.22 0-.15.38-.37.57-.57-.09 0 0-.1.06-.2s.1-.18-.1-.05c.19-.26.35-.43.49-.6a2.43 2.43 0 00.2-.25 1.4 1.4 0 00.14-.3c-.1.11 0 0 0-.15s.1-.28 0-.2a3.53 3.53 0 01.42-.59c.11-.13.19-.16.2-.06a4.58 4.58 0 00.25-.56 4 4 0 00.21-.41c.07-.12.12-.23.19-.24a4.83 4.83 0 01.06-.79 1.08 1.08 0 00-.12-.73"/>
      <path class="cls-3" d="M57.76 38.94h.13l-.44.12a1.77 1.77 0 01.31-.08m-34.37 2.73a1 1 0 00-.17-.09l.17.09M63.91 34.01c.08-.16.14-.33.22-.49 0 .1-.13.21-.18.3s-.09.18 0 .19m-1.26-4.63h.13-.13m-33 18.13s0-.09-.08-.1.06.11.08.1m35-16.21V31.43a1.3 1.3 0 010-.13"/>
      <path class="cls-4" d="M39.29 48.71h.06l-.08-.05zM39 48.2h.12c-.08 0-.06.08 0 .11s.07 0 .08 0 .11.07 0 .16h.07-.07c-.01 0 .11.07.1.14s.05-.07 0-.1-.08-.07 0-.11a.09.09 0 010-.11v-.1c0-.02-.14-.08-.25 0m-1-.74"/>
      <path class="cls-4" d="M38.45 47.63c.07-.07.14 0 .23-.12v.08c.07 0 0 .11 0 .16a.57.57 0 00-.18-.12zm-.07 0a1 1 0 00-.3-.1H38.25c.04 0 .14 0 .2-.08zm-.4-.11c0-.07-.06-.05 0-.12s.05-.08.09 0a.46.46 0 00-.05.1h.05zm-.11 0h-.08s.06-.06.1 0zm1.45 1.28a.45.45 0 00-.22 0 1.23 1.23 0 00-.39-.9.14.14 0 01.11 0v.05h.13-.05a.14.14 0 01.1.05h.11c0 .06-.13 0-.06.07h-.1c.06 0 0 .05.06.07s0-.06.07-.06.06 0 .12.07 0 0-.07 0h-.07.07-.08c.08 0 0-.05.07-.08s0-.07-.1 0 .07 0 .06 0a2 2 0 01-.36-.36.46.46 0 00-.1.05.16.16 0 000-.12h-.11c-.04 0 0 0 0 0a.22.22 0 01-.09-.08.18.18 0 00-.11-.08c0 .06-.06 0-.08 0s-.06 0-.1.05-.07.11-.09.15a1.5 1.5 0 000-.2v.05-.1c-.08.11-.12.07-.16 0s-.08-.1-.12 0c0-.06-.08.07-.1.1s0-.08 0-.12-.09 0-.14 0a.16.16 0 01-.15 0v.14a.09.09 0 010-.1c-.05-.06-.1 0-.16 0s-.11.08-.19 0 0 .11 0 .19-.1-.14 0-.16a.27.27 0 00-.14.07.17.17 0 000 .16c-.06-.08 0 0-.08 0h-.05v.08h-.07l.05.06s-.08-.06-.1 0 0 .08-.08 0-.07 0-.08 0 0 .08 0 .08l.11.07c0 .06 0 0-.07 0h-.1c-.04 0 0 0 .06.06h-.05V48a.1.1 0 010 .14v.12c0 .05-.06 0-.09 0s0 .08 0 .13v.13a.19.19 0 00-.07.17.69.69 0 010 .2v.09c.07 0 .05.08.14.11h-.09s.06.07 0 .1a.4.4 0 000 .15s0 .08.08.08 0 .05-.07.07.06.07.13.08a.21.21 0 010 .06h.08l-.06.06a.12.12 0 01.1.08.23.23 0 000 .1v.07s.07.07.12.08a.23.23 0 01.17.07v.09c0 .02.07 0 0 .1s.08.08.16 0 .09.07.16 0v.05c.06-.09.15 0 .2-.12s0 0 0 .05.07 0 .1 0 0 .06 0 .08a.21.21 0 00.23 0h.14a.36.36 0 01.14 0v-.12.14c0 .02 0-.06.08-.06s0 .06 0 .09 0 0 .06 0h.09a.22.22 0 010-.08h.17c-.01 0 0 0 0 0h.07v-.09V50.21c.05 0 0-.1.1 0h.07v-.11h.13c0-.07.08-.11 0-.12s.08 0 .09 0 0-.09 0-.15h.11c-.09-.13.12-.06 0-.16h.1a.11.11 0 010-.15v-.18h.12s-.1-.09-.06-.11 0-.07.06-.08 0-.1-.11-.16c.11 0 0 .06.14 0s0-.15 0-.22a.08.08 0 01.07 0 1 1 0 00-.16-.09zm10.94-1.2h.05-.07zM50 47h.12c-.08 0-.06.08 0 .11s.07 0 .09 0 .1.07 0 .16H50.2c-.07 0 .11.07.11.14v-.1c0-.03-.07-.07 0-.11s0-.06 0-.1V47c0-.02-.21 0-.31 0m-1-.75"/>
      <path class="cls-4" d="M49.42 46.47c.07-.07.13 0 .23-.12s0 0 0 .08c.07 0 0 .11 0 .16zm-.08 0a1 1 0 00-.29-.1h.16c.03 0 .14 0 .21-.08s-.05.1-.08.14zm-.4-.11c0-.07-.06 0 0-.12s0-.08.09 0 0 .07-.05.1a.07.07 0 00.06 0zm-.1 0h-.09s.06-.06.1 0zm1.61 1.37a1 1 0 00-.16-.09.74.74 0 00-.23-.05 1.22 1.22 0 00-.39-.89H49.9a.14.14 0 01.16 0h.12c0 .06-.13 0-.06.07h-.1c.06 0 0 .06.06.08s0-.06.08-.06c-.1.09.06 0 .12.07s0 0-.08 0h-.07.06-.08c.08 0 0 0 .08-.08-.06 0 0-.07-.11-.05s.08 0 .07 0a2.1 2.1 0 01-.37-.36h-.1a.13.13 0 000-.12h-.11a.29.29 0 01-.08-.08.21.21 0 00-.11-.08c0 .06-.07 0-.09 0h-.09c0 .06-.07.12-.09.16a1.5 1.5 0 000-.2V46c-.08.11-.12.07-.16 0s-.07-.1-.11 0c0-.06-.08.07-.11.1a.25.25 0 010-.12h-.15a.16.16 0 01-.15 0v.14a.07.07 0 010-.1c-.05-.06-.11 0-.16 0s-.12.08-.19.05 0 .11 0 .19-.1-.14 0-.17a.46.46 0 00-.13.08.13.13 0 000 .16c-.07-.08 0 0-.09 0s0 0-.05.05v.08a.17.17 0 01-.07 0l.06.06s-.09-.06-.1 0 0 .08-.09 0-.07 0-.07 0v.08l.1.07c0 .06 0 0-.07 0h-.09c-.03 0 0 0 .06.06h-.05v-.06a.11.11 0 010 .14s-.06.07 0 .12-.06 0-.08 0 0 .08 0 .13v.13c0 .03-.06.11-.07.17a.46.46 0 010 .2v.09c.08 0 .05.08.14.11h-.08v.1a.32.32 0 000 .14.13.13 0 00.09.09l-.08.07a.15.15 0 00.13.08v.06h.08s-.06 0-.07.06a.11.11 0 01.1.08v.17s.07.07.13.08.12 0 .16.07 0 .07 0 .09.06 0 0 .1.08.07.17 0 .1.07.17.05c.06-.09.15 0 .2-.12 0 .11.07 0 .1 0s0 .06 0 .08.15.06.24.05H49c.05 0 0-.11 0-.11v.13c0 .01 0-.05.07-.05s0 .06 0 .08 0 0 .06 0h.08a.21.21 0 010-.08c0-.05.06 0 .1 0h.07a.06.06 0 01.08 0v-.09V48.93c.05 0 0-.1.09 0h.07v-.11s.09 0 .14-.05c0-.06.08-.11 0-.11h.1c.02 0 .05-.09 0-.15h.12c-.1-.13.11-.06 0-.16h.1a.11.11 0 010-.15v-.18h.12s-.09-.08-.06-.1 0-.07.07-.08 0-.1-.12-.16c.12 0 0 .06.14 0s0-.15 0-.22 0 0 .07 0z"/>
      <path class="cls-2" d="M53.05 32.37a4.58 4.58 0 00-4.56-4.61s.12-.07.12-.09-.07-.06-.28-.09-.51.14-.6.07v.09c-.27.07-.29 0-.32 0a.12.12 0 00-.1 0h-.32.14a1.3 1.3 0 01-.34.15c-.05 0 0-.05.08-.08a1.94 1.94 0 00-.24.15l-.23.17c-.05 0 0-.06 0-.15-.23.12-.19.15-.17.17s0 0 0 .05l-.07.05-.16.05c-.12 0 0-.06.07-.13a1 1 0 00-.35.19l-.14.13-.14.16c-.05 0 .11-.17-.11 0 .06 0 .13 0 0 .16 0-.12-.13.07-.28.18.05 0 .06 0 0 .09s-.13.11-.21.21l.21-.12a.84.84 0 01-.13.17.53.53 0 01-.13.13 2.84 2.84 0 00-.26.24.21.21 0 01.05-.11 1.94 1.94 0 00-.26.31l-.06.09v.05a.87.87 0 000 .1h-.22c-.11-.05-.06-.09-.06-.14s0-.1-.3-.13c.11.07 0 .08-.14.08h-.53l.33-.1h-.4c0 .06-.09 0-.22 0a.85.85 0 00-.39 0c.27-.17.29-.13.34-.3a2.91 2.91 0 01-.86.21l.31-.16a2 2 0 00-.81.23 3 3 0 00-.65.42c.07-.14-.11-.09 0-.24a4 4 0 00-.46.24l.08-.16a.43.43 0 01-.11.12l-.11.09c-.07.05-.1.09 0 .14s0-.06.11-.1 0 .15-.24.29-.07 0 0 0 .07-.08 0-.08a.38.38 0 01-.14.11.35.35 0 00-.15.1h.16a.4.4 0 01-.14.15h-.05a.23.23 0 00-.07.07c0-.07.06-.1 0-.11s0 0-.06 0a.43.43 0 00-.07.1s-.05.06-.07 0a.65.65 0 000-.18.41.41 0 010 .12v-.11-.05.05h-.07a.33.33 0 000-.06v-.09l-.27.02h.08a.22.22 0 01.06.07v.05a.68.68 0 00-.07-.2l-.07-.22-.21-.26a2.19 2.19 0 00-.23-.21 1.86 1.86 0 00-.2-.14c0-.07 0 0 .12 0a2.2 2.2 0 00-.4-.34l-.2-.13-.11-.08-.13-.1c.05.05.11.09.16.15l-.24-.11-.14-.07-.16-.09h-.13l-.13-.12a1.42 1.42 0 01-.22-.13h.09l-.23-.07-.24-.09-.21-.07a.47.47 0 00-.15 0c.11.06 0 0 .16.13h-.72v-.11h-.38c.09 0-.52 0-.51.1-.22 0 .07-.1.15-.14h-.22a.87.87 0 00-.21.06h-.23l-.26.1-.13.05-.13.07a.85.85 0 01-.19.1l-.23.09a1 1 0 00-.23.12.41.41 0 00-.11.07l-.09.1a1 1 0 01-.31.24l-.32.2c-.21.2 0 .15 0 .19l-.19.17a.51.51 0 00-.13.12l-.15.17a1 1 0 00-.1.18l-.17.33c-.08.06-.11.07-.12 0a.15.15 0 010-.07v-.08c0-.03.06-.22-.14 0a.77.77 0 01-.09.29l-.05.11s0 .09-.05.13-.07.18-.11.28a7 7 0 00-.52 1.29h.09a4.87 4.87 0 000 .54l-.1-.32a2.35 2.35 0 010 .24 2.65 2.65 0 00.06.3c.05.28 0 .36 0 .42s-.05.12 0 .33a.72.72 0 01.05.14 1.18 1.18 0 01.07.2c0 .08 0 .17.07.26s.07.18.12.28l-.15-.2a2.14 2.14 0 01-.06-.27c0 .09 0 .2.07.32l.19.36c.15.24.16.07.25.19s.15.2.16.28-.08.09-.16 0a1.44 1.44 0 01.22.19l.13.14.08.09.11.12c0 .05-.06 0-.11 0a.54.54 0 00.22.12l.06.16.11.13.11.09a1 1 0 00.21.1l.24.09a2 2 0 01.31.19c-.08 0 0 0 .18.13l.25.13.18.12c-.2-.08 0 .19-.11.18a.48.48 0 00.15.07h.09a.15.15 0 00.1 0 .24.24 0 01.09 0 .54.54 0 01.2 0h-.2a.62.62 0 00.2 0h.32c-.12 0 .17.08-.08.06a1.66 1.66 0 00.29.06h.56l.05-.12a.37.37 0 01.25.07h-.15a.26.26 0 00.24 0h.12a.41.41 0 01.15 0c-.06 0-.12-.08.07-.1-.05.08.3 0 .32.06s0 0 .15-.07.25-.09.26-.13c.22 0 0 .08-.06.12a.61.61 0 01.18-.1l.27-.09a1.4 1.4 0 00.42-.19 4.71 4.71 0 00.83-.7 1.09 1.09 0 01-.08.15.65.65 0 00.19-.16v-.1a.19.19 0 010-.11.64.64 0 01.12-.15c0 .06 0 0 .07 0s.08.15.1.21 0 .1 0 .09l.05.05.12.12.12.09a1.13 1.13 0 00.1.13.24.24 0 01-.11-.06c-.08-.06-.15-.11-.07 0l.11.11.12.11v.08s.23.19.24.16.05.21 0 .23a2.84 2.84 0 01.26.24 1 1 0 00.26.19 1.1 1.1 0 01.37.17l.18.08h.14l.08.12a.37.37 0 00.37 0 2.85 2.85 0 00.31.12l.08.07a1.87 1.87 0 01.3.13 2.49 2.49 0 00.39.06.81.81 0 00.37 0 .56.56 0 00-.16.08.83.83 0 01-.27 0 .62.62 0 00.38.07h.54v.06a1.06 1.06 0 00.71-.3h.06s0 .08-.12.16h.47l.17-.06.17-.07.17-.08c.11 0 .21-.1.3-.14s.08 0 0 .13c.09-.06.2-.12.29-.19l.15-.09.14-.1a1.64 1.64 0 00.24-.21.87.87 0 00.15-.2c-.05.11.15-.09.28-.19a.08.08 0 010-.08l.14-.2.17-.26.18-.26a1.53 1.53 0 01.22 0v.12l.07-.13a1.46 1.46 0 01.07-.19h.22l.28.05h.09l.46.11h.1c.13 0-.16.08.12.12.11 0 .12-.08.25-.09h.2v.06a1.27 1.27 0 00.18-.06h.95l.19-.06a4.25 4.25 0 00.8-.3l.11-.05.09-.06a4.94 4.94 0 00.84-.6.37.37 0 01-.05.17 1.4 1.4 0 00.26-.34l.06-.09.05-.06a.27.27 0 01.12-.09v-.09a4.49 4.49 0 00.76-1.37.37.37 0 00.09-.16c0-.05 0 0 0 0s0-.15.07-.22 0 .06 0 .06a.88.88 0 00.06-.26A2.26 2.26 0 0053 33v-.07a3.55 3.55 0 00.06-.56"/>
      <path class="cls-2" d="M44.6 29.55l.13-.16a.43.43 0 00-.13.16m-14.29 4.7c0 .06 0 .06 0 0M35 28.5zm4.25 2.33a.73.73 0 00-.09-.13s0-.05-.06 0l.08.13v.06M45.94 38a.15.15 0 00-.07 0h.07m-6.79.14a.28.28 0 00-.21-.09c.13.09.19.11.21.09m-8.15-2a1.49 1.49 0 01.17.18l.18.2c-.05 0-.11-.14-.17-.21a.47.47 0 00-.18-.17m16 .73h.08zm-.91 1a1 1 0 01.13-.23c-.06 0-.2.27-.13.23m-5.21 1.31H41h-.07z"/>
      <path class="cls-5" d="M45.53999999999999 51.779999999999994l.07.09zM44.59 53.94zM46 51.85a.09.09 0 01.08 0s.06 0 0-.07l-.08-.07v.06c0 .06-.07-.11-.12-.12s0 0 .05.07v.05s-.06 0-.1.06.09 0 .09.07 0 0-.05 0c0-.07-.1-.08-.09-.13a.06.06 0 010-.09c0-.07.05 0 0 0a.54.54 0 01.2.1v-.06c0-.06 0 0 .11.07a.06.06 0 00-.05-.06v-.07c0-.01 0 0 0 0h-.16c-.07 0 0 0 0 0v-.08c0-.03 0 0 .06 0s0-.07 0-.06-.07-.07-.09 0 0 0 .05 0h-.07c-.02 0 0 .06 0 .07V51.61c0-.03 0 0 0 0 0 .06.06 0 .06.1v-.06c0-.06 0 .06.06.08s-.1 0-.07 0-.05 0 0-.06 0 0-.06 0 .05 0 0 0v.22a.07.07 0 010-.06.09.09 0 000 .12h.08c.05.06-.06 0 0 0h-.09v.07c0 .07-.08-.06-.07-.09s0-.06 0 0v-.05H45.59a.31.31 0 01.09.11v.06s0-.06-.06-.08 0 .05-.09 0 0 0-.06 0-.07 0-.05.08.06.08.06.12h-.06.06c.06 0 0 .06 0 .07s0-.06-.08-.08a.08.08 0 01-.09 0v.09c0 .09 0 0 0 0v.05h-.07v-.05.06c0 .05-.11 0 0 .09s0 0 .05 0h-.05l.06.06c.06.06-.06-.06-.1-.06-.06 0 0 .12 0 .17a.1.1 0 010-.09V52.6c0 .07 0 0 0 0v.14c.1 0 0-.1.09-.07s0 .07 0 .1 0-.06-.07-.08 0 0 .08.07 0 .05 0 .06c.07 0 0-.07 0-.07s-.09-.07-.12-.11c0 .06-.05 0 0 .1s0 .08 0 .1v-.08.24a.1.1 0 000 .06V52.97s0-.05 0 0v-.06s-.08 0-.05-.08 0 0-.06 0-.09 0-.11-.1a.14.14 0 00-.11 0h-.05c-.05 0 0-.05 0-.05s-.07 0 0-.09 0 0-.08 0h-.28c-.03 0 0-.07 0 0v-.06s0-.12-.09-.14-.08-.08-.15 0v-.06c-.06 0-.1-.08-.16 0-.1.08-.16 0-.25.07s0 0 0-.06-.09 0-.07 0-.07.07-.09.06a.58.58 0 01-.35-.17c0-.07-.06 0 0 0s0-.09-.07-.08 0-.07 0-.11 0 0-.05 0h-.06a.59.59 0 00-.07.2v.11c0 .01 0 .07.07 0s0 0 0 .08.08 0 .07.05 0 .05 0 .06a.08.08 0 010-.06h-.05v.06c0 .06 0 0 .06 0s.06 0 .08.06 0 .06 0 .08 0 0 .06 0 .06-.11.1-.09-.07.1-.07.14 0 .12.08 0 0 0 0 .06 0 0 .06 0 0 .05 0 0v.08c0 .08 0-.06.07-.09s0 0 0 .1v-.06c0-.06.07 0 .12 0s0 0 0 .06v.07c0 .06 0 .12.12.11V53s.07-.1.09-.13 0 0 0 .05v.07s0 .06-.06.07 0 .05 0 .06c0 .06 0 .06.06.09.06 0 0 .06.05.06s0 0 .08-.05.08-.06.08 0v.06l.14-.07a.26.26 0 01.1-.13v.08c0 .03 0 .08-.05.08s0-.06 0-.06a.49.49 0 000 .12s0 .07-.06.1.08 0 .06.06 0-.08.06-.1 0 0 .06 0H44h.07c.07 0 0 0 0 0s-.06.08-.09.08 0 0 0-.07 0 0-.07 0 .08 0 .06.08h.1a.11.11 0 000 .13c0-.06.08 0 .08-.06s0 0 .05 0 0 0 0 .09a.22.22 0 01-.13 0l.05.06c.05.06 0 0 0-.07a1.34 1.34 0 01.2 0c0 .09-.12 0-.13.12s.05 0 .08 0 .05.06.09.07h.09s.07 0 0 0H44.49c-.12 0-.08 0 0 0a.4.4 0 00-.15 0h.08-.1s.08 0 0 0c.07 0 .09 0 0 0 .08 0-.06 0 0 0h.19-.09.08-.15.06-.11.19c.1 0 0 0 0 0a.47.47 0 00.16 0h.12-.33.15a.74.74 0 01-.18.06h.16-.09c-.12 0 0 0 0 0h.18-.2a.3.3 0 01.16 0h-.09.09.12-.31.17-.11.05c-.12 0 .07 0 0 0h.12-.12.12-.12.28-.09.15-.19.31H44.77c-.14 0 0 0 0 0h-.12.14-.07.13s.23 0 .12.06-.12 0-.11 0H45a.59.59 0 01.14 0c-.09 0 .09 0 0 0h-.12c-.11 0 .1 0 0 .07a.9.9 0 00.16 0 1.15 1.15 0 01-.26 0h.34H45h-.16.16a.65.65 0 01-.14 0h.36H45c.05 0 0 0 0 0a.43.43 0 01.11 0h.09-.07.06a.17.17 0 01.08 0c-.08 0-.07-.08 0-.12h-.07c.08 0 .18 0 0 0s.08 0 .07-.06.09 0-.12 0H45 45.3c-.29 0 .13-.05-.08-.05h-.12.13c.05 0-.11 0 0-.06.14 0-.1-.05 0-.08h-.06.09c-.11 0 0 0 0 0h-.06.09-.09s-.05 0 0 0c.13 0 0 0 0 0h-.06.06a.27.27 0 00-.09 0h.11-.17.11c.09 0-.14 0 0-.06s0 0 .07-.09-.05 0 0 0 0 0 0-.06h.07c-.11 0 0 0 0-.05h-.05.07c.07 0-.14 0-.12-.06s0 0 .13 0h-.08c.07 0 0 0 0 0h.05-.21.08c.11 0-.06 0 0 0h.08c.13 0-.1-.07 0-.11s-.13 0-.12 0h.15c-.08 0-.06 0 0 0h.09c.05 0-.1 0 0 0h-.08c-.1 0 .11 0 0 0h-.08s-.09 0 0 0h.06-.09c.02 0 0 0 0 0H45.19a.2.2 0 00-.11 0h.12-.12.1-.07-.05.1-.1a.42.42 0 000-.17l.07.06c.07.06 0 0-.06.09a.18.18 0 00.07-.16s.12 0 .13-.05 0 0-.06 0 .09 0 0 0a.09.09 0 010-.07v.05a.06.06 0 01.07 0v-.07h.06c.06 0 0 0 0 .05v-.07-.05c0-.05-.06 0-.07 0h.06l-.05-.08v-.06V52.64h.08c.06 0 .06.09.15.14s0-.09 0-.09 0-.07-.09-.09 0-.08 0-.11 0 0-.08-.06 0 0 0-.06 0 0 .09 0h-.06s0-.09.17 0a.19.19 0 010-.12v-.06.08c0-.02 0 0 .06.06s-.09-.06-.07-.1h-.06a.73.73 0 000-.09v-.07a.12.12 0 01.08 0s0-.08.05 0 0 0-.06 0 0 0 0-.07.06 0 0 0l.07.07.11.11s.07 0 .06-.08h.09c0-.06.05 0 .06 0h-.08c-.08 0 0 0 0 0h-.06c-.06 0 0 0 0-.05v-.06l.08.07a.06.06 0 010-.06v-.08c0-.08.07 0 .09 0S46 52 46 52c.05 0-.06 0 0 0h-.06c-.06 0 0 0 0-.06s0 0-.05 0h.09c.03 0 0 0 0 0zM45.15 55.8zm.05-.07c-.07 0 0 0 0 0a.91.91 0 00-.25 0h.12-.06.08c-.05 0 .09 0 0 .05s.11 0 .1 0c.19 0-.14 0 0-.05m-.72-1.52zm.06-.21zm-.15 0s-.06 0 0 0m.12.53h-.07.07m.27.67zM44.8 55z"/>
      <path d="M168 42a42 42 0 11-42-42 42 42 0 0142 42" fill="#fcbbbb" fill-rule="evenodd"/>
      <path class="cls-2" d="M152.39 48.68a12.3 12.3 0 00-1.77-17.89 5.12 5.12 0 00.63-2.47 5.07 5.07 0 00-5-5.09 4.73 4.73 0 00-.93.09A11 11 0 00129.8 18a10.23 10.23 0 00-15.68 3 11.68 11.68 0 00-11.61 16.8 7.31 7.31 0 002.23 13.81A7.87 7.87 0 00111 64.12h.15a12.95 12.95 0 0017.91 5 13 13 0 0016.06-6.65 8.8 8.8 0 007.25-13.78"/>
      <path class="cls-2" d="M152.09 48.89v.21a8 8 0 01.57.71 8.87 8.87 0 00-.58-.92m.29 8.87a4.74 4.74 0 01-.31.66c-.13.24-.28.48-.42.7-.28.43-.53.77-.47.86a8.42 8.42 0 00.87-1.3.71.71 0 00.25-.19 3.28 3.28 0 00.31-.42 5.17 5.17 0 00.55-1.21 8.71 8.71 0 01-.42.94c.1-.25-.07-.15 0-.39l.13-.25c0-.08.07-.16.1-.23s.12-.29.16-.42.08-.26.11-.38l.08-.35.13-.72c0-.12.05-.26.08-.41s.06-.31.1-.49v.09a10.54 10.54 0 00-.11-1.13c0-.36.09-.23.13-.11 0-.13-.05-.25-.08-.37v-.17l-.05-.18c-.06-.23-.12-.45-.2-.68a14.06 14.06 0 00-.61-1.57c.09.54.4 1.19.6 1.9a3.56 3.56 0 01.15 2v-.08a5.67 5.67 0 01-.28 2 13.51 13.51 0 01-.79 1.9m1.3-4.75v0m-44.37 10.23h-.07.07m14.51 7.53h-.08c-.11.08 0 0 .08 0m20-48.84l.12.3a.43.43 0 00-.12-.3M151.25 30.09h.07c0-.05 0 0-.07 0m3.75 5.78l.09.31c0 .1.06.2.1.31a2.15 2.15 0 00-.06-.29l-.13-.33m-.34 3a1.08 1.08 0 010 .21v-.21m-9.26-16.3v-.35.13a2 2 0 000 .22m10.29 15.09a2.08 2.08 0 000 .41 1.3 1.3 0 000-.41"/>
      <path class="cls-2" d="M151.58 59a3.63 3.63 0 00.4-.58l-.21.3-.19.28M108.1 21.34a.33.33 0 00.1-.11c-.15.08-.15.11-.1.11m21.87-4zM123.62 15h.1-.1m11.78.88l.27-.05-.27.05z"/>
      <path class="cls-2" d="M140.62 17.48c-.19-.17.06-.1.32 0a8.14 8.14 0 00-.78-.43l-.68-.26-1.56-.53.62.25c-.23 0-.5-.08-.8-.14l-.46-.07-.47-.08-.47-.06h-.44a5.63 5.63 0 01-.75-.12h.25c-.44 0-1 0-1.51.06a3.25 3.25 0 00-1.12.17c.19 0 .19 0 .22.05s.07 0 .35 0a10.83 10.83 0 00-2.09.67l-.23-.15-.53.25-.26.14-.13.07h-.12l-.23-.16c-.15-.09-.27-.13-.3-.09-.25-.22-.18-.22 0-.15l.3.13a1.23 1.23 0 00.26.11 3.42 3.42 0 01-.34-.22l-.24-.16a1.38 1.38 0 00-.24-.14 3.05 3.05 0 00-.35-.15c-.16-.16-.32-.33-.49-.48a11 11 0 00-1.66-.53h.08c-.4 0-.87-.2-1.39-.3a3.67 3.67 0 00-1.58 0h.06a2.58 2.58 0 01-.53.06h-1.84c-.43.09-.5.17-.48.21s.15.08.14.12l-.42.1a3.58 3.58 0 00-.35.09l-.53.16c-.29.11-.47.19-.64.27a10.25 10.25 0 00-1.42 1c-.58.24-.33 0-.1-.3 0-.07.11-.13.15-.18s.07-.09.06-.11 0 0-.12 0a3.35 3.35 0 00-.39.18 1.32 1.32 0 01-.22.25c-.11.12-.26.26-.43.42a1.59 1.59 0 00-.13.13l-.14.13-.29.3-.3.32-.15.17c-.06.06-.1.12-.15.18L115 19l-.34.4-.18.21-.17.23a4 4 0 00-.34.47h-.24l-.52-.06-.46-.06.12.16c-.28 0-.54 0-.81.08l-.41.06h-.39c.14-.07.29-.12.44-.18l.45-.16-.69.18c-.3.09-.63.18-.88.28l-.28.08-.23.07a2 2 0 01-.35.07 1.55 1.55 0 01-.4 0 .66.66 0 00-.33 0 2 2 0 00-.61.3.28.28 0 01-.13 0 3.58 3.58 0 01-.38.25l-.26.14-.3.17a11.53 11.53 0 00-1.43 1l.24-.43c.24-.14.48-.29.73-.41a1.81 1.81 0 00-.84.47c-.15.13-.31.27-.46.42l-.47.41c-.3.31-.32.43-.33.51s0 .13-.11.31-.22.25-.34.38a2.16 2.16 0 01-.33.34c-.13.13-.2.2-.25.21s-.06 0 0-.08a1.93 1.93 0 01.16-.46 5.18 5.18 0 01-.4.78l-.3.49c-.12.2-.26.44-.42.76-.12 0-.11-.09 0-.27-.06.14-.12.27-.16.39a1 1 0 00-.05.32c-.11.12-.22.25-.32.38a3.63 3.63 0 00-.4.89 4.71 4.71 0 00-.1.7v.76c0 .15-.09.64-.18 1.11v2.23c0-.33-.1-.26-.18-.14s-.18.27-.25.07v.48a1.68 1.68 0 000 .3.62.62 0 00.12.28.63.63 0 01.14.21 1 1 0 01.08.22 3.11 3.11 0 01.09.36c-.11-.15-.23-.3-.33-.46a2.3 2.3 0 00.25.74 3 3 0 01.28.73c-.17-.31.08.56-.19-.14.1.4.18.67.25.87s.12.34.16.47l.08.2v.18a1 1 0 01.22.16l-.13.07c-.12 0-.21 0-.28.07l.27-.18h-.08a.56.56 0 00-.17.09 1.63 1.63 0 00-.29.23 2.35 2.35 0 01-.67.51h.2c.01 0 0 .05 0 .1a1.25 1.25 0 01-.21.24c0-.06 0 0-.1 0l-.13.09-.68.35-.28.26c-.07.08-.13.14-.15.14s.07 0 0 .06-.16.23-.26.4l-.15.25c0 .08-.08.17-.12.25s-.1.26-.08.3c-.2.28-.2.22-.16.08v-.24-.16a1.35 1.35 0 01-.09.26c0 .1-.08.22-.13.34l-.09.19-.08.2-.16.42c-.05.15-.1.29-.14.43s-.07.28-.1.4v.35a1.28 1.28 0 000 .26v.47a1.09 1.09 0 000 .18 7.61 7.61 0 000 .79c0 .15 0 .29.06.45s.06.3.1.46a6.65 6.65 0 00.33 1l-.26-.44a2.6 2.6 0 00.23.73 1 1 0 00.23.31 1.79 1.79 0 01.22.24 1.27 1.27 0 01.14.21l.18.31c-.14-.06.09.37.35.74s.54.68.29.55l.41.35.41.3a3.61 3.61 0 00.41.24 1.54 1.54 0 00.37.14c.12.12.1.15 0 .13a.41.41 0 01-.16 0l-.19-.08a3 3 0 00-.3-.14l.15.2a7.63 7.63 0 00.89.48l.1.18a1.78 1.78 0 01.45.14l.28.1h.12c.09.19.45.4.37.48h.64a.4.4 0 00.15 0 .42.42 0 00-.11.25h-.08a.41.41 0 010 .12v.08l-.06.15c0 .11-.09.21-.13.32a3 3 0 00-.12.32 1.66 1.66 0 00-.18 1l-.12.18-.11.17a1.34 1.34 0 000 .83l.09.18a1.22 1.22 0 010 .25v1.23c0-.15-.06-.26-.08-.32s0-.1 0-.09v.3a5.86 5.86 0 000 .59 2.48 2.48 0 010 .43 7 7 0 00.35 1.17 3.32 3.32 0 00.58 1 2.31 2.31 0 00-.36-.34 2 2 0 01-.38-.75.71.71 0 000 .25 1.72 1.72 0 00.08.28 2.38 2.38 0 00.13.29 3.14 3.14 0 00.18.31c.27.43.63.88 1 1.36l-.09.06a5.27 5.27 0 00.41.41 1.29 1.29 0 00.18.16l.17.13a2 2 0 00.29.19 1.15 1.15 0 00.24.13 2.07 2.07 0 00.41.15l.46.14c0 .11 0 .15-.06.15a1.8 1.8 0 01-.49-.14l.17.14.2.14a4.5 4.5 0 00.43.27 7.09 7.09 0 001 .47h.27l.27.09c.19 0 .37.1.55.13s.36.07.53.1l.5.07c.2.07.24.11.16.14h-.18.32a.86.86 0 00.16 0h.24a.78.78 0 01.1.15l.17.28q.11.17.21.3l.2.28.21.26a2.23 2.23 0 00.31.53 3.82 3.82 0 00.39.35h-.07v.09l.1.12.26.31c.1.11.18.23.27.32s.15 0 .18 0l.28.21.32.26.37.28.19.14.21.14.4.29.1.07.1.07.2.13c.12.08.25.16.36.25s.23.14.32.21l-.33-.1c.23.14.46.26.67.37a2.12 2.12 0 00.31.14l.31.13.3.11.29.08.58.17.59.13h.31l.32.07c.22 0 .45.11.7.15l.38.08H120.82c.42.1-.46.16.41.24a1.64 1.64 0 00.44-.13 1.78 1.78 0 01.33-.05h.61l-.07.17.37-.09.36-.1a1.89 1.89 0 00-.39-.06h-.44c-.24 0-.33-.06.09-.13a2.24 2.24 0 00.55 0 2 2 0 00.37-.06 2.7 2.7 0 01.4-.07h.28a2.31 2.31 0 01.38 0 4.37 4.37 0 00-.78.31 8.37 8.37 0 002.9-.62c.4-.16.8-.33 1.24-.54l.34-.16.35-.17.39-.2h.22l.21.09a15.87 15.87 0 002 .33 8.15 8.15 0 001.7 0 .62.62 0 01-.14.23 1 1 0 01-.52.17 3.82 3.82 0 001.29-.11 2.23 2.23 0 01.5-.07h.54a.94.94 0 01.26-.1l.4-.11.47-.12.25-.07.25-.08a2.8 2.8 0 001.35-.68s.29-.08.42-.12.14 0-.34.28a7 7 0 01.84-.35 4.46 4.46 0 01.63-.2l.27-.07.24-.08a1.93 1.93 0 00.44-.2c.16-.1 0-.08 0-.1s-.06 0 0-.07a.24.24 0 01.09-.08l.2-.15c.09 0 .13 0 .22-.09l.23-.24c.32-.14-.22.33-.2.42l.36-.24a2.78 2.78 0 00.32-.26l.29-.27.13-.13.13-.15.27-.3c.09-.11.19-.21.27-.32l.29-.36.16-.18a1.56 1.56 0 00.16-.2l-.11.22c.31-.36.62-.73.9-1.12v.07l.15-.25a2 2 0 00.14-.25l.26-.53.05.07a1.63 1.63 0 00.12-.29 2 2 0 01.15-.36.8.8 0 000 .15v-.1a1.31 1.31 0 010-.15c0-.11.08-.26.15-.41H145.53l.48-.07.84-.16h.13a7.9 7.9 0 001.38-.65c.38-.11.17.05 0 .15s-.11.08-.05.06l.19-.09c.09-.05.23-.11.4-.21l-.14.19-.15.18c.51-.28.8-.45 1.05-.6a2.21 2.21 0 00.36-.23 3.09 3.09 0 00.4-.32c-.17.07-.37.19-.49.25s-.16.06 0-.1a2 2 0 00.93-.7 3.58 3.58 0 00.31-.45c.11-.16.2-.33.32-.51-.14.17-.25.31-.36.43l-.13.2a2 2 0 00-.12.21c-.16.16-.22.16-.25.15s-.05 0-.16.06a7.53 7.53 0 01-.43.49h-.23a8.31 8.31 0 01-.9.66c0-.09-.23 0-.42.1s-.35.13-.18 0a5 5 0 01-.91.34l-.42.13a3.25 3.25 0 00-.46.17c-.27 0-.07-.06.12-.12s.38-.11.11-.06a7.6 7.6 0 01-.83.16h-1.19l-.38.74-.1.22-.12.21-.25.42-.13.21-.13.21c-.19.26-.37.54-.59.79l-.31.38-.34.36-.17.18c-.06.06-.11.12-.17.17l-.37.34-.18.16a1.56 1.56 0 01-.2.16l-.39.3a3.69 3.69 0 01-.4.29l-.41.28-.43.25-.22.12a1.55 1.55 0 01-.22.12 2.5 2.5 0 00.24-.22 1.54 1.54 0 01-.19.17l-.21.16-.37.29h-.27l-.38.11-.22.07H137.59l-.49.14-.25.07-.25.06-.47.14h-.11L136 69l-.2.06a3.37 3.37 0 00-.32.14c-.1 0 .05-.06.12-.09h-.21a1.46 1.46 0 01-.22 0h-1.67a17 17 0 01-2.42-.28 3.05 3.05 0 01-1.43-.31l-.31-.11-.19-.07H129l-.3.17-.14.09-.13.07a1.55 1.55 0 00-.28.2 1.26 1.26 0 00-.2.2l.26-.2c.25-.08.12.06-.11.24s-.55.39-.64.47c-.25 0-.27-.06-.3-.09s-.08-.06-.35-.07c.2 0 .39-.1.59-.15l-.19-.12a4.27 4.27 0 01-1.27.62 6.68 6.68 0 01-1.27.23 11.77 11.77 0 00-2.13.19c.07 0 0-.05.13-.07h-1.53a3.39 3.39 0 01-.45 0c0-.06.07-.08.21-.1l.48-.05a18.06 18.06 0 01-2.56-.48 7.89 7.89 0 01-2.48-1.13h-.22c-.02 0 0 0 0 .07s0 .12-.23 0c-.4-.3-.62-.57-.09-.3-.24-.21-.54-.48-.92-.76l-.56-.48-.6-.54-.58-.61c-.19-.21-.37-.43-.55-.66s-.33-.46-.48-.69l-.57-1h-1.62a2.32 2.32 0 01-.38 0h-.86c.2 0 .13-.09.13-.16s.06-.1.52 0l.14-.08a6.32 6.32 0 01-1.18-.4 8.68 8.68 0 01-1.13-.6c-.35-.22-.66-.45-.94-.66l-.2-.15-.18-.14-.33-.23c.06-.09 0-.15-.06-.26a2 2 0 01-.35-.56c-.15-.19 0 0 0 .13a1.86 1.86 0 01-.28-.29 2.7 2.7 0 01-.15-.29l-.1-.28c0-.09-.07-.19-.12-.28l.1.12-.15-.26-.13-.26a5.05 5.05 0 01-.24-.53.88.88 0 010-.16v-.17-.21h-.14a2.67 2.67 0 010-.32v-.17a.47.47 0 000-.19 2.41 2.41 0 000-.41l-.09.17v-.41-.43a1.94 1.94 0 010-.36.27.27 0 01.09-.18v.25a10.83 10.83 0 00.3-1.36 4.11 4.11 0 01.54-1.42l-.32.11.06-.15.06-.12.15-.28a1.08 1.08 0 01.18-.22c.05 0 0 .13 0 .17.09-.14.16-.26.24-.37l.23-.32.45-.58-.65-.13-.45-.08h-.25l-.28-.06h-.26a.28.28 0 00-.12 0h-.07l-.09.06a6.56 6.56 0 01-.76-.35h.54a3.13 3.13 0 01-1-.3 5.32 5.32 0 01-.94-.63c-.29-.24-.54-.5-.77-.73a4.87 4.87 0 00-.61-.56c-.12-.22 0-.15.08-.06s.22.2.15.07c-.2-.32-.4-.66-.59-1a7.5 7.5 0 01-.5-1.12A4.39 4.39 0 0199 44a9.68 9.68 0 01.34-1.56 7.29 7.29 0 01.68-1.51 6.68 6.68 0 011-1.33 3 3 0 01.32-.29l.16-.13.08-.07.09-.06.18-.12a1.08 1.08 0 01.18-.11l.18-.11.09-.05.1-.06.2-.1h-.12l.72-.38h.09l-.09-.18-.16-.37c-.06-.13-.12-.25-.17-.38l-.07-.18v-.09c0-.13-.09-.27-.14-.4a1.81 1.81 0 01-.21-.4 1.69 1.69 0 01-.1-.27c0-.1-.07-.2-.1-.3-.14-.41-.24-.86-.38-1.21.06 0 .12-.11.17 0 0-.18-.06-.36-.08-.54s0-.18 0-.26a2.46 2.46 0 010-.26 3.94 3.94 0 010-.47 1.92 1.92 0 010-.38v.24c0-.4 0-.83.1-1.26a10.51 10.51 0 01.23-1.29c.18-.83.43-1.54.54-1.94s.32-.44.45-.53l.15-.29.14-.26c.09-.17.19-.33.27-.49.17-.31.34-.6.53-.93l.23-.2.26-.2.13-.35c.14-.14.18-.13.21-.11s.06 0 .18 0a6.25 6.25 0 011.62-1.54 11.46 11.46 0 011.67-.82h-.16a2.37 2.37 0 01.32-.15 2 2 0 01.33-.1c.19 0 .28 0 .06.1.23-.08.46-.13.66-.2l.31-.08.29-.08c.2-.05.38-.11.58-.15l.29-.07a2.47 2.47 0 01.29-.06 8.31 8.31 0 011.32-.17h1.33a.27.27 0 00.09 0v-.08l.1-.18.21-.36.15-.24a1.17 1.17 0 00.39-.39c.07-.1.16-.2.24-.32l.13-.17.14-.18.28-.34.07-.08.08-.07.14-.13a1.5 1.5 0 01.26-.21.55.55 0 01.22-.07l.29-.28.28-.23.27-.2.27-.18.25-.17.24-.15.24-.17.23-.18s.13 0 0 .07a2.89 2.89 0 00.47-.16l.33-.13.37-.15a3.25 3.25 0 00.4-.15l.43-.13.21-.07.22-.06.42-.1.07.08a2 2 0 01.53-.16 2.28 2.28 0 01.39-.06h1.27a2 2 0 00.56-.05c.06 0 0 .05-.09.06h-.3a2 2 0 00.82.15 3.21 3.21 0 01.95.15c-.07 0 .13.16 0 .15a15.17 15.17 0 011.87.86l.24.13.24.15.25.16.24.16.24.17h.06l.11.09.22.18c.28.43.65 0 1-.14l.19-.09.13-.07.28-.14.57-.24a10 10 0 011.21-.38 8.38 8.38 0 012.48-.23c.46 0 .38 0 .34-.09s0-.05 0-.07h.51c.17.07 0 .11-.08.14s-.14.07.23.13H136.92l.34.07h.2l.25.07c-.08 0-.09.05-.14.06a2.41 2.41 0 01-.41 0 .74.74 0 00.19.05l.26.07.32.06h.35l.36.1.18.06.18.08a2.53 2.53 0 01.33.16 1.75 1.75 0 01.29.18c0-.08.14 0 .29 0l.22.09.23.1.42.26a2.72 2.72 0 01.38.29l.35.3.5.52c.12.14.21.23.24.23s.34.28.08 0l.26.26c.08.1.15.19.21.28s.19.28.11.27a3.3 3.3 0 01.3.22 1.92 1.92 0 01.32.32l-.21-.08.12.11.06.05.06.06a2.4 2.4 0 01.22.24l-.12-.31a2.22 2.22 0 00.24.4 1.59 1.59 0 01.15.21l.14.21a1.89 1.89 0 01.2.35v.17V22.64c0 .06 0 .13.08.2l.08.19.34.8h.23l.61-.17h.36a2.2 2.2 0 01.76 0 2.92 2.92 0 00.9.35 3.6 3.6 0 011.18.63h-.07a2.69 2.69 0 01.47.34 4.23 4.23 0 01.45.5c.25.35.38.64.34.5a3.43 3.43 0 01.3.82v.23a4 4 0 01.18.92 5.24 5.24 0 00.08.8 4.4 4.4 0 01-.43.87.33.33 0 010 .14 2.22 2.22 0 01-.1.31c-.09.21-.2.43-.32.66.23.19.47.38.69.58l.17.14.16.16a1.42 1.42 0 00.27.21c.07.05.13.07.18 0a1.7 1.7 0 01.28.4 1.41 1.41 0 00.18.33 5.73 5.73 0 011.5 2c.09.19.21.37.31.58s.23.41.33.63l.17.35.16.37.07.19v.2c0 .14.09.28.13.42l-.08.15-.09.15c.16.59.36.71.39 1.3 0 .14 0 0-.08-.14a5.6 5.6 0 010 1.78 5.16 5.16 0 010 1.23v.57a5.54 5.54 0 000 .59c-.09.16-.12.17-.13.11a.31.31 0 010-.13 1.5 1.5 0 010-.2 1.55 1.55 0 000-.34c0-.07 0-.07-.11.06-.17.61-.34 1.21-.55 1.83a13.2 13.2 0 01-.74 1.87c-.1.08 0-.07-.07-.15v.12a.93.93 0 010 .13l-.06.17c-.09.25-.22.57-.34.88q-.1.24-.18.45a3 3 0 00-.14.37c-.07.21-.07.32.07.25-.07.19-.15.38-.1.41s.08 0 .18-.08a4.62 4.62 0 00.5-.45c.1-.2.32-.55.52-.87.1-.16.2-.32.29-.44l.13-.15.11-.09-.1-.14a4.3 4.3 0 01.39-.68.3.3 0 01.19-.12.42.42 0 00.23-.18 3.62 3.62 0 00.44-.9l-.21.39a2.76 2.76 0 00.08-.27l.07-.27a2.68 2.68 0 01.07-.27 2.22 2.22 0 01.11-.3c.08-.11 0 .17 0 .34a12.59 12.59 0 00.22-1.73c.11 0 .15 0 .15.38a2.23 2.23 0 00.07-.65c0-.08-.05-.06-.09 0s-.06 0-.06-.1 0-.36.09-.84.09.13.11.39c0-.11.06-.21.08-.32s0-.2 0-.3v-.29-.29a2.83 2.83 0 000-.29v-.29-.65c.07 0 .11.14.14.19s0-.16 0-.35c-.06.16-.18.26-.25-.32.05.07.07.07.08 0a.84.84 0 000-.23q0-.16-.06-.39v-.44c0 .13-.1.1-.17-.12a2.48 2.48 0 01-.08-.41 4.78 4.78 0 00-.12-.48v.71l-.06-.17-.06-.16-.09-.3c0-.09 0-.19-.07-.28l-.06-.26v-.26c0-.08 0-.17-.05-.26s-.09-.34-.14-.52a1.42 1.42 0 01.17.3 8.14 8.14 0 00-.42-1.16 4.75 4.75 0 00-.31-.59 5.37 5.37 0 00-.42-.59l.06.06c-.59-.74-.56-.57-.55-.45s0 .11-.08 0l-.21-.2-.17-.18-.24-.26c-.22-.27-.08-.29 0-.38s0-.1-.06-.22a1.69 1.69 0 00-.2-.23l-.38-.33c.09.14.11.19.07.19a1.11 1.11 0 01-.28-.15l-.49-.34-.25-.15-.14-.09h-.06s.12-.3.17-.44a2.9 2.9 0 000 .4H151.3l-.09-.06h-.06a2.5 2.5 0 00.09-.25.21.21 0 010-.07v-.1a.81.81 0 01.06-.13h-.08c-.12 0 0-.29.11-.67a4.38 4.38 0 00.12-.63 1.68 1.68 0 000-.6 6.36 6.36 0 01.25.82.49.49 0 00.24.33 12.67 12.67 0 00-.48-2.81 5.76 5.76 0 01.48 1 4.06 4.06 0 00-.36-1.33 4.85 4.85 0 00-.76-1.16 5.08 5.08 0 00-1-.84 5.48 5.48 0 00-1-.5c.2 0 .2-.07.21-.13s.05-.11.35 0a5.12 5.12 0 00-.73-.39 5.64 5.64 0 00-.78-.29 4.36 4.36 0 01.51 0c-.36 0-.71-.11-1-.14a.74.74 0 00-.3 0c-.07 0-.1 0-.08.12h.18a1 1 0 01.29 0s-.12.08-.3.1a8 8 0 01-.86 0c-.27 0-.2-.06-.06-.09s.31-.05.24-.09a1.84 1.84 0 01-.56 0h-.18a.45.45 0 00-.17 0H145.87h-.18l-.23.05v-.07l-.06-.14a1 1 0 00-.08-.14 1.18 1.18 0 00-.11-.19l.11.17h.08v-.14c0-.09-.1-.18-.16-.27l-.19-.26-.16-.26v-.11a.76.76 0 010-.11l.35.17-.21-.21-.23-.2c-.1-.19-.13-.37.11-.08a5.23 5.23 0 00-.27-.45 1.08 1.08 0 00-.2-.19.19.19 0 00-.21 0c-.12 0-.24 0-1-.94 0 0 .13 0 .24.1a4.06 4.06 0 01.45.52c.17 0 .13-.18-.27-.69a3.64 3.64 0 00-.34-.34l-.18-.18-.18-.17-.4-.32a1.56 1.56 0 00-.2-.16l-.2-.15-.4-.27-.2-.12-.19-.1-.36-.18a2.21 2.21 0 00-.32-.12"/>
      <path class="cls-2" d="M143.6 19.59l.31.35.28.32c.16.2.29.36.38.45s-.07-.12-.15-.25l-.14-.2a1.12 1.12 0 00-.17-.21c-.24-.28-.48-.52-.52-.46M109.93 64.5h-.24.24m3.27 2.91l-.16-.22s0 .1.16.22m-10.6-15.79a2.2 2.2 0 00.5.09h.18a1.3 1.3 0 00-.68-.06M98 43.23V43v.19m5.34-18.31c-.23.39-.58.9-.81 1.35a3.24 3.24 0 01.2-.33c.07-.12.16-.25.24-.37a4.18 4.18 0 00.23-.36 1.07 1.07 0 00.14-.29m15.2 45.47h-.51c.17 0 .35.06.53.09zm-4.16-2.14l-.19-.16-.26-.19c-.17-.12-.3-.19-.23-.09a3.13 3.13 0 01.34.21l.17.11.17.12m-11.27-12.13a2.12 2.12 0 00-.11-.21l.09.42a1.52 1.52 0 010-.21"/>
      <path class="cls-7" d="M145.19 29.39c-3.6.34-7.15 2.73-9.52 4.72-2.22-1.12-5.17-1.49-8.7-1.28-4.93.29-8.69 1.58-10.9 3.86-2.5-1.49-5.76-3-8.89-2.88-6.32.16-1.43 8.47 6.14 8.67h.53a13 13 0 00.41 3.15c2.09 8.47 8.17 15 14.71 14.27 5.75-.65 11.12-6.89 11.36-16.18a14 14 0 00-.65-5l.41-.05c7.49-1.08 11.4-9.91 5.1-9.33"/>
      <path class="cls-7" d="M146.31 30h.26a.1.1 0 00-.07 0h-.19m-23.48 2a.9.9 0 00.27-.1 1 1 0 00-.27.1m24.89 0v-.12.12M138.42 37.84l-.21.05.21-.05m-35.31-.39a.55.55 0 00.09.14c0-.09-.08-.16-.09-.14"/>
      <path class="cls-7" d="M103.45 37.36a2.51 2.51 0 00-.21-.44v.62c.07.15.17.39.26.54s.13.22.09.06a2.57 2.57 0 00.61 1.07 8.7 8.7 0 01.77.94s-.17-.3.16 0a3.06 3.06 0 01.38.42 1.38 1.38 0 00.15.25 6.35 6.35 0 01.53.36c.2.14.38.26.33.25.19.1.12 0 .09-.1s-.06-.19.19-.06a12.09 12.09 0 011.17.68c.21.17.09.12-.12 0l-.33-.18a1.8 1.8 0 00-.26-.14 11.7 11.7 0 001.37.69c.38.25-.25 0-.64-.19a3.62 3.62 0 00.85.44 2.54 2.54 0 00.38.11.74.74 0 00.25 0 1.22 1.22 0 00.24.1l.21.08c.13 0 .26.09.43.17-.36-.05-.4.15-1 0s-.34-.19-.23-.18.24 0-.13-.16l-.11.08a6.78 6.78 0 00-.9-.4c-.17-.12.06 0 .19 0-.6-.3-1-.63-1.5-.81a6.13 6.13 0 001.28.83 7.34 7.34 0 011 .54 11.83 11.83 0 001.76.41s-.56-.3-.06-.24a2.76 2.76 0 001.34.49c-.11-.09.16-.08.43-.09h.11a.06.06 0 000-.07.12.12 0 01-.07 0h-.13c-.08 0-.12-.08-.15-.08h.28s0-.07.06-.06.18 0 .21 0 0 .06.14.09l-.28.13-.12.07H112.18h.31a.13.13 0 010-.1s.06 0 0-.07h.2a1.69 1.69 0 01.13.29 1.71 1.71 0 010 .24l.07.3.13.63a2.34 2.34 0 01-.35-.94v-.15a.2.2 0 00-.15 0v.15a1.82 1.82 0 01.11.46 2.28 2.28 0 00.11.9c0 .18.1.38.15.57s.12.37.17.55v-.33a3.25 3.25 0 01.16.52l.14.57v-.08l.13.3v.06a7.11 7.11 0 01.29.8l.19.51.09.26a2.56 2.56 0 01.11.24s0-.17-.09-.37-.19-.41-.24-.57-.16-.7 0-.43c0 .1.07.19.1.28l.12.27c.07.17.15.33.23.5l.25.51.13.29c0 .09.09.2.14.3l-.09-.28a7 7 0 01.51 1c.29.77-.39-.48-.23 0-.23-.25-.36-.81-.52-.84l.08.54a2.69 2.69 0 01.29.59c0 .1.07.2.1.29a1.61 1.61 0 00.12.23 3 3 0 01-.09-.32c.13 0 .19.32.25.46v-.27a3.69 3.69 0 00-.31-.54 1.2 1.2 0 01-.21-.48c.41.73.44.5.91 1.39 0 .08-.11-.16-.21-.23a2 2 0 00.28.48 3.15 3.15 0 01.19.27l.18.34c-.1-.12-.22-.29-.31-.38s-.14-.09-.08.11l.26.2c.12.23 0 .17.08.26.17.33.06-.14.34.37 0 .09.11.27 0 .21.37.56.21.25.62.73-.16-.23-.2-.38-.16-.41s.16.06.34.28a10.39 10.39 0 00.85.96 3.07 3.07 0 01.48.73l.31.21c-.13 0 0 .06.08.2s.32.31.4.41-.23-.14-.46-.37-.45-.46-.53-.39c.34.42.14.29 0 .19.41.43.26.06.5.2-.05 0 .67.73.35.57a1.88 1.88 0 00.41.33 1.29 1.29 0 01.34.26c-.07 0-.16 0-.18.08s.38.36.45.42.2 0-.15-.23a1.82 1.82 0 01.45.32c.19.16.36.3.38.26 0 .13.74.59 1.11.88 0-.14-.14-.23-.35-.33s-.42-.21-.42-.35c.28.14.7.44 1.18.72l.38.21.38.19.2.09.19.07.37.13c.38.19.38.21.28.21h-.2a11.35 11.35 0 01-1.52-.74 1.67 1.67 0 00.26.17l.29.16.32.16.33.15c.22.09.44.16.64.23a3.7 3.7 0 00.52.12 4.18 4.18 0 01.83.37 2.56 2.56 0 00.4.16 2.31 2.31 0 00.62.11.69.69 0 00-.14-.12h-.09l-.18-.05h.43l.45.06c.09 0 0 0-.11-.07s-.13 0 .07 0 .49.06.42.12h.51a1.84 1.84 0 01.29.06 1.09 1.09 0 00.71-.06h-.45c-.21 0 0-.08.16-.13s.37-.09.56-.14h.6c.09 0-.07.07-.27.11a2.35 2.35 0 00-.52.11h.38l.36-.06h-.15l.38-.13.19-.07.19-.07a1.11 1.11 0 01-.27.06s-.06 0 0 0a.24.24 0 01.09-.08.56.56 0 01.16-.07l.4-.09.33-.08c.2 0 .33-.05.31 0s.18-.16.4-.26l.34-.17.34-.18c-.24.1-.27.08-.22 0l.12-.09.12-.1.37-.13.37-.15c-.7.45.2 0 .07.17a.91.91 0 01-.42.32l-.3.15-.32.13.3-.08.25-.11a2.17 2.17 0 00.39-.25 3.3 3.3 0 01.35-.28 3.07 3.07 0 01.42-.27s0 .14-.27.31a2.38 2.38 0 00.36-.28 3.58 3.58 0 01.6-.44c-.07 0-.18.06-.22 0s0-.07.17-.25l.29-.15.3-.16c.59-.5.11-.28.52-.76l-.36.22c0-.13.6-.59.52-.7a4.63 4.63 0 00-.32.38 1.75 1.75 0 01-.36.36c-.1 0 0-.09.11-.22a1.85 1.85 0 00.33-.39l.54-.48.44-.36c.08 0 0 .29-.15.52s-.22.45-.08.49l.21-.25c.07-.09.15-.18.22-.28l.23-.28.21-.29.21-.28.19-.26a4.59 4.59 0 01.32-.41c.36-.66.18-.69 0-.65a2.38 2.38 0 01.35-.55l-.12.33c.4-.81.58-1.3 1-2.17.1-.25.08-.34 0-.35s-.12 0-.18.08l.19-.53-.06.07a.8.8 0 01.07-.42c.05-.18.14-.38.2-.56v.23a2.52 2.52 0 00.2-.55 1.94 1.94 0 00.11-.52s.06.07.06.18a1.2 1.2 0 01-.11.46l-.06.05c0 .22-.1.44-.15.67a3.88 3.88 0 01.16-.51 3.28 3.28 0 01.15-.36c.1-.19.2-.28.26-.25.07-.4 0-.25-.07-.12s-.07.12-.08.11a1.05 1.05 0 010-.33c.07-.14.13-.28.19-.42s.09-.29.13-.43.07-.28.1-.41l.07-.4c0-.12.05-.25.07-.36s.05-.23.08-.34a1.58 1.58 0 01.24-.56v-2.17c-.11 0 0-.6-.16-.52a3.31 3.31 0 00-.05.62v.58a3.37 3.37 0 010 .55 1.72 1.72 0 01-.11.51c0 .38.11.27.15.45-.05.34-.11.65-.18.68a.8.8 0 00-.07-.54.29.29 0 01-.05-.19 2.34 2.34 0 010-.5 1.8 1.8 0 00-.13.55c-.05.25-.09.54-.13.71 0-.11-.1 0-.18.2v-.55-.57c0 .11.09-.07.11 0v-1c0-.31.17-.38.22-.21.08-.56 0-1.51.12-1.51 0-.73-.1.23-.15.29v-.07.77c-.19.08.08-.87-.1-1s-.14-.33-.09-.65a2.91 2.91 0 00.09-1c.1.19.19.4.28.6 0-.18-.05-.36-.09-.54a1.18 1.18 0 00.2.32 1.18 1.18 0 01.2.46c0-.38 0-.85-.05-1.28a5.82 5.82 0 00-.15-1.06.5.5 0 010-.13h.12a1.34 1.34 0 01-.06-.12v-.11-.21-.31c0-.09 0 0 0 0h.19c.13-.07 0-.08-.12-.09h-.22s-.08 0 0-.07a.56.56 0 00.29 0l.22-.07a.81.81 0 01-.25 0h-.43l.06.31c-.08-.26-.22-.31-.3-.44 0 .17.09.34.12.51-.11 0-.17-.36-.25-.62h.18a.33.33 0 00.13 0 .13.13 0 000 .13.28.28 0 010 .13c.17 0 .42-.1.68-.15h.37l.41-.06c.14 0 .09 0 0 .07l-.33.13a.59.59 0 00.34-.07c.13 0 .25-.09.32 0s-.11.08-.21.1-.21 0-.3.08a12.09 12.09 0 001.58-.5s-.36.22-.61.29a2.46 2.46 0 001.27-.72c.27-.1.54-.23.74-.3s.32-.11.26 0c.2-.16 0-.11 0-.16a2.16 2.16 0 00.59-.49 2.57 2.57 0 01.36-.41l-.33.14c.32-.18.32-.25.32-.3s0-.1.25-.28c0 .14.1.21.25.22 0-.15.38-.36.57-.57-.09 0 0-.1.06-.2s.09-.18-.1-.05c.19-.26.35-.43.49-.6a2.43 2.43 0 00.2-.25 1.4 1.4 0 00.14-.3c-.1.12 0 0 0-.15s.1-.28 0-.2a3.53 3.53 0 01.42-.59c.11-.13.19-.16.2-.06s-.13.22-.18.31-.09.18 0 .19a6.7 6.7 0 00.47-1.06 4 4 0 00.21-.41c.07-.12.12-.23.19-.24a4.64 4.64 0 01.06-.78 1.09 1.09 0 00-.12-.74 1.06 1.06 0 01.1.58 2.76 2.76 0 01-.08.37v-.2.1a4 4 0 00-.23-.51 1.23 1.23 0 000 .23.16.16 0 00.05.08.19.19 0 01.06.12.92.92 0 010 .35c-.07.15-.11.13-.14 0s0-.26-.07-.42a1.68 1.68 0 00-.11-.4c0-.07-.07-.07-.08.07a.68.68 0 00.06.41.86.86 0 01.11.38v-.1a4 4 0 01-.14.91s-.05 0-.05-.12v-.14a3 3 0 01-.25.63 4.31 4.31 0 01-.25.44c-.18.27-.37.54-.73 1 .07-.05.38-.12.08.32s-.32.29-.54.51c.06-.08.09-.17.14-.25a.54.54 0 01.21-.25l-.12-.07a1.83 1.83 0 00.17-.43c0-.1 0-.17.05-.24a1 1 0 01.09-.28c0-.12.13-.28.25-.53v-.18c0-.09.07-.2.11-.33s.18-.58.25-.85l-.07.12-.08.12c0-.29 0-.3.06-.34a.16.16 0 00.07-.11v-.13-.09a.52.52 0 000-.11 3.58 3.58 0 00.24-.48c.06-.14.14-.22.27 0v-.19l-.06-.16a.91.91 0 01-.07-.14l-.09-.11a2.21 2.21 0 00-.44-.4c-.08-.14 0-.16.05-.16s.2.05.23 0a1.3 1.3 0 00-.54-.25.24.24 0 00-.14 0l.06.09a3.43 3.43 0 00-.7-.25h.35a1.53 1.53 0 00-.25-.06h-.3a2.07 2.07 0 00-.47.06.93.93 0 01.33 0 3.94 3.94 0 00-.55.07 1.44 1.44 0 00-.34.1 1 1 0 01.27 0h.67s-.12.11-.36.09l.52.11a.84.84 0 01.19.07.33.33 0 01.13.09.49.49 0 00-.19-.07.43.43 0 00-.16 0 1.18 1.18 0 00-.19 0l.5.08.41.08c0 .09.19.17.32.28s.21.19.06.15h.07a.43.43 0 01.1.09.77.77 0 01.11.27s-.1-.08-.19-.15a.51.51 0 00-.27-.16l-.09-.06h-.07l-.08-.05h.15c.05 0 .07 0 0-.05a1.85 1.85 0 00-.61-.24l-.07.05c-.07.05 0 .05.21.1a3.28 3.28 0 01-1 0h.27a1.18 1.18 0 00-.23.14c-.05.06 0 .1.27.13-.08 0 0 0 0-.05s.09 0-.05-.09a1.19 1.19 0 01.44.09c.13.05.18.12.08.14a2.66 2.66 0 01.37.07.73.73 0 01.24.13H146.97a.64.64 0 01.15.13l.06.07.06.1v-.08-.08c0-.08.06.16.09.24a2 2 0 01.09.26 1.65 1.65 0 01.09.65c-.06-.05-.07-.17-.08-.31a1.75 1.75 0 00-.08-.41.24.24 0 000 .13.14.14 0 000 .09.42.42 0 010 .39c0 .06-.07.06-.1 0a1.41 1.41 0 010 .2 1.47 1.47 0 010 .21c-.05.11-.06 0-.05 0v.41c0 .04 0 .1-.17.57a1.2 1.2 0 00.17-.3.42.42 0 00.05-.2v-.19c0-.07 0-.16.08-.27s.09 0 .06.23-.11.45-.12.54a1.65 1.65 0 01-.36.43 1.6 1.6 0 00-.37.55c.1-.21.08-.23.07-.27a.15.15 0 010-.09s.07-.13.15-.27 0-.14-.05-.06-.15.2-.21.2 0 .08 0 .1 0 .08-.12.27c-.11.24-.23.47-.36.7s-.53.58-.8.87a2.31 2.31 0 01-.79.61h.18a7.1 7.1 0 01-.64.47l-.57.38c0-.11.3-.27.56-.48-.72.44-1.35.83-1.84 1.15a2.51 2.51 0 00.45-.09l.42-.11a.9.9 0 01-.57.28 2.26 2.26 0 00-.73.22c-.06-.13.17-.19 0-.26a2.12 2.12 0 01-.5.24l-.29.11-.35.12c-.14 0-.14-.11.05-.2l.18-.07h.15l.2-.07.23-.09a1.43 1.43 0 00.41-.09l.38-.17a3.13 3.13 0 01.7-.3h-.28a7.08 7.08 0 001.13-.71l.12-.24-.21.13.28-.34c.12-.13.23-.25.29-.3a2 2 0 00-.52.53 2.4 2.4 0 01-.26.42 2.7 2.7 0 01-.76.27 1.38 1.38 0 00-.29.08.85.85 0 00-.28.15c-.06 0-.44 0-.18-.15l.42-.18c.11 0 .18-.07.18-.12-.36.16-.24 0-.78.28a2.23 2.23 0 01-.85.63H140.63l-.3.08c-.21.05-.43.09-.64.12-.43.07-.84.11-1.18.14l.55-.1.44-.12c.25-.08.38-.16.24-.18a1.43 1.43 0 01-.44.1c-.18 0-.38 0-.55.06-.35 0-.6 0-.36.1h-.11c.15.47.35 1.1.48 1.62a5.83 5.83 0 01.13.66v.14a.09.09 0 010 .06v-.09-.18l-.09-.35c0-.12-.07-.24-.1-.36s-.06-.23-.1-.35c-.13-.47-.26-.9-.41-1.32.07.22.09.42 0 .26l-.1-.33c.31-.05.62-.08.93-.12l-1 .05.11.39c0 .16.12.39.23.7v-.1c0 .12.11.33.17.51l.15.5h-.14a3.79 3.79 0 01.12.4v.39c0 .15 0 .33.06.51a10.86 10.86 0 00.13 1.21v-.07a2.07 2.07 0 00.05.4 2.64 2.64 0 00.1.3 1.89 1.89 0 01.1.31 1.44 1.44 0 01.06.45c-.06-.22-.12-.12-.19-.08a2.76 2.76 0 01-.12.94c.05-.22.09-.14.12 0s0 .19.08 0 .09.18.09.42v.38c0 .12 0 .25-.05.35s-.09-.2-.09-.46 0-.48-.13-.19 0 .49.1.22c0 .25-.08.55-.14.84a3.52 3.52 0 01-.21.72 8 8 0 000 1.21c.06-.31-.06-.35.08-.72v.45a4.31 4.31 0 01-.23.74c-.09.22-.17.41-.23.6v-.41a1.69 1.69 0 01.06-.39v-.24a1.22 1.22 0 010 .27 2.33 2.33 0 01-.07.25c0 .09 0 .18-.07.28a.76.76 0 000 .16.86.86 0 000 .17 3.05 3.05 0 01-.16.58c-.07.17-.15.33-.22.48s-.14.29-.18.43a1 1 0 00-.06.43c.06-.14.26-.4.27-.29s-.32.65-.38.6l.05-.17c-.21.44-.36.69-.41.86s.15.07 0 .4-.23.26-.23.13 0-.3-.14-.06l-.07.18-.08.18-.16.36-.16.11a3.53 3.53 0 00-.24.34l-.23.34-.42.67a6.63 6.63 0 01-1 1.31s.07-.23.22-.44.35-.43.44-.55a2.12 2.12 0 00-.48.47 3.08 3.08 0 01-.25.27 1.74 1.74 0 01-.27.08c-.35.29-.55.6-.45.62-.2.21-.3.24-.35.24h-.09c-.06.24-.7.6-1.08.85l-.06-.07-.29.21a2.61 2.61 0 01-.3.2c.17-.06 0 .08.07.13l-.17.07.28-.06a1.19 1.19 0 00.26-.11 5.58 5.58 0 00.52-.32l.25-.18.24-.17.26-.15.28-.11c-.17.17.11 0-.06.19s-.2.11-.24.1-.28.34.06.11c0 .08-.11.23-.34.4l-.38.25-.39.24c-.22 0-.13 0 0-.17l.27-.21a1.25 1.25 0 00.2-.19 2.31 2.31 0 00-.24.2 2.1 2.1 0 01-.34.18v-.16l-.19.13-.1.07v.07c0 .01.14 0 .09.13a.39.39 0 01-.16.15.79.79 0 01-.23.09 3.71 3.71 0 00-.45.11l.2-.12-.19.06-.16.06-.26.12-.25.11-.33.1-.27-.06a1.06 1.06 0 00.68-.2c.08 0 .14-.1.21-.14a.79.79 0 01.23-.09c-.48.09-.44 0-.27-.12l.33-.22a2.91 2.91 0 00.27-.21 2.62 2.62 0 01-.52.2 1.37 1.37 0 01-.42.06 1.48 1.48 0 01-.41.17l-.44.08a3.32 3.32 0 00-.44.06 1.66 1.66 0 00-.42.12c-.3 0 .27-.12 0-.1h-1.85c-.32-.06-.26-.11-.33-.19-.75-.23-1.28-.37-1.83-.55a6.29 6.29 0 01-1.84-1l.26.09-.21-.17-.2-.15-.18-.1a.52.52 0 00-.16-.06 1 1 0 00-.31-.36c-.14-.12-.3-.25-.47-.37s-.34-.28-.48-.42a1.44 1.44 0 01-.31-.46 2.91 2.91 0 00-.33-.35 2.18 2.18 0 00-.26-.21 2.69 2.69 0 01-.53-.45s.24.06.06-.22a17.45 17.45 0 01-1.76-2.54 22.81 22.81 0 01-1.43-3s.08.12.11.17c-.26-.72-.55-1.42-.8-2.11-.06-.17-.11-.35-.17-.52s-.11-.34-.15-.5a5.47 5.47 0 01-.18-1c0-.11-.09-.34-.14-.51s0-.08 0-.12v-.06c0-.07 0-.07-.06 0v.11a.19.19 0 010 .08.23.23 0 010 .1.13.13 0 01-.12.06 1.62 1.62 0 010-.19v-.18-.34a1.06 1.06 0 01.05-.36 1.33 1.33 0 00.06-.28 2.73 2.73 0 000-.61c.09-.28.12-.11.16.13s.06.55.14.51l-.08-1.08H112.79a3.26 3.26 0 01-.79-.16c.22.06.09-.12.45 0h-.08a2.39 2.39 0 00.45.05h1.4-1.73a5.57 5.57 0 01-1-.22c0 .08-.07.06-.22 0a1.9 1.9 0 00-.44-.09h-.22L110 41l-.09-.2c-.25-.08 0 .1-.21 0a5.12 5.12 0 01-.92-.44c-.34-.2-.62-.43-.62-.53-.19-.12-.32-.18-.45-.25l-.2-.12a1.77 1.77 0 01-.23-.19h.17c-.18-.16-.38-.33-.56-.52a5 5 0 01-.54-.59 4 4 0 01-.74-1.23 3.51 3.51 0 01-.3-.8 1.87 1.87 0 010-.3v-.13a.45.45 0 000-.11c0 .06 0 .17-.06.26s0 .08 0 .08l-.06-.09a.5.5 0 010-.12.77.77 0 010-.15 1.57 1.57 0 01.1-.28s.1-.06.17-.11.06 0 .07 0 0 .05-.07.13a.09.09 0 00.07 0 .24.24 0 00.09-.06c.07 0 .14-.11.24-.17s.44-.19.46-.1a1.56 1.56 0 01.52-.15c.26 0 .55-.06.73-.11s-.09.06-.22.07-.25 0-.25.05.25 0 .39 0a3.25 3.25 0 00.83 0 2.25 2.25 0 01.6-.07h.33l-.4.08h.99a3.47 3.47 0 01.39.05v.06h.36c-.06 0-.09 0 0 0a1.22 1.22 0 01.32 0l.39.08a4.73 4.73 0 00.7.15 2 2 0 01.3.2.65.65 0 00.39.14l-.12.14a1.75 1.75 0 01-.5-.24.68.68 0 00-.14-.09l-.15-.05-.25-.07a8.52 8.52 0 001.37.72c.59.28 1.24.59 1.75.86h.09l.27.14.28.15a3.09 3.09 0 01.29.17l.63.37.07-.06.13-.12.26-.25.5-.47.11-.1a.47.47 0 00.1-.09.57.57 0 00.11-.11 1.13 1.13 0 00.3-.37v.14c.21-.14.43-.25.65-.38l.33-.17.34-.16a11.89 11.89 0 011.76-.77l.43-.15.21-.07.21-.07.4-.14.37-.13h.29a1.92 1.92 0 01.43-.18 5.52 5.52 0 01.53-.17l.61-.14.63-.11.32-.06h.31l.57-.11a2.62 2.62 0 00.81-.24c.61 0-.18.15-.23.22a7.59 7.59 0 00.81-.12 1.77 1.77 0 01.8 0s-.62.06-.34.09.46-.11.83 0c-.08 0 .06-.11.3-.15H129.99h-.14c-.08-.08.33-.05.55-.05a.15.15 0 01-.08 0 13 13 0 014.34.73l.15.05.15.07.31.13.32.14H135.74l.14-.11.54-.44.24-.19.24-.18a19.5 19.5 0 011.89-1.27l-.42.36a4.43 4.43 0 01.64-.45c.23-.14.45-.25.56-.31h-.05a1.84 1.84 0 00.72-.4 1.29 1.29 0 01.61-.29l-.1.07.6-.26.54-.18.54-.17.29-.11.3-.12a2.12 2.12 0 01.65-.08h.48a1.75 1.75 0 00.44-.14l.15-.09h-.2c-.05 0-.06 0 0-.05a.49.49 0 01.18 0c.17 0 .4-.07.54-.11-.11-.06-.14-.16-.26-.24a.74.74 0 00-.25-.11h-.5a1.54 1.54 0 01-.38.06h-.27a1.43 1.43 0 00-.3 0h-.19l-.23.07a.85.85 0 01-.31.17l-.41.1a2.74 2.74 0 00-.45.12 2.32 2.32 0 00-.43.24c.14-.13-.05-.07-.22 0s-.3.1-.06-.1a1 1 0 00-.33.13l-.23.12-.24.14c-.17.11-.35.21-.51.3a1.92 1.92 0 01-.44.21c.06-.07 0-.09.12-.17a1.37 1.37 0 01-.52.29 1.07 1.07 0 00-.43.18l.09.11c-.16.15-.26.1-.41.23.14-.07.44-.19.33-.05a6.47 6.47 0 01-.57.47s.11-.17.21-.25l-.08.05-.18.1a.81.81 0 01-.31.14c.15-.16.37-.32.49-.48-.67.4-.08 0-.46.11.09 0 0 .15-.23.29s-.45.3-.6.44c-.08 0 .22-.19.28-.29a1.86 1.86 0 00-.51.23 2.3 2.3 0 00-.38.32l-.18.18a.18.18 0 000 .07h-.05l-.1.12h-.07v-.06l-.06.06h-.07l-.11-.09a.55.55 0 00-.29-.11c-.22-.09-.23-.14-.26-.2s-.11-.14-.48-.24c0 .05 0 .06-.06.05l-.36.05a1.73 1.73 0 00-.34-.09h-.2l-.53-.23c-.26 0-.24.09-.28.15s-.05 0-.14.06a2.33 2.33 0 01-.47 0c-.42-.1-.4-.16-.32-.24s.2-.13-.05-.21l-.23.07-.44-.11h.06a1.81 1.81 0 01-.73-.1c.05 0 .33 0 .37-.06a1.9 1.9 0 01-.45 0l-.62-.09a1.84 1.84 0 00-1.08.08c-.25-.06-.77 0-.71-.13-.23.13-1.14 0-1.47.12 0 0-.29-.09-.54 0 .35 0 .13.08-.09.17a4.32 4.32 0 00-.71 0 1.15 1.15 0 01-.59 0c-.46.14-.27.22-.36.34a6.81 6.81 0 00-.73 0c-.26 0-.47 0-.4-.07.26 0 .84-.1.72-.19-.51 0-.21.07-.61.17 0 0-.29-.05-.23-.11l-.41.1c-.16 0-.33.07-.5.09.54-.05-.32.2 0 .19l.48-.24c.62-.14.15.06.39.05l-.35.09-.25.09-.34.16a3.94 3.94 0 01-.86.4l-.65.13c.33-.12.22-.24 0-.21a2.43 2.43 0 01-.76.28 5.56 5.56 0 00-.73.18c.41-.14.24.05.11.14l-.27.15-.17.09h-.14c-.02 0 0-.09-.25 0l-.51.28-.24.12-.23.14-.44.25-.4.27a1.37 1.37 0 00-.2.13L116 35v.1a.78.78 0 000-.16.37.37 0 01.09.19.75.75 0 010 .29h-.07c-.05 0-.07-.07 0-.09h-.07l-.16-.06c0 .08.24.17.07.15l-.1-.09h-.06l-.11-.08c-.12-.1-.17-.15 0-.08-.33-.19-.8-.36-.76-.25-.27-.14-.24-.17-.1-.16a3.34 3.34 0 01.51.11c-.44-.23-.33-.31-.18-.27l-.63-.29h.33c-.4-.24-.76-.24-1.07-.5h-.21l-.37-.19-.29-.13-.43-.19-.42-.17-.67-.21.17.14a2.87 2.87 0 01-.5-.09 2.22 2.22 0 01-.31-.13 3 3 0 00-.36-.14l-.28-.07-.41-.06h-.48a2.15 2.15 0 00-.36 0c-.19 0-.29 0-.25.12a1.34 1.34 0 01-.68-.11l-.31.06-.39.08c-.29 0-.6.09-.89.11a5 5 0 011-.21h-.23a3.08 3.08 0 00-.48 0 9.81 9.81 0 00-1.13.26L105 33l-.27.17a4.23 4.23 0 00-.62.55 2.79 2.79 0 00-.51.8 2.58 2.58 0 00-.19.79c.1-.19.18-.22.22-.12a3.69 3.69 0 01.08.67v.1a2.09 2.09 0 000 .37 6.2 6.2 0 00.13.87v.44a.84.84 0 01-.17-.32 1.37 1.37 0 010-.19v-.18a1.7 1.7 0 00-.07-.44 2.61 2.61 0 000 .62 4.47 4.47 0 00.21.88 1.67 1.67 0 01-.36-.63c.1.16.08 0 .11 0"/>
      <path class="cls-7" d="M147.72 32v.07l.05-.08m-34.2 15.42s.06.11.08.1-.05-.09-.08-.1m35.13-16.14V31.4a1.3 1.3 0 010-.13"/>
      <path class="cls-8" d="M123.29 48.71h.06l-.08-.05zm-.29-.51h.12c-.08 0-.06.08 0 .11s.07 0 .08 0 .11.07 0 .16h.07-.07c-.01 0 .11.07.1.14s0-.07 0-.1-.08-.06 0-.11a.09.09 0 010-.11v-.1c0-.02-.14-.08-.25 0M123.28 48.15"/>
      <path class="cls-8" d="M121.89 47.47h-.1s.06-.06.1 0m.08-.14c0 .08 0-.08.09 0a.38.38 0 000 .11H122c0-.08-.07-.05 0-.13m.16.15a.09.09 0 01.12.05c.07-.05.14 0 .2-.07l-.07.13a.75.75 0 00-.29-.09m.55 0l-.05.08c.07 0 0 .11 0 .16a.76.76 0 00-.19-.12c.07-.07.14 0 .23-.12m.8 1.33a.68.68 0 00-.16-.08.37.37 0 00-.22 0 1.23 1.23 0 00-.39-.9.14.14 0 01.11 0v.05h.13a.14.14 0 01.17 0h.11c0 .07-.13 0-.06.07h-.1c.06 0 0 .06.06.07s0-.06.07-.06.06 0 .12.07 0 0-.07 0h-.07l.07-.05h-.08c.08 0 0-.05.07-.08s0-.07-.1 0 .07 0 .06 0a2 2 0 01-.36-.36l-.1.05a.17.17 0 000-.12.07.07 0 00-.12 0 .22.22 0 01-.09-.08.23.23 0 00-.11-.08c0 .06-.06 0-.08 0s-.06 0-.1.05-.07.11-.09.16a1.83 1.83 0 000-.21v.05-.1c-.08.11-.12.08-.16 0s-.08-.1-.12 0c0-.06-.08.07-.1.1a.17.17 0 010-.12h-.14a.16.16 0 01-.15 0v.14a.09.09 0 010-.1c0-.06-.1 0-.16 0s-.11.08-.19 0 0 .11 0 .19-.1-.13 0-.16a.27.27 0 00-.14.07.18.18 0 000 .17c-.06-.09 0 0-.08 0h-.06v.08h-.07s-.08-.06-.1 0h.05s0 .08-.08 0-.07 0-.08 0 0 .08 0 .08l.11.07c0 .06 0 0-.07 0h-.1c-.04 0 0 0 .06.06v-.06a.11.11 0 010 .15s-.05.06 0 .12-.06-.06-.09 0 0 .08 0 .14v.12a.19.19 0 00-.07.17.69.69 0 010 .2v.09c.07 0 0 .09.14.11h-.09s.06.07 0 .1a.4.4 0 000 .15s0 .08.08.08 0 .05-.07.07.06.07.13.08v.06h.08l-.06.06a.14.14 0 01.1.08.23.23 0 000 .1v.08c0 .01.07.06.12.07a.23.23 0 01.17.07v.09c0 .02.07 0 0 .1s.08.08.16 0 .09.06.16 0v.05c.06-.09.15 0 .2-.12s0 0 0 .05.07 0 .1 0 0 .06 0 .08a.21.21 0 00.23 0h.14a.23.23 0 01.14 0v-.11.13c0 .02 0-.06.08-.06s0 .06 0 .09 0 0 .06 0h.09a.2.2 0 010-.07.06.06 0 01.1 0h.07c-.01 0 0 0 0 0s.06 0 .07.05 0-.08 0-.1V50.05s0-.11.1 0h.07v-.11h.13c0-.07.08-.11 0-.12s.08 0 .09 0 0-.09 0-.15h.11c-.09-.12.12-.06 0-.16h.1c.03 0 0-.11 0-.14v-.18h.12s-.1-.09-.06-.11 0-.06.06-.08 0-.1-.11-.16c.11 0 0 .06.14 0s0-.14 0-.22a.08.08 0 01.07 0m10.78-1.29h.05-.07zM134 47h.12c-.08 0-.05.08 0 .11s.07 0 .09 0 .1.07 0 .16H134.2c-.07 0 .11.07.11.14v-.1c0-.03-.07-.07 0-.11a.14.14 0 010-.11v-.1c0-.02-.14-.08-.25 0M134.3 46.95"/>
      <path class="cls-8" d="M132.85 46.31h-.1s.06-.06.1 0m.08-.14c0 .08 0-.08.09 0s0 .07-.05.11a.09.09 0 00.06 0h-.09c0-.07-.07 0 0-.12m.17.15h.11c.03 0 .14 0 .21-.07l-.08.13a.75.75 0 00-.29-.09m.55 0l-.05.08c.07 0 0 .11 0 .16a.94.94 0 00-.18-.12c.07-.07.13 0 .23-.12m.8 1.33a.68.68 0 00-.16-.08.42.42 0 00-.23-.05 1.26 1.26 0 00-.38-.9.14.14 0 01.11 0h.33c0 .07-.13 0-.06.07h-.1c.06 0 0 0 .06.07s0-.06.08-.06c-.1.09.06 0 .12.07s0 0-.08 0h.05-.07.06-.08c.08 0 0 0 .08-.08s0-.07-.11-.05.08 0 .07 0a2.1 2.1 0 01-.37-.36h-.1a.13.13 0 000-.12h-.11a.29.29 0 01-.08-.08.21.21 0 00-.11-.08c0 .06-.07 0-.09 0h-.09c0 .06-.07.12-.09.16a1.5 1.5 0 000-.2v-.1c-.08.11-.12.07-.16 0s-.07-.1-.11 0c0-.06-.08.07-.11.1a.25.25 0 010-.12h-.15a.16.16 0 01-.15 0v.14a.07.07 0 010-.1c-.05-.06-.11 0-.16 0s-.12.08-.19.05 0 .11 0 .19-.1-.14-.05-.16v-.06a.46.46 0 00-.13.08.14.14 0 000 .17c-.07-.09 0 0-.09 0s0 0 0 .05v.08h-.07l.06.05s-.09-.06-.1 0 0 .08-.08 0-.08 0-.08 0v.08l.1.07c0 .06 0 0-.07 0h-.09c-.03 0 0 0 .06.06h-.05v-.06c.05.08 0 .11 0 .14s-.05.07 0 .12-.06 0-.08 0 0 .08 0 .13v.13c0 .03-.06.11-.07.17a.46.46 0 010 .2v.09c.08 0 .05.09.14.11h-.08s.05.07 0 .1a.39.39 0 000 .15.14.14 0 00.09.08l-.08.07a.15.15 0 00.13.08.09.09 0 010 .06h.08s-.06 0-.07.06a.11.11 0 01.1.08v.17s.07.07.13.08.12 0 .16.07 0 .07 0 .09.06 0 0 .1.08.08.17 0 .1.06.17 0c.06-.09.15 0 .2-.12 0 .11.07 0 .1 0s0 .06 0 .08a.23.23 0 00.24.05h.23c.05 0 0-.11 0-.11v.14c0 .02 0-.06.07-.06s0 .06 0 .09 0 0 .06 0h.08a.16.16 0 010-.07c0-.06.06 0 .1 0h.07a.06.06 0 01.08 0v-.09.3c.05 0 0-.11.09 0h.08v-.11s.1 0 .14-.05c0-.07.08-.11.05-.12s.08 0 .1 0 .05-.09 0-.15h.12c-.1-.12.11-.06 0-.16s.06 0 .1 0a.11.11 0 010-.15v-.18h.12s-.09-.09-.06-.11 0-.07.07-.08 0-.1-.12-.16c.12 0 0 .06.14 0s0-.14 0-.22 0 0 .07 0"/>
      <path class="cls-2" d="M132.48 27.76a4.55 4.55 0 00-4.15 2.68 4.42 4.42 0 00-1.85-.4 4.52 4.52 0 00-3.26 1.39 4.6 4.6 0 10-.87 5.19 4.56 4.56 0 008.29 0 4.49 4.49 0 001.84.39 4.61 4.61 0 000-9.22"/>
      <path class="cls-2" d="M132.48 27.94l.05.06.3-.06zm2.75 1.06l.2.12.22.15c.13.1.25.18.3.15l-.21-.16-.1-.07-.11-.07a.46.46 0 00-.15-.23 2.41 2.41 0 00-.35-.25l.27.2h-.14l-.13-.11-.12-.08-.22-.12-.1-.05h-.11l-.24-.16h-.36c-.1-.05-.05-.07 0-.08H133.42a1.57 1.57 0 00-.24 0h-.29a1 1 0 00.28.09h.69a.93.93 0 01.26.15l.15.05.15.07.15.07.14.1.14.1h.07l.06.06a2.11 2.11 0 00.27.18"/>
      <path class="cls-2" d="M123.10000000000002 31.839999999999996v.11h0v-.09m5.5-2.29l.13-.16a.36.36 0 00-.13.16m1-.31a.21.21 0 000-.06v.06M123.41 31a.34.34 0 01-.06-.06l.06.06m5.53-2a.21.21 0 00.11-.08.39.39 0 00-.11.08m6.63.29a1.38 1.38 0 00-.17-.15l.17.15m-21.26 4.94c0 .06 0 .06 0 0M119 28.5zM120.84 28.75z"/>
      <path class="cls-2" d="M122.34 29.77c0-.07 0 0 .12 0a2.2 2.2 0 00-.4-.34l-.2-.13-.11-.08-.13-.1c0 .05.11.09.16.15l-.24-.11-.14-.07-.14-.07-.13-.07-.13-.07a1.42 1.42 0 01-.22-.13h.09l-.23-.06-.24-.09-.21-.07a.29.29 0 00-.15 0c.11.06 0 0 .16.13h-.72v-.11h-.38c.1 0-.51 0-.51.1-.21 0 .08-.1.16-.14h-.22a.57.57 0 00-.21.07 1.55 1.55 0 00-.23-.06l-.26.1-.13.05-.13.07a.85.85 0 01-.19.1 2.18 2.18 0 00-.23.09 1 1 0 00-.23.12.41.41 0 00-.11.07l-.09.1a1.19 1.19 0 01-.31.24l-.32.2c-.21.2 0 .15 0 .19l-.19.17a.51.51 0 00-.13.12l-.15.17a2.06 2.06 0 00-.11.18c0 .07-.08.17-.16.32s-.11.07-.12 0 0 0 0-.06v-.08c0-.03 0-.22-.14 0a.77.77 0 01-.09.29v.24l-.11.28a7 7 0 00-.52 1.29h.09a4.87 4.87 0 000 .54l-.1-.32a2.35 2.35 0 010 .24 2.65 2.65 0 00.06.3v.42c0 .06-.05.12 0 .33a.72.72 0 010 .14.93.93 0 01.07.2c0 .08 0 .17.07.26s.07.18.12.28l-.15-.11a2.14 2.14 0 01-.06-.27c0 .09 0 .2.07.32l.19.36c.15.23.16.07.25.19s.15.2.16.28-.08.09-.16 0a1 1 0 01.22.19l.13.14.08.09.11.12c0 .05-.06 0-.11 0a.47.47 0 00.22.13l.06.16.11.13.11.09a.67.67 0 00.21.1l.24.09a2 2 0 01.31.19c-.08 0 0 0 .18.13l.25.13.18.12c-.2-.08 0 .18-.11.18a.48.48 0 00.15.07h.19a.14.14 0 01.09 0 .54.54 0 01.2 0h-.2a.62.62 0 00.2 0h.32c-.12 0 .17.08-.08.06a1.66 1.66 0 00.29.06h.56v-.12a.41.41 0 01.25.08h-.15a.26.26 0 00.24 0h.12a.44.44 0 01.15 0c-.06 0-.12-.08.07-.1 0 .08.3 0 .32 0s0 0 .15-.07.25-.08.25-.12c.23 0 0 .08 0 .12a.5.5 0 01.18-.1l.27-.09a1.4 1.4 0 00.42-.19 4.71 4.71 0 00.83-.7 1.09 1.09 0 01-.08.15.65.65 0 00.19-.16v-.1a.26.26 0 010-.11l.13-.15c0 .06 0 0 .07 0s.08.15.1.21 0 .1 0 .09v.05l.12.12a.79.79 0 00.23.17c0 .1-.05 0-.12 0s-.15-.11-.08 0l.12.11.12.11v.08s.23.19.24.16 0 .21 0 .23a2.84 2.84 0 01.26.24 1 1 0 00.26.19 1.1 1.1 0 01.37.17l.18.08h.14l.08.12c.29.12.29 0 .43 0h.19l.18.07h-.14l.08.06.3.13a2.49 2.49 0 00.39.06.81.81 0 00.37 0 .56.56 0 00-.16.08.83.83 0 01-.27 0 .56.56 0 00.38.07h.54v.06a1.16 1.16 0 00.76-.34c.07.06 0 .09-.11.19h.47l.17-.06.17-.07.17-.08a2.1 2.1 0 00.3-.15c.14 0 .08 0 0 .14a2.9 2.9 0 00.29-.19l.15-.09.14-.1a2.54 2.54 0 00.24-.2 1.19 1.19 0 00.15-.21c-.05.11.15-.09.27-.19s0-.07 0-.08l.14-.2.17-.26.18-.26a1.53 1.53 0 01.15-.23v.12l.08-.13a1.46 1.46 0 01.07-.19h.22l.28.05c.19 0 .39.08.65.15s-.16.08.12.12.11-.13.45-.09v.08l.24-.08c-.12-.05-.51-.05-.24-.12a.41.41 0 00.18 0h.53a1.46 1.46 0 00-.25.13 2.11 2.11 0 00.52 0h.22l.2-.07c.14 0 .26-.11.41-.16s.3-.12.49-.19a4 4 0 00.89-.8.26.26 0 010 .31 1.4 1.4 0 00.26-.34.45.45 0 01.23-.24.46.46 0 000-.09l.06-.12c.05-.09.12-.19.17-.29s.18-.4.12-.48.16-.32.09 0a1.78 1.78 0 01.12-.27c.05-.07.08-.13.12-.18a.89.89 0 00.19-.27c0-.12-.13.1-.06-.16l.05-.07v-.11c.06-.1 0 .13.08.15a.88.88 0 00.06-.26 2.26 2.26 0 000-.26v-.58.08-.11-.51l-.06-.18a1.71 1.71 0 01-.07-.21h.05a1.55 1.55 0 01-.16-.32c-.05-.15-.12-.29-.16-.39l-.07-.1-.07-.11-.15-.2c0-.12 0-.06.07 0a.89.89 0 00-.11-.19l.16.07c-.23-.3-.21-.39-.4-.57 0 .12.14.26 0 .18a.62.62 0 00-.21-.32c-.1-.06-.21-.12-.32-.2a.61.61 0 00.27.2c.09.12 0 .08 0 .15l.17.14v.09a2.2 2.2 0 01.24.28V30.28a1.46 1.46 0 01.14.28.87.87 0 00.15.26c0 .18-.14-.23-.09-.05a3.8 3.8 0 01.32 1.47 4.14 4.14 0 01-.29 1.51v-.1.32c0 .08-.08.1-.13.18s-.11.17-.18.25a2 2 0 00-.16.28.64.64 0 00-.1.23 3.31 3.31 0 01-.46.48l-.31.25-.31.22c0 .06-.08.1-.15.15l-.11.06-.12.06a1.22 1.22 0 00-.23.1.35.35 0 00-.09.07.19.19 0 00-.06.07l.08-.07s.05 0 0 0a.23.23 0 01-.07.08c-.07.06-.18.13-.2.16s-.1 0-.11-.07 0 0-.12-.06a1.38 1.38 0 00.2 0l-.07-.07-.1.08-.1.05-.21.08a.69.69 0 01-.2 0h-.88a2.11 2.11 0 00-.63 0s.13-.06.23-.09l-.58-.1a2 2 0 01-.33-.08h-.13l-.15-.06-.3-.12-.19.38-.05.09-.06.08c0 .18.11 0 .06.17s-.21.18-.13 0c-.17.14-.35.44-.61.72a2.52 2.52 0 01-.9.66 1 1 0 00-.19.2 1.34 1.34 0 01-.35.22v-.1c0-.03 0-.06.13-.13v-.06a4.76 4.76 0 01-.78.26 3.26 3.26 0 00-.64.2c0-.1-.1 0-.29-.07-.2.08-.3 0-.43 0a2.41 2.41 0 01-.38 0c-.06 0-.15-.06-.16-.09v.07c-.2 0-.07-.11-.32-.16a.21.21 0 000 .06 2.67 2.67 0 00-.26-.09c-.09 0-.15-.05-.15-.1h.07a.43.43 0 00-.17-.12l-.22-.1-.24-.11-.11-.06-.09-.07v.14c-.27-.15-.14-.13-.1-.16a.52.52 0 01-.17-.15l-.2-.21c-.11-.07-.08 0-.13 0l-.17-.22.16.09a1.36 1.36 0 01-.51-.5c0-.06-.07-.11-.1-.16v-.07l-.06-.1a1.37 1.37 0 00-.27-.36c-.05-.15 0-.12 0-.07s.09.13.06 0-.11-.23-.16-.35c-.17.15-.34.33-.51.5l-.13.13-.06.06-.13.12a2.47 2.47 0 01-.27.21 1.66 1.66 0 01-.27.13 7 7 0 01-1 .33 2.9 2.9 0 01-1.1.09h-.52c-.16.06-.5-.05-.74-.05 0 0 0-.07.05-.07l-.33-.1a.7.7 0 01-.23-.13h.08l-.18-.09-.17-.11-.18-.11a1 1 0 01-.16-.12c-.23-.15-.4-.31-.52-.37s-.08-.16-.08-.22l-.14-.15-.11-.13-.13-.12-.06-.05-.06-.07a1 1 0 010-.2l-.13-.05v-.15a2.16 2.16 0 01-.18-.3c-.05-.11-.08-.22-.12-.33s0-.22-.07-.32a.68.68 0 010-.14.6.6 0 010-.12v-.24-.11.15a1.36 1.36 0 000-.2v-.38-.2-.23a2.59 2.59 0 01.11-.54l.05-.06a.19.19 0 000-.09 1.45 1.45 0 00.09-.25c.07-.18.15-.36.25-.38a2.71 2.71 0 01.22-.39 1.41 1.41 0 00.19-.34 1 1 0 00.29-.28l.19-.2.1-.11.1-.1c0-.17.58-.48.67-.61s0 .07-.09.11a.36.36 0 00.25-.11.87.87 0 01.27-.15s.07 0 0 .07a8.08 8.08 0 011.38-.23 3.2 3.2 0 011.56.26c.27.12-.06-.14.3 0 .08.09-.22 0 0 .14a.78.78 0 01.43.18h-.18a.48.48 0 00.12.08h.09l.1.06a1.48 1.48 0 01.21.13.8.8 0 01.15.17h.11a1.29 1.29 0 01.42.45 1.36 1.36 0 01.11.2c0 .05.05.08.07.08s.09.11 0 0c.09.12.18.31.12.31l.15.17a1.72 1.72 0 01.14.22l-.09-.05c.07.11.16.2.22.3l-.07-.22a1 1 0 00.12.26c.11-.11.21-.23.3-.31s.14-.13.15-.08l-.08.08.24-.19h.07a.85.85 0 01.33-.32c.07 0 .18 0 .31-.11a2.35 2.35 0 01.42-.21 1.66 1.66 0 01.4-.17c.14 0 .25-.06.2-.06a1.55 1.55 0 01.29 0h.08a2.29 2.29 0 01.32-.06.69.69 0 00.27-.07l.32.12c.1-.07.27 0 .4 0s.25.08.28 0 .12.09.23.15h.25c.14 0 .27.1.41.15l.15-.28.07-.15v-.07a5.32 5.32 0 01.5-.82h.14a.41.41 0 00.06-.11l.05-.09a.38.38 0 01.13-.16c.05 0 0 0 0 .05a1.45 1.45 0 01.23-.19 1.42 1.42 0 01.23-.13 1.84 1.84 0 01.14-.14l.15-.12a2.09 2.09 0 00.29-.23c.13 0 .05.05 0 .09s-.15.1 0 .1c.37-.12.73-.3 1.15-.43v.07l.09-.05c.08 0 .18-.09.28-.14s.4-.19.31-.25c.06 0 .12-.07.12-.1s-.07-.06-.28-.08-.51.14-.6.07v.09c-.27.07-.29 0-.32 0a.12.12 0 00-.1 0h-.32.14a1.3 1.3 0 01-.34.15c-.05 0 0-.05.08-.08l-.24.15-.24.17v-.15c-.23.13-.19.15-.16.17s0 0 0 .05l-.07.05-.16.09c-.12 0 0-.06.07-.13a1 1 0 00-.35.19l-.14.13-.14.16c-.05 0 .11-.17-.11 0 .06 0 .12 0 0 .16 0-.12-.13.07-.28.18 0 0 .06 0 0 .09s-.13.11-.21.21l.21-.12a.84.84 0 01-.13.17.8.8 0 01-.13.13 2 2 0 00-.26.24.3.3 0 010-.11c-.08.1-.18.19-.26.31a.41.41 0 00-.05.09v.05a.87.87 0 000 .1.07.07 0 010 .05h-.22c-.11 0-.06-.09-.06-.14s0-.1-.3-.13c.11.07 0 .08-.14.08h-.53l.33-.1h-.41c0 .06-.09 0-.22 0a1 1 0 00-.39 0c.27-.17.29-.13.34-.3a2.91 2.91 0 01-.86.21l.31-.16a2 2 0 00-.81.23 3 3 0 00-.65.42c.07-.13-.11-.09 0-.24a4 4 0 00-.46.24l.08-.16a.43.43 0 01-.11.12l-.11.09c-.07.05-.1.09-.05.14s0-.06.11-.1 0 .15-.24.29-.07 0 0 0 .07-.07 0-.08a.3.3 0 01-.13.11.3.3 0 00-.15.1h.16a.4.4 0 01-.14.15h-.05l-.06.07c0-.07.06-.1 0-.11s0 0-.06 0a.43.43 0 00-.07.1s-.06.06-.07 0a.65.65 0 000-.18.41.41 0 010 .12v-.11-.05l-.05.05c-.05.05 0 0-.07 0a.33.33 0 010-.06v-.09l-.06-.11h.08a.22.22 0 01.06.07v.05a.58.58 0 00-.06-.2c-.06-.08-.12-.18-.19-.26l-.21-.26-.23-.21a1.86 1.86 0 00-.2-.14"/>
      <path class="cls-2" d="M123.17 30.64l.08.13v.06a.73.73 0 00-.09-.13s0-.05-.06 0m5.52 8.3h-.06.06m1.32-1a.15.15 0 00-.07 0h.07m-7 0c.13.09.19.11.21.09a.28.28 0 00-.21-.09m-1.82-.21h-.05.05m-6.12-1.7a1.49 1.49 0 01.17.18l.18.2s-.11-.14-.17-.21a.47.47 0 00-.18-.17m16.05.73zm-.86.72c-.06 0-.2.28-.13.23a1 1 0 01.13-.23m-5.25 1.51h-.09.15z"/>
      <path class="cls-9" d="M127.76 53.51c-.05 0 0 .07-.05.1s.08 0 .07.06 0-.08.06-.1 0 0 .06 0h.17c.07 0 0 0 0 0s-.06.08-.09.08 0 0 0-.07 0 0-.07 0 .08 0 .06.08h.1a.1.1 0 000 .12c0-.06.08 0 .08-.06s0 0 .05 0 0 0 0 .09a.22.22 0 01-.13 0V53.8a1.34 1.34 0 01.2 0c0 .09-.12 0-.12.12s0 0 .07 0 .08.05.12.08 0 0 .06 0h.06c-.06 0 0-.06 0-.08s.08 0 .13 0h.06c.06 0 0 .06 0 .11s-.05 0-.05 0v.09s.06.06.08.06c0-.07 0 0 0 0v-.1h-.06c-.06 0 0-.08.08 0s0 0 .05 0 0 0 0 .09v-.07-.08c0-.01 0 0 0 0v-.1c0-.1-.05-.07 0-.11s0-.11.07-.07v-.05c0 .06 0 0 0 0v.16c0 .1 0 0 0 0v-.13c0-.05 0 0 0 0v-.09.08s0-.06 0 0v-.09c0-.03 0 0 .06-.05s0 .09-.06 0 .06-.11.06-.2 0 0 .07.06 0 0-.06.09a.18.18 0 00.07-.16s.12 0 .13-.05 0 0-.06 0 .09 0 0 0a.09.09 0 01-.05-.06v.05h.07c.07 0 0 0 0-.07h.11c.06 0 0 0 0 .05v-.07-.05c0-.05-.06 0-.07 0h.06l-.05-.08v-.06V53.01h.08c.06 0 .06.09.15.14s0-.09 0-.09-.05-.07-.1-.09 0-.08 0-.11 0 0-.08-.06 0 0 0-.06.05 0 0 0H129.19s0-.09.17 0a.19.19 0 010-.12v-.06.08c0-.02 0 0 .06.06s-.09-.06-.07-.1 0 0-.05 0h-.06a.73.73 0 000-.09v-.07a.12.12 0 01.08 0s0-.08.05 0 0 0-.06 0c-.07 0 0 0 0-.07s.06 0 .05 0l.07.07.11.11s.06 0 .06-.08h.09c0-.06 0 0 .07 0h-.09c-.03 0 0 0 0 0h-.06c-.06 0 0 0 0-.05v-.06l.08.07a.06.06 0 01.05-.06h.05v-.08c0-.08.08 0 .1 0h-.05c-.05 0 0-.06 0-.08s-.05 0 0 0L130 52h-.06c-.06 0 0 0 0-.06s0 0-.05 0h.09c.03 0 0 0 0 0a.09.09 0 01.08 0s.06 0 0-.06l-.06-.06s.05 0 0 .06-.07-.11-.12-.12 0 0 .05.07v.05h-.09c-.03 0 .08 0 .08.07h-.05c0-.07-.1-.08-.09-.13a.06.06 0 010-.09c-.05-.06.05 0 0 0a.54.54 0 01.2.1v-.06c0-.06.05 0 .11.07a.05.05 0 00-.05 0v-.06c0-.06 0 0 0 0a.15.15 0 000-.07h-.08-.07c-.07 0 0 0 0 0s0-.05-.05-.07.05 0 .07 0-.05-.07 0-.07-.07-.07-.09 0 0 0 .05 0h-.07c-.02 0 0 .06 0 .07v.11c0 .04 0 0-.05-.08s.07 0 .06.1 0 0 0-.06 0 .06.06.08-.09 0-.07 0 0 0 0-.06 0 0-.06 0 .06 0 0 0v.33h.08c.05.06-.06 0 0 0h-.09v.07c0 .07-.08-.06-.07-.09s0-.06 0 0v-.07l-.05-.08s.06.08.1.12-.11 0-.08 0h-.07c-.01 0 0 0 0 0a.52.52 0 01.1.11v.06s0-.06-.06-.08-.05 0 0 0 0 .05-.09 0-.06 0-.06 0h-.05s-.07 0 0 .08.07.08.06.12h-.06.06c.06 0 0 .06 0 .07s0-.06-.08-.08a.08.08 0 01-.09 0l.06.1c.06.1 0-.05 0-.05v.05h-.08v-.05.07c0 .06-.11 0 0 .09s0 0 .05 0h-.05s.05 0 .06.06-.06-.06-.1 0c-.06 0 0 .12 0 .17a.1.1 0 010-.09c-.05 0 0 .05-.05.05s0 .06.05.07 0 0-.05 0 0 .06 0 .09v.05h.05c.1 0 0-.1.09-.07s0 .05 0 0v.1c0 .04-.05-.06-.07-.08h-.05l.08.07c.08.07 0 0 0 0v.06h-.05c.07 0 0-.07 0-.07s-.09-.07-.12-.11h-.05c.05.06 0 0 0 .1v.1-.08.08a.1.1 0 000 .06V52.97s0-.05 0 0v-.06s-.07 0 0-.08-.05 0-.06 0-.09 0-.11-.1a.14.14 0 00-.11 0v-.05s-.06 0 0-.09 0 0-.08 0h-.27c-.03 0 0-.07 0 0v-.06s0-.12-.09-.14-.08-.08-.15 0v-.06c-.06 0-.1-.08-.16 0-.1.08-.15 0-.25.07s0 0 0-.06-.09 0-.07 0-.07.07-.09.06a.58.58 0 01-.35-.17c0-.07-.06 0 0 0s0-.09-.07-.08 0-.07 0-.11 0 0-.06 0a.59.59 0 00-.07.2v.11c0 .01 0 .07.07 0s0 0 0 .08.08 0 .07.05 0 .05 0 .06a.08.08 0 010-.06v.06c0 .06 0 0 .06 0h.08v.09c0 .02 0 0 .06 0s.06-.11.1-.09-.07.1-.07.14 0 .12.08 0 0 0 0 .06 0 0 .06 0 0 0 0 .08 0-.06.07-.09 0 0 0 .11a.33.33 0 000 .06v-.06-.05c0-.05.07-.06.13-.06s0 0 0 .06v.07c0 .06 0 .12.11.11v-.06s.07-.1.09-.13 0 0 0 .05v.07s0 .06-.06.07 0 .05 0 .06v.09c.06 0 0 .06 0 .06l.08-.05c.08-.05 0 0 0 0s.08-.06.08 0v.06l.15-.08a.2.2 0 01.09-.12v.1a.49.49 0 000 .12M129.17999999999998 55.75zm.06-.12a.91.91 0 00-.25 0h.12-.06.08s.09 0 0 .05h.1c.19 0-.14 0 0-.05-.07 0 0 0 0 0M128.5 54.16zM128.38 54.1z"/>
      <path class="cls-9" d="M128.47 54.08h-.1s.08 0 0 0c.07 0 .09 0 0 0 .07 0-.07 0 0 0h.19-.09.08-.15.06-.11.2c.09 0 0 0 0 0a.46.46 0 00.16 0h.12-.33.15a.74.74 0 01-.18.06H128.64h-.1c-.12 0 0 0 0 0h.18-.2a.3.3 0 01.16 0h.1-.31.18-.12.05c-.12 0 .07 0 0 0h.12-.12.13-.12.27-.09.15-.19.3-.23c-.14 0 0 0 0 0h-.12.14-.07.13s.23 0 .13.06-.13 0-.12 0h.14a.59.59 0 01.14 0c-.09 0 .09 0 0 0h-.12c-.11 0 .1 0 0 .07a1.1 1.1 0 00.16 0h-.26.34-.29-.16.16a.65.65 0 01-.14 0h.36-.22a.43.43 0 01.11 0h.09-.07.06a.17.17 0 01.08 0c-.08 0-.07-.08 0-.12h-.07c.08 0 .18 0 0 0s.08 0 .07-.06H129 129.29c-.29 0 .13-.05-.08-.05h-.12.14s-.12 0 0-.06c.14 0-.09-.05 0-.08h-.18a1.72 1.72 0 01.2 0h.06s0-.05-.14 0h.09c-.11 0 0 0 0 0h-.06.08-.09.09-.07.05c.13 0 0 0 0 0h-.14.13-.09.11-.17.11c.09 0-.14 0 0-.06s0 0 .07-.09a.89.89 0 01-.15 0h.1v-.06H129.31c-.11 0 0 0 0-.05h-.05.08c.08 0-.15 0-.13-.06h.14-.09c.07 0 0 0 0 0h.05-.21.08c.11 0-.06 0 0 0h.08c.13 0-.09-.07 0-.11s-.12 0-.12 0h.15-.05.09c.05 0-.09 0 0 0h-.08c-.11 0 .1 0 0 0h.08-.13c.06 0-.09 0 0 0h.06-.09c.02 0 0 0 0 0h.05H129.23a.18.18 0 00-.11 0h.12-.12.1-.15.13-.1a.88.88 0 00-.17 0h.1-.39a.75.75 0 00-.22 0s.12 0 0 0h-.09s.07 0 0 0h-.06.14-.09c-.09 0 0 0 0 0h-.13a.54.54 0 01.13 0h-.07H128.34s-.11 0 0 0a1.77 1.77 0 01.23 0h-.18a.66.66 0 01.21 0h-.1.07-.36.19-.15.32-.25.07c.07 0 0 0 0 0H128.51a.4.4 0 00-.15 0s.07 0 0 0H128.4h-.05a.44.44 0 00-.15 0h.08M128.39 54.05s-.06 0 0 0M128.49 54.58zM128.44 54.57h0m.34.68zm0-.27z"/>
    </g>
  </g>
</svg>
