<svg xmlns="http://www.w3.org/2000/svg" viewBox="0 0 168 84">
  <defs>
    <style>
      .cls-1{fill:#efe5dc}.cls-1,.cls-4{fill-rule:evenodd}.cls-2,.cls-3{fill:none;stroke-linecap:round;stroke-width:5px}.cls-2{stroke:#f9f4ef}.cls-3{stroke:#fff;stroke-linejoin:round}.cls-4{fill:#c2aa9e}
    </style>
  </defs>
  <g id="레이어_2" data-name="레이어 2">
    <g id="레이어_14" data-name="레이어 14">
      <path class="cls-1" d="M84 42A42 42 0 1142 0a42 42 0 0142 42"/>
      <path class="cls-2" d="M54.5 21.48l-25 24.44"/>
      <path class="cls-3" d="M29.78 21.2l24.44 25"/>
      <path class="cls-4" d="M23.82 58.52c0-.33.31-.52.69-.52s.69.19.69.52v1.62h1.18c.34 0 .46.24.46.58s-.15.59-.46.59H25.2v1.36c0 .39-.29.56-.69.56s-.69-.17-.69-.56zm-4 3.38a1.25 1.25 0 10-1.33-1.26 1.24 1.24 0 001.35 1.26zm5.34 5.43c.3 0 .46.25.46.57s-.16.59-.46.59h-5.7c-.73 0-1-.28-1-1v-1.12c0-.57.24-.84.91-.84h4.11c.19 0 .23 0 .23-.22V65c0-.18 0-.21-.23-.21h-4.6c-.32 0-.46-.24-.46-.57s.14-.56.46-.56h5.42c.7 0 .9.29.9.88v1.14c0 .63-.23.89-.94.89h-4.07c-.19 0-.23 0-.23.19v.36c0 .2 0 .22.22.22zm-5.34-9a2.38 2.38 0 110 4.72 2.38 2.38 0 110-4.72zm15.54.23v9.14c0 .4-.29.59-.7.59s-.69-.19-.69-.59v-5.31h-1.23c-.33 0-.48-.23-.48-.59s.15-.62.48-.62H34v-2.66c0-.33.31-.53.69-.53s.7.2.7.53m-7.81.24h3.21c.71 0 1 .31 1 1v2c0 .69-.27 1-1 1h-2c-.2 0-.23 0-.23.23v1.27c0 .25 0 .27.27.28a13.73 13.73 0 003.34-.24.49.49 0 01.58.44.57.57 0 01-.33.7 15.86 15.86 0 01-4.21.31c-.74 0-1.07-.32-1.07-1.08v-2.14c0-.65.27-.93 1-.93h2c.21 0 .25-.05.25-.24v-1.18c0-.18 0-.22-.26-.22h-2.56a.55.55 0 01-.49-.59c0-.32.18-.61.49-.61m17.31-.24v9.14c0 .4-.3.59-.69.59s-.7-.19-.7-.59v-9.14c0-.33.3-.53.7-.53s.69.2.69.53m-7.37 7a.66.66 0 01-.94-.16.61.61 0 01.16-.91 4 4 0 002-3.81v-.6H37c-.33 0-.47-.29-.47-.6s.15-.61.47-.61h4.91c.32 0 .47.3.47.61s-.14.6-.47.6h-1.7v.62a3.63 3.63 0 002.11 3.63.62.62 0 01.14.88.63.63 0 01-.93.22 4.33 4.33 0 01-2-2.23 4.4 4.4 0 01-2 2.36m13.27-3.1c0 .24 0 .25.26.25h3.7c.25 0 .29 0 .29-.27v-1.12h-4.27v1.19zm1.39 1.41h-1.78c-.78 0-1.07-.29-1.07-1v-3.89c0-.32.36-.5.71-.5s.73.18.73.5v1.21H55v-1.21c0-.32.34-.5.69-.5s.74.18.74.5v3.8c0 .82-.26 1.14-1.08 1.14h-1.72v1.79h3.59c.31 0 .46.27.46.61s-.15.59-.46.59h-8.65c-.29 0-.45-.25-.45-.59s.16-.61.45-.61h3.6zm10.32-2.16c1.49 0 2.07-.46 2.07-1.13s-.58-1.12-2.07-1.12-2.08.46-2.08 1.12.57 1.18 2.06 1.18zm0-3.43c2.49 0 3.52 1 3.52 2.3s-1 2.32-3.52 2.32S59 61.92 59 60.59s1-2.3 3.49-2.3zm-4.34 6.59c-.3 0-.45-.26-.45-.61s.15-.58.45-.58h8.63c.31 0 .46.26.46.58s-.15.61-.46.61H65v3c0 .41-.33.57-.72.57s-.66-.16-.66-.57v-3H61.4v3c0 .41-.32.58-.72.58s-.67-.17-.67-.58v-3z"/>
      <path class="cls-1" d="M168 42a42 42 0 11-42-42 42 42 0 0142 42"/>
      <path class="cls-2" d="M138.5 21.48l-25 24.44"/>
      <path class="cls-3" d="M113.78 21.2l24.44 25"/>
      <path class="cls-4" d="M107.82 58.52c0-.33.31-.52.69-.52s.69.19.69.52v1.62h1.18c.34 0 .46.24.46.58s-.15.59-.46.59h-1.18v1.36c0 .39-.29.56-.69.56s-.69-.17-.69-.56zm-4 3.38a1.25 1.25 0 10-1.33-1.26 1.24 1.24 0 001.35 1.26zm5.34 5.43c.3 0 .46.25.46.57s-.16.59-.46.59h-5.7c-.73 0-1-.28-1-1v-1.12c0-.57.24-.84.91-.84h4.11c.19 0 .23 0 .23-.22V65c0-.18 0-.21-.23-.21h-4.6c-.32 0-.46-.24-.46-.57s.14-.56.46-.56h5.38c.7 0 .9.29.9.88v1.14c0 .63-.23.89-.94.89h-4.07c-.19 0-.23 0-.23.19v.36c0 .2 0 .22.22.22zm-5.34-9a2.38 2.38 0 11-2.68 2.35 2.42 2.42 0 012.7-2.39zm15.54.23v9.14c0 .4-.29.59-.7.59s-.69-.19-.69-.59v-5.31h-1.25c-.33 0-.48-.23-.48-.59s.15-.62.48-.62H118v-2.66c0-.33.31-.53.69-.53s.7.2.7.53m-7.81.24h3.21c.71 0 1 .31 1 1v2c0 .69-.27 1-1 1h-2c-.2 0-.23 0-.23.23v1.27c0 .25 0 .27.27.28a13.73 13.73 0 003.34-.24.49.49 0 01.58.44.57.57 0 01-.33.7 15.86 15.86 0 01-4.21.31c-.74 0-1.07-.32-1.07-1.08v-2.14c0-.65.27-.93 1-.93h2c.21 0 .25-.05.25-.24v-1.18c0-.18 0-.22-.26-.22h-2.52a.55.55 0 01-.49-.59c0-.32.18-.61.49-.61m17.31-.24v9.14c0 .4-.3.59-.69.59s-.7-.19-.7-.59v-9.14c0-.33.3-.53.7-.53s.69.2.69.53m-7.37 7a.66.66 0 01-.94-.16.61.61 0 01.16-.91 4 4 0 002-3.81v-.6H121c-.33 0-.47-.29-.47-.6s.15-.61.47-.61h4.91c.32 0 .47.3.47.61s-.14.6-.47.6h-1.72v.62a3.63 3.63 0 002.11 3.63.62.62 0 01.14.88.63.63 0 01-.93.22 4.33 4.33 0 01-2-2.23 4.4 4.4 0 01-2 2.36m13.27-3.1c0 .24.05.25.26.25h3.7c.25 0 .29 0 .29-.27v-1.12h-4.25v1.19zm1.39 1.41h-1.76c-.78 0-1.07-.29-1.07-1v-3.89c0-.32.36-.5.71-.5s.73.18.73.5v1.21H139v-1.21c0-.32.34-.5.69-.5s.74.18.74.5v3.8c0 .82-.26 1.14-1.08 1.14h-1.75v1.79h3.59c.31 0 .46.27.46.61s-.15.59-.46.59h-8.65c-.29 0-.45-.25-.45-.59s.16-.61.45-.61h3.6zm10.32-2.16c1.49 0 2.07-.46 2.07-1.13s-.58-1.12-2.07-1.12-2.08.46-2.08 1.12.59 1.18 2.08 1.18zm0-3.43c2.49 0 3.52 1 3.52 2.3s-1 2.32-3.52 2.32-3.53-1-3.53-2.32 1.04-2.25 3.53-2.25zm-4.34 6.59c-.3 0-.45-.26-.45-.61s.15-.58.45-.58h8.65c.31 0 .46.26.46.58s-.15.61-.46.61H149v3c0 .41-.33.57-.72.57s-.66-.16-.66-.57v-3h-2.22v3c0 .41-.32.58-.72.58s-.67-.17-.67-.58v-3z"/>
    </g>
  </g>
</svg>
