<svg xmlns="http://www.w3.org/2000/svg" viewBox="0 0 168.04 84">
  <defs>
    <style>
      .cls-10,.cls-11,.cls-2,.cls-3,.cls-4,.cls-5,.cls-6,.cls-7,.cls-9{fill-rule:evenodd}.cls-2{fill:#dfc6ac}.cls-3{fill:#fff}.cls-4{fill:#1f1c1c}.cls-5{fill:#937c77}.cls-6{fill:#e1d5cb}.cls-7{fill:#c2aa9e}.cls-9{fill:#b18978}.cls-10{fill:#221e1f}.cls-11{fill:#eaf1f7}
    </style>
  </defs>
  <g id="레이어_2" data-name="레이어 2">
    <g id="레이어_3" data-name="레이어 3">
      <path d="M84 42A42 42 0 1142 0a42 42 0 0142 42" fill-rule="evenodd" fill="#efe5dc"/>
      <path class="cls-2" d="M61.08 52.57a.64.64 0 000-.24 1.48 1.48 0 000 .21m-.65 3.28"/>
      <path class="cls-3" d="M22.57 63.84h.3zm1.3-32.57h-.24a1 1 0 01.25 0zm1.77-.14h-.45a1.38 1.38 0 01.45 0zm-6.59 1a68.72 68.72 0 01-.64 10.16 34.09 34.09 0 01-.08 3.81v1.71c0 .57-.05 1.13-.08 1.72-.06 1.16-.12 2.3-.16 3.47v5.23c0 .59 0 1.17.09 1.76.07-.25.18 0 .22.24l-.06.07.16.36c0 .34-.16.2-.2-.09l.06 1.64v2.88h3.34c.12-.21.93 0 1-.22.08 0 0 0-.05.09a5.31 5.31 0 012.46.19c4.83.25 9.49.16 14.24.29s9.55-.1 14.49-.1c.76-.33 1.79-.15 2.69-.44l-.06.11a2.46 2.46 0 01.89 0h.61l1 .12c0-.12.57 0 .21-.23a.54.54 0 01.36 0H60a1.36 1.36 0 000-.8c.07 0-.13 0-.08-.18l-.08-.33c0-.1 0-.17-.05-.24s0-.2 0-.24 0-.06.07 0 .1 0 .14-.12a2.07 2.07 0 00.05-.39v-.47a22.93 22.93 0 01.36-6.4c0 .11-.17.12-.14-.08.35-.15 0-.72.21-1.07.07 0 .06.22.07.32.28-.93.22-1.77.5-2.66a4.53 4.53 0 010-.52c0-.25.09-.5.14-.74a4 4 0 00.14-1.26c.11.16.13-.39.21-.57a1.2 1.2 0 01-.09-.57 5.07 5.07 0 01.09-.65 3.41 3.41 0 00.08-1.34h.06a72.15 72.15 0 00.07-7.51c0-1.4.32-3 .16-4.51 0-.14-.06-.15-.09-.16v-.07c0-.32 0-.33.07-.28s.07.15.1 0 0-.34 0-.52a3.07 3.07 0 00-.06-.52 1.83 1.83 0 00-.14-.47 1.38 1.38 0 00-.28-.43 1.71 1.71 0 00-.43-.29 2.1 2.1 0 00-.52-.16 4.21 4.21 0 00-.62 0h-.61c-.11.07-.38.09-.29.18-1-.25-2.46.12-3.54-.06.38.33-.63.19-1 .27-.21 0-.24-.1-.17-.16a11.43 11.43 0 01-2.18 0 2.24 2.24 0 00-.5.13l-.25.05H51a3.35 3.35 0 00-1.25-.09h-1.47c.11 0 .13.1.12.17a5.28 5.28 0 01.32.77 3.74 3.74 0 01.12.45 2.43 2.43 0 01.06.44l-.17-.17-.18-.19V33.75l.06.27V35.18a5.52 5.52 0 01-.25 1.3 9.9 9.9 0 01-.51 1.27c-.2.4-.42.79-.64 1.17H47l-.2.25-.22.22a4 4 0 01-.51.41 5.43 5.43 0 01-1.14.61 12.53 12.53 0 01-2.55.64l-.39-.08-.36.03h-.22l-.21-.06-.38-.09h-.75a2.85 2.85 0 00-.29 0h-.33a.75.75 0 01-.38-.37 8.11 8.11 0 01-1-.69 3 3 0 00-.93-.56l.07-.12a5.42 5.42 0 01-1-.65 2.92 2.92 0 01-.76-.94 2.72 2.72 0 01-.42-.34c-.13-.11-.22-.18-.2 0-.19-.24.1-.28-.18-.47l.31.14a7.5 7.5 0 01-.81-2.14 5.06 5.06 0 01-.1-1.1 5.46 5.46 0 010-.57v-.34l.06-.2V32.35a2 2 0 00.24-.3l.3-.39c.1-.14.22-.29.32-.45l.18-.24.17-.24-.08-.08v-.12h-.14a7.36 7.36 0 01-1 0c-.44.06-.93.05-1.42.07h-.64a.91.91 0 00-.4.16v-.14h-2.8c-.58 0-.57.2-1 .3v-.14A1.37 1.37 0 0027 31h-.2a3.72 3.72 0 01-.66 0 2.3 2.3 0 00.92-.48c-.63 0-1.22.38-1.61.2-.5 0-.89.07-.95.24-.05 0-.3-.07-.07-.16a3.25 3.25 0 00-.86.17 2.43 2.43 0 00.27 0c-.16.14-.48.18-.47.32l-.49.05c0-.12.42-.25.15-.3l-.81.36-1.8.18-.45.55h-1z"/>
      <path class="cls-2" d="M54.3 31.94h.29zM23.53 31a.2.2 0 00.08 0h-.08"/>
      <path class="cls-4" d="M45.96 49.839999999999996zM34.83 49.54zm-.93-1.06"/>
      <path class="cls-5" d="M35.63 45.87s-.06 0 0 0m-.09-.25zm0-.09c0-.05-.07-.11-.06-.15s0 .08 0 .13zm-.08-.36c0 .06.07 0 0 0m-.06.23zm0-.47v-.06c0-.01 0 0-.05 0zm0 .16h.08zm0-.35zm0-.13a.13.13 0 00-.09 0 .07.07 0 010 .07h.05m0 .21zm0 .2h0m0-.1h-.05zm0-.05zm-.05-.21h-.06v.06M35 44.5zM35.01 44.57a.17.17 0 010-.08v.07zm0 .11h.08c.08 0 0 0 0-.06h-.07a.23.23 0 000 .05h-.09m.15.34v-.09a.27.27 0 00-.07.08m-.09-.18h-.05m0-.38h-.07zm.13-.04zm-2.11-.07h.05-.08M34 44h0m.66.18"/>
      <path class="cls-5" d="M33.22 44.34v-.05.16h-.08a.23.23 0 010-.17zm.4 0v-.07.07a.53.53 0 010-.13.27.27 0 010 .09zm.59-.1c.07 0 0 .06 0 0s.14-.11.21 0 0 .1 0 .14-.06-.06-.09-.07h-.07.07l-.27-.07a.24.24 0 01.15-.04zm1.36 1.95h-.07l.08-.09c-.07 0 0-.11-.06-.12s-.09 0-.14 0 0 0 0-.08a1.61 1.61 0 00-.47-1.15l-.09-.08s.12-.1.14-.18 0 0-.07 0 0 .1 0 .1v-.07c0-.07-.07 0-.11.07l-.12-.09-.13-.08s.07 0 .05-.06.11 0 .14 0v.06s0 .11.09.06v-.06h.16c.03 0 0 0 0-.08 0 .09-.11-.08-.12 0v-.15c0-.08 0 0 0 0h-.13c-.03 0 0 0 0 0h-.05v-.1s-.06-.06-.09 0-.08 0 0 0h-.28a.29.29 0 00-.13 0h-.06a.18.18 0 01-.09 0 .16.16 0 01-.1 0h-.38a.24.24 0 00-.13.07h-.19c-.07 0 0 0 0 0h-.13c-.03 0-.06.08-.11.07s0 0 0 .05 0 0-.1 0-.06.09 0 .16-.05 0-.05.05v.1s-.07 0-.08-.06v.24c0-.01-.14.21-.25.31.11 0-.07 0 0 .08s-.05 0-.06 0-.08.09 0 .16.07.1.14.12 0 .05 0 .08-.06 0-.06 0-.06.15 0 .15a.49.49 0 000 .12c.08 0 0 0 0 .09v.14c.1 0 0 .09 0 .14s-.11.11-.11.15.06 0 .09.06-.08 0-.08 0 .14.08.11.16 0 0 .06 0 0 .15.05.15.08.08.13.08 0 .09 0 .11.09 0 0 .1l.08.07a.1.1 0 00.13 0c0 .09.06.1.17.09s0 0 .07.07a.16.16 0 00.12.08c.06 0 .1.06.15.1s.09.06.14 0h.08c-.08 0 0-.07 0-.11s.07.08 0 .07c0 .09.1.06.08.12a2.43 2.43 0 00.53.08v-.07h.06v.06c0 .06.06 0 .06-.06v.08s0-.07.07-.08h.07s.06 0 0-.07.11 0 .17 0 .11-.07.13-.06a.23.23 0 01.11-.11s-.06 0 0-.07.1 0 .19 0 0 0 0-.06v-.07c0-.01 0 0 .08 0s.06-.09.1-.12a.4.4 0 00.13-.13h.1s-.07-.07 0-.07a.63.63 0 00.17-.31 1.54 1.54 0 010-.17.7.7 0 01.1-.16zM34.63 44.199999999999996s-.1 0 0 0M34.2 44.28h-.05M35.63 46zm-.07-.07h.06m12.42-.3zm0-.09c0-.05-.07-.11-.06-.15s0 .08 0 .13zm-.08-.36c0 .06.07 0 0 0m0 .23zm0-.47v-.06zm0 .16h.07zm0-.35zm0-.13a.13.13 0 00-.09 0v.07c0 .07 0 0 0 0m0 .21zm0 .2h0m0-.1zm0-.05zm0-.21a.09.09 0 01-.05 0v.06m-.2-.19zM47.64 44.68a.11.11 0 010-.08h-.06l.06.07zm0 .11h.08c.08 0 0 0 0-.06h-.07l.06.05h-.1m.16.34a.17.17 0 010-.09l-.07.08m-.08-.18h-.06m-.05-.38h-.07zm-.08-.06zm-2.11-.07h-.08m1.22-.42h0m.66.18M45.67 44.34v-.05.16h-.08a.42.42 0 010-.17zm.39 0v-.07.07a.53.53 0 010-.13.27.27 0 01.13.08zm.59-.1c.07 0 0 .06 0 0s.14-.11.21 0 0 .1 0 .14-.05-.06-.09-.07h-.06.07l-.27-.07a.22.22 0 01.14-.04zM48 46.15h-.07l.08-.09c-.06 0 0-.11-.06-.12s-.09 0-.14 0 0 0 0-.08a1.61 1.61 0 00-.47-1.15l-.09-.08s.11-.1.13-.18 0 0-.06 0 0 .1 0 .1v-.07c0-.07-.07 0-.11.07l-.12-.09-.09-.01s.07 0 .05-.06.11 0 .14 0v.06s0-.05 0 0 0 .11.09.06v-.06h.15c.03 0 0 0 0-.08 0 .09-.11-.08-.12 0v-.15c0-.08 0 0 0 0h-.13c-.03 0 0 0 0 0h-.05v-.1h-.05a.1.1 0 00-.1 0s-.07 0 0 0h-.09a.29.29 0 00-.13 0h-.06a.18.18 0 01-.09 0 .2.2 0 01-.11 0h-.38a.28.28 0 00-.13.07h-.19c-.07 0 0 0 0 0h-.13c-.03 0-.06.08-.11.07s0 0 0 .05 0 0-.1 0-.06.09 0 .16 0 0 0 .05h-.05v.1s-.08 0-.09-.06v.24c0-.01-.15.21-.26.31.11 0-.07 0 0 .08s-.05 0-.06 0-.08.09 0 .16h-.05c0 .08.07.1.14.12s0 .05 0 .08-.06 0-.06 0-.06.15 0 .15a.48.48 0 000 .12c.07 0 0 0 0 .09-.05.1 0 0 0 .14.1 0 0 .09 0 .14s-.12.11-.12.15.06 0 .09.06-.08 0-.07 0 .14.08.1.16 0 0 .06 0 0 .15.06.15.09.08.13.08 0 .09 0 .11.09 0 0 .1l.08.07c0 .06.08 0 .12 0s.06.1.17.09 0 0 .06.07a.16.16 0 00.12.08c.07 0 .11.06.15.1s.1.06.14 0h.08c-.08 0 0-.07 0-.11s.07.08 0 .07c0 .09.1.06.08.12a2.52 2.52 0 00.53.08v-.07h.06v.06c0 .06.06 0 .06-.06v.08s0-.07.07-.08h.08-.05s.07 0 0-.07.1 0 .16 0 .12-.07.14-.06a.18.18 0 01.1-.11s-.06 0 0-.07.1 0 .19 0 0 0 0-.06v-.07c0-.01 0 0 .08 0a.22.22 0 01.11-.12.5.5 0 00-.11.06h-.05.11s-.07-.07 0-.07a.5.5 0 00.17-.31 1.54 1.54 0 010-.17 1.4 1.4 0 01.1-.16zM47.08 44.199999999999996s-.11 0 0 0m.99 1.8zm-.07-.08h.06H48"/>
      <path class="cls-6" d="M47.39 59.19l.2-.17-.27.13zm2.61-1.8a1.86 1.86 0 01-.1.2l-.06.09-.06.1c-.06 0-.13 0-.22.07a3.15 3.15 0 00-.29.22l.23-.16c-.06.05 0 .08 0 .13a1.54 1.54 0 00-.23.14l-.17.12a1.12 1.12 0 01-.41.18l-.25.19c-.09 0-.08 0-.06-.06a2.76 2.76 0 01-.73.44.81.81 0 00.51-.2.88.88 0 01.51-.22l.24-.14.27-.13.27-.14a1.08 1.08 0 00.24-.18l.14-.17a1.33 1.33 0 00.14-.19.56.56 0 00.09-.17v-.12M46.21 52.36"/>
      <path class="cls-6" d="M50.17 54c0-.05-.05-.09-.07-.14s0-.13.14 0a.22.22 0 000 .08l.07.06c0 .14-.09.05-.14 0zm-1.08-1.2h.13l.12.07.12.07a1.18 1.18 0 00.23.14.24.24 0 00.17.05s.21.23-.07.07a.61.61 0 01.23.37 1.18 1.18 0 000 .2 3.46 3.46 0 00-.93-.97zm-.29-.16a.34.34 0 01.18.11l-.18-.11zm-.19-.1a3.16 3.16 0 00-1.37-.31l-.55.08a1.07 1.07 0 00.27-.06h.36a1.4 1.4 0 01.42.08 2 2 0 01.54 0l.46.11a.37.37 0 01-.13.1zM46 52.41c-.11-.06-.42 0-.21-.11.26 0 .21-.11.53-.06a.75.75 0 00-.2.15h.36zm-.12 0h-.22a.35.35 0 01.22-.05zm-1 .15a1.66 1.66 0 01.59-.09l-.6.08zm-5.75.44h-.28a.15.15 0 01.07 0 1.74 1.74 0 01.32 0h-.11zm-2.27-.24h-.14.13s.04-.01.01 0zm14 2.8v-.35l-.06-.36a4.05 4.05 0 00-.54-1.33h.08l-.25-.17a1 1 0 00-.25-.43 2.13 2.13 0 00-.22-.21.49.49 0 00-.22-.09l-.52-.37a2.23 2.23 0 00-.67-.3 1.1 1.1 0 01-.45-.06.45.45 0 00-.43 0h.1c.08 0 0 .07-.06.1h-.14c-.14-.11 0-.09-.18-.19h.17v-.1c-.48.35-1 0-1.3.27-.22 0-.36.13-.51.19s.08-.1.16-.15a12.64 12.64 0 01-1.45.21c-.14.1.07.09-.08.17s-.23 0-.07-.11c-.38-.08-1.2.24-1.77.17-.29.11-.1.13-.55.23.1-.06-.12-.17.15-.2v-.06l-.72.06a1.2 1.2 0 00-.55.16c0-.12-.08 0-.25-.08-.16.11-.24 0-.35 0-.11 0-.21.05-.32.06s-.13 0-.14-.08v.08c-.18 0-.08-.1-.29-.1v.07c-.14 0-.36 0-.38-.07s0 0 .07 0c-.21-.14-.56 0-.82-.1l.06.14c-.27 0-.16 0-.15-.09-.17 0-.2-.06-.43-.1s-.06 0-.1.07l-.23-.06h.16c-.38.15-.9-.14-1.16 0-.13-.06.13-.07.06-.1-.41-.14-1 0-1.31-.15a6.23 6.23 0 00-.9-.19l-.48-.07h-1.06a.34.34 0 01-.12.06l-.18.07a.71.71 0 00-.18.08.53.53 0 00-.15.11s-.05-.06 0-.1l-.15.07-.14.08a1.07 1.07 0 01-.23.1.18.18 0 01.05-.07 3 3 0 00-.34.2 3.81 3.81 0 00-.32.24 3 3 0 00-.25.26 1.54 1.54 0 00-.14.22c-.1.13-.14.09-.2.1a1 1 0 00-.12.16 1 1 0 00-.07.15l-.06.16a.94.94 0 000 .16 1 1 0 01-.14.15v.13c0 .11-.08 0-.13.08a.51.51 0 010 .17 1.22 1.22 0 010 .17v.56a.22.22 0 010 .08 2.46 2.46 0 000 .26h.05a.5.5 0 010 .21c0 .06 0 .09-.06 0V56.2a1.8 1.8 0 01.05.19c0 .06.05.12.08.17a1.51 1.51 0 00.09.18l.11.2a1.57 1.57 0 00.12.21 2.29 2.29 0 00.15.24c0 .09.08.24.21.37l.09.1.09.09a.22.22 0 01.07.17c.07.06.14.1.19.15l.16.12a.77.77 0 00.33.15.85.85 0 00.31.21l.24.11.25.08V59a1.16 1.16 0 01.4.06.67.67 0 00.4 0h-.12a.25.25 0 00.22.09.73.73 0 01.28 0v.08a19 19 0 002.58.51c.25 0-.07-.13.26-.07.08.07-.18.09 0 .15a.75.75 0 01.42 0s0 .07-.16.07c.11.07.51 0 .73.1 0 0 0-.05.08-.07.36-.06.78.18.82.13s.12 0 0 0c.12 0 .31 0 .27.1a.52.52 0 01.23-.07l-.06.06a1.33 1.33 0 01.19 0l-.09-.05c.14.07.43 0 .42.07l.27.07a.68.68 0 01.4-.08c.07.13.47 0 .7.05a5.74 5.74 0 01.57-.07c.17 0 .41 0 .33.06.14 0 .45-.05.51-.14l.3.1c.16-.18.58 0 .58-.17.17 0 .13.06.25.08a1.72 1.72 0 01.68-.14 7.66 7.66 0 00.82-.19l.08.12c.17 0 .2-.15.36-.14a1.47 1.47 0 01.5 0c.22-.13.42-.13.61-.27.21.08-.27.1-.09.18a3.29 3.29 0 001.06-.26v.08l.33-.25c.13-.12.24-.24.21-.3 2.36-1 3.32-1.52 3.32-3.37a3.37 3.37 0 00-.24-1.23l.12.19a.85.85 0 01.09.24 2.32 2.32 0 01.06.38.53.53 0 010 .15v.15a.71.71 0 01.06.19h-.06a.53.53 0 01.09.3 1.44 1.44 0 010 .36 2.46 2.46 0 010 .47c-.06.1-.07 0-.08 0s0-.07-.06.15a1 1 0 00-.07-.15.71.71 0 01-.06.19.67.67 0 01-.06.12 2.09 2.09 0 00-.13.23c.1 0 .18-.2.16-.07a.87.87 0 00-.14.12 1 1 0 00-.08.14 1.3 1.3 0 01-.14.33l.11-.13a.24.24 0 00.05-.14c.09-.11.08 0 .14-.07l.06-.2h.09a2.24 2.24 0 00.11-.34c.08.06.11-.29.16-.13a.75.75 0 010-.16v-.14a.48.48 0 000-.29c0-.07 0 0 .05 0s0 .13 0 0v-.35-.35z"/>
      <path class="cls-7" d="M37.19 32.62a.1.1 0 01.08.09c.07-.05-.1-.09 0-.22s0 .15.09.22a.54.54 0 00-.13.33 1.49 1.49 0 000 .42l.07.46a1.77 1.77 0 010 .45c.16-.08.12.22.21.31-.18 0 .14.28.09.46l.13-.15a.5.5 0 00.23.35c.09.09.18.15.13.29s-.14 0-.21-.05a.38.38 0 00.06.23.9.9 0 00.15.19c.12.12.23.24.21.38.07 0 .12-.15.3 0l.05.16.06.17c0 .1.07.19 0 .18A.65.65 0 0039 37a.31.31 0 01.11.15h-.15a.88.88 0 00.26.25 2.3 2.3 0 00.32.15c0 .1.12.2.26.31a1.66 1.66 0 00.21.16.83.83 0 01.2.16.35.35 0 01.31.09c.09.05.18.09.23 0s0 .06 0 .08.26-.12.39-.09l-.08.12c-.08.15.32.14.4.22-.07-.11.18 0 .2-.07h.53c.19 0 .06.17 0 .15a.59.59 0 00.45 0c-.06 0-.07 0 0 0a.57.57 0 01.18 0h-.17.22a.27.27 0 01.13 0v.12a1 1 0 00.25-.09c.09 0 .16-.1.16-.12H43.64l.24-.06a2.34 2.34 0 00.24-.09l.11-.06.11-.07.19-.13.16-.15.06-.06v-.06c0 .05 0 .08 0 0a1.86 1.86 0 00.14-.2c0-.06.06-.1.09-.08.07-.14.16 0 .32-.23a.1.1 0 00-.07-.05l.11-.08a1.47 1.47 0 00.1-.13 1.51 1.51 0 00.16-.31c0-.11.08-.23.12-.34a1.43 1.43 0 01.16-.3s0 .11.05.16a2.28 2.28 0 00.07-1s.09 0 .1.13a1.16 1.16 0 000-.18v-.19a.47.47 0 00-.07-.28c-.07.16.06 0 0 .13s-.1 0-.13 0a.5.5 0 010-.27A3.7 3.7 0 0046 34c.06-.15 0 .12.11.06s.08-.56.08-.6-.09-.13-.13-.11c-.07-.17.09-.1.06-.23l-.39-.39c.05 0 .1-.17.18 0a1 1 0 00-.31-.49l-.21-.79c.07.06.13-.13.22 0a2.81 2.81 0 01-.17-.93c-.09.11-.13 0-.17-.09s-.07-.23-.14-.24a1.49 1.49 0 010-.21c0-.06.13 0 .15-.11a5.1 5.1 0 01-.07-1 5.59 5.59 0 00-.09-1.07s.07 0 .08.07c.06-.17 0-.18-.06-.21a1.5 1.5 0 010-.2v.07a.7.7 0 010-.35.65.65 0 000-.37s0 .06.07.11v-.74s.06.06.07.13c.09-.16 0-.24 0-.35v-.15c0-.06.12-.13.11-.1a.92.92 0 010-.28v-.12l.06-.17a1.79 1.79 0 00.18-.19c.39-1.08.94-2.12 1.42-3.17l.08-.12c.21-.05-.07.3.1.26-.14-.08.06-.2.21-.53.06-.14.19-.16.24-.32 0-.2.39-.2.28-.4h.17c0-.24.21-.19.22-.45.23-.18.21-.59.39-.59a1.39 1.39 0 00.23-.48v-.07a.24.24 0 01.06.11c.38-.54.86-1.08 1.27-1.6a26.91 26.91 0 013.75-3.33l.41-.26a7.45 7.45 0 001-.71l.57-.34s0 .05.07 0l.24-.19a19.25 19.25 0 012.4-1.1c0 .07.12.09.18.14s-.07-.11-.11-.16l.57-.2-.38-.04.14-.11a2.92 2.92 0 00.39-.26 1.22 1.22 0 00.22-.26.86.86 0 00.14-.27l-2.38.93-.48.19v-.12a.19.19 0 01-.07.14l-.27.1a1 1 0 00-.26.07c-.25 0-.07.05-.07.1h-.1c-.13 0-.09-.17-.26-.2s-.34.15-.55.24a1.52 1.52 0 01-.61.15 3.65 3.65 0 00-.73.47c-.23.09-.06-.19-.26 0 0-.07-.06-.12-.1-.17s-.45.18-.2.25l-.55.19-.53.26c.11-.06.09-.18 0-.19a1.15 1.15 0 01-.27.27 2.27 2.27 0 01-.41.22c.06.11.15.06.17.18s-.08.13-.15.15-.17-.27-.44-.14c0-.22.46-.2.25-.32a.86.86 0 01.68-.41c.17-.26-.2.07-.22-.1-.21.11-.28.25-.6.43 0 .08.16 0 0 .17-.21.3-.41.08-.49.11l.12-.12c-.22.05-.23.19-.44.29-.16-.17.31-.19.32-.36l-.22-.06c-.33.15 0 .21-.35.33v-.09l-.18.15c0 .08.14.16.31.06 0 .25-.15.11-.39.3 0 .16.11-.07.17 0s-.1.2-.22.29-.18 0-.31-.07c0 0 .19-.16.21-.08.21-.27-.25-.16-.1-.35-.25.06-.17.18-.25.28s0 .13.09.14c-.18.51-.35-.07-.66.19.09.07 0 .21 0 .33s-.07.24.11.26a.69.69 0 01-.22.23c0-.18-.21 0-.13-.22l-.12.08.09-.27c-.19 0-.47.07-.59.06-.14.17.14.08-.05.25 0-.11-.13-.08-.22 0 .21-.08.12.17 0 .27s-.39.12-.39.07l.09-.18c-.06.11-.09 0-.18.09s0 .25 0 .36-.23.09-.26.13l.12-.2c-.21.2-.18-.14-.38.08v.14h-.09s-.14.16-.17.22l-.03-.07c-.07.12-.08.35-.29.32.2.07.11-.09.33-.16s-.09.23-.11.28c-.11-.16-.26.18-.37.27s-.19 0-.26 0v.14c-.2-.16-.19.24-.36.29 0-.12-.06-.18-.18-.13.25 0 0 .34.08.41-.27.15-.11-.23-.26-.27 0 .21-.31.16-.26.37.2-.11.06.11.08.2-.21.17 0-.09-.21 0s-.08.3.09.22c-.15.08-.15.34-.36.38s.2-.27.07-.26c-.28.26.06.34-.16.61.15-.06.2.19.13.36-.31.23.06-.17-.14-.17l-.09.12c-.15 0-.13-.13-.11-.27s.06-.28-.07-.26l-.07.17c0-.07 0-.18-.14-.17.07.13-.25.31-.25.36s.08-.13.12 0 0 .35-.25.49c0-.16-.16-.07-.17-.16-.13.07.08.13-.1.23v-.07a8.19 8.19 0 00-.75.89 3.1 3.1 0 00-.48 1 .47.47 0 00-.25.13l-.34.3c.12-.1.1.07.06.15l-.22.06c-.19.12-.23.43-.28.63a.25.25 0 01-.12 0c-.18.1 0 .2-.06.28h-.15l.07.08c-.06.19-.21.38-.33.27 0 .08 0 .16.06.11a2.19 2.19 0 00-.58.86c.12-.12.15-.08.24 0s-.06 0 0 .21c0 0-.19.07-.14-.09-.41.28-.57.91-.87 1.39v.17a1.07 1.07 0 00-.32.48 2.5 2.5 0 01-.25.55c.1-.05.22.14.14.34s-.21 0-.37.16a.8.8 0 01-.08.39.63.63 0 01-.14.47c-.06.12-.19.22-.22.35s-.08.38 0 .49 0 0-.06 0h.1c0 .08-.09.16-.14.23s-.06-.09-.07-.17c-.15.24.07.12.08.28s-.08.17-.15.25c0-.1.06-.14.06-.19s-.07.1-.13.09.11.1 0 .23-.08.41-.19.34v.34c0-.1.12-.27.19-.28s0 .28-.07.3v-.08c0 .08-.08.33.05.22l-.18.15c.07.09 0 .28 0 .44-.12 0-.24-.16-.31.13l.09.28c0 .13 0 .17-.1.14a.53.53 0 000 .28.69.69 0 00.1.19.41.41 0 01.09.38c-.14-.15-.16 0-.2.14"/>
      <path class="cls-7" d="M59.7 11.28zm-.14.29a.12.12 0 00.17-.09c-.33 0 .1 0-.17.09m-5.84.77a.09.09 0 010-.11c-.09 0-.2-.06-.27 0s0-.14-.09-.1.15.19.34.15M42.63 38.5zM53.85 12.14a.37.37 0 00-.11.1s.08 0 .11-.1m.13.14s0-.07.06-.1-.1.06-.16.09.11 0 .1 0m-1.14.32c-.08.06-.14.13-.13.16l.39-.32a1.83 1.83 0 00-.26.16m-1.38.33c-.14.07-.15.11 0 .12s0-.09 0-.12m0 .3c0-.1-.13 0-.19 0a.27.27 0 00.19 0m-2.61 1.23s-.1.11-.14.11.18-.1.24-.14 0 0-.1 0m-.92.78l-.08-.05c-.05.05-.09.14 0 .12s.05 0 .09-.07m-10.18 20l.09.12v-.13zm8.53.24c0-.18.08 0 .1-.11 0 0-.11 0-.1.11m-1-5.45h-.14zM19.4 31.72c.26.07-.07 0 .13-.09-.07-.06-.11 0-.13.09m4.51.77a.18.18 0 00.09-.08s-.06 0-.09.08m.09-.08c.07 0 .14.16.21.05 0 0 0 .17.06.17s-.09-.3-.24-.35a.22.22 0 010 .16M48.73 32.53h.09-.07zm-13.42-.14v-.07.13zm6 9.58"/>
      <path class="cls-7" d="M57.29 31.06a4.59 4.59 0 01-1.38 0c-1.66 0-3.32-.41-5-.22a.08.08 0 010 .12.1.1 0 010 .05h-.08v-.06l-.24.14c-.22 0-.16-.17 0-.19h-2l-.07.31V31.5c0 .11-.08.23-.11.34s0 .11 0 .17a.41.41 0 000 .08.37.37 0 010 .09.29.29 0 010 .13.3.3 0 010 .08l-.07.12-.06.33v.37l-.08.05-.17.11v.07c0 .1.09.2.12.29V34.82a4.58 4.58 0 01-.13.74 3.45 3.45 0 01-.67 1.34.61.61 0 00-.07.1l-.08.11a1.56 1.56 0 00-.16.2l-.18.2-.18.2-.2.2-.2.18-.21.19-.23.18-.11.09-.12.08-.24.17-.51.32-.26.15a1.66 1.66 0 01-.27.13 3.38 3.38 0 01-.52.22.63.63 0 01-.13.23l-.09.07-.1.06a.94.94 0 00-.41.3v-.1a.26.26 0 01-.28.06l-.36-.14c0 .12-.12 0-.06.23s-.11 0-.17-.06-.12-.15-.19-.11 0 .11 0 0c-.21.12-.19.09-.18 0s0-.22-.25-.32h-1.56l-.26-.06-.24.22c-.08 0-.16-.07-.24-.12s0 .16-.06.14 0-.16-.11-.15-.17.06-.2 0 .09-.06.13-.07a1 1 0 00-.38-.22l-.19-.08a.49.49 0 01-.16-.16h.08a.34.34 0 01-.23 0 .65.65 0 01-.18-.15c-.11-.12-.19-.23-.33-.21a.07.07 0 000-.12s-.06-.08-.06-.12c-.19.08-.28 0-.35-.16s-.12-.27-.29-.27h.05a1.8 1.8 0 01-.19-.2l-.18-.22a1.88 1.88 0 01-.16-.23l-.09-.12v-.12l-.15-.25-.09-.12-.15-.24-.16-.25a2.13 2.13 0 01-.16-.25 1 1 0 01-.07-.15v-.09a.22.22 0 010-.08v-.37-.37a1.54 1.54 0 000-.17 1.22 1.22 0 00-.07-.17c-.06-.08-.13 0-.18-.06s.12 0 .15-.07a.51.51 0 01-.09-.18.81.81 0 010-.22v-.45c0-.15-.08-.11-.17-.08a.49.49 0 00.09-.28 1 1 0 000-.29.82.82 0 01.08-.56c-.33.07-.15-.23-.19-.36s.12-.11.17-.06v-.18c0-.06.05-.23.08-.34a8.1 8.1 0 01.42-.83.3.3 0 000-.16.43.43 0 000-.12.48.48 0 01.1-.34 1.32 1.32 0 00.37-.57 2.19 2.19 0 01.24-.54c-.17.16-.28.19-.32.15a.49.49 0 01-.19 0 .13.13 0 01-.09 0l.48-.33a6.1 6.1 0 01-.9.16c-.29 0-.59.06-.9.09s-.63.07-.95.13a4 4 0 00-.9.26 1.3 1.3 0 01-.1-.15l-.14.05h-.14l-.26.06-.54.08a2.81 2.81 0 00-1 .33 1.68 1.68 0 00-.7-.06c-.24.16-.33.16-.48.4-.09 0-.16-.09-.21-.15-.32 0-.66-.19-.89.1v-.14c-.24.17-.59.39-.89.27-.07.13-.35.21-.2.35-.11 0-.1-.22-.2-.06l.08-.21a6.79 6.79 0 00-1.79.37c-.21-.21-.59.1-1 0-.2.15-.58 0-.7.32v-.13a8.28 8.28 0 01-1 0c-.21 0-.19.19-.35.28v-.13c-.18.1-.2.32-.25.47-.16-.08-.16 0-.31-.06a1 1 0 00.29-.45c-.23 0-.41.35-.58.15-.19 0-.34.05-.33.23 0-.06-.14-.09 0-.19-.15 0-.25 0-.33.17 0-.07.08 0 .12 0-.05.15-.19.16-.13.36.06-.06.06-.09.16-.09s-.26.22-.33.1.13-.26 0-.34L20 32c.07-.13.22-.06.2.09l.14-.1v.15c.26-.09.45 0 .7-.11l-.04-.11c.15 0 .29-.25.45-.09-.07.06 0 .13 0 .22s.06-.1.11-.08v.27c0-.35.41-.18.47-.24.25.08-.05-.14.1-.16s.08.27.22.36.62-.28.9-.11a2 2 0 00.6-.33c.19 0 0 .27.2.13a.63.63 0 00.06.27c0-.1.35 0 .17-.24a2.34 2.34 0 00.87-.08c-.09 0-.1.2 0 .27a.64.64 0 01.59-.28c0-.17-.11-.16-.1-.33s.08-.11.14-.1c.06.17.08.44.3.42 0 .28-.38 0-.25.27a.38.38 0 01-.56.16c-.16.26.15 0 .15.24.17 0 .24-.16.5-.23 0-.12-.1-.12 0-.23.21-.28.32.13.38.14s-.08 0-.11.07c.17.07.21-.1.38-.11.08.31-.27.07-.31.27l.15.21c.26 0 0-.27.32-.22v.12l.16-.09c0-.12-.07-.29-.21-.25.06-.31.12-.06.34-.14.06-.19-.09 0-.11-.15s.11-.17.22-.22.12.18.21.29-.18.07-.17 0c-.21.2.14.34 0 .49.22.09.13-.23.31-.22-.17.11-.05-.14-.11-.21.25-.5.23.32.52.2-.1-.29.34-.46.09-.77.06-.06.14-.14.22-.11-.06.21.15.14 0 .35h.11l-.13.26c.13.13.34.24.42.33.14-.11-.07-.19.1-.26-.05.11.07.18.15.17-.17-.06 0-.28.06-.35a.3.3 0 01.29.21l-.14.19c.1-.16.06.07.17 0s.08-.29.1-.44.18.08.21 0l-.14.15c.2-.07.08.3.29.2v-.17a.11.11 0 010 .16c0-.12.15-.11.2-.16v.1c.08-.07.17-.32.3-.13-.11-.24-.11 0-.27-.08s.13-.19.16-.23c0 .27.23 0 .34 0s.14.13.18.18v-.18c.08.34.21-.11.34 0a.22.22 0 00.07.29c-.14-.24.15-.34.1-.51.23.06 0 .33.07.51.09-.22.26.1.3-.17-.17-.06 0-.16 0-.28.2 0 0 .11.13.19s.16-.26 0-.32c.12 0 .22-.22.37-.07s-.23.1-.14.21c.28 0 .09-.42.34-.5-.12-.08 0-.37.06-.49.3 0-.11.12 0 .31h.11c.19.27-.28.51-.1.72l.11-.11a.39.39 0 000 .3c0-.2.28-.08.3-.13s-.09.06-.09-.07l.08-.08v-.08c0-.07.06-.11.1-.07a.39.39 0 000 .18.75.75 0 010 .15c0 .07 0-.2.06-.11v.1a.28.28 0 00.23-.06c.11-.06.3-.19.67-.44-.15.16-.1.16-.27.34l-.08.08a.74.74 0 01.25-.17l-.28.22c-.08.07-.06.07 0 .07h.18l-.17.09c-.08.06-.05.05 0 0h.15l-.16.09h.14v.08a.37.37 0 01-.22.07.16.16 0 00.15 0 .27.27 0 00-.13.13v.1a.73.73 0 000 .24c.07-.13.13-.1.27-.09s-.05.05.07.18c-.09 0-.19.1-.23 0a.59.59 0 00-.17.28 1 1 0 00-.05.34v.36a1.63 1.63 0 010 .36c0 .09.07.06.14.1a.5.5 0 00-.1.24v.12a.5.5 0 010 .12 1.2 1.2 0 01.06.49.28.28 0 01.39.15c.22.15-.25.11-.33.3a.47.47 0 01.16.29.32.32 0 01.16.37c0 .1-.08.25 0 .35s.16.27.33.28h-.06.14v.23h-.2c0 .25.16 0 .28.1s0 .15 0 .24v-.14c0-.02 0 .11-.08.14s.18 0 .19.1.16.28 0 .33c.12 0 .15.14.24.16s0-.24 0-.3.16.16.1.22h-.06c.06 0 .11.24.2.07l-.12.24c.14 0 .21.11.3.2-.14.1-.36.11-.26.33l.25.08c.07.08.06.12 0 .17a.32.32 0 00.35.19c.13 0 .26 0 .29.14-.23 0-.18.12-.14.26 0 0 .09-.05.13 0s-.15 0-.12-.13.14 0 .21.06a.44.44 0 000 .32 1 1 0 00.21.26l.26.25a.93.93 0 01.21.27c.13-.2.19.07.31.05-.18.19.21.1.21.29l.1-.24c.06.13.19.11.3.1s.21 0 .2.15-.14.13-.21.13c0 .17.15.19.29.21a.53.53 0 01.18 0 .18.18 0 01.08.16c.06-.08.08-.25.27-.26.07.15.25.39.21.42.13 0 .19-.06.26.07s-.08 0-.13 0a.58.58 0 00.53.07c0 .21.39.23.58.39.18-.2.33.18.41-.11a.13.13 0 000 .09c.1-.06.2-.24.31-.24l-.07.19c-.08.25.28.1.29.23-.06-.18.12 0 .15-.13h.13c.2 0 0-.1.27-.1s0 .23 0 .2c.11.12.23.07.35 0 0 0-.06 0 0 0h.13-.13a.21.21 0 00.14 0h.11v.16c.09 0 .33-.16.32-.23a1.37 1.37 0 00.67 0 1.79 1.79 0 00.48-.2c-.09 0-.11.15-.06.07s.21-.19.24-.1c.1-.08.12.09.29.07 0 0 0-.16-.05-.13a.44.44 0 00.25 0h.12l.12-.07a.83.83 0 01.5-.18s0 .11-.06.18l.15-.11.16-.14a1.16 1.16 0 00.27-.34v.2c.16-.08.33-.21.34-.37s0 .08 0 .11 0-.3.09-.31c.15-.09.12-.17.27-.25s-.06.08 0 .15.44 0 .48 0 0-.14 0-.19.13.09.2 0 0-.2.05-.31v-.31c0 .09.22.12.16.28a.59.59 0 00.18-.36v-.39c0-.12.24-.25.3-.32s-.06 0 0 .14h.2c-.13.14.17.16.15.3a.64.64 0 01.25-.24l.34-.23c-.32-.09.12-.32-.08-.48.13-.23.24 0 .34 0a1.14 1.14 0 01.1-.19c0-.06.07-.12.11-.17a1.66 1.66 0 00.22-.32 3.18 3.18 0 01.17-.4.69.69 0 000-.45s.09 0 .1.11c.1-.1 0-.14 0-.19s-.11-.08 0-.19l.09.11c0-.1 0-.17.08-.25a.27.27 0 000-.29c.07 0 .08.06.1.1 0-.19.08-.39-.05-.58a.19.19 0 01.19.12c.13-.17-.19-.24-.08-.39s.13-.12.13-.09-.08-.35-.11-.44.11-.08.2-.19 0-.41 0-.62a2.65 2.65 0 00-.08-.39c0-.12-.09-.24-.14-.36a3.12 3.12 0 00-.47-.74l-.2-.19-.12-.09s.07 0 .08.06h.16a.25.25 0 00.13 0H49.19l-.08-.06c0-.07.13 0 .24.05s.19.09.09-.05l.23.16v-.1a.65.65 0 01.13 0s.07 0 .07-.07c.13.05.17 0 .24-.07s.12-.1.19 0 .34-.09.38-.28a.34.34 0 010 .26 8.86 8.86 0 002.09-.31v.12c.39-.23.79.24 1.07-.19l.11-.19c.09.07.08.2.15.26.07-.11.35 0 .4-.19V32c.18 0 .38-.22.55-.17l-.06.08a3.66 3.66 0 002.74.16c.2-.07.09.24.17.22.75-.33 1.65.19 2.32-.33a1.06 1.06 0 00.7-.71 8.9 8.9 0 01-3.69-.33"/>
      <path class="cls-7" d="M49 32.7l-.18-.11.14.09m-29.13-.81c.1-.17-.05-.21-.11-.31 0 .1.09.2.11.31m3.94.36v.12c0 .02.08 0 .13-.06s-.08-.09-.08-.06m1 0l-.33.23c.12 0 .33-.13.33-.23m.94.43c.11 0 .13-.06 0-.14s-.05.09 0 .14m.24-.27c0-.06-.08-.11-.16-.1 0 .17.15 0 .16.1m1.9 0c0 .15.14-.08.2 0-.06-.1-.15 0-.2 0m.92-.26v.12c.05 0 .1-.1 0-.14s-.05 0-.08 0m8.08 8.46l-.06.08h.12zm8.11 1s-.05-.16-.13-.06c.12-.06 0 .11.13.06m3.09-2.85l-.02-.23zM42 55.49zm-6.48-.24zm0 0h.05c.05 0 0 0 0-.06m8 .18zM44.56 55.38a.27.27 0 00-.12 0v.06h.12"/>
      <path class="cls-7" d="M47.52 55.06c-.08 0-.11-.06-.15-.06a.3.3 0 01-.1 0v-.06c0 .13-.38 0-.45 0s-.14.08-.23.07-.09 0-.17-.08 0 .06 0 .08h-.12c.06 0 0 0 0-.07s-.26 0-.24.09c-.14 0-.15-.06-.2-.05s.06 0 .07 0-.41-.09-.39 0c0 .1.06.18 0 .24v0c0-.06-.19 0-.29.06l.17.22c-.1 0-.28-.11-.27 0l-.15.01c-.21-.12-.1.1-.18.07l-.11-.07h.09a1.12 1.12 0 01-.22-.09.1.1 0 01-.09.1c-.09 0-.14.09-.29 0v.1h-.12v-.07l.4-.12c-.07 0-.15.06-.2.07s-.1-.08-.07-.14v.08a.83.83 0 01-.52 0s-.1.06-.12 0a.7.7 0 01-.44-.08v.09s-.1-.13-.1 0l-.06.05h-.13c-.1 0 0 .08-.11 0s0 .13-.08.11l-.08-.12c-.11-.06-.11.07-.26.09a.21.21 0 01-.09-.25c0 .12 0 .08-.1.14s0-.06 0-.1-.05.05-.1.05a.92.92 0 010 .26.16.16 0 01-.2 0h-.08v-.06h-.26c-.14-.1-.24 0-.4.07v-.07c-.06-.07 0 .1-.08.07v-.08c0 .11-.07 0-.11-.06v.11h-.07c-.09 0-.06-.14-.05-.2v.09-.1c0 .11 0 0-.11 0s0-.06 0-.08l-.11.14.07-.06v.14c-.08.11-.11 0-.16 0-.09 0-.09 0-.14-.05s0 .06 0 .08v-.06c0-.01-.07.15-.13.1s0 0-.05 0v-.1l-.05.1h-.31v-.08c0 .11-.13-.05-.12.09-.05-.08-.18.06-.15-.11-.16 0-.25.14-.44 0s-.24-.11-.36-.13l-.65.09c-.07-.11-.16-.1-.26-.09a.27.27 0 01-.26 0v.07c-.09-.13-.27 0-.4-.15h-.07a.17.17 0 010 .07s-.13 0-.11-.11c0-.09-.13 0-.16-.07v.11h-.08a.43.43 0 01-.24 0 .48.48 0 01-.18-.06.47.47 0 00-.41 0c.06-.1-.08 0-.06-.08s-.15 0-.23 0h-.11c.11-.13-.12.11 0 0a1.79 1.79 0 00-.49-.19 2.24 2.24 0 01-.52-.16c-.08 0-.21 0-.25-.11s-.18.05-.2.05-.12-.12-.09-.1-.2.1-.29 0-.33 0-.28-.13c-.09-.15-.29 0-.39-.19l-.48.27c-.05.16-.09.32-.13.49s.07.33.1.49c.27.09.53.16.79.23l.55.37.75.2.37.1.38.08.14-.08a.7.7 0 00.47.18h.26a.72.72 0 01.24.1v-.09c.1 0 .08.06.1.08.85.14 1.73.12 2.49.27.07.07.3.05.36.12a1.58 1.58 0 01.77-.09h.11c.13-.09.34 0 .5 0h.6c.23 0 .45 0 .68-.09l.68-.1a5.36 5.36 0 01.7-.05 1.7 1.7 0 00.7-.08 2.31 2.31 0 01.74-.14 1.64 1.64 0 00.6-.11 3 3 0 00.56-.23l-.15-.08c.35-.17.56-.11.83-.31.06 0 0-.24.6-.13h-.11a.65.65 0 01.13-.16l.16-.09h.08c0-.06-.05-.2.12-.18-.1-.08 0-.09 0-.13h.06c.07 0 .21-.15.23-.23a1.67 1.67 0 01-.55-.13c.12 0 0 0 0 0M45.14 55.39zM46.3 55c-.06 0-.06 0 0 0m1.56.5h.06"/>
    </g>
    <g id="레이어_4" data-name="레이어 4">
      <path d="M168 42a42 42 0 11-42-42 42 42 0 0142 42" fill="#bdd4e7" fill-rule="evenodd"/>
      <path class="cls-2" d="M145.12 52.57a.5.5 0 000-.24 1.48 1.48 0 000 .21m-.65 3.28"/>
      <path class="cls-3" d="M106.61 63.84h.29zm1.3-32.57h-.24a1 1 0 01.25 0zm1.77-.14h-.45a1.38 1.38 0 01.45 0zm-6.59 1a68.72 68.72 0 01-.64 10.16 34.09 34.09 0 01-.08 3.81c0 .57 0 1.14-.05 1.71s-.06 1.13-.08 1.72c-.06 1.16-.12 2.3-.16 3.47v5.23c0 .59 0 1.17.09 1.76.06-.25.18 0 .22.24l-.06.07.15.36c0 .34-.16.2-.19-.09l.06 1.64v2.88h3.34c.12-.21.93 0 1-.22.08 0 0 0 0 .09a5.31 5.31 0 012.46.19c4.83.25 9.48.16 14.24.29s9.55-.1 14.48-.1c.76-.33 1.8-.15 2.7-.44l-.06.11a2.4 2.4 0 01.88 0h.62c.26 0 .58.08 1 .12-.05-.12.57 0 .2-.23a.57.57 0 01.37 0h.44-.02a1.45 1.45 0 000-.8c.07 0-.13 0-.08-.18l-.08-.33v-.24-.24c0-.04 0-.06.07 0s.1 0 .14-.12a2.07 2.07 0 00.05-.39v-.47a23.32 23.32 0 01.37-6.4c0 .11-.17.12-.14-.08.35-.15 0-.72.21-1.07.06 0 .05.22.07.32.28-.93.22-1.77.5-2.66a4.53 4.53 0 010-.52c0-.25.09-.5.14-.74a4 4 0 00.14-1.26c.11.16.13-.39.21-.57a1.2 1.2 0 01-.09-.57 5.07 5.07 0 01.09-.65 3.22 3.22 0 00.07-1.34h.07a72.15 72.15 0 00.07-7.51c0-1.4.32-3 .16-4.51 0-.14-.06-.15-.09-.16v-.07c0-.32 0-.33.07-.28s.07.15.1 0 0-.34 0-.52a3.07 3.07 0 00-.06-.52 1.83 1.83 0 00-.14-.47 1.38 1.38 0 00-.28-.43 1.71 1.71 0 00-.43-.29 2.06 2.06 0 00-.53-.16 4 4 0 00-.62 0h-.6c-.12.07-.38.09-.29.18-1-.25-2.47.12-3.54-.06.38.33-.63.19-1 .27-.21 0-.24-.1-.17-.16a11.43 11.43 0 01-2.18 0 2.5 2.5 0 00-.51.13l-.24.05H135a3.38 3.38 0 00-1.26-.09h-1.46c.11 0 .13.1.12.17a5.28 5.28 0 01.32.77l.12.45a2.43 2.43 0 01.06.44l-.17-.17-.18-.19v.56l.06.29V35.18a5.52 5.52 0 01-.25 1.3 9.9 9.9 0 01-.51 1.27c-.2.4-.43.79-.64 1.17H131l-.2.25-.23.22a3.31 3.31 0 01-.5.41 5.43 5.43 0 01-1.14.61 12.7 12.7 0 01-2.55.64l-.39-.08c-.15 0-.3 0-.45-.09h-.22l-.21-.06-.39-.09h-.74a2.85 2.85 0 00-.29 0h-.33a.75.75 0 01-.38-.37 8.11 8.11 0 01-1-.69 3 3 0 00-.93-.56l.07-.12a5.47 5.47 0 01-1-.65 2.89 2.89 0 01-.75-.94 2.32 2.32 0 01-.42-.34c-.13-.11-.23-.18-.2 0-.19-.24.1-.28-.18-.47l.31.14a7.54 7.54 0 01-.82-2.14 5.77 5.77 0 01-.09-1.1 5.46 5.46 0 010-.57.2.2 0 010-.07v-.07-.2l.07-.2V32.23a2 2 0 00.25-.3 4.4 4.4 0 00.29-.39q.16-.21.33-.45l.17-.24.18-.24-.08-.08v-.12h-.35a7.36 7.36 0 01-1 0c-.44.06-.93.05-1.42.07h-.64a.91.91 0 00-.4.16v-.14h-2.8c-.58 0-.57.2-1 .3v-.14a1.37 1.37 0 00-.76.46h-.2a3.72 3.72 0 01-.66 0 2.19 2.19 0 00.91-.48c-.62 0-1.21.38-1.6.2-.5 0-.89.07-1 .24 0 0-.31-.07-.08-.16a3.16 3.16 0 00-.85.17 2.25 2.25 0 00.26 0c-.15.14-.47.18-.47.32l-.48.05c0-.12.42-.25.14-.3l-.8.36-1.8.18-.45.55h-1z"/>
      <path class="cls-2" d="M138.34 31.94h.29zM107.57 31h.08-.08"/>
      <path class="cls-9" d="M127.19 38.4h-.11.11m16.55-27.12l-.72.12.14-.11a2.92 2.92 0 00.39-.26 1.22 1.22 0 00.22-.26.86.86 0 00.14-.27l-2.38.93-.48.19v-.12a.19.19 0 01-.07.14l-.27.11a.91.91 0 00-.27.06c-.25 0-.06.05-.06.1h-.1c-.13 0-.09-.17-.26-.2s-.35.15-.55.24a1.56 1.56 0 01-.61.15 3.65 3.65 0 00-.73.47c-.24.09-.06-.19-.27 0 0-.07-.05-.12-.1-.17s-.44.17-.19.25c-.18 0-.36.12-.55.19l-.53.26c.11-.06.09-.18 0-.19a1.15 1.15 0 01-.27.27 2.27 2.27 0 01-.41.22c.06.11.15.06.17.18a.43.43 0 01-.15.15c-.1-.09-.17-.27-.44-.14 0-.22.46-.2.25-.32a.86.86 0 01.68-.41c.17-.26-.2.07-.22-.1-.22.11-.28.25-.6.43 0 .08.15 0 0 .17-.21.3-.41.08-.49.11l.12-.12c-.22.05-.23.19-.44.29-.16-.17.31-.19.32-.36l-.22-.06c-.33.15 0 .21-.35.33v-.09l-.18.15c0 .08.14.16.31.06 0 .25-.15.11-.39.3 0 .16.11-.07.17 0s-.1.2-.22.29-.18 0-.31-.07c0 0 .19-.16.21-.08.21-.27-.25-.16-.11-.35-.24.06-.16.18-.25.28.07 0 0 .13.1.14-.18.51-.35-.07-.67.19.1.07 0 .21 0 .33s-.07.24.11.26a.69.69 0 01-.22.23c0-.19-.21 0-.13-.22l-.12.08.08-.27c-.19 0-.46.07-.58.06-.14.17.14.08-.05.25 0-.11-.13-.08-.22 0 .21-.08.12.17 0 .28s-.39.11-.39.06l.08-.18c0 .11-.08 0-.18.09s0 .25 0 .36-.23.09-.25.13l.12-.2c-.21.2-.18-.14-.39.08v.14h-.09s-.14.16-.17.22l-.06-.05c-.07.11-.09.35-.29.32.2.07.11-.09.33-.16s-.09.23-.11.28c-.11-.16-.26.18-.37.27s-.19 0-.26 0v.14c-.2-.16-.19.24-.36.29 0-.12-.06-.18-.18-.13.24 0 0 .34.08.41-.27.15-.11-.23-.26-.27 0 .21-.31.16-.26.37.2-.11.06.11.08.2-.21.17 0-.09-.21 0s-.08.3.09.22c-.15.08-.15.34-.36.38s.2-.27.07-.26c-.28.26.06.34-.16.61.15-.06.19.19.13.36-.31.23.06-.17-.14-.17l-.1.12c-.14 0-.12-.13-.1-.27s.06-.28-.07-.26l-.07.17c0-.07 0-.18-.14-.17.07.13-.25.31-.25.35s.07-.12.12 0 0 .35-.26.49c0-.16-.15-.07-.16-.16-.13.07.07.13-.1.23v-.07a8.19 8.19 0 00-.75.89 3.1 3.1 0 00-.48 1 .47.47 0 00-.25.13l-.34.3c.12-.1.1.07.06.15l-.22.06c-.19.12-.23.43-.28.63a.25.25 0 01-.12 0c-.18.1 0 .2-.06.28h-.15l.07.08c-.06.19-.21.38-.33.27 0 .08 0 .16.06.11a2.19 2.19 0 00-.58.86c.12-.12.15-.08.24 0s-.06.05 0 .21c-.06 0-.19.07-.14-.1-.41.29-.57.92-.87 1.4v.17a1.07 1.07 0 00-.32.48 2.5 2.5 0 01-.25.55c.1-.05.22.14.14.34s-.21 0-.37.16a.8.8 0 01-.09.39.63.63 0 01-.14.47c-.06.12-.19.22-.22.35s-.08.38 0 .49 0 0-.06 0h.1c0 .08-.09.16-.14.23s-.06-.09-.07-.17c-.15.24.07.12.08.28s-.08.17-.15.24c0-.09.06-.13.06-.18s-.07.1-.13.09.11.1 0 .23-.08.41-.19.34v.34c0-.1.11-.27.19-.28s0 .28-.07.3v-.08c0 .08-.08.33 0 .22l-.18.15c.07.09 0 .28 0 .44-.12 0-.24-.16-.31.14l.09.27c0 .13 0 .17-.1.14a.53.53 0 000 .28.69.69 0 00.1.19.41.41 0 01.09.38c-.14-.15-.16 0-.2.14a.11.11 0 01.08.09c.06-.05-.1-.09 0-.22s.06.15.09.22a.7.7 0 00-.13.33 2 2 0 000 .42c0 .15 0 .31.07.46a2.38 2.38 0 01.05.45c.16-.08.12.22.21.31-.18 0 .14.28.09.46l.13-.15a.47.47 0 00.23.35c.09.09.18.15.13.29s-.14 0-.21-.05a.33.33 0 000 .22.78.78 0 00.16.2c.12.12.23.24.21.38.07 0 .12-.15.3 0v.16l.07.16c0 .11.07.19 0 .19a.68.68 0 00.47.06.39.39 0 01.11.15h-.15a.77.77 0 00.26.25 2.2 2.2 0 00.31.15.7.7 0 00.26.31l.22.16a1.56 1.56 0 01.2.16.38.38 0 01.31.08c.09.06.17.1.22 0s0 .06 0 .08.25-.12.39-.09l-.08.12c-.08.15.32.14.4.22-.07-.11.17 0 .2-.07h.53c.19 0 .06.16 0 .14a.59.59 0 00.45 0c-.06 0-.08 0 0 0h.18-.16H126.86a.25.25 0 01.13 0v.12a.69.69 0 00.25-.09c.09 0 .16-.1.15-.12h.24l.24-.06a.94.94 0 00.23-.1h.12l.11-.07.19-.13.15-.14.07-.07.05-.06c0 .06 0 .09 0 0l.14-.2c0-.06.06-.1.09-.08.07-.14.16 0 .32-.23a.1.1 0 00-.07-.05l.1-.08a.69.69 0 00.11-.13 1.51 1.51 0 00.16-.31l.12-.34A1.43 1.43 0 01130 36s0 .11.05.16a2.28 2.28 0 00.07-1s.09 0 .1.13 0-.12 0-.18a1.2 1.2 0 000-.19.53.53 0 00-.06-.28c-.07.16.06 0 0 .13s-.1 0-.13 0a.5.5 0 010-.27 3.7 3.7 0 00-.03-.5c.06-.15 0 .12.1.06s.08-.56.09-.6-.09-.13-.13-.11c-.08-.17.09-.1.06-.23l-.4-.39c.05 0 .1-.17.18 0a1.13 1.13 0 00-.31-.5l-.21-.79c.06.07.13-.12.21 0a2.81 2.81 0 01-.17-.93c-.08.11-.12 0-.16-.09s-.07-.23-.14-.24v-.21c0-.06.14 0 .16-.11a5.1 5.1 0 01-.07-1 6.53 6.53 0 00-.09-1.07s.06 0 .08.07c.06-.17 0-.18-.06-.21a1.36 1.36 0 010-.2v.07a.7.7 0 010-.35.65.65 0 000-.37c.05 0 .05.06.07.11v-.74s.06.06.07.13c.09-.16 0-.24 0-.35v-.15c0-.06.12-.14.11-.1a.68.68 0 010-.28v-.12l.05-.17c.06 0 .1-.1.19-.19.39-1.08.94-2.12 1.42-3.17a.75.75 0 00.07-.12c.22-.05-.06.3.11.26-.14-.08.06-.2.21-.53.06-.14.19-.16.24-.32 0-.2.39-.2.28-.4h.17c0-.24.21-.19.22-.45.23-.18.21-.59.39-.59a1.39 1.39 0 00.23-.48l.05-.07a.24.24 0 01.06.11c.38-.54.86-1.08 1.27-1.6a26.91 26.91 0 013.75-3.33l.41-.26a7.45 7.45 0 001-.71l.57-.34s0 .05.07 0l.24-.19a18.61 18.61 0 012.4-1.1c0 .07.12.09.18.14s-.07-.11-.11-.16l.57-.2"/>
      <path class="cls-9" d="M143.74 11.28l.36-.12-.36.12m-.14.29c.1 0 .14 0 .17-.09-.33 0 .1 0-.17.09m-9.88 2.48l-.09.07a.22.22 0 00.09-.07m-2 1.2zM137.78 12.24c-.08 0-.19-.06-.26 0s0-.14-.09-.1.14.19.34.15a.09.09 0 010-.11m-11.1 26.32zm11.22-26.36a.44.44 0 00-.12.1s.09 0 .12-.1M138.02 12.28s0-.07.06-.1-.1.06-.16.09.11 0 .1 0m-1.14.32c-.08.06-.14.13-.13.16l.39-.32a1.83 1.83 0 00-.26.16m-1.41.45c0-.05.05-.09 0-.12s-.14.11 0 .12m0 .18c0-.1-.13 0-.19 0a.28.28 0 00.19 0m-2.52 1.17c0-.06 0 0-.09 0s-.1.11-.14.11.18-.1.23-.14m-1.1.88c0-.05 0 0 .09-.07l-.08-.05c0 .05-.09.14 0 .12m-10.11 19.98l.09.12v-.13zm8.52.24c0-.18.08 0 .11-.11 0 0-.11 0-.11.11M129.15 30h.15z"/>
      <path class="cls-4" d="M130 49.839999999999996zM118.87 49.54zm-.93-1.06"/>
      <path class="cls-10" d="M119.44 45.89a1.51 1.51 0 11-1.51-1.6 1.55 1.55 0 011.51 1.6m.23 0s-.06 0 0 0m-.11-.25zm0-.24c-.06 0 0 .08 0 .13 0-.05-.07-.11-.06-.15M119.48 45.1s.07 0 0 0"/>
      <path class="cls-10" d="M119.44 44.9v-.06m0 .19h.08l-.08-.05zm0-.36zm-.06-.08a.15.15 0 00-.09 0 .07.07 0 010 .07M119.32 45h0m-.07-.12zm0 0zm0-.21h-.06v.06m-.25-.19zM118.77 44.71h.08c-.01 0 .12-.1.14-.18s0 0-.07 0 0 .1 0 .1v-.07c0-.07-.09 0-.13.08h.05m.27-.1a.17.17 0 010-.08h-.06l.06.07zM119.18 44.63H119.16c.07 0 0 0 0-.06h-.07l.05.05m0 .43M119.24 45h.05v-.09a.27.27 0 00-.07.08m-.14-.54h-.07m-.07 0zM116.98 44.36h-.08M118.13 44.1h-.06c-.06 0 0 .07.06 0m-1.77 2.66M118.06 44h0M117 45zm0 0v-.06l-.1-.06.1.12"/>
      <path class="cls-10" d="M117 46.77v-.05h.09c-.1.09-.08-.09-.19 0 0-.07-.09 0-.11 0v-.06h-.07a.05.05 0 01.08 0c.1-.08 0 0 0-.11.06 0 0-.06.06-.11s-.08.11-.13.08 0 0 0-.06h.06-.08c-.03 0 0-.05.08-.07s-.07 0-.09 0 0-.07 0-.12-.07 0-.08 0 0-.05 0-.08 0 0 .06 0a.34.34 0 00-.09-.12s-.1 0-.13-.07h-.06a.14.14 0 010-.07h.09a.21.21 0 00.11 0l.06-.06a.47.47 0 01-.13-.25s.08 0 .13.06 0 .07 0 .11v-.09h.07c.07 0 0-.07 0-.12v.07c.08 0-.08-.1 0-.11s0-.07 0 0 .1-.16 0-.22l.09.08a2.29 2.29 0 01-.14-.27s.2.14.19.2-.09 0-.08-.06h.13s-.09-.09-.06-.11.07.08.07.1a.59.59 0 010-.13s0 .07.08.09c.07 0 0-.17 0-.21s.06.13.1.12a.71.71 0 010-.16.26.26 0 010-.18v-.05.37h.06c.06 0 0 0 0 0h.08v-.13a.47.47 0 00-.05.1.16.16 0 010-.12.09.09 0 010-.09V45c0 .02 0-.06.05-.05V45s0-.11.09-.06.06.07 0 0a.88.88 0 01-.1-.34.32.32 0 01.13.08v.19a.43.43 0 010-.05s0 .05 0 0 .07 0 0-.06 0 0 .08 0a.18.18 0 01.06-.17h.18c.07 0 0 0 0 .07s-.05 0 0 .07.06 0 .1-.06-.07 0-.1 0a.24.24 0 01.16-.19c.06 0 0 .06 0 0s.13-.11.21 0 0 .1 0 .14-.06-.06-.09-.07h-.07s.18.06.23.14.08 0 .05-.06.11 0 .15 0v.06s0-.05 0 0 0 .11.09.06v-.06h.16c.03 0 0 0 0-.08 0 .09-.1-.07-.11 0v-.15c0-.09 0 0 0 0h-.13c-.03 0 0 0 0 0v-.1s-.06-.06-.09 0-.08 0 0 0h-.08a.32.32 0 00-.14 0 .2.2 0 01-.13-.05.13.13 0 01-.11 0h-.37l-.13.06h-.19c-.07 0 0 0 0 0h-.12c-.03 0-.06.08-.11.07s0 0 0 .05 0 0-.1 0-.07.09 0 .16 0 0 0 .05a.3.3 0 000 .1s-.07 0-.08-.06v.24s-.14.21-.25.31c.11 0-.07 0 0 .08s0 0-.07 0-.07.09 0 .16.06.1.14.12 0 .05 0 .08 0 0-.06 0-.06.15 0 .15a.49.49 0 000 .12c.07 0 0 0 0 .09v.14c.1 0 0 .09 0 .14s-.11.11-.12.15c0 .1.06 0 .09.05s-.08 0-.08.06.14.08.1.16 0 0 .07 0 0 .15 0 .15.08.08.13.08 0 .09 0 .11.09 0 0 .1l.07.07a.09.09 0 00.12 0s.07.1.18.09 0 0 .06.07a.17.17 0 00.13.08c.06 0 .1.06.15.1s.09.06.14 0h.08c-.08 0 0-.07 0-.11s.07.08 0 .07c0 .09.1.06.08.12a2.43 2.43 0 00.53.08v-.07h.06v.06c0 .06.07 0 .07-.06v.08s0-.07.07-.08h.07s.06 0 0-.07.11 0 .17 0 .11-.07.13-.06.06-.08.11-.11-.06 0 0-.07.1 0 .19 0 0 0 0-.06v-.07c0-.01 0 0 .07 0a.22.22 0 01.11-.12.4.4 0 00.13-.13h.1s-.07-.07 0-.07a.55.55 0 00.16-.31l.06-.17a.47.47 0 01.1-.16h-.06l.08-.09c-.07 0 0-.1-.06-.12h-.26c-.09 0 0 0 0 .07s-.05 0 0 .09 0 0-.05 0 0 .05 0 .08c0 .1-.06.13-.12.22s0-.06.09 0-.07 0-.09.07 0 .07-.09.05-.06 0-.08 0 0 .08 0 .08v.06a.18.18 0 01-.05.07.35.35 0 00-.08.13c0 .09-.06 0-.11.09a.05.05 0 010 .06v.15a.08.08 0 010 .08v-.09c0-.09-.08.12-.16 0 0 .11.09 0 .08 0s0 .09 0 .09-.08-.11-.14-.09 0 0-.08 0 0 0 0 .08h.06s0 .12-.12.09 0 0-.05 0 .07 0 .1-.09-.06.06-.06 0v.05h-.06v-.06c0 .05-.07 0-.1 0s0 .06 0 .09 0-.12-.14-.1 0 0 0-.06v.07c0 .02 0 0-.07 0s0 .09-.1 0v-.11h-.09a.06.06 0 01-.07.06v-.05c0-.05 0 0 0 0h-.2a.16.16 0 01.07-.07h-.07v-.06c0-.06-.11 0-.13 0s0-.09-.1-.09v-.07s0 .09-.09.06 0-.05 0-.08-.12 0-.11 0M117.22 46.97zM118.61 44.17s-.1 0 0 0M118.6 44.39h-.05M118.68 44.550000000000004zM118.28 44.44v.06zm-.12 0s-.06 0 0 0m-.6-.06v-.09zm-.36.42v-.05c0 .01 0 0 0 0v.08m2.47 1.17zm-.07-.07h.06m-2.79.31zm.09.34zm.23.19s0 .07 0 0m14.75-.87a1.51 1.51 0 11-3 0 1.51 1.51 0 113 0m.24 0s-.06 0 0 0m-.12-.25h-.05zm-.05-.24c-.06 0 0 .08 0 .13H132c0-.05-.08-.11-.07-.15M131.97 45.11h-.05M131.91 45.11s.07 0 0 0"/>
      <path class="cls-10" d="M131.93 44.9v-.06m0 .19h.07l-.08-.05zm0-.36zm-.07-.08h.05a.13.13 0 00-.09 0v.07M131.86 45h0m-.08-.12zm0 0zm0-.21a.09.09 0 01-.05 0v.06m-.26-.19zM131.26 44.71h.08s.11-.1.13-.18 0 0-.06 0 0 .1 0 .1v-.07c0-.07-.09 0-.12.08m.27-.1a.11.11 0 010-.08h-.06l.05.07zM131.62 44.63H131.61c.03 0 0 0 0-.06h-.07l.05.05m.06.43M131.68 45v-.09a.27.27 0 00-.07.08m0-.19h-.06m-.15-.35h-.07m-.07 0zM129.3 44.36h-.08.05M130.5 44.1a.09.09 0 00-.06 0s.05.07.06 0m-1.77 2.66M130.5 44h0M129.41 45zM129.4 45v-.06l-.11-.06.1.12"/>
      <path class="cls-10" d="M129.43 46.77v-.05h.1c-.11.09-.08-.09-.19 0 0-.07-.1 0-.11 0h-.05v-.06h-.08.07v-.11c.07 0 0-.06.06-.11s-.08.11-.13.08 0 0 0-.06h.06-.09c-.03 0 0-.05.09-.07s-.08 0-.1 0 0-.07-.05-.12 0 0 .06 0h-.13c-.02 0 0 0 0 0v-.08c0-.03 0 0 .07 0a.58.58 0 00-.1-.12h.05c-.05 0-.1 0-.14-.07h-.06a.25.25 0 000-.07h.14a.3.3 0 00.11 0l.06-.06c-.06-.07-.14-.15-.13-.25s.07 0 .13.06 0 .07 0 .11h.05v-.09h.07c.07 0 0-.07-.05-.12s.06 0 0 .07-.08-.1 0-.11 0-.07.05 0 .11-.16.05-.22l.08.08a2.24 2.24 0 01-.13-.27s.19.14.19.2a.28.28 0 01-.09-.06h.13s-.08-.09-.06-.11l.08.1v-.13s.06.07.09.09c.06 0 0-.17 0-.21s.06.13.09.12a.71.71 0 010-.16.26.26 0 010-.18v-.05.37h.08v-.13l-.06.1a.23.23 0 010-.12.09.09 0 01.06-.09V45s0-.11.08-.06.06.07 0 0a1.1 1.1 0 01-.1-.34.27.27 0 01.13.08v.19a.43.43 0 010-.05s0 .05 0 0 .07 0 0-.06 0 0 .08 0a.18.18 0 01.06-.17h.18c.06 0 0 0 0 .07v.07c0 .07.06 0 .09-.06s-.07 0-.1 0a.24.24 0 01.16-.19c.07 0 0 .06 0 0s.14-.11.21 0 0 .1 0 .14-.06-.06-.09-.07h-.06s.17.06.22.14.06 0 0 0 .07 0 0-.06.11 0 .14 0v.06s0 .11.09.06v-.06h.16c.03 0 0 0 0-.08 0 .09-.11-.07-.12 0v-.15c0-.09 0 0 0 0h-.13c-.03 0 0 0 0 0v-.1h-.05s-.07-.06-.1 0-.08 0 0 0h-.09a.29.29 0 00-.13 0 .2.2 0 01-.14-.05h-.48a.31.31 0 00-.13.06h-.19c-.07 0 0 0 0 0h-.13c-.03 0-.06.08-.11.07s0 0 0 .05 0 0-.1 0-.06.09 0 .16 0 0 0 .05H129a.44.44 0 010 .1s-.07 0-.08-.06v.24s-.15.21-.26.31c.11 0-.07 0 0 .08s0 0-.06 0-.08.09 0 .16 0 0-.05 0 .07.1.14.12 0 .05 0 .08-.06 0-.06 0-.06.15 0 .15 0 .06 0 .12c.08 0 0 0 0 .09v.14c.1 0 0 .09 0 .14s-.12.11-.12.15.06 0 .09.05-.08 0-.08.06.14.08.1.16 0 0 .07 0 0 .15.05.15.09.08.13.08 0 .09 0 .11.09 0 0 .1l.08.07c0 .06.08 0 .12 0 .05.09.06.1.17.09s0 0 .06.07a.16.16 0 00.12.08c.06 0 .11.06.15.1s.1.06.14 0h.08c-.08 0 0-.07 0-.11s.07.08 0 .07c0 .09.1.06.08.12a2.43 2.43 0 00.53.08v-.07h.06v.06c0 .06.06 0 .06-.06v.08s0-.07.07-.08h.08s.07 0 0-.07.11 0 .17 0 .12-.07.14-.06a.18.18 0 01.1-.11s-.06 0 0-.07.1 0 .19 0 0 0 0-.06v-.07c0-.01 0 0 .08 0s.06-.09.1-.12a.4.4 0 00.13-.13h-.05.1s-.07-.07 0-.07a.5.5 0 00.17-.31 1.54 1.54 0 010-.17 1.4 1.4 0 01.1-.16h-.07l.08-.09c-.06 0 0-.1-.06-.12h-.25c-.09 0 0 0 0 .07v.09c0 .09 0 0 0 0v.08c0 .1-.07.13-.13.22h.05-.05c.05.05 0-.06.09 0s-.07 0-.09.07a.06.06 0 01-.09.05s.05 0 0 0h-.07s0 .08-.05.08v.13a.38.38 0 00-.09.13c0 .09-.06 0-.11.09a.06.06 0 010 .06h-.05c.01 0 0 0 0 .15a.08.08 0 010 .08s-.05 0 0-.09-.09.12-.16 0c0 .11.08 0 .07 0a.06.06 0 010 .09s-.09-.11-.15-.09 0 0-.08 0 0 0 0 .08h.06s-.05.12-.12.09 0 0-.05 0 .07 0 .1-.09-.06.06-.05 0 0 .05-.05.05h-.06v-.06c0 .05-.07 0-.1 0s0 .06 0 .09 0-.12-.15-.1a.1.1 0 01-.05-.06c-.06 0 0 .05 0 .07s0 0-.07 0c-.06 0 0 .09-.1 0l.05-.06v-.05h-.09c-.03 0 0 .07-.06.06s0 0 0-.05 0 0 .05 0h-.21s0-.06.07-.07h-.07v-.06c0-.06-.11 0-.13 0s0-.09-.1-.09v-.07s0 .09-.1.06 0-.05 0-.08-.12 0-.11 0"/>
      <path class="cls-10" d="M129.67000000000002 46.97zm1.67-2.67h-.05M131 44.17s-.11 0 0 0M130.99 44.48zM130.59 44.37v.06zm-.11 0s-.07 0 0 0 .05 0 0 0m-.61-.06v-.09zm-.36.42c.05 0 0-.06 0-.05v.08m2.6 1.24zm-.07-.07h.07-.06m-2.79.31zm.1.34zm.22.19s0 .07 0 0"/>
      <path class="cls-11" d="M131.43 59.19l.2-.17-.27.13zm2.66-1.68v-.12a1.86 1.86 0 01-.1.2l-.06.09-.06.1a.29.29 0 00-.23.07c-.09.06-.19.15-.28.22l.22-.16v.13a1.54 1.54 0 00-.23.14l-.17.12a1.1 1.1 0 01-.42.18l-.25.19c-.1 0-.08 0-.06-.06a2.94 2.94 0 01-.73.44c.16 0 .33-.09.51-.2a.88.88 0 01.51-.22 1.16 1.16 0 01.24-.14l.27-.13.27-.14a1.88 1.88 0 00.24-.18l.14-.17a1.33 1.33 0 00.14-.19.56.56 0 00.09-.17M122.64 60.13h.08a.08.08 0 00-.08 0"/>
      <path class="cls-11" d="M134.14 53.9s0-.14.13 0a.22.22 0 010 .08l.08.06c0 .08-.09 0-.14 0l-.07-.14zm-1-1.1h.13l.12.07.12.07a2 2 0 00.23.14.19.19 0 00.17 0s.21.24-.07.08a.55.55 0 01.22.37 1.77 1.77 0 010 .2 3.42 3.42 0 00-.93-.93zm-12.23 0h-.14.13v.06zm2.38.2h-.39.06a1.71 1.71 0 01.32 0zm6.2-.47l-.6.08a1.63 1.63 0 01.59-.09zm.42-.22c.26 0 .21-.11.53-.06a.75.75 0 00-.2.15h.36l-.53.07h.05c-.11-.06-.42 0-.21-.11zm0 .16h-.22a.33.33 0 01.22-.05zm1.23-.22h.19a1.46 1.46 0 01.42.08 2 2 0 01.54 0l.46.11a.5.5 0 01-.13.12 3.16 3.16 0 00-1.37-.31l-.55.08.27-.06zm1.86.54l-.19-.11a.34.34 0 01.19.07zm1.88 2.81v-.36l-.06-.35a4.05 4.05 0 00-.54-1.33h.09a2.26 2.26 0 00-.26-.17 1.28 1.28 0 00-.25-.44 2 2 0 00-.22-.2.49.49 0 00-.22-.09h.05l-.52-.37a2.23 2.23 0 00-.67-.3 1.1 1.1 0 01-.45-.06.45.45 0 00-.43 0h.1c.08 0 0 .07-.06.1h-.14c-.13-.11 0-.09-.18-.19h.17l-.05-.1c-.48.35-1 0-1.3.27-.22 0-.36.13-.51.19s.08-.1.16-.15c-.39 0-1 .24-1.44.21-.15.1.06.09-.09.17s-.23 0-.07-.11c-.38-.08-1.2.24-1.77.17-.29.11-.1.13-.55.23.1-.07-.12-.17.15-.2v-.06l-.72.06a1.24 1.24 0 00-.55.16c0-.12-.08 0-.25-.08-.16.11-.24 0-.35 0-.11 0-.21.05-.32.06s-.13 0-.14-.08v.08c-.18 0-.08-.1-.3-.1v.07c-.13 0-.35 0-.38-.08s0 0 .08 0c-.21-.15-.56 0-.82-.1l.05.14c-.26 0-.15 0-.14-.09-.17 0-.2-.06-.43-.11s-.06 0-.1.08l-.23-.06h.16c-.38.15-.9-.14-1.16 0-.13-.06.13-.07.06-.1-.42-.14-1 0-1.31-.15a6 6 0 00-.9-.19l-.48-.07h-1.06l-.13.06-.17.07a.71.71 0 00-.18.08.78.78 0 00-.15.1v-.09l-.15.07-.14.08a1.07 1.07 0 01-.23.1.18.18 0 010-.07l-.34.19a3.92 3.92 0 00-.32.25 3 3 0 00-.25.26 2.51 2.51 0 00-.14.21c-.1.13-.14.1-.2.1a1.77 1.77 0 00-.12.17 1 1 0 00-.07.15l-.06.16a.94.94 0 000 .16 1 1 0 01-.14.15.65.65 0 000 .13c0 .11-.08 0-.13.08v.17a1.22 1.22 0 010 .17v.16a1 1 0 000 .17v.31a2.46 2.46 0 000 .26.5.5 0 010 .21c0 .06 0 .09-.06 0v.63l.08.17a1.51 1.51 0 00.09.18l.1.19.13.22.14.24c0 .09.08.24.22.37l.09.1.09.09a.22.22 0 01.07.17l.19.14.16.13a.77.77 0 00.33.15.85.85 0 00.31.21l.24.11.25.08V59a1.18 1.18 0 01.41.06.76.76 0 00.4 0h-.12a.25.25 0 00.22.09.73.73 0 01.28 0v.08a20.66 20.66 0 002.58.51c.25 0-.07-.13.25-.08.09.08-.17.1 0 .15a.76.76 0 01.42 0s0 .06-.16.07c.11.06.51 0 .73.1 0 0 0-.05.08-.07.36-.06.78.18.82.13s.12 0 0 0c.12 0 .31 0 .27.1a.52.52 0 01.23-.07l-.06.06a1.33 1.33 0 01.19 0l-.09-.05c.14.07.43 0 .42.07h-.05l.27.07a.78.78 0 01.4-.07c.07.13.47 0 .7.05.18-.06.65 0 .57-.07.17 0 .41 0 .33.06.14 0 .44 0 .52-.13l.29.1c.16-.18.58 0 .58-.17.17 0 .13.06.25.08a1.71 1.71 0 01.67-.14 7.66 7.66 0 00.82-.19l.08.12c.17 0 .19-.15.36-.14a1.47 1.47 0 01.5 0c.22-.13.42-.13.61-.27.21.08-.27.1-.09.18a3.29 3.29 0 001.06-.26v.08l.33-.25c.13-.12.24-.24.21-.3 2.36-1 3.32-1.52 3.32-3.37a3.46 3.46 0 00-.24-1.24l.12.19a1.34 1.34 0 01.09.24v-.06a2.71 2.71 0 01.06.38.88.88 0 010 .15v.16a.71.71 0 01.06.19h-.06a.62.62 0 01.09.29 1.52 1.52 0 010 .37 2.46 2.46 0 010 .47c-.07.1-.07 0-.08 0s0-.07-.06.16a1 1 0 00-.07-.15.71.71 0 01-.06.19.67.67 0 01-.06.12c0 .07-.08.12-.13.22.1-.05.18-.19.16-.06a.51.51 0 00-.13.12.42.42 0 00-.09.14.93.93 0 01-.15.32.68.68 0 00.12-.12.25.25 0 00.05-.15c.09-.1.08 0 .14-.06l.06-.2h.09a2.24 2.24 0 00.11-.34c.08.06.11-.29.16-.13a.75.75 0 010-.16v-.14a.57.57 0 000-.29c0-.08 0 0 0 0s0 .12 0 0v-.35-.35z"/>
      <path class="cls-9" d="M103.57 31.63c-.2.07.13.16-.13.09 0-.08 0-.15.13-.09m40.76.47c-.68.52-1.57 0-2.32.33-.08 0 0-.28-.17-.22a3.66 3.66 0 01-2.74-.16l.06-.08c-.17-.06-.38.21-.55.17v-.15c0 .16-.32.08-.39.2-.07-.07-.07-.19-.16-.27l-.1.19c-.28.43-.68 0-1.07.19 0 0 .06-.08 0-.12a8.86 8.86 0 01-2.09.31.3.3 0 000-.26c0 .19-.23.24-.38.28s-.13 0-.19 0-.11.12-.23.07c0 .07 0 .08-.07.07a.65.65 0 00-.13 0v.1l-.22-.16c.1.14 0 .1-.09.05s-.26-.12-.24-.05l.08.06H132.98a.27.27 0 01-.13 0h-.09l.27.17-.14-.09H132.68l-.08-.06h-.07.05l.12.09.2.19a3.43 3.43 0 01.47.73 2.72 2.72 0 01.13.37 1.73 1.73 0 01.09.39v.62c0 .2-.12.17-.2.19s0 .34.11.44-.12 0-.13.09.2.22.07.39a.17.17 0 00-.18-.12c.13.19 0 .39 0 .58 0 0 0-.08-.1-.1a.25.25 0 010 .29c0 .08-.1.15-.07.25l-.1-.11c-.11.11-.06.15 0 .19s.12.09 0 .18c0-.07-.06-.07-.1-.1a.64.64 0 010 .45 3 3 0 00-.16.4 1.66 1.66 0 01-.22.32 1 1 0 00-.11.17 1.14 1.14 0 00-.1.19c-.11 0-.21-.22-.34 0 .2.16-.24.39.07.48l-.34.23a.68.68 0 00-.24.24c0-.14-.28-.16-.15-.3h-.21c0-.1.13-.07 0-.14s-.21.31-.3.32 0 .26 0 .39a.59.59 0 01-.18.36c.06-.16-.22-.19-.16-.28v.31a2.91 2.91 0 010 .31c-.08.06-.12-.16-.2 0s0 .12 0 .19-.33.25-.48 0 .11-.12 0-.15-.12.16-.27.24c-.12 0-.26.24-.09.31s-.09-.12.05-.11c0 .16-.18.29-.34.37v-.2a1.16 1.16 0 01-.27.34l-.16.14-.18.12c0 .12 0-.23.09-.19a.89.89 0 00-.5.18l-.12.07a.28.28 0 01-.12 0 .37.37 0 01-.25 0s.06.16 0 .12c-.17 0-.19-.14-.29-.06 0-.09-.13 0-.24.1s0 0 .06-.07a1.75 1.75 0 01-.49.2 1.33 1.33 0 01-.66 0c0 .07-.23.24-.32.23v-.16c-.08-.09-.29 0-.29-.12v.06a1.31 1.31 0 00.22 0c.17 0 .33-.09.21 0-.06-.13-.35.25-.29 0-.17 0-.35.16-.5 0 0 0 .15-.2 0-.2s-.08.07-.27.1h-.13c0 .15-.22-.05-.15.13 0-.13-.37 0-.3-.23l.07-.19c-.1 0-.2.18-.3.24a.13.13 0 010-.09c-.08.29-.23-.09-.41.11-.19-.16-.54-.18-.58-.39-.19 0-.38.07-.53-.07h.13c.03 0-.13-.07-.26-.07 0 0-.14-.27-.21-.42-.19 0-.21.18-.27.26 0-.09 0-.13-.09-.15a.42.42 0 00-.17-.05c-.14 0-.28 0-.29-.21.07 0 .28 0 .2-.13s-.08-.16-.19-.15-.25 0-.31-.1l-.09.24c0-.19-.39-.1-.22-.29-.12 0-.17-.25-.3-.05a.82.82 0 00-.22-.27 3.07 3.07 0 00-.26-.25 1 1 0 01-.2-.26.44.44 0 010-.32c-.07 0-.13-.16-.21-.06s.16 0 .12.13-.1 0-.13 0c0-.14-.09-.22.14-.26 0-.15-.16-.14-.29-.14s-.29 0-.35-.19c.09 0 .1-.09 0-.17l-.26-.08c-.09-.22.13-.23.27-.33-.09-.09-.16-.22-.3-.21 0-.07.08-.15.12-.23-.09.17-.14 0-.2-.08h.06c0-.06 0-.16-.1-.22s-.06.22-.05.3-.12-.12-.24-.16c.16 0 0-.23 0-.33s-.19-.06-.2-.1 0-.18.09-.14 0 .11 0 .14.17-.14 0-.24-.29.15-.27-.1h.19v-.23h-.14.06c-.17 0-.15-.29-.33-.28s0-.25 0-.35a.32.32 0 00-.17-.37.47.47 0 00-.16-.29c.08-.19.55-.15.33-.3a.29.29 0 00-.4-.15 1 1 0 000-.49v-.24a.59.59 0 01.09-.24c-.06 0-.09 0-.13-.1a1.08 1.08 0 000-.18 1.08 1.08 0 000-.18v-.36a1 1 0 010-.34.81.81 0 01.17-.28c0 .14.15 0 .24 0-.12-.13.15-.11-.07-.18s-.2 0-.27.09a.73.73 0 010-.24V32a.23.23 0 01.13-.13.16.16 0 01-.15 0 .43.43 0 00.22-.07v-.08h-.15l.17-.09h-.15c-.06 0-.08 0 0 0l.17-.09h-.18s-.06 0 0-.07l.28-.22a.66.66 0 00-.25.17.6.6 0 01.08-.08c.17-.18.11-.18.27-.34-.38.25-.56.38-.67.44a.28.28 0 01-.23.06v-.1c0-.09 0 .18-.06.11v-.11a.39.39 0 010-.18s-.08 0-.1.07a.11.11 0 010 .05.3.3 0 01-.08.08c0 .13.09-.1.09.07s-.29-.07-.3.13a.39.39 0 010-.3l-.11.11c-.18-.21.29-.45.1-.72h-.11c-.13-.19.28-.27 0-.31-.11.12-.18.41-.06.49-.25.08-.07.48-.35.5-.09-.11.22-.06.15-.21s-.25.12-.37.08c.13.05 0 .27 0 .31s.07-.2-.13-.19c0 .11-.2.22 0 .28 0 .27-.22-.05-.3.17-.09-.18.16-.45-.07-.51 0 .17-.25.27-.1.51a.22.22 0 01-.07-.29c-.13-.09-.26.36-.34 0v.18a1.51 1.51 0 01-.18-.18c-.11 0-.32.28-.34 0 0 0-.28 0-.17.23s.17-.16.28.08c-.13-.19-.22.05-.3.13v-.1c0 .05-.17 0-.19.16a.11.11 0 000-.16v.17c-.2.1-.08-.27-.28-.2l.14-.15s-.12-.1-.21 0-.08.33-.1.45-.07-.16-.17 0l.13-.19s-.13-.23-.28-.21-.23.29-.06.35c-.08 0-.2-.06-.15-.17-.17.07 0 .15-.1.26-.08-.09-.29-.2-.43-.33l.14-.26h-.11c.12-.21-.09-.14 0-.35-.08 0-.16 0-.23.11.26.31-.18.48-.09.77-.28.12-.26-.7-.51-.2 0 .07-.06.32.11.21-.18 0-.09.31-.32.21.15-.14-.2-.28 0-.48 0 .1.13.06.17 0s0-.3-.21-.28-.27.07-.23.22.18 0 .12.15c-.22.08-.29-.17-.34.14.14 0 .19.13.2.25l-.15.09v-.12c-.27 0 0 .22-.31.22l-.15-.21c0-.2.39 0 .3-.27-.17 0-.2.18-.37.11 0 0 .08 0 .11-.07s-.17-.42-.38-.14c-.11.1 0 .11 0 .23-.27.07-.33.2-.51.23 0-.23-.31 0-.14-.24a.38.38 0 00.56-.16c-.13-.27.22 0 .25-.27-.22 0-.24-.25-.3-.43-.06 0-.11.08-.14.11s.07.16.09.33a.63.63 0 00-.58.28c-.09-.07-.08-.24 0-.27a2.57 2.57 0 01-.87.08c.21.25-.3.1-.15.31.15 0 .3.22.23.35s0-.12 0-.17c-.1.16-.21-.21-.3 0 .25-.12 0-.33 0-.55-.18.14 0-.15-.2-.13a2 2 0 01-.6.33c-.29-.17-.67.08-.9.11s-.08-.34-.22-.36.15.24-.1.16c-.07.06-.45-.11-.48.24v-.27s-.08.05-.12.08-.07-.16 0-.22c-.17-.16-.3.06-.46.09l.12.14c-.25.15-.45 0-.7.11V32l-.14.1c0-.15-.13-.22-.2-.09l.36-.42c.12.08-.1.2 0 .34s.31.05.33-.1-.09 0-.16.09c0-.2.09-.21.14-.36h-.12c.08-.12.17-.14.33-.17-.1.1.07.13 0 .19 0-.18.13-.26.33-.23.17.2.35-.18.58-.15a1 1 0 01-.29.45c.15.08.15 0 .3.06.06-.15.08-.37.25-.47v.13c.16-.09.13-.29.35-.28a8.05 8.05 0 001 0v.13c.12-.31.5-.17.69-.32.37.09.76-.22 1 0a6.79 6.79 0 011.79-.37l-.08.21c.09-.16.08.1.19.06-.14-.14.14-.22.2-.36.31.13.66-.09.9-.26v.14c.23-.29.56-.1.89-.1 0 .06.12.18.21.15.15-.24.24-.24.48-.4a1.68 1.68 0 01.7.06 2.81 2.81 0 011-.33l.53-.08.27-.06h.14l.14-.05.09.15a4.19 4.19 0 01.91-.26c.31-.06.64-.1 1-.13s.61 0 .9-.09a6.34 6.34 0 00.9-.16l-.48.33h.14a.33.33 0 00.19 0s.15 0 .32-.15a2.19 2.19 0 00-.24.54 1.32 1.32 0 01-.37.57.48.48 0 00-.1.34.43.43 0 010 .12.3.3 0 010 .16 8.1 8.1 0 00-.42.83c0 .11 0 .22-.08.34s0 .12 0 .18a1.62 1.62 0 000 .18v-.07c-.05-.08-.16-.09-.21 0s-.14.43.2.36a.82.82 0 00-.08.56 1.43 1.43 0 010 .29.49.49 0 01-.09.28c.09 0 .11 0 .17.08a3.42 3.42 0 010 .45 1.55 1.55 0 000 .22.38.38 0 00.09.18s-.16-.05-.15.07.11 0 .18.06a1.22 1.22 0 01.07.17 1.54 1.54 0 010 .17V36.19l.06.15.17.25c0 .09.11.17.16.25l.07.13.08.12c.06.08.11.17.16.25v.12l.08.12c.06.08.11.16.17.23l.18.22a1.8 1.8 0 00.19.2c.17 0 .23.14.29.27s.16.24.35.16c0 0 0 .08.06.12a.07.07 0 010 .12c.14 0 .22.09.33.21a.8.8 0 00.17.15.39.39 0 00.24 0h-.08a.49.49 0 00.16.16l.19.08a1 1 0 01.38.22.19.19 0 00-.14.07c0 .08.13 0 .21 0s.14 0 .11.15.1-.13.06-.14a1.67 1.67 0 00.23.12l.25.08.26.06h1.34c.24.1.25.24.24.32s0 .11.18 0c0 .06 0-.12 0 0s.14 0 .2.11.12.15.17.06.07-.11.06-.23l.35.14a.27.27 0 00.29-.06v.1a.94.94 0 01.41-.3l.1-.06.09-.07a.63.63 0 00.13-.23 3.38 3.38 0 00.52-.22 1.26 1.26 0 00.26-.13l.27-.15.51-.32.24-.17.12-.08.11-.09.22-.18.22-.19c.06-.06.14-.12.2-.19l.19-.19a1.8 1.8 0 00.19-.2l.18-.2.15-.2.08-.11a.61.61 0 00.07-.1 3.62 3.62 0 00.68-1.34 4.58 4.58 0 00.13-.74v-.77-.32c0-.1-.08-.19-.12-.29v-.07l.17-.11.08-.05v-.37c0-.11.05-.22.07-.33l.07-.12v-.08a.29.29 0 000-.13.37.37 0 000-.09.59.59 0 010-.08c0-.06.05-.12 0-.17l.12-.34V31.43l.07-.31h2c-.2 0-.26.2 0 .19l.23-.14v.06a.25.25 0 00.13-.09.09.09 0 000-.13c1.7-.19 3.37.27 5 .22a4.28 4.28 0 001.38 0 9.12 9.12 0 003.7.33 1.08 1.08 0 01-.7.71m-40.51-.52c.06.1.21.15.11.31a1.28 1.28 0 01-.11-.31"/>
      <path class="cls-9" d="M107.87 32.25s.06 0 .07.06-.08.11-.12.06 0-.07.05-.12m1 0c0 .1-.21.2-.34.23zm1 .29c.09.08.07.13 0 .14s0-.09 0-.14m0-.23c.07 0 .12.05.16.1s-.17.07-.16-.1m2.06.05s.14-.11.2 0c-.06-.07-.22.16-.2 0m.92-.26h.08c.03 0 0 .12 0 .14zm8.15 8.51h-.12l.07-.08zm7.93.82c.08-.1.11.06.13.06s0-.12-.13-.06m3.23-2.82l-.14-.15zM126 55.46zm-6.48-.27zm0 0a.06.06 0 00.06 0v-.06M127.6 55.35zM128.65 55.34a.32.32 0 00-.13 0v.06h.12"/>
      <path class="cls-9" d="M130.09 56.42l-.15-.08c.35-.17.55-.11.83-.31.06 0 0-.24.6-.13h-.11s.06-.12.13-.16l.16-.08h.08c0-.06-.05-.2.12-.18-.1-.08 0-.09 0-.13.08 0 .21-.15.23-.23a1.45 1.45 0 01-.54-.13c.12 0 0 0 0 0-.07 0-.1-.06-.14-.07a.17.17 0 01-.1 0c0 .12-.38 0-.45 0s-.14.08-.23.07-.09-.06-.17-.08 0 .06 0 .07h-.12v-.07c0-.07-.25 0-.24.09s.01 0-.09 0h.07c.01 0 0 0 0 0s-.42-.09-.39 0c0 .1.06.18 0 .24v.06a.06.06 0 010-.06c-.07.06-.19 0-.29.06l.17.22c-.1 0-.28-.11-.28 0l-.07-.07c-.2-.12-.1.1-.17.07l-.11-.07h.08l-.21-.09a.1.1 0 01-.09.1c-.09 0-.14.09-.29 0v.1h-.11v-.07l.39-.12c-.07 0-.15.06-.2.07s-.11-.08-.07-.14v.09a.91.91 0 01-.52 0c-.05 0-.1.06-.12 0a.64.64 0 01-.44-.08v.09s-.1-.13-.1 0l-.06.05h-.13c-.11 0 0 .08-.11 0s0 .13-.09.11l-.07-.12c-.11-.06-.11.07-.26.09a.2.2 0 01-.09-.25c0 .12 0 .08-.1.14s0 0 0-.1 0 .05-.1.05 0 .25 0 .25a.16.16 0 01-.2 0h-.08v-.06h-.1a.21.21 0 01-.16 0c-.14-.1-.24 0-.4.06v-.06c-.06-.07 0 .1-.08.07v-.08c0 .11-.07 0-.11-.06v.11h-.07c-.09 0-.06-.13 0-.19v.09-.1c0 .11 0 0-.1 0s0 0 0-.07l-.11.14.07-.06v.14c-.07.11-.1 0-.15 0-.09 0-.09 0-.14-.05s0 .07 0 .08v-.06c0-.06-.06.15-.12.1v-.1.1h-.32v-.08c0 .11-.13-.05-.12.09 0-.07-.18.05-.15-.11-.16 0-.25.14-.44 0s-.24-.11-.37-.14a4.69 4.69 0 01-.64.09c-.07-.1-.16-.09-.26-.08a.29.29 0 01-.26 0l-.06.06c-.08-.13-.27 0-.39-.15h-.07a.17.17 0 010 .07c0-.05-.13 0-.11-.11 0-.1-.13 0-.16-.07v.11h-.07a.43.43 0 01-.24 0 1.06 1.06 0 01-.19-.06.46.46 0 00-.41 0c.07-.1-.07 0 0-.08s-.15 0-.23 0h-.11c.1-.14-.12.1 0 0a1.32 1.32 0 00-.49-.19 2.49 2.49 0 01-.53-.16c-.09 0-.21 0-.25-.11s-.18.05-.21.05-.11-.12-.08-.1-.2.1-.29 0-.33 0-.28-.13c-.1-.15-.29 0-.39-.19l-.48.28c0 .16-.09.32-.13.49s.06.33.1.49c.26.09.52.16.78.23l.55.37.76.2.37.1.38.08.13-.08a.75.75 0 00.48.18h.26a.82.82 0 01.24.1v-.09c.09 0 .08.06.1.08.85.14 1.73.12 2.49.27.07.07.3.05.36.12a1.54 1.54 0 01.76-.09h.12c.13-.09.34 0 .5 0h.69q.35 0 .69-.09l.68-.1a5.36 5.36 0 01.7-.05 1.7 1.7 0 00.7-.08 2.26 2.26 0 01.74-.14 1.67 1.67 0 00.6-.11 3 3 0 00.56-.23M129.18 55.39zm1.2-.41c-.06 0-.06 0 0 0m1.52.53h.06m-.34-.45"/>
    </g>
  </g>
</svg>
